<?xml version="1.0" encoding="UTF-8" standalone="no"?>
<!DOCTYPE svg PUBLIC "-//W3C//DTD SVG 1.1//EN"
 "http://www.w3.org/Graphics/SVG/1.1/DTD/svg11.dtd">
<!-- Generated by graphviz version 2.38.0 (20140413.2041)
 -->
<!-- Title: include/userobjects/DwarfElephantRBElementalVariableValue.h Pages: 1 -->
<svg width="328pt" height="117pt"
 viewBox="0.00 0.00 328.00 117.00" xmlns="http://www.w3.org/2000/svg" xmlns:xlink="http://www.w3.org/1999/xlink">
<g id="graph0" class="graph" transform="scale(1 1) rotate(0) translate(4 113)">
<title>include/userobjects/DwarfElephantRBElementalVariableValue.h</title>
<polygon fill="white" stroke="none" points="-4,4 -4,-113 324,-113 324,4 -4,4"/>
<!-- Node1 -->
<g id="node1" class="node"><title>Node1</title>
<polygon fill="#bfbfbf" stroke="black" points="69,-67.5 69,-108.5 249,-108.5 249,-67.5 69,-67.5"/>
<text text-anchor="start" x="77" y="-96.5" font-family="Helvetica,sans-Serif" font-size="10.00">include/userobjects</text>
<text text-anchor="start" x="77" y="-85.5" font-family="Helvetica,sans-Serif" font-size="10.00">/DwarfElephantRBElementalVariable</text>
<text text-anchor="middle" x="159" y="-74.5" font-family="Helvetica,sans-Serif" font-size="10.00">Value.h</text>
</g>
<!-- Node2 -->
<g id="node2" class="node"><title>Node2</title>
<g id="a_node2"><a xlink:href="_dwarf_elephant_app_8_c.html" target="_top" xlink:title="src/base/DwarfElephantApp.C">
<polygon fill="white" stroke="black" points="0,-6 0,-25 150,-25 150,-6 0,-6"/>
<text text-anchor="middle" x="75" y="-13" font-family="Helvetica,sans-Serif" font-size="10.00">src/base/DwarfElephantApp.C</text>
</a>
</g>
</g>
<!-- Node1&#45;&gt;Node2 -->
<g id="edge1" class="edge"><title>Node1&#45;&gt;Node2</title>
<path fill="none" stroke="midnightblue" d="M127.565,-60.6169C112.653,-48.102 95.8421,-33.9925 85.3342,-25.1734"/>
<polygon fill="midnightblue" stroke="midnightblue" points="125.691,-63.614 135.601,-67.3618 130.192,-58.2522 125.691,-63.614"/>
</g>
<!-- Node3 -->
<g id="node3" class="node"><title>Node3</title>
<g id="a_node3"><a xlink:href="_dwarf_elephant_r_b_elemental_variable_value_8_c.html" target="_top" xlink:title="src/userobjects/DwarfElephant\lRBElementalVariableValue.C">
<polygon fill="white" stroke="black" points="168,-0.5 168,-30.5 320,-30.5 320,-0.5 168,-0.5"/>
<text text-anchor="start" x="176" y="-18.5" font-family="Helvetica,sans-Serif" font-size="10.00">src/userobjects/DwarfElephant</text>
<text text-anchor="middle" x="244" y="-7.5" font-family="Helvetica,sans-Serif" font-size="10.00">RBElementalVariableValue.C</text>
</a>
</g>
</g>
<!-- Node1&#45;&gt;Node3 -->
<g id="edge2" class="edge"><title>Node1&#45;&gt;Node3</title>
<path fill="none" stroke="midnightblue" d="M190.536,-60.8437C202.857,-50.6249 216.497,-39.3117 226.916,-30.67"/>
<polygon fill="midnightblue" stroke="midnightblue" points="188.14,-58.2838 182.677,-67.3618 192.609,-63.6717 188.14,-58.2838"/>
</g>
</g>
</svg>
