<?xml version="1.0" encoding="UTF-8" standalone="no"?>
<!DOCTYPE svg PUBLIC "-//W3C//DTD SVG 1.1//EN"
 "http://www.w3.org/Graphics/SVG/1.1/DTD/svg11.dtd">
<!-- Generated by graphviz version 2.38.0 (20140413.2041)
 -->
<!-- Title: src/kernels/DwarfElephantFELiftingFunctionKernel.C Pages: 1 -->
<svg width="168pt" height="162pt"
 viewBox="0.00 0.00 168.00 162.00" xmlns="http://www.w3.org/2000/svg" xmlns:xlink="http://www.w3.org/1999/xlink">
<g id="graph0" class="graph" transform="scale(1 1) rotate(0) translate(4 158)">
<title>src/kernels/DwarfElephantFELiftingFunctionKernel.C</title>
<polygon fill="white" stroke="none" points="-4,4 -4,-158 164,-158 164,4 -4,4"/>
<!-- Node1 -->
<g id="node1" class="node"><title>Node1</title>
<polygon fill="#bfbfbf" stroke="black" points="13.5,-123.5 13.5,-153.5 146.5,-153.5 146.5,-123.5 13.5,-123.5"/>
<text text-anchor="start" x="21.5" y="-141.5" font-family="Helvetica,sans-Serif" font-size="10.00">src/kernels/DwarfElephant</text>
<text text-anchor="middle" x="80" y="-130.5" font-family="Helvetica,sans-Serif" font-size="10.00">FELiftingFunctionKernel.C</text>
</g>
<!-- Node2 -->
<g id="node2" class="node"><title>Node2</title>
<g id="a_node2"><a xlink:href="_dwarf_elephant_f_e_lifting_function_kernel_8h.html" target="_top" xlink:title="DwarfElephantFELiftingFunction\lKernel.h">
<polygon fill="white" stroke="black" points="0,-56.5 0,-86.5 160,-86.5 160,-56.5 0,-56.5"/>
<text text-anchor="start" x="8" y="-74.5" font-family="Helvetica,sans-Serif" font-size="10.00">DwarfElephantFELiftingFunction</text>
<text text-anchor="middle" x="80" y="-63.5" font-family="Helvetica,sans-Serif" font-size="10.00">Kernel.h</text>
</a>
</g>
</g>
<!-- Node1&#45;&gt;Node2 -->
<g id="edge1" class="edge"><title>Node1&#45;&gt;Node2</title>
<path fill="none" stroke="midnightblue" d="M80,-123.396C80,-115.645 80,-105.812 80,-96.8601"/>
<polygon fill="midnightblue" stroke="midnightblue" points="83.5001,-96.5765 80,-86.5765 76.5001,-96.5765 83.5001,-96.5765"/>
</g>
<!-- Node3 -->
<g id="node3" class="node"><title>Node3</title>
<polygon fill="white" stroke="#bfbfbf" points="7,-0.5 7,-19.5 71,-19.5 71,-0.5 7,-0.5"/>
<text text-anchor="middle" x="39" y="-7.5" font-family="Helvetica,sans-Serif" font-size="10.00">Diffusion.h</text>
</g>
<!-- Node2&#45;&gt;Node3 -->
<g id="edge2" class="edge"><title>Node2&#45;&gt;Node3</title>
<path fill="none" stroke="midnightblue" d="M70.2836,-56.3993C64.4486,-47.9315 56.9843,-37.0991 50.8103,-28.1393"/>
<polygon fill="midnightblue" stroke="midnightblue" points="53.522,-25.9062 44.9659,-19.6578 47.758,-29.8781 53.522,-25.9062"/>
</g>
<!-- Node4 -->
<g id="node4" class="node"><title>Node4</title>
<polygon fill="white" stroke="#bfbfbf" points="89.5,-0.5 89.5,-19.5 152.5,-19.5 152.5,-0.5 89.5,-0.5"/>
<text text-anchor="middle" x="121" y="-7.5" font-family="Helvetica,sans-Serif" font-size="10.00">Function.h</text>
</g>
<!-- Node2&#45;&gt;Node4 -->
<g id="edge3" class="edge"><title>Node2&#45;&gt;Node4</title>
<path fill="none" stroke="midnightblue" d="M89.7164,-56.3993C95.5514,-47.9315 103.016,-37.0991 109.19,-28.1393"/>
<polygon fill="midnightblue" stroke="midnightblue" points="112.242,-29.8781 115.034,-19.6578 106.478,-25.9062 112.242,-29.8781"/>
</g>
</g>
</svg>
