<?xml version="1.0" encoding="UTF-8" standalone="no"?>
<!DOCTYPE svg PUBLIC "-//W3C//DTD SVG 1.1//EN"
 "http://www.w3.org/Graphics/SVG/1.1/DTD/svg11.dtd">
<!-- Generated by graphviz version 2.38.0 (20140413.2041)
 -->
<!-- Title: include/userobjects/DwarfElephantRBStructuresT2F3O1SteadyState.h Pages: 1 -->
<!--zoomable 184 -->
<svg id="main" version="1.1" xmlns="http://www.w3.org/2000/svg" xmlns:xlink="http://www.w3.org/1999/xlink" xml:space="preserve" onload="init(evt)">
<style type="text/css"><![CDATA[
.edge:hover path { stroke: red; }
.edge:hover polygon { stroke: red; fill: red; }
]]></style>
<script type="text/javascript"><![CDATA[
var edges = document.getElementsByTagName('g');
if (edges && edges.length) {
  for (var i=0;i<edges.length;i++) {
    if (edges[i].id.substr(0,4)=='edge') {
      edges[i].setAttribute('class','edge');
    }
  }
}
]]></script>
        <defs>
                <circle id="rim" cx="0" cy="0" r="7"/>
                <circle id="rim2" cx="0" cy="0" r="3.5"/>
                <g id="zoomPlus">
                        <use xlink:href="#rim" fill="#404040">
                                <set attributeName="fill" to="#808080" begin="zoomplus.mouseover" end="zoomplus.mouseout"/>
                        </use>
                        <path d="M-4,0h8M0,-4v8" fill="none" stroke="white" stroke-width="1.5" pointer-events="none"/>
                </g>
                <g id="zoomMin">
                        <use xlink:href="#rim" fill="#404040">
                                <set attributeName="fill" to="#808080" begin="zoomminus.mouseover" end="zoomminus.mouseout"/>
                        </use>
                        <path d="M-4,0h8" fill="none" stroke="white" stroke-width="1.5" pointer-events="none"/>
                </g>
                <g id="dirArrow">
                        <path fill="none" stroke="white" stroke-width="1.5" d="M0,-3.0v7 M-2.5,-0.5L0,-3.0L2.5,-0.5"/>
                </g>
               <g id="resetDef">
                       <use xlink:href="#rim2" fill="#404040">
                               <set attributeName="fill" to="#808080" begin="reset.mouseover" end="reset.mouseout"/>
                       </use>
               </g>
        </defs>

<script type="text/javascript">
var viewWidth = 1782;
var viewHeight = 184;
var sectionId = 'dynsection-0';
</script>
<script xlink:href="svgpan.js"/>
<svg id="graph" class="graph">
<g id="viewport">
<title>include/userobjects/DwarfElephantRBStructuresT2F3O1SteadyState.h</title>
<polygon fill="white" stroke="none" points="-4,4 -4,-180 1778.14,-180 1778.14,4 -4,4"/>
<!-- Node1 -->
<g id="node1" class="node"><title>Node1</title>
<polygon fill="#bfbfbf" stroke="black" points="815.063,-134.5 815.063,-175.5 959.063,-175.5 959.063,-134.5 815.063,-134.5"/>
<text text-anchor="start" x="823.063" y="-163.5" font-family="Helvetica,sans-Serif" font-size="10.00">include/userobjects</text>
<text text-anchor="start" x="823.063" y="-152.5" font-family="Helvetica,sans-Serif" font-size="10.00">/DwarfElephantRBStructures</text>
<text text-anchor="middle" x="887.063" y="-141.5" font-family="Helvetica,sans-Serif" font-size="10.00">T2F3O1SteadyState.h</text>
</g>
<!-- Node2 -->
<g id="node2" class="node"><title>Node2</title>
<polygon fill="white" stroke="#bfbfbf" points="695.563,-6 695.563,-25 794.563,-25 794.563,-6 695.563,-6"/>
<text text-anchor="middle" x="745.063" y="-13" font-family="Helvetica,sans-Serif" font-size="10.00">libmesh/rb_theta.h</text>
</g>
<!-- Node1&#45;&gt;Node2 -->
<g id="edge1" class="edge"><title>Node1&#45;&gt;Node2</title>
<path fill="none" stroke="midnightblue" d="M814.699,-152.064C609.109,-146.214 34.5616,-127.304 7.06345,-98 -2.36448,-87.953 -2.34049,-77.0694 7.06345,-67 52.9705,-17.8442 517.94,-15.3215 685.379,-16.0274"/>
<polygon fill="midnightblue" stroke="midnightblue" points="685.482,-19.5278 695.499,-16.0756 685.515,-12.5279 685.482,-19.5278"/>
</g>
<!-- Node3 -->
<g id="node3" class="node"><title>Node3</title>
<polygon fill="white" stroke="#bfbfbf" points="912.063,-0.5 912.063,-30.5 1022.06,-30.5 1022.06,-0.5 912.063,-0.5"/>
<text text-anchor="start" x="920.063" y="-18.5" font-family="Helvetica,sans-Serif" font-size="10.00">libmesh/rb_assembly</text>
<text text-anchor="middle" x="967.063" y="-7.5" font-family="Helvetica,sans-Serif" font-size="10.00">_expansion.h</text>
</g>
<!-- Node1&#45;&gt;Node3 -->
<g id="edge2" class="edge"><title>Node1&#45;&gt;Node3</title>
<path fill="none" stroke="midnightblue" d="M959.428,-152.064C1165.02,-146.214 1739.57,-127.304 1767.06,-98 1776.49,-87.953 1776.49,-77.0446 1767.06,-67 1742.04,-40.3482 1218.99,-23.4224 1032.44,-18.2146"/>
<polygon fill="midnightblue" stroke="midnightblue" points="1032.32,-14.71 1022.23,-17.9318 1032.13,-21.7073 1032.32,-14.71"/>
</g>
<!-- Node4 -->
<g id="node4" class="node"><title>Node4</title>
<g id="a_node4"><a xlink:href="_dwarf_elephant_r_b_structures_a00_theta_constant_8h.html" target="_top" xlink:title="DwarfElephantRBStructures\lA00ThetaConstant.h">
<polygon fill="white" stroke="black" points="1616.06,-67.5 1616.06,-97.5 1758.06,-97.5 1758.06,-67.5 1616.06,-67.5"/>
<text text-anchor="start" x="1624.06" y="-85.5" font-family="Helvetica,sans-Serif" font-size="10.00">DwarfElephantRBStructures</text>
<text text-anchor="middle" x="1687.06" y="-74.5" font-family="Helvetica,sans-Serif" font-size="10.00">A00ThetaConstant.h</text>
</a>
</g>
</g>
<!-- Node1&#45;&gt;Node4 -->
<g id="edge3" class="edge"><title>Node1&#45;&gt;Node4</title>
<path fill="none" stroke="midnightblue" d="M959.104,-150.826C1087.23,-144.647 1363.28,-128.935 1605.95,-98.0561"/>
<polygon fill="midnightblue" stroke="midnightblue" points="1606.55,-101.508 1616.02,-96.7633 1605.66,-94.5651 1606.55,-101.508"/>
</g>
<!-- Node5 -->
<g id="node5" class="node"><title>Node5</title>
<g id="a_node5"><a xlink:href="_dwarf_elephant_r_b_structures_a0_theta_equal_mu0_8h.html" target="_top" xlink:title="DwarfElephantRBStructures\lA0ThetaEqualMu0.h">
<polygon fill="white" stroke="black" points="16.0634,-67.5 16.0634,-97.5 158.063,-97.5 158.063,-67.5 16.0634,-67.5"/>
<text text-anchor="start" x="24.0634" y="-85.5" font-family="Helvetica,sans-Serif" font-size="10.00">DwarfElephantRBStructures</text>
<text text-anchor="middle" x="87.0634" y="-74.5" font-family="Helvetica,sans-Serif" font-size="10.00">A0ThetaEqualMu0.h</text>
</a>
</g>
</g>
<!-- Node1&#45;&gt;Node5 -->
<g id="edge6" class="edge"><title>Node1&#45;&gt;Node5</title>
<path fill="none" stroke="midnightblue" d="M815.023,-150.826C686.893,-144.647 410.844,-128.935 168.176,-98.0561"/>
<polygon fill="midnightblue" stroke="midnightblue" points="168.469,-94.5651 158.105,-96.7633 167.578,-101.508 168.469,-94.5651"/>
</g>
<!-- Node6 -->
<g id="node6" class="node"><title>Node6</title>
<g id="a_node6"><a xlink:href="_dwarf_elephant_r_b_structures_a0_theta_norm_mu0_8h.html" target="_top" xlink:title="DwarfElephantRBStructures\lA0ThetaNormMu0.h">
<polygon fill="white" stroke="black" points="176.063,-67.5 176.063,-97.5 318.063,-97.5 318.063,-67.5 176.063,-67.5"/>
<text text-anchor="start" x="184.063" y="-85.5" font-family="Helvetica,sans-Serif" font-size="10.00">DwarfElephantRBStructures</text>
<text text-anchor="middle" x="247.063" y="-74.5" font-family="Helvetica,sans-Serif" font-size="10.00">A0ThetaNormMu0.h</text>
</a>
</g>
</g>
<!-- Node1&#45;&gt;Node6 -->
<g id="edge9" class="edge"><title>Node1&#45;&gt;Node6</title>
<path fill="none" stroke="midnightblue" d="M814.797,-148.624C709.833,-140.405 508.896,-123.125 328.076,-98.0722"/>
<polygon fill="midnightblue" stroke="midnightblue" points="328.504,-94.5981 318.116,-96.6814 327.536,-101.531 328.504,-94.5981"/>
</g>
<!-- Node7 -->
<g id="node7" class="node"><title>Node7</title>
<g id="a_node7"><a xlink:href="_dwarf_elephant_r_b_structures_a0_theta_norm_mu1_8h.html" target="_top" xlink:title="DwarfElephantRBStructures\lA0ThetaNormMu1.h">
<polygon fill="white" stroke="black" points="336.063,-67.5 336.063,-97.5 478.063,-97.5 478.063,-67.5 336.063,-67.5"/>
<text text-anchor="start" x="344.063" y="-85.5" font-family="Helvetica,sans-Serif" font-size="10.00">DwarfElephantRBStructures</text>
<text text-anchor="middle" x="407.063" y="-74.5" font-family="Helvetica,sans-Serif" font-size="10.00">A0ThetaNormMu1.h</text>
</a>
</g>
</g>
<!-- Node1&#45;&gt;Node7 -->
<g id="edge12" class="edge"><title>Node1&#45;&gt;Node7</title>
<path fill="none" stroke="midnightblue" d="M815.036,-144.803C737.044,-134.643 608.729,-117.348 488.277,-98.1581"/>
<polygon fill="midnightblue" stroke="midnightblue" points="488.566,-94.6599 478.138,-96.5354 487.459,-101.572 488.566,-94.6599"/>
</g>
<!-- Node8 -->
<g id="node8" class="node"><title>Node8</title>
<g id="a_node8"><a xlink:href="_dwarf_elephant_r_b_structures_a1_theta_equal_mu1_8h.html" target="_top" xlink:title="DwarfElephantRBStructures\lA1ThetaEqualMu1.h">
<polygon fill="white" stroke="black" points="496.063,-67.5 496.063,-97.5 638.063,-97.5 638.063,-67.5 496.063,-67.5"/>
<text text-anchor="start" x="504.063" y="-85.5" font-family="Helvetica,sans-Serif" font-size="10.00">DwarfElephantRBStructures</text>
<text text-anchor="middle" x="567.063" y="-74.5" font-family="Helvetica,sans-Serif" font-size="10.00">A1ThetaEqualMu1.h</text>
</a>
</g>
</g>
<!-- Node1&#45;&gt;Node8 -->
<g id="edge15" class="edge"><title>Node1&#45;&gt;Node8</title>
<path fill="none" stroke="midnightblue" d="M814.85,-138.091C762.811,-126.626 692.827,-111.207 640.507,-99.6806"/>
<polygon fill="midnightblue" stroke="midnightblue" points="641.14,-96.2361 630.621,-97.5025 639.634,-103.072 641.14,-96.2361"/>
</g>
<!-- Node9 -->
<g id="node9" class="node"><title>Node9</title>
<g id="a_node9"><a xlink:href="_dwarf_elephant_r_b_structures_a1_theta_norm_mu0_8h.html" target="_top" xlink:title="DwarfElephantRBStructures\lA1ThetaNormMu0.h">
<polygon fill="white" stroke="black" points="656.063,-67.5 656.063,-97.5 798.063,-97.5 798.063,-67.5 656.063,-67.5"/>
<text text-anchor="start" x="664.063" y="-85.5" font-family="Helvetica,sans-Serif" font-size="10.00">DwarfElephantRBStructures</text>
<text text-anchor="middle" x="727.063" y="-74.5" font-family="Helvetica,sans-Serif" font-size="10.00">A1ThetaNormMu0.h</text>
</a>
</g>
</g>
<!-- Node1&#45;&gt;Node9 -->
<g id="edge18" class="edge"><title>Node1&#45;&gt;Node9</title>
<path fill="none" stroke="midnightblue" d="M842.495,-134.362C819.274,-124.13 791.063,-111.7 768.342,-101.689"/>
<polygon fill="midnightblue" stroke="midnightblue" points="769.534,-98.389 758.972,-97.5597 766.712,-104.795 769.534,-98.389"/>
</g>
<!-- Node10 -->
<g id="node10" class="node"><title>Node10</title>
<g id="a_node10"><a xlink:href="_dwarf_elephant_r_b_structures_a1_theta_norm_mu1_8h.html" target="_top" xlink:title="DwarfElephantRBStructures\lA1ThetaNormMu1.h">
<polygon fill="white" stroke="black" points="816.063,-67.5 816.063,-97.5 958.063,-97.5 958.063,-67.5 816.063,-67.5"/>
<text text-anchor="start" x="824.063" y="-85.5" font-family="Helvetica,sans-Serif" font-size="10.00">DwarfElephantRBStructures</text>
<text text-anchor="middle" x="887.063" y="-74.5" font-family="Helvetica,sans-Serif" font-size="10.00">A1ThetaNormMu1.h</text>
</a>
</g>
</g>
<!-- Node1&#45;&gt;Node10 -->
<g id="edge21" class="edge"><title>Node1&#45;&gt;Node10</title>
<path fill="none" stroke="midnightblue" d="M887.063,-134.362C887.063,-126.226 887.063,-116.7 887.063,-108.105"/>
<polygon fill="midnightblue" stroke="midnightblue" points="890.564,-107.892 887.063,-97.8916 883.564,-107.892 890.564,-107.892"/>
</g>
<!-- Node11 -->
<g id="node11" class="node"><title>Node11</title>
<g id="a_node11"><a xlink:href="_dwarf_elephant_r_b_structures_a2_theta_equal_mu2_8h.html" target="_top" xlink:title="DwarfElephantRBStructures\lA2ThetaEqualMu2.h">
<polygon fill="white" stroke="black" points="976.063,-67.5 976.063,-97.5 1118.06,-97.5 1118.06,-67.5 976.063,-67.5"/>
<text text-anchor="start" x="984.063" y="-85.5" font-family="Helvetica,sans-Serif" font-size="10.00">DwarfElephantRBStructures</text>
<text text-anchor="middle" x="1047.06" y="-74.5" font-family="Helvetica,sans-Serif" font-size="10.00">A2ThetaEqualMu2.h</text>
</a>
</g>
</g>
<!-- Node1&#45;&gt;Node11 -->
<g id="edge24" class="edge"><title>Node1&#45;&gt;Node11</title>
<path fill="none" stroke="midnightblue" d="M931.632,-134.362C954.853,-124.13 983.064,-111.7 1005.78,-101.689"/>
<polygon fill="midnightblue" stroke="midnightblue" points="1007.42,-104.795 1015.16,-97.5597 1004.59,-98.389 1007.42,-104.795"/>
</g>
<!-- Node12 -->
<g id="node12" class="node"><title>Node12</title>
<g id="a_node12"><a xlink:href="_dwarf_elephant_r_b_structures_a2_theta_norm_mu0_8h.html" target="_top" xlink:title="DwarfElephantRBStructures\lA2ThetaNormMu0.h">
<polygon fill="white" stroke="black" points="1136.06,-67.5 1136.06,-97.5 1278.06,-97.5 1278.06,-67.5 1136.06,-67.5"/>
<text text-anchor="start" x="1144.06" y="-85.5" font-family="Helvetica,sans-Serif" font-size="10.00">DwarfElephantRBStructures</text>
<text text-anchor="middle" x="1207.06" y="-74.5" font-family="Helvetica,sans-Serif" font-size="10.00">A2ThetaNormMu0.h</text>
</a>
</g>
</g>
<!-- Node1&#45;&gt;Node12 -->
<g id="edge27" class="edge"><title>Node1&#45;&gt;Node12</title>
<path fill="none" stroke="midnightblue" d="M959.277,-138.091C1011.32,-126.626 1081.3,-111.207 1133.62,-99.6806"/>
<polygon fill="midnightblue" stroke="midnightblue" points="1134.49,-103.072 1143.51,-97.5025 1132.99,-96.2361 1134.49,-103.072"/>
</g>
<!-- Node13 -->
<g id="node13" class="node"><title>Node13</title>
<g id="a_node13"><a xlink:href="_dwarf_elephant_r_b_structures_a2_theta_norm_mu1_8h.html" target="_top" xlink:title="DwarfElephantRBStructures\lA2ThetaNormMu1.h">
<polygon fill="white" stroke="black" points="1296.06,-67.5 1296.06,-97.5 1438.06,-97.5 1438.06,-67.5 1296.06,-67.5"/>
<text text-anchor="start" x="1304.06" y="-85.5" font-family="Helvetica,sans-Serif" font-size="10.00">DwarfElephantRBStructures</text>
<text text-anchor="middle" x="1367.06" y="-74.5" font-family="Helvetica,sans-Serif" font-size="10.00">A2ThetaNormMu1.h</text>
</a>
</g>
</g>
<!-- Node1&#45;&gt;Node13 -->
<g id="edge30" class="edge"><title>Node1&#45;&gt;Node13</title>
<path fill="none" stroke="midnightblue" d="M959.091,-144.803C1037.08,-134.643 1165.4,-117.348 1285.85,-98.1581"/>
<polygon fill="midnightblue" stroke="midnightblue" points="1286.67,-101.572 1295.99,-96.5354 1285.56,-94.6599 1286.67,-101.572"/>
</g>
<!-- Node14 -->
<g id="node14" class="node"><title>Node14</title>
<g id="a_node14"><a xlink:href="_dwarf_elephant_r_b_structures_a3_theta_equal_mu3_8h.html" target="_top" xlink:title="DwarfElephantRBStructures\lA3ThetaEqualMu3.h">
<polygon fill="white" stroke="black" points="1456.06,-67.5 1456.06,-97.5 1598.06,-97.5 1598.06,-67.5 1456.06,-67.5"/>
<text text-anchor="start" x="1464.06" y="-85.5" font-family="Helvetica,sans-Serif" font-size="10.00">DwarfElephantRBStructures</text>
<text text-anchor="middle" x="1527.06" y="-74.5" font-family="Helvetica,sans-Serif" font-size="10.00">A3ThetaEqualMu3.h</text>
</a>
</g>
</g>
<!-- Node1&#45;&gt;Node14 -->
<g id="edge33" class="edge"><title>Node1&#45;&gt;Node14</title>
<path fill="none" stroke="midnightblue" d="M959.33,-148.624C1064.29,-140.405 1265.23,-123.125 1446.05,-98.0722"/>
<polygon fill="midnightblue" stroke="midnightblue" points="1446.59,-101.531 1456.01,-96.6814 1445.62,-94.5981 1446.59,-101.531"/>
</g>
<!-- Node4&#45;&gt;Node2 -->
<g id="edge4" class="edge"><title>Node4&#45;&gt;Node2</title>
<path fill="none" stroke="midnightblue" d="M1616.03,-68.138C1613.01,-67.7231 1610.01,-67.3407 1607.06,-67 1295.84,-30.9886 1215.57,-53.3204 903.063,-31 870.621,-28.6828 834.492,-25.4183 804.98,-22.5735"/>
<polygon fill="midnightblue" stroke="midnightblue" points="805.126,-19.0712 794.834,-21.587 804.448,-26.0384 805.126,-19.0712"/>
</g>
<!-- Node4&#45;&gt;Node3 -->
<g id="edge5" class="edge"><title>Node4&#45;&gt;Node3</title>
<path fill="none" stroke="midnightblue" d="M1616.02,-68.2409C1613,-67.7978 1610,-67.3814 1607.06,-67 1398.11,-39.8899 1148.76,-25.2805 1032.62,-19.493"/>
<polygon fill="midnightblue" stroke="midnightblue" points="1032.63,-15.9895 1022.47,-18.993 1032.29,-22.981 1032.63,-15.9895"/>
</g>
<!-- Node5&#45;&gt;Node2 -->
<g id="edge7" class="edge"><title>Node5&#45;&gt;Node2</title>
<path fill="none" stroke="midnightblue" d="M158.11,-68.2721C161.131,-67.8205 164.126,-67.3937 167.063,-67 355.471,-41.7496 580.199,-26.2841 685.314,-19.8989"/>
<polygon fill="midnightblue" stroke="midnightblue" points="685.639,-23.3857 695.411,-19.2912 685.219,-16.3984 685.639,-23.3857"/>
</g>
<!-- Node5&#45;&gt;Node3 -->
<g id="edge8" class="edge"><title>Node5&#45;&gt;Node3</title>
<path fill="none" stroke="midnightblue" d="M158.095,-68.1583C161.121,-67.7378 164.12,-67.3487 167.063,-67 448.216,-33.6909 520.685,-51.4699 803.063,-31 835.72,-28.6327 871.988,-25.4807 902.097,-22.7203"/>
<polygon fill="midnightblue" stroke="midnightblue" points="902.422,-26.2053 912.058,-21.8008 901.778,-19.2349 902.422,-26.2053"/>
</g>
<!-- Node6&#45;&gt;Node2 -->
<g id="edge10" class="edge"><title>Node6&#45;&gt;Node2</title>
<path fill="none" stroke="midnightblue" d="M318.127,-68.3948C321.144,-67.9096 324.132,-67.4423 327.063,-67 454.255,-47.8071 604.096,-31.1385 685.347,-22.5927"/>
<polygon fill="midnightblue" stroke="midnightblue" points="685.808,-26.0637 695.389,-21.5412 685.079,-19.1018 685.808,-26.0637"/>
</g>
<!-- Node6&#45;&gt;Node3 -->
<g id="edge11" class="edge"><title>Node6&#45;&gt;Node3</title>
<path fill="none" stroke="midnightblue" d="M318.104,-68.2288C321.127,-67.789 324.123,-67.3766 327.063,-67 537.504,-40.045 591.614,-48.3429 803.063,-31 835.696,-28.3235 871.962,-25.139 902.075,-22.4371"/>
<polygon fill="midnightblue" stroke="midnightblue" points="902.391,-25.9228 912.038,-21.5407 901.764,-18.951 902.391,-25.9228"/>
</g>
<!-- Node7&#45;&gt;Node2 -->
<g id="edge13" class="edge"><title>Node7&#45;&gt;Node2</title>
<path fill="none" stroke="midnightblue" d="M478.332,-67.7946C541.733,-55.6021 633.094,-38.0326 690.746,-26.9456"/>
<polygon fill="midnightblue" stroke="midnightblue" points="691.594,-30.3468 700.753,-25.0212 690.272,-23.4728 691.594,-30.3468"/>
</g>
<!-- Node7&#45;&gt;Node3 -->
<g id="edge14" class="edge"><title>Node7&#45;&gt;Node3</title>
<path fill="none" stroke="midnightblue" d="M478.119,-68.3377C481.138,-67.8681 484.129,-67.4197 487.063,-67 565.39,-55.7972 789.377,-33.6402 901.486,-22.7879"/>
<polygon fill="midnightblue" stroke="midnightblue" points="902.034,-26.2513 911.651,-21.8053 901.361,-19.2838 902.034,-26.2513"/>
</g>
<!-- Node8&#45;&gt;Node2 -->
<g id="edge16" class="edge"><title>Node8&#45;&gt;Node2</title>
<path fill="none" stroke="midnightblue" d="M605.687,-67.396C637.472,-55.7891 682.038,-39.5147 712.149,-28.5192"/>
<polygon fill="midnightblue" stroke="midnightblue" points="713.575,-31.7249 721.767,-25.007 711.173,-25.1495 713.575,-31.7249"/>
</g>
<!-- Node8&#45;&gt;Node3 -->
<g id="edge17" class="edge"><title>Node8&#45;&gt;Node3</title>
<path fill="none" stroke="midnightblue" d="M638.149,-68.5291C641.16,-68.0071 644.141,-67.4954 647.063,-67 735.097,-52.0775 837.009,-36.242 901.73,-26.3647"/>
<polygon fill="midnightblue" stroke="midnightblue" points="902.432,-29.7983 911.79,-24.8317 901.377,-22.8782 902.432,-29.7983"/>
</g>
<!-- Node9&#45;&gt;Node2 -->
<g id="edge19" class="edge"><title>Node9&#45;&gt;Node2</title>
<path fill="none" stroke="midnightblue" d="M730.969,-67.396C733.609,-57.8631 737.121,-45.1818 739.978,-34.8624"/>
<polygon fill="midnightblue" stroke="midnightblue" points="743.36,-35.7659 742.656,-25.1945 736.614,-33.8977 743.36,-35.7659"/>
</g>
<!-- Node9&#45;&gt;Node3 -->
<g id="edge20" class="edge"><title>Node9&#45;&gt;Node3</title>
<path fill="none" stroke="midnightblue" d="M778.844,-67.476C815.938,-57.4297 866.055,-43.8564 905.247,-33.2418"/>
<polygon fill="midnightblue" stroke="midnightblue" points="906.224,-36.6034 914.962,-30.6109 904.394,-29.8469 906.224,-36.6034"/>
</g>
<!-- Node10&#45;&gt;Node2 -->
<g id="edge22" class="edge"><title>Node10&#45;&gt;Node2</title>
<path fill="none" stroke="midnightblue" d="M856.252,-67.396C831.446,-56.0414 796.883,-40.2201 772.903,-29.2437"/>
<polygon fill="midnightblue" stroke="midnightblue" points="774.197,-25.9868 763.648,-25.007 771.284,-32.3516 774.197,-25.9868"/>
</g>
<!-- Node10&#45;&gt;Node3 -->
<g id="edge23" class="edge"><title>Node10&#45;&gt;Node3</title>
<path fill="none" stroke="midnightblue" d="M904.422,-67.396C915.325,-58.5375 929.574,-46.9604 941.727,-37.0861"/>
<polygon fill="midnightblue" stroke="midnightblue" points="944.184,-39.5989 949.739,-30.5765 939.77,-34.1661 944.184,-39.5989"/>
</g>
<!-- Node11&#45;&gt;Node2 -->
<g id="edge25" class="edge"><title>Node11&#45;&gt;Node2</title>
<path fill="none" stroke="midnightblue" d="M981.906,-67.476C925.66,-55.3701 845.619,-38.1427 794.509,-27.1424"/>
<polygon fill="midnightblue" stroke="midnightblue" points="795.202,-23.7112 784.689,-25.0287 793.729,-30.5545 795.202,-23.7112"/>
</g>
<!-- Node11&#45;&gt;Node3 -->
<g id="edge26" class="edge"><title>Node11&#45;&gt;Node3</title>
<path fill="none" stroke="midnightblue" d="M1029.7,-67.396C1018.8,-58.5375 1004.55,-46.9604 992.4,-37.0861"/>
<polygon fill="midnightblue" stroke="midnightblue" points="994.357,-34.1661 984.388,-30.5765 989.942,-39.5989 994.357,-34.1661"/>
</g>
<!-- Node12&#45;&gt;Node2 -->
<g id="edge28" class="edge"><title>Node12&#45;&gt;Node2</title>
<path fill="none" stroke="midnightblue" d="M1135.99,-68.4363C1132.98,-67.9397 1129.99,-67.4587 1127.06,-67 1013.44,-49.2036 880.156,-32.5354 804.854,-23.5057"/>
<polygon fill="midnightblue" stroke="midnightblue" points="804.966,-19.9943 794.621,-22.283 804.135,-26.9449 804.966,-19.9943"/>
</g>
<!-- Node12&#45;&gt;Node3 -->
<g id="edge29" class="edge"><title>Node12&#45;&gt;Node3</title>
<path fill="none" stroke="midnightblue" d="M1155.28,-67.476C1118.19,-57.4297 1068.07,-43.8564 1028.88,-33.2418"/>
<polygon fill="midnightblue" stroke="midnightblue" points="1029.73,-29.8469 1019.17,-30.6109 1027.9,-36.6034 1029.73,-29.8469"/>
</g>
<!-- Node13&#45;&gt;Node2 -->
<g id="edge31" class="edge"><title>Node13&#45;&gt;Node2</title>
<path fill="none" stroke="midnightblue" d="M1296.01,-68.2935C1292.99,-67.836 1290,-67.4022 1287.06,-67 1275.22,-65.3776 943.194,-34.7435 804.767,-21.9946"/>
<polygon fill="midnightblue" stroke="midnightblue" points="805.025,-18.5037 794.746,-21.0719 804.383,-25.4742 805.025,-18.5037"/>
</g>
<!-- Node13&#45;&gt;Node3 -->
<g id="edge32" class="edge"><title>Node13&#45;&gt;Node3</title>
<path fill="none" stroke="midnightblue" d="M1295.98,-68.5291C1292.97,-68.0071 1289.99,-67.4954 1287.06,-67 1199.03,-52.0775 1097.12,-36.242 1032.4,-26.3647"/>
<polygon fill="midnightblue" stroke="midnightblue" points="1032.75,-22.8782 1022.34,-24.8317 1031.7,-29.7983 1032.75,-22.8782"/>
</g>
<!-- Node14&#45;&gt;Node2 -->
<g id="edge34" class="edge"><title>Node14&#45;&gt;Node2</title>
<path fill="none" stroke="midnightblue" d="M1456.03,-68.1938C1453,-67.7636 1450.01,-67.3628 1447.06,-67 1206.58,-37.3455 1144.62,-50.0735 903.063,-31 870.639,-28.4397 834.512,-25.1564 804.996,-22.3618"/>
<polygon fill="midnightblue" stroke="midnightblue" points="805.135,-18.8593 794.848,-21.3957 804.472,-25.8278 805.135,-18.8593"/>
</g>
<!-- Node14&#45;&gt;Node3 -->
<g id="edge35" class="edge"><title>Node14&#45;&gt;Node3</title>
<path fill="none" stroke="midnightblue" d="M1456.01,-68.3377C1452.99,-67.8681 1450,-67.4197 1447.06,-67 1299.35,-45.8734 1124.88,-29.7031 1032.35,-21.8163"/>
<polygon fill="midnightblue" stroke="midnightblue" points="1032.56,-18.3212 1022.3,-20.9644 1031.97,-25.2962 1032.56,-18.3212"/>
</g>
</g>
</svg>
        <g id="navigator" transform="translate(0 0)" fill="#404254">
                <rect fill="#f2f5e9" fill-opacity="0.5" stroke="#606060" stroke-width=".5" x="0" y="0" width="60" height="60"/>
                <use id="zoomplus" xlink:href="#zoomPlus" x="17" y="9" onmousedown="handleZoom(evt,'in')"/>
                <use id="zoomminus" xlink:href="#zoomMin" x="42" y="9" onmousedown="handleZoom(evt,'out')"/>
                <use id="reset" xlink:href="#resetDef" x="30" y="36" onmousedown="handleReset()"/>
                <g id="arrowUp" xlink:href="#dirArrow" transform="translate(30 24)" onmousedown="handlePan(0,-1)">
                  <use xlink:href="#rim" fill="#404040">
                        <set attributeName="fill" to="#808080" begin="arrowUp.mouseover" end="arrowUp.mouseout"/>
                  </use>
                  <path fill="none" stroke="white" stroke-width="1.5" d="M0,-3.0v7 M-2.5,-0.5L0,-3.0L2.5,-0.5"/>
                </g>
                <g id="arrowRight" xlink:href="#dirArrow" transform="rotate(90) translate(36 -43)" onmousedown="handlePan(1,0)">
                  <use xlink:href="#rim" fill="#404040">
                        <set attributeName="fill" to="#808080" begin="arrowRight.mouseover" end="arrowRight.mouseout"/>
                  </use>
                  <path fill="none" stroke="white" stroke-width="1.5" d="M0,-3.0v7 M-2.5,-0.5L0,-3.0L2.5,-0.5"/>
                </g>
                <g id="arrowDown" xlink:href="#dirArrow" transform="rotate(180) translate(-30 -48)" onmousedown="handlePan(0,1)">
                  <use xlink:href="#rim" fill="#404040">
                        <set attributeName="fill" to="#808080" begin="arrowDown.mouseover" end="arrowDown.mouseout"/>
                  </use>
                  <path fill="none" stroke="white" stroke-width="1.5" d="M0,-3.0v7 M-2.5,-0.5L0,-3.0L2.5,-0.5"/>
                </g>
                <g id="arrowLeft" xlink:href="#dirArrow" transform="rotate(270) translate(-36 17)" onmousedown="handlePan(-1,0)">
                  <use xlink:href="#rim" fill="#404040">
                        <set attributeName="fill" to="#808080" begin="arrowLeft.mouseover" end="arrowLeft.mouseout"/>
                  </use>
                  <path fill="none" stroke="white" stroke-width="1.5" d="M0,-3.0v7 M-2.5,-0.5L0,-3.0L2.5,-0.5"/>
                </g>
        </g>
        <svg viewBox="0 0 15 15" width="100%" height="30px" preserveAspectRatio="xMaxYMin meet">
         <g id="arrow_out" transform="scale(0.3 0.3)">
          <a xlink:href="_dwarf_elephant_r_b_structures_t2_f3_o1_steady_state_8h__incl_org.svg" target="_base">
           <rect id="button" ry="5" rx="5" y="6" x="6" height="38" width="38"
                fill="#f2f5e9" fill-opacity="0.5" stroke="#606060" stroke-width="1.0"/>
           <path id="arrow"
             d="M 11.500037,31.436501 C 11.940474,20.09759 22.043105,11.32322 32.158766,21.979434 L 37.068811,17.246167 C 37.068811,17.246167 37.088388,32 37.088388,32 L 22.160133,31.978069 C 22.160133,31.978069 26.997745,27.140456 26.997745,27.140456 C 18.528582,18.264221 13.291696,25.230495 11.500037,31.436501 z"
             style="fill:#404040;"/>
          </a>
         </g>
        </svg>
</svg>
