<?xml version="1.0" encoding="UTF-8" standalone="no"?>
<!DOCTYPE svg PUBLIC "-//W3C//DTD SVG 1.1//EN"
 "http://www.w3.org/Graphics/SVG/1.1/DTD/svg11.dtd">
<!-- Generated by graphviz version 2.38.0 (20140413.2041)
 -->
<!-- Title: include/bcs/DwarfElephantRBPresetBC.h Pages: 1 -->
<svg width="360pt" height="95pt"
 viewBox="0.00 0.00 359.50 95.00" xmlns="http://www.w3.org/2000/svg" xmlns:xlink="http://www.w3.org/1999/xlink">
<g id="graph0" class="graph" transform="scale(1 1) rotate(0) translate(4 91)">
<title>include/bcs/DwarfElephantRBPresetBC.h</title>
<polygon fill="white" stroke="none" points="-4,4 -4,-91 355.5,-91 355.5,4 -4,4"/>
<!-- Node1 -->
<g id="node1" class="node"><title>Node1</title>
<polygon fill="#bfbfbf" stroke="black" points="99.5,-56.5 99.5,-86.5 234.5,-86.5 234.5,-56.5 99.5,-56.5"/>
<text text-anchor="start" x="107.5" y="-74.5" font-family="Helvetica,sans-Serif" font-size="10.00">include/bcs/DwarfElephant</text>
<text text-anchor="middle" x="167" y="-63.5" font-family="Helvetica,sans-Serif" font-size="10.00">RBPresetBC.h</text>
</g>
<!-- Node2 -->
<g id="node2" class="node"><title>Node2</title>
<g id="a_node2"><a xlink:href="_dwarf_elephant_app_8_c.html" target="_top" xlink:title="src/base/DwarfElephantApp.C">
<polygon fill="white" stroke="black" points="0,-0.5 0,-19.5 150,-19.5 150,-0.5 0,-0.5"/>
<text text-anchor="middle" x="75" y="-7.5" font-family="Helvetica,sans-Serif" font-size="10.00">src/base/DwarfElephantApp.C</text>
</a>
</g>
</g>
<!-- Node1&#45;&gt;Node2 -->
<g id="edge1" class="edge"><title>Node1&#45;&gt;Node2</title>
<path fill="none" stroke="midnightblue" d="M136.503,-50.7764C120.198,-40.2315 100.951,-27.7834 88.3868,-19.6578"/>
<polygon fill="midnightblue" stroke="midnightblue" points="134.9,-53.9076 145.197,-56.3993 138.701,-48.0297 134.9,-53.9076"/>
</g>
<!-- Node3 -->
<g id="node3" class="node"><title>Node3</title>
<g id="a_node3"><a xlink:href="_dwarf_elephant_r_b_preset_b_c_8_c.html" target="_top" xlink:title="src/bcs/DwarfElephantRBPresetBC.C">
<polygon fill="white" stroke="black" points="168.5,-0.5 168.5,-19.5 351.5,-19.5 351.5,-0.5 168.5,-0.5"/>
<text text-anchor="middle" x="260" y="-7.5" font-family="Helvetica,sans-Serif" font-size="10.00">src/bcs/DwarfElephantRBPresetBC.C</text>
</a>
</g>
</g>
<!-- Node1&#45;&gt;Node3 -->
<g id="edge2" class="edge"><title>Node1&#45;&gt;Node3</title>
<path fill="none" stroke="midnightblue" d="M197.829,-50.7764C214.31,-40.2315 233.767,-27.7834 246.468,-19.6578"/>
<polygon fill="midnightblue" stroke="midnightblue" points="195.577,-48.0618 189.04,-56.3993 199.35,-53.9583 195.577,-48.0618"/>
</g>
</g>
</svg>
