<?xml version="1.0" encoding="UTF-8" standalone="no"?>
<!DOCTYPE svg PUBLIC "-//W3C//DTD SVG 1.1//EN"
 "http://www.w3.org/Graphics/SVG/1.1/DTD/svg11.dtd">
<!-- Generated by graphviz version 2.38.0 (20140413.2041)
 -->
<!-- Title: src/kernels/DwarfElephantFEConstantRadiogenicHeatProduction.C Pages: 1 -->
<svg width="206pt" height="162pt"
 viewBox="0.00 0.00 206.00 162.00" xmlns="http://www.w3.org/2000/svg" xmlns:xlink="http://www.w3.org/1999/xlink">
<g id="graph0" class="graph" transform="scale(1 1) rotate(0) translate(4 158)">
<title>src/kernels/DwarfElephantFEConstantRadiogenicHeatProduction.C</title>
<polygon fill="white" stroke="none" points="-4,4 -4,-158 202,-158 202,4 -4,4"/>
<!-- Node1 -->
<g id="node1" class="node"><title>Node1</title>
<polygon fill="#bfbfbf" stroke="black" points="0,-123.5 0,-153.5 198,-153.5 198,-123.5 0,-123.5"/>
<text text-anchor="start" x="8" y="-141.5" font-family="Helvetica,sans-Serif" font-size="10.00">src/kernels/DwarfElephant</text>
<text text-anchor="middle" x="99" y="-130.5" font-family="Helvetica,sans-Serif" font-size="10.00">FEConstantRadiogenicHeatProduction.C</text>
</g>
<!-- Node2 -->
<g id="node2" class="node"><title>Node2</title>
<g id="a_node2"><a xlink:href="_dwarf_elephant_f_e_constant_radiogenic_heat_production_8h.html" target="_top" xlink:title="DwarfElephantFEConstantRadiogenic\lHeatProduction.h">
<polygon fill="white" stroke="black" points="6.5,-56.5 6.5,-86.5 191.5,-86.5 191.5,-56.5 6.5,-56.5"/>
<text text-anchor="start" x="14.5" y="-74.5" font-family="Helvetica,sans-Serif" font-size="10.00">DwarfElephantFEConstantRadiogenic</text>
<text text-anchor="middle" x="99" y="-63.5" font-family="Helvetica,sans-Serif" font-size="10.00">HeatProduction.h</text>
</a>
</g>
</g>
<!-- Node1&#45;&gt;Node2 -->
<g id="edge1" class="edge"><title>Node1&#45;&gt;Node2</title>
<path fill="none" stroke="midnightblue" d="M99,-123.396C99,-115.645 99,-105.812 99,-96.8601"/>
<polygon fill="midnightblue" stroke="midnightblue" points="102.5,-96.5765 99,-86.5765 95.5001,-96.5765 102.5,-96.5765"/>
</g>
<!-- Node3 -->
<g id="node3" class="node"><title>Node3</title>
<polygon fill="white" stroke="#bfbfbf" points="72,-0.5 72,-19.5 126,-19.5 126,-0.5 72,-0.5"/>
<text text-anchor="middle" x="99" y="-7.5" font-family="Helvetica,sans-Serif" font-size="10.00">Kernel.h</text>
</g>
<!-- Node2&#45;&gt;Node3 -->
<g id="edge2" class="edge"><title>Node2&#45;&gt;Node3</title>
<path fill="none" stroke="midnightblue" d="M99,-56.3993C99,-48.4664 99,-38.458 99,-29.8583"/>
<polygon fill="midnightblue" stroke="midnightblue" points="102.5,-29.6577 99,-19.6578 95.5001,-29.6578 102.5,-29.6577"/>
</g>
</g>
</svg>
