<?xml version="1.0" encoding="UTF-8" standalone="no"?>
<!DOCTYPE svg PUBLIC "-//W3C//DTD SVG 1.1//EN"
 "http://www.w3.org/Graphics/SVG/1.1/DTD/svg11.dtd">
<!-- Generated by graphviz version 2.38.0 (20140413.2041)
 -->
<!-- Title: include/vectorpostprocessors/DwarfElephantAllElementalVariableValues.h Pages: 1 -->
<svg width="354pt" height="128pt"
 viewBox="0.00 0.00 353.50 128.00" xmlns="http://www.w3.org/2000/svg" xmlns:xlink="http://www.w3.org/1999/xlink">
<g id="graph0" class="graph" transform="scale(1 1) rotate(0) translate(4 124)">
<title>include/vectorpostprocessors/DwarfElephantAllElementalVariableValues.h</title>
<polygon fill="white" stroke="none" points="-4,4 -4,-124 349.5,-124 349.5,4 -4,4"/>
<!-- Node1 -->
<g id="node1" class="node"><title>Node1</title>
<polygon fill="#bfbfbf" stroke="black" points="77.5,-78.5 77.5,-119.5 254.5,-119.5 254.5,-78.5 77.5,-78.5"/>
<text text-anchor="start" x="85.5" y="-107.5" font-family="Helvetica,sans-Serif" font-size="10.00">include/vectorpostprocessors</text>
<text text-anchor="start" x="85.5" y="-96.5" font-family="Helvetica,sans-Serif" font-size="10.00">/DwarfElephantAllElementalVariable</text>
<text text-anchor="middle" x="166" y="-85.5" font-family="Helvetica,sans-Serif" font-size="10.00">Values.h</text>
</g>
<!-- Node2 -->
<g id="node2" class="node"><title>Node2</title>
<g id="a_node2"><a xlink:href="_dwarf_elephant_app_8_c.html" target="_top" xlink:title="src/base/DwarfElephantApp.C">
<polygon fill="white" stroke="black" points="0,-11.5 0,-30.5 150,-30.5 150,-11.5 0,-11.5"/>
<text text-anchor="middle" x="75" y="-18.5" font-family="Helvetica,sans-Serif" font-size="10.00">src/base/DwarfElephantApp.C</text>
</a>
</g>
</g>
<!-- Node1&#45;&gt;Node2 -->
<g id="edge1" class="edge"><title>Node1&#45;&gt;Node2</title>
<path fill="none" stroke="midnightblue" d="M134.88,-72.0093C117.589,-57.5691 97.2112,-40.55 85.2399,-30.552"/>
<polygon fill="midnightblue" stroke="midnightblue" points="132.646,-74.7043 142.565,-78.4281 137.133,-69.3316 132.646,-74.7043"/>
</g>
<!-- Node3 -->
<g id="node3" class="node"><title>Node3</title>
<g id="a_node3"><a xlink:href="_dwarf_elephant_all_elemental_variable_values_8_c.html" target="_top" xlink:title="src/vectorpostprocessors\l/DwarfElephantAllElementalVariable\lValues.C">
<polygon fill="white" stroke="black" points="168.5,-0.5 168.5,-41.5 345.5,-41.5 345.5,-0.5 168.5,-0.5"/>
<text text-anchor="start" x="176.5" y="-29.5" font-family="Helvetica,sans-Serif" font-size="10.00">src/vectorpostprocessors</text>
<text text-anchor="start" x="176.5" y="-18.5" font-family="Helvetica,sans-Serif" font-size="10.00">/DwarfElephantAllElementalVariable</text>
<text text-anchor="middle" x="257" y="-7.5" font-family="Helvetica,sans-Serif" font-size="10.00">Values.C</text>
</a>
</g>
</g>
<!-- Node1&#45;&gt;Node3 -->
<g id="edge2" class="edge"><title>Node1&#45;&gt;Node3</title>
<path fill="none" stroke="midnightblue" d="M197.397,-71.7785C209.293,-61.8432 222.616,-50.7159 233.645,-41.5056"/>
<polygon fill="midnightblue" stroke="midnightblue" points="194.867,-69.3316 189.435,-78.4281 199.354,-74.7043 194.867,-69.3316"/>
</g>
</g>
</svg>
