<?xml version="1.0" encoding="UTF-8" standalone="no"?>
<!DOCTYPE svg PUBLIC "-//W3C//DTD SVG 1.1//EN"
 "http://www.w3.org/Graphics/SVG/1.1/DTD/svg11.dtd">
<!-- Generated by graphviz version 2.38.0 (20140413.2041)
 -->
<!-- Title: include/userobjects/DwarfElephantRBStructuresT9F10O900SteadyState.h Pages: 1 -->
<!--zoomable 184 -->
<svg id="main" version="1.1" xmlns="http://www.w3.org/2000/svg" xmlns:xlink="http://www.w3.org/1999/xlink" xml:space="preserve" onload="init(evt)">
<style type="text/css"><![CDATA[
.edge:hover path { stroke: red; }
.edge:hover polygon { stroke: red; fill: red; }
]]></style>
<script type="text/javascript"><![CDATA[
var edges = document.getElementsByTagName('g');
if (edges && edges.length) {
  for (var i=0;i<edges.length;i++) {
    if (edges[i].id.substr(0,4)=='edge') {
      edges[i].setAttribute('class','edge');
    }
  }
}
]]></script>
        <defs>
                <circle id="rim" cx="0" cy="0" r="7"/>
                <circle id="rim2" cx="0" cy="0" r="3.5"/>
                <g id="zoomPlus">
                        <use xlink:href="#rim" fill="#404040">
                                <set attributeName="fill" to="#808080" begin="zoomplus.mouseover" end="zoomplus.mouseout"/>
                        </use>
                        <path d="M-4,0h8M0,-4v8" fill="none" stroke="white" stroke-width="1.5" pointer-events="none"/>
                </g>
                <g id="zoomMin">
                        <use xlink:href="#rim" fill="#404040">
                                <set attributeName="fill" to="#808080" begin="zoomminus.mouseover" end="zoomminus.mouseout"/>
                        </use>
                        <path d="M-4,0h8" fill="none" stroke="white" stroke-width="1.5" pointer-events="none"/>
                </g>
                <g id="dirArrow">
                        <path fill="none" stroke="white" stroke-width="1.5" d="M0,-3.0v7 M-2.5,-0.5L0,-3.0L2.5,-0.5"/>
                </g>
               <g id="resetDef">
                       <use xlink:href="#rim2" fill="#404040">
                               <set attributeName="fill" to="#808080" begin="reset.mouseover" end="reset.mouseout"/>
                       </use>
               </g>
        </defs>

<script type="text/javascript">
var viewWidth = 2582;
var viewHeight = 184;
var sectionId = 'dynsection-0';
</script>
<script xlink:href="svgpan.js"/>
<svg id="graph" class="graph">
<g id="viewport">
<title>include/userobjects/DwarfElephantRBStructuresT9F10O900SteadyState.h</title>
<polygon fill="white" stroke="none" points="-4,4 -4,-180 2578.3,-180 2578.3,4 -4,4"/>
<!-- Node1 -->
<g id="node1" class="node"><title>Node1</title>
<polygon fill="#bfbfbf" stroke="black" points="1215.15,-134.5 1215.15,-175.5 1359.15,-175.5 1359.15,-134.5 1215.15,-134.5"/>
<text text-anchor="start" x="1223.15" y="-163.5" font-family="Helvetica,sans-Serif" font-size="10.00">include/userobjects</text>
<text text-anchor="start" x="1223.15" y="-152.5" font-family="Helvetica,sans-Serif" font-size="10.00">/DwarfElephantRBStructures</text>
<text text-anchor="middle" x="1287.15" y="-141.5" font-family="Helvetica,sans-Serif" font-size="10.00">T9F10O900SteadyState.h</text>
</g>
<!-- Node2 -->
<g id="node2" class="node"><title>Node2</title>
<polygon fill="white" stroke="#bfbfbf" points="1157.65,-6 1157.65,-25 1256.65,-25 1256.65,-6 1157.65,-6"/>
<text text-anchor="middle" x="1207.15" y="-13" font-family="Helvetica,sans-Serif" font-size="10.00">libmesh/rb_theta.h</text>
</g>
<!-- Node1&#45;&gt;Node2 -->
<g id="edge1" class="edge"><title>Node1&#45;&gt;Node2</title>
<path fill="none" stroke="midnightblue" d="M1215.05,-153.569C950.889,-151.642 49.1341,-141.862 7.14892,-98 -2.37815,-88.047 -2.38642,-76.9451 7.14892,-67 46.9642,-25.4739 910.154,-18.0144 1147.32,-16.747"/>
<polygon fill="midnightblue" stroke="midnightblue" points="1147.5,-20.2462 1157.48,-16.6945 1147.46,-13.2463 1147.5,-20.2462"/>
</g>
<!-- Node3 -->
<g id="node3" class="node"><title>Node3</title>
<polygon fill="white" stroke="#bfbfbf" points="1312.15,-0.5 1312.15,-30.5 1422.15,-30.5 1422.15,-0.5 1312.15,-0.5"/>
<text text-anchor="start" x="1320.15" y="-18.5" font-family="Helvetica,sans-Serif" font-size="10.00">libmesh/rb_assembly</text>
<text text-anchor="middle" x="1367.15" y="-7.5" font-family="Helvetica,sans-Serif" font-size="10.00">_expansion.h</text>
</g>
<!-- Node1&#45;&gt;Node3 -->
<g id="edge2" class="edge"><title>Node1&#45;&gt;Node3</title>
<path fill="none" stroke="midnightblue" d="M1359.25,-153.569C1623.41,-151.642 2525.16,-141.862 2567.15,-98 2576.68,-88.047 2576.68,-76.9451 2567.15,-67 2527.65,-25.8011 1677.7,-18.134 1432.7,-16.7781"/>
<polygon fill="midnightblue" stroke="midnightblue" points="1432.54,-13.2773 1422.52,-16.7235 1432.5,-20.2772 1432.54,-13.2773"/>
</g>
<!-- Node4 -->
<g id="node4" class="node"><title>Node4</title>
<g id="a_node4"><a xlink:href="_dwarf_elephant_r_b_structures_a00_theta_constant_8h.html" target="_top" xlink:title="DwarfElephantRBStructures\lA00ThetaConstant.h">
<polygon fill="white" stroke="black" points="656.149,-67.5 656.149,-97.5 798.149,-97.5 798.149,-67.5 656.149,-67.5"/>
<text text-anchor="start" x="664.149" y="-85.5" font-family="Helvetica,sans-Serif" font-size="10.00">DwarfElephantRBStructures</text>
<text text-anchor="middle" x="727.149" y="-74.5" font-family="Helvetica,sans-Serif" font-size="10.00">A00ThetaConstant.h</text>
</a>
</g>
</g>
<!-- Node1&#45;&gt;Node4 -->
<g id="edge3" class="edge"><title>Node1&#45;&gt;Node4</title>
<path fill="none" stroke="midnightblue" d="M1214.99,-147.017C1123.02,-137.795 958.915,-120.266 808.552,-98.1519"/>
<polygon fill="midnightblue" stroke="midnightblue" points="808.615,-94.6231 798.21,-96.6204 807.59,-101.548 808.615,-94.6231"/>
</g>
<!-- Node5 -->
<g id="node5" class="node"><title>Node5</title>
<g id="a_node5"><a xlink:href="_dwarf_elephant_r_b_structures_a0_theta_equal_mu0_8h.html" target="_top" xlink:title="DwarfElephantRBStructures\lA0ThetaEqualMu0.h">
<polygon fill="white" stroke="black" points="816.149,-67.5 816.149,-97.5 958.149,-97.5 958.149,-67.5 816.149,-67.5"/>
<text text-anchor="start" x="824.149" y="-85.5" font-family="Helvetica,sans-Serif" font-size="10.00">DwarfElephantRBStructures</text>
<text text-anchor="middle" x="887.149" y="-74.5" font-family="Helvetica,sans-Serif" font-size="10.00">A0ThetaEqualMu0.h</text>
</a>
</g>
</g>
<!-- Node1&#45;&gt;Node5 -->
<g id="edge6" class="edge"><title>Node1&#45;&gt;Node5</title>
<path fill="none" stroke="midnightblue" d="M1215,-141.503C1152.41,-130.631 1059.08,-114.351 968.172,-98.1766"/>
<polygon fill="midnightblue" stroke="midnightblue" points="968.704,-94.7163 958.245,-96.4092 967.477,-101.608 968.704,-94.7163"/>
</g>
<!-- Node6 -->
<g id="node6" class="node"><title>Node6</title>
<g id="a_node6"><a xlink:href="_dwarf_elephant_r_b_structures_a0_theta_norm_mu0_8h.html" target="_top" xlink:title="DwarfElephantRBStructures\lA0ThetaNormMu0.h">
<polygon fill="white" stroke="black" points="976.149,-67.5 976.149,-97.5 1118.15,-97.5 1118.15,-67.5 976.149,-67.5"/>
<text text-anchor="start" x="984.149" y="-85.5" font-family="Helvetica,sans-Serif" font-size="10.00">DwarfElephantRBStructures</text>
<text text-anchor="middle" x="1047.15" y="-74.5" font-family="Helvetica,sans-Serif" font-size="10.00">A0ThetaNormMu0.h</text>
</a>
</g>
</g>
<!-- Node1&#45;&gt;Node6 -->
<g id="edge9" class="edge"><title>Node1&#45;&gt;Node6</title>
<path fill="none" stroke="midnightblue" d="M1220.61,-134.455C1184.38,-123.811 1139.96,-110.765 1105.15,-100.538"/>
<polygon fill="midnightblue" stroke="midnightblue" points="1105.72,-97.0572 1095.14,-97.5968 1103.75,-103.773 1105.72,-97.0572"/>
</g>
<!-- Node7 -->
<g id="node7" class="node"><title>Node7</title>
<g id="a_node7"><a xlink:href="_dwarf_elephant_r_b_structures_a0_theta_norm_mu1_8h.html" target="_top" xlink:title="DwarfElephantRBStructures\lA0ThetaNormMu1.h">
<polygon fill="white" stroke="black" points="1136.15,-67.5 1136.15,-97.5 1278.15,-97.5 1278.15,-67.5 1136.15,-67.5"/>
<text text-anchor="start" x="1144.15" y="-85.5" font-family="Helvetica,sans-Serif" font-size="10.00">DwarfElephantRBStructures</text>
<text text-anchor="middle" x="1207.15" y="-74.5" font-family="Helvetica,sans-Serif" font-size="10.00">A0ThetaNormMu1.h</text>
</a>
</g>
</g>
<!-- Node1&#45;&gt;Node7 -->
<g id="edge12" class="edge"><title>Node1&#45;&gt;Node7</title>
<path fill="none" stroke="midnightblue" d="M1264.86,-134.362C1254.33,-125.076 1241.74,-113.979 1231.01,-104.524"/>
<polygon fill="midnightblue" stroke="midnightblue" points="1233.04,-101.656 1223.23,-97.67 1228.42,-106.907 1233.04,-101.656"/>
</g>
<!-- Node8 -->
<g id="node8" class="node"><title>Node8</title>
<g id="a_node8"><a xlink:href="_dwarf_elephant_r_b_structures_a1_theta_equal_mu1_8h.html" target="_top" xlink:title="DwarfElephantRBStructures\lA1ThetaEqualMu1.h">
<polygon fill="white" stroke="black" points="1296.15,-67.5 1296.15,-97.5 1438.15,-97.5 1438.15,-67.5 1296.15,-67.5"/>
<text text-anchor="start" x="1304.15" y="-85.5" font-family="Helvetica,sans-Serif" font-size="10.00">DwarfElephantRBStructures</text>
<text text-anchor="middle" x="1367.15" y="-74.5" font-family="Helvetica,sans-Serif" font-size="10.00">A1ThetaEqualMu1.h</text>
</a>
</g>
</g>
<!-- Node1&#45;&gt;Node8 -->
<g id="edge15" class="edge"><title>Node1&#45;&gt;Node8</title>
<path fill="none" stroke="midnightblue" d="M1309.43,-134.362C1319.97,-125.076 1332.56,-113.979 1343.29,-104.524"/>
<polygon fill="midnightblue" stroke="midnightblue" points="1345.88,-106.907 1351.07,-97.67 1341.25,-101.656 1345.88,-106.907"/>
</g>
<!-- Node9 -->
<g id="node9" class="node"><title>Node9</title>
<g id="a_node9"><a xlink:href="_dwarf_elephant_r_b_structures_a1_theta_norm_mu0_8h.html" target="_top" xlink:title="DwarfElephantRBStructures\lA1ThetaNormMu0.h">
<polygon fill="white" stroke="black" points="1456.15,-67.5 1456.15,-97.5 1598.15,-97.5 1598.15,-67.5 1456.15,-67.5"/>
<text text-anchor="start" x="1464.15" y="-85.5" font-family="Helvetica,sans-Serif" font-size="10.00">DwarfElephantRBStructures</text>
<text text-anchor="middle" x="1527.15" y="-74.5" font-family="Helvetica,sans-Serif" font-size="10.00">A1ThetaNormMu0.h</text>
</a>
</g>
</g>
<!-- Node1&#45;&gt;Node9 -->
<g id="edge18" class="edge"><title>Node1&#45;&gt;Node9</title>
<path fill="none" stroke="midnightblue" d="M1353.68,-134.455C1389.92,-123.811 1434.33,-110.765 1469.15,-100.538"/>
<polygon fill="midnightblue" stroke="midnightblue" points="1470.55,-103.773 1479.16,-97.5968 1468.58,-97.0572 1470.55,-103.773"/>
</g>
<!-- Node10 -->
<g id="node10" class="node"><title>Node10</title>
<g id="a_node10"><a xlink:href="_dwarf_elephant_r_b_structures_a1_theta_norm_mu1_8h.html" target="_top" xlink:title="DwarfElephantRBStructures\lA1ThetaNormMu1.h">
<polygon fill="white" stroke="black" points="1616.15,-67.5 1616.15,-97.5 1758.15,-97.5 1758.15,-67.5 1616.15,-67.5"/>
<text text-anchor="start" x="1624.15" y="-85.5" font-family="Helvetica,sans-Serif" font-size="10.00">DwarfElephantRBStructures</text>
<text text-anchor="middle" x="1687.15" y="-74.5" font-family="Helvetica,sans-Serif" font-size="10.00">A1ThetaNormMu1.h</text>
</a>
</g>
</g>
<!-- Node1&#45;&gt;Node10 -->
<g id="edge21" class="edge"><title>Node1&#45;&gt;Node10</title>
<path fill="none" stroke="midnightblue" d="M1359.29,-141.503C1421.89,-130.631 1515.21,-114.351 1606.13,-98.1766"/>
<polygon fill="midnightblue" stroke="midnightblue" points="1606.82,-101.608 1616.05,-96.4092 1605.59,-94.7163 1606.82,-101.608"/>
</g>
<!-- Node11 -->
<g id="node11" class="node"><title>Node11</title>
<g id="a_node11"><a xlink:href="_dwarf_elephant_r_b_structures_a2_theta_equal_mu2_8h.html" target="_top" xlink:title="DwarfElephantRBStructures\lA2ThetaEqualMu2.h">
<polygon fill="white" stroke="black" points="1776.15,-67.5 1776.15,-97.5 1918.15,-97.5 1918.15,-67.5 1776.15,-67.5"/>
<text text-anchor="start" x="1784.15" y="-85.5" font-family="Helvetica,sans-Serif" font-size="10.00">DwarfElephantRBStructures</text>
<text text-anchor="middle" x="1847.15" y="-74.5" font-family="Helvetica,sans-Serif" font-size="10.00">A2ThetaEqualMu2.h</text>
</a>
</g>
</g>
<!-- Node1&#45;&gt;Node11 -->
<g id="edge24" class="edge"><title>Node1&#45;&gt;Node11</title>
<path fill="none" stroke="midnightblue" d="M1359.3,-147.017C1451.27,-137.795 1615.38,-120.266 1765.75,-98.1519"/>
<polygon fill="midnightblue" stroke="midnightblue" points="1766.71,-101.548 1776.09,-96.6204 1765.68,-94.6231 1766.71,-101.548"/>
</g>
<!-- Node12 -->
<g id="node12" class="node"><title>Node12</title>
<g id="a_node12"><a xlink:href="_dwarf_elephant_r_b_structures_a2_theta_norm_mu0_8h.html" target="_top" xlink:title="DwarfElephantRBStructures\lA2ThetaNormMu0.h">
<polygon fill="white" stroke="black" points="1936.15,-67.5 1936.15,-97.5 2078.15,-97.5 2078.15,-67.5 1936.15,-67.5"/>
<text text-anchor="start" x="1944.15" y="-85.5" font-family="Helvetica,sans-Serif" font-size="10.00">DwarfElephantRBStructures</text>
<text text-anchor="middle" x="2007.15" y="-74.5" font-family="Helvetica,sans-Serif" font-size="10.00">A2ThetaNormMu0.h</text>
</a>
</g>
</g>
<!-- Node1&#45;&gt;Node12 -->
<g id="edge27" class="edge"><title>Node1&#45;&gt;Node12</title>
<path fill="none" stroke="midnightblue" d="M1359.37,-149.854C1476.31,-142.662 1714.49,-126.027 1926.05,-98.0674"/>
<polygon fill="midnightblue" stroke="midnightblue" points="1926.65,-101.518 1936.1,-96.7274 1925.73,-94.5794 1926.65,-101.518"/>
</g>
<!-- Node13 -->
<g id="node13" class="node"><title>Node13</title>
<g id="a_node13"><a xlink:href="_dwarf_elephant_r_b_structures_a2_theta_norm_mu1_8h.html" target="_top" xlink:title="DwarfElephantRBStructures\lA2ThetaNormMu1.h">
<polygon fill="white" stroke="black" points="2096.15,-67.5 2096.15,-97.5 2238.15,-97.5 2238.15,-67.5 2096.15,-67.5"/>
<text text-anchor="start" x="2104.15" y="-85.5" font-family="Helvetica,sans-Serif" font-size="10.00">DwarfElephantRBStructures</text>
<text text-anchor="middle" x="2167.15" y="-74.5" font-family="Helvetica,sans-Serif" font-size="10.00">A2ThetaNormMu1.h</text>
</a>
</g>
</g>
<!-- Node1&#45;&gt;Node13 -->
<g id="edge30" class="edge"><title>Node1&#45;&gt;Node13</title>
<path fill="none" stroke="midnightblue" d="M1359.39,-151.593C1498.26,-146.387 1812.22,-131.82 2085.98,-98.0527"/>
<polygon fill="midnightblue" stroke="midnightblue" points="2086.62,-101.5 2096.11,-96.7921 2085.76,-94.5538 2086.62,-101.5"/>
</g>
<!-- Node14 -->
<g id="node14" class="node"><title>Node14</title>
<g id="a_node14"><a xlink:href="_dwarf_elephant_r_b_structures_a3_theta_equal_mu3_8h.html" target="_top" xlink:title="DwarfElephantRBStructures\lA3ThetaEqualMu3.h">
<polygon fill="white" stroke="black" points="2256.15,-67.5 2256.15,-97.5 2398.15,-97.5 2398.15,-67.5 2256.15,-67.5"/>
<text text-anchor="start" x="2264.15" y="-85.5" font-family="Helvetica,sans-Serif" font-size="10.00">DwarfElephantRBStructures</text>
<text text-anchor="middle" x="2327.15" y="-74.5" font-family="Helvetica,sans-Serif" font-size="10.00">A3ThetaEqualMu3.h</text>
</a>
</g>
</g>
<!-- Node1&#45;&gt;Node14 -->
<g id="edge33" class="edge"><title>Node1&#45;&gt;Node14</title>
<path fill="none" stroke="midnightblue" d="M1359.37,-152.77C1518.09,-149.419 1909.31,-137.629 2246.17,-98.0154"/>
<polygon fill="midnightblue" stroke="midnightblue" points="2246.6,-101.489 2256.12,-96.8353 2245.77,-94.5376 2246.6,-101.489"/>
</g>
<!-- Node15 -->
<g id="node15" class="node"><title>Node15</title>
<g id="a_node15"><a xlink:href="_dwarf_elephant_r_b_structures_a4_theta_equal_mu4_8h.html" target="_top" xlink:title="DwarfElephantRBStructures\lA4ThetaEqualMu4.h">
<polygon fill="white" stroke="black" points="2416.15,-67.5 2416.15,-97.5 2558.15,-97.5 2558.15,-67.5 2416.15,-67.5"/>
<text text-anchor="start" x="2424.15" y="-85.5" font-family="Helvetica,sans-Serif" font-size="10.00">DwarfElephantRBStructures</text>
<text text-anchor="middle" x="2487.15" y="-74.5" font-family="Helvetica,sans-Serif" font-size="10.00">A4ThetaEqualMu4.h</text>
</a>
</g>
</g>
<!-- Node1&#45;&gt;Node15 -->
<g id="edge36" class="edge"><title>Node1&#45;&gt;Node15</title>
<path fill="none" stroke="midnightblue" d="M1359.15,-153.621C1535.92,-151.997 2005.44,-143.487 2406.07,-98.0158"/>
<polygon fill="midnightblue" stroke="midnightblue" points="2406.58,-101.481 2416.12,-96.8662 2405.79,-94.5259 2406.58,-101.481"/>
</g>
<!-- Node16 -->
<g id="node16" class="node"><title>Node16</title>
<g id="a_node16"><a xlink:href="_dwarf_elephant_r_b_structures_a5_theta_equal_mu5_8h.html" target="_top" xlink:title="DwarfElephantRBStructures\lA5ThetaEqualMu5.h">
<polygon fill="white" stroke="black" points="16.1489,-67.5 16.1489,-97.5 158.149,-97.5 158.149,-67.5 16.1489,-67.5"/>
<text text-anchor="start" x="24.1489" y="-85.5" font-family="Helvetica,sans-Serif" font-size="10.00">DwarfElephantRBStructures</text>
<text text-anchor="middle" x="87.1489" y="-74.5" font-family="Helvetica,sans-Serif" font-size="10.00">A5ThetaEqualMu5.h</text>
</a>
</g>
</g>
<!-- Node1&#45;&gt;Node16 -->
<g id="edge39" class="edge"><title>Node1&#45;&gt;Node16</title>
<path fill="none" stroke="midnightblue" d="M1215.15,-153.621C1038.37,-151.997 568.86,-143.487 168.224,-98.0158"/>
<polygon fill="midnightblue" stroke="midnightblue" points="168.511,-94.5259 158.178,-96.8662 167.715,-101.481 168.511,-94.5259"/>
</g>
<!-- Node17 -->
<g id="node17" class="node"><title>Node17</title>
<g id="a_node17"><a xlink:href="_dwarf_elephant_r_b_structures_a6_theta_equal_mu6_8h.html" target="_top" xlink:title="DwarfElephantRBStructures\lA6ThetaEqualMu6.h">
<polygon fill="white" stroke="black" points="176.149,-67.5 176.149,-97.5 318.149,-97.5 318.149,-67.5 176.149,-67.5"/>
<text text-anchor="start" x="184.149" y="-85.5" font-family="Helvetica,sans-Serif" font-size="10.00">DwarfElephantRBStructures</text>
<text text-anchor="middle" x="247.149" y="-74.5" font-family="Helvetica,sans-Serif" font-size="10.00">A6ThetaEqualMu6.h</text>
</a>
</g>
</g>
<!-- Node1&#45;&gt;Node17 -->
<g id="edge42" class="edge"><title>Node1&#45;&gt;Node17</title>
<path fill="none" stroke="midnightblue" d="M1214.93,-152.77C1056.21,-149.419 664.985,-137.629 328.132,-98.0154"/>
<polygon fill="midnightblue" stroke="midnightblue" points="328.524,-94.5376 318.182,-96.8353 327.7,-101.489 328.524,-94.5376"/>
</g>
<!-- Node18 -->
<g id="node18" class="node"><title>Node18</title>
<g id="a_node18"><a xlink:href="_dwarf_elephant_r_b_structures_a7_theta_equal_mu7_8h.html" target="_top" xlink:title="DwarfElephantRBStructures\lA7ThetaEqualMu7.h">
<polygon fill="white" stroke="black" points="336.149,-67.5 336.149,-97.5 478.149,-97.5 478.149,-67.5 336.149,-67.5"/>
<text text-anchor="start" x="344.149" y="-85.5" font-family="Helvetica,sans-Serif" font-size="10.00">DwarfElephantRBStructures</text>
<text text-anchor="middle" x="407.149" y="-74.5" font-family="Helvetica,sans-Serif" font-size="10.00">A7ThetaEqualMu7.h</text>
</a>
</g>
</g>
<!-- Node1&#45;&gt;Node18 -->
<g id="edge45" class="edge"><title>Node1&#45;&gt;Node18</title>
<path fill="none" stroke="midnightblue" d="M1214.91,-151.593C1076.04,-146.387 762.082,-131.82 488.317,-98.0527"/>
<polygon fill="midnightblue" stroke="midnightblue" points="488.543,-94.5538 478.187,-96.7921 487.678,-101.5 488.543,-94.5538"/>
</g>
<!-- Node19 -->
<g id="node19" class="node"><title>Node19</title>
<g id="a_node19"><a xlink:href="_dwarf_elephant_r_b_structures_a8_theta_equal_mu8_8h.html" target="_top" xlink:title="DwarfElephantRBStructures\lA8ThetaEqualMu8.h">
<polygon fill="white" stroke="black" points="496.149,-67.5 496.149,-97.5 638.149,-97.5 638.149,-67.5 496.149,-67.5"/>
<text text-anchor="start" x="504.149" y="-85.5" font-family="Helvetica,sans-Serif" font-size="10.00">DwarfElephantRBStructures</text>
<text text-anchor="middle" x="567.149" y="-74.5" font-family="Helvetica,sans-Serif" font-size="10.00">A8ThetaEqualMu8.h</text>
</a>
</g>
</g>
<!-- Node1&#45;&gt;Node19 -->
<g id="edge48" class="edge"><title>Node1&#45;&gt;Node19</title>
<path fill="none" stroke="midnightblue" d="M1214.93,-149.854C1097.99,-142.662 859.804,-126.027 648.249,-98.0674"/>
<polygon fill="midnightblue" stroke="midnightblue" points="648.57,-94.5794 638.195,-96.7274 647.645,-101.518 648.57,-94.5794"/>
</g>
<!-- Node4&#45;&gt;Node2 -->
<g id="edge4" class="edge"><title>Node4&#45;&gt;Node2</title>
<path fill="none" stroke="midnightblue" d="M798.216,-68.4146C801.232,-67.924 804.219,-67.4501 807.149,-67 927.488,-48.5116 1068.96,-31.8335 1147.29,-23.041"/>
<polygon fill="midnightblue" stroke="midnightblue" points="1147.9,-26.4944 1157.45,-21.9049 1147.13,-19.5378 1147.9,-26.4944"/>
</g>
<!-- Node4&#45;&gt;Node3 -->
<g id="edge5" class="edge"><title>Node4&#45;&gt;Node3</title>
<path fill="none" stroke="midnightblue" d="M798.191,-68.2391C801.214,-67.7965 804.209,-67.3807 807.149,-67 1010.08,-40.7195 1062.77,-53.5511 1266.15,-31 1277.66,-29.7241 1289.87,-28.1546 1301.68,-26.5246"/>
<polygon fill="midnightblue" stroke="midnightblue" points="1302.51,-29.942 1311.93,-25.0825 1301.54,-23.0103 1302.51,-29.942"/>
</g>
<!-- Node5&#45;&gt;Node2 -->
<g id="edge7" class="edge"><title>Node5&#45;&gt;Node2</title>
<path fill="none" stroke="midnightblue" d="M956.19,-67.476C1015.91,-55.3449 1100.95,-38.0709 1155.09,-27.0737"/>
<polygon fill="midnightblue" stroke="midnightblue" points="1156.06,-30.4493 1165.16,-25.0287 1154.67,-23.5894 1156.06,-30.4493"/>
</g>
<!-- Node5&#45;&gt;Node3 -->
<g id="edge8" class="edge"><title>Node5&#45;&gt;Node3</title>
<path fill="none" stroke="midnightblue" d="M958.212,-68.3933C961.229,-67.9085 964.218,-67.4417 967.149,-67 1099.5,-47.0556 1133.45,-48.5116 1266.15,-31 1277.81,-29.461 1290.22,-27.7447 1302.2,-26.0467"/>
<polygon fill="midnightblue" stroke="midnightblue" points="1302.74,-29.5061 1312.14,-24.629 1301.75,-22.5763 1302.74,-29.5061"/>
</g>
<!-- Node6&#45;&gt;Node2 -->
<g id="edge10" class="edge"><title>Node6&#45;&gt;Node2</title>
<path fill="none" stroke="midnightblue" d="M1081.87,-67.396C1110.19,-55.8901 1149.8,-39.7974 1176.85,-28.8072"/>
<polygon fill="midnightblue" stroke="midnightblue" points="1178.26,-32.0135 1186.21,-25.007 1175.63,-25.5282 1178.26,-32.0135"/>
</g>
<!-- Node6&#45;&gt;Node3 -->
<g id="edge11" class="edge"><title>Node6&#45;&gt;Node3</title>
<path fill="none" stroke="midnightblue" d="M1116.19,-67.476C1171.37,-56.2683 1248.15,-40.6709 1302.22,-29.689"/>
<polygon fill="midnightblue" stroke="midnightblue" points="1302.94,-33.1149 1312.04,-27.6943 1301.54,-26.255 1302.94,-33.1149"/>
</g>
<!-- Node7&#45;&gt;Node2 -->
<g id="edge13" class="edge"><title>Node7&#45;&gt;Node2</title>
<path fill="none" stroke="midnightblue" d="M1207.15,-67.396C1207.15,-58.0638 1207.15,-45.7143 1207.15,-35.5173"/>
<polygon fill="midnightblue" stroke="midnightblue" points="1210.65,-35.1945 1207.15,-25.1945 1203.65,-35.1946 1210.65,-35.1945"/>
</g>
<!-- Node7&#45;&gt;Node3 -->
<g id="edge14" class="edge"><title>Node7&#45;&gt;Node3</title>
<path fill="none" stroke="midnightblue" d="M1241.87,-67.396C1265.66,-57.7284 1297.43,-44.8226 1323.02,-34.4262"/>
<polygon fill="midnightblue" stroke="midnightblue" points="1324.55,-37.583 1332.5,-30.5765 1321.92,-31.0977 1324.55,-37.583"/>
</g>
<!-- Node8&#45;&gt;Node2 -->
<g id="edge16" class="edge"><title>Node8&#45;&gt;Node2</title>
<path fill="none" stroke="midnightblue" d="M1332.43,-67.396C1304.11,-55.8901 1264.5,-39.7974 1237.44,-28.8072"/>
<polygon fill="midnightblue" stroke="midnightblue" points="1238.67,-25.5282 1228.09,-25.007 1236.04,-32.0135 1238.67,-25.5282"/>
</g>
<!-- Node8&#45;&gt;Node3 -->
<g id="edge17" class="edge"><title>Node8&#45;&gt;Node3</title>
<path fill="none" stroke="midnightblue" d="M1367.15,-67.396C1367.15,-59.6448 1367.15,-49.8122 1367.15,-40.8601"/>
<polygon fill="midnightblue" stroke="midnightblue" points="1370.65,-40.5765 1367.15,-30.5765 1363.65,-40.5765 1370.65,-40.5765"/>
</g>
<!-- Node9&#45;&gt;Node2 -->
<g id="edge19" class="edge"><title>Node9&#45;&gt;Node2</title>
<path fill="none" stroke="midnightblue" d="M1458.11,-67.476C1398.39,-55.3449 1313.34,-38.0709 1259.2,-27.0737"/>
<polygon fill="midnightblue" stroke="midnightblue" points="1259.63,-23.5894 1249.14,-25.0287 1258.24,-30.4493 1259.63,-23.5894"/>
</g>
<!-- Node9&#45;&gt;Node3 -->
<g id="edge20" class="edge"><title>Node9&#45;&gt;Node3</title>
<path fill="none" stroke="midnightblue" d="M1492.43,-67.396C1468.63,-57.7284 1436.87,-44.8226 1411.27,-34.4262"/>
<polygon fill="midnightblue" stroke="midnightblue" points="1412.38,-31.0977 1401.8,-30.5765 1409.75,-37.583 1412.38,-31.0977"/>
</g>
<!-- Node10&#45;&gt;Node2 -->
<g id="edge22" class="edge"><title>Node10&#45;&gt;Node2</title>
<path fill="none" stroke="midnightblue" d="M1616.09,-68.3861C1613.07,-67.9032 1610.08,-67.4388 1607.15,-67 1472.59,-46.8582 1437.99,-49.1621 1303.15,-31 1291.4,-29.4179 1278.87,-27.6111 1266.86,-25.8222"/>
<polygon fill="midnightblue" stroke="midnightblue" points="1267.34,-22.3549 1256.93,-24.3292 1266.3,-29.2771 1267.34,-22.3549"/>
</g>
<!-- Node10&#45;&gt;Node3 -->
<g id="edge23" class="edge"><title>Node10&#45;&gt;Node3</title>
<path fill="none" stroke="midnightblue" d="M1618.11,-67.476C1562.93,-56.2683 1486.14,-40.6709 1432.08,-29.689"/>
<polygon fill="midnightblue" stroke="midnightblue" points="1432.76,-26.255 1422.26,-27.6943 1431.36,-33.1149 1432.76,-26.255"/>
</g>
<!-- Node11&#45;&gt;Node2 -->
<g id="edge25" class="edge"><title>Node11&#45;&gt;Node2</title>
<path fill="none" stroke="midnightblue" d="M1776.11,-68.236C1773.08,-67.7942 1770.09,-67.3795 1767.15,-67 1562.01,-40.5211 1508.66,-54.4611 1303.15,-31 1291.37,-29.6557 1278.82,-27.956 1266.82,-26.1976"/>
<polygon fill="midnightblue" stroke="midnightblue" points="1267.29,-22.7299 1256.88,-24.7132 1266.26,-29.653 1267.29,-22.7299"/>
</g>
<!-- Node11&#45;&gt;Node3 -->
<g id="edge26" class="edge"><title>Node11&#45;&gt;Node3</title>
<path fill="none" stroke="midnightblue" d="M1776.08,-68.4146C1773.07,-67.924 1770.08,-67.4501 1767.15,-67 1649.62,-48.9439 1511.94,-32.6145 1432.6,-23.6706"/>
<polygon fill="midnightblue" stroke="midnightblue" points="1432.6,-20.1489 1422.28,-22.5111 1431.82,-27.1052 1432.6,-20.1489"/>
</g>
<!-- Node12&#45;&gt;Node2 -->
<g id="edge28" class="edge"><title>Node12&#45;&gt;Node2</title>
<path fill="none" stroke="midnightblue" d="M1936.12,-68.1624C1933.09,-67.7408 1930.09,-67.3503 1927.15,-67 1651.3,-34.1677 1579.45,-59.7746 1303.15,-31 1291.36,-29.7724 1278.81,-28.1253 1266.8,-26.3817"/>
<polygon fill="midnightblue" stroke="midnightblue" points="1267.27,-22.9138 1256.86,-24.9015 1266.24,-29.8374 1267.27,-22.9138"/>
</g>
<!-- Node12&#45;&gt;Node3 -->
<g id="edge29" class="edge"><title>Node12&#45;&gt;Node3</title>
<path fill="none" stroke="midnightblue" d="M1936.1,-68.2824C1933.08,-67.828 1930.09,-67.3978 1927.15,-67 1748.81,-42.8461 1536.9,-27.2907 1432.27,-20.4762"/>
<polygon fill="midnightblue" stroke="midnightblue" points="1432.38,-16.9763 1422.18,-19.8245 1431.93,-23.9618 1432.38,-16.9763"/>
</g>
<!-- Node13&#45;&gt;Node2 -->
<g id="edge31" class="edge"><title>Node13&#45;&gt;Node2</title>
<path fill="none" stroke="midnightblue" d="M2096.12,-68.1187C2093.09,-67.709 2090.09,-67.333 2087.15,-67 1740.55,-27.8086 1650.29,-65.0932 1303.15,-31 1291.35,-29.8416 1278.8,-28.2257 1266.78,-26.491"/>
<polygon fill="midnightblue" stroke="midnightblue" points="1267.26,-23.023 1256.85,-25.0133 1266.23,-29.9468 1267.26,-23.023"/>
</g>
<!-- Node13&#45;&gt;Node3 -->
<g id="edge32" class="edge"><title>Node13&#45;&gt;Node3</title>
<path fill="none" stroke="midnightblue" d="M2096.11,-68.2085C2093.09,-67.7742 2090.09,-67.3686 2087.15,-67 1847.09,-36.9177 1559.6,-23.4865 1432.76,-18.701"/>
<polygon fill="midnightblue" stroke="midnightblue" points="1432.57,-15.1917 1422.45,-18.3177 1432.31,-22.1868 1432.57,-15.1917"/>
</g>
<!-- Node14&#45;&gt;Node2 -->
<g id="edge34" class="edge"><title>Node14&#45;&gt;Node2</title>
<path fill="none" stroke="midnightblue" d="M2256.12,-68.0897C2253.1,-67.688 2250.1,-67.3216 2247.15,-67 1829.77,-21.4467 1721.16,-70.4142 1303.15,-31 1291.22,-29.8751 1278.51,-28.2567 1266.38,-26.5056"/>
<polygon fill="midnightblue" stroke="midnightblue" points="1266.76,-23.0236 1256.35,-25.0115 1265.73,-29.9472 1266.76,-23.0236"/>
</g>
<!-- Node14&#45;&gt;Node3 -->
<g id="edge35" class="edge"><title>Node14&#45;&gt;Node3</title>
<path fill="none" stroke="midnightblue" d="M2256.12,-68.1612C2253.09,-67.7399 2250.09,-67.3499 2247.15,-67 1943.86,-30.9486 1578.59,-20.4156 1432.33,-17.5241"/>
<polygon fill="midnightblue" stroke="midnightblue" points="1432.25,-14.022 1422.19,-17.3289 1432.12,-21.0207 1432.25,-14.022"/>
</g>
<!-- Node15&#45;&gt;Node2 -->
<g id="edge37" class="edge"><title>Node15&#45;&gt;Node2</title>
<path fill="none" stroke="midnightblue" d="M2416.13,-68.0692C2413.1,-67.6731 2410.1,-67.3135 2407.15,-67 1918.97,-15.0833 1792.03,-75.7364 1303.15,-31 1291.22,-29.908 1278.51,-28.3042 1266.37,-26.5572"/>
<polygon fill="midnightblue" stroke="midnightblue" points="1266.75,-23.0751 1256.35,-25.064 1265.72,-29.9988 1266.75,-23.0751"/>
</g>
<!-- Node15&#45;&gt;Node3 -->
<g id="edge38" class="edge"><title>Node15&#45;&gt;Node3</title>
<path fill="none" stroke="midnightblue" d="M2416.12,-68.1285C2413.09,-67.7161 2410.09,-67.3369 2407.15,-67 2040.52,-25.0546 1597.28,-17.8936 1432.75,-16.7136"/>
<polygon fill="midnightblue" stroke="midnightblue" points="1432.34,-13.2109 1422.32,-16.6442 1432.3,-20.2107 1432.34,-13.2109"/>
</g>
<!-- Node16&#45;&gt;Node2 -->
<g id="edge40" class="edge"><title>Node16&#45;&gt;Node2</title>
<path fill="none" stroke="midnightblue" d="M158.177,-68.1285C161.204,-67.7161 164.204,-67.3369 167.149,-67 538.176,-24.552 987.654,-17.7269 1147.34,-16.6737"/>
<polygon fill="midnightblue" stroke="midnightblue" points="1147.46,-20.1731 1157.44,-16.6123 1147.41,-13.1732 1147.46,-20.1731"/>
</g>
<!-- Node16&#45;&gt;Node3 -->
<g id="edge41" class="edge"><title>Node16&#45;&gt;Node3</title>
<path fill="none" stroke="midnightblue" d="M158.171,-68.0697C161.199,-67.6735 164.201,-67.3137 167.149,-67 653.111,-15.2822 779.319,-73.7889 1266.15,-31 1277.68,-29.9863 1289.91,-28.5452 1301.72,-26.9609"/>
<polygon fill="midnightblue" stroke="midnightblue" points="1302.55,-30.3801 1311.97,-25.539 1301.59,-23.4465 1302.55,-30.3801"/>
</g>
<!-- Node17&#45;&gt;Node2 -->
<g id="edge43" class="edge"><title>Node17&#45;&gt;Node2</title>
<path fill="none" stroke="midnightblue" d="M318.181,-68.1612C321.207,-67.7399 324.205,-67.3499 327.149,-67 634.025,-30.522 1004.36,-20.17 1147.06,-17.4247"/>
<polygon fill="midnightblue" stroke="midnightblue" points="1147.41,-20.9189 1157.34,-17.2326 1147.28,-13.9201 1147.41,-20.9189"/>
</g>
<!-- Node17&#45;&gt;Node3 -->
<g id="edge44" class="edge"><title>Node17&#45;&gt;Node3</title>
<path fill="none" stroke="midnightblue" d="M318.173,-68.0905C321.201,-67.6886 324.202,-67.3219 327.149,-67 742.319,-21.6455 850.216,-68.7261 1266.15,-31 1277.68,-29.9542 1289.9,-28.4973 1301.72,-26.9074"/>
<polygon fill="midnightblue" stroke="midnightblue" points="1302.55,-30.3264 1311.97,-25.483 1301.58,-23.393 1302.55,-30.3264"/>
</g>
<!-- Node18&#45;&gt;Node2 -->
<g id="edge46" class="edge"><title>Node18&#45;&gt;Node2</title>
<path fill="none" stroke="midnightblue" d="M478.187,-68.2085C481.211,-67.7742 484.208,-67.3686 487.149,-67 731.135,-36.4252 1024.13,-23.0511 1147.64,-18.4729"/>
<polygon fill="midnightblue" stroke="midnightblue" points="1147.78,-21.97 1157.65,-18.1074 1147.53,-14.9747 1147.78,-21.97"/>
</g>
<!-- Node18&#45;&gt;Node3 -->
<g id="edge47" class="edge"><title>Node18&#45;&gt;Node3</title>
<path fill="none" stroke="midnightblue" d="M478.176,-68.1197C481.203,-67.7098 484.204,-67.3335 487.149,-67 831.54,-28.0073 921.1,-63.6646 1266.15,-31 1277.67,-29.9089 1289.9,-28.4298 1301.71,-26.8321"/>
<polygon fill="midnightblue" stroke="midnightblue" points="1302.54,-30.2507 1311.96,-25.4041 1301.57,-23.3177 1302.54,-30.2507"/>
</g>
<!-- Node19&#45;&gt;Node2 -->
<g id="edge49" class="edge"><title>Node19&#45;&gt;Node2</title>
<path fill="none" stroke="midnightblue" d="M638.197,-68.2824C641.218,-67.828 644.212,-67.3978 647.149,-67 828.581,-42.4271 1044.76,-26.7537 1147.38,-20.1295"/>
<polygon fill="midnightblue" stroke="midnightblue" points="1147.78,-23.6105 1157.54,-19.479 1147.34,-16.6248 1147.78,-23.6105"/>
</g>
<!-- Node19&#45;&gt;Node3 -->
<g id="edge50" class="edge"><title>Node19&#45;&gt;Node3</title>
<path fill="none" stroke="midnightblue" d="M638.182,-68.1641C641.207,-67.742 644.206,-67.351 647.149,-67 920.786,-34.3664 991.959,-58.6053 1266.15,-31 1277.67,-29.8403 1289.89,-28.3276 1301.7,-26.7179"/>
<polygon fill="midnightblue" stroke="midnightblue" points="1302.53,-30.136 1311.95,-25.2847 1301.56,-23.2035 1302.53,-30.136"/>
</g>
</g>
</svg>
        <g id="navigator" transform="translate(0 0)" fill="#404254">
                <rect fill="#f2f5e9" fill-opacity="0.5" stroke="#606060" stroke-width=".5" x="0" y="0" width="60" height="60"/>
                <use id="zoomplus" xlink:href="#zoomPlus" x="17" y="9" onmousedown="handleZoom(evt,'in')"/>
                <use id="zoomminus" xlink:href="#zoomMin" x="42" y="9" onmousedown="handleZoom(evt,'out')"/>
                <use id="reset" xlink:href="#resetDef" x="30" y="36" onmousedown="handleReset()"/>
                <g id="arrowUp" xlink:href="#dirArrow" transform="translate(30 24)" onmousedown="handlePan(0,-1)">
                  <use xlink:href="#rim" fill="#404040">
                        <set attributeName="fill" to="#808080" begin="arrowUp.mouseover" end="arrowUp.mouseout"/>
                  </use>
                  <path fill="none" stroke="white" stroke-width="1.5" d="M0,-3.0v7 M-2.5,-0.5L0,-3.0L2.5,-0.5"/>
                </g>
                <g id="arrowRight" xlink:href="#dirArrow" transform="rotate(90) translate(36 -43)" onmousedown="handlePan(1,0)">
                  <use xlink:href="#rim" fill="#404040">
                        <set attributeName="fill" to="#808080" begin="arrowRight.mouseover" end="arrowRight.mouseout"/>
                  </use>
                  <path fill="none" stroke="white" stroke-width="1.5" d="M0,-3.0v7 M-2.5,-0.5L0,-3.0L2.5,-0.5"/>
                </g>
                <g id="arrowDown" xlink:href="#dirArrow" transform="rotate(180) translate(-30 -48)" onmousedown="handlePan(0,1)">
                  <use xlink:href="#rim" fill="#404040">
                        <set attributeName="fill" to="#808080" begin="arrowDown.mouseover" end="arrowDown.mouseout"/>
                  </use>
                  <path fill="none" stroke="white" stroke-width="1.5" d="M0,-3.0v7 M-2.5,-0.5L0,-3.0L2.5,-0.5"/>
                </g>
                <g id="arrowLeft" xlink:href="#dirArrow" transform="rotate(270) translate(-36 17)" onmousedown="handlePan(-1,0)">
                  <use xlink:href="#rim" fill="#404040">
                        <set attributeName="fill" to="#808080" begin="arrowLeft.mouseover" end="arrowLeft.mouseout"/>
                  </use>
                  <path fill="none" stroke="white" stroke-width="1.5" d="M0,-3.0v7 M-2.5,-0.5L0,-3.0L2.5,-0.5"/>
                </g>
        </g>
        <svg viewBox="0 0 15 15" width="100%" height="30px" preserveAspectRatio="xMaxYMin meet">
         <g id="arrow_out" transform="scale(0.3 0.3)">
          <a xlink:href="_dwarf_elephant_r_b_structures_t9_f10_o900_steady_state_8h__incl_org.svg" target="_base">
           <rect id="button" ry="5" rx="5" y="6" x="6" height="38" width="38"
                fill="#f2f5e9" fill-opacity="0.5" stroke="#606060" stroke-width="1.0"/>
           <path id="arrow"
             d="M 11.500037,31.436501 C 11.940474,20.09759 22.043105,11.32322 32.158766,21.979434 L 37.068811,17.246167 C 37.068811,17.246167 37.088388,32 37.088388,32 L 22.160133,31.978069 C 22.160133,31.978069 26.997745,27.140456 26.997745,27.140456 C 18.528582,18.264221 13.291696,25.230495 11.500037,31.436501 z"
             style="fill:#404040;"/>
          </a>
         </g>
        </svg>
</svg>
