<?xml version="1.0" encoding="UTF-8" standalone="no"?>
<!DOCTYPE svg PUBLIC "-//W3C//DTD SVG 1.1//EN"
 "http://www.w3.org/Graphics/SVG/1.1/DTD/svg11.dtd">
<!-- Generated by graphviz version 2.38.0 (20140413.2041)
 -->
<!-- Title: include/bcs/DwarfElephantRBIntegratedBC.h Pages: 1 -->
<svg width="1185pt" height="173pt"
 viewBox="0.00 0.00 1185.00 173.00" xmlns="http://www.w3.org/2000/svg" xmlns:xlink="http://www.w3.org/1999/xlink">
<g id="graph0" class="graph" transform="scale(1 1) rotate(0) translate(4 169)">
<title>include/bcs/DwarfElephantRBIntegratedBC.h</title>
<polygon fill="white" stroke="none" points="-4,4 -4,-169 1181,-169 1181,4 -4,4"/>
<!-- Node1 -->
<g id="node1" class="node"><title>Node1</title>
<polygon fill="#bfbfbf" stroke="black" points="472,-134.5 472,-164.5 607,-164.5 607,-134.5 472,-134.5"/>
<text text-anchor="start" x="480" y="-152.5" font-family="Helvetica,sans-Serif" font-size="10.00">include/bcs/DwarfElephant</text>
<text text-anchor="middle" x="539.5" y="-141.5" font-family="Helvetica,sans-Serif" font-size="10.00">RBIntegratedBC.h</text>
</g>
<!-- Node2 -->
<g id="node2" class="node"><title>Node2</title>
<g id="a_node2"><a xlink:href="_dwarf_elephant_r_b_integrated_b_c_8_c.html" target="_top" xlink:title="src/bcs/DwarfElephantRBIntegratedBC.C">
<polygon fill="white" stroke="black" points="0,-73 0,-92 199,-92 199,-73 0,-73"/>
<text text-anchor="middle" x="99.5" y="-80" font-family="Helvetica,sans-Serif" font-size="10.00">src/bcs/DwarfElephantRBIntegratedBC.C</text>
</a>
</g>
</g>
<!-- Node1&#45;&gt;Node2 -->
<g id="edge1" class="edge"><title>Node1&#45;&gt;Node2</title>
<path fill="none" stroke="midnightblue" d="M461.609,-136.993C374.411,-124.112 235.147,-103.539 157.182,-92.0212"/>
<polygon fill="midnightblue" stroke="midnightblue" points="461.31,-140.487 471.714,-138.486 462.333,-133.562 461.31,-140.487"/>
</g>
<!-- Node3 -->
<g id="node3" class="node"><title>Node3</title>
<g id="a_node3"><a xlink:href="_dwarf_elephant_r_b_function_neumann_b_c_8h.html" target="_top" xlink:title="include/bcs/DwarfElephant\lRBFunctionNeumannBC.h">
<polygon fill="white" stroke="black" points="855,-67.5 855,-97.5 990,-97.5 990,-67.5 855,-67.5"/>
<text text-anchor="start" x="863" y="-85.5" font-family="Helvetica,sans-Serif" font-size="10.00">include/bcs/DwarfElephant</text>
<text text-anchor="middle" x="922.5" y="-74.5" font-family="Helvetica,sans-Serif" font-size="10.00">RBFunctionNeumannBC.h</text>
</a>
</g>
</g>
<!-- Node1&#45;&gt;Node3 -->
<g id="edge2" class="edge"><title>Node1&#45;&gt;Node3</title>
<path fill="none" stroke="midnightblue" d="M617.113,-136.187C679.017,-126.247 767.9,-111.708 845.5,-98 848.581,-97.4557 851.73,-96.8922 854.91,-96.3173"/>
<polygon fill="midnightblue" stroke="midnightblue" points="616.351,-132.765 607.032,-137.804 617.46,-139.676 616.351,-132.765"/>
</g>
<!-- Node6 -->
<g id="node6" class="node"><title>Node6</title>
<g id="a_node6"><a xlink:href="_dwarf_elephant_r_b_function_penalty_dirichlet_b_c_8h.html" target="_top" xlink:title="include/bcs/DwarfElephant\lRBFunctionPenaltyDirichletBC.h">
<polygon fill="white" stroke="black" points="217.5,-67.5 217.5,-97.5 377.5,-97.5 377.5,-67.5 217.5,-67.5"/>
<text text-anchor="start" x="225.5" y="-85.5" font-family="Helvetica,sans-Serif" font-size="10.00">include/bcs/DwarfElephant</text>
<text text-anchor="middle" x="297.5" y="-74.5" font-family="Helvetica,sans-Serif" font-size="10.00">RBFunctionPenaltyDirichletBC.h</text>
</a>
</g>
</g>
<!-- Node1&#45;&gt;Node6 -->
<g id="edge5" class="edge"><title>Node1&#45;&gt;Node6</title>
<path fill="none" stroke="midnightblue" d="M477.51,-131.85C438.055,-121.252 387.515,-107.677 350.036,-97.6109"/>
<polygon fill="midnightblue" stroke="midnightblue" points="476.722,-135.262 487.288,-134.476 478.538,-128.502 476.722,-135.262"/>
</g>
<!-- Node8 -->
<g id="node8" class="node"><title>Node8</title>
<g id="a_node8"><a xlink:href="_dwarf_elephant_r_b_neumann_b_c_8h.html" target="_top" xlink:title="include/bcs/DwarfElephant\lRBNeumannBC.h">
<polygon fill="white" stroke="black" points="396,-67.5 396,-97.5 531,-97.5 531,-67.5 396,-67.5"/>
<text text-anchor="start" x="404" y="-85.5" font-family="Helvetica,sans-Serif" font-size="10.00">include/bcs/DwarfElephant</text>
<text text-anchor="middle" x="463.5" y="-74.5" font-family="Helvetica,sans-Serif" font-size="10.00">RBNeumannBC.h</text>
</a>
</g>
</g>
<!-- Node1&#45;&gt;Node8 -->
<g id="edge8" class="edge"><title>Node1&#45;&gt;Node8</title>
<path fill="none" stroke="midnightblue" d="M515.394,-127.883C503.845,-118.005 490.31,-106.429 479.959,-97.5765"/>
<polygon fill="midnightblue" stroke="midnightblue" points="513.135,-130.556 523.009,-134.396 517.684,-125.236 513.135,-130.556"/>
</g>
<!-- Node10 -->
<g id="node10" class="node"><title>Node10</title>
<g id="a_node10"><a xlink:href="_dwarf_elephant_r_b_neumann_b_c_n_d_8h.html" target="_top" xlink:title="include/bcs/DwarfElephant\lRBNeumannBCND.h">
<polygon fill="white" stroke="black" points="549,-67.5 549,-97.5 684,-97.5 684,-67.5 549,-67.5"/>
<text text-anchor="start" x="557" y="-85.5" font-family="Helvetica,sans-Serif" font-size="10.00">include/bcs/DwarfElephant</text>
<text text-anchor="middle" x="616.5" y="-74.5" font-family="Helvetica,sans-Serif" font-size="10.00">RBNeumannBCND.h</text>
</a>
</g>
</g>
<!-- Node1&#45;&gt;Node10 -->
<g id="edge11" class="edge"><title>Node1&#45;&gt;Node10</title>
<path fill="none" stroke="midnightblue" d="M563.923,-127.883C575.624,-118.005 589.338,-106.429 599.825,-97.5765"/>
<polygon fill="midnightblue" stroke="midnightblue" points="561.592,-125.271 556.208,-134.396 566.107,-130.62 561.592,-125.271"/>
</g>
<!-- Node12 -->
<g id="node12" class="node"><title>Node12</title>
<g id="a_node12"><a xlink:href="_dwarf_elephant_r_b_penalty_dirichlet_b_c_8h.html" target="_top" xlink:title="include/bcs/DwarfElephant\lRBPenaltyDirichletBC.h">
<polygon fill="white" stroke="black" points="702,-67.5 702,-97.5 837,-97.5 837,-67.5 702,-67.5"/>
<text text-anchor="start" x="710" y="-85.5" font-family="Helvetica,sans-Serif" font-size="10.00">include/bcs/DwarfElephant</text>
<text text-anchor="middle" x="769.5" y="-74.5" font-family="Helvetica,sans-Serif" font-size="10.00">RBPenaltyDirichletBC.h</text>
</a>
</g>
</g>
<!-- Node1&#45;&gt;Node12 -->
<g id="edge14" class="edge"><title>Node1&#45;&gt;Node12</title>
<path fill="none" stroke="midnightblue" d="M598.893,-131.715C636.322,-121.137 684.1,-107.635 719.569,-97.6109"/>
<polygon fill="midnightblue" stroke="midnightblue" points="597.795,-128.388 589.123,-134.476 599.698,-135.124 597.795,-128.388"/>
</g>
<!-- Node4 -->
<g id="node4" class="node"><title>Node4</title>
<g id="a_node4"><a xlink:href="_dwarf_elephant_app_8_c.html" target="_top" xlink:title="src/base/DwarfElephantApp.C">
<polygon fill="white" stroke="black" points="465.5,-6 465.5,-25 615.5,-25 615.5,-6 465.5,-6"/>
<text text-anchor="middle" x="540.5" y="-13" font-family="Helvetica,sans-Serif" font-size="10.00">src/base/DwarfElephantApp.C</text>
</a>
</g>
</g>
<!-- Node3&#45;&gt;Node4 -->
<g id="edge3" class="edge"><title>Node3&#45;&gt;Node4</title>
<path fill="none" stroke="midnightblue" d="M844.777,-66.8995C745.806,-49.6258 719.483,-46.9337 624.5,-31 613.116,-29.0903 600.871,-26.9982 589.346,-25.0121"/>
<polygon fill="midnightblue" stroke="midnightblue" points="844.457,-70.3967 854.911,-68.6747 845.665,-63.5017 844.457,-70.3967"/>
</g>
<!-- Node5 -->
<g id="node5" class="node"><title>Node5</title>
<g id="a_node5"><a xlink:href="_dwarf_elephant_r_b_function_neumann_b_c_8_c.html" target="_top" xlink:title="src/bcs/DwarfElephantRBFunction\lNeumannBC.C">
<polygon fill="white" stroke="black" points="1008,-0.5 1008,-30.5 1177,-30.5 1177,-0.5 1008,-0.5"/>
<text text-anchor="start" x="1016" y="-18.5" font-family="Helvetica,sans-Serif" font-size="10.00">src/bcs/DwarfElephantRBFunction</text>
<text text-anchor="middle" x="1092.5" y="-7.5" font-family="Helvetica,sans-Serif" font-size="10.00">NeumannBC.C</text>
</a>
</g>
</g>
<!-- Node3&#45;&gt;Node5 -->
<g id="edge4" class="edge"><title>Node3&#45;&gt;Node5</title>
<path fill="none" stroke="midnightblue" d="M968.744,-63.8185C996.069,-53.3707 1030.19,-40.3231 1055.68,-30.5765"/>
<polygon fill="midnightblue" stroke="midnightblue" points="967.478,-60.5553 959.387,-67.396 969.978,-67.0937 967.478,-60.5553"/>
</g>
<!-- Node6&#45;&gt;Node4 -->
<g id="edge6" class="edge"><title>Node6&#45;&gt;Node4</title>
<path fill="none" stroke="midnightblue" d="M359.819,-64.8304C407.377,-52.1091 470.941,-35.1062 508.616,-25.0287"/>
<polygon fill="midnightblue" stroke="midnightblue" points="358.684,-61.5107 349.928,-67.476 360.493,-68.273 358.684,-61.5107"/>
</g>
<!-- Node7 -->
<g id="node7" class="node"><title>Node7</title>
<g id="a_node7"><a xlink:href="_dwarf_elephant_r_b_function_penalty_dirichlet_b_c_8_c.html" target="_top" xlink:title="src/bcs/DwarfElephantRBFunction\lPenaltyDirichletBC.C">
<polygon fill="white" stroke="black" points="62,-0.5 62,-30.5 231,-30.5 231,-0.5 62,-0.5"/>
<text text-anchor="start" x="70" y="-18.5" font-family="Helvetica,sans-Serif" font-size="10.00">src/bcs/DwarfElephantRBFunction</text>
<text text-anchor="middle" x="146.5" y="-7.5" font-family="Helvetica,sans-Serif" font-size="10.00">PenaltyDirichletBC.C</text>
</a>
</g>
</g>
<!-- Node6&#45;&gt;Node7 -->
<g id="edge7" class="edge"><title>Node6&#45;&gt;Node7</title>
<path fill="none" stroke="midnightblue" d="M255.468,-63.4066C231.361,-53.0294 201.546,-40.1954 179.201,-30.5765"/>
<polygon fill="midnightblue" stroke="midnightblue" points="254.166,-66.6568 264.735,-67.396 256.934,-60.2272 254.166,-66.6568"/>
</g>
<!-- Node8&#45;&gt;Node4 -->
<g id="edge9" class="edge"><title>Node8&#45;&gt;Node4</title>
<path fill="none" stroke="midnightblue" d="M488.173,-60.6722C502.39,-48.6707 519.508,-34.2203 530.2,-25.1945"/>
<polygon fill="midnightblue" stroke="midnightblue" points="485.592,-58.2709 480.208,-67.396 490.107,-63.6199 485.592,-58.2709"/>
</g>
<!-- Node9 -->
<g id="node9" class="node"><title>Node9</title>
<g id="a_node9"><a xlink:href="_dwarf_elephant_r_b_neumann_b_c_8_c.html" target="_top" xlink:title="src/bcs/DwarfElephantRBNeumannBC.C">
<polygon fill="white" stroke="black" points="249.5,-6 249.5,-25 447.5,-25 447.5,-6 249.5,-6"/>
<text text-anchor="middle" x="348.5" y="-13" font-family="Helvetica,sans-Serif" font-size="10.00">src/bcs/DwarfElephantRBNeumannBC.C</text>
</a>
</g>
</g>
<!-- Node8&#45;&gt;Node9 -->
<g id="edge10" class="edge"><title>Node8&#45;&gt;Node9</title>
<path fill="none" stroke="midnightblue" d="M429.836,-62.4727C407.883,-50.0641 380.296,-34.4716 363.551,-25.007"/>
<polygon fill="midnightblue" stroke="midnightblue" points="428.119,-65.5223 438.547,-67.396 431.563,-59.4284 428.119,-65.5223"/>
</g>
<!-- Node10&#45;&gt;Node4 -->
<g id="edge12" class="edge"><title>Node10&#45;&gt;Node4</title>
<path fill="none" stroke="midnightblue" d="M592.147,-60.6722C578.115,-48.6707 561.219,-34.2203 550.666,-25.1945"/>
<polygon fill="midnightblue" stroke="midnightblue" points="590.135,-63.5561 600.009,-67.396 594.684,-58.2364 590.135,-63.5561"/>
</g>
<!-- Node11 -->
<g id="node11" class="node"><title>Node11</title>
<g id="a_node11"><a xlink:href="_dwarf_elephant_r_b_neumann_b_c_n_d_8_c.html" target="_top" xlink:title="src/bcs/DwarfElephantRBNeumann\lBCND.C">
<polygon fill="white" stroke="black" points="633.5,-0.5 633.5,-30.5 807.5,-30.5 807.5,-0.5 633.5,-0.5"/>
<text text-anchor="start" x="641.5" y="-18.5" font-family="Helvetica,sans-Serif" font-size="10.00">src/bcs/DwarfElephantRBNeumann</text>
<text text-anchor="middle" x="720.5" y="-7.5" font-family="Helvetica,sans-Serif" font-size="10.00">BCND.C</text>
</a>
</g>
</g>
<!-- Node10&#45;&gt;Node11 -->
<g id="edge13" class="edge"><title>Node10&#45;&gt;Node11</title>
<path fill="none" stroke="midnightblue" d="M647.676,-62.0151C663.86,-51.8999 683.268,-39.7698 697.978,-30.5765"/>
<polygon fill="midnightblue" stroke="midnightblue" points="645.691,-59.1279 639.066,-67.396 649.401,-65.0639 645.691,-59.1279"/>
</g>
<!-- Node12&#45;&gt;Node4 -->
<g id="edge15" class="edge"><title>Node12&#45;&gt;Node4</title>
<path fill="none" stroke="midnightblue" d="M710.208,-64.6705C665.453,-51.967 605.902,-35.064 570.547,-25.0287"/>
<polygon fill="midnightblue" stroke="midnightblue" points="709.517,-68.1124 720.092,-67.476 711.428,-61.3784 709.517,-68.1124"/>
</g>
<!-- Node13 -->
<g id="node13" class="node"><title>Node13</title>
<g id="a_node13"><a xlink:href="_dwarf_elephant_r_b_penalty_dirichlet_b_c_8_c.html" target="_top" xlink:title="src/bcs/DwarfElephantRBPenalty\lDirichletBC.C">
<polygon fill="white" stroke="black" points="825.5,-0.5 825.5,-30.5 989.5,-30.5 989.5,-0.5 825.5,-0.5"/>
<text text-anchor="start" x="833.5" y="-18.5" font-family="Helvetica,sans-Serif" font-size="10.00">src/bcs/DwarfElephantRBPenalty</text>
<text text-anchor="middle" x="907.5" y="-7.5" font-family="Helvetica,sans-Serif" font-size="10.00">DirichletBC.C</text>
</a>
</g>
</g>
<!-- Node12&#45;&gt;Node13 -->
<g id="edge16" class="edge"><title>Node12&#45;&gt;Node13</title>
<path fill="none" stroke="midnightblue" d="M808.5,-63.1305C830.427,-52.8025 857.374,-40.1103 877.614,-30.5765"/>
<polygon fill="midnightblue" stroke="midnightblue" points="806.999,-59.9684 799.444,-67.396 809.982,-66.3011 806.999,-59.9684"/>
</g>
</g>
</svg>
