<?xml version="1.0" encoding="UTF-8" standalone="no"?>
<!DOCTYPE svg PUBLIC "-//W3C//DTD SVG 1.1//EN"
 "http://www.w3.org/Graphics/SVG/1.1/DTD/svg11.dtd">
<!-- Generated by graphviz version 2.38.0 (20140413.2041)
 -->
<!-- Title: include/userobjects/DwarfElephantRBStructuresT3F3O3M2IC1Transient.h Pages: 1 -->
<svg width="1926pt" height="184pt"
 viewBox="0.00 0.00 1926.00 184.00" xmlns="http://www.w3.org/2000/svg" xmlns:xlink="http://www.w3.org/1999/xlink">
<g id="graph0" class="graph" transform="scale(1 1) rotate(0) translate(4 180)">
<title>include/userobjects/DwarfElephantRBStructuresT3F3O3M2IC1Transient.h</title>
<polygon fill="white" stroke="none" points="-4,4 -4,-180 1922,-180 1922,4 -4,4"/>
<!-- Node1 -->
<g id="node1" class="node"><title>Node1</title>
<polygon fill="#bfbfbf" stroke="black" points="815,-134.5 815,-175.5 959,-175.5 959,-134.5 815,-134.5"/>
<text text-anchor="start" x="823" y="-163.5" font-family="Helvetica,sans-Serif" font-size="10.00">include/userobjects</text>
<text text-anchor="start" x="823" y="-152.5" font-family="Helvetica,sans-Serif" font-size="10.00">/DwarfElephantRBStructures</text>
<text text-anchor="middle" x="887" y="-141.5" font-family="Helvetica,sans-Serif" font-size="10.00">T3F3O3M2IC1Transient.h</text>
</g>
<!-- Node2 -->
<g id="node2" class="node"><title>Node2</title>
<polygon fill="white" stroke="#bfbfbf" points="63.5,-0.5 63.5,-30.5 170.5,-30.5 170.5,-0.5 63.5,-0.5"/>
<text text-anchor="start" x="71.5" y="-18.5" font-family="Helvetica,sans-Serif" font-size="10.00">libmesh/transient_rb</text>
<text text-anchor="middle" x="117" y="-7.5" font-family="Helvetica,sans-Serif" font-size="10.00">_theta_expansion.h</text>
</g>
<!-- Node1&#45;&gt;Node2 -->
<g id="edge1" class="edge"><title>Node1&#45;&gt;Node2</title>
<path fill="none" stroke="midnightblue" d="M814.728,-151.4C646.719,-144.906 239.937,-126.429 185,-98 160.106,-85.1178 140.787,-58.7709 129.208,-39.5082"/>
<polygon fill="midnightblue" stroke="midnightblue" points="132.17,-37.6388 124.154,-30.7111 126.101,-41.1256 132.17,-37.6388"/>
</g>
<!-- Node3 -->
<g id="node3" class="node"><title>Node3</title>
<polygon fill="white" stroke="#bfbfbf" points="194,-67.5 194,-97.5 318,-97.5 318,-67.5 194,-67.5"/>
<text text-anchor="start" x="202" y="-85.5" font-family="Helvetica,sans-Serif" font-size="10.00">libmesh/transient_rb</text>
<text text-anchor="middle" x="256" y="-74.5" font-family="Helvetica,sans-Serif" font-size="10.00">_assembly_expansion.h</text>
</g>
<!-- Node1&#45;&gt;Node3 -->
<g id="edge2" class="edge"><title>Node1&#45;&gt;Node3</title>
<path fill="none" stroke="midnightblue" d="M814.66,-149.131C709.604,-141.535 508.555,-125.027 328.207,-98.0888"/>
<polygon fill="midnightblue" stroke="midnightblue" points="328.684,-94.6213 318.274,-96.5913 327.64,-101.543 328.684,-94.6213"/>
</g>
<!-- Node4 -->
<g id="node4" class="node"><title>Node4</title>
<g id="a_node4"><a xlink:href="_dwarf_elephant_r_b_transient_theta_expansion_8h.html" target="_top" xlink:title="DwarfElephantRBTransient\lThetaExpansion.h">
<polygon fill="white" stroke="black" points="0,-67.5 0,-97.5 138,-97.5 138,-67.5 0,-67.5"/>
<text text-anchor="start" x="8" y="-85.5" font-family="Helvetica,sans-Serif" font-size="10.00">DwarfElephantRBTransient</text>
<text text-anchor="middle" x="69" y="-74.5" font-family="Helvetica,sans-Serif" font-size="10.00">ThetaExpansion.h</text>
</a>
</g>
</g>
<!-- Node1&#45;&gt;Node4 -->
<g id="edge3" class="edge"><title>Node1&#45;&gt;Node4</title>
<path fill="none" stroke="midnightblue" d="M814.782,-150.823C682.789,-144.501 393.904,-128.273 152,-98 150.734,-97.8416 149.459,-97.6772 148.175,-97.5074"/>
<polygon fill="midnightblue" stroke="midnightblue" points="148.606,-94.0335 138.216,-96.1087 147.632,-100.966 148.606,-94.0335"/>
</g>
<!-- Node5 -->
<g id="node5" class="node"><title>Node5</title>
<g id="a_node5"><a xlink:href="_dwarf_elephant_r_b_structures_a00_theta_constant_8h.html" target="_top" xlink:title="DwarfElephantRBStructures\lA00ThetaConstant.h">
<polygon fill="white" stroke="black" points="1136,-67.5 1136,-97.5 1278,-97.5 1278,-67.5 1136,-67.5"/>
<text text-anchor="start" x="1144" y="-85.5" font-family="Helvetica,sans-Serif" font-size="10.00">DwarfElephantRBStructures</text>
<text text-anchor="middle" x="1207" y="-74.5" font-family="Helvetica,sans-Serif" font-size="10.00">A00ThetaConstant.h</text>
</a>
</g>
</g>
<!-- Node1&#45;&gt;Node5 -->
<g id="edge5" class="edge"><title>Node1&#45;&gt;Node5</title>
<path fill="none" stroke="midnightblue" d="M959.213,-138.091C1011.25,-126.626 1081.24,-111.207 1133.56,-99.6806"/>
<polygon fill="midnightblue" stroke="midnightblue" points="1134.43,-103.072 1143.44,-97.5025 1132.92,-96.2361 1134.43,-103.072"/>
</g>
<!-- Node8 -->
<g id="node8" class="node"><title>Node8</title>
<g id="a_node8"><a xlink:href="_dwarf_elephant_r_b_structures_a0_theta_equal_mu0_8h.html" target="_top" xlink:title="DwarfElephantRBStructures\lA0ThetaEqualMu0.h">
<polygon fill="white" stroke="black" points="1296,-67.5 1296,-97.5 1438,-97.5 1438,-67.5 1296,-67.5"/>
<text text-anchor="start" x="1304" y="-85.5" font-family="Helvetica,sans-Serif" font-size="10.00">DwarfElephantRBStructures</text>
<text text-anchor="middle" x="1367" y="-74.5" font-family="Helvetica,sans-Serif" font-size="10.00">A0ThetaEqualMu0.h</text>
</a>
</g>
</g>
<!-- Node1&#45;&gt;Node8 -->
<g id="edge8" class="edge"><title>Node1&#45;&gt;Node8</title>
<path fill="none" stroke="midnightblue" d="M959.028,-144.803C1037.02,-134.643 1165.33,-117.348 1285.79,-98.1581"/>
<polygon fill="midnightblue" stroke="midnightblue" points="1286.6,-101.572 1295.93,-96.5354 1285.5,-94.6599 1286.6,-101.572"/>
</g>
<!-- Node9 -->
<g id="node9" class="node"><title>Node9</title>
<g id="a_node9"><a xlink:href="_dwarf_elephant_r_b_structures_a0_theta_norm_mu0_8h.html" target="_top" xlink:title="DwarfElephantRBStructures\lA0ThetaNormMu0.h">
<polygon fill="white" stroke="black" points="1456,-67.5 1456,-97.5 1598,-97.5 1598,-67.5 1456,-67.5"/>
<text text-anchor="start" x="1464" y="-85.5" font-family="Helvetica,sans-Serif" font-size="10.00">DwarfElephantRBStructures</text>
<text text-anchor="middle" x="1527" y="-74.5" font-family="Helvetica,sans-Serif" font-size="10.00">A0ThetaNormMu0.h</text>
</a>
</g>
</g>
<!-- Node1&#45;&gt;Node9 -->
<g id="edge11" class="edge"><title>Node1&#45;&gt;Node9</title>
<path fill="none" stroke="midnightblue" d="M959.266,-148.624C1064.23,-140.405 1265.17,-123.125 1445.99,-98.0722"/>
<polygon fill="midnightblue" stroke="midnightblue" points="1446.53,-101.531 1455.95,-96.6814 1445.56,-94.5981 1446.53,-101.531"/>
</g>
<!-- Node10 -->
<g id="node10" class="node"><title>Node10</title>
<g id="a_node10"><a xlink:href="_dwarf_elephant_r_b_structures_a0_theta_norm_mu1_8h.html" target="_top" xlink:title="DwarfElephantRBStructures\lA0ThetaNormMu1.h">
<polygon fill="white" stroke="black" points="1616,-67.5 1616,-97.5 1758,-97.5 1758,-67.5 1616,-67.5"/>
<text text-anchor="start" x="1624" y="-85.5" font-family="Helvetica,sans-Serif" font-size="10.00">DwarfElephantRBStructures</text>
<text text-anchor="middle" x="1687" y="-74.5" font-family="Helvetica,sans-Serif" font-size="10.00">A0ThetaNormMu1.h</text>
</a>
</g>
</g>
<!-- Node1&#45;&gt;Node10 -->
<g id="edge14" class="edge"><title>Node1&#45;&gt;Node10</title>
<path fill="none" stroke="midnightblue" d="M959.04,-150.826C1087.17,-144.647 1363.22,-128.935 1605.89,-98.0561"/>
<polygon fill="midnightblue" stroke="midnightblue" points="1606.49,-101.508 1615.96,-96.7633 1605.59,-94.5651 1606.49,-101.508"/>
</g>
<!-- Node11 -->
<g id="node11" class="node"><title>Node11</title>
<g id="a_node11"><a xlink:href="_dwarf_elephant_r_b_structures_a1_theta_equal_mu1_8h.html" target="_top" xlink:title="DwarfElephantRBStructures\lA1ThetaEqualMu1.h">
<polygon fill="white" stroke="black" points="1776,-67.5 1776,-97.5 1918,-97.5 1918,-67.5 1776,-67.5"/>
<text text-anchor="start" x="1784" y="-85.5" font-family="Helvetica,sans-Serif" font-size="10.00">DwarfElephantRBStructures</text>
<text text-anchor="middle" x="1847" y="-74.5" font-family="Helvetica,sans-Serif" font-size="10.00">A1ThetaEqualMu1.h</text>
</a>
</g>
</g>
<!-- Node1&#45;&gt;Node11 -->
<g id="edge17" class="edge"><title>Node1&#45;&gt;Node11</title>
<path fill="none" stroke="midnightblue" d="M959.124,-152.236C1108.1,-147.978 1460.72,-134.726 1766.04,-98.0197"/>
<polygon fill="midnightblue" stroke="midnightblue" points="1766.46,-101.494 1775.96,-96.8156 1765.62,-94.545 1766.46,-101.494"/>
</g>
<!-- Node12 -->
<g id="node12" class="node"><title>Node12</title>
<g id="a_node12"><a xlink:href="_dwarf_elephant_r_b_structures_a1_theta_norm_mu0_8h.html" target="_top" xlink:title="DwarfElephantRBStructures\lA1ThetaNormMu0.h">
<polygon fill="white" stroke="black" points="336,-67.5 336,-97.5 478,-97.5 478,-67.5 336,-67.5"/>
<text text-anchor="start" x="344" y="-85.5" font-family="Helvetica,sans-Serif" font-size="10.00">DwarfElephantRBStructures</text>
<text text-anchor="middle" x="407" y="-74.5" font-family="Helvetica,sans-Serif" font-size="10.00">A1ThetaNormMu0.h</text>
</a>
</g>
</g>
<!-- Node1&#45;&gt;Node12 -->
<g id="edge20" class="edge"><title>Node1&#45;&gt;Node12</title>
<path fill="none" stroke="midnightblue" d="M814.972,-144.803C736.98,-134.643 608.665,-117.348 488.213,-98.1581"/>
<polygon fill="midnightblue" stroke="midnightblue" points="488.502,-94.6599 478.075,-96.5354 487.396,-101.572 488.502,-94.6599"/>
</g>
<!-- Node13 -->
<g id="node13" class="node"><title>Node13</title>
<g id="a_node13"><a xlink:href="_dwarf_elephant_r_b_structures_a1_theta_norm_mu1_8h.html" target="_top" xlink:title="DwarfElephantRBStructures\lA1ThetaNormMu1.h">
<polygon fill="white" stroke="black" points="496,-67.5 496,-97.5 638,-97.5 638,-67.5 496,-67.5"/>
<text text-anchor="start" x="504" y="-85.5" font-family="Helvetica,sans-Serif" font-size="10.00">DwarfElephantRBStructures</text>
<text text-anchor="middle" x="567" y="-74.5" font-family="Helvetica,sans-Serif" font-size="10.00">A1ThetaNormMu1.h</text>
</a>
</g>
</g>
<!-- Node1&#45;&gt;Node13 -->
<g id="edge23" class="edge"><title>Node1&#45;&gt;Node13</title>
<path fill="none" stroke="midnightblue" d="M814.787,-138.091C762.747,-126.626 692.763,-111.207 640.444,-99.6806"/>
<polygon fill="midnightblue" stroke="midnightblue" points="641.076,-96.2361 630.558,-97.5025 639.57,-103.072 641.076,-96.2361"/>
</g>
<!-- Node14 -->
<g id="node14" class="node"><title>Node14</title>
<g id="a_node14"><a xlink:href="_dwarf_elephant_r_b_structures_a2_theta_equal_mu2_8h.html" target="_top" xlink:title="DwarfElephantRBStructures\lA2ThetaEqualMu2.h">
<polygon fill="white" stroke="black" points="656,-67.5 656,-97.5 798,-97.5 798,-67.5 656,-67.5"/>
<text text-anchor="start" x="664" y="-85.5" font-family="Helvetica,sans-Serif" font-size="10.00">DwarfElephantRBStructures</text>
<text text-anchor="middle" x="727" y="-74.5" font-family="Helvetica,sans-Serif" font-size="10.00">A2ThetaEqualMu2.h</text>
</a>
</g>
</g>
<!-- Node1&#45;&gt;Node14 -->
<g id="edge26" class="edge"><title>Node1&#45;&gt;Node14</title>
<path fill="none" stroke="midnightblue" d="M842.431,-134.362C819.211,-124.13 790.999,-111.7 768.279,-101.689"/>
<polygon fill="midnightblue" stroke="midnightblue" points="769.471,-98.389 758.908,-97.5597 766.648,-104.795 769.471,-98.389"/>
</g>
<!-- Node15 -->
<g id="node15" class="node"><title>Node15</title>
<g id="a_node15"><a xlink:href="_dwarf_elephant_r_b_structures_a2_theta_norm_mu0_8h.html" target="_top" xlink:title="DwarfElephantRBStructures\lA2ThetaNormMu0.h">
<polygon fill="white" stroke="black" points="816,-67.5 816,-97.5 958,-97.5 958,-67.5 816,-67.5"/>
<text text-anchor="start" x="824" y="-85.5" font-family="Helvetica,sans-Serif" font-size="10.00">DwarfElephantRBStructures</text>
<text text-anchor="middle" x="887" y="-74.5" font-family="Helvetica,sans-Serif" font-size="10.00">A2ThetaNormMu0.h</text>
</a>
</g>
</g>
<!-- Node1&#45;&gt;Node15 -->
<g id="edge29" class="edge"><title>Node1&#45;&gt;Node15</title>
<path fill="none" stroke="midnightblue" d="M887,-134.362C887,-126.226 887,-116.7 887,-108.105"/>
<polygon fill="midnightblue" stroke="midnightblue" points="890.5,-107.892 887,-97.8916 883.5,-107.892 890.5,-107.892"/>
</g>
<!-- Node16 -->
<g id="node16" class="node"><title>Node16</title>
<g id="a_node16"><a xlink:href="_dwarf_elephant_r_b_structures_a2_theta_norm_mu1_8h.html" target="_top" xlink:title="DwarfElephantRBStructures\lA2ThetaNormMu1.h">
<polygon fill="white" stroke="black" points="976,-67.5 976,-97.5 1118,-97.5 1118,-67.5 976,-67.5"/>
<text text-anchor="start" x="984" y="-85.5" font-family="Helvetica,sans-Serif" font-size="10.00">DwarfElephantRBStructures</text>
<text text-anchor="middle" x="1047" y="-74.5" font-family="Helvetica,sans-Serif" font-size="10.00">A2ThetaNormMu1.h</text>
</a>
</g>
</g>
<!-- Node1&#45;&gt;Node16 -->
<g id="edge32" class="edge"><title>Node1&#45;&gt;Node16</title>
<path fill="none" stroke="midnightblue" d="M931.569,-134.362C954.789,-124.13 983.001,-111.7 1005.72,-101.689"/>
<polygon fill="midnightblue" stroke="midnightblue" points="1007.35,-104.795 1015.09,-97.5597 1004.53,-98.389 1007.35,-104.795"/>
</g>
<!-- Node4&#45;&gt;Node2 -->
<g id="edge4" class="edge"><title>Node4&#45;&gt;Node2</title>
<path fill="none" stroke="midnightblue" d="M79.4153,-67.396C85.5795,-59.0486 93.5264,-48.2871 100.524,-38.8113"/>
<polygon fill="midnightblue" stroke="midnightblue" points="103.48,-40.7 106.605,-30.5765 97.849,-36.5417 103.48,-40.7"/>
</g>
<!-- Node6 -->
<g id="node6" class="node"><title>Node6</title>
<polygon fill="white" stroke="#bfbfbf" points="1147.5,-6 1147.5,-25 1246.5,-25 1246.5,-6 1147.5,-6"/>
<text text-anchor="middle" x="1197" y="-13" font-family="Helvetica,sans-Serif" font-size="10.00">libmesh/rb_theta.h</text>
</g>
<!-- Node5&#45;&gt;Node6 -->
<g id="edge6" class="edge"><title>Node5&#45;&gt;Node6</title>
<path fill="none" stroke="midnightblue" d="M1204.83,-67.396C1203.38,-57.9635 1201.45,-45.4484 1199.88,-35.1891"/>
<polygon fill="midnightblue" stroke="midnightblue" points="1203.32,-34.546 1198.34,-25.1945 1196.4,-35.6105 1203.32,-34.546"/>
</g>
<!-- Node7 -->
<g id="node7" class="node"><title>Node7</title>
<polygon fill="white" stroke="#bfbfbf" points="1010,-0.5 1010,-30.5 1120,-30.5 1120,-0.5 1010,-0.5"/>
<text text-anchor="start" x="1018" y="-18.5" font-family="Helvetica,sans-Serif" font-size="10.00">libmesh/rb_assembly</text>
<text text-anchor="middle" x="1065" y="-7.5" font-family="Helvetica,sans-Serif" font-size="10.00">_expansion.h</text>
</g>
<!-- Node5&#45;&gt;Node7 -->
<g id="edge7" class="edge"><title>Node5&#45;&gt;Node7</title>
<path fill="none" stroke="midnightblue" d="M1176.19,-67.396C1155.35,-57.8561 1127.62,-45.1632 1105.07,-34.8397"/>
<polygon fill="midnightblue" stroke="midnightblue" points="1106.3,-31.5563 1095.75,-30.5765 1103.39,-37.9211 1106.3,-31.5563"/>
</g>
<!-- Node8&#45;&gt;Node6 -->
<g id="edge9" class="edge"><title>Node8&#45;&gt;Node6</title>
<path fill="none" stroke="midnightblue" d="M1330.11,-67.396C1299.89,-55.8396 1257.56,-39.6562 1228.81,-28.6629"/>
<polygon fill="midnightblue" stroke="midnightblue" points="1229.84,-25.3093 1219.25,-25.007 1227.34,-31.8476 1229.84,-25.3093"/>
</g>
<!-- Node8&#45;&gt;Node7 -->
<g id="edge10" class="edge"><title>Node8&#45;&gt;Node7</title>
<path fill="none" stroke="midnightblue" d="M1301.84,-67.476C1251.12,-56.5597 1181.06,-41.479 1130.3,-30.5549"/>
<polygon fill="midnightblue" stroke="midnightblue" points="1130.93,-27.1105 1120.42,-28.4279 1129.46,-33.9538 1130.93,-27.1105"/>
</g>
<!-- Node9&#45;&gt;Node6 -->
<g id="edge12" class="edge"><title>Node9&#45;&gt;Node6</title>
<path fill="none" stroke="midnightblue" d="M1455.8,-67.476C1394.08,-55.3196 1306.15,-37.9991 1250.33,-27.0052"/>
<polygon fill="midnightblue" stroke="midnightblue" points="1250.79,-23.5273 1240.3,-25.0287 1249.43,-30.3953 1250.79,-23.5273"/>
</g>
<!-- Node9&#45;&gt;Node7 -->
<g id="edge13" class="edge"><title>Node9&#45;&gt;Node7</title>
<path fill="none" stroke="midnightblue" d="M1455.94,-68.379C1452.92,-67.8981 1449.93,-67.4361 1447,-67 1310.24,-46.6607 1274.58,-52.4856 1138,-31 1135.49,-30.6047 1132.93,-30.1844 1130.35,-29.7454"/>
<polygon fill="midnightblue" stroke="midnightblue" points="1130.78,-26.2671 1120.32,-27.9719 1129.56,-33.1601 1130.78,-26.2671"/>
</g>
<!-- Node10&#45;&gt;Node6 -->
<g id="edge15" class="edge"><title>Node10&#45;&gt;Node6</title>
<path fill="none" stroke="midnightblue" d="M1615.93,-68.4034C1612.92,-67.9158 1609.93,-67.4457 1607,-67 1482.99,-48.1403 1337.06,-31.4792 1257.04,-22.8154"/>
<polygon fill="midnightblue" stroke="midnightblue" points="1256.98,-19.2894 1246.67,-21.6973 1256.23,-26.2491 1256.98,-19.2894"/>
</g>
<!-- Node10&#45;&gt;Node7 -->
<g id="edge16" class="edge"><title>Node10&#45;&gt;Node7</title>
<path fill="none" stroke="midnightblue" d="M1615.96,-68.2329C1612.94,-67.792 1609.94,-67.3783 1607,-67 1399.65,-40.3227 1345.12,-59.4154 1138,-31 1135.48,-30.6542 1132.92,-30.2759 1130.33,-29.872"/>
<polygon fill="midnightblue" stroke="midnightblue" points="1130.72,-26.3899 1120.29,-28.2027 1129.58,-33.2952 1130.72,-26.3899"/>
</g>
<!-- Node11&#45;&gt;Node6 -->
<g id="edge18" class="edge"><title>Node11&#45;&gt;Node6</title>
<path fill="none" stroke="midnightblue" d="M1775.95,-68.2766C1772.93,-67.8237 1769.94,-67.3955 1767,-67 1581.67,-42.0475 1360.72,-26.487 1256.72,-19.9972"/>
<polygon fill="midnightblue" stroke="midnightblue" points="1256.92,-16.5031 1246.73,-19.379 1256.49,-23.4898 1256.92,-16.5031"/>
</g>
<!-- Node11&#45;&gt;Node7 -->
<g id="edge19" class="edge"><title>Node11&#45;&gt;Node7</title>
<path fill="none" stroke="midnightblue" d="M1775.97,-68.1607C1772.94,-67.7395 1769.94,-67.3497 1767,-67 1488.94,-33.9691 1415.77,-66.3619 1138,-31 1135.48,-30.6787 1132.91,-30.3211 1130.32,-29.9347"/>
<polygon fill="midnightblue" stroke="midnightblue" points="1130.7,-26.4508 1120.27,-28.3169 1129.59,-33.3619 1130.7,-26.4508"/>
</g>
<!-- Node12&#45;&gt;Node6 -->
<g id="edge21" class="edge"><title>Node12&#45;&gt;Node6</title>
<path fill="none" stroke="midnightblue" d="M478.032,-68.1564C481.057,-67.7364 484.056,-67.348 487,-67 770.806,-33.4525 845.744,-68.9119 1129,-31 1136.49,-29.9979 1144.38,-28.6193 1152.03,-27.1081"/>
<polygon fill="midnightblue" stroke="midnightblue" points="1152.8,-30.5211 1161.89,-25.0657 1151.38,-23.6666 1152.8,-30.5211"/>
</g>
<!-- Node12&#45;&gt;Node7 -->
<g id="edge22" class="edge"><title>Node12&#45;&gt;Node7</title>
<path fill="none" stroke="midnightblue" d="M478.046,-68.2721C481.068,-67.8205 484.062,-67.3937 487,-67 672.213,-42.1777 892.524,-26.8115 999.8,-20.2316"/>
<polygon fill="midnightblue" stroke="midnightblue" points="1000.06,-23.7226 1009.82,-19.6222 999.63,-16.7355 1000.06,-23.7226"/>
</g>
<!-- Node13&#45;&gt;Node6 -->
<g id="edge24" class="edge"><title>Node13&#45;&gt;Node6</title>
<path fill="none" stroke="midnightblue" d="M638.04,-68.2253C641.063,-67.7865 644.06,-67.3752 647,-67 860.091,-39.8069 916.353,-61.4698 1129,-31 1136.31,-29.9524 1144.01,-28.5772 1151.5,-27.0909"/>
<polygon fill="midnightblue" stroke="midnightblue" points="1152.44,-30.4711 1161.52,-25.0156 1151.02,-23.6166 1152.44,-30.4711"/>
</g>
<!-- Node13&#45;&gt;Node7 -->
<g id="edge25" class="edge"><title>Node13&#45;&gt;Node7</title>
<path fill="none" stroke="midnightblue" d="M638.064,-68.3948C641.081,-67.9096 644.069,-67.4423 647,-67 771.372,-48.2326 917.401,-31.8787 999.781,-23.1729"/>
<polygon fill="midnightblue" stroke="midnightblue" points="1000.17,-26.6512 1009.75,-22.1239 999.439,-19.6897 1000.17,-26.6512"/>
</g>
<!-- Node14&#45;&gt;Node6 -->
<g id="edge27" class="edge"><title>Node14&#45;&gt;Node6</title>
<path fill="none" stroke="midnightblue" d="M798.059,-68.3618C801.077,-67.8856 804.067,-67.4292 807,-67 949.485,-46.1469 986.853,-54.0437 1129,-31 1135.8,-29.8969 1142.96,-28.5643 1149.96,-27.1596"/>
<polygon fill="midnightblue" stroke="midnightblue" points="1150.99,-30.5225 1160.07,-25.0681 1149.57,-23.6678 1150.99,-30.5225"/>
</g>
<!-- Node14&#45;&gt;Node7 -->
<g id="edge28" class="edge"><title>Node14&#45;&gt;Node7</title>
<path fill="none" stroke="midnightblue" d="M798.268,-67.7946C857.832,-56.34 942.075,-40.1395 999.859,-29.0271"/>
<polygon fill="midnightblue" stroke="midnightblue" points="1000.81,-32.4082 1009.97,-27.0827 999.489,-25.5342 1000.81,-32.4082"/>
</g>
<!-- Node15&#45;&gt;Node6 -->
<g id="edge30" class="edge"><title>Node15&#45;&gt;Node6</title>
<path fill="none" stroke="midnightblue" d="M954.56,-67.484C1003.1,-57.3928 1070.1,-43.4248 1129,-31 1134.83,-29.7709 1140.93,-28.4772 1146.99,-27.1892"/>
<polygon fill="midnightblue" stroke="midnightblue" points="1148.04,-30.5445 1157.09,-25.0398 1146.58,-23.6978 1148.04,-30.5445"/>
</g>
<!-- Node15&#45;&gt;Node7 -->
<g id="edge31" class="edge"><title>Node15&#45;&gt;Node7</title>
<path fill="none" stroke="midnightblue" d="M925.623,-67.396C952.448,-57.6006 988.375,-44.4809 1017.03,-34.0153"/>
<polygon fill="midnightblue" stroke="midnightblue" points="1018.26,-37.2944 1026.45,-30.5765 1015.86,-30.7191 1018.26,-37.2944"/>
</g>
<!-- Node16&#45;&gt;Node6 -->
<g id="edge33" class="edge"><title>Node16&#45;&gt;Node6</title>
<path fill="none" stroke="midnightblue" d="M1079.55,-67.396C1105.87,-55.991 1142.59,-40.0794 1167.93,-29.0976"/>
<polygon fill="midnightblue" stroke="midnightblue" points="1169.58,-32.1946 1177.37,-25.007 1166.8,-25.7717 1169.58,-32.1946"/>
</g>
<!-- Node16&#45;&gt;Node7 -->
<g id="edge34" class="edge"><title>Node16&#45;&gt;Node7</title>
<path fill="none" stroke="midnightblue" d="M1050.91,-67.396C1053.1,-59.4745 1055.9,-49.379 1058.42,-40.2712"/>
<polygon fill="midnightblue" stroke="midnightblue" points="1061.81,-41.1479 1061.1,-30.5765 1055.06,-39.2797 1061.81,-41.1479"/>
</g>
</g>
</svg>
