<?xml version="1.0" encoding="UTF-8" standalone="no"?>
<!DOCTYPE svg PUBLIC "-//W3C//DTD SVG 1.1//EN"
 "http://www.w3.org/Graphics/SVG/1.1/DTD/svg11.dtd">
<!-- Generated by graphviz version 2.38.0 (20140413.2041)
 -->
<!-- Title: include/base/DwarfElephantRBAssembly.h Pages: 1 -->
<svg width="382pt" height="95pt"
 viewBox="0.00 0.00 381.50 95.00" xmlns="http://www.w3.org/2000/svg" xmlns:xlink="http://www.w3.org/1999/xlink">
<g id="graph0" class="graph" transform="scale(1 1) rotate(0) translate(4 91)">
<title>include/base/DwarfElephantRBAssembly.h</title>
<polygon fill="white" stroke="none" points="-4,4 -4,-91 377.5,-91 377.5,4 -4,4"/>
<!-- Node1 -->
<g id="node1" class="node"><title>Node1</title>
<polygon fill="#bfbfbf" stroke="black" points="138,-56.5 138,-86.5 279,-86.5 279,-56.5 138,-56.5"/>
<text text-anchor="start" x="146" y="-74.5" font-family="Helvetica,sans-Serif" font-size="10.00">include/base/DwarfElephant</text>
<text text-anchor="middle" x="208.5" y="-63.5" font-family="Helvetica,sans-Serif" font-size="10.00">RBAssembly.h</text>
</g>
<!-- Node2 -->
<g id="node2" class="node"><title>Node2</title>
<polygon fill="white" stroke="#bfbfbf" points="0,-0.5 0,-19.5 125,-19.5 125,-0.5 0,-0.5"/>
<text text-anchor="middle" x="62.5" y="-7.5" font-family="Helvetica,sans-Serif" font-size="10.00">libmesh/sparse_matrix.h</text>
</g>
<!-- Node1&#45;&gt;Node2 -->
<g id="edge1" class="edge"><title>Node1&#45;&gt;Node2</title>
<path fill="none" stroke="midnightblue" d="M173.9,-56.3993C149.404,-46.4163 116.843,-33.1465 93.2545,-23.5335"/>
<polygon fill="midnightblue" stroke="midnightblue" points="94.3257,-20.1906 83.7443,-19.6578 91.6839,-26.673 94.3257,-20.1906"/>
</g>
<!-- Node3 -->
<g id="node3" class="node"><title>Node3</title>
<polygon fill="white" stroke="#bfbfbf" points="143.5,-0.5 143.5,-19.5 273.5,-19.5 273.5,-0.5 143.5,-0.5"/>
<text text-anchor="middle" x="208.5" y="-7.5" font-family="Helvetica,sans-Serif" font-size="10.00">libmesh/numeric_vector.h</text>
</g>
<!-- Node1&#45;&gt;Node3 -->
<g id="edge2" class="edge"><title>Node1&#45;&gt;Node3</title>
<path fill="none" stroke="midnightblue" d="M208.5,-56.3993C208.5,-48.4664 208.5,-38.458 208.5,-29.8583"/>
<polygon fill="midnightblue" stroke="midnightblue" points="212,-29.6577 208.5,-19.6578 205,-29.6578 212,-29.6577"/>
</g>
<!-- Node4 -->
<g id="node4" class="node"><title>Node4</title>
<polygon fill="white" stroke="#bfbfbf" points="291.5,-0.5 291.5,-19.5 373.5,-19.5 373.5,-0.5 291.5,-0.5"/>
<text text-anchor="middle" x="332.5" y="-7.5" font-family="Helvetica,sans-Serif" font-size="10.00">MooseTypes.h</text>
</g>
<!-- Node1&#45;&gt;Node4 -->
<g id="edge3" class="edge"><title>Node1&#45;&gt;Node4</title>
<path fill="none" stroke="midnightblue" d="M237.886,-56.3993C258.32,-46.5945 285.36,-33.6194 305.299,-24.052"/>
<polygon fill="midnightblue" stroke="midnightblue" points="306.955,-27.1395 314.457,-19.6578 303.927,-20.8284 306.955,-27.1395"/>
</g>
</g>
</svg>
