<?xml version="1.0" encoding="UTF-8" standalone="no"?>
<!DOCTYPE svg PUBLIC "-//W3C//DTD SVG 1.1//EN"
 "http://www.w3.org/Graphics/SVG/1.1/DTD/svg11.dtd">
<!-- Generated by graphviz version 2.38.0 (20140413.2041)
 -->
<!-- Title: include/userobjects/DwarfElephantRBStructuresT1F1O1SteadyState.h Pages: 1 -->
<svg width="339pt" height="184pt"
 viewBox="0.00 0.00 339.30 184.00" xmlns="http://www.w3.org/2000/svg" xmlns:xlink="http://www.w3.org/1999/xlink">
<g id="graph0" class="graph" transform="scale(1 1) rotate(0) translate(4 180)">
<title>include/userobjects/DwarfElephantRBStructuresT1F1O1SteadyState.h</title>
<polygon fill="white" stroke="none" points="-4,4 -4,-180 335.298,-180 335.298,4 -4,4"/>
<!-- Node1 -->
<g id="node1" class="node"><title>Node1</title>
<polygon fill="#bfbfbf" stroke="black" points="93.6492,-134.5 93.6492,-175.5 237.649,-175.5 237.649,-134.5 93.6492,-134.5"/>
<text text-anchor="start" x="101.649" y="-163.5" font-family="Helvetica,sans-Serif" font-size="10.00">include/userobjects</text>
<text text-anchor="start" x="101.649" y="-152.5" font-family="Helvetica,sans-Serif" font-size="10.00">/DwarfElephantRBStructures</text>
<text text-anchor="middle" x="165.649" y="-141.5" font-family="Helvetica,sans-Serif" font-size="10.00">T1F1O1SteadyState.h</text>
</g>
<!-- Node2 -->
<g id="node2" class="node"><title>Node2</title>
<polygon fill="white" stroke="#bfbfbf" points="36.1492,-6 36.1492,-25 135.149,-25 135.149,-6 36.1492,-6"/>
<text text-anchor="middle" x="85.6492" y="-13" font-family="Helvetica,sans-Serif" font-size="10.00">libmesh/rb_theta.h</text>
</g>
<!-- Node1&#45;&gt;Node2 -->
<g id="edge1" class="edge"><title>Node1&#45;&gt;Node2</title>
<path fill="none" stroke="midnightblue" d="M93.3978,-147.327C61.0068,-140.314 25.6587,-126.203 5.64919,-98 -2.32319,-86.7631 -1.00282,-79.0656 5.64919,-67 15.1948,-49.6859 33.4516,-37.4888 50.1168,-29.4248"/>
<polygon fill="midnightblue" stroke="midnightblue" points="51.9717,-32.4291 59.6672,-25.147 49.1101,-26.0407 51.9717,-32.4291"/>
</g>
<!-- Node3 -->
<g id="node3" class="node"><title>Node3</title>
<polygon fill="white" stroke="#bfbfbf" points="190.649,-0.5 190.649,-30.5 300.649,-30.5 300.649,-0.5 190.649,-0.5"/>
<text text-anchor="start" x="198.649" y="-18.5" font-family="Helvetica,sans-Serif" font-size="10.00">libmesh/rb_assembly</text>
<text text-anchor="middle" x="245.649" y="-7.5" font-family="Helvetica,sans-Serif" font-size="10.00">_expansion.h</text>
</g>
<!-- Node1&#45;&gt;Node3 -->
<g id="edge2" class="edge"><title>Node1&#45;&gt;Node3</title>
<path fill="none" stroke="midnightblue" d="M237.901,-147.327C270.292,-140.314 305.64,-126.203 325.649,-98 333.622,-86.7631 332.301,-79.0656 325.649,-67 318.24,-53.5604 305.582,-43.204 292.493,-35.4704"/>
<polygon fill="midnightblue" stroke="midnightblue" points="293.879,-32.2395 283.423,-30.5298 290.53,-38.3868 293.879,-32.2395"/>
</g>
<!-- Node4 -->
<g id="node4" class="node"><title>Node4</title>
<g id="a_node4"><a xlink:href="_dwarf_elephant_r_b_structures_a00_theta_constant_8h.html" target="_top" xlink:title="DwarfElephantRBStructures\lA00ThetaConstant.h">
<polygon fill="white" stroke="black" points="14.6492,-67.5 14.6492,-97.5 156.649,-97.5 156.649,-67.5 14.6492,-67.5"/>
<text text-anchor="start" x="22.6492" y="-85.5" font-family="Helvetica,sans-Serif" font-size="10.00">DwarfElephantRBStructures</text>
<text text-anchor="middle" x="85.6492" y="-74.5" font-family="Helvetica,sans-Serif" font-size="10.00">A00ThetaConstant.h</text>
</a>
</g>
</g>
<!-- Node1&#45;&gt;Node4 -->
<g id="edge3" class="edge"><title>Node1&#45;&gt;Node4</title>
<path fill="none" stroke="midnightblue" d="M143.365,-134.362C132.828,-125.076 120.236,-113.979 109.506,-104.524"/>
<polygon fill="midnightblue" stroke="midnightblue" points="111.545,-101.656 101.729,-97.67 106.917,-106.907 111.545,-101.656"/>
</g>
<!-- Node5 -->
<g id="node5" class="node"><title>Node5</title>
<g id="a_node5"><a xlink:href="_dwarf_elephant_r_b_structures_a0_theta_equal_mu0_8h.html" target="_top" xlink:title="DwarfElephantRBStructures\lA0ThetaEqualMu0.h">
<polygon fill="white" stroke="black" points="174.649,-67.5 174.649,-97.5 316.649,-97.5 316.649,-67.5 174.649,-67.5"/>
<text text-anchor="start" x="182.649" y="-85.5" font-family="Helvetica,sans-Serif" font-size="10.00">DwarfElephantRBStructures</text>
<text text-anchor="middle" x="245.649" y="-74.5" font-family="Helvetica,sans-Serif" font-size="10.00">A0ThetaEqualMu0.h</text>
</a>
</g>
</g>
<!-- Node1&#45;&gt;Node5 -->
<g id="edge6" class="edge"><title>Node1&#45;&gt;Node5</title>
<path fill="none" stroke="midnightblue" d="M187.934,-134.362C198.47,-125.076 211.063,-113.979 221.792,-104.524"/>
<polygon fill="midnightblue" stroke="midnightblue" points="224.381,-106.907 229.57,-97.67 219.753,-101.656 224.381,-106.907"/>
</g>
<!-- Node4&#45;&gt;Node2 -->
<g id="edge4" class="edge"><title>Node4&#45;&gt;Node2</title>
<path fill="none" stroke="midnightblue" d="M85.6492,-67.396C85.6492,-58.0638 85.6492,-45.7143 85.6492,-35.5173"/>
<polygon fill="midnightblue" stroke="midnightblue" points="89.1493,-35.1945 85.6492,-25.1945 82.1493,-35.1946 89.1493,-35.1945"/>
</g>
<!-- Node4&#45;&gt;Node3 -->
<g id="edge5" class="edge"><title>Node4&#45;&gt;Node3</title>
<path fill="none" stroke="midnightblue" d="M120.367,-67.396C144.164,-57.7284 175.932,-44.8226 201.523,-34.4262"/>
<polygon fill="midnightblue" stroke="midnightblue" points="203.052,-37.583 210.999,-30.5765 200.417,-31.0977 203.052,-37.583"/>
</g>
<!-- Node5&#45;&gt;Node2 -->
<g id="edge7" class="edge"><title>Node5&#45;&gt;Node2</title>
<path fill="none" stroke="midnightblue" d="M210.932,-67.396C182.609,-55.8901 142.997,-39.7974 115.944,-28.8072"/>
<polygon fill="midnightblue" stroke="midnightblue" points="117.172,-25.5282 106.59,-25.007 114.537,-32.0135 117.172,-25.5282"/>
</g>
<!-- Node5&#45;&gt;Node3 -->
<g id="edge8" class="edge"><title>Node5&#45;&gt;Node3</title>
<path fill="none" stroke="midnightblue" d="M245.649,-67.396C245.649,-59.6448 245.649,-49.8122 245.649,-40.8601"/>
<polygon fill="midnightblue" stroke="midnightblue" points="249.149,-40.5765 245.649,-30.5765 242.149,-40.5765 249.149,-40.5765"/>
</g>
</g>
</svg>
