<?xml version="1.0" encoding="UTF-8" standalone="no"?>
<!DOCTYPE svg PUBLIC "-//W3C//DTD SVG 1.1//EN"
 "http://www.w3.org/Graphics/SVG/1.1/DTD/svg11.dtd">
<!-- Generated by graphviz version 2.38.0 (20140413.2041)
 -->
<!-- Title: include/userobjects/DwarfElephantRBStructuresT2F2O10SteadyState.h Pages: 1 -->
<!--zoomable 184 -->
<svg id="main" version="1.1" xmlns="http://www.w3.org/2000/svg" xmlns:xlink="http://www.w3.org/1999/xlink" xml:space="preserve" onload="init(evt)">
<style type="text/css"><![CDATA[
.edge:hover path { stroke: red; }
.edge:hover polygon { stroke: red; fill: red; }
]]></style>
<script type="text/javascript"><![CDATA[
var edges = document.getElementsByTagName('g');
if (edges && edges.length) {
  for (var i=0;i<edges.length;i++) {
    if (edges[i].id.substr(0,4)=='edge') {
      edges[i].setAttribute('class','edge');
    }
  }
}
]]></script>
        <defs>
                <circle id="rim" cx="0" cy="0" r="7"/>
                <circle id="rim2" cx="0" cy="0" r="3.5"/>
                <g id="zoomPlus">
                        <use xlink:href="#rim" fill="#404040">
                                <set attributeName="fill" to="#808080" begin="zoomplus.mouseover" end="zoomplus.mouseout"/>
                        </use>
                        <path d="M-4,0h8M0,-4v8" fill="none" stroke="white" stroke-width="1.5" pointer-events="none"/>
                </g>
                <g id="zoomMin">
                        <use xlink:href="#rim" fill="#404040">
                                <set attributeName="fill" to="#808080" begin="zoomminus.mouseover" end="zoomminus.mouseout"/>
                        </use>
                        <path d="M-4,0h8" fill="none" stroke="white" stroke-width="1.5" pointer-events="none"/>
                </g>
                <g id="dirArrow">
                        <path fill="none" stroke="white" stroke-width="1.5" d="M0,-3.0v7 M-2.5,-0.5L0,-3.0L2.5,-0.5"/>
                </g>
               <g id="resetDef">
                       <use xlink:href="#rim2" fill="#404040">
                               <set attributeName="fill" to="#808080" begin="reset.mouseover" end="reset.mouseout"/>
                       </use>
               </g>
        </defs>

<script type="text/javascript">
var viewWidth = 1954;
var viewHeight = 184;
var sectionId = 'dynsection-0';
</script>
<script xlink:href="svgpan.js"/>
<svg id="graph" class="graph">
<g id="viewport">
<title>include/userobjects/DwarfElephantRBStructuresT2F2O10SteadyState.h</title>
<polygon fill="white" stroke="none" points="-4,4 -4,-180 1950.19,-180 1950.19,4 -4,4"/>
<!-- Node1 -->
<g id="node1" class="node"><title>Node1</title>
<polygon fill="#bfbfbf" stroke="black" points="895.093,-134.5 895.093,-175.5 1039.09,-175.5 1039.09,-134.5 895.093,-134.5"/>
<text text-anchor="start" x="903.093" y="-163.5" font-family="Helvetica,sans-Serif" font-size="10.00">include/userobjects</text>
<text text-anchor="start" x="903.093" y="-152.5" font-family="Helvetica,sans-Serif" font-size="10.00">/DwarfElephantRBStructures</text>
<text text-anchor="middle" x="967.093" y="-141.5" font-family="Helvetica,sans-Serif" font-size="10.00">T2F2O10SteadyState.h</text>
</g>
<!-- Node2 -->
<g id="node2" class="node"><title>Node2</title>
<polygon fill="white" stroke="#bfbfbf" points="837.593,-6 837.593,-25 936.593,-25 936.593,-6 837.593,-6"/>
<text text-anchor="middle" x="887.093" y="-13" font-family="Helvetica,sans-Serif" font-size="10.00">libmesh/rb_theta.h</text>
</g>
<!-- Node1&#45;&gt;Node2 -->
<g id="edge1" class="edge"><title>Node1&#45;&gt;Node2</title>
<path fill="none" stroke="midnightblue" d="M894.84,-152.467C676.641,-147.487 37.4699,-130.201 7.0929,-98 -2.36154,-87.978 -2.36627,-77.0176 7.0929,-67 35.2535,-37.177 633.647,-21.8836 827.244,-17.7032"/>
<polygon fill="midnightblue" stroke="midnightblue" points="827.589,-21.1967 837.512,-17.4837 827.44,-14.1983 827.589,-21.1967"/>
</g>
<!-- Node3 -->
<g id="node3" class="node"><title>Node3</title>
<polygon fill="white" stroke="#bfbfbf" points="992.093,-0.5 992.093,-30.5 1102.09,-30.5 1102.09,-0.5 992.093,-0.5"/>
<text text-anchor="start" x="1000.09" y="-18.5" font-family="Helvetica,sans-Serif" font-size="10.00">libmesh/rb_assembly</text>
<text text-anchor="middle" x="1047.09" y="-7.5" font-family="Helvetica,sans-Serif" font-size="10.00">_expansion.h</text>
</g>
<!-- Node1&#45;&gt;Node3 -->
<g id="edge2" class="edge"><title>Node1&#45;&gt;Node3</title>
<path fill="none" stroke="midnightblue" d="M1039.47,-152.518C1259.65,-147.661 1908.29,-130.629 1939.09,-98 1948.55,-87.9814 1948.56,-77.0139 1939.09,-67 1910.75,-37.0123 1313.18,-21.9848 1112.3,-17.767"/>
<polygon fill="midnightblue" stroke="midnightblue" points="1112.26,-14.2655 1102.19,-17.5568 1112.11,-21.264 1112.26,-14.2655"/>
</g>
<!-- Node4 -->
<g id="node4" class="node"><title>Node4</title>
<g id="a_node4"><a xlink:href="_dwarf_elephant_r_b_structures_a00_theta_constant_8h.html" target="_top" xlink:title="DwarfElephantRBStructures\lA00ThetaConstant.h">
<polygon fill="white" stroke="black" points="16.0929,-67.5 16.0929,-97.5 158.093,-97.5 158.093,-67.5 16.0929,-67.5"/>
<text text-anchor="start" x="24.0929" y="-85.5" font-family="Helvetica,sans-Serif" font-size="10.00">DwarfElephantRBStructures</text>
<text text-anchor="middle" x="87.0929" y="-74.5" font-family="Helvetica,sans-Serif" font-size="10.00">A00ThetaConstant.h</text>
</a>
</g>
</g>
<!-- Node1&#45;&gt;Node4 -->
<g id="edge3" class="edge"><title>Node1&#45;&gt;Node4</title>
<path fill="none" stroke="midnightblue" d="M894.853,-151.593C755.981,-146.387 442.026,-131.82 168.261,-98.0527"/>
<polygon fill="midnightblue" stroke="midnightblue" points="168.487,-94.5538 158.131,-96.7921 167.622,-101.5 168.487,-94.5538"/>
</g>
<!-- Node5 -->
<g id="node5" class="node"><title>Node5</title>
<g id="a_node5"><a xlink:href="_dwarf_elephant_r_b_structures_a0_theta_equal_mu0_8h.html" target="_top" xlink:title="DwarfElephantRBStructures\lA0ThetaEqualMu0.h">
<polygon fill="white" stroke="black" points="176.093,-67.5 176.093,-97.5 318.093,-97.5 318.093,-67.5 176.093,-67.5"/>
<text text-anchor="start" x="184.093" y="-85.5" font-family="Helvetica,sans-Serif" font-size="10.00">DwarfElephantRBStructures</text>
<text text-anchor="middle" x="247.093" y="-74.5" font-family="Helvetica,sans-Serif" font-size="10.00">A0ThetaEqualMu0.h</text>
</a>
</g>
</g>
<!-- Node1&#45;&gt;Node5 -->
<g id="edge6" class="edge"><title>Node1&#45;&gt;Node5</title>
<path fill="none" stroke="midnightblue" d="M894.87,-149.854C777.932,-142.662 539.748,-126.027 328.193,-98.0674"/>
<polygon fill="midnightblue" stroke="midnightblue" points="328.514,-94.5794 318.139,-96.7274 327.589,-101.518 328.514,-94.5794"/>
</g>
<!-- Node6 -->
<g id="node6" class="node"><title>Node6</title>
<g id="a_node6"><a xlink:href="_dwarf_elephant_r_b_structures_a0_theta_norm_mu0_8h.html" target="_top" xlink:title="DwarfElephantRBStructures\lA0ThetaNormMu0.h">
<polygon fill="white" stroke="black" points="336.093,-67.5 336.093,-97.5 478.093,-97.5 478.093,-67.5 336.093,-67.5"/>
<text text-anchor="start" x="344.093" y="-85.5" font-family="Helvetica,sans-Serif" font-size="10.00">DwarfElephantRBStructures</text>
<text text-anchor="middle" x="407.093" y="-74.5" font-family="Helvetica,sans-Serif" font-size="10.00">A0ThetaNormMu0.h</text>
</a>
</g>
</g>
<!-- Node1&#45;&gt;Node6 -->
<g id="edge9" class="edge"><title>Node1&#45;&gt;Node6</title>
<path fill="none" stroke="midnightblue" d="M894.937,-147.017C802.968,-137.795 638.859,-120.266 488.496,-98.1519"/>
<polygon fill="midnightblue" stroke="midnightblue" points="488.559,-94.6231 478.154,-96.6204 487.534,-101.548 488.559,-94.6231"/>
</g>
<!-- Node7 -->
<g id="node7" class="node"><title>Node7</title>
<g id="a_node7"><a xlink:href="_dwarf_elephant_r_b_structures_a0_theta_norm_mu1_8h.html" target="_top" xlink:title="DwarfElephantRBStructures\lA0ThetaNormMu1.h">
<polygon fill="white" stroke="black" points="496.093,-67.5 496.093,-97.5 638.093,-97.5 638.093,-67.5 496.093,-67.5"/>
<text text-anchor="start" x="504.093" y="-85.5" font-family="Helvetica,sans-Serif" font-size="10.00">DwarfElephantRBStructures</text>
<text text-anchor="middle" x="567.093" y="-74.5" font-family="Helvetica,sans-Serif" font-size="10.00">A0ThetaNormMu1.h</text>
</a>
</g>
</g>
<!-- Node1&#45;&gt;Node7 -->
<g id="edge12" class="edge"><title>Node1&#45;&gt;Node7</title>
<path fill="none" stroke="midnightblue" d="M894.947,-141.503C832.356,-130.631 739.028,-114.351 648.115,-98.1766"/>
<polygon fill="midnightblue" stroke="midnightblue" points="648.648,-94.7163 638.189,-96.4092 647.421,-101.608 648.648,-94.7163"/>
</g>
<!-- Node8 -->
<g id="node8" class="node"><title>Node8</title>
<g id="a_node8"><a xlink:href="_dwarf_elephant_r_b_structures_a1_theta_equal_mu1_8h.html" target="_top" xlink:title="DwarfElephantRBStructures\lA1ThetaEqualMu1.h">
<polygon fill="white" stroke="black" points="656.093,-67.5 656.093,-97.5 798.093,-97.5 798.093,-67.5 656.093,-67.5"/>
<text text-anchor="start" x="664.093" y="-85.5" font-family="Helvetica,sans-Serif" font-size="10.00">DwarfElephantRBStructures</text>
<text text-anchor="middle" x="727.093" y="-74.5" font-family="Helvetica,sans-Serif" font-size="10.00">A1ThetaEqualMu1.h</text>
</a>
</g>
</g>
<!-- Node1&#45;&gt;Node8 -->
<g id="edge15" class="edge"><title>Node1&#45;&gt;Node8</title>
<path fill="none" stroke="midnightblue" d="M900.558,-134.455C864.321,-123.811 819.908,-110.765 785.094,-100.538"/>
<polygon fill="midnightblue" stroke="midnightblue" points="785.663,-97.0572 775.082,-97.5968 783.69,-103.773 785.663,-97.0572"/>
</g>
<!-- Node9 -->
<g id="node9" class="node"><title>Node9</title>
<g id="a_node9"><a xlink:href="_dwarf_elephant_r_b_structures_a1_theta_norm_mu0_8h.html" target="_top" xlink:title="DwarfElephantRBStructures\lA1ThetaNormMu0.h">
<polygon fill="white" stroke="black" points="816.093,-67.5 816.093,-97.5 958.093,-97.5 958.093,-67.5 816.093,-67.5"/>
<text text-anchor="start" x="824.093" y="-85.5" font-family="Helvetica,sans-Serif" font-size="10.00">DwarfElephantRBStructures</text>
<text text-anchor="middle" x="887.093" y="-74.5" font-family="Helvetica,sans-Serif" font-size="10.00">A1ThetaNormMu0.h</text>
</a>
</g>
</g>
<!-- Node1&#45;&gt;Node9 -->
<g id="edge18" class="edge"><title>Node1&#45;&gt;Node9</title>
<path fill="none" stroke="midnightblue" d="M944.808,-134.362C934.272,-125.076 921.68,-113.979 910.95,-104.524"/>
<polygon fill="midnightblue" stroke="midnightblue" points="912.989,-101.656 903.172,-97.67 908.361,-106.907 912.989,-101.656"/>
</g>
<!-- Node10 -->
<g id="node10" class="node"><title>Node10</title>
<g id="a_node10"><a xlink:href="_dwarf_elephant_r_b_structures_a1_theta_norm_mu1_8h.html" target="_top" xlink:title="DwarfElephantRBStructures\lA1ThetaNormMu1.h">
<polygon fill="white" stroke="black" points="976.093,-67.5 976.093,-97.5 1118.09,-97.5 1118.09,-67.5 976.093,-67.5"/>
<text text-anchor="start" x="984.093" y="-85.5" font-family="Helvetica,sans-Serif" font-size="10.00">DwarfElephantRBStructures</text>
<text text-anchor="middle" x="1047.09" y="-74.5" font-family="Helvetica,sans-Serif" font-size="10.00">A1ThetaNormMu1.h</text>
</a>
</g>
</g>
<!-- Node1&#45;&gt;Node10 -->
<g id="edge21" class="edge"><title>Node1&#45;&gt;Node10</title>
<path fill="none" stroke="midnightblue" d="M989.377,-134.362C999.914,-125.076 1012.51,-113.979 1023.24,-104.524"/>
<polygon fill="midnightblue" stroke="midnightblue" points="1025.83,-106.907 1031.01,-97.67 1021.2,-101.656 1025.83,-106.907"/>
</g>
<!-- Node11 -->
<g id="node11" class="node"><title>Node11</title>
<g id="a_node11"><a xlink:href="_dwarf_elephant_r_b_structures_a2_theta_equal_mu2_8h.html" target="_top" xlink:title="DwarfElephantRBStructures\lA2ThetaEqualMu2.h">
<polygon fill="white" stroke="black" points="1136.09,-67.5 1136.09,-97.5 1278.09,-97.5 1278.09,-67.5 1136.09,-67.5"/>
<text text-anchor="start" x="1144.09" y="-85.5" font-family="Helvetica,sans-Serif" font-size="10.00">DwarfElephantRBStructures</text>
<text text-anchor="middle" x="1207.09" y="-74.5" font-family="Helvetica,sans-Serif" font-size="10.00">A2ThetaEqualMu2.h</text>
</a>
</g>
</g>
<!-- Node1&#45;&gt;Node11 -->
<g id="edge24" class="edge"><title>Node1&#45;&gt;Node11</title>
<path fill="none" stroke="midnightblue" d="M1033.63,-134.455C1069.86,-123.811 1114.28,-110.765 1149.09,-100.538"/>
<polygon fill="midnightblue" stroke="midnightblue" points="1150.5,-103.773 1159.1,-97.5968 1148.52,-97.0572 1150.5,-103.773"/>
</g>
<!-- Node12 -->
<g id="node12" class="node"><title>Node12</title>
<g id="a_node12"><a xlink:href="_dwarf_elephant_r_b_structures_a2_theta_equal_mu2_times_mu0_8h.html" target="_top" xlink:title="DwarfElephantRBStructures\lA2ThetaEqualMu2TimesMu0.h">
<polygon fill="white" stroke="black" points="1296.09,-67.5 1296.09,-97.5 1450.09,-97.5 1450.09,-67.5 1296.09,-67.5"/>
<text text-anchor="start" x="1304.09" y="-85.5" font-family="Helvetica,sans-Serif" font-size="10.00">DwarfElephantRBStructures</text>
<text text-anchor="middle" x="1373.09" y="-74.5" font-family="Helvetica,sans-Serif" font-size="10.00">A2ThetaEqualMu2TimesMu0.h</text>
</a>
</g>
</g>
<!-- Node1&#45;&gt;Node12 -->
<g id="edge27" class="edge"><title>Node1&#45;&gt;Node12</title>
<path fill="none" stroke="midnightblue" d="M1039.21,-141.477C1108.09,-129.517 1212.02,-111.47 1285.6,-98.6928"/>
<polygon fill="midnightblue" stroke="midnightblue" points="1286.52,-102.085 1295.77,-96.926 1285.32,-95.1886 1286.52,-102.085"/>
</g>
<!-- Node13 -->
<g id="node13" class="node"><title>Node13</title>
<g id="a_node13"><a xlink:href="_dwarf_elephant_r_b_structures_a2_theta_norm_mu0_8h.html" target="_top" xlink:title="DwarfElephantRBStructures\lA2ThetaNormMu0.h">
<polygon fill="white" stroke="black" points="1468.09,-67.5 1468.09,-97.5 1610.09,-97.5 1610.09,-67.5 1468.09,-67.5"/>
<text text-anchor="start" x="1476.09" y="-85.5" font-family="Helvetica,sans-Serif" font-size="10.00">DwarfElephantRBStructures</text>
<text text-anchor="middle" x="1539.09" y="-74.5" font-family="Helvetica,sans-Serif" font-size="10.00">A2ThetaNormMu0.h</text>
</a>
</g>
</g>
<!-- Node1&#45;&gt;Node13 -->
<g id="edge30" class="edge"><title>Node1&#45;&gt;Node13</title>
<path fill="none" stroke="midnightblue" d="M1039.4,-147.277C1133.43,-138.197 1302.99,-120.676 1457.85,-98.1235"/>
<polygon fill="midnightblue" stroke="midnightblue" points="1458.65,-101.545 1468.03,-96.6308 1457.63,-94.6189 1458.65,-101.545"/>
</g>
<!-- Node14 -->
<g id="node14" class="node"><title>Node14</title>
<g id="a_node14"><a xlink:href="_dwarf_elephant_r_b_structures_a2_theta_norm_mu1_8h.html" target="_top" xlink:title="DwarfElephantRBStructures\lA2ThetaNormMu1.h">
<polygon fill="white" stroke="black" points="1628.09,-67.5 1628.09,-97.5 1770.09,-97.5 1770.09,-67.5 1628.09,-67.5"/>
<text text-anchor="start" x="1636.09" y="-85.5" font-family="Helvetica,sans-Serif" font-size="10.00">DwarfElephantRBStructures</text>
<text text-anchor="middle" x="1699.09" y="-74.5" font-family="Helvetica,sans-Serif" font-size="10.00">A2ThetaNormMu1.h</text>
</a>
</g>
</g>
<!-- Node1&#45;&gt;Node14 -->
<g id="edge33" class="edge"><title>Node1&#45;&gt;Node14</title>
<path fill="none" stroke="midnightblue" d="M1039.21,-150.019C1157.86,-142.982 1401.82,-126.463 1618.1,-98.0518"/>
<polygon fill="midnightblue" stroke="midnightblue" points="1618.59,-101.516 1628.05,-96.7334 1617.67,-94.5771 1618.59,-101.516"/>
</g>
<!-- Node15 -->
<g id="node15" class="node"><title>Node15</title>
<g id="a_node15"><a xlink:href="_dwarf_elephant_r_b_structures_a3_theta_equal_mu3_8h.html" target="_top" xlink:title="DwarfElephantRBStructures\lA3ThetaEqualMu3.h">
<polygon fill="white" stroke="black" points="1788.09,-67.5 1788.09,-97.5 1930.09,-97.5 1930.09,-67.5 1788.09,-67.5"/>
<text text-anchor="start" x="1796.09" y="-85.5" font-family="Helvetica,sans-Serif" font-size="10.00">DwarfElephantRBStructures</text>
<text text-anchor="middle" x="1859.09" y="-74.5" font-family="Helvetica,sans-Serif" font-size="10.00">A3ThetaEqualMu3.h</text>
</a>
</g>
</g>
<!-- Node1&#45;&gt;Node15 -->
<g id="edge36" class="edge"><title>Node1&#45;&gt;Node15</title>
<path fill="none" stroke="midnightblue" d="M1039.31,-151.697C1179.7,-146.637 1499.31,-132.262 1777.75,-98.0725"/>
<polygon fill="midnightblue" stroke="midnightblue" points="1778.56,-101.499 1788.06,-96.7959 1777.7,-94.5522 1778.56,-101.499"/>
</g>
<!-- Node4&#45;&gt;Node2 -->
<g id="edge4" class="edge"><title>Node4&#45;&gt;Node2</title>
<path fill="none" stroke="midnightblue" d="M158.131,-68.2085C161.155,-67.7742 164.152,-67.3686 167.093,-67 411.079,-36.4252 704.073,-23.0511 827.581,-18.4729"/>
<polygon fill="midnightblue" stroke="midnightblue" points="827.725,-21.97 837.591,-18.1074 827.47,-14.9747 827.725,-21.97"/>
</g>
<!-- Node4&#45;&gt;Node3 -->
<g id="edge5" class="edge"><title>Node4&#45;&gt;Node3</title>
<path fill="none" stroke="midnightblue" d="M158.12,-68.12C161.147,-67.71 164.148,-67.3336 167.093,-67 511.042,-28.0471 600.464,-63.3953 945.093,-31 956.988,-29.8819 969.62,-28.36 981.794,-26.7213"/>
<polygon fill="midnightblue" stroke="midnightblue" points="982.462,-30.1624 991.887,-25.3236 981.502,-23.2285 982.462,-30.1624"/>
</g>
<!-- Node5&#45;&gt;Node2 -->
<g id="edge7" class="edge"><title>Node5&#45;&gt;Node2</title>
<path fill="none" stroke="midnightblue" d="M318.141,-68.2824C321.162,-67.828 324.156,-67.3978 327.093,-67 508.525,-42.4271 724.7,-26.7537 827.32,-20.1295"/>
<polygon fill="midnightblue" stroke="midnightblue" points="827.729,-23.6105 837.485,-19.479 827.282,-16.6248 827.729,-23.6105"/>
</g>
<!-- Node5&#45;&gt;Node3 -->
<g id="edge8" class="edge"><title>Node5&#45;&gt;Node3</title>
<path fill="none" stroke="midnightblue" d="M318.126,-68.1644C321.151,-67.7423 324.15,-67.3512 327.093,-67 600.288,-34.4061 671.327,-58.3849 945.093,-31 956.981,-29.8108 969.61,-28.255 981.783,-26.6049"/>
<polygon fill="midnightblue" stroke="midnightblue" points="982.452,-30.0456 991.876,-25.2026 981.489,-23.1122 982.452,-30.0456"/>
</g>
<!-- Node6&#45;&gt;Node2 -->
<g id="edge10" class="edge"><title>Node6&#45;&gt;Node2</title>
<path fill="none" stroke="midnightblue" d="M478.16,-68.4146C481.176,-67.924 484.163,-67.4501 487.093,-67 607.432,-48.5116 748.905,-31.8335 827.237,-23.041"/>
<polygon fill="midnightblue" stroke="midnightblue" points="827.849,-26.4944 837.398,-21.9049 827.071,-19.5378 827.849,-26.4944"/>
</g>
<!-- Node6&#45;&gt;Node3 -->
<g id="edge11" class="edge"><title>Node6&#45;&gt;Node3</title>
<path fill="none" stroke="midnightblue" d="M478.135,-68.2397C481.158,-67.797 484.153,-67.3809 487.093,-67 689.583,-40.7592 742.14,-53.3796 945.093,-31 956.968,-29.6905 969.591,-28.0772 981.762,-26.4077"/>
<polygon fill="midnightblue" stroke="midnightblue" points="982.435,-29.8479 991.854,-24.9976 981.466,-22.9152 982.435,-29.8479"/>
</g>
<!-- Node7&#45;&gt;Node2 -->
<g id="edge13" class="edge"><title>Node7&#45;&gt;Node2</title>
<path fill="none" stroke="midnightblue" d="M636.134,-67.476C695.857,-55.3449 780.897,-38.0709 835.038,-27.0737"/>
<polygon fill="midnightblue" stroke="midnightblue" points="836.003,-30.4493 845.106,-25.0287 834.609,-23.5894 836.003,-30.4493"/>
</g>
<!-- Node7&#45;&gt;Node3 -->
<g id="edge14" class="edge"><title>Node7&#45;&gt;Node3</title>
<path fill="none" stroke="midnightblue" d="M638.157,-68.3948C641.173,-67.9095 644.162,-67.4423 647.093,-67 779.007,-47.0951 812.824,-48.389 945.093,-31 957.008,-29.4336 969.694,-27.6906 981.927,-25.9717"/>
<polygon fill="midnightblue" stroke="midnightblue" points="982.657,-29.4034 992.068,-24.5378 981.677,-22.4723 982.657,-29.4034"/>
</g>
<!-- Node8&#45;&gt;Node2 -->
<g id="edge16" class="edge"><title>Node8&#45;&gt;Node2</title>
<path fill="none" stroke="midnightblue" d="M761.811,-67.396C790.133,-55.8901 829.745,-39.7974 856.798,-28.8072"/>
<polygon fill="midnightblue" stroke="midnightblue" points="858.205,-32.0135 866.153,-25.007 855.571,-25.5282 858.205,-32.0135"/>
</g>
<!-- Node8&#45;&gt;Node3 -->
<g id="edge17" class="edge"><title>Node8&#45;&gt;Node3</title>
<path fill="none" stroke="midnightblue" d="M796.134,-67.476C851.311,-56.2683 928.098,-40.6709 982.162,-29.689"/>
<polygon fill="midnightblue" stroke="midnightblue" points="982.88,-33.1149 991.983,-27.6943 981.486,-26.255 982.88,-33.1149"/>
</g>
<!-- Node9&#45;&gt;Node2 -->
<g id="edge19" class="edge"><title>Node9&#45;&gt;Node2</title>
<path fill="none" stroke="midnightblue" d="M887.093,-67.396C887.093,-58.0638 887.093,-45.7143 887.093,-35.5173"/>
<polygon fill="midnightblue" stroke="midnightblue" points="890.593,-35.1945 887.093,-25.1945 883.593,-35.1946 890.593,-35.1945"/>
</g>
<!-- Node9&#45;&gt;Node3 -->
<g id="edge20" class="edge"><title>Node9&#45;&gt;Node3</title>
<path fill="none" stroke="midnightblue" d="M921.811,-67.396C945.608,-57.7284 977.376,-44.8226 1002.97,-34.4262"/>
<polygon fill="midnightblue" stroke="midnightblue" points="1004.5,-37.583 1012.44,-30.5765 1001.86,-31.0977 1004.5,-37.583"/>
</g>
<!-- Node10&#45;&gt;Node2 -->
<g id="edge22" class="edge"><title>Node10&#45;&gt;Node2</title>
<path fill="none" stroke="midnightblue" d="M1012.38,-67.396C984.053,-55.8901 944.44,-39.7974 917.388,-28.8072"/>
<polygon fill="midnightblue" stroke="midnightblue" points="918.615,-25.5282 908.033,-25.007 915.981,-32.0135 918.615,-25.5282"/>
</g>
<!-- Node10&#45;&gt;Node3 -->
<g id="edge23" class="edge"><title>Node10&#45;&gt;Node3</title>
<path fill="none" stroke="midnightblue" d="M1047.09,-67.396C1047.09,-59.6448 1047.09,-49.8122 1047.09,-40.8601"/>
<polygon fill="midnightblue" stroke="midnightblue" points="1050.59,-40.5765 1047.09,-30.5765 1043.59,-40.5765 1050.59,-40.5765"/>
</g>
<!-- Node11&#45;&gt;Node2 -->
<g id="edge25" class="edge"><title>Node11&#45;&gt;Node2</title>
<path fill="none" stroke="midnightblue" d="M1138.05,-67.476C1078.33,-55.3449 993.288,-38.0709 939.148,-27.0737"/>
<polygon fill="midnightblue" stroke="midnightblue" points="939.577,-23.5894 929.08,-25.0287 938.183,-30.4493 939.577,-23.5894"/>
</g>
<!-- Node11&#45;&gt;Node3 -->
<g id="edge26" class="edge"><title>Node11&#45;&gt;Node3</title>
<path fill="none" stroke="midnightblue" d="M1172.38,-67.396C1148.58,-57.7284 1116.81,-44.8226 1091.22,-34.4262"/>
<polygon fill="midnightblue" stroke="midnightblue" points="1092.32,-31.0977 1081.74,-30.5765 1089.69,-37.583 1092.32,-31.0977"/>
</g>
<!-- Node12&#45;&gt;Node2 -->
<g id="edge28" class="edge"><title>Node12&#45;&gt;Node2</title>
<path fill="none" stroke="midnightblue" d="M1295.77,-68.2779C1292.84,-67.8361 1289.94,-67.4084 1287.09,-67 1152.42,-47.684 1117.93,-49.1621 983.093,-31 971.347,-29.4179 958.812,-27.6111 946.806,-25.8222"/>
<polygon fill="midnightblue" stroke="midnightblue" points="947.285,-22.3549 936.875,-24.3292 946.244,-29.2771 947.285,-22.3549"/>
</g>
<!-- Node12&#45;&gt;Node3 -->
<g id="edge29" class="edge"><title>Node12&#45;&gt;Node3</title>
<path fill="none" stroke="midnightblue" d="M1302.76,-67.476C1246.19,-56.198 1167.34,-40.4751 1112.21,-29.483"/>
<polygon fill="midnightblue" stroke="midnightblue" points="1112.69,-26.0107 1102.2,-27.4877 1111.32,-32.8756 1112.69,-26.0107"/>
</g>
<!-- Node13&#45;&gt;Node2 -->
<g id="edge31" class="edge"><title>Node13&#45;&gt;Node2</title>
<path fill="none" stroke="midnightblue" d="M1468.05,-68.2288C1465.03,-67.789 1462.03,-67.3766 1459.09,-67 1248.65,-40.045 1193.91,-54.8593 983.093,-31 971.316,-29.6672 958.767,-27.9726 946.758,-26.2157"/>
<polygon fill="midnightblue" stroke="midnightblue" points="947.233,-22.7479 936.826,-24.7317 946.198,-29.6711 947.233,-22.7479"/>
</g>
<!-- Node13&#45;&gt;Node3 -->
<g id="edge32" class="edge"><title>Node13&#45;&gt;Node3</title>
<path fill="none" stroke="midnightblue" d="M1468.03,-68.4012C1465.01,-67.9142 1462.02,-67.4448 1459.09,-67 1336.96,-48.4626 1193.66,-32.108 1112.3,-23.3245"/>
<polygon fill="midnightblue" stroke="midnightblue" points="1112.53,-19.8285 1102.21,-22.2395 1111.78,-26.7884 1112.53,-19.8285"/>
</g>
<!-- Node14&#45;&gt;Node2 -->
<g id="edge34" class="edge"><title>Node14&#45;&gt;Node2</title>
<path fill="none" stroke="midnightblue" d="M1628.06,-68.1583C1625.04,-67.7378 1622.04,-67.3487 1619.09,-67 1337.94,-33.6909 1264.7,-60.1734 983.093,-31 971.304,-29.7788 958.749,-28.1345 946.738,-26.3918"/>
<polygon fill="midnightblue" stroke="midnightblue" points="947.213,-22.9239 936.806,-24.9119 946.181,-29.8475 947.213,-22.9239"/>
</g>
<!-- Node14&#45;&gt;Node3 -->
<g id="edge35" class="edge"><title>Node14&#45;&gt;Node3</title>
<path fill="none" stroke="midnightblue" d="M1628.05,-68.2755C1625.02,-67.8229 1622.03,-67.3951 1619.09,-67 1436.22,-42.4071 1218.78,-26.9778 1112.35,-20.3169"/>
<polygon fill="midnightblue" stroke="midnightblue" points="1112.29,-16.8066 1102.1,-19.6807 1111.86,-23.7931 1112.29,-16.8066"/>
</g>
<!-- Node15&#45;&gt;Node2 -->
<g id="edge37" class="edge"><title>Node15&#45;&gt;Node2</title>
<path fill="none" stroke="midnightblue" d="M1788.07,-68.1161C1785.04,-67.7072 1782.04,-67.332 1779.09,-67 1427.18,-27.3315 1335.55,-65.4922 983.093,-31 971.298,-29.8457 958.74,-28.2316 946.728,-26.4974"/>
<polygon fill="midnightblue" stroke="midnightblue" points="947.201,-23.0294 936.795,-25.0199 946.171,-29.9532 947.201,-23.0294"/>
</g>
<!-- Node15&#45;&gt;Node3 -->
<g id="edge38" class="edge"><title>Node15&#45;&gt;Node3</title>
<path fill="none" stroke="midnightblue" d="M1788.06,-68.2042C1785.03,-67.7712 1782.03,-67.3669 1779.09,-67 1534.18,-36.4511 1240.69,-23.2166 1112.44,-18.5867"/>
<polygon fill="midnightblue" stroke="midnightblue" points="1112.51,-15.087 1102.39,-18.2294 1112.26,-22.0826 1112.51,-15.087"/>
</g>
</g>
</svg>
        <g id="navigator" transform="translate(0 0)" fill="#404254">
                <rect fill="#f2f5e9" fill-opacity="0.5" stroke="#606060" stroke-width=".5" x="0" y="0" width="60" height="60"/>
                <use id="zoomplus" xlink:href="#zoomPlus" x="17" y="9" onmousedown="handleZoom(evt,'in')"/>
                <use id="zoomminus" xlink:href="#zoomMin" x="42" y="9" onmousedown="handleZoom(evt,'out')"/>
                <use id="reset" xlink:href="#resetDef" x="30" y="36" onmousedown="handleReset()"/>
                <g id="arrowUp" xlink:href="#dirArrow" transform="translate(30 24)" onmousedown="handlePan(0,-1)">
                  <use xlink:href="#rim" fill="#404040">
                        <set attributeName="fill" to="#808080" begin="arrowUp.mouseover" end="arrowUp.mouseout"/>
                  </use>
                  <path fill="none" stroke="white" stroke-width="1.5" d="M0,-3.0v7 M-2.5,-0.5L0,-3.0L2.5,-0.5"/>
                </g>
                <g id="arrowRight" xlink:href="#dirArrow" transform="rotate(90) translate(36 -43)" onmousedown="handlePan(1,0)">
                  <use xlink:href="#rim" fill="#404040">
                        <set attributeName="fill" to="#808080" begin="arrowRight.mouseover" end="arrowRight.mouseout"/>
                  </use>
                  <path fill="none" stroke="white" stroke-width="1.5" d="M0,-3.0v7 M-2.5,-0.5L0,-3.0L2.5,-0.5"/>
                </g>
                <g id="arrowDown" xlink:href="#dirArrow" transform="rotate(180) translate(-30 -48)" onmousedown="handlePan(0,1)">
                  <use xlink:href="#rim" fill="#404040">
                        <set attributeName="fill" to="#808080" begin="arrowDown.mouseover" end="arrowDown.mouseout"/>
                  </use>
                  <path fill="none" stroke="white" stroke-width="1.5" d="M0,-3.0v7 M-2.5,-0.5L0,-3.0L2.5,-0.5"/>
                </g>
                <g id="arrowLeft" xlink:href="#dirArrow" transform="rotate(270) translate(-36 17)" onmousedown="handlePan(-1,0)">
                  <use xlink:href="#rim" fill="#404040">
                        <set attributeName="fill" to="#808080" begin="arrowLeft.mouseover" end="arrowLeft.mouseout"/>
                  </use>
                  <path fill="none" stroke="white" stroke-width="1.5" d="M0,-3.0v7 M-2.5,-0.5L0,-3.0L2.5,-0.5"/>
                </g>
        </g>
        <svg viewBox="0 0 15 15" width="100%" height="30px" preserveAspectRatio="xMaxYMin meet">
         <g id="arrow_out" transform="scale(0.3 0.3)">
          <a xlink:href="_dwarf_elephant_r_b_structures_t2_f2_o10_steady_state_8h__incl_org.svg" target="_base">
           <rect id="button" ry="5" rx="5" y="6" x="6" height="38" width="38"
                fill="#f2f5e9" fill-opacity="0.5" stroke="#606060" stroke-width="1.0"/>
           <path id="arrow"
             d="M 11.500037,31.436501 C 11.940474,20.09759 22.043105,11.32322 32.158766,21.979434 L 37.068811,17.246167 C 37.068811,17.246167 37.088388,32 37.088388,32 L 22.160133,31.978069 C 22.160133,31.978069 26.997745,27.140456 26.997745,27.140456 C 18.528582,18.264221 13.291696,25.230495 11.500037,31.436501 z"
             style="fill:#404040;"/>
          </a>
         </g>
        </svg>
</svg>
