<?xml version="1.0" encoding="UTF-8" standalone="no"?>
<!DOCTYPE svg PUBLIC "-//W3C//DTD SVG 1.1//EN"
 "http://www.w3.org/Graphics/SVG/1.1/DTD/svg11.dtd">
<!-- Generated by graphviz version 2.38.0 (20140413.2041)
 -->
<!-- Title: include/kernels/DwarfElephantRBLiftingFunctionKernelWithParameterIndependentScale.h Pages: 1 -->
<svg width="368pt" height="128pt"
 viewBox="0.00 0.00 367.50 128.00" xmlns="http://www.w3.org/2000/svg" xmlns:xlink="http://www.w3.org/1999/xlink">
<g id="graph0" class="graph" transform="scale(1 1) rotate(0) translate(4 124)">
<title>include/kernels/DwarfElephantRBLiftingFunctionKernelWithParameterIndependentScale.h</title>
<polygon fill="white" stroke="none" points="-4,4 -4,-124 363.5,-124 363.5,4 -4,4"/>
<!-- Node1 -->
<g id="node1" class="node"><title>Node1</title>
<polygon fill="#bfbfbf" stroke="black" points="73.5,-78.5 73.5,-119.5 264.5,-119.5 264.5,-78.5 73.5,-78.5"/>
<text text-anchor="start" x="81.5" y="-107.5" font-family="Helvetica,sans-Serif" font-size="10.00">include/kernels/DwarfElephant</text>
<text text-anchor="start" x="81.5" y="-96.5" font-family="Helvetica,sans-Serif" font-size="10.00">RBLiftingFunctionKernelWithParameter</text>
<text text-anchor="middle" x="169" y="-85.5" font-family="Helvetica,sans-Serif" font-size="10.00">IndependentScale.h</text>
</g>
<!-- Node2 -->
<g id="node2" class="node"><title>Node2</title>
<g id="a_node2"><a xlink:href="_dwarf_elephant_app_8_c.html" target="_top" xlink:title="src/base/DwarfElephantApp.C">
<polygon fill="white" stroke="black" points="0,-11.5 0,-30.5 150,-30.5 150,-11.5 0,-11.5"/>
<text text-anchor="middle" x="75" y="-18.5" font-family="Helvetica,sans-Serif" font-size="10.00">src/base/DwarfElephantApp.C</text>
</a>
</g>
</g>
<!-- Node1&#45;&gt;Node2 -->
<g id="edge1" class="edge"><title>Node1&#45;&gt;Node2</title>
<path fill="none" stroke="midnightblue" d="M136.854,-72.0093C118.993,-57.5691 97.9434,-40.55 85.5775,-30.552"/>
<polygon fill="midnightblue" stroke="midnightblue" points="134.816,-74.8626 144.793,-78.4281 139.217,-69.4191 134.816,-74.8626"/>
</g>
<!-- Node3 -->
<g id="node3" class="node"><title>Node3</title>
<g id="a_node3"><a xlink:href="_dwarf_elephant_r_b_lifting_function_kernel_with_parameter_independent_scale_8_c.html" target="_top" xlink:title="src/kernels/DwarfElephant\lRBLiftingFunctionKernelWithParameter\lIndependentScale.C">
<polygon fill="white" stroke="black" points="168.5,-0.5 168.5,-41.5 359.5,-41.5 359.5,-0.5 168.5,-0.5"/>
<text text-anchor="start" x="176.5" y="-29.5" font-family="Helvetica,sans-Serif" font-size="10.00">src/kernels/DwarfElephant</text>
<text text-anchor="start" x="176.5" y="-18.5" font-family="Helvetica,sans-Serif" font-size="10.00">RBLiftingFunctionKernelWithParameter</text>
<text text-anchor="middle" x="264" y="-7.5" font-family="Helvetica,sans-Serif" font-size="10.00">IndependentScale.C</text>
</a>
</g>
</g>
<!-- Node1&#45;&gt;Node3 -->
<g id="edge2" class="edge"><title>Node1&#45;&gt;Node3</title>
<path fill="none" stroke="midnightblue" d="M201.419,-72.0648C213.928,-62.0574 227.994,-50.8045 239.618,-41.5056"/>
<polygon fill="midnightblue" stroke="midnightblue" points="199.087,-69.4481 193.465,-78.4281 203.46,-74.9142 199.087,-69.4481"/>
</g>
</g>
</svg>
