<?xml version="1.0" encoding="UTF-8" standalone="no"?>
<!DOCTYPE svg PUBLIC "-//W3C//DTD SVG 1.1//EN"
 "http://www.w3.org/Graphics/SVG/1.1/DTD/svg11.dtd">
<!-- Generated by graphviz version 2.38.0 (20140413.2041)
 -->
<!-- Title: src/kernels/DwarfElephantFEThermalConduction.C Pages: 1 -->
<svg width="198pt" height="151pt"
 viewBox="0.00 0.00 198.00 151.00" xmlns="http://www.w3.org/2000/svg" xmlns:xlink="http://www.w3.org/1999/xlink">
<g id="graph0" class="graph" transform="scale(1 1) rotate(0) translate(4 147)">
<title>src/kernels/DwarfElephantFEThermalConduction.C</title>
<polygon fill="white" stroke="none" points="-4,4 -4,-147 194,-147 194,4 -4,4"/>
<!-- Node1 -->
<g id="node1" class="node"><title>Node1</title>
<polygon fill="#bfbfbf" stroke="black" points="28.5,-112.5 28.5,-142.5 161.5,-142.5 161.5,-112.5 28.5,-112.5"/>
<text text-anchor="start" x="36.5" y="-130.5" font-family="Helvetica,sans-Serif" font-size="10.00">src/kernels/DwarfElephant</text>
<text text-anchor="middle" x="95" y="-119.5" font-family="Helvetica,sans-Serif" font-size="10.00">FEThermalConduction.C</text>
</g>
<!-- Node2 -->
<g id="node2" class="node"><title>Node2</title>
<g id="a_node2"><a xlink:href="_dwarf_elephant_f_e_thermal_conduction_8h.html" target="_top" xlink:title="DwarfElephantFEThermalConduction.h">
<polygon fill="white" stroke="black" points="0,-56.5 0,-75.5 190,-75.5 190,-56.5 0,-56.5"/>
<text text-anchor="middle" x="95" y="-63.5" font-family="Helvetica,sans-Serif" font-size="10.00">DwarfElephantFEThermalConduction.h</text>
</a>
</g>
</g>
<!-- Node1&#45;&gt;Node2 -->
<g id="edge1" class="edge"><title>Node1&#45;&gt;Node2</title>
<path fill="none" stroke="midnightblue" d="M95,-112.399C95,-104.466 95,-94.458 95,-85.8583"/>
<polygon fill="midnightblue" stroke="midnightblue" points="98.5001,-85.6577 95,-75.6578 91.5001,-85.6578 98.5001,-85.6577"/>
</g>
<!-- Node3 -->
<g id="node3" class="node"><title>Node3</title>
<polygon fill="white" stroke="#bfbfbf" points="63,-0.5 63,-19.5 127,-19.5 127,-0.5 63,-0.5"/>
<text text-anchor="middle" x="95" y="-7.5" font-family="Helvetica,sans-Serif" font-size="10.00">Diffusion.h</text>
</g>
<!-- Node2&#45;&gt;Node3 -->
<g id="edge2" class="edge"><title>Node2&#45;&gt;Node3</title>
<path fill="none" stroke="midnightblue" d="M95,-56.083C95,-49.0059 95,-38.8611 95,-29.9865"/>
<polygon fill="midnightblue" stroke="midnightblue" points="98.5001,-29.751 95,-19.7511 91.5001,-29.7511 98.5001,-29.751"/>
</g>
</g>
</svg>
