<?xml version="1.0" encoding="UTF-8" standalone="no"?>
<!DOCTYPE svg PUBLIC "-//W3C//DTD SVG 1.1//EN"
 "http://www.w3.org/Graphics/SVG/1.1/DTD/svg11.dtd">
<!-- Generated by graphviz version 2.38.0 (20140413.2041)
 -->
<!-- Title: include/userobjects/DwarfElephantRBStructuresT16F16O80SteadyState.h Pages: 1 -->
<!--zoomable 184 -->
<svg id="main" version="1.1" xmlns="http://www.w3.org/2000/svg" xmlns:xlink="http://www.w3.org/1999/xlink" xml:space="preserve" onload="init(evt)">
<style type="text/css"><![CDATA[
.edge:hover path { stroke: red; }
.edge:hover polygon { stroke: red; fill: red; }
]]></style>
<script type="text/javascript"><![CDATA[
var edges = document.getElementsByTagName('g');
if (edges && edges.length) {
  for (var i=0;i<edges.length;i++) {
    if (edges[i].id.substr(0,4)=='edge') {
      edges[i].setAttribute('class','edge');
    }
  }
}
]]></script>
        <defs>
                <circle id="rim" cx="0" cy="0" r="7"/>
                <circle id="rim2" cx="0" cy="0" r="3.5"/>
                <g id="zoomPlus">
                        <use xlink:href="#rim" fill="#404040">
                                <set attributeName="fill" to="#808080" begin="zoomplus.mouseover" end="zoomplus.mouseout"/>
                        </use>
                        <path d="M-4,0h8M0,-4v8" fill="none" stroke="white" stroke-width="1.5" pointer-events="none"/>
                </g>
                <g id="zoomMin">
                        <use xlink:href="#rim" fill="#404040">
                                <set attributeName="fill" to="#808080" begin="zoomminus.mouseover" end="zoomminus.mouseout"/>
                        </use>
                        <path d="M-4,0h8" fill="none" stroke="white" stroke-width="1.5" pointer-events="none"/>
                </g>
                <g id="dirArrow">
                        <path fill="none" stroke="white" stroke-width="1.5" d="M0,-3.0v7 M-2.5,-0.5L0,-3.0L2.5,-0.5"/>
                </g>
               <g id="resetDef">
                       <use xlink:href="#rim2" fill="#404040">
                               <set attributeName="fill" to="#808080" begin="reset.mouseover" end="reset.mouseout"/>
                       </use>
               </g>
        </defs>

<script type="text/javascript">
var viewWidth = 3702;
var viewHeight = 184;
var sectionId = 'dynsection-0';
</script>
<script xlink:href="svgpan.js"/>
<svg id="graph" class="graph">
<g id="viewport">
<title>include/userobjects/DwarfElephantRBStructuresT16F16O80SteadyState.h</title>
<polygon fill="white" stroke="none" points="-4,4 -4,-180 3698.39,-180 3698.39,4 -4,4"/>
<!-- Node1 -->
<g id="node1" class="node"><title>Node1</title>
<polygon fill="#bfbfbf" stroke="black" points="1775.2,-134.5 1775.2,-175.5 1919.2,-175.5 1919.2,-134.5 1775.2,-134.5"/>
<text text-anchor="start" x="1783.2" y="-163.5" font-family="Helvetica,sans-Serif" font-size="10.00">include/userobjects</text>
<text text-anchor="start" x="1783.2" y="-152.5" font-family="Helvetica,sans-Serif" font-size="10.00">/DwarfElephantRBStructures</text>
<text text-anchor="middle" x="1847.2" y="-141.5" font-family="Helvetica,sans-Serif" font-size="10.00">T16F16O80SteadyState.h</text>
</g>
<!-- Node2 -->
<g id="node2" class="node"><title>Node2</title>
<polygon fill="white" stroke="#bfbfbf" points="1655.7,-6 1655.7,-25 1754.7,-25 1754.7,-6 1655.7,-6"/>
<text text-anchor="middle" x="1705.2" y="-13" font-family="Helvetica,sans-Serif" font-size="10.00">libmesh/rb_theta.h</text>
</g>
<!-- Node1&#45;&gt;Node2 -->
<g id="edge1" class="edge"><title>Node1&#45;&gt;Node2</title>
<path fill="none" stroke="midnightblue" d="M1775.01,-153.165C1438.46,-149.103 38.5145,-130.286 7.19627,-98 -2.39676,-88.1106 -2.40019,-76.8861 7.19627,-67 36.3157,-37.0017 1346.7,-20.5187 1645.14,-17.1499"/>
<polygon fill="midnightblue" stroke="midnightblue" points="1645.37,-20.6477 1655.33,-17.0356 1645.29,-13.6481 1645.37,-20.6477"/>
</g>
<!-- Node3 -->
<g id="node3" class="node"><title>Node3</title>
<polygon fill="white" stroke="#bfbfbf" points="1872.2,-0.5 1872.2,-30.5 1982.2,-30.5 1982.2,-0.5 1872.2,-0.5"/>
<text text-anchor="start" x="1880.2" y="-18.5" font-family="Helvetica,sans-Serif" font-size="10.00">libmesh/rb_assembly</text>
<text text-anchor="middle" x="1927.2" y="-7.5" font-family="Helvetica,sans-Serif" font-size="10.00">_expansion.h</text>
</g>
<!-- Node1&#45;&gt;Node3 -->
<g id="edge2" class="edge"><title>Node1&#45;&gt;Node3</title>
<path fill="none" stroke="midnightblue" d="M1919.39,-153.165C2255.93,-149.103 3655.88,-130.286 3687.2,-98 3696.79,-88.1106 3696.8,-76.8811 3687.2,-67 3657.1,-36.0263 2307.79,-20.3769 1992.56,-17.1398"/>
<polygon fill="midnightblue" stroke="midnightblue" points="1992.26,-13.6366 1982.22,-17.0343 1992.19,-20.6362 1992.26,-13.6366"/>
</g>
<!-- Node4 -->
<g id="node4" class="node"><title>Node4</title>
<g id="a_node4"><a xlink:href="_dwarf_elephant_r_b_structures_a00_theta_constant_8h.html" target="_top" xlink:title="DwarfElephantRBStructures\lA00ThetaConstant.h">
<polygon fill="white" stroke="black" points="1776.2,-67.5 1776.2,-97.5 1918.2,-97.5 1918.2,-67.5 1776.2,-67.5"/>
<text text-anchor="start" x="1784.2" y="-85.5" font-family="Helvetica,sans-Serif" font-size="10.00">DwarfElephantRBStructures</text>
<text text-anchor="middle" x="1847.2" y="-74.5" font-family="Helvetica,sans-Serif" font-size="10.00">A00ThetaConstant.h</text>
</a>
</g>
</g>
<!-- Node1&#45;&gt;Node4 -->
<g id="edge3" class="edge"><title>Node1&#45;&gt;Node4</title>
<path fill="none" stroke="midnightblue" d="M1847.2,-134.362C1847.2,-126.226 1847.2,-116.7 1847.2,-108.105"/>
<polygon fill="midnightblue" stroke="midnightblue" points="1850.7,-107.892 1847.2,-97.8916 1843.7,-107.892 1850.7,-107.892"/>
</g>
<!-- Node5 -->
<g id="node5" class="node"><title>Node5</title>
<g id="a_node5"><a xlink:href="_dwarf_elephant_r_b_structures_a0_theta_equal_mu0_8h.html" target="_top" xlink:title="DwarfElephantRBStructures\lA0ThetaEqualMu0.h">
<polygon fill="white" stroke="black" points="1936.2,-67.5 1936.2,-97.5 2078.2,-97.5 2078.2,-67.5 1936.2,-67.5"/>
<text text-anchor="start" x="1944.2" y="-85.5" font-family="Helvetica,sans-Serif" font-size="10.00">DwarfElephantRBStructures</text>
<text text-anchor="middle" x="2007.2" y="-74.5" font-family="Helvetica,sans-Serif" font-size="10.00">A0ThetaEqualMu0.h</text>
</a>
</g>
</g>
<!-- Node1&#45;&gt;Node5 -->
<g id="edge6" class="edge"><title>Node1&#45;&gt;Node5</title>
<path fill="none" stroke="midnightblue" d="M1891.77,-134.362C1914.99,-124.13 1943.2,-111.7 1965.92,-101.689"/>
<polygon fill="midnightblue" stroke="midnightblue" points="1967.55,-104.795 1975.29,-97.5597 1964.73,-98.389 1967.55,-104.795"/>
</g>
<!-- Node6 -->
<g id="node6" class="node"><title>Node6</title>
<g id="a_node6"><a xlink:href="_dwarf_elephant_r_b_structures_a0_theta_norm_mu0_8h.html" target="_top" xlink:title="DwarfElephantRBStructures\lA0ThetaNormMu0.h">
<polygon fill="white" stroke="black" points="2096.2,-67.5 2096.2,-97.5 2238.2,-97.5 2238.2,-67.5 2096.2,-67.5"/>
<text text-anchor="start" x="2104.2" y="-85.5" font-family="Helvetica,sans-Serif" font-size="10.00">DwarfElephantRBStructures</text>
<text text-anchor="middle" x="2167.2" y="-74.5" font-family="Helvetica,sans-Serif" font-size="10.00">A0ThetaNormMu0.h</text>
</a>
</g>
</g>
<!-- Node1&#45;&gt;Node6 -->
<g id="edge9" class="edge"><title>Node1&#45;&gt;Node6</title>
<path fill="none" stroke="midnightblue" d="M1919.41,-138.091C1971.45,-126.626 2041.43,-111.207 2093.75,-99.6806"/>
<polygon fill="midnightblue" stroke="midnightblue" points="2094.63,-103.072 2103.64,-97.5025 2093.12,-96.2361 2094.63,-103.072"/>
</g>
<!-- Node7 -->
<g id="node7" class="node"><title>Node7</title>
<g id="a_node7"><a xlink:href="_dwarf_elephant_r_b_structures_a0_theta_norm_mu1_8h.html" target="_top" xlink:title="DwarfElephantRBStructures\lA0ThetaNormMu1.h">
<polygon fill="white" stroke="black" points="2256.2,-67.5 2256.2,-97.5 2398.2,-97.5 2398.2,-67.5 2256.2,-67.5"/>
<text text-anchor="start" x="2264.2" y="-85.5" font-family="Helvetica,sans-Serif" font-size="10.00">DwarfElephantRBStructures</text>
<text text-anchor="middle" x="2327.2" y="-74.5" font-family="Helvetica,sans-Serif" font-size="10.00">A0ThetaNormMu1.h</text>
</a>
</g>
</g>
<!-- Node1&#45;&gt;Node7 -->
<g id="edge12" class="edge"><title>Node1&#45;&gt;Node7</title>
<path fill="none" stroke="midnightblue" d="M1919.22,-144.803C1997.22,-134.643 2125.53,-117.348 2245.98,-98.1581"/>
<polygon fill="midnightblue" stroke="midnightblue" points="2246.8,-101.572 2256.12,-96.5354 2245.69,-94.6599 2246.8,-101.572"/>
</g>
<!-- Node8 -->
<g id="node8" class="node"><title>Node8</title>
<g id="a_node8"><a xlink:href="_dwarf_elephant_r_b_structures_a1_theta_equal_mu1_8h.html" target="_top" xlink:title="DwarfElephantRBStructures\lA1ThetaEqualMu1.h">
<polygon fill="white" stroke="black" points="2416.2,-67.5 2416.2,-97.5 2558.2,-97.5 2558.2,-67.5 2416.2,-67.5"/>
<text text-anchor="start" x="2424.2" y="-85.5" font-family="Helvetica,sans-Serif" font-size="10.00">DwarfElephantRBStructures</text>
<text text-anchor="middle" x="2487.2" y="-74.5" font-family="Helvetica,sans-Serif" font-size="10.00">A1ThetaEqualMu1.h</text>
</a>
</g>
</g>
<!-- Node1&#45;&gt;Node8 -->
<g id="edge15" class="edge"><title>Node1&#45;&gt;Node8</title>
<path fill="none" stroke="midnightblue" d="M1919.46,-148.624C2024.43,-140.405 2225.36,-123.125 2406.18,-98.0722"/>
<polygon fill="midnightblue" stroke="midnightblue" points="2406.72,-101.531 2416.14,-96.6814 2405.76,-94.5981 2406.72,-101.531"/>
</g>
<!-- Node9 -->
<g id="node9" class="node"><title>Node9</title>
<g id="a_node9"><a xlink:href="_dwarf_elephant_r_b_structures_a1_theta_norm_mu0_8h.html" target="_top" xlink:title="DwarfElephantRBStructures\lA1ThetaNormMu0.h">
<polygon fill="white" stroke="black" points="2576.2,-67.5 2576.2,-97.5 2718.2,-97.5 2718.2,-67.5 2576.2,-67.5"/>
<text text-anchor="start" x="2584.2" y="-85.5" font-family="Helvetica,sans-Serif" font-size="10.00">DwarfElephantRBStructures</text>
<text text-anchor="middle" x="2647.2" y="-74.5" font-family="Helvetica,sans-Serif" font-size="10.00">A1ThetaNormMu0.h</text>
</a>
</g>
</g>
<!-- Node1&#45;&gt;Node9 -->
<g id="edge18" class="edge"><title>Node1&#45;&gt;Node9</title>
<path fill="none" stroke="midnightblue" d="M1919.24,-150.826C2047.37,-144.647 2323.42,-128.935 2566.08,-98.0561"/>
<polygon fill="midnightblue" stroke="midnightblue" points="2566.68,-101.508 2576.15,-96.7633 2565.79,-94.5651 2566.68,-101.508"/>
</g>
<!-- Node10 -->
<g id="node10" class="node"><title>Node10</title>
<g id="a_node10"><a xlink:href="_dwarf_elephant_r_b_structures_a1_theta_norm_mu1_8h.html" target="_top" xlink:title="DwarfElephantRBStructures\lA1ThetaNormMu1.h">
<polygon fill="white" stroke="black" points="2736.2,-67.5 2736.2,-97.5 2878.2,-97.5 2878.2,-67.5 2736.2,-67.5"/>
<text text-anchor="start" x="2744.2" y="-85.5" font-family="Helvetica,sans-Serif" font-size="10.00">DwarfElephantRBStructures</text>
<text text-anchor="middle" x="2807.2" y="-74.5" font-family="Helvetica,sans-Serif" font-size="10.00">A1ThetaNormMu1.h</text>
</a>
</g>
</g>
<!-- Node1&#45;&gt;Node10 -->
<g id="edge21" class="edge"><title>Node1&#45;&gt;Node10</title>
<path fill="none" stroke="midnightblue" d="M1919.32,-152.236C2068.3,-147.978 2420.91,-134.726 2726.23,-98.0197"/>
<polygon fill="midnightblue" stroke="midnightblue" points="2726.66,-101.494 2736.16,-96.8156 2725.81,-94.545 2726.66,-101.494"/>
</g>
<!-- Node11 -->
<g id="node11" class="node"><title>Node11</title>
<g id="a_node11"><a xlink:href="_dwarf_elephant_r_b_structures_a2_theta_equal_mu2_8h.html" target="_top" xlink:title="DwarfElephantRBStructures\lA2ThetaEqualMu2.h">
<polygon fill="white" stroke="black" points="2896.2,-67.5 2896.2,-97.5 3038.2,-97.5 3038.2,-67.5 2896.2,-67.5"/>
<text text-anchor="start" x="2904.2" y="-85.5" font-family="Helvetica,sans-Serif" font-size="10.00">DwarfElephantRBStructures</text>
<text text-anchor="middle" x="2967.2" y="-74.5" font-family="Helvetica,sans-Serif" font-size="10.00">A2ThetaEqualMu2.h</text>
</a>
</g>
</g>
<!-- Node1&#45;&gt;Node11 -->
<g id="edge24" class="edge"><title>Node1&#45;&gt;Node11</title>
<path fill="none" stroke="midnightblue" d="M1919.33,-153.227C2087.26,-150.756 2517.46,-140.555 2886.1,-98.0231"/>
<polygon fill="midnightblue" stroke="midnightblue" points="2886.64,-101.484 2896.17,-96.8519 2885.83,-94.5312 2886.64,-101.484"/>
</g>
<!-- Node12 -->
<g id="node12" class="node"><title>Node12</title>
<g id="a_node12"><a xlink:href="_dwarf_elephant_r_b_structures_a2_theta_norm_mu0_8h.html" target="_top" xlink:title="DwarfElephantRBStructures\lA2ThetaNormMu0.h">
<polygon fill="white" stroke="black" points="3056.2,-67.5 3056.2,-97.5 3198.2,-97.5 3198.2,-67.5 3056.2,-67.5"/>
<text text-anchor="start" x="3064.2" y="-85.5" font-family="Helvetica,sans-Serif" font-size="10.00">DwarfElephantRBStructures</text>
<text text-anchor="middle" x="3127.2" y="-74.5" font-family="Helvetica,sans-Serif" font-size="10.00">A2ThetaNormMu0.h</text>
</a>
</g>
</g>
<!-- Node1&#45;&gt;Node12 -->
<g id="edge27" class="edge"><title>Node1&#45;&gt;Node12</title>
<path fill="none" stroke="midnightblue" d="M1919.49,-153.961C2105.09,-153.145 2613.57,-146.392 3045.97,-98.0288"/>
<polygon fill="midnightblue" stroke="midnightblue" points="3046.62,-101.477 3056.17,-96.8786 3045.84,-94.5212 3046.62,-101.477"/>
</g>
<!-- Node13 -->
<g id="node13" class="node"><title>Node13</title>
<g id="a_node13"><a xlink:href="_dwarf_elephant_r_b_structures_a2_theta_norm_mu1_8h.html" target="_top" xlink:title="DwarfElephantRBStructures\lA2ThetaNormMu1.h">
<polygon fill="white" stroke="black" points="3216.2,-67.5 3216.2,-97.5 3358.2,-97.5 3358.2,-67.5 3216.2,-67.5"/>
<text text-anchor="start" x="3224.2" y="-85.5" font-family="Helvetica,sans-Serif" font-size="10.00">DwarfElephantRBStructures</text>
<text text-anchor="middle" x="3287.2" y="-74.5" font-family="Helvetica,sans-Serif" font-size="10.00">A2ThetaNormMu1.h</text>
</a>
</g>
</g>
<!-- Node1&#45;&gt;Node13 -->
<g id="edge30" class="edge"><title>Node1&#45;&gt;Node13</title>
<path fill="none" stroke="midnightblue" d="M1919.34,-154.528C2121.23,-155.259 2709.07,-152.274 3205.92,-98.0264"/>
<polygon fill="midnightblue" stroke="midnightblue" points="3206.61,-101.472 3216.17,-96.899 3205.85,-94.5138 3206.61,-101.472"/>
</g>
<!-- Node14 -->
<g id="node14" class="node"><title>Node14</title>
<g id="a_node14"><a xlink:href="_dwarf_elephant_r_b_structures_a3_theta_equal_mu3_8h.html" target="_top" xlink:title="DwarfElephantRBStructures\lA3ThetaEqualMu3.h">
<polygon fill="white" stroke="black" points="3376.2,-67.5 3376.2,-97.5 3518.2,-97.5 3518.2,-67.5 3376.2,-67.5"/>
<text text-anchor="start" x="3384.2" y="-85.5" font-family="Helvetica,sans-Serif" font-size="10.00">DwarfElephantRBStructures</text>
<text text-anchor="middle" x="3447.2" y="-74.5" font-family="Helvetica,sans-Serif" font-size="10.00">A3ThetaEqualMu3.h</text>
</a>
</g>
</g>
<!-- Node1&#45;&gt;Node14 -->
<g id="edge33" class="edge"><title>Node1&#45;&gt;Node14</title>
<path fill="none" stroke="midnightblue" d="M1919.26,-152.708C2178.1,-147.859 3061.07,-129.446 3366.01,-97.9919"/>
<polygon fill="midnightblue" stroke="midnightblue" points="3366.6,-101.449 3376.17,-96.9151 3365.86,-94.4881 3366.6,-101.449"/>
</g>
<!-- Node15 -->
<g id="node15" class="node"><title>Node15</title>
<g id="a_node15"><a xlink:href="_dwarf_elephant_r_b_structures_a4_theta_equal_mu4_8h.html" target="_top" xlink:title="DwarfElephantRBStructures\lA4ThetaEqualMu4.h">
<polygon fill="white" stroke="black" points="3536.2,-67.5 3536.2,-97.5 3678.2,-97.5 3678.2,-67.5 3536.2,-67.5"/>
<text text-anchor="start" x="3544.2" y="-85.5" font-family="Helvetica,sans-Serif" font-size="10.00">DwarfElephantRBStructures</text>
<text text-anchor="middle" x="3607.2" y="-74.5" font-family="Helvetica,sans-Serif" font-size="10.00">A4ThetaEqualMu4.h</text>
</a>
</g>
</g>
<!-- Node1&#45;&gt;Node15 -->
<g id="edge36" class="edge"><title>Node1&#45;&gt;Node15</title>
<path fill="none" stroke="midnightblue" d="M1919.53,-152.996C2196.2,-148.94 3188.23,-132.361 3526.13,-97.9766"/>
<polygon fill="midnightblue" stroke="midnightblue" points="3526.59,-101.447 3536.17,-96.9281 3525.86,-94.485 3526.59,-101.447"/>
</g>
<!-- Node16 -->
<g id="node16" class="node"><title>Node16</title>
<g id="a_node16"><a xlink:href="_dwarf_elephant_r_b_structures_a5_theta_equal_mu5_8h.html" target="_top" xlink:title="DwarfElephantRBStructures\lA5ThetaEqualMu5.h">
<polygon fill="white" stroke="black" points="16.1963,-67.5 16.1963,-97.5 158.196,-97.5 158.196,-67.5 16.1963,-67.5"/>
<text text-anchor="start" x="24.1963" y="-85.5" font-family="Helvetica,sans-Serif" font-size="10.00">DwarfElephantRBStructures</text>
<text text-anchor="middle" x="87.1963" y="-74.5" font-family="Helvetica,sans-Serif" font-size="10.00">A5ThetaEqualMu5.h</text>
</a>
</g>
</g>
<!-- Node1&#45;&gt;Node16 -->
<g id="edge39" class="edge"><title>Node1&#45;&gt;Node16</title>
<path fill="none" stroke="midnightblue" d="M1774.86,-152.996C1498.19,-148.94 506.167,-132.361 168.266,-97.9766"/>
<polygon fill="midnightblue" stroke="midnightblue" points="168.528,-94.485 158.218,-96.9281 167.801,-101.447 168.528,-94.485"/>
</g>
<!-- Node17 -->
<g id="node17" class="node"><title>Node17</title>
<g id="a_node17"><a xlink:href="_dwarf_elephant_r_b_structures_a6_theta_equal_mu6_8h.html" target="_top" xlink:title="DwarfElephantRBStructures\lA6ThetaEqualMu6.h">
<polygon fill="white" stroke="black" points="176.196,-67.5 176.196,-97.5 318.196,-97.5 318.196,-67.5 176.196,-67.5"/>
<text text-anchor="start" x="184.196" y="-85.5" font-family="Helvetica,sans-Serif" font-size="10.00">DwarfElephantRBStructures</text>
<text text-anchor="middle" x="247.196" y="-74.5" font-family="Helvetica,sans-Serif" font-size="10.00">A6ThetaEqualMu6.h</text>
</a>
</g>
</g>
<!-- Node1&#45;&gt;Node17 -->
<g id="edge42" class="edge"><title>Node1&#45;&gt;Node17</title>
<path fill="none" stroke="midnightblue" d="M1775.13,-152.708C1516.3,-147.859 633.325,-129.446 328.385,-97.9919"/>
<polygon fill="midnightblue" stroke="midnightblue" points="328.533,-94.4881 318.22,-96.9151 327.795,-101.449 328.533,-94.4881"/>
</g>
<!-- Node18 -->
<g id="node18" class="node"><title>Node18</title>
<g id="a_node18"><a xlink:href="_dwarf_elephant_r_b_structures_a7_theta_equal_mu7_8h.html" target="_top" xlink:title="DwarfElephantRBStructures\lA7ThetaEqualMu7.h">
<polygon fill="white" stroke="black" points="336.196,-67.5 336.196,-97.5 478.196,-97.5 478.196,-67.5 336.196,-67.5"/>
<text text-anchor="start" x="344.196" y="-85.5" font-family="Helvetica,sans-Serif" font-size="10.00">DwarfElephantRBStructures</text>
<text text-anchor="middle" x="407.196" y="-74.5" font-family="Helvetica,sans-Serif" font-size="10.00">A7ThetaEqualMu7.h</text>
</a>
</g>
</g>
<!-- Node1&#45;&gt;Node18 -->
<g id="edge45" class="edge"><title>Node1&#45;&gt;Node18</title>
<path fill="none" stroke="midnightblue" d="M1775.05,-154.528C1573.16,-155.259 985.319,-152.274 488.468,-98.0264"/>
<polygon fill="midnightblue" stroke="midnightblue" points="488.544,-94.5138 478.222,-96.899 487.779,-101.472 488.544,-94.5138"/>
</g>
<!-- Node19 -->
<g id="node19" class="node"><title>Node19</title>
<g id="a_node19"><a xlink:href="_dwarf_elephant_r_b_structures_a8_theta_equal_mu8_8h.html" target="_top" xlink:title="DwarfElephantRBStructures\lA8ThetaEqualMu8.h">
<polygon fill="white" stroke="black" points="496.196,-67.5 496.196,-97.5 638.196,-97.5 638.196,-67.5 496.196,-67.5"/>
<text text-anchor="start" x="504.196" y="-85.5" font-family="Helvetica,sans-Serif" font-size="10.00">DwarfElephantRBStructures</text>
<text text-anchor="middle" x="567.196" y="-74.5" font-family="Helvetica,sans-Serif" font-size="10.00">A8ThetaEqualMu8.h</text>
</a>
</g>
</g>
<!-- Node1&#45;&gt;Node19 -->
<g id="edge48" class="edge"><title>Node1&#45;&gt;Node19</title>
<path fill="none" stroke="midnightblue" d="M1774.9,-153.961C1589.3,-153.145 1080.82,-146.392 648.424,-98.0288"/>
<polygon fill="midnightblue" stroke="midnightblue" points="648.553,-94.5212 638.224,-96.8786 647.769,-101.477 648.553,-94.5212"/>
</g>
<!-- Node20 -->
<g id="node20" class="node"><title>Node20</title>
<g id="a_node20"><a xlink:href="_dwarf_elephant_r_b_structures_a9_theta_equal_mu9_8h.html" target="_top" xlink:title="DwarfElephantRBStructures\lA9ThetaEqualMu9.h">
<polygon fill="white" stroke="black" points="656.196,-67.5 656.196,-97.5 798.196,-97.5 798.196,-67.5 656.196,-67.5"/>
<text text-anchor="start" x="664.196" y="-85.5" font-family="Helvetica,sans-Serif" font-size="10.00">DwarfElephantRBStructures</text>
<text text-anchor="middle" x="727.196" y="-74.5" font-family="Helvetica,sans-Serif" font-size="10.00">A9ThetaEqualMu9.h</text>
</a>
</g>
</g>
<!-- Node1&#45;&gt;Node20 -->
<g id="edge51" class="edge"><title>Node1&#45;&gt;Node20</title>
<path fill="none" stroke="midnightblue" d="M1775.06,-153.227C1607.13,-150.756 1176.94,-140.555 808.293,-98.0231"/>
<polygon fill="midnightblue" stroke="midnightblue" points="808.565,-94.5312 798.227,-96.8519 807.755,-101.484 808.565,-94.5312"/>
</g>
<!-- Node21 -->
<g id="node21" class="node"><title>Node21</title>
<g id="a_node21"><a xlink:href="_dwarf_elephant_r_b_structures_a10_theta_equal_mu10_8h.html" target="_top" xlink:title="DwarfElephantRBStructures\lA10ThetaEqualMu10.h">
<polygon fill="white" stroke="black" points="816.196,-67.5 816.196,-97.5 958.196,-97.5 958.196,-67.5 816.196,-67.5"/>
<text text-anchor="start" x="824.196" y="-85.5" font-family="Helvetica,sans-Serif" font-size="10.00">DwarfElephantRBStructures</text>
<text text-anchor="middle" x="887.196" y="-74.5" font-family="Helvetica,sans-Serif" font-size="10.00">A10ThetaEqualMu10.h</text>
</a>
</g>
</g>
<!-- Node1&#45;&gt;Node21 -->
<g id="edge54" class="edge"><title>Node1&#45;&gt;Node21</title>
<path fill="none" stroke="midnightblue" d="M1775.07,-152.236C1626.09,-147.978 1273.48,-134.726 968.16,-98.0197"/>
<polygon fill="midnightblue" stroke="midnightblue" points="968.58,-94.545 958.231,-96.8156 967.737,-101.494 968.58,-94.545"/>
</g>
<!-- Node22 -->
<g id="node22" class="node"><title>Node22</title>
<g id="a_node22"><a xlink:href="_dwarf_elephant_r_b_structures_a11_theta_equal_mu11_8h.html" target="_top" xlink:title="DwarfElephantRBStructures\lA11ThetaEqualMu11.h">
<polygon fill="white" stroke="black" points="976.196,-67.5 976.196,-97.5 1118.2,-97.5 1118.2,-67.5 976.196,-67.5"/>
<text text-anchor="start" x="984.196" y="-85.5" font-family="Helvetica,sans-Serif" font-size="10.00">DwarfElephantRBStructures</text>
<text text-anchor="middle" x="1047.2" y="-74.5" font-family="Helvetica,sans-Serif" font-size="10.00">A11ThetaEqualMu11.h</text>
</a>
</g>
</g>
<!-- Node1&#45;&gt;Node22 -->
<g id="edge57" class="edge"><title>Node1&#45;&gt;Node22</title>
<path fill="none" stroke="midnightblue" d="M1775.16,-150.826C1647.03,-144.647 1370.98,-128.935 1128.31,-98.0561"/>
<polygon fill="midnightblue" stroke="midnightblue" points="1128.6,-94.5651 1118.24,-96.7633 1127.71,-101.508 1128.6,-94.5651"/>
</g>
<!-- Node23 -->
<g id="node23" class="node"><title>Node23</title>
<g id="a_node23"><a xlink:href="_dwarf_elephant_r_b_structures_a12_theta_equal_mu12_8h.html" target="_top" xlink:title="DwarfElephantRBStructures\lA12ThetaEqualMu12.h">
<polygon fill="white" stroke="black" points="1136.2,-67.5 1136.2,-97.5 1278.2,-97.5 1278.2,-67.5 1136.2,-67.5"/>
<text text-anchor="start" x="1144.2" y="-85.5" font-family="Helvetica,sans-Serif" font-size="10.00">DwarfElephantRBStructures</text>
<text text-anchor="middle" x="1207.2" y="-74.5" font-family="Helvetica,sans-Serif" font-size="10.00">A12ThetaEqualMu12.h</text>
</a>
</g>
</g>
<!-- Node1&#45;&gt;Node23 -->
<g id="edge60" class="edge"><title>Node1&#45;&gt;Node23</title>
<path fill="none" stroke="midnightblue" d="M1774.93,-148.624C1669.97,-140.405 1469.03,-123.125 1288.21,-98.0722"/>
<polygon fill="midnightblue" stroke="midnightblue" points="1288.64,-94.5981 1278.25,-96.6814 1287.67,-101.531 1288.64,-94.5981"/>
</g>
<!-- Node24 -->
<g id="node24" class="node"><title>Node24</title>
<g id="a_node24"><a xlink:href="_dwarf_elephant_r_b_structures_a13_theta_equal_mu13_8h.html" target="_top" xlink:title="DwarfElephantRBStructures\lA13ThetaEqualMu13.h">
<polygon fill="white" stroke="black" points="1296.2,-67.5 1296.2,-97.5 1438.2,-97.5 1438.2,-67.5 1296.2,-67.5"/>
<text text-anchor="start" x="1304.2" y="-85.5" font-family="Helvetica,sans-Serif" font-size="10.00">DwarfElephantRBStructures</text>
<text text-anchor="middle" x="1367.2" y="-74.5" font-family="Helvetica,sans-Serif" font-size="10.00">A13ThetaEqualMu13.h</text>
</a>
</g>
</g>
<!-- Node1&#45;&gt;Node24 -->
<g id="edge63" class="edge"><title>Node1&#45;&gt;Node24</title>
<path fill="none" stroke="midnightblue" d="M1775.17,-144.803C1697.18,-134.643 1568.86,-117.348 1448.41,-98.1581"/>
<polygon fill="midnightblue" stroke="midnightblue" points="1448.7,-94.6599 1438.27,-96.5354 1447.59,-101.572 1448.7,-94.6599"/>
</g>
<!-- Node25 -->
<g id="node25" class="node"><title>Node25</title>
<g id="a_node25"><a xlink:href="_dwarf_elephant_r_b_structures_a14_theta_equal_mu14_8h.html" target="_top" xlink:title="DwarfElephantRBStructures\lA14ThetaEqualMu14.h">
<polygon fill="white" stroke="black" points="1456.2,-67.5 1456.2,-97.5 1598.2,-97.5 1598.2,-67.5 1456.2,-67.5"/>
<text text-anchor="start" x="1464.2" y="-85.5" font-family="Helvetica,sans-Serif" font-size="10.00">DwarfElephantRBStructures</text>
<text text-anchor="middle" x="1527.2" y="-74.5" font-family="Helvetica,sans-Serif" font-size="10.00">A14ThetaEqualMu14.h</text>
</a>
</g>
</g>
<!-- Node1&#45;&gt;Node25 -->
<g id="edge66" class="edge"><title>Node1&#45;&gt;Node25</title>
<path fill="none" stroke="midnightblue" d="M1774.98,-138.091C1722.94,-126.626 1652.96,-111.207 1600.64,-99.6806"/>
<polygon fill="midnightblue" stroke="midnightblue" points="1601.27,-96.2361 1590.75,-97.5025 1599.77,-103.072 1601.27,-96.2361"/>
</g>
<!-- Node26 -->
<g id="node26" class="node"><title>Node26</title>
<g id="a_node26"><a xlink:href="_dwarf_elephant_r_b_structures_a15_theta_equal_mu15_8h.html" target="_top" xlink:title="DwarfElephantRBStructures\lA15ThetaEqualMu15.h">
<polygon fill="white" stroke="black" points="1616.2,-67.5 1616.2,-97.5 1758.2,-97.5 1758.2,-67.5 1616.2,-67.5"/>
<text text-anchor="start" x="1624.2" y="-85.5" font-family="Helvetica,sans-Serif" font-size="10.00">DwarfElephantRBStructures</text>
<text text-anchor="middle" x="1687.2" y="-74.5" font-family="Helvetica,sans-Serif" font-size="10.00">A15ThetaEqualMu15.h</text>
</a>
</g>
</g>
<!-- Node1&#45;&gt;Node26 -->
<g id="edge69" class="edge"><title>Node1&#45;&gt;Node26</title>
<path fill="none" stroke="midnightblue" d="M1802.63,-134.362C1779.41,-124.13 1751.2,-111.7 1728.48,-101.689"/>
<polygon fill="midnightblue" stroke="midnightblue" points="1729.67,-98.389 1719.1,-97.5597 1726.84,-104.795 1729.67,-98.389"/>
</g>
<!-- Node4&#45;&gt;Node2 -->
<g id="edge4" class="edge"><title>Node4&#45;&gt;Node2</title>
<path fill="none" stroke="midnightblue" d="M1816.38,-67.396C1791.58,-56.0414 1757.02,-40.2201 1733.04,-29.2437"/>
<polygon fill="midnightblue" stroke="midnightblue" points="1734.33,-25.9868 1723.78,-25.007 1731.42,-32.3516 1734.33,-25.9868"/>
</g>
<!-- Node4&#45;&gt;Node3 -->
<g id="edge5" class="edge"><title>Node4&#45;&gt;Node3</title>
<path fill="none" stroke="midnightblue" d="M1864.56,-67.396C1875.46,-58.5375 1889.71,-46.9604 1901.86,-37.0861"/>
<polygon fill="midnightblue" stroke="midnightblue" points="1904.32,-39.5989 1909.87,-30.5765 1899.9,-34.1661 1904.32,-39.5989"/>
</g>
<!-- Node5&#45;&gt;Node2 -->
<g id="edge7" class="edge"><title>Node5&#45;&gt;Node2</title>
<path fill="none" stroke="midnightblue" d="M1942.04,-67.476C1885.79,-55.3701 1805.75,-38.1427 1754.64,-27.1424"/>
<polygon fill="midnightblue" stroke="midnightblue" points="1755.33,-23.7112 1744.82,-25.0287 1753.86,-30.5545 1755.33,-23.7112"/>
</g>
<!-- Node5&#45;&gt;Node3 -->
<g id="edge8" class="edge"><title>Node5&#45;&gt;Node3</title>
<path fill="none" stroke="midnightblue" d="M1989.84,-67.396C1978.93,-58.5375 1964.69,-46.9604 1952.53,-37.0861"/>
<polygon fill="midnightblue" stroke="midnightblue" points="1954.49,-34.1661 1944.52,-30.5765 1950.08,-39.5989 1954.49,-34.1661"/>
</g>
<!-- Node6&#45;&gt;Node2 -->
<g id="edge10" class="edge"><title>Node6&#45;&gt;Node2</title>
<path fill="none" stroke="midnightblue" d="M2096.13,-68.4363C2093.11,-67.9397 2090.12,-67.4587 2087.2,-67 1973.58,-49.2036 1840.29,-32.5354 1764.99,-23.5057"/>
<polygon fill="midnightblue" stroke="midnightblue" points="1765.1,-19.9943 1754.75,-22.283 1764.27,-26.9449 1765.1,-19.9943"/>
</g>
<!-- Node6&#45;&gt;Node3 -->
<g id="edge11" class="edge"><title>Node6&#45;&gt;Node3</title>
<path fill="none" stroke="midnightblue" d="M2115.42,-67.476C2078.32,-57.4297 2028.2,-43.8564 1989.01,-33.2418"/>
<polygon fill="midnightblue" stroke="midnightblue" points="1989.87,-29.8469 1979.3,-30.6109 1988.04,-36.6034 1989.87,-29.8469"/>
</g>
<!-- Node7&#45;&gt;Node2 -->
<g id="edge13" class="edge"><title>Node7&#45;&gt;Node2</title>
<path fill="none" stroke="midnightblue" d="M2256.15,-68.2935C2253.13,-67.836 2250.13,-67.4022 2247.2,-67 2235.35,-65.3776 1903.33,-34.7435 1764.9,-21.9946"/>
<polygon fill="midnightblue" stroke="midnightblue" points="1765.16,-18.5037 1754.88,-21.0719 1764.52,-25.4742 1765.16,-18.5037"/>
</g>
<!-- Node7&#45;&gt;Node3 -->
<g id="edge14" class="edge"><title>Node7&#45;&gt;Node3</title>
<path fill="none" stroke="midnightblue" d="M2256.11,-68.5291C2253.1,-68.0071 2250.12,-67.4954 2247.2,-67 2159.16,-52.0775 2057.25,-36.242 1992.53,-26.3647"/>
<polygon fill="midnightblue" stroke="midnightblue" points="1992.88,-22.8782 1982.47,-24.8317 1991.83,-29.7983 1992.88,-22.8782"/>
</g>
<!-- Node8&#45;&gt;Node2 -->
<g id="edge16" class="edge"><title>Node8&#45;&gt;Node2</title>
<path fill="none" stroke="midnightblue" d="M2416.16,-68.1938C2413.14,-67.7636 2410.14,-67.3628 2407.2,-67 2166.71,-37.3455 2104.75,-50.0735 1863.2,-31 1830.77,-28.4397 1794.64,-25.1564 1765.13,-22.3618"/>
<polygon fill="midnightblue" stroke="midnightblue" points="1765.27,-18.8593 1754.98,-21.3957 1764.6,-25.8278 1765.27,-18.8593"/>
</g>
<!-- Node8&#45;&gt;Node3 -->
<g id="edge17" class="edge"><title>Node8&#45;&gt;Node3</title>
<path fill="none" stroke="midnightblue" d="M2416.14,-68.3377C2413.12,-67.8681 2410.13,-67.4197 2407.2,-67 2259.49,-45.8734 2085.02,-29.7031 1992.49,-21.8163"/>
<polygon fill="midnightblue" stroke="midnightblue" points="1992.69,-18.3212 1982.43,-20.9644 1992.1,-25.2962 1992.69,-18.3212"/>
</g>
<!-- Node9&#45;&gt;Node2 -->
<g id="edge19" class="edge"><title>Node9&#45;&gt;Node2</title>
<path fill="none" stroke="midnightblue" d="M2576.17,-68.138C2573.14,-67.7231 2570.14,-67.3407 2567.2,-67 2255.98,-30.9886 2175.7,-53.3204 1863.2,-31 1830.75,-28.6828 1794.62,-25.4183 1765.11,-22.5735"/>
<polygon fill="midnightblue" stroke="midnightblue" points="1765.26,-19.0712 1754.97,-21.587 1764.58,-26.0384 1765.26,-19.0712"/>
</g>
<!-- Node9&#45;&gt;Node3 -->
<g id="edge20" class="edge"><title>Node9&#45;&gt;Node3</title>
<path fill="none" stroke="midnightblue" d="M2576.15,-68.2409C2573.13,-67.7978 2570.14,-67.3814 2567.2,-67 2358.25,-39.8899 2108.89,-25.2805 1992.75,-19.493"/>
<polygon fill="midnightblue" stroke="midnightblue" points="1992.77,-15.9895 1982.61,-18.993 1992.42,-22.981 1992.77,-15.9895"/>
</g>
<!-- Node10&#45;&gt;Node2 -->
<g id="edge22" class="edge"><title>Node10&#45;&gt;Node2</title>
<path fill="none" stroke="midnightblue" d="M2736.17,-68.1029C2733.14,-67.6976 2730.14,-67.3268 2727.2,-67 2345.21,-24.6279 2246.68,-56.5697 1863.2,-31 1830.74,-28.8361 1794.61,-25.5835 1765.1,-22.707"/>
<polygon fill="midnightblue" stroke="midnightblue" points="1765.25,-19.2049 1754.96,-21.7076 1764.57,-26.1712 1765.25,-19.2049"/>
</g>
<!-- Node10&#45;&gt;Node3 -->
<g id="edge23" class="edge"><title>Node10&#45;&gt;Node3</title>
<path fill="none" stroke="midnightblue" d="M2736.16,-68.1825C2733.14,-67.7554 2730.14,-67.3583 2727.2,-67 2455.57,-33.9238 2129.25,-21.8657 1992.5,-18.0516"/>
<polygon fill="midnightblue" stroke="midnightblue" points="1992.29,-14.5448 1982.2,-17.7701 1992.1,-21.5422 1992.29,-14.5448"/>
</g>
<!-- Node11&#45;&gt;Node2 -->
<g id="edge25" class="edge"><title>Node11&#45;&gt;Node2</title>
<path fill="none" stroke="midnightblue" d="M2896.17,-68.0786C2893.15,-67.68 2890.14,-67.3172 2887.2,-67 2434.42,-18.2652 2317.68,-59.8202 1863.2,-31 1830.74,-28.9416 1794.61,-25.6972 1765.1,-22.7988"/>
<polygon fill="midnightblue" stroke="midnightblue" points="1765.25,-19.2969 1754.95,-21.7906 1764.56,-26.2625 1765.25,-19.2969"/>
</g>
<!-- Node11&#45;&gt;Node3 -->
<g id="edge26" class="edge"><title>Node11&#45;&gt;Node3</title>
<path fill="none" stroke="midnightblue" d="M2896.17,-68.1435C2893.14,-67.7271 2890.14,-67.3429 2887.2,-67 2552.35,-28.007 2148.27,-19.1076 1992.66,-17.0881"/>
<polygon fill="midnightblue" stroke="midnightblue" points="1992.37,-13.5844 1982.33,-16.9595 1992.28,-20.5838 1992.37,-13.5844"/>
</g>
<!-- Node12&#45;&gt;Node2 -->
<g id="edge28" class="edge"><title>Node12&#45;&gt;Node2</title>
<path fill="none" stroke="midnightblue" d="M3056.18,-68.061C3053.15,-67.6671 3050.14,-67.3102 3047.2,-67 2523.62,-11.9013 2388.68,-63.0713 1863.2,-31 1830.73,-29.0186 1794.6,-25.7802 1765.09,-22.8659"/>
<polygon fill="midnightblue" stroke="midnightblue" points="1765.25,-19.364 1754.95,-21.8512 1764.55,-26.3293 1765.25,-19.364"/>
</g>
<!-- Node12&#45;&gt;Node3 -->
<g id="edge29" class="edge"><title>Node12&#45;&gt;Node3</title>
<path fill="none" stroke="midnightblue" d="M3056.17,-68.1156C3053.14,-67.7068 3050.14,-67.3318 3047.2,-67 2648.44,-22.0783 2165.56,-16.758 1992.67,-16.3891"/>
<polygon fill="midnightblue" stroke="midnightblue" points="1992.47,-12.8888 1982.47,-16.3724 1992.46,-19.8888 1992.47,-12.8888"/>
</g>
<!-- Node13&#45;&gt;Node2 -->
<g id="edge31" class="edge"><title>Node13&#45;&gt;Node2</title>
<path fill="none" stroke="midnightblue" d="M3216.18,-68.0475C3213.15,-67.6573 3210.14,-67.3049 3207.2,-67 2612.82,-5.53677 2459.7,-66.3229 1863.2,-31 1830.73,-29.0773 1794.6,-25.8435 1765.09,-22.917"/>
<polygon fill="midnightblue" stroke="midnightblue" points="1765.25,-19.4152 1754.95,-21.8974 1764.55,-26.3801 1765.25,-19.4152"/>
</g>
<!-- Node13&#45;&gt;Node3 -->
<g id="edge32" class="edge"><title>Node13&#45;&gt;Node3</title>
<path fill="none" stroke="midnightblue" d="M3216.17,-68.0946C3213.14,-67.6916 3210.14,-67.3235 3207.2,-67 2743.75,-16.1103 2180.95,-14.7029 1992.32,-15.8619"/>
<polygon fill="midnightblue" stroke="midnightblue" points="1992.27,-12.3621 1982.29,-15.9282 1992.32,-19.362 1992.27,-12.3621"/>
</g>
<!-- Node14&#45;&gt;Node2 -->
<g id="edge34" class="edge"><title>Node14&#45;&gt;Node2</title>
<path fill="none" stroke="midnightblue" d="M3376.18,-68.0369C3373.15,-67.6496 3370.15,-67.3007 3367.2,-67 2702.01,0.82825 2530.72,-69.5747 1863.2,-31 1830.72,-29.1235 1794.59,-25.8933 1765.09,-22.9573"/>
<polygon fill="midnightblue" stroke="midnightblue" points="1765.25,-19.4555 1754.94,-21.9338 1764.54,-26.4201 1765.25,-19.4555"/>
</g>
<!-- Node14&#45;&gt;Node3 -->
<g id="edge35" class="edge"><title>Node14&#45;&gt;Node3</title>
<path fill="none" stroke="midnightblue" d="M3376.17,-68.0783C3373.15,-67.6797 3370.14,-67.3171 3367.2,-67 3095.18,-37.7335 2236.74,-21.6119 1992.57,-17.5383"/>
<polygon fill="midnightblue" stroke="midnightblue" points="1992.49,-14.0366 1982.43,-17.3703 1992.37,-21.0356 1992.49,-14.0366"/>
</g>
<!-- Node15&#45;&gt;Node2 -->
<g id="edge37" class="edge"><title>Node15&#45;&gt;Node2</title>
<path fill="none" stroke="midnightblue" d="M3536.18,-68.0283C3533.15,-67.6434 3530.15,-67.2973 3527.2,-67 2791.2,7.19361 2601.74,-72.8267 1863.2,-31 1830.72,-29.1609 1794.59,-25.9335 1765.09,-22.9898"/>
<polygon fill="midnightblue" stroke="midnightblue" points="1765.24,-19.4881 1754.94,-21.9632 1764.54,-26.4525 1765.24,-19.4881"/>
</g>
<!-- Node15&#45;&gt;Node3 -->
<g id="edge38" class="edge"><title>Node15&#45;&gt;Node3</title>
<path fill="none" stroke="midnightblue" d="M3536.17,-68.0653C3533.15,-67.6703 3530.14,-67.3119 3527.2,-67 3222.08,-34.7126 2253.04,-20.5537 1992.32,-17.2704"/>
<polygon fill="midnightblue" stroke="midnightblue" points="1992.3,-13.77 1982.25,-17.1446 1992.21,-20.7694 1992.3,-13.77"/>
</g>
<!-- Node16&#45;&gt;Node2 -->
<g id="edge40" class="edge"><title>Node16&#45;&gt;Node2</title>
<path fill="none" stroke="midnightblue" d="M158.218,-68.07C161.246,-67.6737 164.249,-67.3138 167.196,-67 461.501,-35.6676 1398.46,-20.7426 1645.18,-17.2945"/>
<polygon fill="midnightblue" stroke="midnightblue" points="1645.43,-20.7915 1655.38,-17.153 1645.34,-13.7922 1645.43,-20.7915"/>
</g>
<!-- Node16&#45;&gt;Node3 -->
<g id="edge41" class="edge"><title>Node16&#45;&gt;Node3</title>
<path fill="none" stroke="midnightblue" d="M158.214,-68.0317C161.244,-67.6459 164.247,-67.2986 167.196,-67 873.542,4.52808 1055.34,-70.4753 1764.2,-31 1796.42,-29.2054 1832.15,-26.1481 1861.92,-23.3021"/>
<polygon fill="midnightblue" stroke="midnightblue" points="1862.57,-26.7555 1872.18,-22.3067 1861.89,-19.7882 1862.57,-26.7555"/>
</g>
<!-- Node17&#45;&gt;Node2 -->
<g id="edge43" class="edge"><title>Node17&#45;&gt;Node2</title>
<path fill="none" stroke="midnightblue" d="M318.22,-68.0842C321.248,-67.684 324.249,-67.3194 327.196,-67 588.552,-38.672 1415.69,-21.7813 1645.47,-17.5532"/>
<polygon fill="midnightblue" stroke="midnightblue" points="1645.7,-21.0496 1655.63,-17.3672 1645.57,-14.0508 1645.7,-21.0496"/>
</g>
<!-- Node17&#45;&gt;Node3 -->
<g id="edge44" class="edge"><title>Node17&#45;&gt;Node3</title>
<path fill="none" stroke="midnightblue" d="M318.215,-68.041C321.244,-67.6526 324.248,-67.3023 327.196,-67 962.731,-1.83715 1126.36,-67.3225 1764.2,-31 1796.42,-29.165 1832.14,-26.1031 1861.92,-23.2646"/>
<polygon fill="midnightblue" stroke="midnightblue" points="1862.57,-26.7182 1872.18,-22.2723 1861.89,-19.7507 1862.57,-26.7182"/>
</g>
<!-- Node18&#45;&gt;Node2 -->
<g id="edge46" class="edge"><title>Node18&#45;&gt;Node2</title>
<path fill="none" stroke="midnightblue" d="M478.222,-68.1021C481.249,-67.697 484.25,-67.3265 487.196,-67 929.847,-17.945 1467.77,-15.4145 1645.24,-16.0678"/>
<polygon fill="midnightblue" stroke="midnightblue" points="1645.4,-19.5684 1655.41,-16.1103 1645.43,-12.5684 1645.4,-19.5684"/>
</g>
<!-- Node18&#45;&gt;Node3 -->
<g id="edge47" class="edge"><title>Node18&#45;&gt;Node3</title>
<path fill="none" stroke="midnightblue" d="M478.216,-68.0527C481.245,-67.6611 484.248,-67.307 487.196,-67 1051.92,-8.202 1197.38,-64.1699 1764.2,-31 1796.42,-29.1144 1832.14,-26.0469 1861.91,-23.2177"/>
<polygon fill="midnightblue" stroke="midnightblue" points="1862.56,-26.6715 1872.18,-22.2293 1861.89,-19.7038 1862.56,-26.6715"/>
</g>
<!-- Node19&#45;&gt;Node2 -->
<g id="edge49" class="edge"><title>Node19&#45;&gt;Node2</title>
<path fill="none" stroke="midnightblue" d="M638.224,-68.1254C641.251,-67.7139 644.251,-67.3357 647.196,-67 1025.32,-23.8981 1483.53,-17.4812 1645.22,-16.6044"/>
<polygon fill="midnightblue" stroke="midnightblue" points="1645.45,-20.1034 1655.43,-16.5543 1645.42,-13.1035 1645.45,-20.1034"/>
</g>
<!-- Node19&#45;&gt;Node3 -->
<g id="edge50" class="edge"><title>Node19&#45;&gt;Node3</title>
<path fill="none" stroke="midnightblue" d="M638.218,-68.0677C641.246,-67.6721 644.249,-67.3129 647.196,-67 1141.12,-14.5663 1268.4,-61.0177 1764.2,-31 1796.41,-29.0495 1832.14,-25.9746 1861.91,-23.1574"/>
<polygon fill="midnightblue" stroke="midnightblue" points="1862.56,-26.6115 1872.18,-22.1739 1861.89,-19.6434 1862.56,-26.6115"/>
</g>
<!-- Node20&#45;&gt;Node2 -->
<g id="edge52" class="edge"><title>Node20&#45;&gt;Node2</title>
<path fill="none" stroke="midnightblue" d="M798.228,-68.157C801.254,-67.7368 804.253,-67.3482 807.196,-67 1121.11,-29.8684 1500.08,-19.8834 1644.93,-17.3306"/>
<polygon fill="midnightblue" stroke="midnightblue" points="1645.42,-20.8228 1655.36,-17.1526 1645.3,-13.8239 1645.42,-20.8228"/>
</g>
<!-- Node20&#45;&gt;Node3 -->
<g id="edge53" class="edge"><title>Node20&#45;&gt;Node3</title>
<path fill="none" stroke="midnightblue" d="M798.22,-68.0878C801.248,-67.6866 804.249,-67.3208 807.196,-67 1230.33,-20.9297 1339.41,-57.8659 1764.2,-31 1796.41,-28.9628 1832.13,-25.8781 1861.9,-23.0769"/>
<polygon fill="midnightblue" stroke="midnightblue" points="1862.55,-26.5315 1872.17,-22.1001 1861.89,-19.563 1862.55,-26.5315"/>
</g>
<!-- Node21&#45;&gt;Node2 -->
<g id="edge55" class="edge"><title>Node21&#45;&gt;Node2</title>
<path fill="none" stroke="midnightblue" d="M958.233,-68.2021C961.258,-67.7696 964.255,-67.3661 967.196,-67 1217.9,-35.8003 1519.09,-22.7306 1645.13,-18.3506"/>
<polygon fill="midnightblue" stroke="midnightblue" points="1645.47,-21.8413 1655.34,-18.0016 1645.23,-14.8454 1645.47,-21.8413"/>
</g>
<!-- Node21&#45;&gt;Node3 -->
<g id="edge56" class="edge"><title>Node21&#45;&gt;Node3</title>
<path fill="none" stroke="midnightblue" d="M958.223,-68.1159C961.25,-67.707 964.251,-67.3319 967.196,-67 1319.55,-27.2917 1410.41,-54.7149 1764.2,-31 1796.4,-28.8414 1832.12,-25.7431 1861.9,-22.9642"/>
<polygon fill="midnightblue" stroke="midnightblue" points="1862.54,-26.4194 1872.17,-21.9967 1861.88,-19.4503 1862.54,-26.4194"/>
</g>
<!-- Node22&#45;&gt;Node2 -->
<g id="edge58" class="edge"><title>Node22&#45;&gt;Node2</title>
<path fill="none" stroke="midnightblue" d="M1118.24,-68.2721C1121.26,-67.8205 1124.26,-67.3937 1127.2,-67 1315.6,-41.7496 1540.33,-26.2841 1645.45,-19.8989"/>
<polygon fill="midnightblue" stroke="midnightblue" points="1645.77,-23.3857 1655.54,-19.2912 1645.35,-16.3984 1645.77,-23.3857"/>
</g>
<!-- Node22&#45;&gt;Node3 -->
<g id="edge59" class="edge"><title>Node22&#45;&gt;Node3</title>
<path fill="none" stroke="midnightblue" d="M1118.23,-68.158C1121.25,-67.7376 1124.25,-67.3486 1127.2,-67 1408.79,-33.6512 1481.38,-51.5655 1764.2,-31 1796.39,-28.6592 1832.11,-25.5404 1861.88,-22.7951"/>
<polygon fill="midnightblue" stroke="midnightblue" points="1862.52,-26.2513 1872.15,-21.8416 1861.87,-19.2812 1862.52,-26.2513"/>
</g>
<!-- Node23&#45;&gt;Node2 -->
<g id="edge61" class="edge"><title>Node23&#45;&gt;Node2</title>
<path fill="none" stroke="midnightblue" d="M1278.26,-68.3948C1281.28,-67.9096 1284.27,-67.4423 1287.2,-67 1414.39,-47.8071 1564.23,-31.1385 1645.48,-22.5927"/>
<polygon fill="midnightblue" stroke="midnightblue" points="1645.94,-26.0637 1655.52,-21.5412 1645.21,-19.1018 1645.94,-26.0637"/>
</g>
<!-- Node23&#45;&gt;Node3 -->
<g id="edge62" class="edge"><title>Node23&#45;&gt;Node3</title>
<path fill="none" stroke="midnightblue" d="M1278.24,-68.2282C1281.26,-67.7886 1284.26,-67.3764 1287.2,-67 1498.08,-40.0053 1552.31,-48.4195 1764.2,-31 1796.36,-28.3555 1832.08,-25.2026 1861.86,-22.5133"/>
<polygon fill="midnightblue" stroke="midnightblue" points="1862.49,-25.9708 1872.13,-21.583 1861.86,-18.9994 1862.49,-25.9708"/>
</g>
<!-- Node24&#45;&gt;Node2 -->
<g id="edge64" class="edge"><title>Node24&#45;&gt;Node2</title>
<path fill="none" stroke="midnightblue" d="M1438.46,-67.7946C1501.87,-55.6021 1593.23,-38.0326 1650.88,-26.9456"/>
<polygon fill="midnightblue" stroke="midnightblue" points="1651.73,-30.3468 1660.89,-25.0212 1650.4,-23.4728 1651.73,-30.3468"/>
</g>
<!-- Node24&#45;&gt;Node3 -->
<g id="edge65" class="edge"><title>Node24&#45;&gt;Node3</title>
<path fill="none" stroke="midnightblue" d="M1438.25,-68.3377C1441.27,-67.8681 1444.26,-67.4197 1447.2,-67 1525.52,-55.7972 1749.51,-33.6402 1861.62,-22.7879"/>
<polygon fill="midnightblue" stroke="midnightblue" points="1862.17,-26.2513 1871.78,-21.8053 1861.49,-19.2838 1862.17,-26.2513"/>
</g>
<!-- Node25&#45;&gt;Node2 -->
<g id="edge67" class="edge"><title>Node25&#45;&gt;Node2</title>
<path fill="none" stroke="midnightblue" d="M1565.82,-67.396C1597.6,-55.7891 1642.17,-39.5147 1672.28,-28.5192"/>
<polygon fill="midnightblue" stroke="midnightblue" points="1673.71,-31.7249 1681.9,-25.007 1671.31,-25.1495 1673.71,-31.7249"/>
</g>
<!-- Node25&#45;&gt;Node3 -->
<g id="edge68" class="edge"><title>Node25&#45;&gt;Node3</title>
<path fill="none" stroke="midnightblue" d="M1598.28,-68.5291C1601.29,-68.0071 1604.27,-67.4954 1607.2,-67 1695.23,-52.0775 1797.14,-36.242 1861.86,-26.3647"/>
<polygon fill="midnightblue" stroke="midnightblue" points="1862.56,-29.7983 1871.92,-24.8317 1861.51,-22.8782 1862.56,-29.7983"/>
</g>
<!-- Node26&#45;&gt;Node2 -->
<g id="edge70" class="edge"><title>Node26&#45;&gt;Node2</title>
<path fill="none" stroke="midnightblue" d="M1691.1,-67.396C1693.74,-57.8631 1697.25,-45.1818 1700.11,-34.8624"/>
<polygon fill="midnightblue" stroke="midnightblue" points="1703.49,-35.7659 1702.79,-25.1945 1696.75,-33.8977 1703.49,-35.7659"/>
</g>
<!-- Node26&#45;&gt;Node3 -->
<g id="edge71" class="edge"><title>Node26&#45;&gt;Node3</title>
<path fill="none" stroke="midnightblue" d="M1738.98,-67.476C1776.07,-57.4297 1826.19,-43.8564 1865.38,-33.2418"/>
<polygon fill="midnightblue" stroke="midnightblue" points="1866.36,-36.6034 1875.09,-30.6109 1864.53,-29.8469 1866.36,-36.6034"/>
</g>
</g>
</svg>
        <g id="navigator" transform="translate(0 0)" fill="#404254">
                <rect fill="#f2f5e9" fill-opacity="0.5" stroke="#606060" stroke-width=".5" x="0" y="0" width="60" height="60"/>
                <use id="zoomplus" xlink:href="#zoomPlus" x="17" y="9" onmousedown="handleZoom(evt,'in')"/>
                <use id="zoomminus" xlink:href="#zoomMin" x="42" y="9" onmousedown="handleZoom(evt,'out')"/>
                <use id="reset" xlink:href="#resetDef" x="30" y="36" onmousedown="handleReset()"/>
                <g id="arrowUp" xlink:href="#dirArrow" transform="translate(30 24)" onmousedown="handlePan(0,-1)">
                  <use xlink:href="#rim" fill="#404040">
                        <set attributeName="fill" to="#808080" begin="arrowUp.mouseover" end="arrowUp.mouseout"/>
                  </use>
                  <path fill="none" stroke="white" stroke-width="1.5" d="M0,-3.0v7 M-2.5,-0.5L0,-3.0L2.5,-0.5"/>
                </g>
                <g id="arrowRight" xlink:href="#dirArrow" transform="rotate(90) translate(36 -43)" onmousedown="handlePan(1,0)">
                  <use xlink:href="#rim" fill="#404040">
                        <set attributeName="fill" to="#808080" begin="arrowRight.mouseover" end="arrowRight.mouseout"/>
                  </use>
                  <path fill="none" stroke="white" stroke-width="1.5" d="M0,-3.0v7 M-2.5,-0.5L0,-3.0L2.5,-0.5"/>
                </g>
                <g id="arrowDown" xlink:href="#dirArrow" transform="rotate(180) translate(-30 -48)" onmousedown="handlePan(0,1)">
                  <use xlink:href="#rim" fill="#404040">
                        <set attributeName="fill" to="#808080" begin="arrowDown.mouseover" end="arrowDown.mouseout"/>
                  </use>
                  <path fill="none" stroke="white" stroke-width="1.5" d="M0,-3.0v7 M-2.5,-0.5L0,-3.0L2.5,-0.5"/>
                </g>
                <g id="arrowLeft" xlink:href="#dirArrow" transform="rotate(270) translate(-36 17)" onmousedown="handlePan(-1,0)">
                  <use xlink:href="#rim" fill="#404040">
                        <set attributeName="fill" to="#808080" begin="arrowLeft.mouseover" end="arrowLeft.mouseout"/>
                  </use>
                  <path fill="none" stroke="white" stroke-width="1.5" d="M0,-3.0v7 M-2.5,-0.5L0,-3.0L2.5,-0.5"/>
                </g>
        </g>
        <svg viewBox="0 0 15 15" width="100%" height="30px" preserveAspectRatio="xMaxYMin meet">
         <g id="arrow_out" transform="scale(0.3 0.3)">
          <a xlink:href="_dwarf_elephant_r_b_structures_t16_f16_o80_steady_state_8h__incl_org.svg" target="_base">
           <rect id="button" ry="5" rx="5" y="6" x="6" height="38" width="38"
                fill="#f2f5e9" fill-opacity="0.5" stroke="#606060" stroke-width="1.0"/>
           <path id="arrow"
             d="M 11.500037,31.436501 C 11.940474,20.09759 22.043105,11.32322 32.158766,21.979434 L 37.068811,17.246167 C 37.068811,17.246167 37.088388,32 37.088388,32 L 22.160133,31.978069 C 22.160133,31.978069 26.997745,27.140456 26.997745,27.140456 C 18.528582,18.264221 13.291696,25.230495 11.500037,31.436501 z"
             style="fill:#404040;"/>
          </a>
         </g>
        </svg>
</svg>
