<?xml version="1.0" encoding="UTF-8" standalone="no"?>
<!DOCTYPE svg PUBLIC "-//W3C//DTD SVG 1.1//EN"
 "http://www.w3.org/Graphics/SVG/1.1/DTD/svg11.dtd">
<!-- Generated by graphviz version 2.38.0 (20140413.2041)
 -->
<!-- Title: include/vectorpostprocessors/DwarfElephantFEFilePointValues.h Pages: 1 -->
<svg width="354pt" height="106pt"
 viewBox="0.00 0.00 353.50 106.00" xmlns="http://www.w3.org/2000/svg" xmlns:xlink="http://www.w3.org/1999/xlink">
<g id="graph0" class="graph" transform="scale(1 1) rotate(0) translate(4 102)">
<title>include/vectorpostprocessors/DwarfElephantFEFilePointValues.h</title>
<polygon fill="white" stroke="none" points="-4,4 -4,-102 349.5,-102 349.5,4 -4,4"/>
<!-- Node1 -->
<g id="node1" class="node"><title>Node1</title>
<polygon fill="#bfbfbf" stroke="black" points="78.5,-67.5 78.5,-97.5 253.5,-97.5 253.5,-67.5 78.5,-67.5"/>
<text text-anchor="start" x="86.5" y="-85.5" font-family="Helvetica,sans-Serif" font-size="10.00">include/vectorpostprocessors</text>
<text text-anchor="middle" x="166" y="-74.5" font-family="Helvetica,sans-Serif" font-size="10.00">/DwarfElephantFEFilePointValues.h</text>
</g>
<!-- Node2 -->
<g id="node2" class="node"><title>Node2</title>
<g id="a_node2"><a xlink:href="_dwarf_elephant_app_8_c.html" target="_top" xlink:title="src/base/DwarfElephantApp.C">
<polygon fill="white" stroke="black" points="0,-6 0,-25 150,-25 150,-6 0,-6"/>
<text text-anchor="middle" x="75" y="-13" font-family="Helvetica,sans-Serif" font-size="10.00">src/base/DwarfElephantApp.C</text>
</a>
</g>
</g>
<!-- Node1&#45;&gt;Node2 -->
<g id="edge1" class="edge"><title>Node1&#45;&gt;Node2</title>
<path fill="none" stroke="midnightblue" d="M137.728,-61.3056C120.64,-49.0999 99.7481,-34.1772 86.9098,-25.007"/>
<polygon fill="midnightblue" stroke="midnightblue" points="136.083,-64.4316 146.254,-67.396 140.151,-58.7355 136.083,-64.4316"/>
</g>
<!-- Node3 -->
<g id="node3" class="node"><title>Node3</title>
<g id="a_node3"><a xlink:href="_dwarf_elephant_f_e_file_point_values_8_c.html" target="_top" xlink:title="src/vectorpostprocessors\l/DwarfElephantFEFilePointValues.C">
<polygon fill="white" stroke="black" points="168.5,-0.5 168.5,-30.5 345.5,-30.5 345.5,-0.5 168.5,-0.5"/>
<text text-anchor="start" x="176.5" y="-18.5" font-family="Helvetica,sans-Serif" font-size="10.00">src/vectorpostprocessors</text>
<text text-anchor="middle" x="257" y="-7.5" font-family="Helvetica,sans-Serif" font-size="10.00">/DwarfElephantFEFilePointValues.C</text>
</a>
</g>
</g>
<!-- Node1&#45;&gt;Node3 -->
<g id="edge2" class="edge"><title>Node1&#45;&gt;Node3</title>
<path fill="none" stroke="midnightblue" d="M194.068,-61.4511C208.068,-51.4517 224.661,-39.5995 237.293,-30.5765"/>
<polygon fill="midnightblue" stroke="midnightblue" points="191.849,-58.7355 185.746,-67.396 195.917,-64.4316 191.849,-58.7355"/>
</g>
</g>
</svg>
