<?xml version="1.0" encoding="UTF-8" standalone="no"?>
<!DOCTYPE svg PUBLIC "-//W3C//DTD SVG 1.1//EN"
 "http://www.w3.org/Graphics/SVG/1.1/DTD/svg11.dtd">
<!-- Generated by graphviz version 2.38.0 (20140413.2041)
 -->
<!-- Title: src/kernels/DwarfElephantRBKernel.C Pages: 1 -->
<svg width="4008pt" height="352pt"
 viewBox="0.00 0.00 4008.00 352.00" xmlns="http://www.w3.org/2000/svg" xmlns:xlink="http://www.w3.org/1999/xlink">
<g id="graph0" class="graph" transform="scale(1 1) rotate(0) translate(4 348)">
<title>src/kernels/DwarfElephantRBKernel.C</title>
<polygon fill="white" stroke="none" points="-4,4 -4,-348 4004,-348 4004,4 -4,4"/>
<!-- Node1 -->
<g id="node1" class="node"><title>Node1</title>
<polygon fill="#bfbfbf" stroke="black" points="2536.5,-313.5 2536.5,-343.5 2669.5,-343.5 2669.5,-313.5 2536.5,-313.5"/>
<text text-anchor="start" x="2544.5" y="-331.5" font-family="Helvetica,sans-Serif" font-size="10.00">src/kernels/DwarfElephant</text>
<text text-anchor="middle" x="2603" y="-320.5" font-family="Helvetica,sans-Serif" font-size="10.00">RBKernel.C</text>
</g>
<!-- Node2 -->
<g id="node2" class="node"><title>Node2</title>
<polygon fill="white" stroke="#bfbfbf" points="2177.5,-257.5 2177.5,-276.5 2272.5,-276.5 2272.5,-257.5 2177.5,-257.5"/>
<text text-anchor="middle" x="2225" y="-264.5" font-family="Helvetica,sans-Serif" font-size="10.00">libmesh/threads.h</text>
</g>
<!-- Node1&#45;&gt;Node2 -->
<g id="edge1" class="edge"><title>Node1&#45;&gt;Node2</title>
<path fill="none" stroke="midnightblue" d="M2536.29,-317.017C2473.58,-307.159 2376.8,-291.939 2282.58,-277.09"/>
<polygon fill="midnightblue" stroke="midnightblue" points="2283.01,-273.615 2272.59,-275.516 2281.92,-280.53 2283.01,-273.615"/>
</g>
<!-- Node3 -->
<g id="node3" class="node"><title>Node3</title>
<polygon fill="white" stroke="#bfbfbf" points="2291,-257.5 2291,-276.5 2401,-276.5 2401,-257.5 2291,-257.5"/>
<text text-anchor="middle" x="2346" y="-264.5" font-family="Helvetica,sans-Serif" font-size="10.00">libmesh/quadrature.h</text>
</g>
<!-- Node1&#45;&gt;Node3 -->
<g id="edge2" class="edge"><title>Node1&#45;&gt;Node3</title>
<path fill="none" stroke="midnightblue" d="M2542.42,-313.475C2496.63,-302.874 2434.69,-288.534 2392.7,-278.812"/>
<polygon fill="midnightblue" stroke="midnightblue" points="2393.27,-275.352 2382.74,-276.506 2391.69,-282.172 2393.27,-275.352"/>
</g>
<!-- Node4 -->
<g id="node4" class="node"><title>Node4</title>
<polygon fill="white" stroke="#bfbfbf" points="2419,-257.5 2419,-276.5 2487,-276.5 2487,-257.5 2419,-257.5"/>
<text text-anchor="middle" x="2453" y="-264.5" font-family="Helvetica,sans-Serif" font-size="10.00">Assembly.h</text>
</g>
<!-- Node1&#45;&gt;Node4 -->
<g id="edge3" class="edge"><title>Node1&#45;&gt;Node4</title>
<path fill="none" stroke="midnightblue" d="M2567.45,-313.399C2542.17,-303.372 2508.53,-290.028 2484.27,-280.405"/>
<polygon fill="midnightblue" stroke="midnightblue" points="2485.41,-277.092 2474.83,-276.658 2482.83,-283.598 2485.41,-277.092"/>
</g>
<!-- Node5 -->
<g id="node5" class="node"><title>Node5</title>
<polygon fill="white" stroke="#bfbfbf" points="2469,-134.5 2469,-153.5 2561,-153.5 2561,-134.5 2469,-134.5"/>
<text text-anchor="middle" x="2515" y="-141.5" font-family="Helvetica,sans-Serif" font-size="10.00">MooseVariable.h</text>
</g>
<!-- Node1&#45;&gt;Node5 -->
<g id="edge4" class="edge"><title>Node1&#45;&gt;Node5</title>
<path fill="none" stroke="midnightblue" d="M2574.09,-313.445C2559.7,-304.921 2543.4,-292.652 2534,-277 2512.61,-241.4 2511.87,-190.882 2513.34,-163.83"/>
<polygon fill="midnightblue" stroke="midnightblue" points="2516.84,-164.007 2514.05,-153.785 2509.85,-163.512 2516.84,-164.007"/>
</g>
<!-- Node6 -->
<g id="node6" class="node"><title>Node6</title>
<polygon fill="white" stroke="#bfbfbf" points="2543,-257.5 2543,-276.5 2663,-276.5 2663,-257.5 2543,-257.5"/>
<text text-anchor="middle" x="2603" y="-264.5" font-family="Helvetica,sans-Serif" font-size="10.00">MooseVariableScalar.h</text>
</g>
<!-- Node1&#45;&gt;Node6 -->
<g id="edge5" class="edge"><title>Node1&#45;&gt;Node6</title>
<path fill="none" stroke="midnightblue" d="M2603,-313.399C2603,-305.466 2603,-295.458 2603,-286.858"/>
<polygon fill="midnightblue" stroke="midnightblue" points="2606.5,-286.658 2603,-276.658 2599.5,-286.658 2606.5,-286.658"/>
</g>
<!-- Node7 -->
<g id="node7" class="node"><title>Node7</title>
<polygon fill="white" stroke="#bfbfbf" points="2681,-257.5 2681,-276.5 2743,-276.5 2743,-257.5 2681,-257.5"/>
<text text-anchor="middle" x="2712" y="-264.5" font-family="Helvetica,sans-Serif" font-size="10.00">Problem.h</text>
</g>
<!-- Node1&#45;&gt;Node7 -->
<g id="edge6" class="edge"><title>Node1&#45;&gt;Node7</title>
<path fill="none" stroke="midnightblue" d="M2628.83,-313.399C2646.47,-303.773 2669.7,-291.09 2687.13,-281.577"/>
<polygon fill="midnightblue" stroke="midnightblue" points="2689.04,-284.521 2696.14,-276.658 2685.69,-278.377 2689.04,-284.521"/>
</g>
<!-- Node8 -->
<g id="node8" class="node"><title>Node8</title>
<polygon fill="white" stroke="#bfbfbf" points="2761,-257.5 2761,-276.5 2841,-276.5 2841,-257.5 2761,-257.5"/>
<text text-anchor="middle" x="2801" y="-264.5" font-family="Helvetica,sans-Serif" font-size="10.00">SubProblem.h</text>
</g>
<!-- Node1&#45;&gt;Node8 -->
<g id="edge7" class="edge"><title>Node1&#45;&gt;Node8</title>
<path fill="none" stroke="midnightblue" d="M2649.67,-313.475C2684.13,-303.12 2730.46,-289.199 2762.74,-279.498"/>
<polygon fill="midnightblue" stroke="midnightblue" points="2764.12,-282.736 2772.69,-276.506 2762.11,-276.032 2764.12,-282.736"/>
</g>
<!-- Node9 -->
<g id="node9" class="node"><title>Node9</title>
<polygon fill="white" stroke="#bfbfbf" points="2859.5,-257.5 2859.5,-276.5 2940.5,-276.5 2940.5,-257.5 2859.5,-257.5"/>
<text text-anchor="middle" x="2900" y="-264.5" font-family="Helvetica,sans-Serif" font-size="10.00">SystemBase.h</text>
</g>
<!-- Node1&#45;&gt;Node9 -->
<g id="edge8" class="edge"><title>Node1&#45;&gt;Node9</title>
<path fill="none" stroke="midnightblue" d="M2669.65,-314.147C2724.05,-303.249 2799.77,-288.08 2849.31,-278.154"/>
<polygon fill="midnightblue" stroke="midnightblue" points="2850.05,-281.577 2859.17,-276.181 2848.67,-274.713 2850.05,-281.577"/>
</g>
<!-- Node10 -->
<g id="node10" class="node"><title>Node10</title>
<g id="a_node10"><a xlink:href="_dwarf_elephant_r_b_kernel_8h.html" target="_top" xlink:title="DwarfElephantRBKernel.h">
<polygon fill="white" stroke="black" points="2958.5,-257.5 2958.5,-276.5 3091.5,-276.5 3091.5,-257.5 2958.5,-257.5"/>
<text text-anchor="middle" x="3025" y="-264.5" font-family="Helvetica,sans-Serif" font-size="10.00">DwarfElephantRBKernel.h</text>
</a>
</g>
</g>
<!-- Node1&#45;&gt;Node10 -->
<g id="edge9" class="edge"><title>Node1&#45;&gt;Node10</title>
<path fill="none" stroke="midnightblue" d="M2669.87,-318.072C2747.49,-307.127 2874.97,-289.153 2954.22,-277.979"/>
<polygon fill="midnightblue" stroke="midnightblue" points="2955.19,-281.378 2964.6,-276.516 2954.21,-274.447 2955.19,-281.378"/>
</g>
<!-- Node11 -->
<g id="node11" class="node"><title>Node11</title>
<polygon fill="white" stroke="#bfbfbf" points="2835.5,-134.5 2835.5,-153.5 2978.5,-153.5 2978.5,-134.5 2835.5,-134.5"/>
<text text-anchor="middle" x="2907" y="-141.5" font-family="Helvetica,sans-Serif" font-size="10.00">libmesh/equation_systems.h</text>
</g>
<!-- Node10&#45;&gt;Node11 -->
<g id="edge10" class="edge"><title>Node10&#45;&gt;Node11</title>
<path fill="none" stroke="midnightblue" d="M3024.2,-257.413C3022.36,-242.11 3016.53,-209.872 2999,-190 2985.6,-174.81 2965.91,-164.229 2948.18,-157.162"/>
<polygon fill="midnightblue" stroke="midnightblue" points="2949.18,-153.799 2938.59,-153.591 2946.74,-160.359 2949.18,-153.799"/>
</g>
<!-- Node12 -->
<g id="node12" class="node"><title>Node12</title>
<polygon fill="white" stroke="#bfbfbf" points="3742.5,-6 3742.5,-25 3867.5,-25 3867.5,-6 3742.5,-6"/>
<text text-anchor="middle" x="3805" y="-13" font-family="Helvetica,sans-Serif" font-size="10.00">libmesh/sparse_matrix.h</text>
</g>
<!-- Node10&#45;&gt;Node12 -->
<g id="edge11" class="edge"><title>Node10&#45;&gt;Node12</title>
<path fill="none" stroke="midnightblue" d="M3091.59,-261.775C3179.21,-255.65 3337.82,-242.609 3472,-221 3607.31,-199.209 3647.1,-208.162 3773,-154 3813.88,-136.414 3835.11,-137.293 3856,-98 3862.47,-85.8345 3861.3,-79.716 3856,-67 3849.96,-52.5206 3837.53,-40.0684 3826.45,-31.1517"/>
<polygon fill="midnightblue" stroke="midnightblue" points="3828.46,-28.2832 3818.37,-25.0473 3824.24,-33.8682 3828.46,-28.2832"/>
</g>
<!-- Node13 -->
<g id="node13" class="node"><title>Node13</title>
<polygon fill="white" stroke="#bfbfbf" points="3946,-196 3946,-215 4000,-215 4000,-196 3946,-196"/>
<text text-anchor="middle" x="3973" y="-203" font-family="Helvetica,sans-Serif" font-size="10.00">Kernel.h</text>
</g>
<!-- Node10&#45;&gt;Node13 -->
<g id="edge12" class="edge"><title>Node10&#45;&gt;Node13</title>
<path fill="none" stroke="midnightblue" d="M3091.74,-265.194C3272.91,-262.606 3771.13,-252.731 3932,-221 3935.51,-220.307 3939.13,-219.373 3942.7,-218.311"/>
<polygon fill="midnightblue" stroke="midnightblue" points="3944.08,-221.541 3952.47,-215.073 3941.88,-214.896 3944.08,-221.541"/>
</g>
<!-- Node14 -->
<g id="node14" class="node"><title>Node14</title>
<polygon fill="white" stroke="#bfbfbf" points="2579,-134.5 2579,-153.5 2685,-153.5 2685,-134.5 2579,-134.5"/>
<text text-anchor="middle" x="2632" y="-141.5" font-family="Helvetica,sans-Serif" font-size="10.00">DisplacedProblem.h</text>
</g>
<!-- Node10&#45;&gt;Node14 -->
<g id="edge13" class="edge"><title>Node10&#45;&gt;Node14</title>
<path fill="none" stroke="midnightblue" d="M2958.24,-257.85C2856.98,-245.436 2675.92,-223.008 2673,-221 2653.35,-207.509 2642.29,-181.459 2636.73,-163.654"/>
<polygon fill="midnightblue" stroke="midnightblue" points="2640.04,-162.493 2633.96,-153.82 2633.31,-164.395 2640.04,-162.493"/>
</g>
<!-- Node15 -->
<g id="node15" class="node"><title>Node15</title>
<polygon fill="white" stroke="#bfbfbf" points="2682,-196 2682,-215 2806,-215 2806,-196 2682,-196"/>
<text text-anchor="middle" x="2744" y="-203" font-family="Helvetica,sans-Serif" font-size="10.00">NonlinearSystemBase.h</text>
</g>
<!-- Node10&#45;&gt;Node15 -->
<g id="edge14" class="edge"><title>Node10&#45;&gt;Node15</title>
<path fill="none" stroke="midnightblue" d="M2984.74,-257.475C2934.56,-246.849 2848.77,-228.685 2794.31,-217.152"/>
<polygon fill="midnightblue" stroke="midnightblue" points="2794.69,-213.657 2784.19,-215.009 2793.24,-220.505 2794.69,-213.657"/>
</g>
<!-- Node16 -->
<g id="node16" class="node"><title>Node16</title>
<g id="a_node16"><a xlink:href="_dwarf_elephant_initialize_r_b_system_steady_state_8h.html" target="_top" xlink:title="DwarfElephantInitializeRBSystem\lSteadyState.h">
<polygon fill="white" stroke="black" points="2824.5,-190.5 2824.5,-220.5 2989.5,-220.5 2989.5,-190.5 2824.5,-190.5"/>
<text text-anchor="start" x="2832.5" y="-208.5" font-family="Helvetica,sans-Serif" font-size="10.00">DwarfElephantInitializeRBSystem</text>
<text text-anchor="middle" x="2907" y="-197.5" font-family="Helvetica,sans-Serif" font-size="10.00">SteadyState.h</text>
</a>
</g>
</g>
<!-- Node10&#45;&gt;Node16 -->
<g id="edge15" class="edge"><title>Node10&#45;&gt;Node16</title>
<path fill="none" stroke="midnightblue" d="M3008.09,-257.475C2991.44,-249.078 2965.45,-235.973 2943.99,-225.153"/>
<polygon fill="midnightblue" stroke="midnightblue" points="2945.32,-221.9 2934.81,-220.523 2942.16,-228.151 2945.32,-221.9"/>
</g>
<!-- Node49 -->
<g id="node49" class="node"><title>Node49</title>
<g id="a_node49"><a xlink:href="_dwarf_elephant_initialize_r_b_system_transient_8h.html" target="_top" xlink:title="DwarfElephantInitializeRBSystem\lTransient.h">
<polygon fill="white" stroke="black" points="3253.5,-190.5 3253.5,-220.5 3418.5,-220.5 3418.5,-190.5 3253.5,-190.5"/>
<text text-anchor="start" x="3261.5" y="-208.5" font-family="Helvetica,sans-Serif" font-size="10.00">DwarfElephantInitializeRBSystem</text>
<text text-anchor="middle" x="3336" y="-197.5" font-family="Helvetica,sans-Serif" font-size="10.00">Transient.h</text>
</a>
</g>
</g>
<!-- Node10&#45;&gt;Node49 -->
<g id="edge59" class="edge"><title>Node10&#45;&gt;Node49</title>
<path fill="none" stroke="midnightblue" d="M3069.56,-257.475C3117.19,-248.362 3193.8,-233.705 3252.67,-222.442"/>
<polygon fill="midnightblue" stroke="midnightblue" points="3253.54,-225.84 3262.7,-220.523 3252.22,-218.965 3253.54,-225.84"/>
</g>
<!-- Node16&#45;&gt;Node5 -->
<g id="edge23" class="edge"><title>Node16&#45;&gt;Node5</title>
<path fill="none" stroke="midnightblue" d="M2824.25,-191.417C2821.13,-190.936 2818.04,-190.462 2815,-190 2709.38,-173.918 2680.43,-171.048 2571.31,-154.183"/>
<polygon fill="midnightblue" stroke="midnightblue" points="2571.62,-150.69 2561.2,-152.617 2570.55,-157.607 2571.62,-150.69"/>
</g>
<!-- Node16&#45;&gt;Node11 -->
<g id="edge16" class="edge"><title>Node16&#45;&gt;Node11</title>
<path fill="none" stroke="midnightblue" d="M2907,-190.399C2907,-182.466 2907,-172.458 2907,-163.858"/>
<polygon fill="midnightblue" stroke="midnightblue" points="2910.5,-163.658 2907,-153.658 2903.5,-163.658 2910.5,-163.658"/>
</g>
<!-- Node16&#45;&gt;Node12 -->
<g id="edge17" class="edge"><title>Node16&#45;&gt;Node12</title>
<path fill="none" stroke="midnightblue" d="M2871.14,-190.388C2841.46,-176.745 2807.14,-155.094 2827,-134 2872.55,-85.6165 3359.2,-112.746 3424,-98 3459.57,-89.9052 3464.84,-76.7406 3500,-67 3600.98,-39.021 3629.83,-49.3483 3733,-31 3739.83,-29.7849 3747.01,-28.4311 3754.09,-27.0526"/>
<polygon fill="midnightblue" stroke="midnightblue" points="3755.19,-30.4025 3764.32,-25.0283 3753.83,-23.5356 3755.19,-30.4025"/>
</g>
<!-- Node16&#45;&gt;Node14 -->
<g id="edge21" class="edge"><title>Node16&#45;&gt;Node14</title>
<path fill="none" stroke="midnightblue" d="M2842.18,-190.475C2792.87,-179.806 2726.06,-165.352 2681.12,-155.628"/>
<polygon fill="midnightblue" stroke="midnightblue" points="2681.83,-152.2 2671.32,-153.506 2680.35,-159.042 2681.83,-152.2"/>
</g>
<!-- Node17 -->
<g id="node17" class="node"><title>Node17</title>
<polygon fill="white" stroke="#bfbfbf" points="3340.5,-6 3340.5,-25 3459.5,-25 3459.5,-6 3340.5,-6"/>
<text text-anchor="middle" x="3400" y="-13" font-family="Helvetica,sans-Serif" font-size="10.00">libmesh/petsc_matrix.h</text>
</g>
<!-- Node16&#45;&gt;Node17 -->
<g id="edge18" class="edge"><title>Node16&#45;&gt;Node17</title>
<path fill="none" stroke="midnightblue" d="M2847.58,-190.409C2809.85,-178.64 2771.8,-159.647 2793,-134 2870.56,-40.182 3211.65,-54.9622 3331,-31 3337.14,-29.7666 3343.59,-28.4467 3349.97,-27.1242"/>
<polygon fill="midnightblue" stroke="midnightblue" points="3350.82,-30.5232 3359.89,-25.056 3349.39,-23.6705 3350.82,-30.5232"/>
</g>
<!-- Node18 -->
<g id="node18" class="node"><title>Node18</title>
<polygon fill="white" stroke="#bfbfbf" points="2996.5,-134.5 2996.5,-153.5 3115.5,-153.5 3115.5,-134.5 2996.5,-134.5"/>
<text text-anchor="middle" x="3056" y="-141.5" font-family="Helvetica,sans-Serif" font-size="10.00">libmesh/petsc_vector.h</text>
</g>
<!-- Node16&#45;&gt;Node18 -->
<g id="edge19" class="edge"><title>Node16&#45;&gt;Node18</title>
<path fill="none" stroke="midnightblue" d="M2942.31,-190.399C2967.42,-180.372 3000.84,-167.028 3024.94,-157.405"/>
<polygon fill="midnightblue" stroke="midnightblue" points="3026.33,-160.617 3034.32,-153.658 3023.73,-154.116 3026.33,-160.617"/>
</g>
<!-- Node19 -->
<g id="node19" class="node"><title>Node19</title>
<polygon fill="white" stroke="#bfbfbf" points="3134,-134.5 3134,-153.5 3244,-153.5 3244,-134.5 3134,-134.5"/>
<text text-anchor="middle" x="3189" y="-141.5" font-family="Helvetica,sans-Serif" font-size="10.00">GeneralUserObject.h</text>
</g>
<!-- Node16&#45;&gt;Node19 -->
<g id="edge20" class="edge"><title>Node16&#45;&gt;Node19</title>
<path fill="none" stroke="midnightblue" d="M2973.47,-190.475C3024.04,-179.806 3092.54,-165.352 3138.63,-155.628"/>
<polygon fill="midnightblue" stroke="midnightblue" points="3139.62,-158.996 3148.68,-153.506 3138.18,-152.146 3139.62,-158.996"/>
</g>
<!-- Node20 -->
<g id="node20" class="node"><title>Node20</title>
<polygon fill="white" stroke="#bfbfbf" points="3262.5,-134.5 3262.5,-153.5 3341.5,-153.5 3341.5,-134.5 3262.5,-134.5"/>
<text text-anchor="middle" x="3302" y="-141.5" font-family="Helvetica,sans-Serif" font-size="10.00">MooseMesh.h</text>
</g>
<!-- Node16&#45;&gt;Node20 -->
<g id="edge22" class="edge"><title>Node16&#45;&gt;Node20</title>
<path fill="none" stroke="midnightblue" d="M2989.63,-193.309C3057.48,-183.919 3156.33,-169.78 3252.54,-154.024"/>
<polygon fill="midnightblue" stroke="midnightblue" points="3253.14,-157.472 3262.44,-152.395 3252.01,-150.564 3253.14,-157.472"/>
</g>
<!-- Node21 -->
<g id="node21" class="node"><title>Node21</title>
<g id="a_node21"><a xlink:href="_dwarf_elephant_system_8h.html" target="_top" xlink:title="DwarfElephantSystem.h">
<polygon fill="white" stroke="black" points="3492,-134.5 3492,-153.5 3616,-153.5 3616,-134.5 3492,-134.5"/>
<text text-anchor="middle" x="3554" y="-141.5" font-family="Helvetica,sans-Serif" font-size="10.00">DwarfElephantSystem.h</text>
</a>
</g>
</g>
<!-- Node16&#45;&gt;Node21 -->
<g id="edge24" class="edge"><title>Node16&#45;&gt;Node21</title>
<path fill="none" stroke="midnightblue" d="M2989.6,-196.904C3117.21,-185.169 3360.19,-162.823 3481.43,-151.674"/>
<polygon fill="midnightblue" stroke="midnightblue" points="3482.08,-155.129 3491.72,-150.728 3481.44,-148.158 3482.08,-155.129"/>
</g>
<!-- Node27 -->
<g id="node27" class="node"><title>Node27</title>
<g id="a_node27"><a xlink:href="_dwarf_elephant_r_b_classes_steady_state_8h.html" target="_top" xlink:title="DwarfElephantRBClassesSteady\lState.h">
<polygon fill="white" stroke="red" points="2209.5,-67.5 2209.5,-97.5 2372.5,-97.5 2372.5,-67.5 2209.5,-67.5"/>
<text text-anchor="start" x="2217.5" y="-85.5" font-family="Helvetica,sans-Serif" font-size="10.00">DwarfElephantRBClassesSteady</text>
<text text-anchor="middle" x="2291" y="-74.5" font-family="Helvetica,sans-Serif" font-size="10.00">State.h</text>
</a>
</g>
</g>
<!-- Node16&#45;&gt;Node27 -->
<g id="edge58" class="edge"><title>Node16&#45;&gt;Node27</title>
<path fill="none" stroke="midnightblue" d="M2858.94,-190.44C2794.2,-170.013 2687.16,-134.489 2685,-134 2582.6,-110.87 2463,-97.5632 2382.61,-90.4768"/>
<polygon fill="midnightblue" stroke="midnightblue" points="2382.78,-86.9785 2372.52,-89.6015 2382.18,-93.9524 2382.78,-86.9785"/>
</g>
<!-- Node21&#45;&gt;Node10 -->
<g id="edge57" class="edge"><title>Node21&#45;&gt;Node10</title>
<path fill="none" stroke="midnightblue" d="M3543.35,-153.666C3522.6,-170.009 3474.69,-205.164 3428,-221 3369.43,-240.866 3201.4,-254.661 3101.76,-261.36"/>
<polygon fill="midnightblue" stroke="midnightblue" points="3101.49,-257.87 3091.75,-262.025 3101.96,-264.855 3101.49,-257.87"/>
</g>
<!-- Node22 -->
<g id="node22" class="node"><title>Node22</title>
<polygon fill="white" stroke="#bfbfbf" points="3594,-6 3594,-25 3724,-25 3724,-6 3594,-6"/>
<text text-anchor="middle" x="3659" y="-13" font-family="Helvetica,sans-Serif" font-size="10.00">libmesh/rb_construction.h</text>
</g>
<!-- Node21&#45;&gt;Node22 -->
<g id="edge25" class="edge"><title>Node21&#45;&gt;Node22</title>
<path fill="none" stroke="midnightblue" d="M3616.19,-141.563C3687.23,-138.454 3797.03,-128.673 3823,-98 3831.9,-87.4846 3831.18,-78.0836 3823,-67 3815.73,-57.148 3750.13,-39.1171 3704.14,-27.479"/>
<polygon fill="midnightblue" stroke="midnightblue" points="3704.92,-24.065 3694.37,-25.0262 3703.21,-30.8546 3704.92,-24.065"/>
</g>
<!-- Node23 -->
<g id="node23" class="node"><title>Node23</title>
<polygon fill="white" stroke="#bfbfbf" points="3478,-6 3478,-25 3576,-25 3576,-6 3478,-6"/>
<text text-anchor="middle" x="3527" y="-13" font-family="Helvetica,sans-Serif" font-size="10.00">FEProblemBase.h</text>
</g>
<!-- Node21&#45;&gt;Node23 -->
<g id="edge26" class="edge"><title>Node21&#45;&gt;Node23</title>
<path fill="none" stroke="midnightblue" d="M3537.37,-134.464C3524.51,-126.841 3507.66,-114.356 3500,-98 3489.97,-76.5883 3502.74,-50.4201 3513.9,-33.6108"/>
<polygon fill="midnightblue" stroke="midnightblue" points="3516.85,-35.5052 3519.78,-25.3247 3511.14,-31.4534 3516.85,-35.5052"/>
</g>
<!-- Node24 -->
<g id="node24" class="node"><title>Node24</title>
<polygon fill="white" stroke="#bfbfbf" points="3509,-73 3509,-92 3599,-92 3599,-73 3509,-73"/>
<text text-anchor="middle" x="3554" y="-80" font-family="Helvetica,sans-Serif" font-size="10.00">TimeIntegrator.h</text>
</g>
<!-- Node21&#45;&gt;Node24 -->
<g id="edge27" class="edge"><title>Node21&#45;&gt;Node24</title>
<path fill="none" stroke="midnightblue" d="M3554,-134.475C3554,-126.08 3554,-112.981 3554,-102.163"/>
<polygon fill="midnightblue" stroke="midnightblue" points="3557.5,-102.009 3554,-92.0091 3550.5,-102.009 3557.5,-102.009"/>
</g>
<!-- Node25 -->
<g id="node25" class="node"><title>Node25</title>
<polygon fill="white" stroke="#bfbfbf" points="3617.5,-73 3617.5,-92 3718.5,-92 3718.5,-73 3617.5,-73"/>
<text text-anchor="middle" x="3668" y="-80" font-family="Helvetica,sans-Serif" font-size="10.00">NonlinearSystem.h</text>
</g>
<!-- Node21&#45;&gt;Node25 -->
<g id="edge28" class="edge"><title>Node21&#45;&gt;Node25</title>
<path fill="none" stroke="midnightblue" d="M3570.33,-134.475C3589.21,-124.622 3620.51,-108.288 3642.58,-96.7697"/>
<polygon fill="midnightblue" stroke="midnightblue" points="3644.45,-99.7389 3651.7,-92.0091 3641.21,-93.5333 3644.45,-99.7389"/>
</g>
<!-- Node26 -->
<g id="node26" class="node"><title>Node26</title>
<polygon fill="white" stroke="#bfbfbf" points="3736.5,-73 3736.5,-92 3813.5,-92 3813.5,-73 3736.5,-73"/>
<text text-anchor="middle" x="3775" y="-80" font-family="Helvetica,sans-Serif" font-size="10.00">KernelBase.h</text>
</g>
<!-- Node21&#45;&gt;Node26 -->
<g id="edge29" class="edge"><title>Node21&#45;&gt;Node26</title>
<path fill="none" stroke="midnightblue" d="M3589.12,-134.423C3624.36,-125.699 3680.12,-111.57 3728,-98 3731.2,-97.0919 3734.52,-96.124 3737.85,-95.1356"/>
<polygon fill="midnightblue" stroke="midnightblue" points="3739.17,-98.3931 3747.73,-92.1479 3737.14,-91.6928 3739.17,-98.3931"/>
</g>
<!-- Node21&#45;&gt;Node27 -->
<g id="edge30" class="edge"><title>Node21&#45;&gt;Node27</title>
<path fill="none" stroke="midnightblue" d="M3491.83,-139.608C3459.65,-137.878 3419.72,-135.771 3384,-134 3012.8,-115.599 2570.57,-95.8276 2382.7,-87.5284"/>
<polygon fill="midnightblue" stroke="midnightblue" points="2382.74,-84.0266 2372.59,-87.082 2382.43,-91.0198 2382.74,-84.0266"/>
</g>
<!-- Node27&#45;&gt;Node12 -->
<g id="edge31" class="edge"><title>Node27&#45;&gt;Node12</title>
<path fill="none" stroke="midnightblue" d="M2372.75,-80.3986C2637.02,-76.5608 3466.64,-62.272 3733,-31 3741.28,-30.0275 3750.03,-28.6055 3758.47,-27.027"/>
<polygon fill="midnightblue" stroke="midnightblue" points="3759.42,-30.4076 3768.56,-25.0438 3758.07,-23.5391 3759.42,-30.4076"/>
</g>
<!-- Node27&#45;&gt;Node16 -->
<g id="edge36" class="edge"><title>Node27&#45;&gt;Node16</title>
<path fill="none" stroke="midnightblue" d="M2372.66,-88.5068C2456.53,-94.9621 2590.2,-108.521 2703,-134 2705.05,-134.462 2800.94,-166.276 2860.6,-187.004"/>
<polygon fill="midnightblue" stroke="midnightblue" points="2859.61,-190.366 2870.2,-190.356 2861.92,-183.756 2859.61,-190.366"/>
</g>
<!-- Node27&#45;&gt;Node17 -->
<g id="edge32" class="edge"><title>Node27&#45;&gt;Node17</title>
<path fill="none" stroke="midnightblue" d="M2372.62,-79.2121C2584.08,-73.0157 3146.1,-54.764 3331,-31 3338.77,-30.0016 3346.96,-28.5964 3354.89,-27.0502"/>
<polygon fill="midnightblue" stroke="midnightblue" points="3355.63,-30.4706 3364.73,-25.0363 3354.23,-23.6128 3355.63,-30.4706"/>
</g>
<!-- Node27&#45;&gt;Node22 -->
<g id="edge34" class="edge"><title>Node27&#45;&gt;Node22</title>
<path fill="none" stroke="midnightblue" d="M2372.86,-79.9612C2618.81,-75.0759 3348.71,-58.5928 3585,-31 3593.6,-29.9959 3602.69,-28.5431 3611.45,-26.9404"/>
<polygon fill="midnightblue" stroke="midnightblue" points="3612.37,-30.3283 3621.53,-25.008 3611.05,-23.4535 3612.37,-30.3283"/>
</g>
<!-- Node27&#45;&gt;Node23 -->
<g id="edge35" class="edge"><title>Node27&#45;&gt;Node23</title>
<path fill="none" stroke="midnightblue" d="M2372.89,-80.1431C2603.77,-75.975 3256.92,-61.7333 3469,-31 3475.05,-30.1227 3481.39,-28.8808 3487.57,-27.4887"/>
<polygon fill="midnightblue" stroke="midnightblue" points="3488.82,-30.7871 3497.72,-25.0419 3487.18,-23.9819 3488.82,-30.7871"/>
</g>
<!-- Node28 -->
<g id="node28" class="node"><title>Node28</title>
<polygon fill="white" stroke="#bfbfbf" points="2080,-6 2080,-25 2202,-25 2202,-6 2080,-6"/>
<text text-anchor="middle" x="2141" y="-13" font-family="Helvetica,sans-Serif" font-size="10.00">libmesh/rb_evaluation.h</text>
</g>
<!-- Node27&#45;&gt;Node28 -->
<g id="edge33" class="edge"><title>Node27&#45;&gt;Node28</title>
<path fill="none" stroke="midnightblue" d="M2258.45,-67.396C2232.13,-55.991 2195.41,-40.0794 2170.07,-29.0976"/>
<polygon fill="midnightblue" stroke="midnightblue" points="2171.2,-25.7717 2160.63,-25.007 2168.42,-32.1946 2171.2,-25.7717"/>
</g>
<!-- Node29 -->
<g id="node29" class="node"><title>Node29</title>
<g id="a_node29"><a xlink:href="_dwarf_elephant_r_b_structures_t1_f1_o1_steady_state_8h.html" target="_top" xlink:title="DwarfElephantRBStructures\lT1F1O1SteadyState.h">
<polygon fill="white" stroke="red" points="2220,-0.5 2220,-30.5 2362,-30.5 2362,-0.5 2220,-0.5"/>
<text text-anchor="start" x="2228" y="-18.5" font-family="Helvetica,sans-Serif" font-size="10.00">DwarfElephantRBStructures</text>
<text text-anchor="middle" x="2291" y="-7.5" font-family="Helvetica,sans-Serif" font-size="10.00">T1F1O1SteadyState.h</text>
</a>
</g>
</g>
<!-- Node27&#45;&gt;Node29 -->
<g id="edge37" class="edge"><title>Node27&#45;&gt;Node29</title>
<path fill="none" stroke="midnightblue" d="M2291,-67.396C2291,-59.6448 2291,-49.8122 2291,-40.8601"/>
<polygon fill="midnightblue" stroke="midnightblue" points="2294.5,-40.5765 2291,-30.5765 2287.5,-40.5765 2294.5,-40.5765"/>
</g>
<!-- Node30 -->
<g id="node30" class="node"><title>Node30</title>
<g id="a_node30"><a xlink:href="_dwarf_elephant_r_b_structures_t2_f1_o1_steady_state_8h.html" target="_top" xlink:title="DwarfElephantRBStructures\lT2F1O1SteadyState.h">
<polygon fill="white" stroke="red" points="2380,-0.5 2380,-30.5 2522,-30.5 2522,-0.5 2380,-0.5"/>
<text text-anchor="start" x="2388" y="-18.5" font-family="Helvetica,sans-Serif" font-size="10.00">DwarfElephantRBStructures</text>
<text text-anchor="middle" x="2451" y="-7.5" font-family="Helvetica,sans-Serif" font-size="10.00">T2F1O1SteadyState.h</text>
</a>
</g>
</g>
<!-- Node27&#45;&gt;Node30 -->
<g id="edge38" class="edge"><title>Node27&#45;&gt;Node30</title>
<path fill="none" stroke="midnightblue" d="M2325.72,-67.396C2349.51,-57.7284 2381.28,-44.8226 2406.87,-34.4262"/>
<polygon fill="midnightblue" stroke="midnightblue" points="2408.4,-37.583 2416.35,-30.5765 2405.77,-31.0977 2408.4,-37.583"/>
</g>
<!-- Node31 -->
<g id="node31" class="node"><title>Node31</title>
<g id="a_node31"><a xlink:href="_dwarf_elephant_r_b_structures_t2_f3_o1_steady_state_8h.html" target="_top" xlink:title="DwarfElephantRBStructures\lT2F3O1SteadyState.h">
<polygon fill="white" stroke="red" points="2540,-0.5 2540,-30.5 2682,-30.5 2682,-0.5 2540,-0.5"/>
<text text-anchor="start" x="2548" y="-18.5" font-family="Helvetica,sans-Serif" font-size="10.00">DwarfElephantRBStructures</text>
<text text-anchor="middle" x="2611" y="-7.5" font-family="Helvetica,sans-Serif" font-size="10.00">T2F3O1SteadyState.h</text>
</a>
</g>
</g>
<!-- Node27&#45;&gt;Node31 -->
<g id="edge39" class="edge"><title>Node27&#45;&gt;Node31</title>
<path fill="none" stroke="midnightblue" d="M2360.04,-67.476C2410.53,-57.2206 2479.11,-43.2899 2531.82,-32.583"/>
<polygon fill="midnightblue" stroke="midnightblue" points="2532.7,-35.9755 2541.81,-30.5549 2531.31,-29.1156 2532.7,-35.9755"/>
</g>
<!-- Node32 -->
<g id="node32" class="node"><title>Node32</title>
<g id="a_node32"><a xlink:href="_dwarf_elephant_r_b_structures_t2_f2_o10_steady_state_8h.html" target="_top" xlink:title="DwarfElephantRBStructures\lT2F2O10SteadyState.h">
<polygon fill="white" stroke="red" points="2700,-0.5 2700,-30.5 2842,-30.5 2842,-0.5 2700,-0.5"/>
<text text-anchor="start" x="2708" y="-18.5" font-family="Helvetica,sans-Serif" font-size="10.00">DwarfElephantRBStructures</text>
<text text-anchor="middle" x="2771" y="-7.5" font-family="Helvetica,sans-Serif" font-size="10.00">T2F2O10SteadyState.h</text>
</a>
</g>
</g>
<!-- Node27&#45;&gt;Node32 -->
<g id="edge40" class="edge"><title>Node27&#45;&gt;Node32</title>
<path fill="none" stroke="midnightblue" d="M2372.77,-72.4791C2451.44,-63.5014 2573.99,-48.7392 2689.82,-31.1321"/>
<polygon fill="midnightblue" stroke="midnightblue" points="2690.58,-34.5575 2699.93,-29.5854 2689.52,-27.638 2690.58,-34.5575"/>
</g>
<!-- Node33 -->
<g id="node33" class="node"><title>Node33</title>
<g id="a_node33"><a xlink:href="_dwarf_elephant_r_b_structures_t2_f3_o10_steady_state_8h.html" target="_top" xlink:title="DwarfElephantRBStructures\lT2F3O10SteadyState.h">
<polygon fill="white" stroke="red" points="2860,-0.5 2860,-30.5 3002,-30.5 3002,-0.5 2860,-0.5"/>
<text text-anchor="start" x="2868" y="-18.5" font-family="Helvetica,sans-Serif" font-size="10.00">DwarfElephantRBStructures</text>
<text text-anchor="middle" x="2931" y="-7.5" font-family="Helvetica,sans-Serif" font-size="10.00">T2F3O10SteadyState.h</text>
</a>
</g>
</g>
<!-- Node27&#45;&gt;Node33 -->
<g id="edge41" class="edge"><title>Node27&#45;&gt;Node33</title>
<path fill="none" stroke="midnightblue" d="M2372.87,-76.4182C2480.16,-69.2432 2674.34,-54.4881 2850.01,-31.0559"/>
<polygon fill="midnightblue" stroke="midnightblue" points="2850.51,-34.5204 2859.95,-29.7176 2849.57,-27.5829 2850.51,-34.5204"/>
</g>
<!-- Node34 -->
<g id="node34" class="node"><title>Node34</title>
<g id="a_node34"><a xlink:href="_dwarf_elephant_r_b_structures_t3_f1_o1_steady_state_8h.html" target="_top" xlink:title="DwarfElephantRBStructures\lT3F1O1SteadyState.h">
<polygon fill="white" stroke="red" points="3020,-0.5 3020,-30.5 3162,-30.5 3162,-0.5 3020,-0.5"/>
<text text-anchor="start" x="3028" y="-18.5" font-family="Helvetica,sans-Serif" font-size="10.00">DwarfElephantRBStructures</text>
<text text-anchor="middle" x="3091" y="-7.5" font-family="Helvetica,sans-Serif" font-size="10.00">T3F1O1SteadyState.h</text>
</a>
</g>
</g>
<!-- Node27&#45;&gt;Node34 -->
<g id="edge42" class="edge"><title>Node27&#45;&gt;Node34</title>
<path fill="none" stroke="midnightblue" d="M2372.53,-78.6849C2504.4,-73.4908 2772.78,-60.2646 3009.77,-31.0599"/>
<polygon fill="midnightblue" stroke="midnightblue" points="3010.47,-34.4998 3019.96,-29.7915 3009.61,-27.5533 3010.47,-34.4998"/>
</g>
<!-- Node35 -->
<g id="node35" class="node"><title>Node35</title>
<g id="a_node35"><a xlink:href="_dwarf_elephant_r_b_structures_t3_f2_o1_steady_state_8h.html" target="_top" xlink:title="DwarfElephantRBStructures\lT3F2O1SteadyState.h">
<polygon fill="white" stroke="red" points="3180,-0.5 3180,-30.5 3322,-30.5 3322,-0.5 3180,-0.5"/>
<text text-anchor="start" x="3188" y="-18.5" font-family="Helvetica,sans-Serif" font-size="10.00">DwarfElephantRBStructures</text>
<text text-anchor="middle" x="3251" y="-7.5" font-family="Helvetica,sans-Serif" font-size="10.00">T3F2O1SteadyState.h</text>
</a>
</g>
</g>
<!-- Node27&#45;&gt;Node35 -->
<g id="edge43" class="edge"><title>Node27&#45;&gt;Node35</title>
<path fill="none" stroke="midnightblue" d="M2372.58,-80.1383C2526.55,-76.8418 2870.64,-66.0185 3169.79,-31.04"/>
<polygon fill="midnightblue" stroke="midnightblue" points="3170.45,-34.4871 3179.97,-29.8388 3169.63,-27.5354 3170.45,-34.4871"/>
</g>
<!-- Node36 -->
<g id="node36" class="node"><title>Node36</title>
<g id="a_node36"><a xlink:href="_dwarf_elephant_r_b_structures_t3_f3_o1_steady_state_8h.html" target="_top" xlink:title="DwarfElephantRBStructures\lT3F3O1SteadyState.h">
<polygon fill="white" stroke="red" points="0,-0.5 0,-30.5 142,-30.5 142,-0.5 0,-0.5"/>
<text text-anchor="start" x="8" y="-18.5" font-family="Helvetica,sans-Serif" font-size="10.00">DwarfElephantRBStructures</text>
<text text-anchor="middle" x="71" y="-7.5" font-family="Helvetica,sans-Serif" font-size="10.00">T3F3O1SteadyState.h</text>
</a>
</g>
</g>
<!-- Node27&#45;&gt;Node36 -->
<g id="edge44" class="edge"><title>Node27&#45;&gt;Node36</title>
<path fill="none" stroke="midnightblue" d="M2209.21,-81.274C1871.24,-80.079 581.642,-72.8789 152.006,-30.961"/>
<polygon fill="midnightblue" stroke="midnightblue" points="152.317,-27.4747 142.018,-29.9644 151.621,-34.4401 152.317,-27.4747"/>
</g>
<!-- Node37 -->
<g id="node37" class="node"><title>Node37</title>
<g id="a_node37"><a xlink:href="_dwarf_elephant_r_b_structures_t3_f1_o3_steady_state_8h.html" target="_top" xlink:title="DwarfElephantRBStructures\lT3F1O3SteadyState.h">
<polygon fill="white" stroke="red" points="160,-0.5 160,-30.5 302,-30.5 302,-0.5 160,-0.5"/>
<text text-anchor="start" x="168" y="-18.5" font-family="Helvetica,sans-Serif" font-size="10.00">DwarfElephantRBStructures</text>
<text text-anchor="middle" x="231" y="-7.5" font-family="Helvetica,sans-Serif" font-size="10.00">T3F1O3SteadyState.h</text>
</a>
</g>
</g>
<!-- Node27&#45;&gt;Node37 -->
<g id="edge45" class="edge"><title>Node27&#45;&gt;Node37</title>
<path fill="none" stroke="midnightblue" d="M2209.37,-81.0933C1887.98,-79.2346 708.621,-69.9254 312.096,-30.9711"/>
<polygon fill="midnightblue" stroke="midnightblue" points="312.319,-27.476 302.019,-29.9573 311.619,-34.4408 312.319,-27.476"/>
</g>
<!-- Node38 -->
<g id="node38" class="node"><title>Node38</title>
<g id="a_node38"><a xlink:href="_dwarf_elephant_r_b_structures_t3_f3_o10_steady_state_8h.html" target="_top" xlink:title="DwarfElephantRBStructures\lT3F3O10SteadyState.h">
<polygon fill="white" stroke="red" points="320,-0.5 320,-30.5 462,-30.5 462,-0.5 320,-0.5"/>
<text text-anchor="start" x="328" y="-18.5" font-family="Helvetica,sans-Serif" font-size="10.00">DwarfElephantRBStructures</text>
<text text-anchor="middle" x="391" y="-7.5" font-family="Helvetica,sans-Serif" font-size="10.00">T3F3O10SteadyState.h</text>
</a>
</g>
</g>
<!-- Node27&#45;&gt;Node38 -->
<g id="edge46" class="edge"><title>Node27&#45;&gt;Node38</title>
<path fill="none" stroke="midnightblue" d="M2209.25,-80.8795C1904.67,-78.3137 835.267,-66.9703 472.037,-30.9669"/>
<polygon fill="midnightblue" stroke="midnightblue" points="472.323,-27.4779 462.02,-29.9489 471.615,-34.4421 472.323,-27.4779"/>
</g>
<!-- Node39 -->
<g id="node39" class="node"><title>Node39</title>
<g id="a_node39"><a xlink:href="_dwarf_elephant_r_b_structures_t4_f1_o1_steady_state_8h.html" target="_top" xlink:title="DwarfElephantRBStructures\lT4F1O1SteadyState.h">
<polygon fill="white" stroke="red" points="480,-0.5 480,-30.5 622,-30.5 622,-0.5 480,-0.5"/>
<text text-anchor="start" x="488" y="-18.5" font-family="Helvetica,sans-Serif" font-size="10.00">DwarfElephantRBStructures</text>
<text text-anchor="middle" x="551" y="-7.5" font-family="Helvetica,sans-Serif" font-size="10.00">T4F1O1SteadyState.h</text>
</a>
</g>
</g>
<!-- Node27&#45;&gt;Node39 -->
<g id="edge47" class="edge"><title>Node27&#45;&gt;Node39</title>
<path fill="none" stroke="midnightblue" d="M2209.32,-80.6266C1922.63,-77.3117 962.268,-64.0382 632.079,-30.973"/>
<polygon fill="midnightblue" stroke="midnightblue" points="632.327,-27.4801 622.021,-29.939 631.611,-34.4434 632.327,-27.4801"/>
</g>
<!-- Node40 -->
<g id="node40" class="node"><title>Node40</title>
<g id="a_node40"><a xlink:href="_dwarf_elephant_r_b_structures_t4_f2_o1_steady_state_8h.html" target="_top" xlink:title="DwarfElephantRBStructures\lT4F2O1SteadyState.h">
<polygon fill="white" stroke="red" points="640,-0.5 640,-30.5 782,-30.5 782,-0.5 640,-0.5"/>
<text text-anchor="start" x="648" y="-18.5" font-family="Helvetica,sans-Serif" font-size="10.00">DwarfElephantRBStructures</text>
<text text-anchor="middle" x="711" y="-7.5" font-family="Helvetica,sans-Serif" font-size="10.00">T4F2O1SteadyState.h</text>
</a>
</g>
</g>
<!-- Node27&#45;&gt;Node40 -->
<g id="edge48" class="edge"><title>Node27&#45;&gt;Node40</title>
<path fill="none" stroke="midnightblue" d="M2209.33,-80.3197C1941.4,-76.2037 1089.8,-61.1281 792.367,-31.0048"/>
<polygon fill="midnightblue" stroke="midnightblue" points="792.331,-27.4822 782.022,-29.9269 791.606,-34.4445 792.331,-27.4822"/>
</g>
<!-- Node41 -->
<g id="node41" class="node"><title>Node41</title>
<g id="a_node41"><a xlink:href="_dwarf_elephant_r_b_structures_t4_f5_o10_steady_state_8h.html" target="_top" xlink:title="DwarfElephantRBStructures\lT4F5O10SteadyState.h">
<polygon fill="white" stroke="red" points="800,-0.5 800,-30.5 942,-30.5 942,-0.5 800,-0.5"/>
<text text-anchor="start" x="808" y="-18.5" font-family="Helvetica,sans-Serif" font-size="10.00">DwarfElephantRBStructures</text>
<text text-anchor="middle" x="871" y="-7.5" font-family="Helvetica,sans-Serif" font-size="10.00">T4F5O10SteadyState.h</text>
</a>
</g>
</g>
<!-- Node27&#45;&gt;Node41 -->
<g id="edge49" class="edge"><title>Node27&#45;&gt;Node41</title>
<path fill="none" stroke="midnightblue" d="M2209.38,-79.9411C1961.06,-74.9617 1216.14,-58.2145 951.974,-30.9682"/>
<polygon fill="midnightblue" stroke="midnightblue" points="952.338,-27.4872 942.024,-29.9119 951.599,-34.4481 952.338,-27.4872"/>
</g>
<!-- Node42 -->
<g id="node42" class="node"><title>Node42</title>
<g id="a_node42"><a xlink:href="_dwarf_elephant_r_b_structures_t5_f1_o1_steady_state_8h.html" target="_top" xlink:title="DwarfElephantRBStructures\lT5F1O1SteadyState.h">
<polygon fill="white" stroke="red" points="960,-0.5 960,-30.5 1102,-30.5 1102,-0.5 960,-0.5"/>
<text text-anchor="start" x="968" y="-18.5" font-family="Helvetica,sans-Serif" font-size="10.00">DwarfElephantRBStructures</text>
<text text-anchor="middle" x="1031" y="-7.5" font-family="Helvetica,sans-Serif" font-size="10.00">T5F1O1SteadyState.h</text>
</a>
</g>
</g>
<!-- Node27&#45;&gt;Node42 -->
<g id="edge50" class="edge"><title>Node27&#45;&gt;Node42</title>
<path fill="none" stroke="midnightblue" d="M2209.16,-81.8332C2018.45,-81.7809 1529.59,-76.8635 1112.18,-31.0181"/>
<polygon fill="midnightblue" stroke="midnightblue" points="1112.35,-27.5155 1102.03,-29.8929 1111.58,-34.4729 1112.35,-27.5155"/>
</g>
<!-- Node43 -->
<g id="node43" class="node"><title>Node43</title>
<g id="a_node43"><a xlink:href="_dwarf_elephant_r_b_structures_t5_f3_o1_steady_state_8h.html" target="_top" xlink:title="DwarfElephantRBStructures\lT5F3O1SteadyState.h">
<polygon fill="white" stroke="red" points="1120,-0.5 1120,-30.5 1262,-30.5 1262,-0.5 1120,-0.5"/>
<text text-anchor="start" x="1128" y="-18.5" font-family="Helvetica,sans-Serif" font-size="10.00">DwarfElephantRBStructures</text>
<text text-anchor="middle" x="1191" y="-7.5" font-family="Helvetica,sans-Serif" font-size="10.00">T5F3O1SteadyState.h</text>
</a>
</g>
</g>
<!-- Node27&#45;&gt;Node43 -->
<g id="edge51" class="edge"><title>Node27&#45;&gt;Node43</title>
<path fill="none" stroke="midnightblue" d="M2209.39,-81.0486C2037.68,-79.3187 1626.37,-71.0757 1272.23,-31.0317"/>
<polygon fill="midnightblue" stroke="midnightblue" points="1272.36,-27.5245 1262.03,-29.868 1271.57,-34.4793 1272.36,-27.5245"/>
</g>
<!-- Node44 -->
<g id="node44" class="node"><title>Node44</title>
<g id="a_node44"><a xlink:href="_dwarf_elephant_r_b_structures_t6_f1_o1_steady_state_8h.html" target="_top" xlink:title="DwarfElephantRBStructures\lT6F1O1SteadyState.h">
<polygon fill="white" stroke="red" points="1280,-0.5 1280,-30.5 1422,-30.5 1422,-0.5 1280,-0.5"/>
<text text-anchor="start" x="1288" y="-18.5" font-family="Helvetica,sans-Serif" font-size="10.00">DwarfElephantRBStructures</text>
<text text-anchor="middle" x="1351" y="-7.5" font-family="Helvetica,sans-Serif" font-size="10.00">T6F1O1SteadyState.h</text>
</a>
</g>
</g>
<!-- Node27&#45;&gt;Node44 -->
<g id="edge52" class="edge"><title>Node27&#45;&gt;Node44</title>
<path fill="none" stroke="midnightblue" d="M2209.49,-79.9865C2058.22,-76.4611 1723.72,-65.3066 1432.38,-31.0618"/>
<polygon fill="midnightblue" stroke="midnightblue" points="1432.38,-27.537 1422.03,-29.8338 1431.55,-34.4882 1432.38,-27.537"/>
</g>
<!-- Node45 -->
<g id="node45" class="node"><title>Node45</title>
<g id="a_node45"><a xlink:href="_dwarf_elephant_r_b_structures_t7_f8_o80_steady_state_8h.html" target="_top" xlink:title="DwarfElephantRBStructures\lT7F8O80SteadyState.h">
<polygon fill="white" stroke="red" points="1440,-0.5 1440,-30.5 1582,-30.5 1582,-0.5 1440,-0.5"/>
<text text-anchor="start" x="1448" y="-18.5" font-family="Helvetica,sans-Serif" font-size="10.00">DwarfElephantRBStructures</text>
<text text-anchor="middle" x="1511" y="-7.5" font-family="Helvetica,sans-Serif" font-size="10.00">T7F8O80SteadyState.h</text>
</a>
</g>
</g>
<!-- Node27&#45;&gt;Node45 -->
<g id="edge53" class="edge"><title>Node27&#45;&gt;Node45</title>
<path fill="none" stroke="midnightblue" d="M2209.35,-78.4534C2080.37,-73.0119 1821.45,-59.5386 1592.24,-31.064"/>
<polygon fill="midnightblue" stroke="midnightblue" points="1592.4,-27.5562 1582.04,-29.7841 1591.53,-34.5018 1592.4,-27.5562"/>
</g>
<!-- Node46 -->
<g id="node46" class="node"><title>Node46</title>
<g id="a_node46"><a xlink:href="_dwarf_elephant_r_b_structures_t8_f9_o1_steady_state_8h.html" target="_top" xlink:title="DwarfElephantRBStructures\lT8F9O1SteadyState.h">
<polygon fill="white" stroke="red" points="1600,-0.5 1600,-30.5 1742,-30.5 1742,-0.5 1600,-0.5"/>
<text text-anchor="start" x="1608" y="-18.5" font-family="Helvetica,sans-Serif" font-size="10.00">DwarfElephantRBStructures</text>
<text text-anchor="middle" x="1671" y="-7.5" font-family="Helvetica,sans-Serif" font-size="10.00">T8F9O1SteadyState.h</text>
</a>
</g>
</g>
<!-- Node27&#45;&gt;Node46 -->
<g id="edge54" class="edge"><title>Node27&#45;&gt;Node46</title>
<path fill="none" stroke="midnightblue" d="M2209.33,-76.0612C2105.42,-68.6482 1920.26,-53.7889 1752.08,-31.0722"/>
<polygon fill="midnightblue" stroke="midnightblue" points="1752.43,-27.5878 1742.05,-29.7053 1751.49,-34.5237 1752.43,-27.5878"/>
</g>
<!-- Node47 -->
<g id="node47" class="node"><title>Node47</title>
<g id="a_node47"><a xlink:href="_dwarf_elephant_r_b_structures_t8_f9_o10_steady_state_8h.html" target="_top" xlink:title="DwarfElephantRBStructures\lT8F9O10SteadyState.h">
<polygon fill="white" stroke="red" points="1760,-0.5 1760,-30.5 1902,-30.5 1902,-0.5 1760,-0.5"/>
<text text-anchor="start" x="1768" y="-18.5" font-family="Helvetica,sans-Serif" font-size="10.00">DwarfElephantRBStructures</text>
<text text-anchor="middle" x="1831" y="-7.5" font-family="Helvetica,sans-Serif" font-size="10.00">T8F9O10SteadyState.h</text>
</a>
</g>
</g>
<!-- Node27&#45;&gt;Node47 -->
<g id="edge55" class="edge"><title>Node27&#45;&gt;Node47</title>
<path fill="none" stroke="midnightblue" d="M2209.3,-71.7735C2134.57,-62.6173 2020.71,-48.0179 1912.21,-31.1477"/>
<polygon fill="midnightblue" stroke="midnightblue" points="1912.49,-27.6485 1902.07,-29.5612 1911.41,-34.5644 1912.49,-27.6485"/>
</g>
<!-- Node48 -->
<g id="node48" class="node"><title>Node48</title>
<g id="a_node48"><a xlink:href="_dwarf_elephant_r_b_structures_t8_f9_o20_steady_state_8h.html" target="_top" xlink:title="DwarfElephantRBStructures\lT8F9O20SteadyState.h">
<polygon fill="white" stroke="red" points="1920,-0.5 1920,-30.5 2062,-30.5 2062,-0.5 1920,-0.5"/>
<text text-anchor="start" x="1928" y="-18.5" font-family="Helvetica,sans-Serif" font-size="10.00">DwarfElephantRBStructures</text>
<text text-anchor="middle" x="1991" y="-7.5" font-family="Helvetica,sans-Serif" font-size="10.00">T8F9O20SteadyState.h</text>
</a>
</g>
</g>
<!-- Node27&#45;&gt;Node48 -->
<g id="edge56" class="edge"><title>Node27&#45;&gt;Node48</title>
<path fill="none" stroke="midnightblue" d="M2226.27,-67.476C2179.14,-57.2633 2115.18,-43.4057 2065.85,-32.7167"/>
<polygon fill="midnightblue" stroke="midnightblue" points="2066.38,-29.2518 2055.87,-30.5549 2064.9,-36.0931 2066.38,-29.2518"/>
</g>
<!-- Node49&#45;&gt;Node11 -->
<g id="edge60" class="edge"><title>Node49&#45;&gt;Node11</title>
<path fill="none" stroke="midnightblue" d="M3253.28,-193.028C3173.48,-181.959 3053.93,-165.378 2978.23,-154.879"/>
<polygon fill="midnightblue" stroke="midnightblue" points="2978.69,-151.41 2968.31,-153.503 2977.73,-158.344 2978.69,-151.41"/>
</g>
<!-- Node49&#45;&gt;Node12 -->
<g id="edge61" class="edge"><title>Node49&#45;&gt;Node12</title>
<path fill="none" stroke="midnightblue" d="M3418.6,-199.611C3548.08,-189.995 3789.34,-163.542 3840,-98 3855.46,-78.0013 3836.7,-50.1429 3821.26,-32.7252"/>
<polygon fill="midnightblue" stroke="midnightblue" points="3823.49,-29.9957 3814.1,-25.0936 3818.39,-34.783 3823.49,-29.9957"/>
</g>
<!-- Node49&#45;&gt;Node14 -->
<g id="edge65" class="edge"><title>Node49&#45;&gt;Node14</title>
<path fill="none" stroke="midnightblue" d="M3253.17,-197.5C3110.73,-185.461 2822.43,-161.095 2695,-150.325"/>
<polygon fill="midnightblue" stroke="midnightblue" points="2695.27,-146.835 2685.01,-149.48 2694.68,-153.81 2695.27,-146.835"/>
</g>
<!-- Node49&#45;&gt;Node17 -->
<g id="edge62" class="edge"><title>Node49&#45;&gt;Node17</title>
<path fill="none" stroke="midnightblue" d="M3350.68,-190.461C3364.62,-175.422 3381.57,-151.375 3368,-134 3327.4,-82.0023 3264.6,-149.998 3224,-98 3215.52,-87.1403 3215.71,-78.0041 3224,-67 3231.85,-56.5785 3302.03,-38.752 3351.35,-27.3059"/>
<polygon fill="midnightblue" stroke="midnightblue" points="3352.26,-30.6881 3361.23,-25.0356 3350.7,-23.8663 3352.26,-30.6881"/>
</g>
<!-- Node49&#45;&gt;Node18 -->
<g id="edge63" class="edge"><title>Node49&#45;&gt;Node18</title>
<path fill="none" stroke="midnightblue" d="M3270,-190.475C3219.79,-179.806 3151.77,-165.352 3106.01,-155.628"/>
<polygon fill="midnightblue" stroke="midnightblue" points="3106.54,-152.161 3096.03,-153.506 3105.08,-159.009 3106.54,-152.161"/>
</g>
<!-- Node49&#45;&gt;Node19 -->
<g id="edge64" class="edge"><title>Node49&#45;&gt;Node19</title>
<path fill="none" stroke="midnightblue" d="M3301.16,-190.399C3276.5,-180.416 3243.71,-167.147 3219.97,-157.534"/>
<polygon fill="midnightblue" stroke="midnightblue" points="3220.97,-154.165 3210.39,-153.658 3218.35,-160.654 3220.97,-154.165"/>
</g>
<!-- Node49&#45;&gt;Node20 -->
<g id="edge66" class="edge"><title>Node49&#45;&gt;Node20</title>
<path fill="none" stroke="midnightblue" d="M3327.94,-190.399C3323.15,-182.021 3317.04,-171.327 3311.96,-162.423"/>
<polygon fill="midnightblue" stroke="midnightblue" points="3314.95,-160.604 3306.95,-153.658 3308.87,-164.077 3314.95,-160.604"/>
</g>
<!-- Node49&#45;&gt;Node21 -->
<g id="edge67" class="edge"><title>Node49&#45;&gt;Node21</title>
<path fill="none" stroke="midnightblue" d="M3387.39,-190.475C3425.65,-180.03 3477.21,-165.958 3512.79,-156.247"/>
<polygon fill="midnightblue" stroke="midnightblue" points="3514.11,-159.516 3522.83,-153.506 3512.27,-152.763 3514.11,-159.516"/>
</g>
<!-- Node49&#45;&gt;Node27 -->
<g id="edge73" class="edge"><title>Node49&#45;&gt;Node27</title>
<path fill="none" stroke="midnightblue" d="M3345.41,-190.346C3354.64,-174.518 3365.42,-149.124 3351,-134 3317.85,-99.2306 2634.86,-87.5935 2383.12,-84.4765"/>
<polygon fill="midnightblue" stroke="midnightblue" points="2382.95,-80.9742 2372.91,-84.3518 2382.86,-87.9737 2382.95,-80.9742"/>
</g>
<!-- Node50 -->
<g id="node50" class="node"><title>Node50</title>
<g id="a_node50"><a xlink:href="_dwarf_elephant_r_b_classes_transient_8h.html" target="_top" xlink:title="DwarfElephantRBClassesTransient.h">
<polygon fill="white" stroke="red" points="3233,-73 3233,-92 3415,-92 3415,-73 3233,-73"/>
<text text-anchor="middle" x="3324" y="-80" font-family="Helvetica,sans-Serif" font-size="10.00">DwarfElephantRBClassesTransient.h</text>
</a>
</g>
</g>
<!-- Node49&#45;&gt;Node50 -->
<g id="edge68" class="edge"><title>Node49&#45;&gt;Node50</title>
<path fill="none" stroke="midnightblue" d="M3369.68,-190.471C3396.81,-178.148 3427.87,-158.397 3413,-134 3401.63,-115.352 3380.93,-103.295 3362.26,-95.6577"/>
<polygon fill="midnightblue" stroke="midnightblue" points="3363.34,-92.3237 3352.75,-92.0555 3360.86,-98.8701 3363.34,-92.3237"/>
</g>
<!-- Node50&#45;&gt;Node12 -->
<g id="edge69" class="edge"><title>Node50&#45;&gt;Node12</title>
<path fill="none" stroke="midnightblue" d="M3408.47,-72.9628C3491.36,-64.1402 3621.24,-49.1266 3733,-31 3740.35,-29.8077 3748.1,-28.4047 3755.67,-26.9492"/>
<polygon fill="midnightblue" stroke="midnightblue" points="3756.35,-30.3829 3765.49,-25.0188 3755,-23.5145 3756.35,-30.3829"/>
</g>
<!-- Node50&#45;&gt;Node17 -->
<g id="edge70" class="edge"><title>Node50&#45;&gt;Node17</title>
<path fill="none" stroke="midnightblue" d="M3334.25,-72.7338C3346.44,-62.3055 3367.02,-44.7088 3381.91,-31.9732"/>
<polygon fill="midnightblue" stroke="midnightblue" points="3384.59,-34.2869 3389.91,-25.1273 3380.04,-28.9671 3384.59,-34.2869"/>
</g>
<!-- Node50&#45;&gt;Node23 -->
<g id="edge71" class="edge"><title>Node50&#45;&gt;Node23</title>
<path fill="none" stroke="midnightblue" d="M3350.96,-72.8685C3386.85,-61.3758 3450.46,-41.0082 3490.59,-28.1586"/>
<polygon fill="midnightblue" stroke="midnightblue" points="3491.8,-31.4465 3500.25,-25.0637 3489.66,-24.7799 3491.8,-31.4465"/>
</g>
<!-- Node50&#45;&gt;Node49 -->
<g id="edge72" class="edge"><title>Node50&#45;&gt;Node49</title>
<path fill="none" stroke="midnightblue" d="M3368.17,-92.0555C3391.42,-99.2914 3417.65,-112.101 3431,-134 3444.36,-155.919 3420.64,-174.088 3393.5,-186.489"/>
<polygon fill="midnightblue" stroke="midnightblue" points="3392.02,-183.314 3384.21,-190.471 3394.78,-189.748 3392.02,-183.314"/>
</g>
</g>
</svg>
