<?xml version="1.0" encoding="UTF-8" standalone="no"?>
<!DOCTYPE svg PUBLIC "-//W3C//DTD SVG 1.1//EN"
 "http://www.w3.org/Graphics/SVG/1.1/DTD/svg11.dtd">
<!-- Generated by graphviz version 2.38.0 (20140413.2041)
 -->
<!-- Title: include/kernels/DwarfElephantRBDiffusion.h Pages: 1 -->
<svg width="367pt" height="173pt"
 viewBox="0.00 0.00 367.00 173.00" xmlns="http://www.w3.org/2000/svg" xmlns:xlink="http://www.w3.org/1999/xlink">
<g id="graph0" class="graph" transform="scale(1 1) rotate(0) translate(4 169)">
<title>include/kernels/DwarfElephantRBDiffusion.h</title>
<polygon fill="white" stroke="none" points="-4,4 -4,-169 363,-169 363,4 -4,4"/>
<!-- Node1 -->
<g id="node1" class="node"><title>Node1</title>
<polygon fill="#bfbfbf" stroke="black" points="46,-134.5 46,-164.5 198,-164.5 198,-134.5 46,-134.5"/>
<text text-anchor="start" x="54" y="-152.5" font-family="Helvetica,sans-Serif" font-size="10.00">include/kernels/DwarfElephant</text>
<text text-anchor="middle" x="122" y="-141.5" font-family="Helvetica,sans-Serif" font-size="10.00">RBDiffusion.h</text>
</g>
<!-- Node2 -->
<g id="node2" class="node"><title>Node2</title>
<g id="a_node2"><a xlink:href="_dwarf_elephant_app_8_c.html" target="_top" xlink:title="src/base/DwarfElephantApp.C">
<polygon fill="white" stroke="black" points="0,-6 0,-25 150,-25 150,-6 0,-6"/>
<text text-anchor="middle" x="75" y="-13" font-family="Helvetica,sans-Serif" font-size="10.00">src/base/DwarfElephantApp.C</text>
</a>
</g>
</g>
<!-- Node1&#45;&gt;Node2 -->
<g id="edge1" class="edge"><title>Node1&#45;&gt;Node2</title>
<path fill="none" stroke="midnightblue" d="M78.0934,-129.455C65.427,-121.651 53.116,-111.272 46,-98 32.6584,-73.1165 54.5522,-40.8271 67.1246,-25.4291"/>
<polygon fill="midnightblue" stroke="midnightblue" points="76.4385,-132.54 86.8598,-134.451 79.9043,-126.459 76.4385,-132.54"/>
</g>
<!-- Node3 -->
<g id="node3" class="node"><title>Node3</title>
<g id="a_node3"><a xlink:href="_dwarf_elephant_r_b_diffusion_8_c.html" target="_top" xlink:title="src/kernels/DwarfElephant\lRBDiffusion.C">
<polygon fill="white" stroke="black" points="55.5,-67.5 55.5,-97.5 188.5,-97.5 188.5,-67.5 55.5,-67.5"/>
<text text-anchor="start" x="63.5" y="-85.5" font-family="Helvetica,sans-Serif" font-size="10.00">src/kernels/DwarfElephant</text>
<text text-anchor="middle" x="122" y="-74.5" font-family="Helvetica,sans-Serif" font-size="10.00">RBDiffusion.C</text>
</a>
</g>
</g>
<!-- Node1&#45;&gt;Node3 -->
<g id="edge2" class="edge"><title>Node1&#45;&gt;Node3</title>
<path fill="none" stroke="midnightblue" d="M122,-124.108C122,-115.154 122,-105.323 122,-97.5765"/>
<polygon fill="midnightblue" stroke="midnightblue" points="118.5,-124.396 122,-134.396 125.5,-124.396 118.5,-124.396"/>
</g>
<!-- Node4 -->
<g id="node4" class="node"><title>Node4</title>
<g id="a_node4"><a xlink:href="_dwarf_elephant_r_b_thermal_conduction_8h.html" target="_top" xlink:title="include/kernels/DwarfElephant\lRBThermalConduction.h">
<polygon fill="white" stroke="black" points="207,-67.5 207,-97.5 359,-97.5 359,-67.5 207,-67.5"/>
<text text-anchor="start" x="215" y="-85.5" font-family="Helvetica,sans-Serif" font-size="10.00">include/kernels/DwarfElephant</text>
<text text-anchor="middle" x="283" y="-74.5" font-family="Helvetica,sans-Serif" font-size="10.00">RBThermalConduction.h</text>
</a>
</g>
</g>
<!-- Node1&#45;&gt;Node4 -->
<g id="edge3" class="edge"><title>Node1&#45;&gt;Node4</title>
<path fill="none" stroke="midnightblue" d="M166.475,-130.544C192.238,-120.143 224.203,-107.238 248.134,-97.5765"/>
<polygon fill="midnightblue" stroke="midnightblue" points="164.897,-127.407 156.935,-134.396 167.518,-133.898 164.897,-127.407"/>
</g>
<!-- Node4&#45;&gt;Node2 -->
<g id="edge4" class="edge"><title>Node4&#45;&gt;Node2</title>
<path fill="none" stroke="midnightblue" d="M228.375,-64.4298C187.813,-51.7542 134.202,-35.0008 102.292,-25.0287"/>
<polygon fill="midnightblue" stroke="midnightblue" points="227.534,-67.8339 238.123,-67.476 229.622,-61.1525 227.534,-67.8339"/>
</g>
<!-- Node5 -->
<g id="node5" class="node"><title>Node5</title>
<g id="a_node5"><a xlink:href="_dwarf_elephant_r_b_thermal_conduction_8_c.html" target="_top" xlink:title="src/kernels/DwarfElephant\lRBThermalConduction.C">
<polygon fill="white" stroke="black" points="216.5,-0.5 216.5,-30.5 349.5,-30.5 349.5,-0.5 216.5,-0.5"/>
<text text-anchor="start" x="224.5" y="-18.5" font-family="Helvetica,sans-Serif" font-size="10.00">src/kernels/DwarfElephant</text>
<text text-anchor="middle" x="283" y="-7.5" font-family="Helvetica,sans-Serif" font-size="10.00">RBThermalConduction.C</text>
</a>
</g>
</g>
<!-- Node4&#45;&gt;Node5 -->
<g id="edge5" class="edge"><title>Node4&#45;&gt;Node5</title>
<path fill="none" stroke="midnightblue" d="M283,-57.1081C283,-48.1539 283,-38.3227 283,-30.5765"/>
<polygon fill="midnightblue" stroke="midnightblue" points="279.5,-57.3959 283,-67.396 286.5,-57.396 279.5,-57.3959"/>
</g>
</g>
</svg>
