<?xml version="1.0" encoding="UTF-8" standalone="no"?>
<!DOCTYPE svg PUBLIC "-//W3C//DTD SVG 1.1//EN"
 "http://www.w3.org/Graphics/SVG/1.1/DTD/svg11.dtd">
<!-- Generated by graphviz version 2.38.0 (20140413.2041)
 -->
<!-- Title: include/userobjects/DwarfElephantRBStructuresT4F1O1M1IC1Transient.h Pages: 1 -->
<svg width="1122pt" height="184pt"
 viewBox="0.00 0.00 1121.50 184.00" xmlns="http://www.w3.org/2000/svg" xmlns:xlink="http://www.w3.org/1999/xlink">
<g id="graph0" class="graph" transform="scale(1 1) rotate(0) translate(4 180)">
<title>include/userobjects/DwarfElephantRBStructuresT4F1O1M1IC1Transient.h</title>
<polygon fill="white" stroke="none" points="-4,4 -4,-180 1117.5,-180 1117.5,4 -4,4"/>
<!-- Node1 -->
<g id="node1" class="node"><title>Node1</title>
<polygon fill="#bfbfbf" stroke="black" points="410.5,-134.5 410.5,-175.5 554.5,-175.5 554.5,-134.5 410.5,-134.5"/>
<text text-anchor="start" x="418.5" y="-163.5" font-family="Helvetica,sans-Serif" font-size="10.00">include/userobjects</text>
<text text-anchor="start" x="418.5" y="-152.5" font-family="Helvetica,sans-Serif" font-size="10.00">/DwarfElephantRBStructures</text>
<text text-anchor="middle" x="482.5" y="-141.5" font-family="Helvetica,sans-Serif" font-size="10.00">T4F1O1M1IC1Transient.h</text>
</g>
<!-- Node2 -->
<g id="node2" class="node"><title>Node2</title>
<polygon fill="white" stroke="#bfbfbf" points="0,-0.5 0,-30.5 107,-30.5 107,-0.5 0,-0.5"/>
<text text-anchor="start" x="8" y="-18.5" font-family="Helvetica,sans-Serif" font-size="10.00">libmesh/transient_rb</text>
<text text-anchor="middle" x="53.5" y="-7.5" font-family="Helvetica,sans-Serif" font-size="10.00">_theta_expansion.h</text>
</g>
<!-- Node1&#45;&gt;Node2 -->
<g id="edge1" class="edge"><title>Node1&#45;&gt;Node2</title>
<path fill="none" stroke="midnightblue" d="M410.448,-150.352C287.898,-143.403 49.6206,-126.379 24.5,-98 9.70073,-81.281 21.8716,-56.4936 34.6782,-38.6481"/>
<polygon fill="midnightblue" stroke="midnightblue" points="37.6065,-40.5806 40.9008,-30.5109 32.046,-36.3284 37.6065,-40.5806"/>
</g>
<!-- Node3 -->
<g id="node3" class="node"><title>Node3</title>
<polygon fill="white" stroke="#bfbfbf" points="189.5,-67.5 189.5,-97.5 313.5,-97.5 313.5,-67.5 189.5,-67.5"/>
<text text-anchor="start" x="197.5" y="-85.5" font-family="Helvetica,sans-Serif" font-size="10.00">libmesh/transient_rb</text>
<text text-anchor="middle" x="251.5" y="-74.5" font-family="Helvetica,sans-Serif" font-size="10.00">_assembly_expansion.h</text>
</g>
<!-- Node1&#45;&gt;Node3 -->
<g id="edge2" class="edge"><title>Node1&#45;&gt;Node3</title>
<path fill="none" stroke="midnightblue" d="M418.46,-134.455C383.582,-123.811 340.835,-110.765 307.326,-100.538"/>
<polygon fill="midnightblue" stroke="midnightblue" points="308.276,-97.1683 297.689,-97.5968 306.232,-103.863 308.276,-97.1683"/>
</g>
<!-- Node4 -->
<g id="node4" class="node"><title>Node4</title>
<g id="a_node4"><a xlink:href="_dwarf_elephant_r_b_transient_theta_expansion_8h.html" target="_top" xlink:title="DwarfElephantRBTransient\lThetaExpansion.h">
<polygon fill="white" stroke="black" points="33.5,-67.5 33.5,-97.5 171.5,-97.5 171.5,-67.5 33.5,-67.5"/>
<text text-anchor="start" x="41.5" y="-85.5" font-family="Helvetica,sans-Serif" font-size="10.00">DwarfElephantRBTransient</text>
<text text-anchor="middle" x="102.5" y="-74.5" font-family="Helvetica,sans-Serif" font-size="10.00">ThetaExpansion.h</text>
</a>
</g>
</g>
<!-- Node1&#45;&gt;Node4 -->
<g id="edge3" class="edge"><title>Node1&#45;&gt;Node4</title>
<path fill="none" stroke="midnightblue" d="M410.496,-140.658C351.64,-129.749 265.969,-113.867 181.81,-98.2428"/>
<polygon fill="midnightblue" stroke="midnightblue" points="182.293,-94.7728 171.822,-96.3885 181.015,-101.655 182.293,-94.7728"/>
</g>
<!-- Node5 -->
<g id="node5" class="node"><title>Node5</title>
<g id="a_node5"><a xlink:href="_dwarf_elephant_r_b_structures_a00_theta_constant_8h.html" target="_top" xlink:title="DwarfElephantRBStructures\lA00ThetaConstant.h">
<polygon fill="white" stroke="black" points="331.5,-67.5 331.5,-97.5 473.5,-97.5 473.5,-67.5 331.5,-67.5"/>
<text text-anchor="start" x="339.5" y="-85.5" font-family="Helvetica,sans-Serif" font-size="10.00">DwarfElephantRBStructures</text>
<text text-anchor="middle" x="402.5" y="-74.5" font-family="Helvetica,sans-Serif" font-size="10.00">A00ThetaConstant.h</text>
</a>
</g>
</g>
<!-- Node1&#45;&gt;Node5 -->
<g id="edge5" class="edge"><title>Node1&#45;&gt;Node5</title>
<path fill="none" stroke="midnightblue" d="M460.216,-134.362C449.679,-125.076 437.087,-113.979 426.357,-104.524"/>
<polygon fill="midnightblue" stroke="midnightblue" points="428.396,-101.656 418.579,-97.67 423.768,-106.907 428.396,-101.656"/>
</g>
<!-- Node8 -->
<g id="node8" class="node"><title>Node8</title>
<g id="a_node8"><a xlink:href="_dwarf_elephant_r_b_structures_a0_theta_equal_mu0_8h.html" target="_top" xlink:title="DwarfElephantRBStructures\lA0ThetaEqualMu0.h">
<polygon fill="white" stroke="black" points="491.5,-67.5 491.5,-97.5 633.5,-97.5 633.5,-67.5 491.5,-67.5"/>
<text text-anchor="start" x="499.5" y="-85.5" font-family="Helvetica,sans-Serif" font-size="10.00">DwarfElephantRBStructures</text>
<text text-anchor="middle" x="562.5" y="-74.5" font-family="Helvetica,sans-Serif" font-size="10.00">A0ThetaEqualMu0.h</text>
</a>
</g>
</g>
<!-- Node1&#45;&gt;Node8 -->
<g id="edge8" class="edge"><title>Node1&#45;&gt;Node8</title>
<path fill="none" stroke="midnightblue" d="M504.784,-134.362C515.321,-125.076 527.913,-113.979 538.643,-104.524"/>
<polygon fill="midnightblue" stroke="midnightblue" points="541.232,-106.907 546.421,-97.67 536.604,-101.656 541.232,-106.907"/>
</g>
<!-- Node9 -->
<g id="node9" class="node"><title>Node9</title>
<g id="a_node9"><a xlink:href="_dwarf_elephant_r_b_structures_a1_theta_equal_mu1_8h.html" target="_top" xlink:title="DwarfElephantRBStructures\lA1ThetaEqualMu1.h">
<polygon fill="white" stroke="black" points="651.5,-67.5 651.5,-97.5 793.5,-97.5 793.5,-67.5 651.5,-67.5"/>
<text text-anchor="start" x="659.5" y="-85.5" font-family="Helvetica,sans-Serif" font-size="10.00">DwarfElephantRBStructures</text>
<text text-anchor="middle" x="722.5" y="-74.5" font-family="Helvetica,sans-Serif" font-size="10.00">A1ThetaEqualMu1.h</text>
</a>
</g>
</g>
<!-- Node1&#45;&gt;Node9 -->
<g id="edge11" class="edge"><title>Node1&#45;&gt;Node9</title>
<path fill="none" stroke="midnightblue" d="M549.035,-134.455C585.271,-123.811 629.684,-110.765 664.499,-100.538"/>
<polygon fill="midnightblue" stroke="midnightblue" points="665.903,-103.773 674.511,-97.5968 663.93,-97.0572 665.903,-103.773"/>
</g>
<!-- Node10 -->
<g id="node10" class="node"><title>Node10</title>
<g id="a_node10"><a xlink:href="_dwarf_elephant_r_b_structures_a2_theta_equal_mu2_8h.html" target="_top" xlink:title="DwarfElephantRBStructures\lA2ThetaEqualMu2.h">
<polygon fill="white" stroke="black" points="811.5,-67.5 811.5,-97.5 953.5,-97.5 953.5,-67.5 811.5,-67.5"/>
<text text-anchor="start" x="819.5" y="-85.5" font-family="Helvetica,sans-Serif" font-size="10.00">DwarfElephantRBStructures</text>
<text text-anchor="middle" x="882.5" y="-74.5" font-family="Helvetica,sans-Serif" font-size="10.00">A2ThetaEqualMu2.h</text>
</a>
</g>
</g>
<!-- Node1&#45;&gt;Node10 -->
<g id="edge14" class="edge"><title>Node1&#45;&gt;Node10</title>
<path fill="none" stroke="midnightblue" d="M554.646,-141.503C617.236,-130.631 710.565,-114.351 801.477,-98.1766"/>
<polygon fill="midnightblue" stroke="midnightblue" points="802.172,-101.608 811.404,-96.4092 800.945,-94.7163 802.172,-101.608"/>
</g>
<!-- Node11 -->
<g id="node11" class="node"><title>Node11</title>
<g id="a_node11"><a xlink:href="_dwarf_elephant_r_b_structures_a3_theta_equal_mu3_8h.html" target="_top" xlink:title="DwarfElephantRBStructures\lA3ThetaEqualMu3.h">
<polygon fill="white" stroke="black" points="971.5,-67.5 971.5,-97.5 1113.5,-97.5 1113.5,-67.5 971.5,-67.5"/>
<text text-anchor="start" x="979.5" y="-85.5" font-family="Helvetica,sans-Serif" font-size="10.00">DwarfElephantRBStructures</text>
<text text-anchor="middle" x="1042.5" y="-74.5" font-family="Helvetica,sans-Serif" font-size="10.00">A3ThetaEqualMu3.h</text>
</a>
</g>
</g>
<!-- Node1&#45;&gt;Node11 -->
<g id="edge17" class="edge"><title>Node1&#45;&gt;Node11</title>
<path fill="none" stroke="midnightblue" d="M554.656,-147.017C646.625,-137.795 810.734,-120.266 961.097,-98.1519"/>
<polygon fill="midnightblue" stroke="midnightblue" points="962.059,-101.548 971.439,-96.6204 961.034,-94.6231 962.059,-101.548"/>
</g>
<!-- Node4&#45;&gt;Node2 -->
<g id="edge4" class="edge"><title>Node4&#45;&gt;Node2</title>
<path fill="none" stroke="midnightblue" d="M91.8677,-67.396C85.5751,-59.0486 77.4626,-48.2871 70.3193,-38.8113"/>
<polygon fill="midnightblue" stroke="midnightblue" points="72.926,-36.4549 64.1115,-30.5765 67.3364,-40.6686 72.926,-36.4549"/>
</g>
<!-- Node6 -->
<g id="node6" class="node"><title>Node6</title>
<polygon fill="white" stroke="#bfbfbf" points="734,-6 734,-25 833,-25 833,-6 734,-6"/>
<text text-anchor="middle" x="783.5" y="-13" font-family="Helvetica,sans-Serif" font-size="10.00">libmesh/rb_theta.h</text>
</g>
<!-- Node5&#45;&gt;Node6 -->
<g id="edge6" class="edge"><title>Node5&#45;&gt;Node6</title>
<path fill="none" stroke="midnightblue" d="M473.58,-68.4964C476.592,-67.9833 479.575,-67.4825 482.5,-67 589.789,-49.3013 617.808,-51.9987 724.5,-31 729.933,-29.9306 735.62,-28.69 741.226,-27.3934"/>
<polygon fill="midnightblue" stroke="midnightblue" points="742.246,-30.7485 751.161,-25.0239 740.622,-23.9395 742.246,-30.7485"/>
</g>
<!-- Node7 -->
<g id="node7" class="node"><title>Node7</title>
<polygon fill="white" stroke="#bfbfbf" points="605.5,-0.5 605.5,-30.5 715.5,-30.5 715.5,-0.5 605.5,-0.5"/>
<text text-anchor="start" x="613.5" y="-18.5" font-family="Helvetica,sans-Serif" font-size="10.00">libmesh/rb_assembly</text>
<text text-anchor="middle" x="660.5" y="-7.5" font-family="Helvetica,sans-Serif" font-size="10.00">_expansion.h</text>
</g>
<!-- Node5&#45;&gt;Node7 -->
<g id="edge7" class="edge"><title>Node5&#45;&gt;Node7</title>
<path fill="none" stroke="midnightblue" d="M458.165,-67.476C498.484,-57.318 553.115,-43.5543 595.448,-32.889"/>
<polygon fill="midnightblue" stroke="midnightblue" points="596.537,-36.2242 605.379,-30.3871 594.827,-29.4363 596.537,-36.2242"/>
</g>
<!-- Node8&#45;&gt;Node6 -->
<g id="edge9" class="edge"><title>Node8&#45;&gt;Node6</title>
<path fill="none" stroke="midnightblue" d="M610.182,-67.476C650.313,-55.6727 706.997,-39.0009 744.472,-27.9789"/>
<polygon fill="midnightblue" stroke="midnightblue" points="745.897,-31.2082 754.503,-25.0287 743.921,-24.4926 745.897,-31.2082"/>
</g>
<!-- Node8&#45;&gt;Node7 -->
<g id="edge10" class="edge"><title>Node8&#45;&gt;Node7</title>
<path fill="none" stroke="midnightblue" d="M583.765,-67.396C597.506,-58.282 615.586,-46.2902 630.744,-36.236"/>
<polygon fill="midnightblue" stroke="midnightblue" points="632.878,-39.0207 639.277,-30.5765 629.009,-33.1872 632.878,-39.0207"/>
</g>
<!-- Node9&#45;&gt;Node6 -->
<g id="edge12" class="edge"><title>Node9&#45;&gt;Node6</title>
<path fill="none" stroke="midnightblue" d="M735.736,-67.396C745.341,-57.1607 758.353,-43.2959 768.37,-32.622"/>
<polygon fill="midnightblue" stroke="midnightblue" points="771.05,-34.8815 775.341,-25.1945 765.945,-30.0913 771.05,-34.8815"/>
</g>
<!-- Node9&#45;&gt;Node7 -->
<g id="edge13" class="edge"><title>Node9&#45;&gt;Node7</title>
<path fill="none" stroke="midnightblue" d="M709.047,-67.396C700.841,-58.7931 690.189,-47.626 680.955,-37.9448"/>
<polygon fill="midnightblue" stroke="midnightblue" points="683.362,-35.3969 673.927,-30.5765 678.296,-40.2284 683.362,-35.3969"/>
</g>
<!-- Node10&#45;&gt;Node6 -->
<g id="edge15" class="edge"><title>Node10&#45;&gt;Node6</title>
<path fill="none" stroke="midnightblue" d="M861.018,-67.396C844.416,-56.4956 821.544,-41.4787 804.95,-30.5835"/>
<polygon fill="midnightblue" stroke="midnightblue" points="806.737,-27.5697 796.457,-25.007 802.895,-33.4212 806.737,-27.5697"/>
</g>
<!-- Node10&#45;&gt;Node7 -->
<g id="edge16" class="edge"><title>Node10&#45;&gt;Node7</title>
<path fill="none" stroke="midnightblue" d="M834.603,-67.476C800.582,-57.5149 754.718,-44.0862 718.604,-33.5123"/>
<polygon fill="midnightblue" stroke="midnightblue" points="719.275,-30.062 708.694,-30.6109 717.308,-36.7799 719.275,-30.062"/>
</g>
<!-- Node11&#45;&gt;Node6 -->
<g id="edge18" class="edge"><title>Node11&#45;&gt;Node6</title>
<path fill="none" stroke="midnightblue" d="M986.62,-67.476C938.885,-55.4962 871.166,-38.5011 827.283,-27.4881"/>
<polygon fill="midnightblue" stroke="midnightblue" points="828.035,-24.0682 817.483,-25.0287 826.331,-30.8576 828.035,-24.0682"/>
</g>
<!-- Node11&#45;&gt;Node7 -->
<g id="edge19" class="edge"><title>Node11&#45;&gt;Node7</title>
<path fill="none" stroke="midnightblue" d="M971.419,-68.5054C968.407,-67.9899 965.424,-67.486 962.5,-67 860.162,-49.9895 831.354,-50.7666 725.727,-31.1499"/>
<polygon fill="midnightblue" stroke="midnightblue" points="726.079,-27.655 715.605,-29.2519 724.789,-34.5351 726.079,-27.655"/>
</g>
</g>
</svg>
