<?xml version="1.0" encoding="UTF-8" standalone="no"?>
<!DOCTYPE svg PUBLIC "-//W3C//DTD SVG 1.1//EN"
 "http://www.w3.org/Graphics/SVG/1.1/DTD/svg11.dtd">
<!-- Generated by graphviz version 2.38.0 (20140413.2041)
 -->
<!-- Title: include/userobjects/DwarfElephantRBStructuresT6F1O1SteadyState.h Pages: 1 -->
<!--zoomable 184 -->
<svg id="main" version="1.1" xmlns="http://www.w3.org/2000/svg" xmlns:xlink="http://www.w3.org/1999/xlink" xml:space="preserve" onload="init(evt)">
<style type="text/css"><![CDATA[
.edge:hover path { stroke: red; }
.edge:hover polygon { stroke: red; fill: red; }
]]></style>
<script type="text/javascript"><![CDATA[
var edges = document.getElementsByTagName('g');
if (edges && edges.length) {
  for (var i=0;i<edges.length;i++) {
    if (edges[i].id.substr(0,4)=='edge') {
      edges[i].setAttribute('class','edge');
    }
  }
}
]]></script>
        <defs>
                <circle id="rim" cx="0" cy="0" r="7"/>
                <circle id="rim2" cx="0" cy="0" r="3.5"/>
                <g id="zoomPlus">
                        <use xlink:href="#rim" fill="#404040">
                                <set attributeName="fill" to="#808080" begin="zoomplus.mouseover" end="zoomplus.mouseout"/>
                        </use>
                        <path d="M-4,0h8M0,-4v8" fill="none" stroke="white" stroke-width="1.5" pointer-events="none"/>
                </g>
                <g id="zoomMin">
                        <use xlink:href="#rim" fill="#404040">
                                <set attributeName="fill" to="#808080" begin="zoomminus.mouseover" end="zoomminus.mouseout"/>
                        </use>
                        <path d="M-4,0h8" fill="none" stroke="white" stroke-width="1.5" pointer-events="none"/>
                </g>
                <g id="dirArrow">
                        <path fill="none" stroke="white" stroke-width="1.5" d="M0,-3.0v7 M-2.5,-0.5L0,-3.0L2.5,-0.5"/>
                </g>
               <g id="resetDef">
                       <use xlink:href="#rim2" fill="#404040">
                               <set attributeName="fill" to="#808080" begin="reset.mouseover" end="reset.mouseout"/>
                       </use>
               </g>
        </defs>

<script type="text/javascript">
var viewWidth = 982;
var viewHeight = 184;
var sectionId = 'dynsection-0';
</script>
<script xlink:href="svgpan.js"/>
<svg id="graph" class="graph">
<g id="viewport">
<title>include/userobjects/DwarfElephantRBStructuresT6F1O1SteadyState.h</title>
<polygon fill="white" stroke="none" points="-4,4 -4,-180 977.71,-180 977.71,4 -4,4"/>
<!-- Node1 -->
<g id="node1" class="node"><title>Node1</title>
<polygon fill="#bfbfbf" stroke="black" points="414.855,-134.5 414.855,-175.5 558.855,-175.5 558.855,-134.5 414.855,-134.5"/>
<text text-anchor="start" x="422.855" y="-163.5" font-family="Helvetica,sans-Serif" font-size="10.00">include/userobjects</text>
<text text-anchor="start" x="422.855" y="-152.5" font-family="Helvetica,sans-Serif" font-size="10.00">/DwarfElephantRBStructures</text>
<text text-anchor="middle" x="486.855" y="-141.5" font-family="Helvetica,sans-Serif" font-size="10.00">T6F1O1SteadyState.h</text>
</g>
<!-- Node2 -->
<g id="node2" class="node"><title>Node2</title>
<polygon fill="white" stroke="#bfbfbf" points="357.355,-6 357.355,-25 456.355,-25 456.355,-6 357.355,-6"/>
<text text-anchor="middle" x="406.855" y="-13" font-family="Helvetica,sans-Serif" font-size="10.00">libmesh/rb_theta.h</text>
</g>
<!-- Node1&#45;&gt;Node2 -->
<g id="edge1" class="edge"><title>Node1&#45;&gt;Node2</title>
<path fill="none" stroke="midnightblue" d="M414.636,-150.777C287.244,-144.347 33.4737,-127.905 6.85516,-98 -2.30535,-87.7086 -2.25665,-77.3345 6.85516,-67 28.9748,-41.9122 241.042,-26.1357 347.089,-19.7515"/>
<polygon fill="midnightblue" stroke="midnightblue" points="347.544,-23.2307 357.319,-19.1449 347.129,-16.243 347.544,-23.2307"/>
</g>
<!-- Node3 -->
<g id="node3" class="node"><title>Node3</title>
<polygon fill="white" stroke="#bfbfbf" points="511.855,-0.5 511.855,-30.5 621.855,-30.5 621.855,-0.5 511.855,-0.5"/>
<text text-anchor="start" x="519.855" y="-18.5" font-family="Helvetica,sans-Serif" font-size="10.00">libmesh/rb_assembly</text>
<text text-anchor="middle" x="566.855" y="-7.5" font-family="Helvetica,sans-Serif" font-size="10.00">_expansion.h</text>
</g>
<!-- Node1&#45;&gt;Node3 -->
<g id="edge2" class="edge"><title>Node1&#45;&gt;Node3</title>
<path fill="none" stroke="midnightblue" d="M559.074,-150.777C686.467,-144.347 940.237,-127.905 966.855,-98 976.016,-87.7086 975.967,-77.3345 966.855,-67 945.106,-42.3319 739.711,-26.6662 632.032,-20.0798"/>
<polygon fill="midnightblue" stroke="midnightblue" points="632.118,-16.5787 621.926,-19.4707 631.697,-23.566 632.118,-16.5787"/>
</g>
<!-- Node4 -->
<g id="node4" class="node"><title>Node4</title>
<g id="a_node4"><a xlink:href="_dwarf_elephant_r_b_structures_a0_theta_equal_mu0_8h.html" target="_top" xlink:title="DwarfElephantRBStructures\lA0ThetaEqualMu0.h">
<polygon fill="white" stroke="black" points="15.8552,-67.5 15.8552,-97.5 157.855,-97.5 157.855,-67.5 15.8552,-67.5"/>
<text text-anchor="start" x="23.8552" y="-85.5" font-family="Helvetica,sans-Serif" font-size="10.00">DwarfElephantRBStructures</text>
<text text-anchor="middle" x="86.8552" y="-74.5" font-family="Helvetica,sans-Serif" font-size="10.00">A0ThetaEqualMu0.h</text>
</a>
</g>
</g>
<!-- Node1&#45;&gt;Node4 -->
<g id="edge3" class="edge"><title>Node1&#45;&gt;Node4</title>
<path fill="none" stroke="midnightblue" d="M414.709,-141.503C352.119,-130.631 258.791,-114.351 167.878,-98.1766"/>
<polygon fill="midnightblue" stroke="midnightblue" points="168.41,-94.7163 157.951,-96.4092 167.183,-101.608 168.41,-94.7163"/>
</g>
<!-- Node5 -->
<g id="node5" class="node"><title>Node5</title>
<g id="a_node5"><a xlink:href="_dwarf_elephant_r_b_structures_a1_theta_equal_mu1_8h.html" target="_top" xlink:title="DwarfElephantRBStructures\lA1ThetaEqualMu1.h">
<polygon fill="white" stroke="black" points="175.855,-67.5 175.855,-97.5 317.855,-97.5 317.855,-67.5 175.855,-67.5"/>
<text text-anchor="start" x="183.855" y="-85.5" font-family="Helvetica,sans-Serif" font-size="10.00">DwarfElephantRBStructures</text>
<text text-anchor="middle" x="246.855" y="-74.5" font-family="Helvetica,sans-Serif" font-size="10.00">A1ThetaEqualMu1.h</text>
</a>
</g>
</g>
<!-- Node1&#45;&gt;Node5 -->
<g id="edge6" class="edge"><title>Node1&#45;&gt;Node5</title>
<path fill="none" stroke="midnightblue" d="M420.32,-134.455C384.084,-123.811 339.671,-110.765 304.856,-100.538"/>
<polygon fill="midnightblue" stroke="midnightblue" points="305.425,-97.0572 294.844,-97.5968 303.452,-103.773 305.425,-97.0572"/>
</g>
<!-- Node6 -->
<g id="node6" class="node"><title>Node6</title>
<g id="a_node6"><a xlink:href="_dwarf_elephant_r_b_structures_a2_theta_equal_mu2_8h.html" target="_top" xlink:title="DwarfElephantRBStructures\lA2ThetaEqualMu2.h">
<polygon fill="white" stroke="black" points="335.855,-67.5 335.855,-97.5 477.855,-97.5 477.855,-67.5 335.855,-67.5"/>
<text text-anchor="start" x="343.855" y="-85.5" font-family="Helvetica,sans-Serif" font-size="10.00">DwarfElephantRBStructures</text>
<text text-anchor="middle" x="406.855" y="-74.5" font-family="Helvetica,sans-Serif" font-size="10.00">A2ThetaEqualMu2.h</text>
</a>
</g>
</g>
<!-- Node1&#45;&gt;Node6 -->
<g id="edge9" class="edge"><title>Node1&#45;&gt;Node6</title>
<path fill="none" stroke="midnightblue" d="M464.571,-134.362C454.034,-125.076 441.442,-113.979 430.712,-104.524"/>
<polygon fill="midnightblue" stroke="midnightblue" points="432.751,-101.656 422.935,-97.67 428.123,-106.907 432.751,-101.656"/>
</g>
<!-- Node7 -->
<g id="node7" class="node"><title>Node7</title>
<g id="a_node7"><a xlink:href="_dwarf_elephant_r_b_structures_a3_theta_equal_mu3_8h.html" target="_top" xlink:title="DwarfElephantRBStructures\lA3ThetaEqualMu3.h">
<polygon fill="white" stroke="black" points="495.855,-67.5 495.855,-97.5 637.855,-97.5 637.855,-67.5 495.855,-67.5"/>
<text text-anchor="start" x="503.855" y="-85.5" font-family="Helvetica,sans-Serif" font-size="10.00">DwarfElephantRBStructures</text>
<text text-anchor="middle" x="566.855" y="-74.5" font-family="Helvetica,sans-Serif" font-size="10.00">A3ThetaEqualMu3.h</text>
</a>
</g>
</g>
<!-- Node1&#45;&gt;Node7 -->
<g id="edge12" class="edge"><title>Node1&#45;&gt;Node7</title>
<path fill="none" stroke="midnightblue" d="M509.14,-134.362C519.676,-125.076 532.269,-113.979 542.998,-104.524"/>
<polygon fill="midnightblue" stroke="midnightblue" points="545.587,-106.907 550.776,-97.67 540.959,-101.656 545.587,-106.907"/>
</g>
<!-- Node8 -->
<g id="node8" class="node"><title>Node8</title>
<g id="a_node8"><a xlink:href="_dwarf_elephant_r_b_structures_a4_theta_equal_mu4_8h.html" target="_top" xlink:title="DwarfElephantRBStructures\lA4ThetaEqualMu4.h">
<polygon fill="white" stroke="black" points="655.855,-67.5 655.855,-97.5 797.855,-97.5 797.855,-67.5 655.855,-67.5"/>
<text text-anchor="start" x="663.855" y="-85.5" font-family="Helvetica,sans-Serif" font-size="10.00">DwarfElephantRBStructures</text>
<text text-anchor="middle" x="726.855" y="-74.5" font-family="Helvetica,sans-Serif" font-size="10.00">A4ThetaEqualMu4.h</text>
</a>
</g>
</g>
<!-- Node1&#45;&gt;Node8 -->
<g id="edge15" class="edge"><title>Node1&#45;&gt;Node8</title>
<path fill="none" stroke="midnightblue" d="M553.39,-134.455C589.627,-123.811 634.04,-110.765 668.854,-100.538"/>
<polygon fill="midnightblue" stroke="midnightblue" points="670.258,-103.773 678.866,-97.5968 668.285,-97.0572 670.258,-103.773"/>
</g>
<!-- Node9 -->
<g id="node9" class="node"><title>Node9</title>
<g id="a_node9"><a xlink:href="_dwarf_elephant_r_b_structures_a5_theta_equal_mu5_8h.html" target="_top" xlink:title="DwarfElephantRBStructures\lA5ThetaEqualMu5.h">
<polygon fill="white" stroke="black" points="815.855,-67.5 815.855,-97.5 957.855,-97.5 957.855,-67.5 815.855,-67.5"/>
<text text-anchor="start" x="823.855" y="-85.5" font-family="Helvetica,sans-Serif" font-size="10.00">DwarfElephantRBStructures</text>
<text text-anchor="middle" x="886.855" y="-74.5" font-family="Helvetica,sans-Serif" font-size="10.00">A5ThetaEqualMu5.h</text>
</a>
</g>
</g>
<!-- Node1&#45;&gt;Node9 -->
<g id="edge18" class="edge"><title>Node1&#45;&gt;Node9</title>
<path fill="none" stroke="midnightblue" d="M559.001,-141.503C621.592,-130.631 714.92,-114.351 805.833,-98.1766"/>
<polygon fill="midnightblue" stroke="midnightblue" points="806.528,-101.608 815.759,-96.4092 805.3,-94.7163 806.528,-101.608"/>
</g>
<!-- Node4&#45;&gt;Node2 -->
<g id="edge4" class="edge"><title>Node4&#45;&gt;Node2</title>
<path fill="none" stroke="midnightblue" d="M155.896,-67.476C215.619,-55.3449 300.66,-38.0709 354.8,-27.0737"/>
<polygon fill="midnightblue" stroke="midnightblue" points="355.765,-30.4493 364.868,-25.0287 354.371,-23.5894 355.765,-30.4493"/>
</g>
<!-- Node4&#45;&gt;Node3 -->
<g id="edge5" class="edge"><title>Node4&#45;&gt;Node3</title>
<path fill="none" stroke="midnightblue" d="M157.919,-68.3948C160.936,-67.9095 163.924,-67.4423 166.855,-67 298.769,-47.0951 332.586,-48.389 464.855,-31 476.77,-29.4336 489.457,-27.6906 501.689,-25.9717"/>
<polygon fill="midnightblue" stroke="midnightblue" points="502.419,-29.4034 511.831,-24.5378 501.439,-22.4723 502.419,-29.4034"/>
</g>
<!-- Node5&#45;&gt;Node2 -->
<g id="edge7" class="edge"><title>Node5&#45;&gt;Node2</title>
<path fill="none" stroke="midnightblue" d="M281.573,-67.396C309.895,-55.8901 349.508,-39.7974 376.56,-28.8072"/>
<polygon fill="midnightblue" stroke="midnightblue" points="377.968,-32.0135 385.915,-25.007 375.333,-25.5282 377.968,-32.0135"/>
</g>
<!-- Node5&#45;&gt;Node3 -->
<g id="edge8" class="edge"><title>Node5&#45;&gt;Node3</title>
<path fill="none" stroke="midnightblue" d="M315.896,-67.476C371.073,-56.2683 447.86,-40.6709 501.925,-29.689"/>
<polygon fill="midnightblue" stroke="midnightblue" points="502.642,-33.1149 511.745,-27.6943 501.248,-26.255 502.642,-33.1149"/>
</g>
<!-- Node6&#45;&gt;Node2 -->
<g id="edge10" class="edge"><title>Node6&#45;&gt;Node2</title>
<path fill="none" stroke="midnightblue" d="M406.855,-67.396C406.855,-58.0638 406.855,-45.7143 406.855,-35.5173"/>
<polygon fill="midnightblue" stroke="midnightblue" points="410.355,-35.1945 406.855,-25.1945 403.355,-35.1946 410.355,-35.1945"/>
</g>
<!-- Node6&#45;&gt;Node3 -->
<g id="edge11" class="edge"><title>Node6&#45;&gt;Node3</title>
<path fill="none" stroke="midnightblue" d="M441.573,-67.396C465.37,-57.7284 497.138,-44.8226 522.729,-34.4262"/>
<polygon fill="midnightblue" stroke="midnightblue" points="524.258,-37.583 532.205,-30.5765 521.623,-31.0977 524.258,-37.583"/>
</g>
<!-- Node7&#45;&gt;Node2 -->
<g id="edge13" class="edge"><title>Node7&#45;&gt;Node2</title>
<path fill="none" stroke="midnightblue" d="M532.138,-67.396C503.815,-55.8901 464.203,-39.7974 437.15,-28.8072"/>
<polygon fill="midnightblue" stroke="midnightblue" points="438.377,-25.5282 427.795,-25.007 435.743,-32.0135 438.377,-25.5282"/>
</g>
<!-- Node7&#45;&gt;Node3 -->
<g id="edge14" class="edge"><title>Node7&#45;&gt;Node3</title>
<path fill="none" stroke="midnightblue" d="M566.855,-67.396C566.855,-59.6448 566.855,-49.8122 566.855,-40.8601"/>
<polygon fill="midnightblue" stroke="midnightblue" points="570.355,-40.5765 566.855,-30.5765 563.355,-40.5765 570.355,-40.5765"/>
</g>
<!-- Node8&#45;&gt;Node2 -->
<g id="edge16" class="edge"><title>Node8&#45;&gt;Node2</title>
<path fill="none" stroke="midnightblue" d="M657.814,-67.476C598.091,-55.3449 513.051,-38.0709 458.91,-27.0737"/>
<polygon fill="midnightblue" stroke="midnightblue" points="459.339,-23.5894 448.842,-25.0287 457.946,-30.4493 459.339,-23.5894"/>
</g>
<!-- Node8&#45;&gt;Node3 -->
<g id="edge17" class="edge"><title>Node8&#45;&gt;Node3</title>
<path fill="none" stroke="midnightblue" d="M692.138,-67.396C668.34,-57.7284 636.572,-44.8226 610.981,-34.4262"/>
<polygon fill="midnightblue" stroke="midnightblue" points="612.087,-31.0977 601.505,-30.5765 609.452,-37.583 612.087,-31.0977"/>
</g>
<!-- Node9&#45;&gt;Node2 -->
<g id="edge19" class="edge"><title>Node9&#45;&gt;Node2</title>
<path fill="none" stroke="midnightblue" d="M815.793,-68.3861C812.776,-67.9032 809.787,-67.4388 806.855,-67 672.299,-46.8582 637.693,-49.1621 502.855,-31 491.11,-29.4179 478.574,-27.6111 466.569,-25.8222"/>
<polygon fill="midnightblue" stroke="midnightblue" points="467.047,-22.3549 456.638,-24.3292 466.006,-29.2771 467.047,-22.3549"/>
</g>
<!-- Node9&#45;&gt;Node3 -->
<g id="edge20" class="edge"><title>Node9&#45;&gt;Node3</title>
<path fill="none" stroke="midnightblue" d="M817.814,-67.476C762.637,-56.2683 685.85,-40.6709 631.786,-29.689"/>
<polygon fill="midnightblue" stroke="midnightblue" points="632.462,-26.255 621.965,-27.6943 631.069,-33.1149 632.462,-26.255"/>
</g>
</g>
</svg>
        <g id="navigator" transform="translate(0 0)" fill="#404254">
                <rect fill="#f2f5e9" fill-opacity="0.5" stroke="#606060" stroke-width=".5" x="0" y="0" width="60" height="60"/>
                <use id="zoomplus" xlink:href="#zoomPlus" x="17" y="9" onmousedown="handleZoom(evt,'in')"/>
                <use id="zoomminus" xlink:href="#zoomMin" x="42" y="9" onmousedown="handleZoom(evt,'out')"/>
                <use id="reset" xlink:href="#resetDef" x="30" y="36" onmousedown="handleReset()"/>
                <g id="arrowUp" xlink:href="#dirArrow" transform="translate(30 24)" onmousedown="handlePan(0,-1)">
                  <use xlink:href="#rim" fill="#404040">
                        <set attributeName="fill" to="#808080" begin="arrowUp.mouseover" end="arrowUp.mouseout"/>
                  </use>
                  <path fill="none" stroke="white" stroke-width="1.5" d="M0,-3.0v7 M-2.5,-0.5L0,-3.0L2.5,-0.5"/>
                </g>
                <g id="arrowRight" xlink:href="#dirArrow" transform="rotate(90) translate(36 -43)" onmousedown="handlePan(1,0)">
                  <use xlink:href="#rim" fill="#404040">
                        <set attributeName="fill" to="#808080" begin="arrowRight.mouseover" end="arrowRight.mouseout"/>
                  </use>
                  <path fill="none" stroke="white" stroke-width="1.5" d="M0,-3.0v7 M-2.5,-0.5L0,-3.0L2.5,-0.5"/>
                </g>
                <g id="arrowDown" xlink:href="#dirArrow" transform="rotate(180) translate(-30 -48)" onmousedown="handlePan(0,1)">
                  <use xlink:href="#rim" fill="#404040">
                        <set attributeName="fill" to="#808080" begin="arrowDown.mouseover" end="arrowDown.mouseout"/>
                  </use>
                  <path fill="none" stroke="white" stroke-width="1.5" d="M0,-3.0v7 M-2.5,-0.5L0,-3.0L2.5,-0.5"/>
                </g>
                <g id="arrowLeft" xlink:href="#dirArrow" transform="rotate(270) translate(-36 17)" onmousedown="handlePan(-1,0)">
                  <use xlink:href="#rim" fill="#404040">
                        <set attributeName="fill" to="#808080" begin="arrowLeft.mouseover" end="arrowLeft.mouseout"/>
                  </use>
                  <path fill="none" stroke="white" stroke-width="1.5" d="M0,-3.0v7 M-2.5,-0.5L0,-3.0L2.5,-0.5"/>
                </g>
        </g>
        <svg viewBox="0 0 15 15" width="100%" height="30px" preserveAspectRatio="xMaxYMin meet">
         <g id="arrow_out" transform="scale(0.3 0.3)">
          <a xlink:href="_dwarf_elephant_r_b_structures_t6_f1_o1_steady_state_8h__incl_org.svg" target="_base">
           <rect id="button" ry="5" rx="5" y="6" x="6" height="38" width="38"
                fill="#f2f5e9" fill-opacity="0.5" stroke="#606060" stroke-width="1.0"/>
           <path id="arrow"
             d="M 11.500037,31.436501 C 11.940474,20.09759 22.043105,11.32322 32.158766,21.979434 L 37.068811,17.246167 C 37.068811,17.246167 37.088388,32 37.088388,32 L 22.160133,31.978069 C 22.160133,31.978069 26.997745,27.140456 26.997745,27.140456 C 18.528582,18.264221 13.291696,25.230495 11.500037,31.436501 z"
             style="fill:#404040;"/>
          </a>
         </g>
        </svg>
</svg>
