<?xml version="1.0" encoding="UTF-8" standalone="no"?>
<!DOCTYPE svg PUBLIC "-//W3C//DTD SVG 1.1//EN"
 "http://www.w3.org/Graphics/SVG/1.1/DTD/svg11.dtd">
<!-- Generated by graphviz version 2.38.0 (20140413.2041)
 -->
<!-- Title: include/userobjects/DwarfElephantRBStructuresT12F13O20SteadyState.h Pages: 1 -->
<!--zoomable 184 -->
<svg id="main" version="1.1" xmlns="http://www.w3.org/2000/svg" xmlns:xlink="http://www.w3.org/1999/xlink" xml:space="preserve" onload="init(evt)">
<style type="text/css"><![CDATA[
.edge:hover path { stroke: red; }
.edge:hover polygon { stroke: red; fill: red; }
]]></style>
<script type="text/javascript"><![CDATA[
var edges = document.getElementsByTagName('g');
if (edges && edges.length) {
  for (var i=0;i<edges.length;i++) {
    if (edges[i].id.substr(0,4)=='edge') {
      edges[i].setAttribute('class','edge');
    }
  }
}
]]></script>
        <defs>
                <circle id="rim" cx="0" cy="0" r="7"/>
                <circle id="rim2" cx="0" cy="0" r="3.5"/>
                <g id="zoomPlus">
                        <use xlink:href="#rim" fill="#404040">
                                <set attributeName="fill" to="#808080" begin="zoomplus.mouseover" end="zoomplus.mouseout"/>
                        </use>
                        <path d="M-4,0h8M0,-4v8" fill="none" stroke="white" stroke-width="1.5" pointer-events="none"/>
                </g>
                <g id="zoomMin">
                        <use xlink:href="#rim" fill="#404040">
                                <set attributeName="fill" to="#808080" begin="zoomminus.mouseover" end="zoomminus.mouseout"/>
                        </use>
                        <path d="M-4,0h8" fill="none" stroke="white" stroke-width="1.5" pointer-events="none"/>
                </g>
                <g id="dirArrow">
                        <path fill="none" stroke="white" stroke-width="1.5" d="M0,-3.0v7 M-2.5,-0.5L0,-3.0L2.5,-0.5"/>
                </g>
               <g id="resetDef">
                       <use xlink:href="#rim2" fill="#404040">
                               <set attributeName="fill" to="#808080" begin="reset.mouseover" end="reset.mouseout"/>
                       </use>
               </g>
        </defs>

<script type="text/javascript">
var viewWidth = 3222;
var viewHeight = 184;
var sectionId = 'dynsection-0';
</script>
<script xlink:href="svgpan.js"/>
<svg id="graph" class="graph">
<g id="viewport">
<title>include/userobjects/DwarfElephantRBStructuresT12F13O20SteadyState.h</title>
<polygon fill="white" stroke="none" points="-4,4 -4,-180 3218.36,-180 3218.36,4 -4,4"/>
<!-- Node1 -->
<g id="node1" class="node"><title>Node1</title>
<polygon fill="#bfbfbf" stroke="black" points="1535.18,-134.5 1535.18,-175.5 1679.18,-175.5 1679.18,-134.5 1535.18,-134.5"/>
<text text-anchor="start" x="1543.18" y="-163.5" font-family="Helvetica,sans-Serif" font-size="10.00">include/userobjects</text>
<text text-anchor="start" x="1543.18" y="-152.5" font-family="Helvetica,sans-Serif" font-size="10.00">/DwarfElephantRBStructures</text>
<text text-anchor="middle" x="1607.18" y="-141.5" font-family="Helvetica,sans-Serif" font-size="10.00">T12F13O20SteadyState.h</text>
</g>
<!-- Node2 -->
<g id="node2" class="node"><title>Node2</title>
<polygon fill="white" stroke="#bfbfbf" points="1477.68,-6 1477.68,-25 1576.68,-25 1576.68,-6 1477.68,-6"/>
<text text-anchor="middle" x="1527.18" y="-13" font-family="Helvetica,sans-Serif" font-size="10.00">libmesh/rb_theta.h</text>
</g>
<!-- Node1&#45;&gt;Node2 -->
<g id="edge1" class="edge"><title>Node1&#45;&gt;Node2</title>
<path fill="none" stroke="midnightblue" d="M1535.17,-154.23C1230.54,-154.858 60.8946,-153.626 7.18169,-98 -2.38877,-88.0887 -2.39756,-76.9028 7.18169,-67 58.7796,-13.6593 1192.42,-15.0616 1467.47,-16.1921"/>
<polygon fill="midnightblue" stroke="midnightblue" points="1467.63,-19.6927 1477.65,-16.2354 1467.66,-12.6928 1467.63,-19.6927"/>
</g>
<!-- Node3 -->
<g id="node3" class="node"><title>Node3</title>
<polygon fill="white" stroke="#bfbfbf" points="1632.18,-0.5 1632.18,-30.5 1742.18,-30.5 1742.18,-0.5 1632.18,-0.5"/>
<text text-anchor="start" x="1640.18" y="-18.5" font-family="Helvetica,sans-Serif" font-size="10.00">libmesh/rb_assembly</text>
<text text-anchor="middle" x="1687.18" y="-7.5" font-family="Helvetica,sans-Serif" font-size="10.00">_expansion.h</text>
</g>
<!-- Node1&#45;&gt;Node3 -->
<g id="edge2" class="edge"><title>Node1&#45;&gt;Node3</title>
<path fill="none" stroke="midnightblue" d="M1679.19,-154.23C1983.82,-154.858 3153.47,-153.626 3207.18,-98 3216.75,-88.0887 3216.76,-76.9028 3207.18,-67 3155.93,-14.0137 2036.96,-15.0454 1752.49,-16.1695"/>
<polygon fill="midnightblue" stroke="midnightblue" points="1752.32,-12.6701 1742.33,-16.2111 1752.35,-19.6701 1752.32,-12.6701"/>
</g>
<!-- Node4 -->
<g id="node4" class="node"><title>Node4</title>
<g id="a_node4"><a xlink:href="_dwarf_elephant_r_b_structures_a00_theta_constant_8h.html" target="_top" xlink:title="DwarfElephantRBStructures\lA00ThetaConstant.h">
<polygon fill="white" stroke="black" points="1296.18,-67.5 1296.18,-97.5 1438.18,-97.5 1438.18,-67.5 1296.18,-67.5"/>
<text text-anchor="start" x="1304.18" y="-85.5" font-family="Helvetica,sans-Serif" font-size="10.00">DwarfElephantRBStructures</text>
<text text-anchor="middle" x="1367.18" y="-74.5" font-family="Helvetica,sans-Serif" font-size="10.00">A00ThetaConstant.h</text>
</a>
</g>
</g>
<!-- Node1&#45;&gt;Node4 -->
<g id="edge3" class="edge"><title>Node1&#45;&gt;Node4</title>
<path fill="none" stroke="midnightblue" d="M1540.65,-134.455C1504.41,-123.811 1460,-110.765 1425.18,-100.538"/>
<polygon fill="midnightblue" stroke="midnightblue" points="1425.75,-97.0572 1415.17,-97.5968 1423.78,-103.773 1425.75,-97.0572"/>
</g>
<!-- Node5 -->
<g id="node5" class="node"><title>Node5</title>
<g id="a_node5"><a xlink:href="_dwarf_elephant_r_b_structures_a0_theta_equal_mu0_8h.html" target="_top" xlink:title="DwarfElephantRBStructures\lA0ThetaEqualMu0.h">
<polygon fill="white" stroke="black" points="1456.18,-67.5 1456.18,-97.5 1598.18,-97.5 1598.18,-67.5 1456.18,-67.5"/>
<text text-anchor="start" x="1464.18" y="-85.5" font-family="Helvetica,sans-Serif" font-size="10.00">DwarfElephantRBStructures</text>
<text text-anchor="middle" x="1527.18" y="-74.5" font-family="Helvetica,sans-Serif" font-size="10.00">A0ThetaEqualMu0.h</text>
</a>
</g>
</g>
<!-- Node1&#45;&gt;Node5 -->
<g id="edge6" class="edge"><title>Node1&#45;&gt;Node5</title>
<path fill="none" stroke="midnightblue" d="M1584.9,-134.362C1574.36,-125.076 1561.77,-113.979 1551.04,-104.524"/>
<polygon fill="midnightblue" stroke="midnightblue" points="1553.08,-101.656 1543.26,-97.67 1548.45,-106.907 1553.08,-101.656"/>
</g>
<!-- Node6 -->
<g id="node6" class="node"><title>Node6</title>
<g id="a_node6"><a xlink:href="_dwarf_elephant_r_b_structures_a0_theta_norm_mu0_8h.html" target="_top" xlink:title="DwarfElephantRBStructures\lA0ThetaNormMu0.h">
<polygon fill="white" stroke="black" points="1616.18,-67.5 1616.18,-97.5 1758.18,-97.5 1758.18,-67.5 1616.18,-67.5"/>
<text text-anchor="start" x="1624.18" y="-85.5" font-family="Helvetica,sans-Serif" font-size="10.00">DwarfElephantRBStructures</text>
<text text-anchor="middle" x="1687.18" y="-74.5" font-family="Helvetica,sans-Serif" font-size="10.00">A0ThetaNormMu0.h</text>
</a>
</g>
</g>
<!-- Node1&#45;&gt;Node6 -->
<g id="edge9" class="edge"><title>Node1&#45;&gt;Node6</title>
<path fill="none" stroke="midnightblue" d="M1629.47,-134.362C1640,-125.076 1652.6,-113.979 1663.32,-104.524"/>
<polygon fill="midnightblue" stroke="midnightblue" points="1665.91,-106.907 1671.1,-97.67 1661.29,-101.656 1665.91,-106.907"/>
</g>
<!-- Node7 -->
<g id="node7" class="node"><title>Node7</title>
<g id="a_node7"><a xlink:href="_dwarf_elephant_r_b_structures_a0_theta_norm_mu1_8h.html" target="_top" xlink:title="DwarfElephantRBStructures\lA0ThetaNormMu1.h">
<polygon fill="white" stroke="black" points="1776.18,-67.5 1776.18,-97.5 1918.18,-97.5 1918.18,-67.5 1776.18,-67.5"/>
<text text-anchor="start" x="1784.18" y="-85.5" font-family="Helvetica,sans-Serif" font-size="10.00">DwarfElephantRBStructures</text>
<text text-anchor="middle" x="1847.18" y="-74.5" font-family="Helvetica,sans-Serif" font-size="10.00">A0ThetaNormMu1.h</text>
</a>
</g>
</g>
<!-- Node1&#45;&gt;Node7 -->
<g id="edge12" class="edge"><title>Node1&#45;&gt;Node7</title>
<path fill="none" stroke="midnightblue" d="M1673.72,-134.455C1709.95,-123.811 1754.37,-110.765 1789.18,-100.538"/>
<polygon fill="midnightblue" stroke="midnightblue" points="1790.58,-103.773 1799.19,-97.5968 1788.61,-97.0572 1790.58,-103.773"/>
</g>
<!-- Node8 -->
<g id="node8" class="node"><title>Node8</title>
<g id="a_node8"><a xlink:href="_dwarf_elephant_r_b_structures_a1_theta_equal_mu1_8h.html" target="_top" xlink:title="DwarfElephantRBStructures\lA1ThetaEqualMu1.h">
<polygon fill="white" stroke="black" points="1936.18,-67.5 1936.18,-97.5 2078.18,-97.5 2078.18,-67.5 1936.18,-67.5"/>
<text text-anchor="start" x="1944.18" y="-85.5" font-family="Helvetica,sans-Serif" font-size="10.00">DwarfElephantRBStructures</text>
<text text-anchor="middle" x="2007.18" y="-74.5" font-family="Helvetica,sans-Serif" font-size="10.00">A1ThetaEqualMu1.h</text>
</a>
</g>
</g>
<!-- Node1&#45;&gt;Node8 -->
<g id="edge15" class="edge"><title>Node1&#45;&gt;Node8</title>
<path fill="none" stroke="midnightblue" d="M1679.33,-141.503C1741.92,-130.631 1835.25,-114.351 1926.16,-98.1766"/>
<polygon fill="midnightblue" stroke="midnightblue" points="1926.85,-101.608 1936.09,-96.4092 1925.63,-94.7163 1926.85,-101.608"/>
</g>
<!-- Node9 -->
<g id="node9" class="node"><title>Node9</title>
<g id="a_node9"><a xlink:href="_dwarf_elephant_r_b_structures_a1_theta_norm_mu0_8h.html" target="_top" xlink:title="DwarfElephantRBStructures\lA1ThetaNormMu0.h">
<polygon fill="white" stroke="black" points="2096.18,-67.5 2096.18,-97.5 2238.18,-97.5 2238.18,-67.5 2096.18,-67.5"/>
<text text-anchor="start" x="2104.18" y="-85.5" font-family="Helvetica,sans-Serif" font-size="10.00">DwarfElephantRBStructures</text>
<text text-anchor="middle" x="2167.18" y="-74.5" font-family="Helvetica,sans-Serif" font-size="10.00">A1ThetaNormMu0.h</text>
</a>
</g>
</g>
<!-- Node1&#45;&gt;Node9 -->
<g id="edge18" class="edge"><title>Node1&#45;&gt;Node9</title>
<path fill="none" stroke="midnightblue" d="M1679.34,-147.017C1771.31,-137.795 1935.42,-120.266 2085.78,-98.1519"/>
<polygon fill="midnightblue" stroke="midnightblue" points="2086.74,-101.548 2096.12,-96.6204 2085.72,-94.6231 2086.74,-101.548"/>
</g>
<!-- Node10 -->
<g id="node10" class="node"><title>Node10</title>
<g id="a_node10"><a xlink:href="_dwarf_elephant_r_b_structures_a1_theta_norm_mu1_8h.html" target="_top" xlink:title="DwarfElephantRBStructures\lA1ThetaNormMu1.h">
<polygon fill="white" stroke="black" points="2256.18,-67.5 2256.18,-97.5 2398.18,-97.5 2398.18,-67.5 2256.18,-67.5"/>
<text text-anchor="start" x="2264.18" y="-85.5" font-family="Helvetica,sans-Serif" font-size="10.00">DwarfElephantRBStructures</text>
<text text-anchor="middle" x="2327.18" y="-74.5" font-family="Helvetica,sans-Serif" font-size="10.00">A1ThetaNormMu1.h</text>
</a>
</g>
</g>
<!-- Node1&#45;&gt;Node10 -->
<g id="edge21" class="edge"><title>Node1&#45;&gt;Node10</title>
<path fill="none" stroke="midnightblue" d="M1679.4,-149.854C1796.34,-142.662 2034.53,-126.027 2246.08,-98.0674"/>
<polygon fill="midnightblue" stroke="midnightblue" points="2246.69,-101.518 2256.14,-96.7274 2245.76,-94.5794 2246.69,-101.518"/>
</g>
<!-- Node11 -->
<g id="node11" class="node"><title>Node11</title>
<g id="a_node11"><a xlink:href="_dwarf_elephant_r_b_structures_a2_theta_equal_mu2_8h.html" target="_top" xlink:title="DwarfElephantRBStructures\lA2ThetaEqualMu2.h">
<polygon fill="white" stroke="black" points="2416.18,-67.5 2416.18,-97.5 2558.18,-97.5 2558.18,-67.5 2416.18,-67.5"/>
<text text-anchor="start" x="2424.18" y="-85.5" font-family="Helvetica,sans-Serif" font-size="10.00">DwarfElephantRBStructures</text>
<text text-anchor="middle" x="2487.18" y="-74.5" font-family="Helvetica,sans-Serif" font-size="10.00">A2ThetaEqualMu2.h</text>
</a>
</g>
</g>
<!-- Node1&#45;&gt;Node11 -->
<g id="edge24" class="edge"><title>Node1&#45;&gt;Node11</title>
<path fill="none" stroke="midnightblue" d="M1679.42,-151.593C1818.29,-146.387 2132.25,-131.82 2406.01,-98.0527"/>
<polygon fill="midnightblue" stroke="midnightblue" points="2406.65,-101.5 2416.14,-96.7921 2405.79,-94.5538 2406.65,-101.5"/>
</g>
<!-- Node12 -->
<g id="node12" class="node"><title>Node12</title>
<g id="a_node12"><a xlink:href="_dwarf_elephant_r_b_structures_a2_theta_norm_mu0_8h.html" target="_top" xlink:title="DwarfElephantRBStructures\lA2ThetaNormMu0.h">
<polygon fill="white" stroke="black" points="2576.18,-67.5 2576.18,-97.5 2718.18,-97.5 2718.18,-67.5 2576.18,-67.5"/>
<text text-anchor="start" x="2584.18" y="-85.5" font-family="Helvetica,sans-Serif" font-size="10.00">DwarfElephantRBStructures</text>
<text text-anchor="middle" x="2647.18" y="-74.5" font-family="Helvetica,sans-Serif" font-size="10.00">A2ThetaNormMu0.h</text>
</a>
</g>
</g>
<!-- Node1&#45;&gt;Node12 -->
<g id="edge27" class="edge"><title>Node1&#45;&gt;Node12</title>
<path fill="none" stroke="midnightblue" d="M1679.4,-152.77C1838.12,-149.419 2229.35,-137.629 2566.2,-98.0154"/>
<polygon fill="midnightblue" stroke="midnightblue" points="2566.63,-101.489 2576.15,-96.8353 2565.81,-94.5376 2566.63,-101.489"/>
</g>
<!-- Node13 -->
<g id="node13" class="node"><title>Node13</title>
<g id="a_node13"><a xlink:href="_dwarf_elephant_r_b_structures_a2_theta_norm_mu1_8h.html" target="_top" xlink:title="DwarfElephantRBStructures\lA2ThetaNormMu1.h">
<polygon fill="white" stroke="black" points="2736.18,-67.5 2736.18,-97.5 2878.18,-97.5 2878.18,-67.5 2736.18,-67.5"/>
<text text-anchor="start" x="2744.18" y="-85.5" font-family="Helvetica,sans-Serif" font-size="10.00">DwarfElephantRBStructures</text>
<text text-anchor="middle" x="2807.18" y="-74.5" font-family="Helvetica,sans-Serif" font-size="10.00">A2ThetaNormMu1.h</text>
</a>
</g>
</g>
<!-- Node1&#45;&gt;Node13 -->
<g id="edge30" class="edge"><title>Node1&#45;&gt;Node13</title>
<path fill="none" stroke="midnightblue" d="M1679.19,-153.621C1855.96,-151.997 2325.47,-143.487 2726.11,-98.0158"/>
<polygon fill="midnightblue" stroke="midnightblue" points="2726.62,-101.481 2736.15,-96.8662 2725.82,-94.5259 2726.62,-101.481"/>
</g>
<!-- Node14 -->
<g id="node14" class="node"><title>Node14</title>
<g id="a_node14"><a xlink:href="_dwarf_elephant_r_b_structures_a3_theta_equal_mu3_8h.html" target="_top" xlink:title="DwarfElephantRBStructures\lA3ThetaEqualMu3.h">
<polygon fill="white" stroke="black" points="2896.18,-67.5 2896.18,-97.5 3038.18,-97.5 3038.18,-67.5 2896.18,-67.5"/>
<text text-anchor="start" x="2904.18" y="-85.5" font-family="Helvetica,sans-Serif" font-size="10.00">DwarfElephantRBStructures</text>
<text text-anchor="middle" x="2967.18" y="-74.5" font-family="Helvetica,sans-Serif" font-size="10.00">A3ThetaEqualMu3.h</text>
</a>
</g>
</g>
<!-- Node1&#45;&gt;Node14 -->
<g id="edge33" class="edge"><title>Node1&#45;&gt;Node14</title>
<path fill="none" stroke="midnightblue" d="M1679.27,-154.262C1873.02,-154.235 2421.22,-149.342 2885.88,-98.0327"/>
<polygon fill="midnightblue" stroke="midnightblue" points="2886.6,-101.474 2896.16,-96.8894 2885.83,-94.5172 2886.6,-101.474"/>
</g>
<!-- Node15 -->
<g id="node15" class="node"><title>Node15</title>
<g id="a_node15"><a xlink:href="_dwarf_elephant_r_b_structures_a4_theta_equal_mu4_8h.html" target="_top" xlink:title="DwarfElephantRBStructures\lA4ThetaEqualMu4.h">
<polygon fill="white" stroke="black" points="3056.18,-67.5 3056.18,-97.5 3198.18,-97.5 3198.18,-67.5 3056.18,-67.5"/>
<text text-anchor="start" x="3064.18" y="-85.5" font-family="Helvetica,sans-Serif" font-size="10.00">DwarfElephantRBStructures</text>
<text text-anchor="middle" x="3127.18" y="-74.5" font-family="Helvetica,sans-Serif" font-size="10.00">A4ThetaEqualMu4.h</text>
</a>
</g>
</g>
<!-- Node1&#45;&gt;Node15 -->
<g id="edge36" class="edge"><title>Node1&#45;&gt;Node15</title>
<path fill="none" stroke="midnightblue" d="M1679.34,-152.536C1929.28,-147.259 2757.92,-127.979 3046.13,-97.9792"/>
<polygon fill="midnightblue" stroke="midnightblue" points="3046.59,-101.451 3056.16,-96.9075 3045.84,-94.4906 3046.59,-101.451"/>
</g>
<!-- Node16 -->
<g id="node16" class="node"><title>Node16</title>
<g id="a_node16"><a xlink:href="_dwarf_elephant_r_b_structures_a5_theta_equal_mu5_8h.html" target="_top" xlink:title="DwarfElephantRBStructures\lA5ThetaEqualMu5.h">
<polygon fill="white" stroke="black" points="16.1817,-67.5 16.1817,-97.5 158.182,-97.5 158.182,-67.5 16.1817,-67.5"/>
<text text-anchor="start" x="24.1817" y="-85.5" font-family="Helvetica,sans-Serif" font-size="10.00">DwarfElephantRBStructures</text>
<text text-anchor="middle" x="87.1817" y="-74.5" font-family="Helvetica,sans-Serif" font-size="10.00">A5ThetaEqualMu5.h</text>
</a>
</g>
</g>
<!-- Node1&#45;&gt;Node16 -->
<g id="edge39" class="edge"><title>Node1&#45;&gt;Node16</title>
<path fill="none" stroke="midnightblue" d="M1535.02,-152.536C1285.08,-147.259 456.445,-127.979 168.229,-97.9792"/>
<polygon fill="midnightblue" stroke="midnightblue" points="168.522,-94.4906 158.206,-96.9075 167.777,-101.451 168.522,-94.4906"/>
</g>
<!-- Node17 -->
<g id="node17" class="node"><title>Node17</title>
<g id="a_node17"><a xlink:href="_dwarf_elephant_r_b_structures_a6_theta_equal_mu6_8h.html" target="_top" xlink:title="DwarfElephantRBStructures\lA6ThetaEqualMu6.h">
<polygon fill="white" stroke="black" points="176.182,-67.5 176.182,-97.5 318.182,-97.5 318.182,-67.5 176.182,-67.5"/>
<text text-anchor="start" x="184.182" y="-85.5" font-family="Helvetica,sans-Serif" font-size="10.00">DwarfElephantRBStructures</text>
<text text-anchor="middle" x="247.182" y="-74.5" font-family="Helvetica,sans-Serif" font-size="10.00">A6ThetaEqualMu6.h</text>
</a>
</g>
</g>
<!-- Node1&#45;&gt;Node17 -->
<g id="edge42" class="edge"><title>Node1&#45;&gt;Node17</title>
<path fill="none" stroke="midnightblue" d="M1535.1,-154.262C1341.34,-154.235 793.147,-149.342 328.48,-98.0327"/>
<polygon fill="midnightblue" stroke="midnightblue" points="328.534,-94.5172 318.208,-96.8894 327.759,-101.474 328.534,-94.5172"/>
</g>
<!-- Node18 -->
<g id="node18" class="node"><title>Node18</title>
<g id="a_node18"><a xlink:href="_dwarf_elephant_r_b_structures_a7_theta_equal_mu7_8h.html" target="_top" xlink:title="DwarfElephantRBStructures\lA7ThetaEqualMu7.h">
<polygon fill="white" stroke="black" points="336.182,-67.5 336.182,-97.5 478.182,-97.5 478.182,-67.5 336.182,-67.5"/>
<text text-anchor="start" x="344.182" y="-85.5" font-family="Helvetica,sans-Serif" font-size="10.00">DwarfElephantRBStructures</text>
<text text-anchor="middle" x="407.182" y="-74.5" font-family="Helvetica,sans-Serif" font-size="10.00">A7ThetaEqualMu7.h</text>
</a>
</g>
</g>
<!-- Node1&#45;&gt;Node18 -->
<g id="edge45" class="edge"><title>Node1&#45;&gt;Node18</title>
<path fill="none" stroke="midnightblue" d="M1535.18,-153.621C1358.41,-151.997 888.892,-143.487 488.256,-98.0158"/>
<polygon fill="midnightblue" stroke="midnightblue" points="488.544,-94.5259 478.211,-96.8662 487.748,-101.481 488.544,-94.5259"/>
</g>
<!-- Node19 -->
<g id="node19" class="node"><title>Node19</title>
<g id="a_node19"><a xlink:href="_dwarf_elephant_r_b_structures_a8_theta_equal_mu8_8h.html" target="_top" xlink:title="DwarfElephantRBStructures\lA8ThetaEqualMu8.h">
<polygon fill="white" stroke="black" points="496.182,-67.5 496.182,-97.5 638.182,-97.5 638.182,-67.5 496.182,-67.5"/>
<text text-anchor="start" x="504.182" y="-85.5" font-family="Helvetica,sans-Serif" font-size="10.00">DwarfElephantRBStructures</text>
<text text-anchor="middle" x="567.182" y="-74.5" font-family="Helvetica,sans-Serif" font-size="10.00">A8ThetaEqualMu8.h</text>
</a>
</g>
</g>
<!-- Node1&#45;&gt;Node19 -->
<g id="edge48" class="edge"><title>Node1&#45;&gt;Node19</title>
<path fill="none" stroke="midnightblue" d="M1534.96,-152.77C1376.24,-149.419 985.017,-137.629 648.164,-98.0154"/>
<polygon fill="midnightblue" stroke="midnightblue" points="648.557,-94.5376 638.214,-96.8353 647.732,-101.489 648.557,-94.5376"/>
</g>
<!-- Node20 -->
<g id="node20" class="node"><title>Node20</title>
<g id="a_node20"><a xlink:href="_dwarf_elephant_r_b_structures_a9_theta_equal_mu9_8h.html" target="_top" xlink:title="DwarfElephantRBStructures\lA9ThetaEqualMu9.h">
<polygon fill="white" stroke="black" points="656.182,-67.5 656.182,-97.5 798.182,-97.5 798.182,-67.5 656.182,-67.5"/>
<text text-anchor="start" x="664.182" y="-85.5" font-family="Helvetica,sans-Serif" font-size="10.00">DwarfElephantRBStructures</text>
<text text-anchor="middle" x="727.182" y="-74.5" font-family="Helvetica,sans-Serif" font-size="10.00">A9ThetaEqualMu9.h</text>
</a>
</g>
</g>
<!-- Node1&#45;&gt;Node20 -->
<g id="edge51" class="edge"><title>Node1&#45;&gt;Node20</title>
<path fill="none" stroke="midnightblue" d="M1534.94,-151.593C1396.07,-146.387 1082.11,-131.82 808.35,-98.0527"/>
<polygon fill="midnightblue" stroke="midnightblue" points="808.575,-94.5538 798.22,-96.7921 807.711,-101.5 808.575,-94.5538"/>
</g>
<!-- Node21 -->
<g id="node21" class="node"><title>Node21</title>
<g id="a_node21"><a xlink:href="_dwarf_elephant_r_b_structures_a10_theta_equal_mu10_8h.html" target="_top" xlink:title="DwarfElephantRBStructures\lA10ThetaEqualMu10.h">
<polygon fill="white" stroke="black" points="816.182,-67.5 816.182,-97.5 958.182,-97.5 958.182,-67.5 816.182,-67.5"/>
<text text-anchor="start" x="824.182" y="-85.5" font-family="Helvetica,sans-Serif" font-size="10.00">DwarfElephantRBStructures</text>
<text text-anchor="middle" x="887.182" y="-74.5" font-family="Helvetica,sans-Serif" font-size="10.00">A10ThetaEqualMu10.h</text>
</a>
</g>
</g>
<!-- Node1&#45;&gt;Node21 -->
<g id="edge54" class="edge"><title>Node1&#45;&gt;Node21</title>
<path fill="none" stroke="midnightblue" d="M1534.96,-149.854C1418.02,-142.662 1179.84,-126.027 968.281,-98.0674"/>
<polygon fill="midnightblue" stroke="midnightblue" points="968.603,-94.5794 958.228,-96.7274 967.678,-101.518 968.603,-94.5794"/>
</g>
<!-- Node22 -->
<g id="node22" class="node"><title>Node22</title>
<g id="a_node22"><a xlink:href="_dwarf_elephant_r_b_structures_a11_theta_equal_mu11_8h.html" target="_top" xlink:title="DwarfElephantRBStructures\lA11ThetaEqualMu11.h">
<polygon fill="white" stroke="black" points="976.182,-67.5 976.182,-97.5 1118.18,-97.5 1118.18,-67.5 976.182,-67.5"/>
<text text-anchor="start" x="984.182" y="-85.5" font-family="Helvetica,sans-Serif" font-size="10.00">DwarfElephantRBStructures</text>
<text text-anchor="middle" x="1047.18" y="-74.5" font-family="Helvetica,sans-Serif" font-size="10.00">A11ThetaEqualMu11.h</text>
</a>
</g>
</g>
<!-- Node1&#45;&gt;Node22 -->
<g id="edge57" class="edge"><title>Node1&#45;&gt;Node22</title>
<path fill="none" stroke="midnightblue" d="M1535.03,-147.017C1443.06,-137.795 1278.95,-120.266 1128.58,-98.1519"/>
<polygon fill="midnightblue" stroke="midnightblue" points="1128.65,-94.6231 1118.24,-96.6204 1127.62,-101.548 1128.65,-94.6231"/>
</g>
<!-- Node23 -->
<g id="node23" class="node"><title>Node23</title>
<g id="a_node23"><a xlink:href="_dwarf_elephant_r_b_structures_a12_theta_equal_mu12_8h.html" target="_top" xlink:title="DwarfElephantRBStructures\lA12ThetaEqualMu12.h">
<polygon fill="white" stroke="black" points="1136.18,-67.5 1136.18,-97.5 1278.18,-97.5 1278.18,-67.5 1136.18,-67.5"/>
<text text-anchor="start" x="1144.18" y="-85.5" font-family="Helvetica,sans-Serif" font-size="10.00">DwarfElephantRBStructures</text>
<text text-anchor="middle" x="1207.18" y="-74.5" font-family="Helvetica,sans-Serif" font-size="10.00">A12ThetaEqualMu12.h</text>
</a>
</g>
</g>
<!-- Node1&#45;&gt;Node23 -->
<g id="edge60" class="edge"><title>Node1&#45;&gt;Node23</title>
<path fill="none" stroke="midnightblue" d="M1535.04,-141.503C1472.45,-130.631 1379.12,-114.351 1288.2,-98.1766"/>
<polygon fill="midnightblue" stroke="midnightblue" points="1288.74,-94.7163 1278.28,-96.4092 1287.51,-101.608 1288.74,-94.7163"/>
</g>
<!-- Node4&#45;&gt;Node2 -->
<g id="edge4" class="edge"><title>Node4&#45;&gt;Node2</title>
<path fill="none" stroke="midnightblue" d="M1401.9,-67.396C1430.22,-55.8901 1469.83,-39.7974 1496.89,-28.8072"/>
<polygon fill="midnightblue" stroke="midnightblue" points="1498.29,-32.0135 1506.24,-25.007 1495.66,-25.5282 1498.29,-32.0135"/>
</g>
<!-- Node4&#45;&gt;Node3 -->
<g id="edge5" class="edge"><title>Node4&#45;&gt;Node3</title>
<path fill="none" stroke="midnightblue" d="M1436.22,-67.476C1491.4,-56.2683 1568.19,-40.6709 1622.25,-29.689"/>
<polygon fill="midnightblue" stroke="midnightblue" points="1622.97,-33.1149 1632.07,-27.6943 1621.57,-26.255 1622.97,-33.1149"/>
</g>
<!-- Node5&#45;&gt;Node2 -->
<g id="edge7" class="edge"><title>Node5&#45;&gt;Node2</title>
<path fill="none" stroke="midnightblue" d="M1527.18,-67.396C1527.18,-58.0638 1527.18,-45.7143 1527.18,-35.5173"/>
<polygon fill="midnightblue" stroke="midnightblue" points="1530.68,-35.1945 1527.18,-25.1945 1523.68,-35.1946 1530.68,-35.1945"/>
</g>
<!-- Node5&#45;&gt;Node3 -->
<g id="edge8" class="edge"><title>Node5&#45;&gt;Node3</title>
<path fill="none" stroke="midnightblue" d="M1561.9,-67.396C1585.7,-57.7284 1617.46,-44.8226 1643.06,-34.4262"/>
<polygon fill="midnightblue" stroke="midnightblue" points="1644.58,-37.583 1652.53,-30.5765 1641.95,-31.0977 1644.58,-37.583"/>
</g>
<!-- Node6&#45;&gt;Node2 -->
<g id="edge10" class="edge"><title>Node6&#45;&gt;Node2</title>
<path fill="none" stroke="midnightblue" d="M1652.46,-67.396C1624.14,-55.8901 1584.53,-39.7974 1557.48,-28.8072"/>
<polygon fill="midnightblue" stroke="midnightblue" points="1558.7,-25.5282 1548.12,-25.007 1556.07,-32.0135 1558.7,-25.5282"/>
</g>
<!-- Node6&#45;&gt;Node3 -->
<g id="edge11" class="edge"><title>Node6&#45;&gt;Node3</title>
<path fill="none" stroke="midnightblue" d="M1687.18,-67.396C1687.18,-59.6448 1687.18,-49.8122 1687.18,-40.8601"/>
<polygon fill="midnightblue" stroke="midnightblue" points="1690.68,-40.5765 1687.18,-30.5765 1683.68,-40.5765 1690.68,-40.5765"/>
</g>
<!-- Node7&#45;&gt;Node2 -->
<g id="edge13" class="edge"><title>Node7&#45;&gt;Node2</title>
<path fill="none" stroke="midnightblue" d="M1778.14,-67.476C1718.42,-55.3449 1633.38,-38.0709 1579.24,-27.0737"/>
<polygon fill="midnightblue" stroke="midnightblue" points="1579.67,-23.5894 1569.17,-25.0287 1578.27,-30.4493 1579.67,-23.5894"/>
</g>
<!-- Node7&#45;&gt;Node3 -->
<g id="edge14" class="edge"><title>Node7&#45;&gt;Node3</title>
<path fill="none" stroke="midnightblue" d="M1812.46,-67.396C1788.67,-57.7284 1756.9,-44.8226 1731.31,-34.4262"/>
<polygon fill="midnightblue" stroke="midnightblue" points="1732.41,-31.0977 1721.83,-30.5765 1729.78,-37.583 1732.41,-31.0977"/>
</g>
<!-- Node8&#45;&gt;Node2 -->
<g id="edge16" class="edge"><title>Node8&#45;&gt;Node2</title>
<path fill="none" stroke="midnightblue" d="M1936.12,-68.3861C1933.1,-67.9032 1930.11,-67.4388 1927.18,-67 1792.63,-46.8582 1758.02,-49.1621 1623.18,-31 1611.44,-29.4179 1598.9,-27.6111 1586.9,-25.8222"/>
<polygon fill="midnightblue" stroke="midnightblue" points="1587.37,-22.3549 1576.96,-24.3292 1586.33,-29.2771 1587.37,-22.3549"/>
</g>
<!-- Node8&#45;&gt;Node3 -->
<g id="edge17" class="edge"><title>Node8&#45;&gt;Node3</title>
<path fill="none" stroke="midnightblue" d="M1938.14,-67.476C1882.96,-56.2683 1806.18,-40.6709 1752.11,-29.689"/>
<polygon fill="midnightblue" stroke="midnightblue" points="1752.79,-26.255 1742.29,-27.6943 1751.4,-33.1149 1752.79,-26.255"/>
</g>
<!-- Node9&#45;&gt;Node2 -->
<g id="edge19" class="edge"><title>Node9&#45;&gt;Node2</title>
<path fill="none" stroke="midnightblue" d="M2096.14,-68.236C2093.12,-67.7942 2090.12,-67.3795 2087.18,-67 1882.04,-40.5211 1828.69,-54.4611 1623.18,-31 1611.41,-29.6557 1598.86,-27.956 1586.85,-26.1976"/>
<polygon fill="midnightblue" stroke="midnightblue" points="1587.32,-22.7299 1576.92,-24.7132 1586.29,-29.653 1587.32,-22.7299"/>
</g>
<!-- Node9&#45;&gt;Node3 -->
<g id="edge20" class="edge"><title>Node9&#45;&gt;Node3</title>
<path fill="none" stroke="midnightblue" d="M2096.11,-68.4146C2093.1,-67.924 2090.11,-67.4501 2087.18,-67 1969.66,-48.9439 1831.97,-32.6145 1752.64,-23.6706"/>
<polygon fill="midnightblue" stroke="midnightblue" points="1752.64,-20.1489 1742.31,-22.5111 1751.86,-27.1052 1752.64,-20.1489"/>
</g>
<!-- Node10&#45;&gt;Node2 -->
<g id="edge22" class="edge"><title>Node10&#45;&gt;Node2</title>
<path fill="none" stroke="midnightblue" d="M2256.15,-68.1624C2253.12,-67.7408 2250.13,-67.3503 2247.18,-67 1971.33,-34.1677 1899.48,-59.7746 1623.18,-31 1611.39,-29.7724 1598.84,-28.1253 1586.83,-26.3817"/>
<polygon fill="midnightblue" stroke="midnightblue" points="1587.3,-22.9138 1576.9,-24.9015 1586.27,-29.8374 1587.3,-22.9138"/>
</g>
<!-- Node10&#45;&gt;Node3 -->
<g id="edge23" class="edge"><title>Node10&#45;&gt;Node3</title>
<path fill="none" stroke="midnightblue" d="M2256.13,-68.2824C2253.11,-67.828 2250.12,-67.3978 2247.18,-67 2068.84,-42.8461 1856.94,-27.2907 1752.3,-20.4762"/>
<polygon fill="midnightblue" stroke="midnightblue" points="1752.42,-16.9763 1742.21,-19.8245 1751.96,-23.9618 1752.42,-16.9763"/>
</g>
<!-- Node11&#45;&gt;Node2 -->
<g id="edge25" class="edge"><title>Node11&#45;&gt;Node2</title>
<path fill="none" stroke="midnightblue" d="M2416.15,-68.1187C2413.13,-67.709 2410.13,-67.333 2407.18,-67 2060.58,-27.8086 1970.32,-65.0932 1623.18,-31 1611.39,-29.8416 1598.83,-28.2257 1586.82,-26.491"/>
<polygon fill="midnightblue" stroke="midnightblue" points="1587.29,-23.023 1576.88,-25.0133 1586.26,-29.9468 1587.29,-23.023"/>
</g>
<!-- Node11&#45;&gt;Node3 -->
<g id="edge26" class="edge"><title>Node11&#45;&gt;Node3</title>
<path fill="none" stroke="midnightblue" d="M2416.14,-68.2085C2413.12,-67.7742 2410.12,-67.3686 2407.18,-67 2167.13,-36.9177 1879.63,-23.4865 1752.79,-18.701"/>
<polygon fill="midnightblue" stroke="midnightblue" points="1752.6,-15.1917 1742.48,-18.3177 1752.34,-22.1868 1752.6,-15.1917"/>
</g>
<!-- Node12&#45;&gt;Node2 -->
<g id="edge28" class="edge"><title>Node12&#45;&gt;Node2</title>
<path fill="none" stroke="midnightblue" d="M2576.16,-68.0897C2573.13,-67.688 2570.13,-67.3216 2567.18,-67 2149.8,-21.4467 2041.19,-70.4142 1623.18,-31 1611.25,-29.8751 1598.54,-28.2567 1586.41,-26.5056"/>
<polygon fill="midnightblue" stroke="midnightblue" points="1586.79,-23.0236 1576.38,-25.0115 1585.76,-29.9472 1586.79,-23.0236"/>
</g>
<!-- Node12&#45;&gt;Node3 -->
<g id="edge29" class="edge"><title>Node12&#45;&gt;Node3</title>
<path fill="none" stroke="midnightblue" d="M2576.15,-68.1612C2573.12,-67.7399 2570.13,-67.3499 2567.18,-67 2263.89,-30.9486 1898.63,-20.4156 1752.37,-17.5241"/>
<polygon fill="midnightblue" stroke="midnightblue" points="1752.28,-14.022 1742.22,-17.3289 1752.15,-21.0207 1752.28,-14.022"/>
</g>
<!-- Node13&#45;&gt;Node2 -->
<g id="edge31" class="edge"><title>Node13&#45;&gt;Node2</title>
<path fill="none" stroke="midnightblue" d="M2736.16,-68.0692C2733.13,-67.6731 2730.13,-67.3135 2727.18,-67 2239.01,-15.0833 2112.07,-75.7364 1623.18,-31 1611.25,-29.908 1598.54,-28.3042 1586.41,-26.5572"/>
<polygon fill="midnightblue" stroke="midnightblue" points="1586.78,-23.0751 1576.38,-25.064 1585.75,-29.9988 1586.78,-23.0751"/>
</g>
<!-- Node13&#45;&gt;Node3 -->
<g id="edge32" class="edge"><title>Node13&#45;&gt;Node3</title>
<path fill="none" stroke="midnightblue" d="M2736.15,-68.1285C2733.13,-67.7161 2730.13,-67.3369 2727.18,-67 2360.55,-25.0546 1917.31,-17.8936 1752.78,-16.7136"/>
<polygon fill="midnightblue" stroke="midnightblue" points="1752.38,-13.2109 1742.35,-16.6442 1752.33,-20.2107 1752.38,-13.2109"/>
</g>
<!-- Node14&#45;&gt;Node2 -->
<g id="edge34" class="edge"><title>Node14&#45;&gt;Node2</title>
<path fill="none" stroke="midnightblue" d="M2896.16,-68.0538C2893.13,-67.6619 2890.13,-67.3074 2887.18,-67 2328.21,-8.71912 2182.95,-81.0594 1623.18,-31 1611.11,-29.9209 1598.26,-28.3047 1586,-26.5381"/>
<polygon fill="midnightblue" stroke="midnightblue" points="1586.29,-23.0422 1575.88,-25.0273 1585.25,-29.9655 1586.29,-23.0422"/>
</g>
<!-- Node14&#45;&gt;Node3 -->
<g id="edge35" class="edge"><title>Node14&#45;&gt;Node3</title>
<path fill="none" stroke="midnightblue" d="M2896.16,-68.1044C2893.13,-67.6987 2890.13,-67.3274 2887.18,-67 2456.2,-19.1023 1933.53,-15.6985 1752.56,-16.1076"/>
<polygon fill="midnightblue" stroke="midnightblue" points="1752.4,-12.6079 1742.41,-16.1354 1752.42,-19.6079 1752.4,-12.6079"/>
</g>
<!-- Node15&#45;&gt;Node2 -->
<g id="edge37" class="edge"><title>Node15&#45;&gt;Node2</title>
<path fill="none" stroke="midnightblue" d="M3056.16,-68.0419C3053.13,-67.6533 3050.13,-67.3027 3047.18,-67 2417.4,-2.35431 2253.85,-86.3828 1623.18,-31 1611.11,-29.9402 1598.25,-28.3325 1586,-26.5681"/>
<polygon fill="midnightblue" stroke="midnightblue" points="1586.29,-23.0721 1575.88,-25.0577 1585.25,-29.9954 1586.29,-23.0721"/>
</g>
<!-- Node15&#45;&gt;Node3 -->
<g id="edge38" class="edge"><title>Node15&#45;&gt;Node3</title>
<path fill="none" stroke="midnightblue" d="M3056.16,-68.086C3053.13,-67.6853 3050.13,-67.3201 3047.18,-67 2791.57,-39.2323 1987.62,-22.1787 1752.42,-17.6914"/>
<polygon fill="midnightblue" stroke="midnightblue" points="1752.38,-14.1901 1742.31,-17.4997 1752.25,-21.1888 1752.38,-14.1901"/>
</g>
<!-- Node16&#45;&gt;Node2 -->
<g id="edge40" class="edge"><title>Node16&#45;&gt;Node2</title>
<path fill="none" stroke="midnightblue" d="M158.205,-68.086C161.233,-67.6853 164.235,-67.3201 167.182,-67 424.833,-39.0104 1239.62,-21.9069 1467.47,-17.5863"/>
<polygon fill="midnightblue" stroke="midnightblue" points="1467.62,-21.0841 1477.55,-17.3962 1467.49,-14.0854 1467.62,-21.0841"/>
</g>
<!-- Node16&#45;&gt;Node3 -->
<g id="edge41" class="edge"><title>Node16&#45;&gt;Node3</title>
<path fill="none" stroke="midnightblue" d="M158.201,-68.0422C161.23,-67.6535 164.233,-67.3028 167.182,-67 794.751,-2.55322 957.535,-83.9165 1586.18,-31 1597.72,-30.0289 1609.95,-28.6086 1621.76,-27.0317"/>
<polygon fill="midnightblue" stroke="midnightblue" points="1622.59,-30.4512 1632.01,-25.6131 1621.63,-23.5173 1622.59,-30.4512"/>
</g>
<!-- Node17&#45;&gt;Node2 -->
<g id="edge43" class="edge"><title>Node17&#45;&gt;Node2</title>
<path fill="none" stroke="midnightblue" d="M318.207,-68.1044C321.235,-67.6987 324.236,-67.3274 327.182,-67 762.779,-18.5898 1292.03,-15.6307 1467.5,-16.122"/>
<polygon fill="midnightblue" stroke="midnightblue" points="1467.55,-19.622 1477.56,-16.1551 1467.57,-12.6221 1467.55,-19.622"/>
</g>
<!-- Node17&#45;&gt;Node3 -->
<g id="edge44" class="edge"><title>Node17&#45;&gt;Node3</title>
<path fill="none" stroke="midnightblue" d="M318.202,-68.0542C321.231,-67.6622 324.233,-67.3076 327.182,-67 883.945,-8.91801 1028.45,-78.8525 1586.18,-31 1597.72,-30.0103 1609.94,-28.5809 1621.76,-27.0008"/>
<polygon fill="midnightblue" stroke="midnightblue" points="1622.58,-30.4201 1632.01,-25.5807 1621.62,-23.4864 1622.58,-30.4201"/>
</g>
<!-- Node18&#45;&gt;Node2 -->
<g id="edge46" class="edge"><title>Node18&#45;&gt;Node2</title>
<path fill="none" stroke="midnightblue" d="M478.21,-68.1285C481.237,-67.7161 484.237,-67.3369 487.182,-67 858.209,-24.552 1307.69,-17.7269 1467.37,-16.6737"/>
<polygon fill="midnightblue" stroke="midnightblue" points="1467.49,-20.1731 1477.47,-16.6123 1467.45,-13.1732 1467.49,-20.1731"/>
</g>
<!-- Node18&#45;&gt;Node3 -->
<g id="edge47" class="edge"><title>Node18&#45;&gt;Node3</title>
<path fill="none" stroke="midnightblue" d="M478.204,-68.0697C481.232,-67.6735 484.234,-67.3137 487.182,-67 973.144,-15.2822 1099.35,-73.7889 1586.18,-31 1597.71,-29.9863 1609.94,-28.5452 1621.76,-26.9609"/>
<polygon fill="midnightblue" stroke="midnightblue" points="1622.58,-30.3801 1632.01,-25.539 1621.62,-23.4465 1622.58,-30.3801"/>
</g>
<!-- Node19&#45;&gt;Node2 -->
<g id="edge49" class="edge"><title>Node19&#45;&gt;Node2</title>
<path fill="none" stroke="midnightblue" d="M638.214,-68.1612C641.239,-67.7399 644.238,-67.3499 647.182,-67 954.058,-30.522 1324.39,-20.17 1467.09,-17.4247"/>
<polygon fill="midnightblue" stroke="midnightblue" points="1467.44,-20.9189 1477.38,-17.2326 1467.31,-13.9201 1467.44,-20.9189"/>
</g>
<!-- Node19&#45;&gt;Node3 -->
<g id="edge50" class="edge"><title>Node19&#45;&gt;Node3</title>
<path fill="none" stroke="midnightblue" d="M638.206,-68.0905C641.233,-67.6886 644.235,-67.3219 647.182,-67 1062.35,-21.6455 1170.25,-68.7261 1586.18,-31 1597.71,-29.9542 1609.94,-28.4973 1621.75,-26.9074"/>
<polygon fill="midnightblue" stroke="midnightblue" points="1622.58,-30.3264 1632,-25.483 1621.61,-23.393 1622.58,-30.3264"/>
</g>
<!-- Node20&#45;&gt;Node2 -->
<g id="edge52" class="edge"><title>Node20&#45;&gt;Node2</title>
<path fill="none" stroke="midnightblue" d="M798.22,-68.2085C801.244,-67.7742 804.241,-67.3686 807.182,-67 1051.17,-36.4252 1344.16,-23.0511 1467.67,-18.4729"/>
<polygon fill="midnightblue" stroke="midnightblue" points="1467.81,-21.97 1477.68,-18.1074 1467.56,-14.9747 1467.81,-21.97"/>
</g>
<!-- Node20&#45;&gt;Node3 -->
<g id="edge53" class="edge"><title>Node20&#45;&gt;Node3</title>
<path fill="none" stroke="midnightblue" d="M798.209,-68.1197C801.236,-67.7098 804.236,-67.3335 807.182,-67 1151.57,-28.0073 1241.13,-63.6646 1586.18,-31 1597.71,-29.9089 1609.93,-28.4298 1621.75,-26.8321"/>
<polygon fill="midnightblue" stroke="midnightblue" points="1622.57,-30.2507 1631.99,-25.4041 1621.61,-23.3177 1622.57,-30.2507"/>
</g>
<!-- Node21&#45;&gt;Node2 -->
<g id="edge55" class="edge"><title>Node21&#45;&gt;Node2</title>
<path fill="none" stroke="midnightblue" d="M958.229,-68.2824C961.251,-67.828 964.244,-67.3978 967.182,-67 1148.61,-42.4271 1364.79,-26.7537 1467.41,-20.1295"/>
<polygon fill="midnightblue" stroke="midnightblue" points="1467.82,-23.6105 1477.57,-19.479 1467.37,-16.6248 1467.82,-23.6105"/>
</g>
<!-- Node21&#45;&gt;Node3 -->
<g id="edge56" class="edge"><title>Node21&#45;&gt;Node3</title>
<path fill="none" stroke="midnightblue" d="M958.214,-68.1641C961.24,-67.742 964.238,-67.351 967.182,-67 1240.82,-34.3664 1311.99,-58.6053 1586.18,-31 1597.7,-29.8403 1609.92,-28.3276 1621.73,-26.7179"/>
<polygon fill="midnightblue" stroke="midnightblue" points="1622.56,-30.136 1631.98,-25.2847 1621.59,-23.2035 1622.56,-30.136"/>
</g>
<!-- Node22&#45;&gt;Node2 -->
<g id="edge58" class="edge"><title>Node22&#45;&gt;Node2</title>
<path fill="none" stroke="midnightblue" d="M1118.25,-68.4146C1121.26,-67.924 1124.25,-67.4501 1127.18,-67 1247.52,-48.5116 1388.99,-31.8335 1467.33,-23.041"/>
<polygon fill="midnightblue" stroke="midnightblue" points="1467.94,-26.4944 1477.49,-21.9049 1467.16,-19.5378 1467.94,-26.4944"/>
</g>
<!-- Node22&#45;&gt;Node3 -->
<g id="edge59" class="edge"><title>Node22&#45;&gt;Node3</title>
<path fill="none" stroke="midnightblue" d="M1118.22,-68.2391C1121.25,-67.7965 1124.24,-67.3807 1127.18,-67 1330.11,-40.7195 1382.8,-53.5511 1586.18,-31 1597.69,-29.7241 1609.9,-28.1546 1621.71,-26.5246"/>
<polygon fill="midnightblue" stroke="midnightblue" points="1622.55,-29.942 1631.96,-25.0825 1621.57,-23.0103 1622.55,-29.942"/>
</g>
<!-- Node23&#45;&gt;Node2 -->
<g id="edge61" class="edge"><title>Node23&#45;&gt;Node2</title>
<path fill="none" stroke="midnightblue" d="M1276.22,-67.476C1335.95,-55.3449 1420.99,-38.0709 1475.13,-27.0737"/>
<polygon fill="midnightblue" stroke="midnightblue" points="1476.09,-30.4493 1485.19,-25.0287 1474.7,-23.5894 1476.09,-30.4493"/>
</g>
<!-- Node23&#45;&gt;Node3 -->
<g id="edge62" class="edge"><title>Node23&#45;&gt;Node3</title>
<path fill="none" stroke="midnightblue" d="M1278.25,-68.3933C1281.26,-67.9085 1284.25,-67.4417 1287.18,-67 1419.54,-47.0556 1453.48,-48.5116 1586.18,-31 1597.84,-29.461 1610.25,-27.7447 1622.23,-26.0467"/>
<polygon fill="midnightblue" stroke="midnightblue" points="1622.77,-29.5061 1632.17,-24.629 1621.78,-22.5763 1622.77,-29.5061"/>
</g>
</g>
</svg>
        <g id="navigator" transform="translate(0 0)" fill="#404254">
                <rect fill="#f2f5e9" fill-opacity="0.5" stroke="#606060" stroke-width=".5" x="0" y="0" width="60" height="60"/>
                <use id="zoomplus" xlink:href="#zoomPlus" x="17" y="9" onmousedown="handleZoom(evt,'in')"/>
                <use id="zoomminus" xlink:href="#zoomMin" x="42" y="9" onmousedown="handleZoom(evt,'out')"/>
                <use id="reset" xlink:href="#resetDef" x="30" y="36" onmousedown="handleReset()"/>
                <g id="arrowUp" xlink:href="#dirArrow" transform="translate(30 24)" onmousedown="handlePan(0,-1)">
                  <use xlink:href="#rim" fill="#404040">
                        <set attributeName="fill" to="#808080" begin="arrowUp.mouseover" end="arrowUp.mouseout"/>
                  </use>
                  <path fill="none" stroke="white" stroke-width="1.5" d="M0,-3.0v7 M-2.5,-0.5L0,-3.0L2.5,-0.5"/>
                </g>
                <g id="arrowRight" xlink:href="#dirArrow" transform="rotate(90) translate(36 -43)" onmousedown="handlePan(1,0)">
                  <use xlink:href="#rim" fill="#404040">
                        <set attributeName="fill" to="#808080" begin="arrowRight.mouseover" end="arrowRight.mouseout"/>
                  </use>
                  <path fill="none" stroke="white" stroke-width="1.5" d="M0,-3.0v7 M-2.5,-0.5L0,-3.0L2.5,-0.5"/>
                </g>
                <g id="arrowDown" xlink:href="#dirArrow" transform="rotate(180) translate(-30 -48)" onmousedown="handlePan(0,1)">
                  <use xlink:href="#rim" fill="#404040">
                        <set attributeName="fill" to="#808080" begin="arrowDown.mouseover" end="arrowDown.mouseout"/>
                  </use>
                  <path fill="none" stroke="white" stroke-width="1.5" d="M0,-3.0v7 M-2.5,-0.5L0,-3.0L2.5,-0.5"/>
                </g>
                <g id="arrowLeft" xlink:href="#dirArrow" transform="rotate(270) translate(-36 17)" onmousedown="handlePan(-1,0)">
                  <use xlink:href="#rim" fill="#404040">
                        <set attributeName="fill" to="#808080" begin="arrowLeft.mouseover" end="arrowLeft.mouseout"/>
                  </use>
                  <path fill="none" stroke="white" stroke-width="1.5" d="M0,-3.0v7 M-2.5,-0.5L0,-3.0L2.5,-0.5"/>
                </g>
        </g>
        <svg viewBox="0 0 15 15" width="100%" height="30px" preserveAspectRatio="xMaxYMin meet">
         <g id="arrow_out" transform="scale(0.3 0.3)">
          <a xlink:href="_dwarf_elephant_r_b_structures_t12_f13_o20_steady_state_8h__incl_org.svg" target="_base">
           <rect id="button" ry="5" rx="5" y="6" x="6" height="38" width="38"
                fill="#f2f5e9" fill-opacity="0.5" stroke="#606060" stroke-width="1.0"/>
           <path id="arrow"
             d="M 11.500037,31.436501 C 11.940474,20.09759 22.043105,11.32322 32.158766,21.979434 L 37.068811,17.246167 C 37.068811,17.246167 37.088388,32 37.088388,32 L 22.160133,31.978069 C 22.160133,31.978069 26.997745,27.140456 26.997745,27.140456 C 18.528582,18.264221 13.291696,25.230495 11.500037,31.436501 z"
             style="fill:#404040;"/>
          </a>
         </g>
        </svg>
</svg>
