<?xml version="1.0" encoding="UTF-8" standalone="no"?>
<!DOCTYPE svg PUBLIC "-//W3C//DTD SVG 1.1//EN"
 "http://www.w3.org/Graphics/SVG/1.1/DTD/svg11.dtd">
<!-- Generated by graphviz version 2.38.0 (20140413.2041)
 -->
<!-- Title: include/userobjects/DwarfElephantRBStructuresT4F1O1SteadyState.h Pages: 1 -->
<svg width="821pt" height="184pt"
 viewBox="0.00 0.00 821.49 184.00" xmlns="http://www.w3.org/2000/svg" xmlns:xlink="http://www.w3.org/1999/xlink">
<g id="graph0" class="graph" transform="scale(1 1) rotate(0) translate(4 180)">
<title>include/userobjects/DwarfElephantRBStructuresT4F1O1SteadyState.h</title>
<polygon fill="white" stroke="none" points="-4,4 -4,-180 817.487,-180 817.487,4 -4,4"/>
<!-- Node1 -->
<g id="node1" class="node"><title>Node1</title>
<polygon fill="#bfbfbf" stroke="black" points="334.734,-134.5 334.734,-175.5 478.734,-175.5 478.734,-134.5 334.734,-134.5"/>
<text text-anchor="start" x="342.734" y="-163.5" font-family="Helvetica,sans-Serif" font-size="10.00">include/userobjects</text>
<text text-anchor="start" x="342.734" y="-152.5" font-family="Helvetica,sans-Serif" font-size="10.00">/DwarfElephantRBStructures</text>
<text text-anchor="middle" x="406.734" y="-141.5" font-family="Helvetica,sans-Serif" font-size="10.00">T4F1O1SteadyState.h</text>
</g>
<!-- Node2 -->
<g id="node2" class="node"><title>Node2</title>
<polygon fill="white" stroke="#bfbfbf" points="255.234,-6 255.234,-25 354.234,-25 354.234,-6 255.234,-6"/>
<text text-anchor="middle" x="304.734" y="-13" font-family="Helvetica,sans-Serif" font-size="10.00">libmesh/rb_theta.h</text>
</g>
<!-- Node1&#45;&gt;Node2 -->
<g id="edge1" class="edge"><title>Node1&#45;&gt;Node2</title>
<path fill="none" stroke="midnightblue" d="M334.578,-154.726C231.094,-154.05 48.3806,-145.883 6.73432,-98 -2.30748,-87.6042 -2.15699,-77.5248 6.73432,-67 36.5903,-31.6588 166.702,-21.0442 244.791,-17.8602"/>
<polygon fill="midnightblue" stroke="midnightblue" points="245.121,-21.3504 254.981,-17.4747 244.856,-14.3554 245.121,-21.3504"/>
</g>
<!-- Node3 -->
<g id="node3" class="node"><title>Node3</title>
<polygon fill="white" stroke="#bfbfbf" points="431.734,-0.5 431.734,-30.5 541.734,-30.5 541.734,-0.5 431.734,-0.5"/>
<text text-anchor="start" x="439.734" y="-18.5" font-family="Helvetica,sans-Serif" font-size="10.00">libmesh/rb_assembly</text>
<text text-anchor="middle" x="486.734" y="-7.5" font-family="Helvetica,sans-Serif" font-size="10.00">_expansion.h</text>
</g>
<!-- Node1&#45;&gt;Node3 -->
<g id="edge2" class="edge"><title>Node1&#45;&gt;Node3</title>
<path fill="none" stroke="midnightblue" d="M478.891,-154.726C582.375,-154.05 765.088,-145.883 806.734,-98 815.776,-87.6042 815.685,-77.4742 806.734,-67 774.64,-29.4434 635.905,-19.6507 552.001,-17.2029"/>
<polygon fill="midnightblue" stroke="midnightblue" points="551.889,-13.6988 541.8,-16.9334 551.704,-20.6963 551.889,-13.6988"/>
</g>
<!-- Node4 -->
<g id="node4" class="node"><title>Node4</title>
<g id="a_node4"><a xlink:href="_dwarf_elephant_r_b_structures_a00_theta_constant_8h.html" target="_top" xlink:title="DwarfElephantRBStructures\lA00ThetaConstant.h">
<polygon fill="white" stroke="black" points="495.734,-67.5 495.734,-97.5 637.734,-97.5 637.734,-67.5 495.734,-67.5"/>
<text text-anchor="start" x="503.734" y="-85.5" font-family="Helvetica,sans-Serif" font-size="10.00">DwarfElephantRBStructures</text>
<text text-anchor="middle" x="566.734" y="-74.5" font-family="Helvetica,sans-Serif" font-size="10.00">A00ThetaConstant.h</text>
</a>
</g>
</g>
<!-- Node1&#45;&gt;Node4 -->
<g id="edge3" class="edge"><title>Node1&#45;&gt;Node4</title>
<path fill="none" stroke="midnightblue" d="M451.303,-134.362C474.524,-124.13 502.735,-111.7 525.455,-101.689"/>
<polygon fill="midnightblue" stroke="midnightblue" points="527.086,-104.795 534.826,-97.5597 524.264,-98.389 527.086,-104.795"/>
</g>
<!-- Node5 -->
<g id="node5" class="node"><title>Node5</title>
<g id="a_node5"><a xlink:href="_dwarf_elephant_r_b_structures_a0_theta_equal_mu0_8h.html" target="_top" xlink:title="DwarfElephantRBStructures\lA0ThetaEqualMu0.h">
<polygon fill="white" stroke="black" points="655.734,-67.5 655.734,-97.5 797.734,-97.5 797.734,-67.5 655.734,-67.5"/>
<text text-anchor="start" x="663.734" y="-85.5" font-family="Helvetica,sans-Serif" font-size="10.00">DwarfElephantRBStructures</text>
<text text-anchor="middle" x="726.734" y="-74.5" font-family="Helvetica,sans-Serif" font-size="10.00">A0ThetaEqualMu0.h</text>
</a>
</g>
</g>
<!-- Node1&#45;&gt;Node5 -->
<g id="edge6" class="edge"><title>Node1&#45;&gt;Node5</title>
<path fill="none" stroke="midnightblue" d="M478.948,-138.091C530.987,-126.626 600.971,-111.207 653.291,-99.6806"/>
<polygon fill="midnightblue" stroke="midnightblue" points="654.164,-103.072 663.177,-97.5025 652.658,-96.2361 654.164,-103.072"/>
</g>
<!-- Node6 -->
<g id="node6" class="node"><title>Node6</title>
<g id="a_node6"><a xlink:href="_dwarf_elephant_r_b_structures_a1_theta_equal_mu1_8h.html" target="_top" xlink:title="DwarfElephantRBStructures\lA1ThetaEqualMu1.h">
<polygon fill="white" stroke="black" points="15.7343,-67.5 15.7343,-97.5 157.734,-97.5 157.734,-67.5 15.7343,-67.5"/>
<text text-anchor="start" x="23.7343" y="-85.5" font-family="Helvetica,sans-Serif" font-size="10.00">DwarfElephantRBStructures</text>
<text text-anchor="middle" x="86.7343" y="-74.5" font-family="Helvetica,sans-Serif" font-size="10.00">A1ThetaEqualMu1.h</text>
</a>
</g>
</g>
<!-- Node1&#45;&gt;Node6 -->
<g id="edge9" class="edge"><title>Node1&#45;&gt;Node6</title>
<path fill="none" stroke="midnightblue" d="M334.521,-138.091C282.482,-126.626 212.497,-111.207 160.178,-99.6806"/>
<polygon fill="midnightblue" stroke="midnightblue" points="160.811,-96.2361 150.292,-97.5025 159.305,-103.072 160.811,-96.2361"/>
</g>
<!-- Node7 -->
<g id="node7" class="node"><title>Node7</title>
<g id="a_node7"><a xlink:href="_dwarf_elephant_r_b_structures_a2_theta_equal_mu2_8h.html" target="_top" xlink:title="DwarfElephantRBStructures\lA2ThetaEqualMu2.h">
<polygon fill="white" stroke="black" points="175.734,-67.5 175.734,-97.5 317.734,-97.5 317.734,-67.5 175.734,-67.5"/>
<text text-anchor="start" x="183.734" y="-85.5" font-family="Helvetica,sans-Serif" font-size="10.00">DwarfElephantRBStructures</text>
<text text-anchor="middle" x="246.734" y="-74.5" font-family="Helvetica,sans-Serif" font-size="10.00">A2ThetaEqualMu2.h</text>
</a>
</g>
</g>
<!-- Node1&#45;&gt;Node7 -->
<g id="edge12" class="edge"><title>Node1&#45;&gt;Node7</title>
<path fill="none" stroke="midnightblue" d="M362.165,-134.362C338.945,-124.13 310.733,-111.7 288.013,-101.689"/>
<polygon fill="midnightblue" stroke="midnightblue" points="289.205,-98.389 278.643,-97.5597 286.383,-104.795 289.205,-98.389"/>
</g>
<!-- Node8 -->
<g id="node8" class="node"><title>Node8</title>
<g id="a_node8"><a xlink:href="_dwarf_elephant_r_b_structures_a3_theta_equal_mu3_8h.html" target="_top" xlink:title="DwarfElephantRBStructures\lA3ThetaEqualMu3.h">
<polygon fill="white" stroke="black" points="335.734,-67.5 335.734,-97.5 477.734,-97.5 477.734,-67.5 335.734,-67.5"/>
<text text-anchor="start" x="343.734" y="-85.5" font-family="Helvetica,sans-Serif" font-size="10.00">DwarfElephantRBStructures</text>
<text text-anchor="middle" x="406.734" y="-74.5" font-family="Helvetica,sans-Serif" font-size="10.00">A3ThetaEqualMu3.h</text>
</a>
</g>
</g>
<!-- Node1&#45;&gt;Node8 -->
<g id="edge15" class="edge"><title>Node1&#45;&gt;Node8</title>
<path fill="none" stroke="midnightblue" d="M406.734,-134.362C406.734,-126.226 406.734,-116.7 406.734,-108.105"/>
<polygon fill="midnightblue" stroke="midnightblue" points="410.234,-107.892 406.734,-97.8916 403.234,-107.892 410.234,-107.892"/>
</g>
<!-- Node4&#45;&gt;Node2 -->
<g id="edge4" class="edge"><title>Node4&#45;&gt;Node2</title>
<path fill="none" stroke="midnightblue" d="M510.207,-67.476C461.919,-55.4962 393.416,-38.5011 349.025,-27.4881"/>
<polygon fill="midnightblue" stroke="midnightblue" points="349.66,-24.0396 339.111,-25.0287 347.974,-30.8337 349.66,-24.0396"/>
</g>
<!-- Node4&#45;&gt;Node3 -->
<g id="edge5" class="edge"><title>Node4&#45;&gt;Node3</title>
<path fill="none" stroke="midnightblue" d="M549.376,-67.396C538.473,-58.5375 524.224,-46.9604 512.071,-37.0861"/>
<polygon fill="midnightblue" stroke="midnightblue" points="514.027,-34.1661 504.059,-30.5765 509.613,-39.5989 514.027,-34.1661"/>
</g>
<!-- Node5&#45;&gt;Node2 -->
<g id="edge7" class="edge"><title>Node5&#45;&gt;Node2</title>
<path fill="none" stroke="midnightblue" d="M655.655,-68.4924C652.643,-67.9805 649.659,-67.4809 646.734,-67 548.013,-50.7691 432.851,-34.2641 364.516,-24.7237"/>
<polygon fill="midnightblue" stroke="midnightblue" points="364.758,-21.2237 354.371,-23.3104 363.792,-28.1567 364.758,-21.2237"/>
</g>
<!-- Node5&#45;&gt;Node3 -->
<g id="edge8" class="edge"><title>Node5&#45;&gt;Node3</title>
<path fill="none" stroke="midnightblue" d="M674.953,-67.476C637.859,-57.4297 587.743,-43.8564 548.55,-33.2418"/>
<polygon fill="midnightblue" stroke="midnightblue" points="549.403,-29.8469 538.836,-30.6109 547.573,-36.6034 549.403,-29.8469"/>
</g>
<!-- Node6&#45;&gt;Node2 -->
<g id="edge10" class="edge"><title>Node6&#45;&gt;Node2</title>
<path fill="none" stroke="midnightblue" d="M133.769,-67.476C173.355,-55.6727 229.27,-39.0009 266.236,-27.9789"/>
<polygon fill="midnightblue" stroke="midnightblue" points="267.548,-31.2402 276.131,-25.0287 265.547,-24.532 267.548,-31.2402"/>
</g>
<!-- Node6&#45;&gt;Node3 -->
<g id="edge11" class="edge"><title>Node6&#45;&gt;Node3</title>
<path fill="none" stroke="midnightblue" d="M157.82,-68.5291C160.83,-68.0071 163.812,-67.4954 166.734,-67 254.768,-52.0775 356.68,-36.242 421.401,-26.3647"/>
<polygon fill="midnightblue" stroke="midnightblue" points="422.103,-29.7983 431.461,-24.8317 421.048,-22.8782 422.103,-29.7983"/>
</g>
<!-- Node7&#45;&gt;Node2 -->
<g id="edge13" class="edge"><title>Node7&#45;&gt;Node2</title>
<path fill="none" stroke="midnightblue" d="M259.319,-67.396C268.363,-57.2611 280.582,-43.5674 290.068,-32.9368"/>
<polygon fill="midnightblue" stroke="midnightblue" points="292.93,-34.9862 296.976,-25.1945 287.707,-30.3257 292.93,-34.9862"/>
</g>
<!-- Node7&#45;&gt;Node3 -->
<g id="edge14" class="edge"><title>Node7&#45;&gt;Node3</title>
<path fill="none" stroke="midnightblue" d="M298.515,-67.476C335.609,-57.4297 385.726,-43.8564 424.918,-33.2418"/>
<polygon fill="midnightblue" stroke="midnightblue" points="425.895,-36.6034 434.632,-30.6109 424.065,-29.8469 425.895,-36.6034"/>
</g>
<!-- Node8&#45;&gt;Node2 -->
<g id="edge16" class="edge"><title>Node8&#45;&gt;Node2</title>
<path fill="none" stroke="midnightblue" d="M384.602,-67.396C367.497,-56.4956 343.932,-41.4787 326.835,-30.5835"/>
<polygon fill="midnightblue" stroke="midnightblue" points="328.398,-27.4295 318.084,-25.007 324.636,-33.3328 328.398,-27.4295"/>
</g>
<!-- Node8&#45;&gt;Node3 -->
<g id="edge17" class="edge"><title>Node8&#45;&gt;Node3</title>
<path fill="none" stroke="midnightblue" d="M424.093,-67.396C434.996,-58.5375 449.245,-46.9604 461.398,-37.0861"/>
<polygon fill="midnightblue" stroke="midnightblue" points="463.855,-39.5989 469.409,-30.5765 459.441,-34.1661 463.855,-39.5989"/>
</g>
</g>
</svg>
