<?xml version="1.0" encoding="UTF-8" standalone="no"?>
<!DOCTYPE svg PUBLIC "-//W3C//DTD SVG 1.1//EN"
 "http://www.w3.org/Graphics/SVG/1.1/DTD/svg11.dtd">
<!-- Generated by graphviz version 2.38.0 (20140413.2041)
 -->
<!-- Title: src/vectorpostprocessors/DwarfElephantReverseLiftingFunctionAndDimensionalize.C Pages: 1 -->
<svg width="562pt" height="173pt"
 viewBox="0.00 0.00 561.50 173.00" xmlns="http://www.w3.org/2000/svg" xmlns:xlink="http://www.w3.org/1999/xlink">
<g id="graph0" class="graph" transform="scale(1 1) rotate(0) translate(4 169)">
<title>src/vectorpostprocessors/DwarfElephantReverseLiftingFunctionAndDimensionalize.C</title>
<polygon fill="white" stroke="none" points="-4,4 -4,-169 557.5,-169 557.5,4 -4,4"/>
<!-- Node1 -->
<g id="node1" class="node"><title>Node1</title>
<polygon fill="#bfbfbf" stroke="black" points="214,-123.5 214,-164.5 401,-164.5 401,-123.5 214,-123.5"/>
<text text-anchor="start" x="222" y="-152.5" font-family="Helvetica,sans-Serif" font-size="10.00">src/vectorpostprocessors</text>
<text text-anchor="start" x="222" y="-141.5" font-family="Helvetica,sans-Serif" font-size="10.00">/DwarfElephantReverseLiftingFunction</text>
<text text-anchor="middle" x="307.5" y="-130.5" font-family="Helvetica,sans-Serif" font-size="10.00">AndDimensionalize.C</text>
</g>
<!-- Node2 -->
<g id="node2" class="node"><title>Node2</title>
<g id="a_node2"><a xlink:href="_dwarf_elephant_reverse_lifting_function_and_dimensionalize_8h.html" target="_top" xlink:title="DwarfElephantReverseLifting\lFunctionAndDimensionalize.h">
<polygon fill="white" stroke="black" points="0,-56.5 0,-86.5 149,-86.5 149,-56.5 0,-56.5"/>
<text text-anchor="start" x="8" y="-74.5" font-family="Helvetica,sans-Serif" font-size="10.00">DwarfElephantReverseLifting</text>
<text text-anchor="middle" x="74.5" y="-63.5" font-family="Helvetica,sans-Serif" font-size="10.00">FunctionAndDimensionalize.h</text>
</a>
</g>
</g>
<!-- Node1&#45;&gt;Node2 -->
<g id="edge1" class="edge"><title>Node1&#45;&gt;Node2</title>
<path fill="none" stroke="midnightblue" d="M242.906,-123.455C207.726,-112.811 164.608,-99.7646 130.81,-89.5379"/>
<polygon fill="midnightblue" stroke="midnightblue" points="131.675,-86.1429 121.089,-86.5968 129.647,-92.843 131.675,-86.1429"/>
</g>
<!-- Node4 -->
<g id="node4" class="node"><title>Node4</title>
<polygon fill="white" stroke="#bfbfbf" points="167.5,-62 167.5,-81 251.5,-81 251.5,-62 167.5,-62"/>
<text text-anchor="middle" x="209.5" y="-69" font-family="Helvetica,sans-Serif" font-size="10.00">LineSegment.h</text>
</g>
<!-- Node1&#45;&gt;Node4 -->
<g id="edge3" class="edge"><title>Node1&#45;&gt;Node4</title>
<path fill="none" stroke="midnightblue" d="M280.202,-123.362C264.255,-111.89 244.466,-97.654 229.883,-87.1632"/>
<polygon fill="midnightblue" stroke="midnightblue" points="231.718,-84.172 221.557,-81.1734 227.63,-89.8544 231.718,-84.172"/>
</g>
<!-- Node5 -->
<g id="node5" class="node"><title>Node5</title>
<polygon fill="white" stroke="#bfbfbf" points="269.5,-62 269.5,-81 345.5,-81 345.5,-62 269.5,-62"/>
<text text-anchor="middle" x="307.5" y="-69" font-family="Helvetica,sans-Serif" font-size="10.00">RayTracing.h</text>
</g>
<!-- Node1&#45;&gt;Node5 -->
<g id="edge4" class="edge"><title>Node1&#45;&gt;Node5</title>
<path fill="none" stroke="midnightblue" d="M307.5,-123.362C307.5,-113.297 307.5,-101.104 307.5,-91.18"/>
<polygon fill="midnightblue" stroke="midnightblue" points="311,-91.1733 307.5,-81.1734 304,-91.1734 311,-91.1733"/>
</g>
<!-- Node6 -->
<g id="node6" class="node"><title>Node6</title>
<polygon fill="white" stroke="#bfbfbf" points="364,-62 364,-81 443,-81 443,-62 364,-62"/>
<text text-anchor="middle" x="403.5" y="-69" font-family="Helvetica,sans-Serif" font-size="10.00">MooseMesh.h</text>
</g>
<!-- Node1&#45;&gt;Node6 -->
<g id="edge5" class="edge"><title>Node1&#45;&gt;Node6</title>
<path fill="none" stroke="midnightblue" d="M334.241,-123.362C349.862,-111.89 369.248,-97.654 383.533,-87.1632"/>
<polygon fill="midnightblue" stroke="midnightblue" points="385.701,-89.9135 391.689,-81.1734 381.558,-84.2715 385.701,-89.9135"/>
</g>
<!-- Node7 -->
<g id="node7" class="node"><title>Node7</title>
<polygon fill="white" stroke="#bfbfbf" points="461.5,-62 461.5,-81 553.5,-81 553.5,-62 461.5,-62"/>
<text text-anchor="middle" x="507.5" y="-69" font-family="Helvetica,sans-Serif" font-size="10.00">MooseVariable.h</text>
</g>
<!-- Node1&#45;&gt;Node7 -->
<g id="edge6" class="edge"><title>Node1&#45;&gt;Node7</title>
<path fill="none" stroke="midnightblue" d="M362.946,-123.455C398.467,-110.934 443.415,-95.0899 473.683,-84.4206"/>
<polygon fill="midnightblue" stroke="midnightblue" points="475.082,-87.6385 483.35,-81.013 472.755,-81.0366 475.082,-87.6385"/>
</g>
<!-- Node3 -->
<g id="node3" class="node"><title>Node3</title>
<polygon fill="white" stroke="#bfbfbf" points="2.5,-0.5 2.5,-19.5 146.5,-19.5 146.5,-0.5 2.5,-0.5"/>
<text text-anchor="middle" x="74.5" y="-7.5" font-family="Helvetica,sans-Serif" font-size="10.00">NodalVectorPostprocessor.h</text>
</g>
<!-- Node2&#45;&gt;Node3 -->
<g id="edge2" class="edge"><title>Node2&#45;&gt;Node3</title>
<path fill="none" stroke="midnightblue" d="M74.5,-56.3993C74.5,-48.4664 74.5,-38.458 74.5,-29.8583"/>
<polygon fill="midnightblue" stroke="midnightblue" points="78.0001,-29.6577 74.5,-19.6578 71.0001,-29.6578 78.0001,-29.6577"/>
</g>
</g>
</svg>
