<?xml version="1.0" encoding="UTF-8" standalone="no"?>
<!DOCTYPE svg PUBLIC "-//W3C//DTD SVG 1.1//EN"
 "http://www.w3.org/Graphics/SVG/1.1/DTD/svg11.dtd">
<!-- Generated by graphviz version 2.38.0 (20140413.2041)
 -->
<!-- Title: include/vectorpostprocessors/DwarfElephantElementalVariableValuesAlongLine.h Pages: 1 -->
<svg width="342pt" height="128pt"
 viewBox="0.00 0.00 342.00 128.00" xmlns="http://www.w3.org/2000/svg" xmlns:xlink="http://www.w3.org/1999/xlink">
<g id="graph0" class="graph" transform="scale(1 1) rotate(0) translate(4 124)">
<title>include/vectorpostprocessors/DwarfElephantElementalVariableValuesAlongLine.h</title>
<polygon fill="white" stroke="none" points="-4,4 -4,-124 338,-124 338,4 -4,4"/>
<!-- Node1 -->
<g id="node1" class="node"><title>Node1</title>
<polygon fill="#bfbfbf" stroke="black" points="64.5,-78.5 64.5,-119.5 261.5,-119.5 261.5,-78.5 64.5,-78.5"/>
<text text-anchor="start" x="72.5" y="-107.5" font-family="Helvetica,sans-Serif" font-size="10.00">include/vectorpostprocessors</text>
<text text-anchor="start" x="72.5" y="-96.5" font-family="Helvetica,sans-Serif" font-size="10.00">/DwarfElephantElementalVariableValues</text>
<text text-anchor="middle" x="163" y="-85.5" font-family="Helvetica,sans-Serif" font-size="10.00">AlongLine.h</text>
</g>
<!-- Node2 -->
<g id="node2" class="node"><title>Node2</title>
<g id="a_node2"><a xlink:href="_dwarf_elephant_app_8_c.html" target="_top" xlink:title="src/base/DwarfElephantApp.C">
<polygon fill="white" stroke="black" points="0,-11.5 0,-30.5 150,-30.5 150,-11.5 0,-11.5"/>
<text text-anchor="middle" x="75" y="-18.5" font-family="Helvetica,sans-Serif" font-size="10.00">src/base/DwarfElephantApp.C</text>
</a>
</g>
</g>
<!-- Node1&#45;&gt;Node2 -->
<g id="edge1" class="edge"><title>Node1&#45;&gt;Node2</title>
<path fill="none" stroke="midnightblue" d="M132.453,-71.6184C115.831,-57.263 96.3746,-40.4599 84.9024,-30.552"/>
<polygon fill="midnightblue" stroke="midnightblue" points="130.482,-74.5408 140.338,-78.4281 135.057,-69.243 130.482,-74.5408"/>
</g>
<!-- Node3 -->
<g id="node3" class="node"><title>Node3</title>
<g id="a_node3"><a xlink:href="_dwarf_elephant_elemental_variable_values_along_line_8_c.html" target="_top" xlink:title="src/vectorpostprocessors\l/DwarfElephantElementalVariable\lValuesAlongLine.C">
<polygon fill="white" stroke="black" points="168,-0.5 168,-41.5 334,-41.5 334,-0.5 168,-0.5"/>
<text text-anchor="start" x="176" y="-29.5" font-family="Helvetica,sans-Serif" font-size="10.00">src/vectorpostprocessors</text>
<text text-anchor="start" x="176" y="-18.5" font-family="Helvetica,sans-Serif" font-size="10.00">/DwarfElephantElementalVariable</text>
<text text-anchor="middle" x="251" y="-7.5" font-family="Helvetica,sans-Serif" font-size="10.00">ValuesAlongLine.C</text>
</a>
</g>
</g>
<!-- Node1&#45;&gt;Node3 -->
<g id="edge2" class="edge"><title>Node1&#45;&gt;Node3</title>
<path fill="none" stroke="midnightblue" d="M193.362,-71.7785C204.866,-61.8432 217.75,-50.7159 228.415,-41.5056"/>
<polygon fill="midnightblue" stroke="midnightblue" points="190.943,-69.243 185.662,-78.4281 195.518,-74.5408 190.943,-69.243"/>
</g>
</g>
</svg>
