<?xml version="1.0" encoding="UTF-8" standalone="no"?>
<!DOCTYPE svg PUBLIC "-//W3C//DTD SVG 1.1//EN"
 "http://www.w3.org/Graphics/SVG/1.1/DTD/svg11.dtd">
<!-- Generated by graphviz version 2.38.0 (20140413.2041)
 -->
<!-- Title: include/bcs/DwarfElephantRBDirichletBC.h Pages: 1 -->
<svg width="720pt" height="240pt"
 viewBox="0.00 0.00 719.50 240.00" xmlns="http://www.w3.org/2000/svg" xmlns:xlink="http://www.w3.org/1999/xlink">
<g id="graph0" class="graph" transform="scale(1 1) rotate(0) translate(4 236)">
<title>include/bcs/DwarfElephantRBDirichletBC.h</title>
<polygon fill="white" stroke="none" points="-4,4 -4,-236 715.5,-236 715.5,4 -4,4"/>
<!-- Node1 -->
<g id="node1" class="node"><title>Node1</title>
<polygon fill="#bfbfbf" stroke="black" points="426,-201.5 426,-231.5 561,-231.5 561,-201.5 426,-201.5"/>
<text text-anchor="start" x="434" y="-219.5" font-family="Helvetica,sans-Serif" font-size="10.00">include/bcs/DwarfElephant</text>
<text text-anchor="middle" x="493.5" y="-208.5" font-family="Helvetica,sans-Serif" font-size="10.00">RBDirichletBC.h</text>
</g>
<!-- Node2 -->
<g id="node2" class="node"><title>Node2</title>
<g id="a_node2"><a xlink:href="_dwarf_elephant_app_8_c.html" target="_top" xlink:title="src/base/DwarfElephantApp.C">
<polygon fill="white" stroke="black" points="418.5,-6 418.5,-25 568.5,-25 568.5,-6 418.5,-6"/>
<text text-anchor="middle" x="493.5" y="-13" font-family="Helvetica,sans-Serif" font-size="10.00">src/base/DwarfElephantApp.C</text>
</a>
</g>
</g>
<!-- Node1&#45;&gt;Node2 -->
<g id="edge1" class="edge"><title>Node1&#45;&gt;Node2</title>
<path fill="none" stroke="midnightblue" d="M493.5,-190.962C493.5,-146.433 493.5,-54.2528 493.5,-25.3601"/>
<polygon fill="midnightblue" stroke="midnightblue" points="490,-191.188 493.5,-201.188 497,-191.188 490,-191.188"/>
</g>
<!-- Node3 -->
<g id="node3" class="node"><title>Node3</title>
<g id="a_node3"><a xlink:href="_dwarf_elephant_r_b_dirichlet_b_c_8_c.html" target="_top" xlink:title="src/bcs/DwarfElephantRBDirichletBC.C">
<polygon fill="white" stroke="black" points="521.5,-140 521.5,-159 711.5,-159 711.5,-140 521.5,-140"/>
<text text-anchor="middle" x="616.5" y="-147" font-family="Helvetica,sans-Serif" font-size="10.00">src/bcs/DwarfElephantRBDirichletBC.C</text>
</a>
</g>
</g>
<!-- Node1&#45;&gt;Node3 -->
<g id="edge2" class="edge"><title>Node1&#45;&gt;Node3</title>
<path fill="none" stroke="midnightblue" d="M529.193,-196.638C552.724,-184.203 582.413,-168.514 600.402,-159.007"/>
<polygon fill="midnightblue" stroke="midnightblue" points="527.395,-193.629 520.189,-201.396 530.666,-199.818 527.395,-193.629"/>
</g>
<!-- Node4 -->
<g id="node4" class="node"><title>Node4</title>
<g id="a_node4"><a xlink:href="_dwarf_elephant_r_b_preset_nodal_b_c_8h.html" target="_top" xlink:title="include/bcs/DwarfElephant\lRBPresetNodalBC.h">
<polygon fill="white" stroke="black" points="254,-134.5 254,-164.5 389,-164.5 389,-134.5 254,-134.5"/>
<text text-anchor="start" x="262" y="-152.5" font-family="Helvetica,sans-Serif" font-size="10.00">include/bcs/DwarfElephant</text>
<text text-anchor="middle" x="321.5" y="-141.5" font-family="Helvetica,sans-Serif" font-size="10.00">RBPresetNodalBC.h</text>
</a>
</g>
</g>
<!-- Node1&#45;&gt;Node4 -->
<g id="edge3" class="edge"><title>Node1&#45;&gt;Node4</title>
<path fill="none" stroke="midnightblue" d="M446.712,-197.819C419.065,-187.371 384.54,-174.323 358.749,-164.577"/>
<polygon fill="midnightblue" stroke="midnightblue" points="445.587,-201.135 456.179,-201.396 448.062,-194.587 445.587,-201.135"/>
</g>
<!-- Node5 -->
<g id="node5" class="node"><title>Node5</title>
<g id="a_node5"><a xlink:href="_dwarf_elephant_r_b_preset_nodal_b_c_8_c.html" target="_top" xlink:title="src/bcs/DwarfElephantRBPreset\lNodalBC.C">
<polygon fill="white" stroke="black" points="0,-67.5 0,-97.5 159,-97.5 159,-67.5 0,-67.5"/>
<text text-anchor="start" x="8" y="-85.5" font-family="Helvetica,sans-Serif" font-size="10.00">src/bcs/DwarfElephantRBPreset</text>
<text text-anchor="middle" x="79.5" y="-74.5" font-family="Helvetica,sans-Serif" font-size="10.00">NodalBC.C</text>
</a>
</g>
</g>
<!-- Node4&#45;&gt;Node5 -->
<g id="edge4" class="edge"><title>Node4&#45;&gt;Node5</title>
<path fill="none" stroke="midnightblue" d="M259.51,-131.85C220.055,-121.252 169.515,-107.677 132.036,-97.6109"/>
<polygon fill="midnightblue" stroke="midnightblue" points="258.722,-135.262 269.288,-134.476 260.538,-128.502 258.722,-135.262"/>
</g>
<!-- Node6 -->
<g id="node6" class="node"><title>Node6</title>
<g id="a_node6"><a xlink:href="_dwarf_elephant_r_b_function_preset_b_c_8h.html" target="_top" xlink:title="include/bcs/DwarfElephant\lRBFunctionPresetBC.h">
<polygon fill="white" stroke="black" points="330,-67.5 330,-97.5 465,-97.5 465,-67.5 330,-67.5"/>
<text text-anchor="start" x="338" y="-85.5" font-family="Helvetica,sans-Serif" font-size="10.00">include/bcs/DwarfElephant</text>
<text text-anchor="middle" x="397.5" y="-74.5" font-family="Helvetica,sans-Serif" font-size="10.00">RBFunctionPresetBC.h</text>
</a>
</g>
</g>
<!-- Node4&#45;&gt;Node6 -->
<g id="edge5" class="edge"><title>Node4&#45;&gt;Node6</title>
<path fill="none" stroke="midnightblue" d="M345.606,-127.883C357.155,-118.005 370.69,-106.429 381.041,-97.5765"/>
<polygon fill="midnightblue" stroke="midnightblue" points="343.316,-125.236 337.991,-134.396 347.865,-130.556 343.316,-125.236"/>
</g>
<!-- Node8 -->
<g id="node8" class="node"><title>Node8</title>
<g id="a_node8"><a xlink:href="_dwarf_elephant_r_b_preset_b_c_8h.html" target="_top" xlink:title="include/bcs/DwarfElephant\lRBPresetBC.h">
<polygon fill="white" stroke="black" points="177,-67.5 177,-97.5 312,-97.5 312,-67.5 177,-67.5"/>
<text text-anchor="start" x="185" y="-85.5" font-family="Helvetica,sans-Serif" font-size="10.00">include/bcs/DwarfElephant</text>
<text text-anchor="middle" x="244.5" y="-74.5" font-family="Helvetica,sans-Serif" font-size="10.00">RBPresetBC.h</text>
</a>
</g>
</g>
<!-- Node4&#45;&gt;Node8 -->
<g id="edge8" class="edge"><title>Node4&#45;&gt;Node8</title>
<path fill="none" stroke="midnightblue" d="M297.077,-127.883C285.376,-118.005 271.662,-106.429 261.175,-97.5765"/>
<polygon fill="midnightblue" stroke="midnightblue" points="294.893,-130.62 304.792,-134.396 299.408,-125.271 294.893,-130.62"/>
</g>
<!-- Node6&#45;&gt;Node2 -->
<g id="edge6" class="edge"><title>Node6&#45;&gt;Node2</title>
<path fill="none" stroke="midnightblue" d="M426.83,-61.6409C444.947,-49.3742 467.268,-34.2613 480.936,-25.007"/>
<polygon fill="midnightblue" stroke="midnightblue" points="424.649,-58.8912 418.331,-67.396 428.573,-64.6875 424.649,-58.8912"/>
</g>
<!-- Node7 -->
<g id="node7" class="node"><title>Node7</title>
<g id="a_node7"><a xlink:href="_dwarf_elephant_r_b_function_preset_b_c_8_c.html" target="_top" xlink:title="src/bcs/DwarfElephantRBFunction\lPresetBC.C">
<polygon fill="white" stroke="black" points="231,-0.5 231,-30.5 400,-30.5 400,-0.5 231,-0.5"/>
<text text-anchor="start" x="239" y="-18.5" font-family="Helvetica,sans-Serif" font-size="10.00">src/bcs/DwarfElephantRBFunction</text>
<text text-anchor="middle" x="315.5" y="-7.5" font-family="Helvetica,sans-Serif" font-size="10.00">PresetBC.C</text>
</a>
</g>
</g>
<!-- Node6&#45;&gt;Node7 -->
<g id="edge7" class="edge"><title>Node6&#45;&gt;Node7</title>
<path fill="none" stroke="midnightblue" d="M371.85,-61.1677C359.311,-51.2283 344.534,-39.5144 333.258,-30.5765"/>
<polygon fill="midnightblue" stroke="midnightblue" points="369.696,-63.9268 379.707,-67.396 374.045,-58.4412 369.696,-63.9268"/>
</g>
<!-- Node8&#45;&gt;Node2 -->
<g id="edge9" class="edge"><title>Node8&#45;&gt;Node2</title>
<path fill="none" stroke="midnightblue" d="M308.052,-64.9102C356.817,-52.1803 422.143,-35.1273 460.829,-25.0287"/>
<polygon fill="midnightblue" stroke="midnightblue" points="307.014,-61.5636 298.223,-67.476 308.783,-68.3366 307.014,-61.5636"/>
</g>
<!-- Node9 -->
<g id="node9" class="node"><title>Node9</title>
<g id="a_node9"><a xlink:href="_dwarf_elephant_r_b_preset_b_c_8_c.html" target="_top" xlink:title="src/bcs/DwarfElephantRBPresetBC.C">
<polygon fill="white" stroke="black" points="30,-6 30,-25 213,-25 213,-6 30,-6"/>
<text text-anchor="middle" x="121.5" y="-13" font-family="Helvetica,sans-Serif" font-size="10.00">src/bcs/DwarfElephantRBPresetBC.C</text>
</a>
</g>
</g>
<!-- Node8&#45;&gt;Node9 -->
<g id="edge10" class="edge"><title>Node8&#45;&gt;Node9</title>
<path fill="none" stroke="midnightblue" d="M208.807,-62.638C185.276,-50.2028 155.587,-34.5137 137.598,-25.007"/>
<polygon fill="midnightblue" stroke="midnightblue" points="207.334,-65.8181 217.811,-67.396 210.605,-59.6292 207.334,-65.8181"/>
</g>
</g>
</svg>
