<?xml version="1.0" encoding="UTF-8" standalone="no"?>
<!DOCTYPE svg PUBLIC "-//W3C//DTD SVG 1.1//EN"
 "http://www.w3.org/Graphics/SVG/1.1/DTD/svg11.dtd">
<!-- Generated by graphviz version 2.38.0 (20140413.2041)
 -->
<!-- Title: src/kernels/DwarfElephantZeroKernel.C Pages: 1 -->
<svg width="148pt" height="151pt"
 viewBox="0.00 0.00 148.00 151.00" xmlns="http://www.w3.org/2000/svg" xmlns:xlink="http://www.w3.org/1999/xlink">
<g id="graph0" class="graph" transform="scale(1 1) rotate(0) translate(4 147)">
<title>src/kernels/DwarfElephantZeroKernel.C</title>
<polygon fill="white" stroke="none" points="-4,4 -4,-147 144,-147 144,4 -4,4"/>
<!-- Node1 -->
<g id="node1" class="node"><title>Node1</title>
<polygon fill="#bfbfbf" stroke="black" points="3.5,-112.5 3.5,-142.5 136.5,-142.5 136.5,-112.5 3.5,-112.5"/>
<text text-anchor="start" x="11.5" y="-130.5" font-family="Helvetica,sans-Serif" font-size="10.00">src/kernels/DwarfElephant</text>
<text text-anchor="middle" x="70" y="-119.5" font-family="Helvetica,sans-Serif" font-size="10.00">ZeroKernel.C</text>
</g>
<!-- Node2 -->
<g id="node2" class="node"><title>Node2</title>
<g id="a_node2"><a xlink:href="_dwarf_elephant_zero_kernel_8h.html" target="_top" xlink:title="DwarfElephantZeroKernel.h">
<polygon fill="white" stroke="black" points="0,-56.5 0,-75.5 140,-75.5 140,-56.5 0,-56.5"/>
<text text-anchor="middle" x="70" y="-63.5" font-family="Helvetica,sans-Serif" font-size="10.00">DwarfElephantZeroKernel.h</text>
</a>
</g>
</g>
<!-- Node1&#45;&gt;Node2 -->
<g id="edge1" class="edge"><title>Node1&#45;&gt;Node2</title>
<path fill="none" stroke="midnightblue" d="M70,-112.399C70,-104.466 70,-94.458 70,-85.8583"/>
<polygon fill="midnightblue" stroke="midnightblue" points="73.5001,-85.6577 70,-75.6578 66.5001,-85.6578 73.5001,-85.6577"/>
</g>
<!-- Node3 -->
<g id="node3" class="node"><title>Node3</title>
<polygon fill="white" stroke="#bfbfbf" points="43,-0.5 43,-19.5 97,-19.5 97,-0.5 43,-0.5"/>
<text text-anchor="middle" x="70" y="-7.5" font-family="Helvetica,sans-Serif" font-size="10.00">Kernel.h</text>
</g>
<!-- Node2&#45;&gt;Node3 -->
<g id="edge2" class="edge"><title>Node2&#45;&gt;Node3</title>
<path fill="none" stroke="midnightblue" d="M70,-56.083C70,-49.0059 70,-38.8611 70,-29.9865"/>
<polygon fill="midnightblue" stroke="midnightblue" points="73.5001,-29.751 70,-19.7511 66.5001,-29.7511 73.5001,-29.751"/>
</g>
</g>
</svg>
