<?xml version="1.0" encoding="UTF-8" standalone="no"?>
<!DOCTYPE svg PUBLIC "-//W3C//DTD SVG 1.1//EN"
 "http://www.w3.org/Graphics/SVG/1.1/DTD/svg11.dtd">
<!-- Generated by graphviz version 2.38.0 (20140413.2041)
 -->
<!-- Title: include/userobjects/DwarfElephantRBStructuresT3F3O1SteadyState.h Pages: 1 -->
<svg width="670pt" height="184pt"
 viewBox="0.00 0.00 670.22 184.00" xmlns="http://www.w3.org/2000/svg" xmlns:xlink="http://www.w3.org/1999/xlink">
<g id="graph0" class="graph" transform="scale(1 1) rotate(0) translate(4 180)">
<title>include/userobjects/DwarfElephantRBStructuresT3F3O1SteadyState.h</title>
<polygon fill="white" stroke="none" points="-4,4 -4,-180 666.222,-180 666.222,4 -4,4"/>
<!-- Node1 -->
<g id="node1" class="node"><title>Node1</title>
<polygon fill="#bfbfbf" stroke="black" points="259.116,-134.5 259.116,-175.5 403.116,-175.5 403.116,-134.5 259.116,-134.5"/>
<text text-anchor="start" x="267.116" y="-163.5" font-family="Helvetica,sans-Serif" font-size="10.00">include/userobjects</text>
<text text-anchor="start" x="267.116" y="-152.5" font-family="Helvetica,sans-Serif" font-size="10.00">/DwarfElephantRBStructures</text>
<text text-anchor="middle" x="331.116" y="-141.5" font-family="Helvetica,sans-Serif" font-size="10.00">T3F3O1SteadyState.h</text>
</g>
<!-- Node2 -->
<g id="node2" class="node"><title>Node2</title>
<polygon fill="white" stroke="#bfbfbf" points="201.616,-6 201.616,-25 300.616,-25 300.616,-6 201.616,-6"/>
<text text-anchor="middle" x="251.116" y="-13" font-family="Helvetica,sans-Serif" font-size="10.00">libmesh/rb_theta.h</text>
</g>
<!-- Node1&#45;&gt;Node2 -->
<g id="edge1" class="edge"><title>Node1&#45;&gt;Node2</title>
<path fill="none" stroke="midnightblue" d="M258.967,-151.789C174.494,-147.503 42.1362,-134.92 11.116,-98 -40.7544,-36.264 104.601,-21.1511 191.411,-17.5474"/>
<polygon fill="midnightblue" stroke="midnightblue" points="191.57,-21.044 201.431,-17.1713 191.307,-14.0489 191.57,-21.044"/>
</g>
<!-- Node3 -->
<g id="node3" class="node"><title>Node3</title>
<polygon fill="white" stroke="#bfbfbf" points="356.116,-0.5 356.116,-30.5 466.116,-30.5 466.116,-0.5 356.116,-0.5"/>
<text text-anchor="start" x="364.116" y="-18.5" font-family="Helvetica,sans-Serif" font-size="10.00">libmesh/rb_assembly</text>
<text text-anchor="middle" x="411.116" y="-7.5" font-family="Helvetica,sans-Serif" font-size="10.00">_expansion.h</text>
</g>
<!-- Node1&#45;&gt;Node3 -->
<g id="edge2" class="edge"><title>Node1&#45;&gt;Node3</title>
<path fill="none" stroke="midnightblue" d="M403.265,-151.789C487.738,-147.503 620.096,-134.92 651.116,-98 701.897,-37.5603 563.648,-21.8064 476.364,-17.7899"/>
<polygon fill="midnightblue" stroke="midnightblue" points="476.389,-14.288 466.251,-17.366 476.096,-21.2818 476.389,-14.288"/>
</g>
<!-- Node4 -->
<g id="node4" class="node"><title>Node4</title>
<g id="a_node4"><a xlink:href="_dwarf_elephant_r_b_structures_a00_theta_constant_8h.html" target="_top" xlink:title="DwarfElephantRBStructures\lA00ThetaConstant.h">
<polygon fill="white" stroke="black" points="20.116,-67.5 20.116,-97.5 162.116,-97.5 162.116,-67.5 20.116,-67.5"/>
<text text-anchor="start" x="28.116" y="-85.5" font-family="Helvetica,sans-Serif" font-size="10.00">DwarfElephantRBStructures</text>
<text text-anchor="middle" x="91.116" y="-74.5" font-family="Helvetica,sans-Serif" font-size="10.00">A00ThetaConstant.h</text>
</a>
</g>
</g>
<!-- Node1&#45;&gt;Node4 -->
<g id="edge3" class="edge"><title>Node1&#45;&gt;Node4</title>
<path fill="none" stroke="midnightblue" d="M264.581,-134.455C228.345,-123.811 183.932,-110.765 149.117,-100.538"/>
<polygon fill="midnightblue" stroke="midnightblue" points="149.686,-97.0572 139.105,-97.5968 147.713,-103.773 149.686,-97.0572"/>
</g>
<!-- Node5 -->
<g id="node5" class="node"><title>Node5</title>
<g id="a_node5"><a xlink:href="_dwarf_elephant_r_b_structures_a0_theta_equal_mu0_8h.html" target="_top" xlink:title="DwarfElephantRBStructures\lA0ThetaEqualMu0.h">
<polygon fill="white" stroke="black" points="180.116,-67.5 180.116,-97.5 322.116,-97.5 322.116,-67.5 180.116,-67.5"/>
<text text-anchor="start" x="188.116" y="-85.5" font-family="Helvetica,sans-Serif" font-size="10.00">DwarfElephantRBStructures</text>
<text text-anchor="middle" x="251.116" y="-74.5" font-family="Helvetica,sans-Serif" font-size="10.00">A0ThetaEqualMu0.h</text>
</a>
</g>
</g>
<!-- Node1&#45;&gt;Node5 -->
<g id="edge6" class="edge"><title>Node1&#45;&gt;Node5</title>
<path fill="none" stroke="midnightblue" d="M308.832,-134.362C298.295,-125.076 285.703,-113.979 274.973,-104.524"/>
<polygon fill="midnightblue" stroke="midnightblue" points="277.012,-101.656 267.195,-97.67 272.384,-106.907 277.012,-101.656"/>
</g>
<!-- Node6 -->
<g id="node6" class="node"><title>Node6</title>
<g id="a_node6"><a xlink:href="_dwarf_elephant_r_b_structures_a1_theta_equal_mu1_8h.html" target="_top" xlink:title="DwarfElephantRBStructures\lA1ThetaEqualMu1.h">
<polygon fill="white" stroke="black" points="340.116,-67.5 340.116,-97.5 482.116,-97.5 482.116,-67.5 340.116,-67.5"/>
<text text-anchor="start" x="348.116" y="-85.5" font-family="Helvetica,sans-Serif" font-size="10.00">DwarfElephantRBStructures</text>
<text text-anchor="middle" x="411.116" y="-74.5" font-family="Helvetica,sans-Serif" font-size="10.00">A1ThetaEqualMu1.h</text>
</a>
</g>
</g>
<!-- Node1&#45;&gt;Node6 -->
<g id="edge9" class="edge"><title>Node1&#45;&gt;Node6</title>
<path fill="none" stroke="midnightblue" d="M353.4,-134.362C363.937,-125.076 376.529,-113.979 387.259,-104.524"/>
<polygon fill="midnightblue" stroke="midnightblue" points="389.848,-106.907 395.037,-97.67 385.22,-101.656 389.848,-106.907"/>
</g>
<!-- Node7 -->
<g id="node7" class="node"><title>Node7</title>
<g id="a_node7"><a xlink:href="_dwarf_elephant_r_b_structures_a2_theta_equal_mu2_8h.html" target="_top" xlink:title="DwarfElephantRBStructures\lA2ThetaEqualMu2.h">
<polygon fill="white" stroke="black" points="500.116,-67.5 500.116,-97.5 642.116,-97.5 642.116,-67.5 500.116,-67.5"/>
<text text-anchor="start" x="508.116" y="-85.5" font-family="Helvetica,sans-Serif" font-size="10.00">DwarfElephantRBStructures</text>
<text text-anchor="middle" x="571.116" y="-74.5" font-family="Helvetica,sans-Serif" font-size="10.00">A2ThetaEqualMu2.h</text>
</a>
</g>
</g>
<!-- Node1&#45;&gt;Node7 -->
<g id="edge12" class="edge"><title>Node1&#45;&gt;Node7</title>
<path fill="none" stroke="midnightblue" d="M397.651,-134.455C433.887,-123.811 478.3,-110.765 513.115,-100.538"/>
<polygon fill="midnightblue" stroke="midnightblue" points="514.519,-103.773 523.127,-97.5968 512.546,-97.0572 514.519,-103.773"/>
</g>
<!-- Node4&#45;&gt;Node2 -->
<g id="edge4" class="edge"><title>Node4&#45;&gt;Node2</title>
<path fill="none" stroke="midnightblue" d="M125.834,-67.396C154.156,-55.8901 193.769,-39.7974 220.821,-28.8072"/>
<polygon fill="midnightblue" stroke="midnightblue" points="222.228,-32.0135 230.176,-25.007 219.594,-25.5282 222.228,-32.0135"/>
</g>
<!-- Node4&#45;&gt;Node3 -->
<g id="edge5" class="edge"><title>Node4&#45;&gt;Node3</title>
<path fill="none" stroke="midnightblue" d="M160.157,-67.476C215.334,-56.2683 292.121,-40.6709 346.185,-29.689"/>
<polygon fill="midnightblue" stroke="midnightblue" points="346.903,-33.1149 356.006,-27.6943 345.509,-26.255 346.903,-33.1149"/>
</g>
<!-- Node5&#45;&gt;Node2 -->
<g id="edge7" class="edge"><title>Node5&#45;&gt;Node2</title>
<path fill="none" stroke="midnightblue" d="M251.116,-67.396C251.116,-58.0638 251.116,-45.7143 251.116,-35.5173"/>
<polygon fill="midnightblue" stroke="midnightblue" points="254.616,-35.1945 251.116,-25.1945 247.616,-35.1946 254.616,-35.1945"/>
</g>
<!-- Node5&#45;&gt;Node3 -->
<g id="edge8" class="edge"><title>Node5&#45;&gt;Node3</title>
<path fill="none" stroke="midnightblue" d="M285.834,-67.396C309.631,-57.7284 341.399,-44.8226 366.99,-34.4262"/>
<polygon fill="midnightblue" stroke="midnightblue" points="368.519,-37.583 376.466,-30.5765 365.884,-31.0977 368.519,-37.583"/>
</g>
<!-- Node6&#45;&gt;Node2 -->
<g id="edge10" class="edge"><title>Node6&#45;&gt;Node2</title>
<path fill="none" stroke="midnightblue" d="M376.398,-67.396C348.076,-55.8901 308.463,-39.7974 281.411,-28.8072"/>
<polygon fill="midnightblue" stroke="midnightblue" points="282.638,-25.5282 272.056,-25.007 280.004,-32.0135 282.638,-25.5282"/>
</g>
<!-- Node6&#45;&gt;Node3 -->
<g id="edge11" class="edge"><title>Node6&#45;&gt;Node3</title>
<path fill="none" stroke="midnightblue" d="M411.116,-67.396C411.116,-59.6448 411.116,-49.8122 411.116,-40.8601"/>
<polygon fill="midnightblue" stroke="midnightblue" points="414.616,-40.5765 411.116,-30.5765 407.616,-40.5765 414.616,-40.5765"/>
</g>
<!-- Node7&#45;&gt;Node2 -->
<g id="edge13" class="edge"><title>Node7&#45;&gt;Node2</title>
<path fill="none" stroke="midnightblue" d="M502.075,-67.476C442.352,-55.3449 357.311,-38.0709 303.171,-27.0737"/>
<polygon fill="midnightblue" stroke="midnightblue" points="303.6,-23.5894 293.103,-25.0287 302.206,-30.4493 303.6,-23.5894"/>
</g>
<!-- Node7&#45;&gt;Node3 -->
<g id="edge14" class="edge"><title>Node7&#45;&gt;Node3</title>
<path fill="none" stroke="midnightblue" d="M536.398,-67.396C512.601,-57.7284 480.833,-44.8226 455.242,-34.4262"/>
<polygon fill="midnightblue" stroke="midnightblue" points="456.348,-31.0977 445.766,-30.5765 453.713,-37.583 456.348,-31.0977"/>
</g>
</g>
</svg>
