<?xml version="1.0" encoding="UTF-8" standalone="no"?>
<!DOCTYPE svg PUBLIC "-//W3C//DTD SVG 1.1//EN"
 "http://www.w3.org/Graphics/SVG/1.1/DTD/svg11.dtd">
<!-- Generated by graphviz version 2.38.0 (20140413.2041)
 -->
<!-- Title: include/userobjects/DwarfElephantRBStructuresT3F2O1SteadyState.h Pages: 1 -->
<!--zoomable 184 -->
<svg id="main" version="1.1" xmlns="http://www.w3.org/2000/svg" xmlns:xlink="http://www.w3.org/1999/xlink" xml:space="preserve" onload="init(evt)">
<style type="text/css"><![CDATA[
.edge:hover path { stroke: red; }
.edge:hover polygon { stroke: red; fill: red; }
]]></style>
<script type="text/javascript"><![CDATA[
var edges = document.getElementsByTagName('g');
if (edges && edges.length) {
  for (var i=0;i<edges.length;i++) {
    if (edges[i].id.substr(0,4)=='edge') {
      edges[i].setAttribute('class','edge');
    }
  }
}
]]></script>
        <defs>
                <circle id="rim" cx="0" cy="0" r="7"/>
                <circle id="rim2" cx="0" cy="0" r="3.5"/>
                <g id="zoomPlus">
                        <use xlink:href="#rim" fill="#404040">
                                <set attributeName="fill" to="#808080" begin="zoomplus.mouseover" end="zoomplus.mouseout"/>
                        </use>
                        <path d="M-4,0h8M0,-4v8" fill="none" stroke="white" stroke-width="1.5" pointer-events="none"/>
                </g>
                <g id="zoomMin">
                        <use xlink:href="#rim" fill="#404040">
                                <set attributeName="fill" to="#808080" begin="zoomminus.mouseover" end="zoomminus.mouseout"/>
                        </use>
                        <path d="M-4,0h8" fill="none" stroke="white" stroke-width="1.5" pointer-events="none"/>
                </g>
                <g id="dirArrow">
                        <path fill="none" stroke="white" stroke-width="1.5" d="M0,-3.0v7 M-2.5,-0.5L0,-3.0L2.5,-0.5"/>
                </g>
               <g id="resetDef">
                       <use xlink:href="#rim2" fill="#404040">
                               <set attributeName="fill" to="#808080" begin="reset.mouseover" end="reset.mouseout"/>
                       </use>
               </g>
        </defs>

<script type="text/javascript">
var viewWidth = 1622;
var viewHeight = 184;
var sectionId = 'dynsection-0';
</script>
<script xlink:href="svgpan.js"/>
<svg id="graph" class="graph">
<g id="viewport">
<title>include/userobjects/DwarfElephantRBStructuresT3F2O1SteadyState.h</title>
<polygon fill="white" stroke="none" points="-4,4 -4,-180 1618.09,-180 1618.09,4 -4,4"/>
<!-- Node1 -->
<g id="node1" class="node"><title>Node1</title>
<polygon fill="#bfbfbf" stroke="black" points="735.047,-134.5 735.047,-175.5 879.047,-175.5 879.047,-134.5 735.047,-134.5"/>
<text text-anchor="start" x="743.047" y="-163.5" font-family="Helvetica,sans-Serif" font-size="10.00">include/userobjects</text>
<text text-anchor="start" x="743.047" y="-152.5" font-family="Helvetica,sans-Serif" font-size="10.00">/DwarfElephantRBStructures</text>
<text text-anchor="middle" x="807.047" y="-141.5" font-family="Helvetica,sans-Serif" font-size="10.00">T3F2O1SteadyState.h</text>
</g>
<!-- Node2 -->
<g id="node2" class="node"><title>Node2</title>
<polygon fill="white" stroke="#bfbfbf" points="677.547,-6 677.547,-25 776.547,-25 776.547,-6 677.547,-6"/>
<text text-anchor="middle" x="727.047" y="-13" font-family="Helvetica,sans-Serif" font-size="10.00">libmesh/rb_theta.h</text>
</g>
<!-- Node1&#45;&gt;Node2 -->
<g id="edge1" class="edge"><title>Node1&#45;&gt;Node2</title>
<path fill="none" stroke="midnightblue" d="M734.722,-154.424C547.132,-154.772 56.0945,-150.601 7.04682,-98 -2.34923,-87.9232 -2.34853,-77.0774 7.04682,-67 51.6234,-19.1874 501.903,-15.7674 666.882,-16.1373"/>
<polygon fill="midnightblue" stroke="midnightblue" points="667.319,-19.6384 677.329,-16.1667 667.339,-12.6384 667.319,-19.6384"/>
</g>
<!-- Node3 -->
<g id="node3" class="node"><title>Node3</title>
<polygon fill="white" stroke="#bfbfbf" points="832.047,-0.5 832.047,-30.5 942.047,-30.5 942.047,-0.5 832.047,-0.5"/>
<text text-anchor="start" x="840.047" y="-18.5" font-family="Helvetica,sans-Serif" font-size="10.00">libmesh/rb_assembly</text>
<text text-anchor="middle" x="887.047" y="-7.5" font-family="Helvetica,sans-Serif" font-size="10.00">_expansion.h</text>
</g>
<!-- Node1&#45;&gt;Node3 -->
<g id="edge2" class="edge"><title>Node1&#45;&gt;Node3</title>
<path fill="none" stroke="midnightblue" d="M879.372,-154.424C1066.96,-154.772 1558,-150.601 1607.05,-98 1616.44,-87.9232 1616.44,-77.0774 1607.05,-67 1562.92,-19.6727 1121.29,-15.8414 952.323,-16.1272"/>
<polygon fill="midnightblue" stroke="midnightblue" points="952.066,-12.6277 942.074,-16.1502 952.082,-19.6277 952.066,-12.6277"/>
</g>
<!-- Node4 -->
<g id="node4" class="node"><title>Node4</title>
<g id="a_node4"><a xlink:href="_dwarf_elephant_r_b_structures_a00_theta_constant_8h.html" target="_top" xlink:title="DwarfElephantRBStructures\lA00ThetaConstant.h">
<polygon fill="white" stroke="black" points="1296.05,-67.5 1296.05,-97.5 1438.05,-97.5 1438.05,-67.5 1296.05,-67.5"/>
<text text-anchor="start" x="1304.05" y="-85.5" font-family="Helvetica,sans-Serif" font-size="10.00">DwarfElephantRBStructures</text>
<text text-anchor="middle" x="1367.05" y="-74.5" font-family="Helvetica,sans-Serif" font-size="10.00">A00ThetaConstant.h</text>
</a>
</g>
</g>
<!-- Node1&#45;&gt;Node4 -->
<g id="edge3" class="edge"><title>Node1&#45;&gt;Node4</title>
<path fill="none" stroke="midnightblue" d="M879.203,-147.017C971.172,-137.795 1135.28,-120.266 1285.64,-98.1519"/>
<polygon fill="midnightblue" stroke="midnightblue" points="1286.61,-101.548 1295.99,-96.6204 1285.58,-94.6231 1286.61,-101.548"/>
</g>
<!-- Node5 -->
<g id="node5" class="node"><title>Node5</title>
<g id="a_node5"><a xlink:href="_dwarf_elephant_r_b_structures_a0_theta_equal_mu0_8h.html" target="_top" xlink:title="DwarfElephantRBStructures\lA0ThetaEqualMu0.h">
<polygon fill="white" stroke="black" points="1456.05,-67.5 1456.05,-97.5 1598.05,-97.5 1598.05,-67.5 1456.05,-67.5"/>
<text text-anchor="start" x="1464.05" y="-85.5" font-family="Helvetica,sans-Serif" font-size="10.00">DwarfElephantRBStructures</text>
<text text-anchor="middle" x="1527.05" y="-74.5" font-family="Helvetica,sans-Serif" font-size="10.00">A0ThetaEqualMu0.h</text>
</a>
</g>
</g>
<!-- Node1&#45;&gt;Node5 -->
<g id="edge6" class="edge"><title>Node1&#45;&gt;Node5</title>
<path fill="none" stroke="midnightblue" d="M879.27,-149.854C996.208,-142.662 1234.39,-126.027 1445.95,-98.0674"/>
<polygon fill="midnightblue" stroke="midnightblue" points="1446.55,-101.518 1456,-96.7274 1445.63,-94.5794 1446.55,-101.518"/>
</g>
<!-- Node6 -->
<g id="node6" class="node"><title>Node6</title>
<g id="a_node6"><a xlink:href="_dwarf_elephant_r_b_structures_a0_theta_norm_mu0_8h.html" target="_top" xlink:title="DwarfElephantRBStructures\lA0ThetaNormMu0.h">
<polygon fill="white" stroke="black" points="16.0468,-67.5 16.0468,-97.5 158.047,-97.5 158.047,-67.5 16.0468,-67.5"/>
<text text-anchor="start" x="24.0468" y="-85.5" font-family="Helvetica,sans-Serif" font-size="10.00">DwarfElephantRBStructures</text>
<text text-anchor="middle" x="87.0468" y="-74.5" font-family="Helvetica,sans-Serif" font-size="10.00">A0ThetaNormMu0.h</text>
</a>
</g>
</g>
<!-- Node1&#45;&gt;Node6 -->
<g id="edge9" class="edge"><title>Node1&#45;&gt;Node6</title>
<path fill="none" stroke="midnightblue" d="M734.824,-149.854C617.886,-142.662 379.702,-126.027 168.147,-98.0674"/>
<polygon fill="midnightblue" stroke="midnightblue" points="168.468,-94.5794 158.093,-96.7274 167.543,-101.518 168.468,-94.5794"/>
</g>
<!-- Node7 -->
<g id="node7" class="node"><title>Node7</title>
<g id="a_node7"><a xlink:href="_dwarf_elephant_r_b_structures_a0_theta_norm_mu1_8h.html" target="_top" xlink:title="DwarfElephantRBStructures\lA0ThetaNormMu1.h">
<polygon fill="white" stroke="black" points="176.047,-67.5 176.047,-97.5 318.047,-97.5 318.047,-67.5 176.047,-67.5"/>
<text text-anchor="start" x="184.047" y="-85.5" font-family="Helvetica,sans-Serif" font-size="10.00">DwarfElephantRBStructures</text>
<text text-anchor="middle" x="247.047" y="-74.5" font-family="Helvetica,sans-Serif" font-size="10.00">A0ThetaNormMu1.h</text>
</a>
</g>
</g>
<!-- Node1&#45;&gt;Node7 -->
<g id="edge12" class="edge"><title>Node1&#45;&gt;Node7</title>
<path fill="none" stroke="midnightblue" d="M734.891,-147.017C642.922,-137.795 478.812,-120.266 328.45,-98.1519"/>
<polygon fill="midnightblue" stroke="midnightblue" points="328.513,-94.6231 318.108,-96.6204 327.488,-101.548 328.513,-94.6231"/>
</g>
<!-- Node8 -->
<g id="node8" class="node"><title>Node8</title>
<g id="a_node8"><a xlink:href="_dwarf_elephant_r_b_structures_a1_theta_equal_mu1_8h.html" target="_top" xlink:title="DwarfElephantRBStructures\lA1ThetaEqualMu1.h">
<polygon fill="white" stroke="black" points="336.047,-67.5 336.047,-97.5 478.047,-97.5 478.047,-67.5 336.047,-67.5"/>
<text text-anchor="start" x="344.047" y="-85.5" font-family="Helvetica,sans-Serif" font-size="10.00">DwarfElephantRBStructures</text>
<text text-anchor="middle" x="407.047" y="-74.5" font-family="Helvetica,sans-Serif" font-size="10.00">A1ThetaEqualMu1.h</text>
</a>
</g>
</g>
<!-- Node1&#45;&gt;Node8 -->
<g id="edge15" class="edge"><title>Node1&#45;&gt;Node8</title>
<path fill="none" stroke="midnightblue" d="M734.901,-141.503C672.31,-130.631 578.982,-114.351 488.069,-98.1766"/>
<polygon fill="midnightblue" stroke="midnightblue" points="488.602,-94.7163 478.143,-96.4092 487.374,-101.608 488.602,-94.7163"/>
</g>
<!-- Node9 -->
<g id="node9" class="node"><title>Node9</title>
<g id="a_node9"><a xlink:href="_dwarf_elephant_r_b_structures_a1_theta_norm_mu0_8h.html" target="_top" xlink:title="DwarfElephantRBStructures\lA1ThetaNormMu0.h">
<polygon fill="white" stroke="black" points="496.047,-67.5 496.047,-97.5 638.047,-97.5 638.047,-67.5 496.047,-67.5"/>
<text text-anchor="start" x="504.047" y="-85.5" font-family="Helvetica,sans-Serif" font-size="10.00">DwarfElephantRBStructures</text>
<text text-anchor="middle" x="567.047" y="-74.5" font-family="Helvetica,sans-Serif" font-size="10.00">A1ThetaNormMu0.h</text>
</a>
</g>
</g>
<!-- Node1&#45;&gt;Node9 -->
<g id="edge18" class="edge"><title>Node1&#45;&gt;Node9</title>
<path fill="none" stroke="midnightblue" d="M740.512,-134.455C704.275,-123.811 659.862,-110.765 625.048,-100.538"/>
<polygon fill="midnightblue" stroke="midnightblue" points="625.617,-97.0572 615.036,-97.5968 623.644,-103.773 625.617,-97.0572"/>
</g>
<!-- Node10 -->
<g id="node10" class="node"><title>Node10</title>
<g id="a_node10"><a xlink:href="_dwarf_elephant_r_b_structures_a1_theta_norm_mu1_8h.html" target="_top" xlink:title="DwarfElephantRBStructures\lA1ThetaNormMu1.h">
<polygon fill="white" stroke="black" points="656.047,-67.5 656.047,-97.5 798.047,-97.5 798.047,-67.5 656.047,-67.5"/>
<text text-anchor="start" x="664.047" y="-85.5" font-family="Helvetica,sans-Serif" font-size="10.00">DwarfElephantRBStructures</text>
<text text-anchor="middle" x="727.047" y="-74.5" font-family="Helvetica,sans-Serif" font-size="10.00">A1ThetaNormMu1.h</text>
</a>
</g>
</g>
<!-- Node1&#45;&gt;Node10 -->
<g id="edge21" class="edge"><title>Node1&#45;&gt;Node10</title>
<path fill="none" stroke="midnightblue" d="M784.762,-134.362C774.226,-125.076 761.633,-113.979 750.904,-104.524"/>
<polygon fill="midnightblue" stroke="midnightblue" points="752.943,-101.656 743.126,-97.67 748.315,-106.907 752.943,-101.656"/>
</g>
<!-- Node11 -->
<g id="node11" class="node"><title>Node11</title>
<g id="a_node11"><a xlink:href="_dwarf_elephant_r_b_structures_a2_theta_equal_mu2_8h.html" target="_top" xlink:title="DwarfElephantRBStructures\lA2ThetaEqualMu2.h">
<polygon fill="white" stroke="black" points="816.047,-67.5 816.047,-97.5 958.047,-97.5 958.047,-67.5 816.047,-67.5"/>
<text text-anchor="start" x="824.047" y="-85.5" font-family="Helvetica,sans-Serif" font-size="10.00">DwarfElephantRBStructures</text>
<text text-anchor="middle" x="887.047" y="-74.5" font-family="Helvetica,sans-Serif" font-size="10.00">A2ThetaEqualMu2.h</text>
</a>
</g>
</g>
<!-- Node1&#45;&gt;Node11 -->
<g id="edge24" class="edge"><title>Node1&#45;&gt;Node11</title>
<path fill="none" stroke="midnightblue" d="M829.331,-134.362C839.868,-125.076 852.46,-113.979 863.19,-104.524"/>
<polygon fill="midnightblue" stroke="midnightblue" points="865.779,-106.907 870.967,-97.67 861.151,-101.656 865.779,-106.907"/>
</g>
<!-- Node12 -->
<g id="node12" class="node"><title>Node12</title>
<g id="a_node12"><a xlink:href="_dwarf_elephant_r_b_structures_a2_theta_norm_mu0_8h.html" target="_top" xlink:title="DwarfElephantRBStructures\lA2ThetaNormMu0.h">
<polygon fill="white" stroke="black" points="976.047,-67.5 976.047,-97.5 1118.05,-97.5 1118.05,-67.5 976.047,-67.5"/>
<text text-anchor="start" x="984.047" y="-85.5" font-family="Helvetica,sans-Serif" font-size="10.00">DwarfElephantRBStructures</text>
<text text-anchor="middle" x="1047.05" y="-74.5" font-family="Helvetica,sans-Serif" font-size="10.00">A2ThetaNormMu0.h</text>
</a>
</g>
</g>
<!-- Node1&#45;&gt;Node12 -->
<g id="edge27" class="edge"><title>Node1&#45;&gt;Node12</title>
<path fill="none" stroke="midnightblue" d="M873.581,-134.455C909.818,-123.811 954.231,-110.765 989.046,-100.538"/>
<polygon fill="midnightblue" stroke="midnightblue" points="990.45,-103.773 999.058,-97.5968 988.477,-97.0572 990.45,-103.773"/>
</g>
<!-- Node13 -->
<g id="node13" class="node"><title>Node13</title>
<g id="a_node13"><a xlink:href="_dwarf_elephant_r_b_structures_a2_theta_norm_mu1_8h.html" target="_top" xlink:title="DwarfElephantRBStructures\lA2ThetaNormMu1.h">
<polygon fill="white" stroke="black" points="1136.05,-67.5 1136.05,-97.5 1278.05,-97.5 1278.05,-67.5 1136.05,-67.5"/>
<text text-anchor="start" x="1144.05" y="-85.5" font-family="Helvetica,sans-Serif" font-size="10.00">DwarfElephantRBStructures</text>
<text text-anchor="middle" x="1207.05" y="-74.5" font-family="Helvetica,sans-Serif" font-size="10.00">A2ThetaNormMu1.h</text>
</a>
</g>
</g>
<!-- Node1&#45;&gt;Node13 -->
<g id="edge30" class="edge"><title>Node1&#45;&gt;Node13</title>
<path fill="none" stroke="midnightblue" d="M879.193,-141.503C941.783,-130.631 1035.11,-114.351 1126.02,-98.1766"/>
<polygon fill="midnightblue" stroke="midnightblue" points="1126.72,-101.608 1135.95,-96.4092 1125.49,-94.7163 1126.72,-101.608"/>
</g>
<!-- Node4&#45;&gt;Node2 -->
<g id="edge4" class="edge"><title>Node4&#45;&gt;Node2</title>
<path fill="none" stroke="midnightblue" d="M1296.01,-68.236C1292.98,-67.7942 1289.99,-67.3795 1287.05,-67 1081.91,-40.5211 1028.55,-54.4611 823.047,-31 811.272,-29.6557 798.723,-27.956 786.714,-26.1976"/>
<polygon fill="midnightblue" stroke="midnightblue" points="787.189,-22.7299 776.782,-24.7132 786.154,-29.653 787.189,-22.7299"/>
</g>
<!-- Node4&#45;&gt;Node3 -->
<g id="edge5" class="edge"><title>Node4&#45;&gt;Node3</title>
<path fill="none" stroke="midnightblue" d="M1295.98,-68.4146C1292.96,-67.924 1289.98,-67.4501 1287.05,-67 1169.52,-48.9439 1031.84,-32.6145 952.501,-23.6706"/>
<polygon fill="midnightblue" stroke="midnightblue" points="952.502,-20.1489 942.174,-22.5111 951.721,-27.1052 952.502,-20.1489"/>
</g>
<!-- Node5&#45;&gt;Node2 -->
<g id="edge7" class="edge"><title>Node5&#45;&gt;Node2</title>
<path fill="none" stroke="midnightblue" d="M1456.01,-68.1624C1452.99,-67.7408 1449.99,-67.3503 1447.05,-67 1171.2,-34.1677 1099.35,-59.7746 823.047,-31 811.259,-29.7724 798.704,-28.1253 786.693,-26.3817"/>
<polygon fill="midnightblue" stroke="midnightblue" points="787.168,-22.9138 776.761,-24.9015 786.136,-29.8374 787.168,-22.9138"/>
</g>
<!-- Node5&#45;&gt;Node3 -->
<g id="edge8" class="edge"><title>Node5&#45;&gt;Node3</title>
<path fill="none" stroke="midnightblue" d="M1456,-68.2824C1452.98,-67.828 1449.98,-67.3978 1447.05,-67 1268.71,-42.8461 1056.8,-27.2907 952.167,-20.4762"/>
<polygon fill="midnightblue" stroke="midnightblue" points="952.281,-16.9763 942.076,-19.8245 951.83,-23.9618 952.281,-16.9763"/>
</g>
<!-- Node6&#45;&gt;Node2 -->
<g id="edge10" class="edge"><title>Node6&#45;&gt;Node2</title>
<path fill="none" stroke="midnightblue" d="M158.094,-68.2824C161.116,-67.828 164.109,-67.3978 167.047,-67 348.479,-42.4271 564.653,-26.7537 667.274,-20.1295"/>
<polygon fill="midnightblue" stroke="midnightblue" points="667.683,-23.6105 677.439,-19.479 667.236,-16.6248 667.683,-23.6105"/>
</g>
<!-- Node6&#45;&gt;Node3 -->
<g id="edge11" class="edge"><title>Node6&#45;&gt;Node3</title>
<path fill="none" stroke="midnightblue" d="M158.079,-68.1644C161.105,-67.7423 164.104,-67.3512 167.047,-67 440.242,-34.4061 511.281,-58.3849 785.047,-31 796.935,-29.8108 809.564,-28.255 821.737,-26.6049"/>
<polygon fill="midnightblue" stroke="midnightblue" points="822.406,-30.0456 831.829,-25.2026 821.443,-23.1122 822.406,-30.0456"/>
</g>
<!-- Node7&#45;&gt;Node2 -->
<g id="edge13" class="edge"><title>Node7&#45;&gt;Node2</title>
<path fill="none" stroke="midnightblue" d="M318.114,-68.4146C321.13,-67.924 324.117,-67.4501 327.047,-67 447.386,-48.5116 588.858,-31.8335 667.191,-23.041"/>
<polygon fill="midnightblue" stroke="midnightblue" points="667.803,-26.4944 677.352,-21.9049 667.025,-19.5378 667.803,-26.4944"/>
</g>
<!-- Node7&#45;&gt;Node3 -->
<g id="edge14" class="edge"><title>Node7&#45;&gt;Node3</title>
<path fill="none" stroke="midnightblue" d="M318.089,-68.2397C321.112,-67.797 324.107,-67.3809 327.047,-67 529.537,-40.7592 582.094,-53.3796 785.047,-31 796.922,-29.6905 809.545,-28.0772 821.716,-26.4077"/>
<polygon fill="midnightblue" stroke="midnightblue" points="822.388,-29.8479 831.808,-24.9976 821.42,-22.9152 822.388,-29.8479"/>
</g>
<!-- Node8&#45;&gt;Node2 -->
<g id="edge16" class="edge"><title>Node8&#45;&gt;Node2</title>
<path fill="none" stroke="midnightblue" d="M476.088,-67.476C535.811,-55.3449 620.851,-38.0709 674.992,-27.0737"/>
<polygon fill="midnightblue" stroke="midnightblue" points="675.956,-30.4493 685.06,-25.0287 674.563,-23.5894 675.956,-30.4493"/>
</g>
<!-- Node8&#45;&gt;Node3 -->
<g id="edge17" class="edge"><title>Node8&#45;&gt;Node3</title>
<path fill="none" stroke="midnightblue" d="M478.111,-68.3948C481.127,-67.9095 484.116,-67.4423 487.047,-67 618.961,-47.0951 652.778,-48.389 785.047,-31 796.962,-29.4336 809.648,-27.6906 821.881,-25.9717"/>
<polygon fill="midnightblue" stroke="midnightblue" points="822.611,-29.4034 832.022,-24.5378 821.631,-22.4723 822.611,-29.4034"/>
</g>
<!-- Node9&#45;&gt;Node2 -->
<g id="edge19" class="edge"><title>Node9&#45;&gt;Node2</title>
<path fill="none" stroke="midnightblue" d="M601.764,-67.396C630.087,-55.8901 669.699,-39.7974 696.752,-28.8072"/>
<polygon fill="midnightblue" stroke="midnightblue" points="698.159,-32.0135 706.107,-25.007 695.524,-25.5282 698.159,-32.0135"/>
</g>
<!-- Node9&#45;&gt;Node3 -->
<g id="edge20" class="edge"><title>Node9&#45;&gt;Node3</title>
<path fill="none" stroke="midnightblue" d="M636.088,-67.476C691.265,-56.2683 768.052,-40.6709 822.116,-29.689"/>
<polygon fill="midnightblue" stroke="midnightblue" points="822.833,-33.1149 831.937,-27.6943 821.44,-26.255 822.833,-33.1149"/>
</g>
<!-- Node10&#45;&gt;Node2 -->
<g id="edge22" class="edge"><title>Node10&#45;&gt;Node2</title>
<path fill="none" stroke="midnightblue" d="M727.047,-67.396C727.047,-58.0638 727.047,-45.7143 727.047,-35.5173"/>
<polygon fill="midnightblue" stroke="midnightblue" points="730.547,-35.1945 727.047,-25.1945 723.547,-35.1946 730.547,-35.1945"/>
</g>
<!-- Node10&#45;&gt;Node3 -->
<g id="edge23" class="edge"><title>Node10&#45;&gt;Node3</title>
<path fill="none" stroke="midnightblue" d="M761.764,-67.396C785.562,-57.7284 817.33,-44.8226 842.921,-34.4262"/>
<polygon fill="midnightblue" stroke="midnightblue" points="844.45,-37.583 852.397,-30.5765 841.815,-31.0977 844.45,-37.583"/>
</g>
<!-- Node11&#45;&gt;Node2 -->
<g id="edge25" class="edge"><title>Node11&#45;&gt;Node2</title>
<path fill="none" stroke="midnightblue" d="M852.329,-67.396C824.007,-55.8901 784.394,-39.7974 757.342,-28.8072"/>
<polygon fill="midnightblue" stroke="midnightblue" points="758.569,-25.5282 747.987,-25.007 755.934,-32.0135 758.569,-25.5282"/>
</g>
<!-- Node11&#45;&gt;Node3 -->
<g id="edge26" class="edge"><title>Node11&#45;&gt;Node3</title>
<path fill="none" stroke="midnightblue" d="M887.047,-67.396C887.047,-59.6448 887.047,-49.8122 887.047,-40.8601"/>
<polygon fill="midnightblue" stroke="midnightblue" points="890.547,-40.5765 887.047,-30.5765 883.547,-40.5765 890.547,-40.5765"/>
</g>
<!-- Node12&#45;&gt;Node2 -->
<g id="edge28" class="edge"><title>Node12&#45;&gt;Node2</title>
<path fill="none" stroke="midnightblue" d="M978.006,-67.476C918.283,-55.3449 833.242,-38.0709 779.102,-27.0737"/>
<polygon fill="midnightblue" stroke="midnightblue" points="779.531,-23.5894 769.034,-25.0287 778.137,-30.4493 779.531,-23.5894"/>
</g>
<!-- Node12&#45;&gt;Node3 -->
<g id="edge29" class="edge"><title>Node12&#45;&gt;Node3</title>
<path fill="none" stroke="midnightblue" d="M1012.33,-67.396C988.532,-57.7284 956.764,-44.8226 931.173,-34.4262"/>
<polygon fill="midnightblue" stroke="midnightblue" points="932.279,-31.0977 921.697,-30.5765 929.644,-37.583 932.279,-31.0977"/>
</g>
<!-- Node13&#45;&gt;Node2 -->
<g id="edge31" class="edge"><title>Node13&#45;&gt;Node2</title>
<path fill="none" stroke="midnightblue" d="M1135.98,-68.3861C1132.97,-67.9032 1129.98,-67.4388 1127.05,-67 992.491,-46.8582 957.884,-49.1621 823.047,-31 811.301,-29.4179 798.766,-27.6111 786.76,-25.8222"/>
<polygon fill="midnightblue" stroke="midnightblue" points="787.239,-22.3549 776.829,-24.3292 786.198,-29.2771 787.239,-22.3549"/>
</g>
<!-- Node13&#45;&gt;Node3 -->
<g id="edge32" class="edge"><title>Node13&#45;&gt;Node3</title>
<path fill="none" stroke="midnightblue" d="M1138.01,-67.476C1082.83,-56.2683 1006.04,-40.6709 951.977,-29.689"/>
<polygon fill="midnightblue" stroke="midnightblue" points="952.654,-26.255 942.157,-27.6943 951.26,-33.1149 952.654,-26.255"/>
</g>
</g>
</svg>
        <g id="navigator" transform="translate(0 0)" fill="#404254">
                <rect fill="#f2f5e9" fill-opacity="0.5" stroke="#606060" stroke-width=".5" x="0" y="0" width="60" height="60"/>
                <use id="zoomplus" xlink:href="#zoomPlus" x="17" y="9" onmousedown="handleZoom(evt,'in')"/>
                <use id="zoomminus" xlink:href="#zoomMin" x="42" y="9" onmousedown="handleZoom(evt,'out')"/>
                <use id="reset" xlink:href="#resetDef" x="30" y="36" onmousedown="handleReset()"/>
                <g id="arrowUp" xlink:href="#dirArrow" transform="translate(30 24)" onmousedown="handlePan(0,-1)">
                  <use xlink:href="#rim" fill="#404040">
                        <set attributeName="fill" to="#808080" begin="arrowUp.mouseover" end="arrowUp.mouseout"/>
                  </use>
                  <path fill="none" stroke="white" stroke-width="1.5" d="M0,-3.0v7 M-2.5,-0.5L0,-3.0L2.5,-0.5"/>
                </g>
                <g id="arrowRight" xlink:href="#dirArrow" transform="rotate(90) translate(36 -43)" onmousedown="handlePan(1,0)">
                  <use xlink:href="#rim" fill="#404040">
                        <set attributeName="fill" to="#808080" begin="arrowRight.mouseover" end="arrowRight.mouseout"/>
                  </use>
                  <path fill="none" stroke="white" stroke-width="1.5" d="M0,-3.0v7 M-2.5,-0.5L0,-3.0L2.5,-0.5"/>
                </g>
                <g id="arrowDown" xlink:href="#dirArrow" transform="rotate(180) translate(-30 -48)" onmousedown="handlePan(0,1)">
                  <use xlink:href="#rim" fill="#404040">
                        <set attributeName="fill" to="#808080" begin="arrowDown.mouseover" end="arrowDown.mouseout"/>
                  </use>
                  <path fill="none" stroke="white" stroke-width="1.5" d="M0,-3.0v7 M-2.5,-0.5L0,-3.0L2.5,-0.5"/>
                </g>
                <g id="arrowLeft" xlink:href="#dirArrow" transform="rotate(270) translate(-36 17)" onmousedown="handlePan(-1,0)">
                  <use xlink:href="#rim" fill="#404040">
                        <set attributeName="fill" to="#808080" begin="arrowLeft.mouseover" end="arrowLeft.mouseout"/>
                  </use>
                  <path fill="none" stroke="white" stroke-width="1.5" d="M0,-3.0v7 M-2.5,-0.5L0,-3.0L2.5,-0.5"/>
                </g>
        </g>
        <svg viewBox="0 0 15 15" width="100%" height="30px" preserveAspectRatio="xMaxYMin meet">
         <g id="arrow_out" transform="scale(0.3 0.3)">
          <a xlink:href="_dwarf_elephant_r_b_structures_t3_f2_o1_steady_state_8h__incl_org.svg" target="_base">
           <rect id="button" ry="5" rx="5" y="6" x="6" height="38" width="38"
                fill="#f2f5e9" fill-opacity="0.5" stroke="#606060" stroke-width="1.0"/>
           <path id="arrow"
             d="M 11.500037,31.436501 C 11.940474,20.09759 22.043105,11.32322 32.158766,21.979434 L 37.068811,17.246167 C 37.068811,17.246167 37.088388,32 37.088388,32 L 22.160133,31.978069 C 22.160133,31.978069 26.997745,27.140456 26.997745,27.140456 C 18.528582,18.264221 13.291696,25.230495 11.500037,31.436501 z"
             style="fill:#404040;"/>
          </a>
         </g>
        </svg>
</svg>
