<?xml version="1.0" encoding="UTF-8" standalone="no"?>
<!DOCTYPE svg PUBLIC "-//W3C//DTD SVG 1.1//EN"
 "http://www.w3.org/Graphics/SVG/1.1/DTD/svg11.dtd">
<!-- Generated by graphviz version 2.38.0 (20140413.2041)
 -->
<!-- Title: src/vectorpostprocessors/DwarfElephantFEFilePointValues.C Pages: 1 -->
<svg width="651pt" height="162pt"
 viewBox="0.00 0.00 650.50 162.00" xmlns="http://www.w3.org/2000/svg" xmlns:xlink="http://www.w3.org/1999/xlink">
<g id="graph0" class="graph" transform="scale(1 1) rotate(0) translate(4 158)">
<title>src/vectorpostprocessors/DwarfElephantFEFilePointValues.C</title>
<polygon fill="white" stroke="none" points="-4,4 -4,-158 646.5,-158 646.5,4 -4,4"/>
<!-- Node1 -->
<g id="node1" class="node"><title>Node1</title>
<polygon fill="#bfbfbf" stroke="black" points="246,-123.5 246,-153.5 423,-153.5 423,-123.5 246,-123.5"/>
<text text-anchor="start" x="254" y="-141.5" font-family="Helvetica,sans-Serif" font-size="10.00">src/vectorpostprocessors</text>
<text text-anchor="middle" x="334.5" y="-130.5" font-family="Helvetica,sans-Serif" font-size="10.00">/DwarfElephantFEFilePointValues.C</text>
</g>
<!-- Node2 -->
<g id="node2" class="node"><title>Node2</title>
<g id="a_node2"><a xlink:href="_dwarf_elephant_f_e_file_point_values_8h.html" target="_top" xlink:title="DwarfElephantFEFilePoint\lValues.h">
<polygon fill="white" stroke="black" points="9.5,-56.5 9.5,-86.5 143.5,-86.5 143.5,-56.5 9.5,-56.5"/>
<text text-anchor="start" x="17.5" y="-74.5" font-family="Helvetica,sans-Serif" font-size="10.00">DwarfElephantFEFilePoint</text>
<text text-anchor="middle" x="76.5" y="-63.5" font-family="Helvetica,sans-Serif" font-size="10.00">Values.h</text>
</a>
</g>
</g>
<!-- Node1&#45;&gt;Node2 -->
<g id="edge1" class="edge"><title>Node1&#45;&gt;Node2</title>
<path fill="none" stroke="midnightblue" d="M278.835,-123.476C238.791,-113.387 184.627,-99.7413 142.417,-89.1071"/>
<polygon fill="midnightblue" stroke="midnightblue" points="143.062,-85.6601 132.509,-86.6109 141.351,-92.448 143.062,-85.6601"/>
</g>
<!-- Node4 -->
<g id="node4" class="node"><title>Node4</title>
<polygon fill="white" stroke="#bfbfbf" points="162,-62 162,-81 225,-81 225,-62 162,-62"/>
<text text-anchor="middle" x="193.5" y="-69" font-family="Helvetica,sans-Serif" font-size="10.00">Function.h</text>
</g>
<!-- Node1&#45;&gt;Node4 -->
<g id="edge3" class="edge"><title>Node1&#45;&gt;Node4</title>
<path fill="none" stroke="midnightblue" d="M303.905,-123.396C279.275,-112.041 244.954,-96.2201 221.144,-85.2437"/>
<polygon fill="midnightblue" stroke="midnightblue" points="222.5,-82.015 211.954,-81.007 219.57,-88.3721 222.5,-82.015"/>
</g>
<!-- Node5 -->
<g id="node5" class="node"><title>Node5</title>
<polygon fill="white" stroke="#bfbfbf" points="243,-62 243,-81 322,-81 322,-62 243,-62"/>
<text text-anchor="middle" x="282.5" y="-69" font-family="Helvetica,sans-Serif" font-size="10.00">MooseMesh.h</text>
</g>
<!-- Node1&#45;&gt;Node5 -->
<g id="edge4" class="edge"><title>Node1&#45;&gt;Node5</title>
<path fill="none" stroke="midnightblue" d="M323.217,-123.396C315.189,-113.361 304.371,-99.8382 295.903,-89.2535"/>
<polygon fill="midnightblue" stroke="midnightblue" points="298.436,-86.8168 289.456,-81.1945 292.97,-91.1897 298.436,-86.8168"/>
</g>
<!-- Node6 -->
<g id="node6" class="node"><title>Node6</title>
<polygon fill="white" stroke="#bfbfbf" points="340.5,-62 340.5,-81 432.5,-81 432.5,-62 340.5,-62"/>
<text text-anchor="middle" x="386.5" y="-69" font-family="Helvetica,sans-Serif" font-size="10.00">MooseVariable.h</text>
</g>
<!-- Node1&#45;&gt;Node6 -->
<g id="edge5" class="edge"><title>Node1&#45;&gt;Node6</title>
<path fill="none" stroke="midnightblue" d="M345.783,-123.396C353.811,-113.361 364.629,-99.8382 373.097,-89.2535"/>
<polygon fill="midnightblue" stroke="midnightblue" points="376.03,-91.1897 379.544,-81.1945 370.564,-86.8168 376.03,-91.1897"/>
</g>
<!-- Node7 -->
<g id="node7" class="node"><title>Node7</title>
<polygon fill="white" stroke="#bfbfbf" points="450.5,-62 450.5,-81 530.5,-81 530.5,-62 450.5,-62"/>
<text text-anchor="middle" x="490.5" y="-69" font-family="Helvetica,sans-Serif" font-size="10.00">SubProblem.h</text>
</g>
<!-- Node1&#45;&gt;Node7 -->
<g id="edge6" class="edge"><title>Node1&#45;&gt;Node7</title>
<path fill="none" stroke="midnightblue" d="M368.35,-123.396C395.843,-111.941 434.248,-95.9385 460.615,-84.9521"/>
<polygon fill="midnightblue" stroke="midnightblue" points="462.199,-88.084 470.083,-81.007 459.506,-81.6224 462.199,-88.084"/>
</g>
<!-- Node8 -->
<g id="node8" class="node"><title>Node8</title>
<polygon fill="white" stroke="#bfbfbf" points="548.5,-62 548.5,-81 642.5,-81 642.5,-62 548.5,-62"/>
<text text-anchor="middle" x="595.5" y="-69" font-family="Helvetica,sans-Serif" font-size="10.00">libmesh/system.h</text>
</g>
<!-- Node1&#45;&gt;Node8 -->
<g id="edge7" class="edge"><title>Node1&#45;&gt;Node8</title>
<path fill="none" stroke="midnightblue" d="M392.423,-123.425C433.506,-113.394 489.925,-99.524 539.5,-87 543.834,-85.905 548.355,-84.7524 552.865,-83.5953"/>
<polygon fill="midnightblue" stroke="midnightblue" points="553.837,-86.9593 562.648,-81.0757 552.091,-80.1806 553.837,-86.9593"/>
</g>
<!-- Node3 -->
<g id="node3" class="node"><title>Node3</title>
<polygon fill="white" stroke="#bfbfbf" points="0,-0.5 0,-19.5 153,-19.5 153,-0.5 0,-0.5"/>
<text text-anchor="middle" x="76.5" y="-7.5" font-family="Helvetica,sans-Serif" font-size="10.00">GeneralVectorPostprocessor.h</text>
</g>
<!-- Node2&#45;&gt;Node3 -->
<g id="edge2" class="edge"><title>Node2&#45;&gt;Node3</title>
<path fill="none" stroke="midnightblue" d="M76.5,-56.3993C76.5,-48.4664 76.5,-38.458 76.5,-29.8583"/>
<polygon fill="midnightblue" stroke="midnightblue" points="80.0001,-29.6577 76.5,-19.6578 73.0001,-29.6578 80.0001,-29.6577"/>
</g>
</g>
</svg>
