<?xml version="1.0" encoding="UTF-8" standalone="no"?>
<!DOCTYPE svg PUBLIC "-//W3C//DTD SVG 1.1//EN"
 "http://www.w3.org/Graphics/SVG/1.1/DTD/svg11.dtd">
<!-- Generated by graphviz version 2.38.0 (20140413.2041)
 -->
<!-- Title: include/userobjects/DwarfElephantRBStructuresT3F1O1M1Transient.h Pages: 1 -->
<svg width="898pt" height="184pt"
 viewBox="0.00 0.00 897.50 184.00" xmlns="http://www.w3.org/2000/svg" xmlns:xlink="http://www.w3.org/1999/xlink">
<g id="graph0" class="graph" transform="scale(1 1) rotate(0) translate(4 180)">
<title>include/userobjects/DwarfElephantRBStructuresT3F1O1M1Transient.h</title>
<polygon fill="white" stroke="none" points="-4,4 -4,-180 893.5,-180 893.5,4 -4,4"/>
<!-- Node1 -->
<g id="node1" class="node"><title>Node1</title>
<polygon fill="#bfbfbf" stroke="black" points="346.5,-134.5 346.5,-175.5 490.5,-175.5 490.5,-134.5 346.5,-134.5"/>
<text text-anchor="start" x="354.5" y="-163.5" font-family="Helvetica,sans-Serif" font-size="10.00">include/userobjects</text>
<text text-anchor="start" x="354.5" y="-152.5" font-family="Helvetica,sans-Serif" font-size="10.00">/DwarfElephantRBStructures</text>
<text text-anchor="middle" x="418.5" y="-141.5" font-family="Helvetica,sans-Serif" font-size="10.00">T3F1O1M1Transient.h</text>
</g>
<!-- Node2 -->
<g id="node2" class="node"><title>Node2</title>
<polygon fill="white" stroke="#bfbfbf" points="0,-67.5 0,-97.5 107,-97.5 107,-67.5 0,-67.5"/>
<text text-anchor="start" x="8" y="-85.5" font-family="Helvetica,sans-Serif" font-size="10.00">libmesh/transient_rb</text>
<text text-anchor="middle" x="53.5" y="-74.5" font-family="Helvetica,sans-Serif" font-size="10.00">_theta_expansion.h</text>
</g>
<!-- Node1&#45;&gt;Node2 -->
<g id="edge1" class="edge"><title>Node1&#45;&gt;Node2</title>
<path fill="none" stroke="midnightblue" d="M346.327,-141.514C287.372,-131.108 201.646,-115.509 117.115,-98.076"/>
<polygon fill="midnightblue" stroke="midnightblue" points="117.584,-94.5989 107.082,-95.9968 116.164,-101.453 117.584,-94.5989"/>
</g>
<!-- Node3 -->
<g id="node3" class="node"><title>Node3</title>
<polygon fill="white" stroke="#bfbfbf" points="125.5,-67.5 125.5,-97.5 249.5,-97.5 249.5,-67.5 125.5,-67.5"/>
<text text-anchor="start" x="133.5" y="-85.5" font-family="Helvetica,sans-Serif" font-size="10.00">libmesh/transient_rb</text>
<text text-anchor="middle" x="187.5" y="-74.5" font-family="Helvetica,sans-Serif" font-size="10.00">_assembly_expansion.h</text>
</g>
<!-- Node1&#45;&gt;Node3 -->
<g id="edge2" class="edge"><title>Node1&#45;&gt;Node3</title>
<path fill="none" stroke="midnightblue" d="M354.46,-134.455C319.582,-123.811 276.835,-110.765 243.326,-100.538"/>
<polygon fill="midnightblue" stroke="midnightblue" points="244.276,-97.1683 233.689,-97.5968 242.232,-103.863 244.276,-97.1683"/>
</g>
<!-- Node4 -->
<g id="node4" class="node"><title>Node4</title>
<g id="a_node4"><a xlink:href="_dwarf_elephant_r_b_structures_a00_theta_constant_8h.html" target="_top" xlink:title="DwarfElephantRBStructures\lA00ThetaConstant.h">
<polygon fill="white" stroke="black" points="267.5,-67.5 267.5,-97.5 409.5,-97.5 409.5,-67.5 267.5,-67.5"/>
<text text-anchor="start" x="275.5" y="-85.5" font-family="Helvetica,sans-Serif" font-size="10.00">DwarfElephantRBStructures</text>
<text text-anchor="middle" x="338.5" y="-74.5" font-family="Helvetica,sans-Serif" font-size="10.00">A00ThetaConstant.h</text>
</a>
</g>
</g>
<!-- Node1&#45;&gt;Node4 -->
<g id="edge3" class="edge"><title>Node1&#45;&gt;Node4</title>
<path fill="none" stroke="midnightblue" d="M396.216,-134.362C385.679,-125.076 373.087,-113.979 362.357,-104.524"/>
<polygon fill="midnightblue" stroke="midnightblue" points="364.396,-101.656 354.579,-97.67 359.768,-106.907 364.396,-101.656"/>
</g>
<!-- Node7 -->
<g id="node7" class="node"><title>Node7</title>
<g id="a_node7"><a xlink:href="_dwarf_elephant_r_b_structures_a0_theta_equal_mu0_8h.html" target="_top" xlink:title="DwarfElephantRBStructures\lA0ThetaEqualMu0.h">
<polygon fill="white" stroke="black" points="427.5,-67.5 427.5,-97.5 569.5,-97.5 569.5,-67.5 427.5,-67.5"/>
<text text-anchor="start" x="435.5" y="-85.5" font-family="Helvetica,sans-Serif" font-size="10.00">DwarfElephantRBStructures</text>
<text text-anchor="middle" x="498.5" y="-74.5" font-family="Helvetica,sans-Serif" font-size="10.00">A0ThetaEqualMu0.h</text>
</a>
</g>
</g>
<!-- Node1&#45;&gt;Node7 -->
<g id="edge6" class="edge"><title>Node1&#45;&gt;Node7</title>
<path fill="none" stroke="midnightblue" d="M440.784,-134.362C451.321,-125.076 463.913,-113.979 474.643,-104.524"/>
<polygon fill="midnightblue" stroke="midnightblue" points="477.232,-106.907 482.421,-97.67 472.604,-101.656 477.232,-106.907"/>
</g>
<!-- Node8 -->
<g id="node8" class="node"><title>Node8</title>
<g id="a_node8"><a xlink:href="_dwarf_elephant_r_b_structures_a1_theta_equal_mu1_8h.html" target="_top" xlink:title="DwarfElephantRBStructures\lA1ThetaEqualMu1.h">
<polygon fill="white" stroke="black" points="587.5,-67.5 587.5,-97.5 729.5,-97.5 729.5,-67.5 587.5,-67.5"/>
<text text-anchor="start" x="595.5" y="-85.5" font-family="Helvetica,sans-Serif" font-size="10.00">DwarfElephantRBStructures</text>
<text text-anchor="middle" x="658.5" y="-74.5" font-family="Helvetica,sans-Serif" font-size="10.00">A1ThetaEqualMu1.h</text>
</a>
</g>
</g>
<!-- Node1&#45;&gt;Node8 -->
<g id="edge9" class="edge"><title>Node1&#45;&gt;Node8</title>
<path fill="none" stroke="midnightblue" d="M485.035,-134.455C521.271,-123.811 565.684,-110.765 600.499,-100.538"/>
<polygon fill="midnightblue" stroke="midnightblue" points="601.903,-103.773 610.511,-97.5968 599.93,-97.0572 601.903,-103.773"/>
</g>
<!-- Node9 -->
<g id="node9" class="node"><title>Node9</title>
<g id="a_node9"><a xlink:href="_dwarf_elephant_r_b_structures_a2_theta_equal_mu2_8h.html" target="_top" xlink:title="DwarfElephantRBStructures\lA2ThetaEqualMu2.h">
<polygon fill="white" stroke="black" points="747.5,-67.5 747.5,-97.5 889.5,-97.5 889.5,-67.5 747.5,-67.5"/>
<text text-anchor="start" x="755.5" y="-85.5" font-family="Helvetica,sans-Serif" font-size="10.00">DwarfElephantRBStructures</text>
<text text-anchor="middle" x="818.5" y="-74.5" font-family="Helvetica,sans-Serif" font-size="10.00">A2ThetaEqualMu2.h</text>
</a>
</g>
</g>
<!-- Node1&#45;&gt;Node9 -->
<g id="edge12" class="edge"><title>Node1&#45;&gt;Node9</title>
<path fill="none" stroke="midnightblue" d="M490.646,-141.503C553.236,-130.631 646.565,-114.351 737.477,-98.1766"/>
<polygon fill="midnightblue" stroke="midnightblue" points="738.172,-101.608 747.404,-96.4092 736.945,-94.7163 738.172,-101.608"/>
</g>
<!-- Node5 -->
<g id="node5" class="node"><title>Node5</title>
<polygon fill="white" stroke="#bfbfbf" points="458,-6 458,-25 557,-25 557,-6 458,-6"/>
<text text-anchor="middle" x="507.5" y="-13" font-family="Helvetica,sans-Serif" font-size="10.00">libmesh/rb_theta.h</text>
</g>
<!-- Node4&#45;&gt;Node5 -->
<g id="edge4" class="edge"><title>Node4&#45;&gt;Node5</title>
<path fill="none" stroke="midnightblue" d="M375.17,-67.396C405.217,-55.8396 447.294,-39.6562 475.876,-28.6629"/>
<polygon fill="midnightblue" stroke="midnightblue" points="477.305,-31.8636 485.382,-25.007 474.792,-25.3301 477.305,-31.8636"/>
</g>
<!-- Node6 -->
<g id="node6" class="node"><title>Node6</title>
<polygon fill="white" stroke="#bfbfbf" points="593.5,-0.5 593.5,-30.5 703.5,-30.5 703.5,-0.5 593.5,-0.5"/>
<text text-anchor="start" x="601.5" y="-18.5" font-family="Helvetica,sans-Serif" font-size="10.00">libmesh/rb_assembly</text>
<text text-anchor="middle" x="648.5" y="-7.5" font-family="Helvetica,sans-Serif" font-size="10.00">_expansion.h</text>
</g>
<!-- Node4&#45;&gt;Node6 -->
<g id="edge5" class="edge"><title>Node4&#45;&gt;Node6</title>
<path fill="none" stroke="midnightblue" d="M405.384,-67.476C458.14,-56.4142 531.29,-41.0764 583.541,-30.1204"/>
<polygon fill="midnightblue" stroke="midnightblue" points="584.303,-33.5368 593.372,-28.059 582.867,-26.6857 584.303,-33.5368"/>
</g>
<!-- Node7&#45;&gt;Node5 -->
<g id="edge7" class="edge"><title>Node7&#45;&gt;Node5</title>
<path fill="none" stroke="midnightblue" d="M500.453,-67.396C501.759,-57.9635 503.492,-45.4484 504.912,-35.1891"/>
<polygon fill="midnightblue" stroke="midnightblue" points="508.391,-35.5801 506.296,-25.1945 501.458,-34.62 508.391,-35.5801"/>
</g>
<!-- Node7&#45;&gt;Node6 -->
<g id="edge8" class="edge"><title>Node7&#45;&gt;Node6</title>
<path fill="none" stroke="midnightblue" d="M531.048,-67.396C553.259,-57.7709 582.878,-44.9362 606.814,-34.5637"/>
<polygon fill="midnightblue" stroke="midnightblue" points="608.232,-37.7641 616.016,-30.5765 605.449,-31.3412 608.232,-37.7641"/>
</g>
<!-- Node8&#45;&gt;Node5 -->
<g id="edge10" class="edge"><title>Node8&#45;&gt;Node5</title>
<path fill="none" stroke="midnightblue" d="M625.735,-67.396C599.241,-55.991 562.277,-40.0794 536.765,-29.0976"/>
<polygon fill="midnightblue" stroke="midnightblue" points="537.831,-25.7461 527.262,-25.007 535.064,-32.1757 537.831,-25.7461"/>
</g>
<!-- Node8&#45;&gt;Node6 -->
<g id="edge11" class="edge"><title>Node8&#45;&gt;Node6</title>
<path fill="none" stroke="midnightblue" d="M656.33,-67.396C655.125,-59.5597 653.592,-49.5958 652.202,-40.5653"/>
<polygon fill="midnightblue" stroke="midnightblue" points="655.646,-39.928 650.666,-30.5765 648.727,-40.9925 655.646,-39.928"/>
</g>
<!-- Node9&#45;&gt;Node5 -->
<g id="edge13" class="edge"><title>Node9&#45;&gt;Node5</title>
<path fill="none" stroke="midnightblue" d="M751.401,-67.476C693.478,-55.3701 611.052,-38.1427 558.42,-27.1424"/>
<polygon fill="midnightblue" stroke="midnightblue" points="558.811,-23.6486 548.306,-25.0287 557.379,-30.5005 558.811,-23.6486"/>
</g>
<!-- Node9&#45;&gt;Node6 -->
<g id="edge14" class="edge"><title>Node9&#45;&gt;Node6</title>
<path fill="none" stroke="midnightblue" d="M781.613,-67.396C756.105,-57.6432 721.979,-44.5949 694.667,-34.152"/>
<polygon fill="midnightblue" stroke="midnightblue" points="695.906,-30.8788 685.315,-30.5765 693.406,-37.4171 695.906,-30.8788"/>
</g>
</g>
</svg>
