<?xml version="1.0" encoding="UTF-8" standalone="no"?>
<!DOCTYPE svg PUBLIC "-//W3C//DTD SVG 1.1//EN"
 "http://www.w3.org/Graphics/SVG/1.1/DTD/svg11.dtd">
<!-- Generated by graphviz version 2.38.0 (20140413.2041)
 -->
<!-- Title: src/userobjects/DwarfElephantRBNodalVariableValue.C Pages: 1 -->
<svg width="575pt" height="162pt"
 viewBox="0.00 0.00 574.50 162.00" xmlns="http://www.w3.org/2000/svg" xmlns:xlink="http://www.w3.org/1999/xlink">
<g id="graph0" class="graph" transform="scale(1 1) rotate(0) translate(4 158)">
<title>src/userobjects/DwarfElephantRBNodalVariableValue.C</title>
<polygon fill="white" stroke="none" points="-4,4 -4,-158 570.5,-158 570.5,4 -4,4"/>
<!-- Node1 -->
<g id="node1" class="node"><title>Node1</title>
<polygon fill="#bfbfbf" stroke="black" points="244.5,-123.5 244.5,-153.5 396.5,-153.5 396.5,-123.5 244.5,-123.5"/>
<text text-anchor="start" x="252.5" y="-141.5" font-family="Helvetica,sans-Serif" font-size="10.00">src/userobjects/DwarfElephant</text>
<text text-anchor="middle" x="320.5" y="-130.5" font-family="Helvetica,sans-Serif" font-size="10.00">RBNodalVariableValue.C</text>
</g>
<!-- Node2 -->
<g id="node2" class="node"><title>Node2</title>
<g id="a_node2"><a xlink:href="_dwarf_elephant_r_b_nodal_variable_value_8h.html" target="_top" xlink:title="DwarfElephantRBNodalVariable\lValue.h">
<polygon fill="white" stroke="black" points="0,-56.5 0,-86.5 159,-86.5 159,-56.5 0,-56.5"/>
<text text-anchor="start" x="8" y="-74.5" font-family="Helvetica,sans-Serif" font-size="10.00">DwarfElephantRBNodalVariable</text>
<text text-anchor="middle" x="79.5" y="-63.5" font-family="Helvetica,sans-Serif" font-size="10.00">Value.h</text>
</a>
</g>
</g>
<!-- Node1&#45;&gt;Node2 -->
<g id="edge1" class="edge"><title>Node1&#45;&gt;Node2</title>
<path fill="none" stroke="midnightblue" d="M268.503,-123.476C231.255,-113.43 180.929,-99.8564 141.574,-89.2418"/>
<polygon fill="midnightblue" stroke="midnightblue" points="142.385,-85.8358 131.819,-86.6109 140.562,-92.5943 142.385,-85.8358"/>
</g>
<!-- Node4 -->
<g id="node4" class="node"><title>Node4</title>
<polygon fill="white" stroke="#bfbfbf" points="177,-62 177,-81 256,-81 256,-62 177,-62"/>
<text text-anchor="middle" x="216.5" y="-69" font-family="Helvetica,sans-Serif" font-size="10.00">MooseMesh.h</text>
</g>
<!-- Node1&#45;&gt;Node4 -->
<g id="edge3" class="edge"><title>Node1&#45;&gt;Node4</title>
<path fill="none" stroke="midnightblue" d="M297.934,-123.396C280.493,-112.496 256.466,-97.4787 239.034,-86.5835"/>
<polygon fill="midnightblue" stroke="midnightblue" points="240.446,-83.339 230.111,-81.007 236.736,-89.275 240.446,-83.339"/>
</g>
<!-- Node5 -->
<g id="node5" class="node"><title>Node5</title>
<polygon fill="white" stroke="#bfbfbf" points="274.5,-62 274.5,-81 366.5,-81 366.5,-62 274.5,-62"/>
<text text-anchor="middle" x="320.5" y="-69" font-family="Helvetica,sans-Serif" font-size="10.00">MooseVariable.h</text>
</g>
<!-- Node1&#45;&gt;Node5 -->
<g id="edge4" class="edge"><title>Node1&#45;&gt;Node5</title>
<path fill="none" stroke="midnightblue" d="M320.5,-123.396C320.5,-114.064 320.5,-101.714 320.5,-91.5173"/>
<polygon fill="midnightblue" stroke="midnightblue" points="324,-91.1945 320.5,-81.1945 317,-91.1946 324,-91.1945"/>
</g>
<!-- Node6 -->
<g id="node6" class="node"><title>Node6</title>
<polygon fill="white" stroke="#bfbfbf" points="384.5,-62 384.5,-81 464.5,-81 464.5,-62 384.5,-62"/>
<text text-anchor="middle" x="424.5" y="-69" font-family="Helvetica,sans-Serif" font-size="10.00">SubProblem.h</text>
</g>
<!-- Node1&#45;&gt;Node6 -->
<g id="edge5" class="edge"><title>Node1&#45;&gt;Node6</title>
<path fill="none" stroke="midnightblue" d="M343.066,-123.396C360.507,-112.496 384.534,-97.4787 401.966,-86.5835"/>
<polygon fill="midnightblue" stroke="midnightblue" points="404.264,-89.275 410.889,-81.007 400.554,-83.339 404.264,-89.275"/>
</g>
<!-- Node7 -->
<g id="node7" class="node"><title>Node7</title>
<polygon fill="white" stroke="#bfbfbf" points="482.5,-62 482.5,-81 566.5,-81 566.5,-62 482.5,-62"/>
<text text-anchor="middle" x="524.5" y="-69" font-family="Helvetica,sans-Serif" font-size="10.00">libmesh/node.h</text>
</g>
<!-- Node1&#45;&gt;Node7 -->
<g id="edge6" class="edge"><title>Node1&#45;&gt;Node7</title>
<path fill="none" stroke="midnightblue" d="M364.514,-123.476C401.4,-111.723 453.435,-95.1433 488.03,-84.1205"/>
<polygon fill="midnightblue" stroke="midnightblue" points="489.268,-87.3994 497.733,-81.0287 487.143,-80.7298 489.268,-87.3994"/>
</g>
<!-- Node3 -->
<g id="node3" class="node"><title>Node3</title>
<polygon fill="white" stroke="#bfbfbf" points="24.5,-0.5 24.5,-19.5 134.5,-19.5 134.5,-0.5 24.5,-0.5"/>
<text text-anchor="middle" x="79.5" y="-7.5" font-family="Helvetica,sans-Serif" font-size="10.00">GeneralUserObject.h</text>
</g>
<!-- Node2&#45;&gt;Node3 -->
<g id="edge2" class="edge"><title>Node2&#45;&gt;Node3</title>
<path fill="none" stroke="midnightblue" d="M79.5,-56.3993C79.5,-48.4664 79.5,-38.458 79.5,-29.8583"/>
<polygon fill="midnightblue" stroke="midnightblue" points="83.0001,-29.6577 79.5,-19.6578 76.0001,-29.6578 83.0001,-29.6577"/>
</g>
</g>
</svg>
