<?xml version="1.0" encoding="UTF-8" standalone="no"?>
<!DOCTYPE svg PUBLIC "-//W3C//DTD SVG 1.1//EN"
 "http://www.w3.org/Graphics/SVG/1.1/DTD/svg11.dtd">
<!-- Generated by graphviz version 2.38.0 (20140413.2041)
 -->
<!-- Title: include/bcs/DwarfElephantRBNeumannBCND.h Pages: 1 -->
<svg width="350pt" height="106pt"
 viewBox="0.00 0.00 350.00 106.00" xmlns="http://www.w3.org/2000/svg" xmlns:xlink="http://www.w3.org/1999/xlink">
<g id="graph0" class="graph" transform="scale(1 1) rotate(0) translate(4 102)">
<title>include/bcs/DwarfElephantRBNeumannBCND.h</title>
<polygon fill="white" stroke="none" points="-4,4 -4,-102 346,-102 346,4 -4,4"/>
<!-- Node1 -->
<g id="node1" class="node"><title>Node1</title>
<polygon fill="#bfbfbf" stroke="black" points="97.5,-67.5 97.5,-97.5 232.5,-97.5 232.5,-67.5 97.5,-67.5"/>
<text text-anchor="start" x="105.5" y="-85.5" font-family="Helvetica,sans-Serif" font-size="10.00">include/bcs/DwarfElephant</text>
<text text-anchor="middle" x="165" y="-74.5" font-family="Helvetica,sans-Serif" font-size="10.00">RBNeumannBCND.h</text>
</g>
<!-- Node2 -->
<g id="node2" class="node"><title>Node2</title>
<g id="a_node2"><a xlink:href="_dwarf_elephant_app_8_c.html" target="_top" xlink:title="src/base/DwarfElephantApp.C">
<polygon fill="white" stroke="black" points="0,-6 0,-25 150,-25 150,-6 0,-6"/>
<text text-anchor="middle" x="75" y="-13" font-family="Helvetica,sans-Serif" font-size="10.00">src/base/DwarfElephantApp.C</text>
</a>
</g>
</g>
<!-- Node1&#45;&gt;Node2 -->
<g id="edge1" class="edge"><title>Node1&#45;&gt;Node2</title>
<path fill="none" stroke="midnightblue" d="M137.039,-61.3056C120.138,-49.0999 99.4761,-34.1772 86.7789,-25.007"/>
<polygon fill="midnightblue" stroke="midnightblue" points="135.315,-64.3784 145.471,-67.396 139.414,-58.7036 135.315,-64.3784"/>
</g>
<!-- Node3 -->
<g id="node3" class="node"><title>Node3</title>
<g id="a_node3"><a xlink:href="_dwarf_elephant_r_b_neumann_b_c_n_d_8_c.html" target="_top" xlink:title="src/bcs/DwarfElephantRBNeumann\lBCND.C">
<polygon fill="white" stroke="black" points="168,-0.5 168,-30.5 342,-30.5 342,-0.5 168,-0.5"/>
<text text-anchor="start" x="176" y="-18.5" font-family="Helvetica,sans-Serif" font-size="10.00">src/bcs/DwarfElephantRBNeumann</text>
<text text-anchor="middle" x="255" y="-7.5" font-family="Helvetica,sans-Serif" font-size="10.00">BCND.C</text>
</a>
</g>
</g>
<!-- Node1&#45;&gt;Node3 -->
<g id="edge2" class="edge"><title>Node1&#45;&gt;Node3</title>
<path fill="none" stroke="midnightblue" d="M192.76,-61.4511C206.605,-51.4517 223.016,-39.5995 235.509,-30.5765"/>
<polygon fill="midnightblue" stroke="midnightblue" points="190.586,-58.7036 184.529,-67.396 194.685,-64.3784 190.586,-58.7036"/>
</g>
</g>
</svg>
