<?xml version="1.0" encoding="UTF-8" standalone="no"?>
<!DOCTYPE svg PUBLIC "-//W3C//DTD SVG 1.1//EN"
 "http://www.w3.org/Graphics/SVG/1.1/DTD/svg11.dtd">
<!-- Generated by graphviz version 2.38.0 (20140413.2041)
 -->
<!-- Title: include/userobjects/DwarfElephantRBStructuresT8F9O10SteadyState.h Pages: 1 -->
<svg width="2422pt" height="184pt"
 viewBox="0.00 0.00 2422.27 184.00" xmlns="http://www.w3.org/2000/svg" xmlns:xlink="http://www.w3.org/1999/xlink">
<g id="graph0" class="graph" transform="scale(1 1) rotate(0) translate(4 180)">
<title>include/userobjects/DwarfElephantRBStructuresT8F9O10SteadyState.h</title>
<polygon fill="white" stroke="none" points="-4,4 -4,-180 2418.27,-180 2418.27,4 -4,4"/>
<!-- Node1 -->
<g id="node1" class="node"><title>Node1</title>
<polygon fill="#bfbfbf" stroke="black" points="1135.13,-134.5 1135.13,-175.5 1279.13,-175.5 1279.13,-134.5 1135.13,-134.5"/>
<text text-anchor="start" x="1143.13" y="-163.5" font-family="Helvetica,sans-Serif" font-size="10.00">include/userobjects</text>
<text text-anchor="start" x="1143.13" y="-152.5" font-family="Helvetica,sans-Serif" font-size="10.00">/DwarfElephantRBStructures</text>
<text text-anchor="middle" x="1207.13" y="-141.5" font-family="Helvetica,sans-Serif" font-size="10.00">T8F9O10SteadyState.h</text>
</g>
<!-- Node2 -->
<g id="node2" class="node"><title>Node2</title>
<polygon fill="white" stroke="#bfbfbf" points="1015.63,-6 1015.63,-25 1114.63,-25 1114.63,-6 1015.63,-6"/>
<text text-anchor="middle" x="1065.13" y="-13" font-family="Helvetica,sans-Serif" font-size="10.00">libmesh/rb_theta.h</text>
</g>
<!-- Node1&#45;&gt;Node2 -->
<g id="edge1" class="edge"><title>Node1&#45;&gt;Node2</title>
<path fill="none" stroke="midnightblue" d="M1134.79,-153.346C881.259,-150.706 46.1917,-138.924 7.13278,-98 -2.3798,-88.0332 -2.3745,-76.9719 7.13278,-67 41.7584,-30.6822 786.661,-19.5819 1005.31,-17.1001"/>
<polygon fill="midnightblue" stroke="midnightblue" points="1005.66,-20.5965 1015.62,-16.9851 1005.58,-13.597 1005.66,-20.5965"/>
</g>
<!-- Node3 -->
<g id="node3" class="node"><title>Node3</title>
<polygon fill="white" stroke="#bfbfbf" points="1232.13,-0.5 1232.13,-30.5 1342.13,-30.5 1342.13,-0.5 1232.13,-0.5"/>
<text text-anchor="start" x="1240.13" y="-18.5" font-family="Helvetica,sans-Serif" font-size="10.00">libmesh/rb_assembly</text>
<text text-anchor="middle" x="1287.13" y="-7.5" font-family="Helvetica,sans-Serif" font-size="10.00">_expansion.h</text>
</g>
<!-- Node1&#45;&gt;Node3 -->
<g id="edge2" class="edge"><title>Node1&#45;&gt;Node3</title>
<path fill="none" stroke="midnightblue" d="M1279.48,-153.346C1533.01,-150.706 2368.07,-138.924 2407.13,-98 2416.65,-88.0332 2416.65,-76.9594 2407.13,-67 2370.54,-28.7231 1586.67,-19.0292 1352.58,-16.9835"/>
<polygon fill="midnightblue" stroke="midnightblue" points="1352.53,-13.4831 1342.5,-16.8973 1352.47,-20.4829 1352.53,-13.4831"/>
</g>
<!-- Node4 -->
<g id="node4" class="node"><title>Node4</title>
<g id="a_node4"><a xlink:href="_dwarf_elephant_r_b_structures_a00_theta_constant_8h.html" target="_top" xlink:title="DwarfElephantRBStructures\lA00ThetaConstant.h">
<polygon fill="white" stroke="black" points="496.133,-67.5 496.133,-97.5 638.133,-97.5 638.133,-67.5 496.133,-67.5"/>
<text text-anchor="start" x="504.133" y="-85.5" font-family="Helvetica,sans-Serif" font-size="10.00">DwarfElephantRBStructures</text>
<text text-anchor="middle" x="567.133" y="-74.5" font-family="Helvetica,sans-Serif" font-size="10.00">A00ThetaConstant.h</text>
</a>
</g>
</g>
<!-- Node1&#45;&gt;Node4 -->
<g id="edge3" class="edge"><title>Node1&#45;&gt;Node4</title>
<path fill="none" stroke="midnightblue" d="M1134.87,-148.624C1029.9,-140.405 828.966,-123.125 648.145,-98.0722"/>
<polygon fill="midnightblue" stroke="midnightblue" points="648.573,-94.5981 638.185,-96.6814 647.605,-101.531 648.573,-94.5981"/>
</g>
<!-- Node5 -->
<g id="node5" class="node"><title>Node5</title>
<g id="a_node5"><a xlink:href="_dwarf_elephant_r_b_structures_a0_theta_equal_mu0_8h.html" target="_top" xlink:title="DwarfElephantRBStructures\lA0ThetaEqualMu0.h">
<polygon fill="white" stroke="black" points="656.133,-67.5 656.133,-97.5 798.133,-97.5 798.133,-67.5 656.133,-67.5"/>
<text text-anchor="start" x="664.133" y="-85.5" font-family="Helvetica,sans-Serif" font-size="10.00">DwarfElephantRBStructures</text>
<text text-anchor="middle" x="727.133" y="-74.5" font-family="Helvetica,sans-Serif" font-size="10.00">A0ThetaEqualMu0.h</text>
</a>
</g>
</g>
<!-- Node1&#45;&gt;Node5 -->
<g id="edge6" class="edge"><title>Node1&#45;&gt;Node5</title>
<path fill="none" stroke="midnightblue" d="M1135.11,-144.803C1057.11,-134.643 928.798,-117.348 808.346,-98.1581"/>
<polygon fill="midnightblue" stroke="midnightblue" points="808.635,-94.6599 798.207,-96.5354 807.529,-101.572 808.635,-94.6599"/>
</g>
<!-- Node6 -->
<g id="node6" class="node"><title>Node6</title>
<g id="a_node6"><a xlink:href="_dwarf_elephant_r_b_structures_a0_theta_norm_mu0_8h.html" target="_top" xlink:title="DwarfElephantRBStructures\lA0ThetaNormMu0.h">
<polygon fill="white" stroke="black" points="816.133,-67.5 816.133,-97.5 958.133,-97.5 958.133,-67.5 816.133,-67.5"/>
<text text-anchor="start" x="824.133" y="-85.5" font-family="Helvetica,sans-Serif" font-size="10.00">DwarfElephantRBStructures</text>
<text text-anchor="middle" x="887.133" y="-74.5" font-family="Helvetica,sans-Serif" font-size="10.00">A0ThetaNormMu0.h</text>
</a>
</g>
</g>
<!-- Node1&#45;&gt;Node6 -->
<g id="edge9" class="edge"><title>Node1&#45;&gt;Node6</title>
<path fill="none" stroke="midnightblue" d="M1134.92,-138.091C1082.88,-126.626 1012.9,-111.207 960.576,-99.6806"/>
<polygon fill="midnightblue" stroke="midnightblue" points="961.209,-96.2361 950.69,-97.5025 959.703,-103.072 961.209,-96.2361"/>
</g>
<!-- Node7 -->
<g id="node7" class="node"><title>Node7</title>
<g id="a_node7"><a xlink:href="_dwarf_elephant_r_b_structures_a0_theta_norm_mu1_8h.html" target="_top" xlink:title="DwarfElephantRBStructures\lA0ThetaNormMu1.h">
<polygon fill="white" stroke="black" points="976.133,-67.5 976.133,-97.5 1118.13,-97.5 1118.13,-67.5 976.133,-67.5"/>
<text text-anchor="start" x="984.133" y="-85.5" font-family="Helvetica,sans-Serif" font-size="10.00">DwarfElephantRBStructures</text>
<text text-anchor="middle" x="1047.13" y="-74.5" font-family="Helvetica,sans-Serif" font-size="10.00">A0ThetaNormMu1.h</text>
</a>
</g>
</g>
<!-- Node1&#45;&gt;Node7 -->
<g id="edge12" class="edge"><title>Node1&#45;&gt;Node7</title>
<path fill="none" stroke="midnightblue" d="M1162.56,-134.362C1139.34,-124.13 1111.13,-111.7 1088.41,-101.689"/>
<polygon fill="midnightblue" stroke="midnightblue" points="1089.6,-98.389 1079.04,-97.5597 1086.78,-104.795 1089.6,-98.389"/>
</g>
<!-- Node8 -->
<g id="node8" class="node"><title>Node8</title>
<g id="a_node8"><a xlink:href="_dwarf_elephant_r_b_structures_a1_theta_equal_mu1_8h.html" target="_top" xlink:title="DwarfElephantRBStructures\lA1ThetaEqualMu1.h">
<polygon fill="white" stroke="black" points="1136.13,-67.5 1136.13,-97.5 1278.13,-97.5 1278.13,-67.5 1136.13,-67.5"/>
<text text-anchor="start" x="1144.13" y="-85.5" font-family="Helvetica,sans-Serif" font-size="10.00">DwarfElephantRBStructures</text>
<text text-anchor="middle" x="1207.13" y="-74.5" font-family="Helvetica,sans-Serif" font-size="10.00">A1ThetaEqualMu1.h</text>
</a>
</g>
</g>
<!-- Node1&#45;&gt;Node8 -->
<g id="edge15" class="edge"><title>Node1&#45;&gt;Node8</title>
<path fill="none" stroke="midnightblue" d="M1207.13,-134.362C1207.13,-126.226 1207.13,-116.7 1207.13,-108.105"/>
<polygon fill="midnightblue" stroke="midnightblue" points="1210.63,-107.892 1207.13,-97.8916 1203.63,-107.892 1210.63,-107.892"/>
</g>
<!-- Node9 -->
<g id="node9" class="node"><title>Node9</title>
<g id="a_node9"><a xlink:href="_dwarf_elephant_r_b_structures_a1_theta_norm_mu0_8h.html" target="_top" xlink:title="DwarfElephantRBStructures\lA1ThetaNormMu0.h">
<polygon fill="white" stroke="black" points="1296.13,-67.5 1296.13,-97.5 1438.13,-97.5 1438.13,-67.5 1296.13,-67.5"/>
<text text-anchor="start" x="1304.13" y="-85.5" font-family="Helvetica,sans-Serif" font-size="10.00">DwarfElephantRBStructures</text>
<text text-anchor="middle" x="1367.13" y="-74.5" font-family="Helvetica,sans-Serif" font-size="10.00">A1ThetaNormMu0.h</text>
</a>
</g>
</g>
<!-- Node1&#45;&gt;Node9 -->
<g id="edge18" class="edge"><title>Node1&#45;&gt;Node9</title>
<path fill="none" stroke="midnightblue" d="M1251.7,-134.362C1274.92,-124.13 1303.13,-111.7 1325.85,-101.689"/>
<polygon fill="midnightblue" stroke="midnightblue" points="1327.48,-104.795 1335.22,-97.5597 1324.66,-98.389 1327.48,-104.795"/>
</g>
<!-- Node10 -->
<g id="node10" class="node"><title>Node10</title>
<g id="a_node10"><a xlink:href="_dwarf_elephant_r_b_structures_a1_theta_norm_mu1_8h.html" target="_top" xlink:title="DwarfElephantRBStructures\lA1ThetaNormMu1.h">
<polygon fill="white" stroke="black" points="1456.13,-67.5 1456.13,-97.5 1598.13,-97.5 1598.13,-67.5 1456.13,-67.5"/>
<text text-anchor="start" x="1464.13" y="-85.5" font-family="Helvetica,sans-Serif" font-size="10.00">DwarfElephantRBStructures</text>
<text text-anchor="middle" x="1527.13" y="-74.5" font-family="Helvetica,sans-Serif" font-size="10.00">A1ThetaNormMu1.h</text>
</a>
</g>
</g>
<!-- Node1&#45;&gt;Node10 -->
<g id="edge21" class="edge"><title>Node1&#45;&gt;Node10</title>
<path fill="none" stroke="midnightblue" d="M1279.35,-138.091C1331.39,-126.626 1401.37,-111.207 1453.69,-99.6806"/>
<polygon fill="midnightblue" stroke="midnightblue" points="1454.56,-103.072 1463.58,-97.5025 1453.06,-96.2361 1454.56,-103.072"/>
</g>
<!-- Node11 -->
<g id="node11" class="node"><title>Node11</title>
<g id="a_node11"><a xlink:href="_dwarf_elephant_r_b_structures_a2_theta_equal_mu2_8h.html" target="_top" xlink:title="DwarfElephantRBStructures\lA2ThetaEqualMu2.h">
<polygon fill="white" stroke="black" points="1616.13,-67.5 1616.13,-97.5 1758.13,-97.5 1758.13,-67.5 1616.13,-67.5"/>
<text text-anchor="start" x="1624.13" y="-85.5" font-family="Helvetica,sans-Serif" font-size="10.00">DwarfElephantRBStructures</text>
<text text-anchor="middle" x="1687.13" y="-74.5" font-family="Helvetica,sans-Serif" font-size="10.00">A2ThetaEqualMu2.h</text>
</a>
</g>
</g>
<!-- Node1&#45;&gt;Node11 -->
<g id="edge24" class="edge"><title>Node1&#45;&gt;Node11</title>
<path fill="none" stroke="midnightblue" d="M1279.16,-144.803C1357.15,-134.643 1485.47,-117.348 1605.92,-98.1581"/>
<polygon fill="midnightblue" stroke="midnightblue" points="1606.74,-101.572 1616.06,-96.5354 1605.63,-94.6599 1606.74,-101.572"/>
</g>
<!-- Node12 -->
<g id="node12" class="node"><title>Node12</title>
<g id="a_node12"><a xlink:href="_dwarf_elephant_r_b_structures_a2_theta_norm_mu0_8h.html" target="_top" xlink:title="DwarfElephantRBStructures\lA2ThetaNormMu0.h">
<polygon fill="white" stroke="black" points="1776.13,-67.5 1776.13,-97.5 1918.13,-97.5 1918.13,-67.5 1776.13,-67.5"/>
<text text-anchor="start" x="1784.13" y="-85.5" font-family="Helvetica,sans-Serif" font-size="10.00">DwarfElephantRBStructures</text>
<text text-anchor="middle" x="1847.13" y="-74.5" font-family="Helvetica,sans-Serif" font-size="10.00">A2ThetaNormMu0.h</text>
</a>
</g>
</g>
<!-- Node1&#45;&gt;Node12 -->
<g id="edge27" class="edge"><title>Node1&#45;&gt;Node12</title>
<path fill="none" stroke="midnightblue" d="M1279.4,-148.624C1384.36,-140.405 1585.3,-123.125 1766.12,-98.0722"/>
<polygon fill="midnightblue" stroke="midnightblue" points="1766.66,-101.531 1776.08,-96.6814 1765.69,-94.5981 1766.66,-101.531"/>
</g>
<!-- Node13 -->
<g id="node13" class="node"><title>Node13</title>
<g id="a_node13"><a xlink:href="_dwarf_elephant_r_b_structures_a2_theta_norm_mu1_8h.html" target="_top" xlink:title="DwarfElephantRBStructures\lA2ThetaNormMu1.h">
<polygon fill="white" stroke="black" points="1936.13,-67.5 1936.13,-97.5 2078.13,-97.5 2078.13,-67.5 1936.13,-67.5"/>
<text text-anchor="start" x="1944.13" y="-85.5" font-family="Helvetica,sans-Serif" font-size="10.00">DwarfElephantRBStructures</text>
<text text-anchor="middle" x="2007.13" y="-74.5" font-family="Helvetica,sans-Serif" font-size="10.00">A2ThetaNormMu1.h</text>
</a>
</g>
</g>
<!-- Node1&#45;&gt;Node13 -->
<g id="edge30" class="edge"><title>Node1&#45;&gt;Node13</title>
<path fill="none" stroke="midnightblue" d="M1279.17,-150.826C1407.3,-144.647 1683.35,-128.935 1926.02,-98.0561"/>
<polygon fill="midnightblue" stroke="midnightblue" points="1926.62,-101.508 1936.09,-96.7633 1925.73,-94.5651 1926.62,-101.508"/>
</g>
<!-- Node14 -->
<g id="node14" class="node"><title>Node14</title>
<g id="a_node14"><a xlink:href="_dwarf_elephant_r_b_structures_a3_theta_equal_mu3_8h.html" target="_top" xlink:title="DwarfElephantRBStructures\lA3ThetaEqualMu3.h">
<polygon fill="white" stroke="black" points="2096.13,-67.5 2096.13,-97.5 2238.13,-97.5 2238.13,-67.5 2096.13,-67.5"/>
<text text-anchor="start" x="2104.13" y="-85.5" font-family="Helvetica,sans-Serif" font-size="10.00">DwarfElephantRBStructures</text>
<text text-anchor="middle" x="2167.13" y="-74.5" font-family="Helvetica,sans-Serif" font-size="10.00">A3ThetaEqualMu3.h</text>
</a>
</g>
</g>
<!-- Node1&#45;&gt;Node14 -->
<g id="edge33" class="edge"><title>Node1&#45;&gt;Node14</title>
<path fill="none" stroke="midnightblue" d="M1279.26,-152.236C1428.24,-147.978 1780.85,-134.726 2086.17,-98.0197"/>
<polygon fill="midnightblue" stroke="midnightblue" points="2086.59,-101.494 2096.1,-96.8156 2085.75,-94.545 2086.59,-101.494"/>
</g>
<!-- Node15 -->
<g id="node15" class="node"><title>Node15</title>
<g id="a_node15"><a xlink:href="_dwarf_elephant_r_b_structures_a4_theta_equal_mu4_8h.html" target="_top" xlink:title="DwarfElephantRBStructures\lA4ThetaEqualMu4.h">
<polygon fill="white" stroke="black" points="2256.13,-67.5 2256.13,-97.5 2398.13,-97.5 2398.13,-67.5 2256.13,-67.5"/>
<text text-anchor="start" x="2264.13" y="-85.5" font-family="Helvetica,sans-Serif" font-size="10.00">DwarfElephantRBStructures</text>
<text text-anchor="middle" x="2327.13" y="-74.5" font-family="Helvetica,sans-Serif" font-size="10.00">A4ThetaEqualMu4.h</text>
</a>
</g>
</g>
<!-- Node1&#45;&gt;Node15 -->
<g id="edge36" class="edge"><title>Node1&#45;&gt;Node15</title>
<path fill="none" stroke="midnightblue" d="M1279.27,-153.227C1447.2,-150.756 1877.39,-140.555 2246.04,-98.0231"/>
<polygon fill="midnightblue" stroke="midnightblue" points="2246.57,-101.484 2256.1,-96.8519 2245.76,-94.5312 2246.57,-101.484"/>
</g>
<!-- Node16 -->
<g id="node16" class="node"><title>Node16</title>
<g id="a_node16"><a xlink:href="_dwarf_elephant_r_b_structures_a5_theta_equal_mu5_8h.html" target="_top" xlink:title="DwarfElephantRBStructures\lA5ThetaEqualMu5.h">
<polygon fill="white" stroke="black" points="16.1328,-67.5 16.1328,-97.5 158.133,-97.5 158.133,-67.5 16.1328,-67.5"/>
<text text-anchor="start" x="24.1328" y="-85.5" font-family="Helvetica,sans-Serif" font-size="10.00">DwarfElephantRBStructures</text>
<text text-anchor="middle" x="87.1328" y="-74.5" font-family="Helvetica,sans-Serif" font-size="10.00">A5ThetaEqualMu5.h</text>
</a>
</g>
</g>
<!-- Node1&#45;&gt;Node16 -->
<g id="edge39" class="edge"><title>Node1&#45;&gt;Node16</title>
<path fill="none" stroke="midnightblue" d="M1135,-153.227C967.066,-150.756 536.872,-140.555 168.229,-98.0231"/>
<polygon fill="midnightblue" stroke="midnightblue" points="168.501,-94.5312 158.163,-96.8519 167.692,-101.484 168.501,-94.5312"/>
</g>
<!-- Node17 -->
<g id="node17" class="node"><title>Node17</title>
<g id="a_node17"><a xlink:href="_dwarf_elephant_r_b_structures_a6_theta_equal_mu6_8h.html" target="_top" xlink:title="DwarfElephantRBStructures\lA6ThetaEqualMu6.h">
<polygon fill="white" stroke="black" points="176.133,-67.5 176.133,-97.5 318.133,-97.5 318.133,-67.5 176.133,-67.5"/>
<text text-anchor="start" x="184.133" y="-85.5" font-family="Helvetica,sans-Serif" font-size="10.00">DwarfElephantRBStructures</text>
<text text-anchor="middle" x="247.133" y="-74.5" font-family="Helvetica,sans-Serif" font-size="10.00">A6ThetaEqualMu6.h</text>
</a>
</g>
</g>
<!-- Node1&#45;&gt;Node17 -->
<g id="edge42" class="edge"><title>Node1&#45;&gt;Node17</title>
<path fill="none" stroke="midnightblue" d="M1135.01,-152.236C986.028,-147.978 633.415,-134.726 328.097,-98.0197"/>
<polygon fill="midnightblue" stroke="midnightblue" points="328.516,-94.545 318.168,-96.8156 327.674,-101.494 328.516,-94.545"/>
</g>
<!-- Node18 -->
<g id="node18" class="node"><title>Node18</title>
<g id="a_node18"><a xlink:href="_dwarf_elephant_r_b_structures_a7_theta_equal_mu7_8h.html" target="_top" xlink:title="DwarfElephantRBStructures\lA7ThetaEqualMu7.h">
<polygon fill="white" stroke="black" points="336.133,-67.5 336.133,-97.5 478.133,-97.5 478.133,-67.5 336.133,-67.5"/>
<text text-anchor="start" x="344.133" y="-85.5" font-family="Helvetica,sans-Serif" font-size="10.00">DwarfElephantRBStructures</text>
<text text-anchor="middle" x="407.133" y="-74.5" font-family="Helvetica,sans-Serif" font-size="10.00">A7ThetaEqualMu7.h</text>
</a>
</g>
</g>
<!-- Node1&#45;&gt;Node18 -->
<g id="edge45" class="edge"><title>Node1&#45;&gt;Node18</title>
<path fill="none" stroke="midnightblue" d="M1135.09,-150.826C1006.96,-144.647 730.913,-128.935 488.246,-98.0561"/>
<polygon fill="midnightblue" stroke="midnightblue" points="488.539,-94.5651 478.174,-96.7633 487.647,-101.508 488.539,-94.5651"/>
</g>
<!-- Node4&#45;&gt;Node2 -->
<g id="edge4" class="edge"><title>Node4&#45;&gt;Node2</title>
<path fill="none" stroke="midnightblue" d="M638.197,-68.3948C641.213,-67.9096 644.202,-67.4423 647.133,-67 774.325,-47.8071 924.165,-31.1385 1005.42,-22.5927"/>
<polygon fill="midnightblue" stroke="midnightblue" points="1005.88,-26.0637 1015.46,-21.5412 1005.15,-19.1018 1005.88,-26.0637"/>
</g>
<!-- Node4&#45;&gt;Node3 -->
<g id="edge5" class="edge"><title>Node4&#45;&gt;Node3</title>
<path fill="none" stroke="midnightblue" d="M638.173,-68.2282C641.196,-67.7886 644.193,-67.3764 647.133,-67 858.015,-40.0053 912.245,-48.4195 1124.13,-31 1156.3,-28.3555 1192.02,-25.2026 1221.8,-22.5133"/>
<polygon fill="midnightblue" stroke="midnightblue" points="1222.43,-25.9708 1232.07,-21.583 1221.8,-18.9994 1222.43,-25.9708"/>
</g>
<!-- Node5&#45;&gt;Node2 -->
<g id="edge7" class="edge"><title>Node5&#45;&gt;Node2</title>
<path fill="none" stroke="midnightblue" d="M798.401,-67.7946C861.802,-55.6021 953.163,-38.0326 1010.82,-26.9456"/>
<polygon fill="midnightblue" stroke="midnightblue" points="1011.66,-30.3468 1020.82,-25.0212 1010.34,-23.4728 1011.66,-30.3468"/>
</g>
<!-- Node5&#45;&gt;Node3 -->
<g id="edge8" class="edge"><title>Node5&#45;&gt;Node3</title>
<path fill="none" stroke="midnightblue" d="M798.188,-68.3377C801.207,-67.8681 804.198,-67.4197 807.133,-67 885.459,-55.7972 1109.45,-33.6402 1221.56,-22.7879"/>
<polygon fill="midnightblue" stroke="midnightblue" points="1222.1,-26.2513 1231.72,-21.8053 1221.43,-19.2838 1222.1,-26.2513"/>
</g>
<!-- Node6&#45;&gt;Node2 -->
<g id="edge10" class="edge"><title>Node6&#45;&gt;Node2</title>
<path fill="none" stroke="midnightblue" d="M925.756,-67.396C957.541,-55.7891 1002.11,-39.5147 1032.22,-28.5192"/>
<polygon fill="midnightblue" stroke="midnightblue" points="1033.64,-31.7249 1041.84,-25.007 1031.24,-25.1495 1033.64,-31.7249"/>
</g>
<!-- Node6&#45;&gt;Node3 -->
<g id="edge11" class="edge"><title>Node6&#45;&gt;Node3</title>
<path fill="none" stroke="midnightblue" d="M958.218,-68.5291C961.229,-68.0071 964.21,-67.4954 967.133,-67 1055.17,-52.0775 1157.08,-36.242 1221.8,-26.3647"/>
<polygon fill="midnightblue" stroke="midnightblue" points="1222.5,-29.7983 1231.86,-24.8317 1221.45,-22.8782 1222.5,-29.7983"/>
</g>
<!-- Node7&#45;&gt;Node2 -->
<g id="edge13" class="edge"><title>Node7&#45;&gt;Node2</title>
<path fill="none" stroke="midnightblue" d="M1051.04,-67.396C1053.68,-57.8631 1057.19,-45.1818 1060.05,-34.8624"/>
<polygon fill="midnightblue" stroke="midnightblue" points="1063.43,-35.7659 1062.73,-25.1945 1056.68,-33.8977 1063.43,-35.7659"/>
</g>
<!-- Node7&#45;&gt;Node3 -->
<g id="edge14" class="edge"><title>Node7&#45;&gt;Node3</title>
<path fill="none" stroke="midnightblue" d="M1098.91,-67.476C1136.01,-57.4297 1186.12,-43.8564 1225.32,-33.2418"/>
<polygon fill="midnightblue" stroke="midnightblue" points="1226.29,-36.6034 1235.03,-30.6109 1224.46,-29.8469 1226.29,-36.6034"/>
</g>
<!-- Node8&#45;&gt;Node2 -->
<g id="edge16" class="edge"><title>Node8&#45;&gt;Node2</title>
<path fill="none" stroke="midnightblue" d="M1176.32,-67.396C1151.52,-56.0414 1116.95,-40.2201 1092.97,-29.2437"/>
<polygon fill="midnightblue" stroke="midnightblue" points="1094.27,-25.9868 1083.72,-25.007 1091.35,-32.3516 1094.27,-25.9868"/>
</g>
<!-- Node8&#45;&gt;Node3 -->
<g id="edge17" class="edge"><title>Node8&#45;&gt;Node3</title>
<path fill="none" stroke="midnightblue" d="M1224.49,-67.396C1235.39,-58.5375 1249.64,-46.9604 1261.8,-37.0861"/>
<polygon fill="midnightblue" stroke="midnightblue" points="1264.25,-39.5989 1269.81,-30.5765 1259.84,-34.1661 1264.25,-39.5989"/>
</g>
<!-- Node9&#45;&gt;Node2 -->
<g id="edge19" class="edge"><title>Node9&#45;&gt;Node2</title>
<path fill="none" stroke="midnightblue" d="M1301.98,-67.476C1245.73,-55.3701 1165.69,-38.1427 1114.58,-27.1424"/>
<polygon fill="midnightblue" stroke="midnightblue" points="1115.27,-23.7112 1104.76,-25.0287 1113.8,-30.5545 1115.27,-23.7112"/>
</g>
<!-- Node9&#45;&gt;Node3 -->
<g id="edge20" class="edge"><title>Node9&#45;&gt;Node3</title>
<path fill="none" stroke="midnightblue" d="M1349.77,-67.396C1338.87,-58.5375 1324.62,-46.9604 1312.47,-37.0861"/>
<polygon fill="midnightblue" stroke="midnightblue" points="1314.43,-34.1661 1304.46,-30.5765 1310.01,-39.5989 1314.43,-34.1661"/>
</g>
<!-- Node10&#45;&gt;Node2 -->
<g id="edge22" class="edge"><title>Node10&#45;&gt;Node2</title>
<path fill="none" stroke="midnightblue" d="M1456.06,-68.4363C1453.05,-67.9397 1450.06,-67.4587 1447.13,-67 1333.51,-49.2036 1200.23,-32.5354 1124.92,-23.5057"/>
<polygon fill="midnightblue" stroke="midnightblue" points="1125.04,-19.9943 1114.69,-22.283 1124.2,-26.9449 1125.04,-19.9943"/>
</g>
<!-- Node10&#45;&gt;Node3 -->
<g id="edge23" class="edge"><title>Node10&#45;&gt;Node3</title>
<path fill="none" stroke="midnightblue" d="M1475.35,-67.476C1438.26,-57.4297 1388.14,-43.8564 1348.95,-33.2418"/>
<polygon fill="midnightblue" stroke="midnightblue" points="1349.8,-29.8469 1339.23,-30.6109 1347.97,-36.6034 1349.8,-29.8469"/>
</g>
<!-- Node11&#45;&gt;Node2 -->
<g id="edge25" class="edge"><title>Node11&#45;&gt;Node2</title>
<path fill="none" stroke="midnightblue" d="M1616.08,-68.2935C1613.06,-67.836 1610.07,-67.4022 1607.13,-67 1595.29,-65.3776 1263.26,-34.7435 1124.84,-21.9946"/>
<polygon fill="midnightblue" stroke="midnightblue" points="1125.09,-18.5037 1114.82,-21.0719 1124.45,-25.4742 1125.09,-18.5037"/>
</g>
<!-- Node11&#45;&gt;Node3 -->
<g id="edge26" class="edge"><title>Node11&#45;&gt;Node3</title>
<path fill="none" stroke="midnightblue" d="M1616.05,-68.5291C1613.04,-68.0071 1610.06,-67.4954 1607.13,-67 1519.1,-52.0775 1417.19,-36.242 1352.47,-26.3647"/>
<polygon fill="midnightblue" stroke="midnightblue" points="1352.82,-22.8782 1342.41,-24.8317 1351.76,-29.7983 1352.82,-22.8782"/>
</g>
<!-- Node12&#45;&gt;Node2 -->
<g id="edge28" class="edge"><title>Node12&#45;&gt;Node2</title>
<path fill="none" stroke="midnightblue" d="M1776.1,-68.1938C1773.07,-67.7636 1770.07,-67.3628 1767.13,-67 1526.65,-37.3455 1464.69,-50.0735 1223.13,-31 1190.71,-28.4397 1154.58,-25.1564 1125.07,-22.3618"/>
<polygon fill="midnightblue" stroke="midnightblue" points="1125.2,-18.8593 1114.92,-21.3957 1124.54,-25.8278 1125.2,-18.8593"/>
</g>
<!-- Node12&#45;&gt;Node3 -->
<g id="edge29" class="edge"><title>Node12&#45;&gt;Node3</title>
<path fill="none" stroke="midnightblue" d="M1776.08,-68.3377C1773.06,-67.8681 1770.07,-67.4197 1767.13,-67 1619.42,-45.8734 1444.95,-29.7031 1352.42,-21.8163"/>
<polygon fill="midnightblue" stroke="midnightblue" points="1352.63,-18.3212 1342.37,-20.9644 1352.04,-25.2962 1352.63,-18.3212"/>
</g>
<!-- Node13&#45;&gt;Node2 -->
<g id="edge31" class="edge"><title>Node13&#45;&gt;Node2</title>
<path fill="none" stroke="midnightblue" d="M1936.1,-68.138C1933.08,-67.7231 1930.08,-67.3407 1927.13,-67 1615.91,-30.9886 1535.63,-53.3204 1223.13,-31 1190.69,-28.6828 1154.56,-25.4183 1125.05,-22.5735"/>
<polygon fill="midnightblue" stroke="midnightblue" points="1125.2,-19.0712 1114.9,-21.587 1124.52,-26.0384 1125.2,-19.0712"/>
</g>
<!-- Node13&#45;&gt;Node3 -->
<g id="edge32" class="edge"><title>Node13&#45;&gt;Node3</title>
<path fill="none" stroke="midnightblue" d="M1936.09,-68.2409C1933.07,-67.7978 1930.07,-67.3814 1927.13,-67 1718.18,-39.8899 1468.83,-25.2805 1352.69,-19.493"/>
<polygon fill="midnightblue" stroke="midnightblue" points="1352.7,-15.9895 1342.54,-18.993 1352.36,-22.981 1352.7,-15.9895"/>
</g>
<!-- Node14&#45;&gt;Node2 -->
<g id="edge34" class="edge"><title>Node14&#45;&gt;Node2</title>
<path fill="none" stroke="midnightblue" d="M2096.11,-68.1029C2093.08,-67.6976 2090.08,-67.3268 2087.13,-67 1705.14,-24.6279 1606.61,-56.5697 1223.13,-31 1190.68,-28.8361 1154.55,-25.5835 1125.04,-22.707"/>
<polygon fill="midnightblue" stroke="midnightblue" points="1125.19,-19.2049 1114.89,-21.7076 1124.5,-26.1712 1125.19,-19.2049"/>
</g>
<!-- Node14&#45;&gt;Node3 -->
<g id="edge35" class="edge"><title>Node14&#45;&gt;Node3</title>
<path fill="none" stroke="midnightblue" d="M2096.1,-68.1825C2093.07,-67.7554 2090.08,-67.3583 2087.13,-67 1815.5,-33.9238 1489.18,-21.8657 1352.43,-18.0516"/>
<polygon fill="midnightblue" stroke="midnightblue" points="1352.23,-14.5448 1342.14,-17.7701 1352.04,-21.5422 1352.23,-14.5448"/>
</g>
<!-- Node15&#45;&gt;Node2 -->
<g id="edge37" class="edge"><title>Node15&#45;&gt;Node2</title>
<path fill="none" stroke="midnightblue" d="M2256.11,-68.0786C2253.08,-67.68 2250.08,-67.3172 2247.13,-67 1794.36,-18.2652 1677.61,-59.8202 1223.13,-31 1190.67,-28.9416 1154.54,-25.6972 1125.03,-22.7988"/>
<polygon fill="midnightblue" stroke="midnightblue" points="1125.19,-19.2969 1114.89,-21.7906 1124.49,-26.2625 1125.19,-19.2969"/>
</g>
<!-- Node15&#45;&gt;Node3 -->
<g id="edge38" class="edge"><title>Node15&#45;&gt;Node3</title>
<path fill="none" stroke="midnightblue" d="M2256.1,-68.1435C2253.08,-67.7271 2250.08,-67.3429 2247.13,-67 1912.29,-28.007 1508.21,-19.1076 1352.59,-17.0881"/>
<polygon fill="midnightblue" stroke="midnightblue" points="1352.31,-13.5844 1342.26,-16.9595 1352.22,-20.5838 1352.31,-13.5844"/>
</g>
<!-- Node16&#45;&gt;Node2 -->
<g id="edge40" class="edge"><title>Node16&#45;&gt;Node2</title>
<path fill="none" stroke="midnightblue" d="M158.165,-68.157C161.19,-67.7368 164.189,-67.3482 167.133,-67 481.043,-29.8684 860.017,-19.8834 1004.87,-17.3306"/>
<polygon fill="midnightblue" stroke="midnightblue" points="1005.36,-20.8228 1015.3,-17.1526 1005.24,-13.8239 1005.36,-20.8228"/>
</g>
<!-- Node16&#45;&gt;Node3 -->
<g id="edge41" class="edge"><title>Node16&#45;&gt;Node3</title>
<path fill="none" stroke="midnightblue" d="M158.157,-68.0878C161.184,-67.6866 164.186,-67.3208 167.133,-67 590.266,-20.9297 699.347,-57.8659 1124.13,-31 1156.34,-28.9628 1192.07,-25.8781 1221.84,-23.0769"/>
<polygon fill="midnightblue" stroke="midnightblue" points="1222.48,-26.5315 1232.11,-22.1001 1221.82,-19.563 1222.48,-26.5315"/>
</g>
<!-- Node17&#45;&gt;Node2 -->
<g id="edge43" class="edge"><title>Node17&#45;&gt;Node2</title>
<path fill="none" stroke="midnightblue" d="M318.17,-68.2021C321.194,-67.7696 324.191,-67.3661 327.133,-67 577.835,-35.8003 879.025,-22.7306 1005.07,-18.3506"/>
<polygon fill="midnightblue" stroke="midnightblue" points="1005.41,-21.8413 1015.28,-18.0016 1005.17,-14.8454 1005.41,-21.8413"/>
</g>
<!-- Node17&#45;&gt;Node3 -->
<g id="edge44" class="edge"><title>Node17&#45;&gt;Node3</title>
<path fill="none" stroke="midnightblue" d="M318.16,-68.1159C321.187,-67.707 324.187,-67.3319 327.133,-67 679.486,-27.2917 770.343,-54.7149 1124.13,-31 1156.34,-28.8414 1192.06,-25.7431 1221.83,-22.9642"/>
<polygon fill="midnightblue" stroke="midnightblue" points="1222.47,-26.4194 1232.1,-21.9967 1221.82,-19.4503 1222.47,-26.4194"/>
</g>
<!-- Node18&#45;&gt;Node2 -->
<g id="edge46" class="edge"><title>Node18&#45;&gt;Node2</title>
<path fill="none" stroke="midnightblue" d="M478.179,-68.2721C481.201,-67.8205 484.195,-67.3937 487.133,-67 675.541,-41.7496 900.268,-26.2841 1005.38,-19.8989"/>
<polygon fill="midnightblue" stroke="midnightblue" points="1005.71,-23.3857 1015.48,-19.2912 1005.29,-16.3984 1005.71,-23.3857"/>
</g>
<!-- Node18&#45;&gt;Node3 -->
<g id="edge47" class="edge"><title>Node18&#45;&gt;Node3</title>
<path fill="none" stroke="midnightblue" d="M478.165,-68.158C481.19,-67.7376 484.189,-67.3486 487.133,-67 768.728,-33.6512 841.317,-51.5655 1124.13,-31 1156.32,-28.6592 1192.04,-25.5404 1221.82,-22.7951"/>
<polygon fill="midnightblue" stroke="midnightblue" points="1222.46,-26.2513 1232.09,-21.8416 1221.81,-19.2812 1222.46,-26.2513"/>
</g>
</g>
</svg>
