<?xml version="1.0" encoding="UTF-8" standalone="no"?>
<!DOCTYPE svg PUBLIC "-//W3C//DTD SVG 1.1//EN"
 "http://www.w3.org/Graphics/SVG/1.1/DTD/svg11.dtd">
<!-- Generated by graphviz version 2.38.0 (20140413.2041)
 -->
<!-- Title: include/userobjects/DwarfElephantRBStructuresT5F1O1M1Transient.h Pages: 1 -->
<svg width="1218pt" height="184pt"
 viewBox="0.00 0.00 1217.50 184.00" xmlns="http://www.w3.org/2000/svg" xmlns:xlink="http://www.w3.org/1999/xlink">
<g id="graph0" class="graph" transform="scale(1 1) rotate(0) translate(4 180)">
<title>include/userobjects/DwarfElephantRBStructuresT5F1O1M1Transient.h</title>
<polygon fill="white" stroke="none" points="-4,4 -4,-180 1213.5,-180 1213.5,4 -4,4"/>
<!-- Node1 -->
<g id="node1" class="node"><title>Node1</title>
<polygon fill="#bfbfbf" stroke="black" points="506.5,-134.5 506.5,-175.5 650.5,-175.5 650.5,-134.5 506.5,-134.5"/>
<text text-anchor="start" x="514.5" y="-163.5" font-family="Helvetica,sans-Serif" font-size="10.00">include/userobjects</text>
<text text-anchor="start" x="514.5" y="-152.5" font-family="Helvetica,sans-Serif" font-size="10.00">/DwarfElephantRBStructures</text>
<text text-anchor="middle" x="578.5" y="-141.5" font-family="Helvetica,sans-Serif" font-size="10.00">T5F1O1M1Transient.h</text>
</g>
<!-- Node2 -->
<g id="node2" class="node"><title>Node2</title>
<polygon fill="white" stroke="#bfbfbf" points="0,-67.5 0,-97.5 107,-97.5 107,-67.5 0,-67.5"/>
<text text-anchor="start" x="8" y="-85.5" font-family="Helvetica,sans-Serif" font-size="10.00">libmesh/transient_rb</text>
<text text-anchor="middle" x="53.5" y="-74.5" font-family="Helvetica,sans-Serif" font-size="10.00">_theta_expansion.h</text>
</g>
<!-- Node1&#45;&gt;Node2 -->
<g id="edge1" class="edge"><title>Node1&#45;&gt;Node2</title>
<path fill="none" stroke="midnightblue" d="M506.131,-147.614C416.934,-139.209 260.603,-122.74 116.921,-97.9492"/>
<polygon fill="midnightblue" stroke="midnightblue" points="117.49,-94.4958 107.038,-96.2272 116.289,-101.392 117.49,-94.4958"/>
</g>
<!-- Node3 -->
<g id="node3" class="node"><title>Node3</title>
<polygon fill="white" stroke="#bfbfbf" points="125.5,-67.5 125.5,-97.5 249.5,-97.5 249.5,-67.5 125.5,-67.5"/>
<text text-anchor="start" x="133.5" y="-85.5" font-family="Helvetica,sans-Serif" font-size="10.00">libmesh/transient_rb</text>
<text text-anchor="middle" x="187.5" y="-74.5" font-family="Helvetica,sans-Serif" font-size="10.00">_assembly_expansion.h</text>
</g>
<!-- Node1&#45;&gt;Node3 -->
<g id="edge2" class="edge"><title>Node1&#45;&gt;Node3</title>
<path fill="none" stroke="midnightblue" d="M506.27,-141.958C443.627,-131.377 350.265,-115.279 259.705,-98.201"/>
<polygon fill="midnightblue" stroke="midnightblue" points="260.295,-94.7506 249.818,-96.3305 258.993,-101.629 260.295,-94.7506"/>
</g>
<!-- Node4 -->
<g id="node4" class="node"><title>Node4</title>
<g id="a_node4"><a xlink:href="_dwarf_elephant_r_b_structures_a00_theta_constant_8h.html" target="_top" xlink:title="DwarfElephantRBStructures\lA00ThetaConstant.h">
<polygon fill="white" stroke="black" points="267.5,-67.5 267.5,-97.5 409.5,-97.5 409.5,-67.5 267.5,-67.5"/>
<text text-anchor="start" x="275.5" y="-85.5" font-family="Helvetica,sans-Serif" font-size="10.00">DwarfElephantRBStructures</text>
<text text-anchor="middle" x="338.5" y="-74.5" font-family="Helvetica,sans-Serif" font-size="10.00">A00ThetaConstant.h</text>
</a>
</g>
</g>
<!-- Node1&#45;&gt;Node4 -->
<g id="edge3" class="edge"><title>Node1&#45;&gt;Node4</title>
<path fill="none" stroke="midnightblue" d="M511.965,-134.455C475.729,-123.811 431.316,-110.765 396.501,-100.538"/>
<polygon fill="midnightblue" stroke="midnightblue" points="397.07,-97.0572 386.489,-97.5968 395.097,-103.773 397.07,-97.0572"/>
</g>
<!-- Node7 -->
<g id="node7" class="node"><title>Node7</title>
<g id="a_node7"><a xlink:href="_dwarf_elephant_r_b_structures_a0_theta_equal_mu0_8h.html" target="_top" xlink:title="DwarfElephantRBStructures\lA0ThetaEqualMu0.h">
<polygon fill="white" stroke="black" points="427.5,-67.5 427.5,-97.5 569.5,-97.5 569.5,-67.5 427.5,-67.5"/>
<text text-anchor="start" x="435.5" y="-85.5" font-family="Helvetica,sans-Serif" font-size="10.00">DwarfElephantRBStructures</text>
<text text-anchor="middle" x="498.5" y="-74.5" font-family="Helvetica,sans-Serif" font-size="10.00">A0ThetaEqualMu0.h</text>
</a>
</g>
</g>
<!-- Node1&#45;&gt;Node7 -->
<g id="edge6" class="edge"><title>Node1&#45;&gt;Node7</title>
<path fill="none" stroke="midnightblue" d="M556.216,-134.362C545.679,-125.076 533.087,-113.979 522.357,-104.524"/>
<polygon fill="midnightblue" stroke="midnightblue" points="524.396,-101.656 514.579,-97.67 519.768,-106.907 524.396,-101.656"/>
</g>
<!-- Node8 -->
<g id="node8" class="node"><title>Node8</title>
<g id="a_node8"><a xlink:href="_dwarf_elephant_r_b_structures_a1_theta_equal_mu1_8h.html" target="_top" xlink:title="DwarfElephantRBStructures\lA1ThetaEqualMu1.h">
<polygon fill="white" stroke="black" points="587.5,-67.5 587.5,-97.5 729.5,-97.5 729.5,-67.5 587.5,-67.5"/>
<text text-anchor="start" x="595.5" y="-85.5" font-family="Helvetica,sans-Serif" font-size="10.00">DwarfElephantRBStructures</text>
<text text-anchor="middle" x="658.5" y="-74.5" font-family="Helvetica,sans-Serif" font-size="10.00">A1ThetaEqualMu1.h</text>
</a>
</g>
</g>
<!-- Node1&#45;&gt;Node8 -->
<g id="edge9" class="edge"><title>Node1&#45;&gt;Node8</title>
<path fill="none" stroke="midnightblue" d="M600.784,-134.362C611.321,-125.076 623.913,-113.979 634.643,-104.524"/>
<polygon fill="midnightblue" stroke="midnightblue" points="637.232,-106.907 642.421,-97.67 632.604,-101.656 637.232,-106.907"/>
</g>
<!-- Node9 -->
<g id="node9" class="node"><title>Node9</title>
<g id="a_node9"><a xlink:href="_dwarf_elephant_r_b_structures_a2_theta_equal_mu2_8h.html" target="_top" xlink:title="DwarfElephantRBStructures\lA2ThetaEqualMu2.h">
<polygon fill="white" stroke="black" points="747.5,-67.5 747.5,-97.5 889.5,-97.5 889.5,-67.5 747.5,-67.5"/>
<text text-anchor="start" x="755.5" y="-85.5" font-family="Helvetica,sans-Serif" font-size="10.00">DwarfElephantRBStructures</text>
<text text-anchor="middle" x="818.5" y="-74.5" font-family="Helvetica,sans-Serif" font-size="10.00">A2ThetaEqualMu2.h</text>
</a>
</g>
</g>
<!-- Node1&#45;&gt;Node9 -->
<g id="edge12" class="edge"><title>Node1&#45;&gt;Node9</title>
<path fill="none" stroke="midnightblue" d="M645.035,-134.455C681.271,-123.811 725.684,-110.765 760.499,-100.538"/>
<polygon fill="midnightblue" stroke="midnightblue" points="761.903,-103.773 770.511,-97.5968 759.93,-97.0572 761.903,-103.773"/>
</g>
<!-- Node10 -->
<g id="node10" class="node"><title>Node10</title>
<g id="a_node10"><a xlink:href="_dwarf_elephant_r_b_structures_a3_theta_equal_mu3_8h.html" target="_top" xlink:title="DwarfElephantRBStructures\lA3ThetaEqualMu3.h">
<polygon fill="white" stroke="black" points="907.5,-67.5 907.5,-97.5 1049.5,-97.5 1049.5,-67.5 907.5,-67.5"/>
<text text-anchor="start" x="915.5" y="-85.5" font-family="Helvetica,sans-Serif" font-size="10.00">DwarfElephantRBStructures</text>
<text text-anchor="middle" x="978.5" y="-74.5" font-family="Helvetica,sans-Serif" font-size="10.00">A3ThetaEqualMu3.h</text>
</a>
</g>
</g>
<!-- Node1&#45;&gt;Node10 -->
<g id="edge15" class="edge"><title>Node1&#45;&gt;Node10</title>
<path fill="none" stroke="midnightblue" d="M650.646,-141.503C713.236,-130.631 806.565,-114.351 897.477,-98.1766"/>
<polygon fill="midnightblue" stroke="midnightblue" points="898.172,-101.608 907.404,-96.4092 896.945,-94.7163 898.172,-101.608"/>
</g>
<!-- Node11 -->
<g id="node11" class="node"><title>Node11</title>
<g id="a_node11"><a xlink:href="_dwarf_elephant_r_b_structures_a4_theta_equal_mu4_8h.html" target="_top" xlink:title="DwarfElephantRBStructures\lA4ThetaEqualMu4.h">
<polygon fill="white" stroke="black" points="1067.5,-67.5 1067.5,-97.5 1209.5,-97.5 1209.5,-67.5 1067.5,-67.5"/>
<text text-anchor="start" x="1075.5" y="-85.5" font-family="Helvetica,sans-Serif" font-size="10.00">DwarfElephantRBStructures</text>
<text text-anchor="middle" x="1138.5" y="-74.5" font-family="Helvetica,sans-Serif" font-size="10.00">A4ThetaEqualMu4.h</text>
</a>
</g>
</g>
<!-- Node1&#45;&gt;Node11 -->
<g id="edge18" class="edge"><title>Node1&#45;&gt;Node11</title>
<path fill="none" stroke="midnightblue" d="M650.656,-147.017C742.625,-137.795 906.734,-120.266 1057.1,-98.1519"/>
<polygon fill="midnightblue" stroke="midnightblue" points="1058.06,-101.548 1067.44,-96.6204 1057.03,-94.6231 1058.06,-101.548"/>
</g>
<!-- Node5 -->
<g id="node5" class="node"><title>Node5</title>
<polygon fill="white" stroke="#bfbfbf" points="618,-6 618,-25 717,-25 717,-6 618,-6"/>
<text text-anchor="middle" x="667.5" y="-13" font-family="Helvetica,sans-Serif" font-size="10.00">libmesh/rb_theta.h</text>
</g>
<!-- Node4&#45;&gt;Node5 -->
<g id="edge4" class="edge"><title>Node4&#45;&gt;Node5</title>
<path fill="none" stroke="midnightblue" d="M409.483,-67.476C471.013,-55.3196 558.682,-37.9991 614.328,-27.0052"/>
<polygon fill="midnightblue" stroke="midnightblue" points="615.2,-30.4006 624.332,-25.0287 613.843,-23.5333 615.2,-30.4006"/>
</g>
<!-- Node6 -->
<g id="node6" class="node"><title>Node6</title>
<polygon fill="white" stroke="#bfbfbf" points="753.5,-0.5 753.5,-30.5 863.5,-30.5 863.5,-0.5 753.5,-0.5"/>
<text text-anchor="start" x="761.5" y="-18.5" font-family="Helvetica,sans-Serif" font-size="10.00">libmesh/rb_assembly</text>
<text text-anchor="middle" x="808.5" y="-7.5" font-family="Helvetica,sans-Serif" font-size="10.00">_expansion.h</text>
</g>
<!-- Node4&#45;&gt;Node6 -->
<g id="edge5" class="edge"><title>Node4&#45;&gt;Node6</title>
<path fill="none" stroke="midnightblue" d="M409.562,-68.3804C412.579,-67.8991 415.568,-67.4366 418.5,-67 554.818,-46.7002 590.139,-51.0078 726.5,-31 731.953,-30.1998 737.601,-29.3164 743.264,-28.3923"/>
<polygon fill="midnightblue" stroke="midnightblue" points="744.149,-31.7931 753.436,-26.6941 742.996,-24.8886 744.149,-31.7931"/>
</g>
<!-- Node7&#45;&gt;Node5 -->
<g id="edge7" class="edge"><title>Node7&#45;&gt;Node5</title>
<path fill="none" stroke="midnightblue" d="M535.17,-67.396C565.217,-55.8396 607.294,-39.6562 635.876,-28.6629"/>
<polygon fill="midnightblue" stroke="midnightblue" points="637.305,-31.8636 645.382,-25.007 634.792,-25.3301 637.305,-31.8636"/>
</g>
<!-- Node7&#45;&gt;Node6 -->
<g id="edge8" class="edge"><title>Node7&#45;&gt;Node6</title>
<path fill="none" stroke="midnightblue" d="M565.384,-67.476C618.14,-56.4142 691.29,-41.0764 743.541,-30.1204"/>
<polygon fill="midnightblue" stroke="midnightblue" points="744.303,-33.5368 753.372,-28.059 742.867,-26.6857 744.303,-33.5368"/>
</g>
<!-- Node8&#45;&gt;Node5 -->
<g id="edge10" class="edge"><title>Node8&#45;&gt;Node5</title>
<path fill="none" stroke="midnightblue" d="M660.453,-67.396C661.759,-57.9635 663.492,-45.4484 664.912,-35.1891"/>
<polygon fill="midnightblue" stroke="midnightblue" points="668.391,-35.5801 666.296,-25.1945 661.458,-34.62 668.391,-35.5801"/>
</g>
<!-- Node8&#45;&gt;Node6 -->
<g id="edge11" class="edge"><title>Node8&#45;&gt;Node6</title>
<path fill="none" stroke="midnightblue" d="M691.048,-67.396C713.259,-57.7709 742.878,-44.9362 766.814,-34.5637"/>
<polygon fill="midnightblue" stroke="midnightblue" points="768.232,-37.7641 776.016,-30.5765 765.449,-31.3412 768.232,-37.7641"/>
</g>
<!-- Node9&#45;&gt;Node5 -->
<g id="edge13" class="edge"><title>Node9&#45;&gt;Node5</title>
<path fill="none" stroke="midnightblue" d="M785.735,-67.396C759.241,-55.991 722.277,-40.0794 696.765,-29.0976"/>
<polygon fill="midnightblue" stroke="midnightblue" points="697.831,-25.7461 687.262,-25.007 695.064,-32.1757 697.831,-25.7461"/>
</g>
<!-- Node9&#45;&gt;Node6 -->
<g id="edge14" class="edge"><title>Node9&#45;&gt;Node6</title>
<path fill="none" stroke="midnightblue" d="M816.33,-67.396C815.125,-59.5597 813.592,-49.5958 812.202,-40.5653"/>
<polygon fill="midnightblue" stroke="midnightblue" points="815.646,-39.928 810.666,-30.5765 808.727,-40.9925 815.646,-39.928"/>
</g>
<!-- Node10&#45;&gt;Node5 -->
<g id="edge16" class="edge"><title>Node10&#45;&gt;Node5</title>
<path fill="none" stroke="midnightblue" d="M911.401,-67.476C853.478,-55.3701 771.052,-38.1427 718.42,-27.1424"/>
<polygon fill="midnightblue" stroke="midnightblue" points="718.811,-23.6486 708.306,-25.0287 717.379,-30.5005 718.811,-23.6486"/>
</g>
<!-- Node10&#45;&gt;Node6 -->
<g id="edge17" class="edge"><title>Node10&#45;&gt;Node6</title>
<path fill="none" stroke="midnightblue" d="M941.613,-67.396C916.105,-57.6432 881.979,-44.5949 854.667,-34.152"/>
<polygon fill="midnightblue" stroke="midnightblue" points="855.906,-30.8788 845.315,-30.5765 853.406,-37.4171 855.906,-30.8788"/>
</g>
<!-- Node11&#45;&gt;Node5 -->
<g id="edge19" class="edge"><title>Node11&#45;&gt;Node5</title>
<path fill="none" stroke="midnightblue" d="M1067.44,-68.3723C1064.42,-67.8932 1061.43,-67.4334 1058.5,-67 919.54,-46.4631 883.389,-52.0112 744.5,-31 736.468,-29.7849 727.993,-28.3476 719.719,-26.858"/>
<polygon fill="midnightblue" stroke="midnightblue" points="720.238,-23.3948 709.769,-25.0264 718.97,-30.2791 720.238,-23.3948"/>
</g>
<!-- Node11&#45;&gt;Node6 -->
<g id="edge20" class="edge"><title>Node11&#45;&gt;Node6</title>
<path fill="none" stroke="midnightblue" d="M1067.3,-67.476C1009.78,-56.1453 929.473,-40.3281 873.633,-29.3292"/>
<polygon fill="midnightblue" stroke="midnightblue" points="873.99,-25.8324 863.502,-27.3337 872.637,-32.7004 873.99,-25.8324"/>
</g>
</g>
</svg>
