<?xml version="1.0" encoding="UTF-8" standalone="no"?>
<!DOCTYPE svg PUBLIC "-//W3C//DTD SVG 1.1//EN"
 "http://www.w3.org/Graphics/SVG/1.1/DTD/svg11.dtd">
<!-- Generated by graphviz version 2.38.0 (20140413.2041)
 -->
<!-- Title: include/userobjects/DwarfElephantRBStructuresT5F3O1SteadyState.h Pages: 1 -->
<!--zoomable 184 -->
<svg id="main" version="1.1" xmlns="http://www.w3.org/2000/svg" xmlns:xlink="http://www.w3.org/1999/xlink" xml:space="preserve" onload="init(evt)">
<style type="text/css"><![CDATA[
.edge:hover path { stroke: red; }
.edge:hover polygon { stroke: red; fill: red; }
]]></style>
<script type="text/javascript"><![CDATA[
var edges = document.getElementsByTagName('g');
if (edges && edges.length) {
  for (var i=0;i<edges.length;i++) {
    if (edges[i].id.substr(0,4)=='edge') {
      edges[i].setAttribute('class','edge');
    }
  }
}
]]></script>
        <defs>
                <circle id="rim" cx="0" cy="0" r="7"/>
                <circle id="rim2" cx="0" cy="0" r="3.5"/>
                <g id="zoomPlus">
                        <use xlink:href="#rim" fill="#404040">
                                <set attributeName="fill" to="#808080" begin="zoomplus.mouseover" end="zoomplus.mouseout"/>
                        </use>
                        <path d="M-4,0h8M0,-4v8" fill="none" stroke="white" stroke-width="1.5" pointer-events="none"/>
                </g>
                <g id="zoomMin">
                        <use xlink:href="#rim" fill="#404040">
                                <set attributeName="fill" to="#808080" begin="zoomminus.mouseover" end="zoomminus.mouseout"/>
                        </use>
                        <path d="M-4,0h8" fill="none" stroke="white" stroke-width="1.5" pointer-events="none"/>
                </g>
                <g id="dirArrow">
                        <path fill="none" stroke="white" stroke-width="1.5" d="M0,-3.0v7 M-2.5,-0.5L0,-3.0L2.5,-0.5"/>
                </g>
               <g id="resetDef">
                       <use xlink:href="#rim2" fill="#404040">
                               <set attributeName="fill" to="#808080" begin="reset.mouseover" end="reset.mouseout"/>
                       </use>
               </g>
        </defs>

<script type="text/javascript">
var viewWidth = 3382;
var viewHeight = 184;
var sectionId = 'dynsection-0';
</script>
<script xlink:href="svgpan.js"/>
<svg id="graph" class="graph">
<g id="viewport">
<title>include/userobjects/DwarfElephantRBStructuresT5F3O1SteadyState.h</title>
<polygon fill="white" stroke="none" points="-4,4 -4,-180 3378.37,-180 3378.37,4 -4,4"/>
<!-- Node1 -->
<g id="node1" class="node"><title>Node1</title>
<polygon fill="#bfbfbf" stroke="black" points="1615.19,-134.5 1615.19,-175.5 1759.19,-175.5 1759.19,-134.5 1615.19,-134.5"/>
<text text-anchor="start" x="1623.19" y="-163.5" font-family="Helvetica,sans-Serif" font-size="10.00">include/userobjects</text>
<text text-anchor="start" x="1623.19" y="-152.5" font-family="Helvetica,sans-Serif" font-size="10.00">/DwarfElephantRBStructures</text>
<text text-anchor="middle" x="1687.19" y="-141.5" font-family="Helvetica,sans-Serif" font-size="10.00">T5F3O1SteadyState.h</text>
</g>
<!-- Node2 -->
<g id="node2" class="node"><title>Node2</title>
<polygon fill="white" stroke="#bfbfbf" points="1495.69,-6 1495.69,-25 1594.69,-25 1594.69,-6 1495.69,-6"/>
<text text-anchor="middle" x="1545.19" y="-13" font-family="Helvetica,sans-Serif" font-size="10.00">libmesh/rb_theta.h</text>
</g>
<!-- Node1&#45;&gt;Node2 -->
<g id="edge1" class="edge"><title>Node1&#45;&gt;Node2</title>
<path fill="none" stroke="midnightblue" d="M1615.04,-154.357C1300.71,-155.565 63.8351,-156.57 7.18511,-98 -2.3936,-88.0967 -2.39606,-76.9009 7.18511,-67 59.4325,-13.0089 1207.73,-14.9126 1485.22,-16.1666"/>
<polygon fill="midnightblue" stroke="midnightblue" points="1485.47,-19.6677 1495.49,-16.2145 1485.51,-12.6678 1485.47,-19.6677"/>
</g>
<!-- Node3 -->
<g id="node3" class="node"><title>Node3</title>
<polygon fill="white" stroke="#bfbfbf" points="1712.19,-0.5 1712.19,-30.5 1822.19,-30.5 1822.19,-0.5 1712.19,-0.5"/>
<text text-anchor="start" x="1720.19" y="-18.5" font-family="Helvetica,sans-Serif" font-size="10.00">libmesh/rb_assembly</text>
<text text-anchor="middle" x="1767.19" y="-7.5" font-family="Helvetica,sans-Serif" font-size="10.00">_expansion.h</text>
</g>
<!-- Node1&#45;&gt;Node3 -->
<g id="edge2" class="edge"><title>Node1&#45;&gt;Node3</title>
<path fill="none" stroke="midnightblue" d="M1759.33,-154.357C2073.66,-155.565 3310.54,-156.57 3367.19,-98 3376.76,-88.0967 3376.77,-76.8948 3367.19,-67 3340.05,-38.9993 2130.43,-21.277 1832.81,-17.3355"/>
<polygon fill="midnightblue" stroke="midnightblue" points="1832.66,-13.8333 1822.61,-17.2011 1832.57,-20.8327 1832.66,-13.8333"/>
</g>
<!-- Node4 -->
<g id="node4" class="node"><title>Node4</title>
<g id="a_node4"><a xlink:href="_dwarf_elephant_r_b_structures_a00_theta_constant_8h.html" target="_top" xlink:title="DwarfElephantRBStructures\lA00ThetaConstant.h">
<polygon fill="white" stroke="black" points="1456.19,-67.5 1456.19,-97.5 1598.19,-97.5 1598.19,-67.5 1456.19,-67.5"/>
<text text-anchor="start" x="1464.19" y="-85.5" font-family="Helvetica,sans-Serif" font-size="10.00">DwarfElephantRBStructures</text>
<text text-anchor="middle" x="1527.19" y="-74.5" font-family="Helvetica,sans-Serif" font-size="10.00">A00ThetaConstant.h</text>
</a>
</g>
</g>
<!-- Node1&#45;&gt;Node4 -->
<g id="edge3" class="edge"><title>Node1&#45;&gt;Node4</title>
<path fill="none" stroke="midnightblue" d="M1642.62,-134.362C1619.4,-124.13 1591.18,-111.7 1568.46,-101.689"/>
<polygon fill="midnightblue" stroke="midnightblue" points="1569.66,-98.389 1559.09,-97.5597 1566.83,-104.795 1569.66,-98.389"/>
</g>
<!-- Node5 -->
<g id="node5" class="node"><title>Node5</title>
<g id="a_node5"><a xlink:href="_dwarf_elephant_r_b_structures_a0_theta_equal_mu0_8h.html" target="_top" xlink:title="DwarfElephantRBStructures\lA0ThetaEqualMu0.h">
<polygon fill="white" stroke="black" points="1616.19,-67.5 1616.19,-97.5 1758.19,-97.5 1758.19,-67.5 1616.19,-67.5"/>
<text text-anchor="start" x="1624.19" y="-85.5" font-family="Helvetica,sans-Serif" font-size="10.00">DwarfElephantRBStructures</text>
<text text-anchor="middle" x="1687.19" y="-74.5" font-family="Helvetica,sans-Serif" font-size="10.00">A0ThetaEqualMu0.h</text>
</a>
</g>
</g>
<!-- Node1&#45;&gt;Node5 -->
<g id="edge6" class="edge"><title>Node1&#45;&gt;Node5</title>
<path fill="none" stroke="midnightblue" d="M1687.19,-134.362C1687.19,-126.226 1687.19,-116.7 1687.19,-108.105"/>
<polygon fill="midnightblue" stroke="midnightblue" points="1690.69,-107.892 1687.19,-97.8916 1683.69,-107.892 1690.69,-107.892"/>
</g>
<!-- Node6 -->
<g id="node6" class="node"><title>Node6</title>
<g id="a_node6"><a xlink:href="_dwarf_elephant_r_b_structures_a0_theta_norm_mu0_8h.html" target="_top" xlink:title="DwarfElephantRBStructures\lA0ThetaNormMu0.h">
<polygon fill="white" stroke="black" points="1776.19,-67.5 1776.19,-97.5 1918.19,-97.5 1918.19,-67.5 1776.19,-67.5"/>
<text text-anchor="start" x="1784.19" y="-85.5" font-family="Helvetica,sans-Serif" font-size="10.00">DwarfElephantRBStructures</text>
<text text-anchor="middle" x="1847.19" y="-74.5" font-family="Helvetica,sans-Serif" font-size="10.00">A0ThetaNormMu0.h</text>
</a>
</g>
</g>
<!-- Node1&#45;&gt;Node6 -->
<g id="edge9" class="edge"><title>Node1&#45;&gt;Node6</title>
<path fill="none" stroke="midnightblue" d="M1731.75,-134.362C1754.97,-124.13 1783.19,-111.7 1805.91,-101.689"/>
<polygon fill="midnightblue" stroke="midnightblue" points="1807.54,-104.795 1815.28,-97.5597 1804.71,-98.389 1807.54,-104.795"/>
</g>
<!-- Node7 -->
<g id="node7" class="node"><title>Node7</title>
<g id="a_node7"><a xlink:href="_dwarf_elephant_r_b_structures_a0_theta_norm_mu1_8h.html" target="_top" xlink:title="DwarfElephantRBStructures\lA0ThetaNormMu1.h">
<polygon fill="white" stroke="black" points="1936.19,-67.5 1936.19,-97.5 2078.19,-97.5 2078.19,-67.5 1936.19,-67.5"/>
<text text-anchor="start" x="1944.19" y="-85.5" font-family="Helvetica,sans-Serif" font-size="10.00">DwarfElephantRBStructures</text>
<text text-anchor="middle" x="2007.19" y="-74.5" font-family="Helvetica,sans-Serif" font-size="10.00">A0ThetaNormMu1.h</text>
</a>
</g>
</g>
<!-- Node1&#45;&gt;Node7 -->
<g id="edge12" class="edge"><title>Node1&#45;&gt;Node7</title>
<path fill="none" stroke="midnightblue" d="M1759.4,-138.091C1811.44,-126.626 1881.42,-111.207 1933.74,-99.6806"/>
<polygon fill="midnightblue" stroke="midnightblue" points="1934.61,-103.072 1943.63,-97.5025 1933.11,-96.2361 1934.61,-103.072"/>
</g>
<!-- Node8 -->
<g id="node8" class="node"><title>Node8</title>
<g id="a_node8"><a xlink:href="_dwarf_elephant_r_b_structures_a0_theta_norm_mu3_8h.html" target="_top" xlink:title="DwarfElephantRBStructures\lA0ThetaNormMu3.h">
<polygon fill="white" stroke="black" points="2096.19,-67.5 2096.19,-97.5 2238.19,-97.5 2238.19,-67.5 2096.19,-67.5"/>
<text text-anchor="start" x="2104.19" y="-85.5" font-family="Helvetica,sans-Serif" font-size="10.00">DwarfElephantRBStructures</text>
<text text-anchor="middle" x="2167.19" y="-74.5" font-family="Helvetica,sans-Serif" font-size="10.00">A0ThetaNormMu3.h</text>
</a>
</g>
</g>
<!-- Node1&#45;&gt;Node8 -->
<g id="edge15" class="edge"><title>Node1&#45;&gt;Node8</title>
<path fill="none" stroke="midnightblue" d="M1759.21,-144.803C1837.2,-134.643 1965.52,-117.348 2085.97,-98.1581"/>
<polygon fill="midnightblue" stroke="midnightblue" points="2086.79,-101.572 2096.11,-96.5354 2085.68,-94.6599 2086.79,-101.572"/>
</g>
<!-- Node9 -->
<g id="node9" class="node"><title>Node9</title>
<g id="a_node9"><a xlink:href="_dwarf_elephant_r_b_structures_a1_theta_equal_mu1_8h.html" target="_top" xlink:title="DwarfElephantRBStructures\lA1ThetaEqualMu1.h">
<polygon fill="white" stroke="black" points="2256.19,-67.5 2256.19,-97.5 2398.19,-97.5 2398.19,-67.5 2256.19,-67.5"/>
<text text-anchor="start" x="2264.19" y="-85.5" font-family="Helvetica,sans-Serif" font-size="10.00">DwarfElephantRBStructures</text>
<text text-anchor="middle" x="2327.19" y="-74.5" font-family="Helvetica,sans-Serif" font-size="10.00">A1ThetaEqualMu1.h</text>
</a>
</g>
</g>
<!-- Node1&#45;&gt;Node9 -->
<g id="edge18" class="edge"><title>Node1&#45;&gt;Node9</title>
<path fill="none" stroke="midnightblue" d="M1759.45,-148.624C1864.42,-140.405 2065.35,-123.125 2246.17,-98.0722"/>
<polygon fill="midnightblue" stroke="midnightblue" points="2246.71,-101.531 2256.13,-96.6814 2245.74,-94.5981 2246.71,-101.531"/>
</g>
<!-- Node10 -->
<g id="node10" class="node"><title>Node10</title>
<g id="a_node10"><a xlink:href="_dwarf_elephant_r_b_structures_a1_theta_norm_mu0_8h.html" target="_top" xlink:title="DwarfElephantRBStructures\lA1ThetaNormMu0.h">
<polygon fill="white" stroke="black" points="2416.19,-67.5 2416.19,-97.5 2558.19,-97.5 2558.19,-67.5 2416.19,-67.5"/>
<text text-anchor="start" x="2424.19" y="-85.5" font-family="Helvetica,sans-Serif" font-size="10.00">DwarfElephantRBStructures</text>
<text text-anchor="middle" x="2487.19" y="-74.5" font-family="Helvetica,sans-Serif" font-size="10.00">A1ThetaNormMu0.h</text>
</a>
</g>
</g>
<!-- Node1&#45;&gt;Node10 -->
<g id="edge21" class="edge"><title>Node1&#45;&gt;Node10</title>
<path fill="none" stroke="midnightblue" d="M1759.23,-150.826C1887.36,-144.647 2163.4,-128.935 2406.07,-98.0561"/>
<polygon fill="midnightblue" stroke="midnightblue" points="2406.67,-101.508 2416.14,-96.7633 2405.78,-94.5651 2406.67,-101.508"/>
</g>
<!-- Node11 -->
<g id="node11" class="node"><title>Node11</title>
<g id="a_node11"><a xlink:href="_dwarf_elephant_r_b_structures_a1_theta_norm_mu1_8h.html" target="_top" xlink:title="DwarfElephantRBStructures\lA1ThetaNormMu1.h">
<polygon fill="white" stroke="black" points="2576.19,-67.5 2576.19,-97.5 2718.19,-97.5 2718.19,-67.5 2576.19,-67.5"/>
<text text-anchor="start" x="2584.19" y="-85.5" font-family="Helvetica,sans-Serif" font-size="10.00">DwarfElephantRBStructures</text>
<text text-anchor="middle" x="2647.19" y="-74.5" font-family="Helvetica,sans-Serif" font-size="10.00">A1ThetaNormMu1.h</text>
</a>
</g>
</g>
<!-- Node1&#45;&gt;Node11 -->
<g id="edge24" class="edge"><title>Node1&#45;&gt;Node11</title>
<path fill="none" stroke="midnightblue" d="M1759.31,-152.236C1908.29,-147.978 2260.9,-134.726 2566.22,-98.0197"/>
<polygon fill="midnightblue" stroke="midnightblue" points="2566.64,-101.494 2576.15,-96.8156 2565.8,-94.545 2566.64,-101.494"/>
</g>
<!-- Node12 -->
<g id="node12" class="node"><title>Node12</title>
<g id="a_node12"><a xlink:href="_dwarf_elephant_r_b_structures_a1_theta_norm_mu3_8h.html" target="_top" xlink:title="DwarfElephantRBStructures\lA1ThetaNormMu3.h">
<polygon fill="white" stroke="black" points="2736.19,-67.5 2736.19,-97.5 2878.19,-97.5 2878.19,-67.5 2736.19,-67.5"/>
<text text-anchor="start" x="2744.19" y="-85.5" font-family="Helvetica,sans-Serif" font-size="10.00">DwarfElephantRBStructures</text>
<text text-anchor="middle" x="2807.19" y="-74.5" font-family="Helvetica,sans-Serif" font-size="10.00">A1ThetaNormMu3.h</text>
</a>
</g>
</g>
<!-- Node1&#45;&gt;Node12 -->
<g id="edge27" class="edge"><title>Node1&#45;&gt;Node12</title>
<path fill="none" stroke="midnightblue" d="M1759.32,-153.227C1927.25,-150.756 2357.45,-140.555 2726.09,-98.0231"/>
<polygon fill="midnightblue" stroke="midnightblue" points="2726.63,-101.484 2736.15,-96.8519 2725.82,-94.5312 2726.63,-101.484"/>
</g>
<!-- Node13 -->
<g id="node13" class="node"><title>Node13</title>
<g id="a_node13"><a xlink:href="_dwarf_elephant_r_b_structures_a2_theta_equal_mu2_8h.html" target="_top" xlink:title="DwarfElephantRBStructures\lA2ThetaEqualMu2.h">
<polygon fill="white" stroke="black" points="2896.19,-67.5 2896.19,-97.5 3038.19,-97.5 3038.19,-67.5 2896.19,-67.5"/>
<text text-anchor="start" x="2904.19" y="-85.5" font-family="Helvetica,sans-Serif" font-size="10.00">DwarfElephantRBStructures</text>
<text text-anchor="middle" x="2967.19" y="-74.5" font-family="Helvetica,sans-Serif" font-size="10.00">A2ThetaEqualMu2.h</text>
</a>
</g>
</g>
<!-- Node1&#45;&gt;Node13 -->
<g id="edge30" class="edge"><title>Node1&#45;&gt;Node13</title>
<path fill="none" stroke="midnightblue" d="M1759.48,-153.961C1945.08,-153.145 2453.56,-146.392 2885.96,-98.0288"/>
<polygon fill="midnightblue" stroke="midnightblue" points="2886.61,-101.477 2896.16,-96.8786 2885.83,-94.5212 2886.61,-101.477"/>
</g>
<!-- Node14 -->
<g id="node14" class="node"><title>Node14</title>
<g id="a_node14"><a xlink:href="_dwarf_elephant_r_b_structures_a2_theta_norm_mu0_8h.html" target="_top" xlink:title="DwarfElephantRBStructures\lA2ThetaNormMu0.h">
<polygon fill="white" stroke="black" points="3056.19,-67.5 3056.19,-97.5 3198.19,-97.5 3198.19,-67.5 3056.19,-67.5"/>
<text text-anchor="start" x="3064.19" y="-85.5" font-family="Helvetica,sans-Serif" font-size="10.00">DwarfElephantRBStructures</text>
<text text-anchor="middle" x="3127.19" y="-74.5" font-family="Helvetica,sans-Serif" font-size="10.00">A2ThetaNormMu0.h</text>
</a>
</g>
</g>
<!-- Node1&#45;&gt;Node14 -->
<g id="edge33" class="edge"><title>Node1&#45;&gt;Node14</title>
<path fill="none" stroke="midnightblue" d="M1759.33,-154.528C1961.22,-155.259 2549.06,-152.274 3045.91,-98.0264"/>
<polygon fill="midnightblue" stroke="midnightblue" points="3046.6,-101.472 3056.16,-96.899 3045.84,-94.5138 3046.6,-101.472"/>
</g>
<!-- Node15 -->
<g id="node15" class="node"><title>Node15</title>
<g id="a_node15"><a xlink:href="_dwarf_elephant_r_b_structures_a2_theta_norm_mu1_8h.html" target="_top" xlink:title="DwarfElephantRBStructures\lA2ThetaNormMu1.h">
<polygon fill="white" stroke="black" points="3216.19,-67.5 3216.19,-97.5 3358.19,-97.5 3358.19,-67.5 3216.19,-67.5"/>
<text text-anchor="start" x="3224.19" y="-85.5" font-family="Helvetica,sans-Serif" font-size="10.00">DwarfElephantRBStructures</text>
<text text-anchor="middle" x="3287.19" y="-74.5" font-family="Helvetica,sans-Serif" font-size="10.00">A2ThetaNormMu1.h</text>
</a>
</g>
</g>
<!-- Node1&#45;&gt;Node15 -->
<g id="edge36" class="edge"><title>Node1&#45;&gt;Node15</title>
<path fill="none" stroke="midnightblue" d="M1759.25,-152.708C2018.08,-147.859 2901.06,-129.446 3206,-97.9919"/>
<polygon fill="midnightblue" stroke="midnightblue" points="3206.59,-101.449 3216.16,-96.9151 3205.85,-94.4881 3206.59,-101.449"/>
</g>
<!-- Node16 -->
<g id="node16" class="node"><title>Node16</title>
<g id="a_node16"><a xlink:href="_dwarf_elephant_r_b_structures_a2_theta_norm_mu3_8h.html" target="_top" xlink:title="DwarfElephantRBStructures\lA2ThetaNormMu3.h">
<polygon fill="white" stroke="black" points="16.1851,-67.5 16.1851,-97.5 158.185,-97.5 158.185,-67.5 16.1851,-67.5"/>
<text text-anchor="start" x="24.1851" y="-85.5" font-family="Helvetica,sans-Serif" font-size="10.00">DwarfElephantRBStructures</text>
<text text-anchor="middle" x="87.1851" y="-74.5" font-family="Helvetica,sans-Serif" font-size="10.00">A2ThetaNormMu3.h</text>
</a>
</g>
</g>
<!-- Node1&#45;&gt;Node16 -->
<g id="edge39" class="edge"><title>Node1&#45;&gt;Node16</title>
<path fill="none" stroke="midnightblue" d="M1615.12,-152.708C1356.29,-147.859 473.314,-129.446 168.374,-97.9919"/>
<polygon fill="midnightblue" stroke="midnightblue" points="168.522,-94.4881 158.209,-96.9151 167.784,-101.449 168.522,-94.4881"/>
</g>
<!-- Node17 -->
<g id="node17" class="node"><title>Node17</title>
<g id="a_node17"><a xlink:href="_dwarf_elephant_r_b_structures_a3_theta_equal_mu3_8h.html" target="_top" xlink:title="DwarfElephantRBStructures\lA3ThetaEqualMu3.h">
<polygon fill="white" stroke="black" points="176.185,-67.5 176.185,-97.5 318.185,-97.5 318.185,-67.5 176.185,-67.5"/>
<text text-anchor="start" x="184.185" y="-85.5" font-family="Helvetica,sans-Serif" font-size="10.00">DwarfElephantRBStructures</text>
<text text-anchor="middle" x="247.185" y="-74.5" font-family="Helvetica,sans-Serif" font-size="10.00">A3ThetaEqualMu3.h</text>
</a>
</g>
</g>
<!-- Node1&#45;&gt;Node17 -->
<g id="edge42" class="edge"><title>Node1&#45;&gt;Node17</title>
<path fill="none" stroke="midnightblue" d="M1615.04,-154.528C1413.15,-155.259 825.308,-152.274 328.457,-98.0264"/>
<polygon fill="midnightblue" stroke="midnightblue" points="328.533,-94.5138 318.21,-96.899 327.768,-101.472 328.533,-94.5138"/>
</g>
<!-- Node18 -->
<g id="node18" class="node"><title>Node18</title>
<g id="a_node18"><a xlink:href="_dwarf_elephant_r_b_structures_a3_theta_norm_mu0_8h.html" target="_top" xlink:title="DwarfElephantRBStructures\lA3ThetaNormMu0.h">
<polygon fill="white" stroke="black" points="336.185,-67.5 336.185,-97.5 478.185,-97.5 478.185,-67.5 336.185,-67.5"/>
<text text-anchor="start" x="344.185" y="-85.5" font-family="Helvetica,sans-Serif" font-size="10.00">DwarfElephantRBStructures</text>
<text text-anchor="middle" x="407.185" y="-74.5" font-family="Helvetica,sans-Serif" font-size="10.00">A3ThetaNormMu0.h</text>
</a>
</g>
</g>
<!-- Node1&#45;&gt;Node18 -->
<g id="edge45" class="edge"><title>Node1&#45;&gt;Node18</title>
<path fill="none" stroke="midnightblue" d="M1614.89,-153.961C1429.29,-153.145 920.813,-146.392 488.413,-98.0288"/>
<polygon fill="midnightblue" stroke="midnightblue" points="488.542,-94.5212 478.213,-96.8786 487.758,-101.477 488.542,-94.5212"/>
</g>
<!-- Node19 -->
<g id="node19" class="node"><title>Node19</title>
<g id="a_node19"><a xlink:href="_dwarf_elephant_r_b_structures_a3_theta_norm_mu1_8h.html" target="_top" xlink:title="DwarfElephantRBStructures\lA3ThetaNormMu1.h">
<polygon fill="white" stroke="black" points="496.185,-67.5 496.185,-97.5 638.185,-97.5 638.185,-67.5 496.185,-67.5"/>
<text text-anchor="start" x="504.185" y="-85.5" font-family="Helvetica,sans-Serif" font-size="10.00">DwarfElephantRBStructures</text>
<text text-anchor="middle" x="567.185" y="-74.5" font-family="Helvetica,sans-Serif" font-size="10.00">A3ThetaNormMu1.h</text>
</a>
</g>
</g>
<!-- Node1&#45;&gt;Node19 -->
<g id="edge48" class="edge"><title>Node1&#45;&gt;Node19</title>
<path fill="none" stroke="midnightblue" d="M1615.05,-153.227C1447.12,-150.756 1016.92,-140.555 648.281,-98.0231"/>
<polygon fill="midnightblue" stroke="midnightblue" points="648.553,-94.5312 638.216,-96.8519 647.744,-101.484 648.553,-94.5312"/>
</g>
<!-- Node20 -->
<g id="node20" class="node"><title>Node20</title>
<g id="a_node20"><a xlink:href="_dwarf_elephant_r_b_structures_a3_theta_norm_mu3_8h.html" target="_top" xlink:title="DwarfElephantRBStructures\lA3ThetaNormMu3.h">
<polygon fill="white" stroke="black" points="656.185,-67.5 656.185,-97.5 798.185,-97.5 798.185,-67.5 656.185,-67.5"/>
<text text-anchor="start" x="664.185" y="-85.5" font-family="Helvetica,sans-Serif" font-size="10.00">DwarfElephantRBStructures</text>
<text text-anchor="middle" x="727.185" y="-74.5" font-family="Helvetica,sans-Serif" font-size="10.00">A3ThetaNormMu3.h</text>
</a>
</g>
</g>
<!-- Node1&#45;&gt;Node20 -->
<g id="edge51" class="edge"><title>Node1&#45;&gt;Node20</title>
<path fill="none" stroke="midnightblue" d="M1615.06,-152.236C1466.08,-147.978 1113.47,-134.726 808.149,-98.0197"/>
<polygon fill="midnightblue" stroke="midnightblue" points="808.569,-94.545 798.22,-96.8156 807.726,-101.494 808.569,-94.545"/>
</g>
<!-- Node21 -->
<g id="node21" class="node"><title>Node21</title>
<g id="a_node21"><a xlink:href="_dwarf_elephant_r_b_structures_a4_theta_equal_mu4_8h.html" target="_top" xlink:title="DwarfElephantRBStructures\lA4ThetaEqualMu4.h">
<polygon fill="white" stroke="black" points="816.185,-67.5 816.185,-97.5 958.185,-97.5 958.185,-67.5 816.185,-67.5"/>
<text text-anchor="start" x="824.185" y="-85.5" font-family="Helvetica,sans-Serif" font-size="10.00">DwarfElephantRBStructures</text>
<text text-anchor="middle" x="887.185" y="-74.5" font-family="Helvetica,sans-Serif" font-size="10.00">A4ThetaEqualMu4.h</text>
</a>
</g>
</g>
<!-- Node1&#45;&gt;Node21 -->
<g id="edge54" class="edge"><title>Node1&#45;&gt;Node21</title>
<path fill="none" stroke="midnightblue" d="M1615.14,-150.826C1487.02,-144.647 1210.97,-128.935 968.298,-98.0561"/>
<polygon fill="midnightblue" stroke="midnightblue" points="968.591,-94.5651 958.227,-96.7633 967.7,-101.508 968.591,-94.5651"/>
</g>
<!-- Node22 -->
<g id="node22" class="node"><title>Node22</title>
<g id="a_node22"><a xlink:href="_dwarf_elephant_r_b_structures_a4_theta_norm_mu0_8h.html" target="_top" xlink:title="DwarfElephantRBStructures\lA4ThetaNormMu0.h">
<polygon fill="white" stroke="black" points="976.185,-67.5 976.185,-97.5 1118.19,-97.5 1118.19,-67.5 976.185,-67.5"/>
<text text-anchor="start" x="984.185" y="-85.5" font-family="Helvetica,sans-Serif" font-size="10.00">DwarfElephantRBStructures</text>
<text text-anchor="middle" x="1047.19" y="-74.5" font-family="Helvetica,sans-Serif" font-size="10.00">A4ThetaNormMu0.h</text>
</a>
</g>
</g>
<!-- Node1&#45;&gt;Node22 -->
<g id="edge57" class="edge"><title>Node1&#45;&gt;Node22</title>
<path fill="none" stroke="midnightblue" d="M1614.92,-148.624C1509.95,-140.405 1309.02,-123.125 1128.2,-98.0722"/>
<polygon fill="midnightblue" stroke="midnightblue" points="1128.63,-94.5981 1118.24,-96.6814 1127.66,-101.531 1128.63,-94.5981"/>
</g>
<!-- Node23 -->
<g id="node23" class="node"><title>Node23</title>
<g id="a_node23"><a xlink:href="_dwarf_elephant_r_b_structures_a4_theta_norm_mu1_8h.html" target="_top" xlink:title="DwarfElephantRBStructures\lA4ThetaNormMu1.h">
<polygon fill="white" stroke="black" points="1136.19,-67.5 1136.19,-97.5 1278.19,-97.5 1278.19,-67.5 1136.19,-67.5"/>
<text text-anchor="start" x="1144.19" y="-85.5" font-family="Helvetica,sans-Serif" font-size="10.00">DwarfElephantRBStructures</text>
<text text-anchor="middle" x="1207.19" y="-74.5" font-family="Helvetica,sans-Serif" font-size="10.00">A4ThetaNormMu1.h</text>
</a>
</g>
</g>
<!-- Node1&#45;&gt;Node23 -->
<g id="edge60" class="edge"><title>Node1&#45;&gt;Node23</title>
<path fill="none" stroke="midnightblue" d="M1615.16,-144.803C1537.17,-134.643 1408.85,-117.348 1288.4,-98.1581"/>
<polygon fill="midnightblue" stroke="midnightblue" points="1288.69,-94.6599 1278.26,-96.5354 1287.58,-101.572 1288.69,-94.6599"/>
</g>
<!-- Node24 -->
<g id="node24" class="node"><title>Node24</title>
<g id="a_node24"><a xlink:href="_dwarf_elephant_r_b_structures_a4_theta_norm_mu3_8h.html" target="_top" xlink:title="DwarfElephantRBStructures\lA4ThetaNormMu3.h">
<polygon fill="white" stroke="black" points="1296.19,-67.5 1296.19,-97.5 1438.19,-97.5 1438.19,-67.5 1296.19,-67.5"/>
<text text-anchor="start" x="1304.19" y="-85.5" font-family="Helvetica,sans-Serif" font-size="10.00">DwarfElephantRBStructures</text>
<text text-anchor="middle" x="1367.19" y="-74.5" font-family="Helvetica,sans-Serif" font-size="10.00">A4ThetaNormMu3.h</text>
</a>
</g>
</g>
<!-- Node1&#45;&gt;Node24 -->
<g id="edge63" class="edge"><title>Node1&#45;&gt;Node24</title>
<path fill="none" stroke="midnightblue" d="M1614.97,-138.091C1562.93,-126.626 1492.95,-111.207 1440.63,-99.6806"/>
<polygon fill="midnightblue" stroke="midnightblue" points="1441.26,-96.2361 1430.74,-97.5025 1439.76,-103.072 1441.26,-96.2361"/>
</g>
<!-- Node4&#45;&gt;Node2 -->
<g id="edge4" class="edge"><title>Node4&#45;&gt;Node2</title>
<path fill="none" stroke="midnightblue" d="M1531.09,-67.396C1533.73,-57.8631 1537.24,-45.1818 1540.1,-34.8624"/>
<polygon fill="midnightblue" stroke="midnightblue" points="1543.48,-35.7659 1542.78,-25.1945 1536.74,-33.8977 1543.48,-35.7659"/>
</g>
<!-- Node4&#45;&gt;Node3 -->
<g id="edge5" class="edge"><title>Node4&#45;&gt;Node3</title>
<path fill="none" stroke="midnightblue" d="M1578.97,-67.476C1616.06,-57.4297 1666.18,-43.8564 1705.37,-33.2418"/>
<polygon fill="midnightblue" stroke="midnightblue" points="1706.35,-36.6034 1715.08,-30.6109 1704.52,-29.8469 1706.35,-36.6034"/>
</g>
<!-- Node5&#45;&gt;Node2 -->
<g id="edge7" class="edge"><title>Node5&#45;&gt;Node2</title>
<path fill="none" stroke="midnightblue" d="M1656.37,-67.396C1631.57,-56.0414 1597,-40.2201 1573.03,-29.2437"/>
<polygon fill="midnightblue" stroke="midnightblue" points="1574.32,-25.9868 1563.77,-25.007 1571.41,-32.3516 1574.32,-25.9868"/>
</g>
<!-- Node5&#45;&gt;Node3 -->
<g id="edge8" class="edge"><title>Node5&#45;&gt;Node3</title>
<path fill="none" stroke="midnightblue" d="M1704.54,-67.396C1715.45,-58.5375 1729.7,-46.9604 1741.85,-37.0861"/>
<polygon fill="midnightblue" stroke="midnightblue" points="1744.31,-39.5989 1749.86,-30.5765 1739.89,-34.1661 1744.31,-39.5989"/>
</g>
<!-- Node6&#45;&gt;Node2 -->
<g id="edge10" class="edge"><title>Node6&#45;&gt;Node2</title>
<path fill="none" stroke="midnightblue" d="M1782.03,-67.476C1725.78,-55.3701 1645.74,-38.1427 1594.63,-27.1424"/>
<polygon fill="midnightblue" stroke="midnightblue" points="1595.32,-23.7112 1584.81,-25.0287 1593.85,-30.5545 1595.32,-23.7112"/>
</g>
<!-- Node6&#45;&gt;Node3 -->
<g id="edge11" class="edge"><title>Node6&#45;&gt;Node3</title>
<path fill="none" stroke="midnightblue" d="M1829.83,-67.396C1818.92,-58.5375 1804.67,-46.9604 1792.52,-37.0861"/>
<polygon fill="midnightblue" stroke="midnightblue" points="1794.48,-34.1661 1784.51,-30.5765 1790.06,-39.5989 1794.48,-34.1661"/>
</g>
<!-- Node7&#45;&gt;Node2 -->
<g id="edge13" class="edge"><title>Node7&#45;&gt;Node2</title>
<path fill="none" stroke="midnightblue" d="M1936.11,-68.4363C1933.1,-67.9397 1930.11,-67.4587 1927.19,-67 1813.57,-49.2036 1680.28,-32.5354 1604.98,-23.5057"/>
<polygon fill="midnightblue" stroke="midnightblue" points="1605.09,-19.9943 1594.74,-22.283 1604.26,-26.9449 1605.09,-19.9943"/>
</g>
<!-- Node7&#45;&gt;Node3 -->
<g id="edge14" class="edge"><title>Node7&#45;&gt;Node3</title>
<path fill="none" stroke="midnightblue" d="M1955.4,-67.476C1918.31,-57.4297 1868.19,-43.8564 1829,-33.2418"/>
<polygon fill="midnightblue" stroke="midnightblue" points="1829.85,-29.8469 1819.29,-30.6109 1828.02,-36.6034 1829.85,-29.8469"/>
</g>
<!-- Node8&#45;&gt;Node2 -->
<g id="edge16" class="edge"><title>Node8&#45;&gt;Node2</title>
<path fill="none" stroke="midnightblue" d="M2096.14,-68.2935C2093.12,-67.836 2090.12,-67.4022 2087.19,-67 2075.34,-65.3776 1743.32,-34.7435 1604.89,-21.9946"/>
<polygon fill="midnightblue" stroke="midnightblue" points="1605.15,-18.5037 1594.87,-21.0719 1604.5,-25.4742 1605.15,-18.5037"/>
</g>
<!-- Node8&#45;&gt;Node3 -->
<g id="edge17" class="edge"><title>Node8&#45;&gt;Node3</title>
<path fill="none" stroke="midnightblue" d="M2096.1,-68.5291C2093.09,-68.0071 2090.11,-67.4954 2087.19,-67 1999.15,-52.0775 1897.24,-36.242 1832.52,-26.3647"/>
<polygon fill="midnightblue" stroke="midnightblue" points="1832.87,-22.8782 1822.46,-24.8317 1831.82,-29.7983 1832.87,-22.8782"/>
</g>
<!-- Node9&#45;&gt;Node2 -->
<g id="edge19" class="edge"><title>Node9&#45;&gt;Node2</title>
<path fill="none" stroke="midnightblue" d="M2256.15,-68.1938C2253.12,-67.7636 2250.13,-67.3628 2247.19,-67 2006.7,-37.3455 1944.74,-50.0735 1703.19,-31 1670.76,-28.4397 1634.63,-25.1564 1605.12,-22.3618"/>
<polygon fill="midnightblue" stroke="midnightblue" points="1605.26,-18.8593 1594.97,-21.3957 1604.59,-25.8278 1605.26,-18.8593"/>
</g>
<!-- Node9&#45;&gt;Node3 -->
<g id="edge20" class="edge"><title>Node9&#45;&gt;Node3</title>
<path fill="none" stroke="midnightblue" d="M2256.13,-68.3377C2253.11,-67.8681 2250.12,-67.4197 2247.19,-67 2099.47,-45.8734 1925,-29.7031 1832.48,-21.8163"/>
<polygon fill="midnightblue" stroke="midnightblue" points="1832.68,-18.3212 1822.42,-20.9644 1832.09,-25.2962 1832.68,-18.3212"/>
</g>
<!-- Node10&#45;&gt;Node2 -->
<g id="edge22" class="edge"><title>Node10&#45;&gt;Node2</title>
<path fill="none" stroke="midnightblue" d="M2416.16,-68.138C2413.13,-67.7231 2410.13,-67.3407 2407.19,-67 2095.96,-30.9886 2015.69,-53.3204 1703.19,-31 1670.74,-28.6828 1634.61,-25.4183 1605.1,-22.5735"/>
<polygon fill="midnightblue" stroke="midnightblue" points="1605.25,-19.0712 1594.96,-21.587 1604.57,-26.0384 1605.25,-19.0712"/>
</g>
<!-- Node10&#45;&gt;Node3 -->
<g id="edge23" class="edge"><title>Node10&#45;&gt;Node3</title>
<path fill="none" stroke="midnightblue" d="M2416.14,-68.2409C2413.12,-67.7978 2410.12,-67.3814 2407.19,-67 2198.23,-39.8899 1948.88,-25.2805 1832.74,-19.493"/>
<polygon fill="midnightblue" stroke="midnightblue" points="1832.76,-15.9895 1822.6,-18.993 1832.41,-22.981 1832.76,-15.9895"/>
</g>
<!-- Node11&#45;&gt;Node2 -->
<g id="edge25" class="edge"><title>Node11&#45;&gt;Node2</title>
<path fill="none" stroke="midnightblue" d="M2576.16,-68.1029C2573.13,-67.6976 2570.13,-67.3268 2567.19,-67 2185.19,-24.6279 2086.67,-56.5697 1703.19,-31 1670.73,-28.8361 1634.6,-25.5835 1605.09,-22.707"/>
<polygon fill="midnightblue" stroke="midnightblue" points="1605.24,-19.2049 1594.95,-21.7076 1604.56,-26.1712 1605.24,-19.2049"/>
</g>
<!-- Node11&#45;&gt;Node3 -->
<g id="edge26" class="edge"><title>Node11&#45;&gt;Node3</title>
<path fill="none" stroke="midnightblue" d="M2576.15,-68.1825C2573.13,-67.7554 2570.13,-67.3583 2567.19,-67 2295.55,-33.9238 1969.24,-21.8657 1832.49,-18.0516"/>
<polygon fill="midnightblue" stroke="midnightblue" points="1832.28,-14.5448 1822.19,-17.7701 1832.09,-21.5422 1832.28,-14.5448"/>
</g>
<!-- Node12&#45;&gt;Node2 -->
<g id="edge28" class="edge"><title>Node12&#45;&gt;Node2</title>
<path fill="none" stroke="midnightblue" d="M2736.16,-68.0786C2733.13,-67.68 2730.13,-67.3172 2727.19,-67 2274.41,-18.2652 2157.66,-59.8202 1703.19,-31 1670.72,-28.9416 1634.59,-25.6972 1605.09,-22.7988"/>
<polygon fill="midnightblue" stroke="midnightblue" points="1605.24,-19.2969 1594.94,-21.7906 1604.55,-26.2625 1605.24,-19.2969"/>
</g>
<!-- Node12&#45;&gt;Node3 -->
<g id="edge29" class="edge"><title>Node12&#45;&gt;Node3</title>
<path fill="none" stroke="midnightblue" d="M2736.15,-68.1435C2733.13,-67.7271 2730.13,-67.3429 2727.19,-67 2392.34,-28.007 1988.26,-19.1076 1832.65,-17.0881"/>
<polygon fill="midnightblue" stroke="midnightblue" points="1832.36,-13.5844 1822.32,-16.9595 1832.27,-20.5838 1832.36,-13.5844"/>
</g>
<!-- Node13&#45;&gt;Node2 -->
<g id="edge31" class="edge"><title>Node13&#45;&gt;Node2</title>
<path fill="none" stroke="midnightblue" d="M2896.16,-68.061C2893.14,-67.6671 2890.13,-67.3102 2887.19,-67 2363.61,-11.9013 2228.67,-63.0713 1703.19,-31 1670.72,-29.0186 1634.59,-25.7802 1605.08,-22.8659"/>
<polygon fill="midnightblue" stroke="midnightblue" points="1605.24,-19.364 1594.94,-21.8512 1604.54,-26.3293 1605.24,-19.364"/>
</g>
<!-- Node13&#45;&gt;Node3 -->
<g id="edge32" class="edge"><title>Node13&#45;&gt;Node3</title>
<path fill="none" stroke="midnightblue" d="M2896.16,-68.1156C2893.13,-67.7068 2890.13,-67.3318 2887.19,-67 2488.43,-22.0783 2005.55,-16.758 1832.66,-16.3891"/>
<polygon fill="midnightblue" stroke="midnightblue" points="1832.46,-12.8888 1822.46,-16.3724 1832.45,-19.8888 1832.46,-12.8888"/>
</g>
<!-- Node14&#45;&gt;Node2 -->
<g id="edge34" class="edge"><title>Node14&#45;&gt;Node2</title>
<path fill="none" stroke="midnightblue" d="M3056.17,-68.0475C3053.14,-67.6573 3050.13,-67.3049 3047.19,-67 2452.81,-5.53677 2299.69,-66.3229 1703.19,-31 1670.72,-29.0773 1634.59,-25.8435 1605.08,-22.917"/>
<polygon fill="midnightblue" stroke="midnightblue" points="1605.24,-19.4152 1594.94,-21.8974 1604.54,-26.3801 1605.24,-19.4152"/>
</g>
<!-- Node14&#45;&gt;Node3 -->
<g id="edge35" class="edge"><title>Node14&#45;&gt;Node3</title>
<path fill="none" stroke="midnightblue" d="M3056.16,-68.0946C3053.13,-67.6916 3050.13,-67.3235 3047.19,-67 2583.74,-16.1103 2020.94,-14.7029 1832.31,-15.8619"/>
<polygon fill="midnightblue" stroke="midnightblue" points="1832.26,-12.3621 1822.28,-15.9282 1832.3,-19.362 1832.26,-12.3621"/>
</g>
<!-- Node15&#45;&gt;Node2 -->
<g id="edge37" class="edge"><title>Node15&#45;&gt;Node2</title>
<path fill="none" stroke="midnightblue" d="M3216.17,-68.0369C3213.14,-67.6496 3210.13,-67.3007 3207.19,-67 2542,0.82825 2370.71,-69.5747 1703.19,-31 1670.71,-29.1235 1634.58,-25.8933 1605.08,-22.9573"/>
<polygon fill="midnightblue" stroke="midnightblue" points="1605.23,-19.4555 1594.93,-21.9338 1604.53,-26.4201 1605.23,-19.4555"/>
</g>
<!-- Node15&#45;&gt;Node3 -->
<g id="edge38" class="edge"><title>Node15&#45;&gt;Node3</title>
<path fill="none" stroke="midnightblue" d="M3216.16,-68.0783C3213.13,-67.6797 3210.13,-67.3171 3207.19,-67 2935.17,-37.7335 2076.72,-21.6119 1832.55,-17.5383"/>
<polygon fill="midnightblue" stroke="midnightblue" points="1832.47,-14.0366 1822.42,-17.3703 1832.36,-21.0356 1832.47,-14.0366"/>
</g>
<!-- Node16&#45;&gt;Node2 -->
<g id="edge40" class="edge"><title>Node16&#45;&gt;Node2</title>
<path fill="none" stroke="midnightblue" d="M158.209,-68.0842C161.236,-67.684 164.238,-67.3194 167.185,-67 428.541,-38.672 1255.68,-21.7813 1485.46,-17.5532"/>
<polygon fill="midnightblue" stroke="midnightblue" points="1485.69,-21.0496 1495.62,-17.3672 1485.56,-14.0508 1485.69,-21.0496"/>
</g>
<!-- Node16&#45;&gt;Node3 -->
<g id="edge41" class="edge"><title>Node16&#45;&gt;Node3</title>
<path fill="none" stroke="midnightblue" d="M158.204,-68.041C161.233,-67.6526 164.236,-67.3023 167.185,-67 802.72,-1.83715 966.351,-67.3225 1604.19,-31 1636.41,-29.165 1672.13,-26.1031 1701.9,-23.2646"/>
<polygon fill="midnightblue" stroke="midnightblue" points="1702.55,-26.7182 1712.17,-22.2723 1701.88,-19.7507 1702.55,-26.7182"/>
</g>
<!-- Node17&#45;&gt;Node2 -->
<g id="edge43" class="edge"><title>Node17&#45;&gt;Node2</title>
<path fill="none" stroke="midnightblue" d="M318.211,-68.1021C321.238,-67.697 324.239,-67.3265 327.185,-67 769.836,-17.945 1307.76,-15.4145 1485.23,-16.0678"/>
<polygon fill="midnightblue" stroke="midnightblue" points="1485.39,-19.5684 1495.4,-16.1103 1485.42,-12.5684 1485.39,-19.5684"/>
</g>
<!-- Node17&#45;&gt;Node3 -->
<g id="edge44" class="edge"><title>Node17&#45;&gt;Node3</title>
<path fill="none" stroke="midnightblue" d="M318.205,-68.0527C321.234,-67.6611 324.237,-67.307 327.185,-67 891.913,-8.202 1037.37,-64.1699 1604.19,-31 1636.41,-29.1144 1672.13,-26.0469 1701.9,-23.2177"/>
<polygon fill="midnightblue" stroke="midnightblue" points="1702.55,-26.6715 1712.17,-22.2293 1701.88,-19.7038 1702.55,-26.6715"/>
</g>
<!-- Node18&#45;&gt;Node2 -->
<g id="edge46" class="edge"><title>Node18&#45;&gt;Node2</title>
<path fill="none" stroke="midnightblue" d="M478.213,-68.1254C481.24,-67.7139 484.24,-67.3357 487.185,-67 865.307,-23.8981 1323.52,-17.4812 1485.2,-16.6044"/>
<polygon fill="midnightblue" stroke="midnightblue" points="1485.44,-20.1034 1495.42,-16.5543 1485.4,-13.1035 1485.44,-20.1034"/>
</g>
<!-- Node18&#45;&gt;Node3 -->
<g id="edge47" class="edge"><title>Node18&#45;&gt;Node3</title>
<path fill="none" stroke="midnightblue" d="M478.207,-68.0677C481.235,-67.6721 484.237,-67.3129 487.185,-67 981.112,-14.5663 1108.39,-61.0177 1604.19,-31 1636.4,-29.0495 1672.12,-25.9746 1701.9,-23.1574"/>
<polygon fill="midnightblue" stroke="midnightblue" points="1702.54,-26.6115 1712.17,-22.1739 1701.88,-19.6434 1702.54,-26.6115"/>
</g>
<!-- Node19&#45;&gt;Node2 -->
<g id="edge49" class="edge"><title>Node19&#45;&gt;Node2</title>
<path fill="none" stroke="midnightblue" d="M638.217,-68.157C641.242,-67.7368 644.241,-67.3482 647.185,-67 961.096,-29.8684 1340.07,-19.8834 1484.92,-17.3306"/>
<polygon fill="midnightblue" stroke="midnightblue" points="1485.41,-20.8228 1495.35,-17.1526 1485.29,-13.8239 1485.41,-20.8228"/>
</g>
<!-- Node19&#45;&gt;Node3 -->
<g id="edge50" class="edge"><title>Node19&#45;&gt;Node3</title>
<path fill="none" stroke="midnightblue" d="M638.209,-68.0878C641.237,-67.6866 644.238,-67.3208 647.185,-67 1070.32,-20.9297 1179.4,-57.8659 1604.19,-31 1636.4,-28.9628 1672.12,-25.8781 1701.89,-23.0769"/>
<polygon fill="midnightblue" stroke="midnightblue" points="1702.54,-26.5315 1712.16,-22.1001 1701.87,-19.563 1702.54,-26.5315"/>
</g>
<!-- Node20&#45;&gt;Node2 -->
<g id="edge52" class="edge"><title>Node20&#45;&gt;Node2</title>
<path fill="none" stroke="midnightblue" d="M798.222,-68.2021C801.246,-67.7696 804.244,-67.3661 807.185,-67 1057.89,-35.8003 1359.08,-22.7306 1485.12,-18.3506"/>
<polygon fill="midnightblue" stroke="midnightblue" points="1485.46,-21.8413 1495.33,-18.0016 1485.22,-14.8454 1485.46,-21.8413"/>
</g>
<!-- Node20&#45;&gt;Node3 -->
<g id="edge53" class="edge"><title>Node20&#45;&gt;Node3</title>
<path fill="none" stroke="midnightblue" d="M798.212,-68.1159C801.239,-67.707 804.24,-67.3319 807.185,-67 1159.54,-27.2917 1250.4,-54.7149 1604.19,-31 1636.39,-28.8414 1672.11,-25.7431 1701.89,-22.9642"/>
<polygon fill="midnightblue" stroke="midnightblue" points="1702.53,-26.4194 1712.15,-21.9967 1701.87,-19.4503 1702.53,-26.4194"/>
</g>
<!-- Node21&#45;&gt;Node2 -->
<g id="edge55" class="edge"><title>Node21&#45;&gt;Node2</title>
<path fill="none" stroke="midnightblue" d="M958.231,-68.2721C961.253,-67.8205 964.247,-67.3937 967.185,-67 1155.59,-41.7496 1380.32,-26.2841 1485.44,-19.8989"/>
<polygon fill="midnightblue" stroke="midnightblue" points="1485.76,-23.3857 1495.53,-19.2912 1485.34,-16.3984 1485.76,-23.3857"/>
</g>
<!-- Node21&#45;&gt;Node3 -->
<g id="edge56" class="edge"><title>Node21&#45;&gt;Node3</title>
<path fill="none" stroke="midnightblue" d="M958.217,-68.158C961.242,-67.7376 964.241,-67.3486 967.185,-67 1248.78,-33.6512 1321.37,-51.5655 1604.19,-31 1636.38,-28.6592 1672.1,-25.5404 1701.87,-22.7951"/>
<polygon fill="midnightblue" stroke="midnightblue" points="1702.51,-26.2513 1712.14,-21.8416 1701.86,-19.2812 1702.51,-26.2513"/>
</g>
<!-- Node22&#45;&gt;Node2 -->
<g id="edge58" class="edge"><title>Node22&#45;&gt;Node2</title>
<path fill="none" stroke="midnightblue" d="M1118.25,-68.3948C1121.27,-67.9096 1124.25,-67.4423 1127.19,-67 1254.38,-47.8071 1404.22,-31.1385 1485.47,-22.5927"/>
<polygon fill="midnightblue" stroke="midnightblue" points="1485.93,-26.0637 1495.51,-21.5412 1485.2,-19.1018 1485.93,-26.0637"/>
</g>
<!-- Node22&#45;&gt;Node3 -->
<g id="edge59" class="edge"><title>Node22&#45;&gt;Node3</title>
<path fill="none" stroke="midnightblue" d="M1118.23,-68.2282C1121.25,-67.7886 1124.24,-67.3764 1127.19,-67 1338.07,-40.0053 1392.3,-48.4195 1604.19,-31 1636.35,-28.3555 1672.07,-25.2026 1701.85,-22.5133"/>
<polygon fill="midnightblue" stroke="midnightblue" points="1702.48,-25.9708 1712.12,-21.583 1701.85,-18.9994 1702.48,-25.9708"/>
</g>
<!-- Node23&#45;&gt;Node2 -->
<g id="edge61" class="edge"><title>Node23&#45;&gt;Node2</title>
<path fill="none" stroke="midnightblue" d="M1278.45,-67.7946C1341.85,-55.6021 1433.22,-38.0326 1490.87,-26.9456"/>
<polygon fill="midnightblue" stroke="midnightblue" points="1491.72,-30.3468 1500.87,-25.0212 1490.39,-23.4728 1491.72,-30.3468"/>
</g>
<!-- Node23&#45;&gt;Node3 -->
<g id="edge62" class="edge"><title>Node23&#45;&gt;Node3</title>
<path fill="none" stroke="midnightblue" d="M1278.24,-68.3377C1281.26,-67.8681 1284.25,-67.4197 1287.19,-67 1365.51,-55.7972 1589.5,-33.6402 1701.61,-22.7879"/>
<polygon fill="midnightblue" stroke="midnightblue" points="1702.16,-26.2513 1711.77,-21.8053 1701.48,-19.2838 1702.16,-26.2513"/>
</g>
<!-- Node24&#45;&gt;Node2 -->
<g id="edge64" class="edge"><title>Node24&#45;&gt;Node2</title>
<path fill="none" stroke="midnightblue" d="M1405.81,-67.396C1437.59,-55.7891 1482.16,-39.5147 1512.27,-28.5192"/>
<polygon fill="midnightblue" stroke="midnightblue" points="1513.7,-31.7249 1521.89,-25.007 1511.3,-25.1495 1513.7,-31.7249"/>
</g>
<!-- Node24&#45;&gt;Node3 -->
<g id="edge65" class="edge"><title>Node24&#45;&gt;Node3</title>
<path fill="none" stroke="midnightblue" d="M1438.27,-68.5291C1441.28,-68.0071 1444.26,-67.4954 1447.19,-67 1535.22,-52.0775 1637.13,-36.242 1701.85,-26.3647"/>
<polygon fill="midnightblue" stroke="midnightblue" points="1702.55,-29.7983 1711.91,-24.8317 1701.5,-22.8782 1702.55,-29.7983"/>
</g>
</g>
</svg>
        <g id="navigator" transform="translate(0 0)" fill="#404254">
                <rect fill="#f2f5e9" fill-opacity="0.5" stroke="#606060" stroke-width=".5" x="0" y="0" width="60" height="60"/>
                <use id="zoomplus" xlink:href="#zoomPlus" x="17" y="9" onmousedown="handleZoom(evt,'in')"/>
                <use id="zoomminus" xlink:href="#zoomMin" x="42" y="9" onmousedown="handleZoom(evt,'out')"/>
                <use id="reset" xlink:href="#resetDef" x="30" y="36" onmousedown="handleReset()"/>
                <g id="arrowUp" xlink:href="#dirArrow" transform="translate(30 24)" onmousedown="handlePan(0,-1)">
                  <use xlink:href="#rim" fill="#404040">
                        <set attributeName="fill" to="#808080" begin="arrowUp.mouseover" end="arrowUp.mouseout"/>
                  </use>
                  <path fill="none" stroke="white" stroke-width="1.5" d="M0,-3.0v7 M-2.5,-0.5L0,-3.0L2.5,-0.5"/>
                </g>
                <g id="arrowRight" xlink:href="#dirArrow" transform="rotate(90) translate(36 -43)" onmousedown="handlePan(1,0)">
                  <use xlink:href="#rim" fill="#404040">
                        <set attributeName="fill" to="#808080" begin="arrowRight.mouseover" end="arrowRight.mouseout"/>
                  </use>
                  <path fill="none" stroke="white" stroke-width="1.5" d="M0,-3.0v7 M-2.5,-0.5L0,-3.0L2.5,-0.5"/>
                </g>
                <g id="arrowDown" xlink:href="#dirArrow" transform="rotate(180) translate(-30 -48)" onmousedown="handlePan(0,1)">
                  <use xlink:href="#rim" fill="#404040">
                        <set attributeName="fill" to="#808080" begin="arrowDown.mouseover" end="arrowDown.mouseout"/>
                  </use>
                  <path fill="none" stroke="white" stroke-width="1.5" d="M0,-3.0v7 M-2.5,-0.5L0,-3.0L2.5,-0.5"/>
                </g>
                <g id="arrowLeft" xlink:href="#dirArrow" transform="rotate(270) translate(-36 17)" onmousedown="handlePan(-1,0)">
                  <use xlink:href="#rim" fill="#404040">
                        <set attributeName="fill" to="#808080" begin="arrowLeft.mouseover" end="arrowLeft.mouseout"/>
                  </use>
                  <path fill="none" stroke="white" stroke-width="1.5" d="M0,-3.0v7 M-2.5,-0.5L0,-3.0L2.5,-0.5"/>
                </g>
        </g>
        <svg viewBox="0 0 15 15" width="100%" height="30px" preserveAspectRatio="xMaxYMin meet">
         <g id="arrow_out" transform="scale(0.3 0.3)">
          <a xlink:href="_dwarf_elephant_r_b_structures_t5_f3_o1_steady_state_8h__incl_org.svg" target="_base">
           <rect id="button" ry="5" rx="5" y="6" x="6" height="38" width="38"
                fill="#f2f5e9" fill-opacity="0.5" stroke="#606060" stroke-width="1.0"/>
           <path id="arrow"
             d="M 11.500037,31.436501 C 11.940474,20.09759 22.043105,11.32322 32.158766,21.979434 L 37.068811,17.246167 C 37.068811,17.246167 37.088388,32 37.088388,32 L 22.160133,31.978069 C 22.160133,31.978069 26.997745,27.140456 26.997745,27.140456 C 18.528582,18.264221 13.291696,25.230495 11.500037,31.436501 z"
             style="fill:#404040;"/>
          </a>
         </g>
        </svg>
</svg>
