<?xml version="1.0" encoding="UTF-8" standalone="no"?>
<!DOCTYPE svg PUBLIC "-//W3C//DTD SVG 1.1//EN"
 "http://www.w3.org/Graphics/SVG/1.1/DTD/svg11.dtd">
<!-- Generated by graphviz version 2.38.0 (20140413.2041)
 -->
<!-- Title: include/userobjects/DwarfElephantOfflineOnlineStageSteadyState.h Pages: 1 -->
<svg width="383pt" height="184pt"
 viewBox="0.00 0.00 383.00 184.00" xmlns="http://www.w3.org/2000/svg" xmlns:xlink="http://www.w3.org/1999/xlink">
<g id="graph0" class="graph" transform="scale(1 1) rotate(0) translate(4 180)">
<title>include/userobjects/DwarfElephantOfflineOnlineStageSteadyState.h</title>
<polygon fill="white" stroke="none" points="-4,4 -4,-180 379,-180 379,4 -4,4"/>
<!-- Node1 -->
<g id="node1" class="node"><title>Node1</title>
<polygon fill="#bfbfbf" stroke="black" points="50.5,-134.5 50.5,-175.5 193.5,-175.5 193.5,-134.5 50.5,-134.5"/>
<text text-anchor="start" x="58.5" y="-163.5" font-family="Helvetica,sans-Serif" font-size="10.00">include/userobjects</text>
<text text-anchor="start" x="58.5" y="-152.5" font-family="Helvetica,sans-Serif" font-size="10.00">/DwarfElephantOfflineOnline</text>
<text text-anchor="middle" x="122" y="-141.5" font-family="Helvetica,sans-Serif" font-size="10.00">StageSteadyState.h</text>
</g>
<!-- Node2 -->
<g id="node2" class="node"><title>Node2</title>
<g id="a_node2"><a xlink:href="_dwarf_elephant_app_8_c.html" target="_top" xlink:title="src/base/DwarfElephantApp.C">
<polygon fill="white" stroke="black" points="0,-6 0,-25 150,-25 150,-6 0,-6"/>
<text text-anchor="middle" x="75" y="-13" font-family="Helvetica,sans-Serif" font-size="10.00">src/base/DwarfElephantApp.C</text>
</a>
</g>
</g>
<!-- Node1&#45;&gt;Node2 -->
<g id="edge1" class="edge"><title>Node1&#45;&gt;Node2</title>
<path fill="none" stroke="midnightblue" d="M61.1662,-129.118C48.714,-121.091 37.2199,-110.847 30,-98 15.1131,-71.5104 46.3601,-39.9739 64.0105,-25.0892"/>
<polygon fill="midnightblue" stroke="midnightblue" points="59.5178,-132.21 69.8993,-134.325 63.1028,-126.198 59.5178,-132.21"/>
</g>
<!-- Node3 -->
<g id="node3" class="node"><title>Node3</title>
<g id="a_node3"><a xlink:href="_dwarf_elephant_offline_online_stage_steady_state_8_c.html" target="_top" xlink:title="src/userobjects/DwarfElephant\lOfflineOnlineStageSteadyState.C">
<polygon fill="white" stroke="black" points="39.5,-67.5 39.5,-97.5 204.5,-97.5 204.5,-67.5 39.5,-67.5"/>
<text text-anchor="start" x="47.5" y="-85.5" font-family="Helvetica,sans-Serif" font-size="10.00">src/userobjects/DwarfElephant</text>
<text text-anchor="middle" x="122" y="-74.5" font-family="Helvetica,sans-Serif" font-size="10.00">OfflineOnlineStageSteadyState.C</text>
</a>
</g>
</g>
<!-- Node1&#45;&gt;Node3 -->
<g id="edge2" class="edge"><title>Node1&#45;&gt;Node3</title>
<path fill="none" stroke="midnightblue" d="M122,-124.08C122,-115.006 122,-105.45 122,-97.8916"/>
<polygon fill="midnightblue" stroke="midnightblue" points="118.5,-124.362 122,-134.362 125.5,-124.362 118.5,-124.362"/>
</g>
<!-- Node4 -->
<g id="node4" class="node"><title>Node4</title>
<g id="a_node4"><a xlink:href="_dwarf_elephant_dakota_output_8h.html" target="_top" xlink:title="include/outputs/DwarfElephant\lDakotaOutput.h">
<polygon fill="white" stroke="black" points="223,-67.5 223,-97.5 375,-97.5 375,-67.5 223,-67.5"/>
<text text-anchor="start" x="231" y="-85.5" font-family="Helvetica,sans-Serif" font-size="10.00">include/outputs/DwarfElephant</text>
<text text-anchor="middle" x="299" y="-74.5" font-family="Helvetica,sans-Serif" font-size="10.00">DakotaOutput.h</text>
</a>
</g>
</g>
<!-- Node1&#45;&gt;Node4 -->
<g id="edge3" class="edge"><title>Node1&#45;&gt;Node4</title>
<path fill="none" stroke="midnightblue" d="M180.814,-130.574C208.263,-119.641 240.022,-106.991 263.701,-97.5597"/>
<polygon fill="midnightblue" stroke="midnightblue" points="179.299,-127.41 171.304,-134.362 181.89,-133.913 179.299,-127.41"/>
</g>
<!-- Node4&#45;&gt;Node2 -->
<g id="edge4" class="edge"><title>Node4&#45;&gt;Node2</title>
<path fill="none" stroke="midnightblue" d="M241.003,-64.6705C197.225,-51.967 138.974,-35.064 104.391,-25.0287"/>
<polygon fill="midnightblue" stroke="midnightblue" points="240.092,-68.0504 250.671,-67.476 242.043,-61.3278 240.092,-68.0504"/>
</g>
<!-- Node5 -->
<g id="node5" class="node"><title>Node5</title>
<g id="a_node5"><a xlink:href="_dwarf_elephant_dakota_output_8_c.html" target="_top" xlink:title="src/outputs/DwarfElephant\lDakotaOutput.C">
<polygon fill="white" stroke="black" points="232,-0.5 232,-30.5 366,-30.5 366,-0.5 232,-0.5"/>
<text text-anchor="start" x="240" y="-18.5" font-family="Helvetica,sans-Serif" font-size="10.00">src/outputs/DwarfElephant</text>
<text text-anchor="middle" x="299" y="-7.5" font-family="Helvetica,sans-Serif" font-size="10.00">DakotaOutput.C</text>
</a>
</g>
</g>
<!-- Node4&#45;&gt;Node5 -->
<g id="edge5" class="edge"><title>Node4&#45;&gt;Node5</title>
<path fill="none" stroke="midnightblue" d="M299,-57.1081C299,-48.1539 299,-38.3227 299,-30.5765"/>
<polygon fill="midnightblue" stroke="midnightblue" points="295.5,-57.3959 299,-67.396 302.5,-57.396 295.5,-57.3959"/>
</g>
</g>
</svg>
