<?xml version="1.0" encoding="UTF-8" standalone="no"?>
<!DOCTYPE svg PUBLIC "-//W3C//DTD SVG 1.1//EN"
 "http://www.w3.org/Graphics/SVG/1.1/DTD/svg11.dtd">
<!-- Generated by graphviz version 2.38.0 (20140413.2041)
 -->
<!-- Title: include/ics/DwarfElephantRBInitialCondition.h Pages: 1 -->
<svg width="596pt" height="162pt"
 viewBox="0.00 0.00 595.50 162.00" xmlns="http://www.w3.org/2000/svg" xmlns:xlink="http://www.w3.org/1999/xlink">
<g id="graph0" class="graph" transform="scale(1 1) rotate(0) translate(4 158)">
<title>include/ics/DwarfElephantRBInitialCondition.h</title>
<polygon fill="white" stroke="none" points="-4,4 -4,-158 591.5,-158 591.5,4 -4,4"/>
<!-- Node1 -->
<g id="node1" class="node"><title>Node1</title>
<polygon fill="#bfbfbf" stroke="black" points="168,-123.5 168,-153.5 300,-153.5 300,-123.5 168,-123.5"/>
<text text-anchor="start" x="176" y="-141.5" font-family="Helvetica,sans-Serif" font-size="10.00">include/ics/DwarfElephant</text>
<text text-anchor="middle" x="234" y="-130.5" font-family="Helvetica,sans-Serif" font-size="10.00">RBInitialCondition.h</text>
</g>
<!-- Node2 -->
<g id="node2" class="node"><title>Node2</title>
<g id="a_node2"><a xlink:href="_dwarf_elephant_r_b_initial_condition_8_c.html" target="_top" xlink:title="src/ics/DwarfElephantRBInitial\lCondition.C">
<polygon fill="white" stroke="black" points="0,-56.5 0,-86.5 150,-86.5 150,-56.5 0,-56.5"/>
<text text-anchor="start" x="8" y="-74.5" font-family="Helvetica,sans-Serif" font-size="10.00">src/ics/DwarfElephantRBInitial</text>
<text text-anchor="middle" x="75" y="-63.5" font-family="Helvetica,sans-Serif" font-size="10.00">Condition.C</text>
</a>
</g>
</g>
<!-- Node1&#45;&gt;Node2 -->
<g id="edge1" class="edge"><title>Node1&#45;&gt;Node2</title>
<path fill="none" stroke="midnightblue" d="M190.077,-119.544C164.634,-109.143 133.067,-96.238 109.433,-86.5765"/>
<polygon fill="midnightblue" stroke="midnightblue" points="188.919,-122.852 199.499,-123.396 191.567,-116.372 188.919,-122.852"/>
</g>
<!-- Node3 -->
<g id="node3" class="node"><title>Node3</title>
<g id="a_node3"><a xlink:href="_dwarf_elephant_r_b_constant_i_c_8h.html" target="_top" xlink:title="include/ics/DwarfElephant\lRBConstantIC.h">
<polygon fill="white" stroke="black" points="168,-56.5 168,-86.5 300,-86.5 300,-56.5 168,-56.5"/>
<text text-anchor="start" x="176" y="-74.5" font-family="Helvetica,sans-Serif" font-size="10.00">include/ics/DwarfElephant</text>
<text text-anchor="middle" x="234" y="-63.5" font-family="Helvetica,sans-Serif" font-size="10.00">RBConstantIC.h</text>
</a>
</g>
</g>
<!-- Node1&#45;&gt;Node3 -->
<g id="edge2" class="edge"><title>Node1&#45;&gt;Node3</title>
<path fill="none" stroke="midnightblue" d="M234,-113.108C234,-104.154 234,-94.3227 234,-86.5765"/>
<polygon fill="midnightblue" stroke="midnightblue" points="230.5,-113.396 234,-123.396 237.5,-113.396 230.5,-113.396"/>
</g>
<!-- Node6 -->
<g id="node6" class="node"><title>Node6</title>
<g id="a_node6"><a xlink:href="_dwarf_elephant_r_b_function_i_c_8h.html" target="_top" xlink:title="include/ics/DwarfElephant\lRBFunctionIC.h">
<polygon fill="white" stroke="black" points="318,-56.5 318,-86.5 450,-86.5 450,-56.5 318,-56.5"/>
<text text-anchor="start" x="326" y="-74.5" font-family="Helvetica,sans-Serif" font-size="10.00">include/ics/DwarfElephant</text>
<text text-anchor="middle" x="384" y="-63.5" font-family="Helvetica,sans-Serif" font-size="10.00">RBFunctionIC.h</text>
</a>
</g>
</g>
<!-- Node1&#45;&gt;Node6 -->
<g id="edge5" class="edge"><title>Node1&#45;&gt;Node6</title>
<path fill="none" stroke="midnightblue" d="M275.754,-119.407C299.701,-109.029 329.318,-96.1954 351.516,-86.5765"/>
<polygon fill="midnightblue" stroke="midnightblue" points="274.332,-116.208 266.548,-123.396 277.115,-122.631 274.332,-116.208"/>
</g>
<!-- Node4 -->
<g id="node4" class="node"><title>Node4</title>
<g id="a_node4"><a xlink:href="_dwarf_elephant_app_8_c.html" target="_top" xlink:title="src/base/DwarfElephantApp.C">
<polygon fill="white" stroke="black" points="234,-0.5 234,-19.5 384,-19.5 384,-0.5 234,-0.5"/>
<text text-anchor="middle" x="309" y="-7.5" font-family="Helvetica,sans-Serif" font-size="10.00">src/base/DwarfElephantApp.C</text>
</a>
</g>
</g>
<!-- Node3&#45;&gt;Node4 -->
<g id="edge3" class="edge"><title>Node3&#45;&gt;Node4</title>
<path fill="none" stroke="midnightblue" d="M259.975,-49.8934C273.021,-39.5432 288.129,-27.5577 298.087,-19.6578"/>
<polygon fill="midnightblue" stroke="midnightblue" points="257.433,-47.4423 251.774,-56.3993 261.783,-52.9262 257.433,-47.4423"/>
</g>
<!-- Node5 -->
<g id="node5" class="node"><title>Node5</title>
<g id="a_node5"><a xlink:href="_dwarf_elephant_r_b_constant_i_c_8_c.html" target="_top" xlink:title="src/ics/DwarfElephantRBConstantIC.C">
<polygon fill="white" stroke="black" points="28.5,-0.5 28.5,-19.5 215.5,-19.5 215.5,-0.5 28.5,-0.5"/>
<text text-anchor="middle" x="122" y="-7.5" font-family="Helvetica,sans-Serif" font-size="10.00">src/ics/DwarfElephantRBConstantIC.C</text>
</a>
</g>
</g>
<!-- Node3&#45;&gt;Node5 -->
<g id="edge4" class="edge"><title>Node3&#45;&gt;Node5</title>
<path fill="none" stroke="midnightblue" d="M198.519,-51.6506C178.332,-40.9264 154.017,-28.0091 138.297,-19.6578"/>
<polygon fill="midnightblue" stroke="midnightblue" points="196.984,-54.7986 207.458,-56.3993 200.268,-48.6168 196.984,-54.7986"/>
</g>
<!-- Node6&#45;&gt;Node4 -->
<g id="edge6" class="edge"><title>Node6&#45;&gt;Node4</title>
<path fill="none" stroke="midnightblue" d="M358.025,-49.8934C344.979,-39.5432 329.871,-27.5577 319.913,-19.6578"/>
<polygon fill="midnightblue" stroke="midnightblue" points="356.217,-52.9262 366.226,-56.3993 360.567,-47.4423 356.217,-52.9262"/>
</g>
<!-- Node7 -->
<g id="node7" class="node"><title>Node7</title>
<g id="a_node7"><a xlink:href="_dwarf_elephant_r_b_function_i_c_8_c.html" target="_top" xlink:title="src/ics/DwarfElephantRBFunctionIC.C">
<polygon fill="white" stroke="black" points="402.5,-0.5 402.5,-19.5 587.5,-19.5 587.5,-0.5 402.5,-0.5"/>
<text text-anchor="middle" x="495" y="-7.5" font-family="Helvetica,sans-Serif" font-size="10.00">src/ics/DwarfElephantRBFunctionIC.C</text>
</a>
</g>
</g>
<!-- Node6&#45;&gt;Node7 -->
<g id="edge7" class="edge"><title>Node6&#45;&gt;Node7</title>
<path fill="none" stroke="midnightblue" d="M419.164,-51.6506C439.171,-40.9264 463.269,-28.0091 478.849,-19.6578"/>
<polygon fill="midnightblue" stroke="midnightblue" points="417.466,-48.5901 410.305,-56.3993 420.773,-54.7596 417.466,-48.5901"/>
</g>
</g>
</svg>
