<?xml version="1.0" encoding="UTF-8" standalone="no"?>
<!DOCTYPE svg PUBLIC "-//W3C//DTD SVG 1.1//EN"
 "http://www.w3.org/Graphics/SVG/1.1/DTD/svg11.dtd">
<!-- Generated by graphviz version 2.38.0 (20140413.2041)
 -->
<!-- Title: src/userobjects/DwarfElephantRBPointValue.C Pages: 1 -->
<!--zoomable 162 -->
<svg id="main" version="1.1" xmlns="http://www.w3.org/2000/svg" xmlns:xlink="http://www.w3.org/1999/xlink" xml:space="preserve" onload="init(evt)">
<style type="text/css"><![CDATA[
.edge:hover path { stroke: red; }
.edge:hover polygon { stroke: red; fill: red; }
]]></style>
<script type="text/javascript"><![CDATA[
var edges = document.getElementsByTagName('g');
if (edges && edges.length) {
  for (var i=0;i<edges.length;i++) {
    if (edges[i].id.substr(0,4)=='edge') {
      edges[i].setAttribute('class','edge');
    }
  }
}
]]></script>
        <defs>
                <circle id="rim" cx="0" cy="0" r="7"/>
                <circle id="rim2" cx="0" cy="0" r="3.5"/>
                <g id="zoomPlus">
                        <use xlink:href="#rim" fill="#404040">
                                <set attributeName="fill" to="#808080" begin="zoomplus.mouseover" end="zoomplus.mouseout"/>
                        </use>
                        <path d="M-4,0h8M0,-4v8" fill="none" stroke="white" stroke-width="1.5" pointer-events="none"/>
                </g>
                <g id="zoomMin">
                        <use xlink:href="#rim" fill="#404040">
                                <set attributeName="fill" to="#808080" begin="zoomminus.mouseover" end="zoomminus.mouseout"/>
                        </use>
                        <path d="M-4,0h8" fill="none" stroke="white" stroke-width="1.5" pointer-events="none"/>
                </g>
                <g id="dirArrow">
                        <path fill="none" stroke="white" stroke-width="1.5" d="M0,-3.0v7 M-2.5,-0.5L0,-3.0L2.5,-0.5"/>
                </g>
               <g id="resetDef">
                       <use xlink:href="#rim2" fill="#404040">
                               <set attributeName="fill" to="#808080" begin="reset.mouseover" end="reset.mouseout"/>
                       </use>
               </g>
        </defs>

<script type="text/javascript">
var viewWidth = 835;
var viewHeight = 162;
var sectionId = 'dynsection-0';
</script>
<script xlink:href="svgpan.js"/>
<svg id="graph" class="graph">
<g id="viewport">
<title>src/userobjects/DwarfElephantRBPointValue.C</title>
<polygon fill="white" stroke="none" points="-4,4 -4,-158 830.5,-158 830.5,4 -4,4"/>
<!-- Node1 -->
<g id="node1" class="node"><title>Node1</title>
<polygon fill="#bfbfbf" stroke="black" points="342.5,-123.5 342.5,-153.5 494.5,-153.5 494.5,-123.5 342.5,-123.5"/>
<text text-anchor="start" x="350.5" y="-141.5" font-family="Helvetica,sans-Serif" font-size="10.00">src/userobjects/DwarfElephant</text>
<text text-anchor="middle" x="418.5" y="-130.5" font-family="Helvetica,sans-Serif" font-size="10.00">RBPointValue.C</text>
</g>
<!-- Node2 -->
<g id="node2" class="node"><title>Node2</title>
<g id="a_node2"><a xlink:href="_dwarf_elephant_r_b_point_value_8h.html" target="_top" xlink:title="DwarfElephantRBPointValue.h">
<polygon fill="white" stroke="black" points="0,-62 0,-81 153,-81 153,-62 0,-62"/>
<text text-anchor="middle" x="76.5" y="-69" font-family="Helvetica,sans-Serif" font-size="10.00">DwarfElephantRBPointValue.h</text>
</a>
</g>
</g>
<!-- Node1&#45;&gt;Node2 -->
<g id="edge1" class="edge"><title>Node1&#45;&gt;Node2</title>
<path fill="none" stroke="midnightblue" d="M344.712,-123.476C280.618,-111.294 189.24,-93.9272 131.414,-82.9368"/>
<polygon fill="midnightblue" stroke="midnightblue" points="131.852,-79.4575 121.374,-81.0287 130.544,-86.3343 131.852,-79.4575"/>
</g>
<!-- Node4 -->
<g id="node4" class="node"><title>Node4</title>
<polygon fill="white" stroke="#bfbfbf" points="171,-62 171,-81 250,-81 250,-62 171,-62"/>
<text text-anchor="middle" x="210.5" y="-69" font-family="Helvetica,sans-Serif" font-size="10.00">MooseMesh.h</text>
</g>
<!-- Node1&#45;&gt;Node4 -->
<g id="edge3" class="edge"><title>Node1&#45;&gt;Node4</title>
<path fill="none" stroke="midnightblue" d="M373.623,-123.476C336.014,-111.723 282.959,-95.1433 247.686,-84.1205"/>
<polygon fill="midnightblue" stroke="midnightblue" points="248.381,-80.6708 237.792,-81.0287 246.293,-87.3522 248.381,-80.6708"/>
</g>
<!-- Node5 -->
<g id="node5" class="node"><title>Node5</title>
<polygon fill="white" stroke="#bfbfbf" points="268.5,-62 268.5,-81 360.5,-81 360.5,-62 268.5,-62"/>
<text text-anchor="middle" x="314.5" y="-69" font-family="Helvetica,sans-Serif" font-size="10.00">MooseVariable.h</text>
</g>
<!-- Node1&#45;&gt;Node5 -->
<g id="edge4" class="edge"><title>Node1&#45;&gt;Node5</title>
<path fill="none" stroke="midnightblue" d="M395.934,-123.396C378.493,-112.496 354.466,-97.4787 337.034,-86.5835"/>
<polygon fill="midnightblue" stroke="midnightblue" points="338.446,-83.339 328.111,-81.007 334.736,-89.275 338.446,-83.339"/>
</g>
<!-- Node6 -->
<g id="node6" class="node"><title>Node6</title>
<polygon fill="white" stroke="#bfbfbf" points="378.5,-62 378.5,-81 458.5,-81 458.5,-62 378.5,-62"/>
<text text-anchor="middle" x="418.5" y="-69" font-family="Helvetica,sans-Serif" font-size="10.00">SubProblem.h</text>
</g>
<!-- Node1&#45;&gt;Node6 -->
<g id="edge5" class="edge"><title>Node1&#45;&gt;Node6</title>
<path fill="none" stroke="midnightblue" d="M418.5,-123.396C418.5,-114.064 418.5,-101.714 418.5,-91.5173"/>
<polygon fill="midnightblue" stroke="midnightblue" points="422,-91.1945 418.5,-81.1945 415,-91.1946 422,-91.1945"/>
</g>
<!-- Node7 -->
<g id="node7" class="node"><title>Node7</title>
<polygon fill="white" stroke="#bfbfbf" points="476.5,-62 476.5,-81 570.5,-81 570.5,-62 476.5,-62"/>
<text text-anchor="middle" x="523.5" y="-69" font-family="Helvetica,sans-Serif" font-size="10.00">libmesh/system.h</text>
</g>
<!-- Node1&#45;&gt;Node7 -->
<g id="edge6" class="edge"><title>Node1&#45;&gt;Node7</title>
<path fill="none" stroke="midnightblue" d="M441.283,-123.396C459.055,-112.395 483.6,-97.2002 501.237,-86.2819"/>
<polygon fill="midnightblue" stroke="midnightblue" points="503.098,-89.2465 509.758,-81.007 499.413,-83.2947 503.098,-89.2465"/>
</g>
<!-- Node8 -->
<g id="node8" class="node"><title>Node8</title>
<polygon fill="white" stroke="#bfbfbf" points="588.5,-62 588.5,-81 702.5,-81 702.5,-62 588.5,-62"/>
<text text-anchor="middle" x="645.5" y="-69" font-family="Helvetica,sans-Serif" font-size="10.00">libmesh/fe_interface.h</text>
</g>
<!-- Node1&#45;&gt;Node8 -->
<g id="edge7" class="edge"><title>Node1&#45;&gt;Node8</title>
<path fill="none" stroke="midnightblue" d="M467.476,-123.476C508.873,-111.622 567.418,-94.8583 605.905,-83.8379"/>
<polygon fill="midnightblue" stroke="midnightblue" points="607.065,-87.1463 615.715,-81.0287 605.138,-80.4168 607.065,-87.1463"/>
</g>
<!-- Node9 -->
<g id="node9" class="node"><title>Node9</title>
<polygon fill="white" stroke="#bfbfbf" points="720.5,-56.5 720.5,-86.5 826.5,-86.5 826.5,-56.5 720.5,-56.5"/>
<text text-anchor="start" x="728.5" y="-74.5" font-family="Helvetica,sans-Serif" font-size="10.00">libmesh/fe_compute</text>
<text text-anchor="middle" x="773.5" y="-63.5" font-family="Helvetica,sans-Serif" font-size="10.00">_data.h</text>
</g>
<!-- Node1&#45;&gt;Node9 -->
<g id="edge8" class="edge"><title>Node1&#45;&gt;Node9</title>
<path fill="none" stroke="midnightblue" d="M494.615,-125.646C551.46,-116.5 631.279,-103.044 710.311,-87.1745"/>
<polygon fill="midnightblue" stroke="midnightblue" points="711.337,-90.5379 720.445,-85.1252 709.95,-83.6768 711.337,-90.5379"/>
</g>
<!-- Node3 -->
<g id="node3" class="node"><title>Node3</title>
<polygon fill="white" stroke="#bfbfbf" points="21.5,-0.5 21.5,-19.5 131.5,-19.5 131.5,-0.5 21.5,-0.5"/>
<text text-anchor="middle" x="76.5" y="-7.5" font-family="Helvetica,sans-Serif" font-size="10.00">GeneralUserObject.h</text>
</g>
<!-- Node2&#45;&gt;Node3 -->
<g id="edge2" class="edge"><title>Node2&#45;&gt;Node3</title>
<path fill="none" stroke="midnightblue" d="M76.5,-61.9751C76.5,-53.5803 76.5,-40.4806 76.5,-29.6631"/>
<polygon fill="midnightblue" stroke="midnightblue" points="80.0001,-29.5091 76.5,-19.5091 73.0001,-29.5091 80.0001,-29.5091"/>
</g>
</g>
</svg>
        <g id="navigator" transform="translate(0 0)" fill="#404254">
                <rect fill="#f2f5e9" fill-opacity="0.5" stroke="#606060" stroke-width=".5" x="0" y="0" width="60" height="60"/>
                <use id="zoomplus" xlink:href="#zoomPlus" x="17" y="9" onmousedown="handleZoom(evt,'in')"/>
                <use id="zoomminus" xlink:href="#zoomMin" x="42" y="9" onmousedown="handleZoom(evt,'out')"/>
                <use id="reset" xlink:href="#resetDef" x="30" y="36" onmousedown="handleReset()"/>
                <g id="arrowUp" xlink:href="#dirArrow" transform="translate(30 24)" onmousedown="handlePan(0,-1)">
                  <use xlink:href="#rim" fill="#404040">
                        <set attributeName="fill" to="#808080" begin="arrowUp.mouseover" end="arrowUp.mouseout"/>
                  </use>
                  <path fill="none" stroke="white" stroke-width="1.5" d="M0,-3.0v7 M-2.5,-0.5L0,-3.0L2.5,-0.5"/>
                </g>
                <g id="arrowRight" xlink:href="#dirArrow" transform="rotate(90) translate(36 -43)" onmousedown="handlePan(1,0)">
                  <use xlink:href="#rim" fill="#404040">
                        <set attributeName="fill" to="#808080" begin="arrowRight.mouseover" end="arrowRight.mouseout"/>
                  </use>
                  <path fill="none" stroke="white" stroke-width="1.5" d="M0,-3.0v7 M-2.5,-0.5L0,-3.0L2.5,-0.5"/>
                </g>
                <g id="arrowDown" xlink:href="#dirArrow" transform="rotate(180) translate(-30 -48)" onmousedown="handlePan(0,1)">
                  <use xlink:href="#rim" fill="#404040">
                        <set attributeName="fill" to="#808080" begin="arrowDown.mouseover" end="arrowDown.mouseout"/>
                  </use>
                  <path fill="none" stroke="white" stroke-width="1.5" d="M0,-3.0v7 M-2.5,-0.5L0,-3.0L2.5,-0.5"/>
                </g>
                <g id="arrowLeft" xlink:href="#dirArrow" transform="rotate(270) translate(-36 17)" onmousedown="handlePan(-1,0)">
                  <use xlink:href="#rim" fill="#404040">
                        <set attributeName="fill" to="#808080" begin="arrowLeft.mouseover" end="arrowLeft.mouseout"/>
                  </use>
                  <path fill="none" stroke="white" stroke-width="1.5" d="M0,-3.0v7 M-2.5,-0.5L0,-3.0L2.5,-0.5"/>
                </g>
        </g>
        <svg viewBox="0 0 15 15" width="100%" height="30px" preserveAspectRatio="xMaxYMin meet">
         <g id="arrow_out" transform="scale(0.3 0.3)">
          <a xlink:href="_dwarf_elephant_r_b_point_value_8_c__incl_org.svg" target="_base">
           <rect id="button" ry="5" rx="5" y="6" x="6" height="38" width="38"
                fill="#f2f5e9" fill-opacity="0.5" stroke="#606060" stroke-width="1.0"/>
           <path id="arrow"
             d="M 11.500037,31.436501 C 11.940474,20.09759 22.043105,11.32322 32.158766,21.979434 L 37.068811,17.246167 C 37.068811,17.246167 37.088388,32 37.088388,32 L 22.160133,31.978069 C 22.160133,31.978069 26.997745,27.140456 26.997745,27.140456 C 18.528582,18.264221 13.291696,25.230495 11.500037,31.436501 z"
             style="fill:#404040;"/>
          </a>
         </g>
        </svg>
</svg>
