<?xml version="1.0" encoding="UTF-8" standalone="no"?>
<!DOCTYPE svg PUBLIC "-//W3C//DTD SVG 1.1//EN"
 "http://www.w3.org/Graphics/SVG/1.1/DTD/svg11.dtd">
<!-- Generated by graphviz version 2.38.0 (20140413.2041)
 -->
<!-- Title: include/bcs/DwarfElephantRBPenaltyDirichletBC.h Pages: 1 -->
<svg width="340pt" height="106pt"
 viewBox="0.00 0.00 340.00 106.00" xmlns="http://www.w3.org/2000/svg" xmlns:xlink="http://www.w3.org/1999/xlink">
<g id="graph0" class="graph" transform="scale(1 1) rotate(0) translate(4 102)">
<title>include/bcs/DwarfElephantRBPenaltyDirichletBC.h</title>
<polygon fill="white" stroke="none" points="-4,4 -4,-102 336,-102 336,4 -4,4"/>
<!-- Node1 -->
<g id="node1" class="node"><title>Node1</title>
<polygon fill="#bfbfbf" stroke="black" points="94.5,-67.5 94.5,-97.5 229.5,-97.5 229.5,-67.5 94.5,-67.5"/>
<text text-anchor="start" x="102.5" y="-85.5" font-family="Helvetica,sans-Serif" font-size="10.00">include/bcs/DwarfElephant</text>
<text text-anchor="middle" x="162" y="-74.5" font-family="Helvetica,sans-Serif" font-size="10.00">RBPenaltyDirichletBC.h</text>
</g>
<!-- Node2 -->
<g id="node2" class="node"><title>Node2</title>
<g id="a_node2"><a xlink:href="_dwarf_elephant_app_8_c.html" target="_top" xlink:title="src/base/DwarfElephantApp.C">
<polygon fill="white" stroke="black" points="0,-6 0,-25 150,-25 150,-6 0,-6"/>
<text text-anchor="middle" x="75" y="-13" font-family="Helvetica,sans-Serif" font-size="10.00">src/base/DwarfElephantApp.C</text>
</a>
</g>
</g>
<!-- Node1&#45;&gt;Node2 -->
<g id="edge1" class="edge"><title>Node1&#45;&gt;Node2</title>
<path fill="none" stroke="midnightblue" d="M135.02,-61.3425C118.785,-49.2128 98.9437,-34.389 86.6373,-25.1945"/>
<polygon fill="midnightblue" stroke="midnightblue" points="133.016,-64.2145 143.122,-67.396 137.206,-58.6068 133.016,-64.2145"/>
</g>
<!-- Node3 -->
<g id="node3" class="node"><title>Node3</title>
<g id="a_node3"><a xlink:href="_dwarf_elephant_r_b_penalty_dirichlet_b_c_8_c.html" target="_top" xlink:title="src/bcs/DwarfElephantRBPenalty\lDirichletBC.C">
<polygon fill="white" stroke="black" points="168,-0.5 168,-30.5 332,-30.5 332,-0.5 168,-0.5"/>
<text text-anchor="start" x="176" y="-18.5" font-family="Helvetica,sans-Serif" font-size="10.00">src/bcs/DwarfElephantRBPenalty</text>
<text text-anchor="middle" x="250" y="-7.5" font-family="Helvetica,sans-Serif" font-size="10.00">DirichletBC.C</text>
</a>
</g>
</g>
<!-- Node1&#45;&gt;Node3 -->
<g id="edge2" class="edge"><title>Node1&#45;&gt;Node3</title>
<path fill="none" stroke="midnightblue" d="M189.143,-61.4511C202.681,-51.4517 218.727,-39.5995 230.943,-30.5765"/>
<polygon fill="midnightblue" stroke="midnightblue" points="187.059,-58.6393 181.095,-67.396 191.218,-64.2699 187.059,-58.6393"/>
</g>
</g>
</svg>
