<?xml version="1.0" encoding="UTF-8" standalone="no"?>
<!DOCTYPE svg PUBLIC "-//W3C//DTD SVG 1.1//EN"
 "http://www.w3.org/Graphics/SVG/1.1/DTD/svg11.dtd">
<!-- Generated by graphviz version 2.38.0 (20140413.2041)
 -->
<!-- Title: src/userobjects/DwarfElephantERTPreCalculations.C Pages: 1 -->
<svg width="501pt" height="151pt"
 viewBox="0.00 0.00 501.00 151.00" xmlns="http://www.w3.org/2000/svg" xmlns:xlink="http://www.w3.org/1999/xlink">
<g id="graph0" class="graph" transform="scale(1 1) rotate(0) translate(4 147)">
<title>src/userobjects/DwarfElephantERTPreCalculations.C</title>
<polygon fill="white" stroke="none" points="-4,4 -4,-147 497,-147 497,4 -4,4"/>
<!-- Node1 -->
<g id="node1" class="node"><title>Node1</title>
<polygon fill="#bfbfbf" stroke="black" points="203.5,-112.5 203.5,-142.5 355.5,-142.5 355.5,-112.5 203.5,-112.5"/>
<text text-anchor="start" x="211.5" y="-130.5" font-family="Helvetica,sans-Serif" font-size="10.00">src/userobjects/DwarfElephant</text>
<text text-anchor="middle" x="279.5" y="-119.5" font-family="Helvetica,sans-Serif" font-size="10.00">ERTPreCalculations.C</text>
</g>
<!-- Node2 -->
<g id="node2" class="node"><title>Node2</title>
<g id="a_node2"><a xlink:href="_dwarf_elephant_e_r_t_pre_calculations_8h.html" target="_top" xlink:title="DwarfElephantERTPreCalculations.h">
<polygon fill="white" stroke="black" points="189.5,-56.5 189.5,-75.5 369.5,-75.5 369.5,-56.5 189.5,-56.5"/>
<text text-anchor="middle" x="279.5" y="-63.5" font-family="Helvetica,sans-Serif" font-size="10.00">DwarfElephantERTPreCalculations.h</text>
</a>
</g>
</g>
<!-- Node1&#45;&gt;Node2 -->
<g id="edge1" class="edge"><title>Node1&#45;&gt;Node2</title>
<path fill="none" stroke="midnightblue" d="M279.5,-112.399C279.5,-104.466 279.5,-94.458 279.5,-85.8583"/>
<polygon fill="midnightblue" stroke="midnightblue" points="283,-85.6577 279.5,-75.6578 276,-85.6578 283,-85.6577"/>
</g>
<!-- Node3 -->
<g id="node3" class="node"><title>Node3</title>
<polygon fill="white" stroke="#bfbfbf" points="0,-0.5 0,-19.5 143,-19.5 143,-0.5 0,-0.5"/>
<text text-anchor="middle" x="71.5" y="-7.5" font-family="Helvetica,sans-Serif" font-size="10.00">libmesh/equation_systems.h</text>
</g>
<!-- Node2&#45;&gt;Node3 -->
<g id="edge2" class="edge"><title>Node2&#45;&gt;Node3</title>
<path fill="none" stroke="midnightblue" d="M246.542,-56.4435C210.713,-47.1419 153.337,-32.246 114.109,-22.062"/>
<polygon fill="midnightblue" stroke="midnightblue" points="114.863,-18.6417 104.304,-19.5164 113.104,-25.4171 114.863,-18.6417"/>
</g>
<!-- Node4 -->
<g id="node4" class="node"><title>Node4</title>
<polygon fill="white" stroke="#bfbfbf" points="161.5,-0.5 161.5,-19.5 271.5,-19.5 271.5,-0.5 161.5,-0.5"/>
<text text-anchor="middle" x="216.5" y="-7.5" font-family="Helvetica,sans-Serif" font-size="10.00">GeneralUserObject.h</text>
</g>
<!-- Node2&#45;&gt;Node4 -->
<g id="edge3" class="edge"><title>Node2&#45;&gt;Node4</title>
<path fill="none" stroke="midnightblue" d="M269.378,-56.324C259.974,-48.2631 245.756,-36.0765 234.431,-26.3695"/>
<polygon fill="midnightblue" stroke="midnightblue" points="236.677,-23.6844 226.806,-19.8339 232.121,-28.9993 236.677,-23.6844"/>
</g>
<!-- Node5 -->
<g id="node5" class="node"><title>Node5</title>
<polygon fill="white" stroke="#bfbfbf" points="289.5,-0.5 289.5,-19.5 395.5,-19.5 395.5,-0.5 289.5,-0.5"/>
<text text-anchor="middle" x="342.5" y="-7.5" font-family="Helvetica,sans-Serif" font-size="10.00">DisplacedProblem.h</text>
</g>
<!-- Node2&#45;&gt;Node5 -->
<g id="edge4" class="edge"><title>Node2&#45;&gt;Node5</title>
<path fill="none" stroke="midnightblue" d="M289.622,-56.324C299.026,-48.2631 313.244,-36.0765 324.569,-26.3695"/>
<polygon fill="midnightblue" stroke="midnightblue" points="326.879,-28.9993 332.194,-19.8339 322.323,-23.6844 326.879,-28.9993"/>
</g>
<!-- Node6 -->
<g id="node6" class="node"><title>Node6</title>
<polygon fill="white" stroke="#bfbfbf" points="414,-0.5 414,-19.5 493,-19.5 493,-0.5 414,-0.5"/>
<text text-anchor="middle" x="453.5" y="-7.5" font-family="Helvetica,sans-Serif" font-size="10.00">MooseMesh.h</text>
</g>
<!-- Node2&#45;&gt;Node6 -->
<g id="edge5" class="edge"><title>Node2&#45;&gt;Node6</title>
<path fill="none" stroke="midnightblue" d="M307.071,-56.4435C336.597,-47.2801 383.618,-32.6876 416.383,-22.5192"/>
<polygon fill="midnightblue" stroke="midnightblue" points="417.545,-25.8232 426.058,-19.5164 415.47,-19.1378 417.545,-25.8232"/>
</g>
</g>
</svg>
