<?xml version="1.0" encoding="UTF-8" standalone="no"?>
<!DOCTYPE svg PUBLIC "-//W3C//DTD SVG 1.1//EN"
 "http://www.w3.org/Graphics/SVG/1.1/DTD/svg11.dtd">
<!-- Generated by graphviz version 2.38.0 (20140413.2041)
 -->
<!-- Title: include/userobjects/DwarfElephantERTPreCalculations.h Pages: 1 -->
<svg width="501pt" height="95pt"
 viewBox="0.00 0.00 501.00 95.00" xmlns="http://www.w3.org/2000/svg" xmlns:xlink="http://www.w3.org/1999/xlink">
<g id="graph0" class="graph" transform="scale(1 1) rotate(0) translate(4 91)">
<title>include/userobjects/DwarfElephantERTPreCalculations.h</title>
<polygon fill="white" stroke="none" points="-4,4 -4,-91 497,-91 497,4 -4,4"/>
<!-- Node1 -->
<g id="node1" class="node"><title>Node1</title>
<polygon fill="#bfbfbf" stroke="black" points="188,-56.5 188,-86.5 371,-86.5 371,-56.5 188,-56.5"/>
<text text-anchor="start" x="196" y="-74.5" font-family="Helvetica,sans-Serif" font-size="10.00">include/userobjects</text>
<text text-anchor="middle" x="279.5" y="-63.5" font-family="Helvetica,sans-Serif" font-size="10.00">/DwarfElephantERTPreCalculations.h</text>
</g>
<!-- Node2 -->
<g id="node2" class="node"><title>Node2</title>
<polygon fill="white" stroke="#bfbfbf" points="0,-0.5 0,-19.5 143,-19.5 143,-0.5 0,-0.5"/>
<text text-anchor="middle" x="71.5" y="-7.5" font-family="Helvetica,sans-Serif" font-size="10.00">libmesh/equation_systems.h</text>
</g>
<!-- Node1&#45;&gt;Node2 -->
<g id="edge1" class="edge"><title>Node1&#45;&gt;Node2</title>
<path fill="none" stroke="midnightblue" d="M230.47,-56.4747C194.116,-46.0752 145.186,-32.0783 111.255,-22.3722"/>
<polygon fill="midnightblue" stroke="midnightblue" points="111.814,-18.8917 101.237,-19.5064 109.888,-25.6217 111.814,-18.8917"/>
</g>
<!-- Node3 -->
<g id="node3" class="node"><title>Node3</title>
<polygon fill="white" stroke="#bfbfbf" points="161.5,-0.5 161.5,-19.5 271.5,-19.5 271.5,-0.5 161.5,-0.5"/>
<text text-anchor="middle" x="216.5" y="-7.5" font-family="Helvetica,sans-Serif" font-size="10.00">GeneralUserObject.h</text>
</g>
<!-- Node1&#45;&gt;Node3 -->
<g id="edge2" class="edge"><title>Node1&#45;&gt;Node3</title>
<path fill="none" stroke="midnightblue" d="M264.57,-56.3993C255.132,-47.4859 242.92,-35.9523 233.167,-26.7408"/>
<polygon fill="midnightblue" stroke="midnightblue" points="235.34,-23.9795 225.667,-19.6578 230.534,-29.0686 235.34,-23.9795"/>
</g>
<!-- Node4 -->
<g id="node4" class="node"><title>Node4</title>
<polygon fill="white" stroke="#bfbfbf" points="289.5,-0.5 289.5,-19.5 395.5,-19.5 395.5,-0.5 289.5,-0.5"/>
<text text-anchor="middle" x="342.5" y="-7.5" font-family="Helvetica,sans-Serif" font-size="10.00">DisplacedProblem.h</text>
</g>
<!-- Node1&#45;&gt;Node4 -->
<g id="edge3" class="edge"><title>Node1&#45;&gt;Node4</title>
<path fill="none" stroke="midnightblue" d="M294.43,-56.3993C303.868,-47.4859 316.08,-35.9523 325.833,-26.7408"/>
<polygon fill="midnightblue" stroke="midnightblue" points="328.466,-29.0686 333.333,-19.6578 323.66,-23.9795 328.466,-29.0686"/>
</g>
<!-- Node5 -->
<g id="node5" class="node"><title>Node5</title>
<polygon fill="white" stroke="#bfbfbf" points="414,-0.5 414,-19.5 493,-19.5 493,-0.5 414,-0.5"/>
<text text-anchor="middle" x="453.5" y="-7.5" font-family="Helvetica,sans-Serif" font-size="10.00">MooseMesh.h</text>
</g>
<!-- Node1&#45;&gt;Node5 -->
<g id="edge4" class="edge"><title>Node1&#45;&gt;Node5</title>
<path fill="none" stroke="midnightblue" d="M320.736,-56.3993C350.671,-46.1627 390.713,-32.4703 418.969,-22.8082"/>
<polygon fill="midnightblue" stroke="midnightblue" points="420.106,-26.1183 428.435,-19.5709 417.841,-19.4949 420.106,-26.1183"/>
</g>
</g>
</svg>
