<?xml version="1.0" encoding="UTF-8" standalone="no"?>
<!DOCTYPE svg PUBLIC "-//W3C//DTD SVG 1.1//EN"
 "http://www.w3.org/Graphics/SVG/1.1/DTD/svg11.dtd">
<!-- Generated by graphviz version 2.38.0 (20140413.2041)
 -->
<!-- Title: src/base/DwarfElephantRBAssembly.C Pages: 1 -->
<svg width="382pt" height="140pt"
 viewBox="0.00 0.00 381.50 140.00" xmlns="http://www.w3.org/2000/svg" xmlns:xlink="http://www.w3.org/1999/xlink">
<g id="graph0" class="graph" transform="scale(1 1) rotate(0) translate(4 136)">
<title>src/base/DwarfElephantRBAssembly.C</title>
<polygon fill="white" stroke="none" points="-4,4 -4,-136 377.5,-136 377.5,4 -4,4"/>
<!-- Node1 -->
<g id="node1" class="node"><title>Node1</title>
<polygon fill="#bfbfbf" stroke="black" points="113.5,-112.5 113.5,-131.5 303.5,-131.5 303.5,-112.5 113.5,-112.5"/>
<text text-anchor="middle" x="208.5" y="-119.5" font-family="Helvetica,sans-Serif" font-size="10.00">src/base/DwarfElephantRBAssembly.C</text>
</g>
<!-- Node2 -->
<g id="node2" class="node"><title>Node2</title>
<g id="a_node2"><a xlink:href="_dwarf_elephant_r_b_assembly_8h.html" target="_top" xlink:title="DwarfElephantRBAssembly.h">
<polygon fill="white" stroke="black" points="134.5,-56.5 134.5,-75.5 282.5,-75.5 282.5,-56.5 134.5,-56.5"/>
<text text-anchor="middle" x="208.5" y="-63.5" font-family="Helvetica,sans-Serif" font-size="10.00">DwarfElephantRBAssembly.h</text>
</a>
</g>
</g>
<!-- Node1&#45;&gt;Node2 -->
<g id="edge1" class="edge"><title>Node1&#45;&gt;Node2</title>
<path fill="none" stroke="midnightblue" d="M208.5,-112.083C208.5,-105.006 208.5,-94.8611 208.5,-85.9865"/>
<polygon fill="midnightblue" stroke="midnightblue" points="212,-85.751 208.5,-75.7511 205,-85.7511 212,-85.751"/>
</g>
<!-- Node3 -->
<g id="node3" class="node"><title>Node3</title>
<polygon fill="white" stroke="#bfbfbf" points="0,-0.5 0,-19.5 125,-19.5 125,-0.5 0,-0.5"/>
<text text-anchor="middle" x="62.5" y="-7.5" font-family="Helvetica,sans-Serif" font-size="10.00">libmesh/sparse_matrix.h</text>
</g>
<!-- Node2&#45;&gt;Node3 -->
<g id="edge2" class="edge"><title>Node2&#45;&gt;Node3</title>
<path fill="none" stroke="midnightblue" d="M185.366,-56.4435C161.018,-47.4381 122.493,-33.1891 95.077,-23.049"/>
<polygon fill="midnightblue" stroke="midnightblue" points="96.1191,-19.7028 85.5259,-19.5164 93.6908,-26.2681 96.1191,-19.7028"/>
</g>
<!-- Node4 -->
<g id="node4" class="node"><title>Node4</title>
<polygon fill="white" stroke="#bfbfbf" points="143.5,-0.5 143.5,-19.5 273.5,-19.5 273.5,-0.5 143.5,-0.5"/>
<text text-anchor="middle" x="208.5" y="-7.5" font-family="Helvetica,sans-Serif" font-size="10.00">libmesh/numeric_vector.h</text>
</g>
<!-- Node2&#45;&gt;Node4 -->
<g id="edge3" class="edge"><title>Node2&#45;&gt;Node4</title>
<path fill="none" stroke="midnightblue" d="M208.5,-56.083C208.5,-49.0059 208.5,-38.8611 208.5,-29.9865"/>
<polygon fill="midnightblue" stroke="midnightblue" points="212,-29.751 208.5,-19.7511 205,-29.7511 212,-29.751"/>
</g>
<!-- Node5 -->
<g id="node5" class="node"><title>Node5</title>
<polygon fill="white" stroke="#bfbfbf" points="291.5,-0.5 291.5,-19.5 373.5,-19.5 373.5,-0.5 291.5,-0.5"/>
<text text-anchor="middle" x="332.5" y="-7.5" font-family="Helvetica,sans-Serif" font-size="10.00">MooseTypes.h</text>
</g>
<!-- Node2&#45;&gt;Node5 -->
<g id="edge4" class="edge"><title>Node2&#45;&gt;Node5</title>
<path fill="none" stroke="midnightblue" d="M228.148,-56.4435C248.465,-47.5961 280.403,-33.6875 303.598,-23.5865"/>
<polygon fill="midnightblue" stroke="midnightblue" points="305.173,-26.7181 312.944,-19.5164 302.378,-20.3002 305.173,-26.7181"/>
</g>
</g>
</svg>
