<?xml version="1.0" encoding="UTF-8" standalone="no"?>
<!DOCTYPE svg PUBLIC "-//W3C//DTD SVG 1.1//EN"
 "http://www.w3.org/Graphics/SVG/1.1/DTD/svg11.dtd">
<!-- Generated by graphviz version 2.38.0 (20140413.2041)
 -->
<!-- Title: src/vectorpostprocessors/DwarfElephantElementalVariableValuesAlongLine.C Pages: 1 -->
<svg width="576pt" height="173pt"
 viewBox="0.00 0.00 575.50 173.00" xmlns="http://www.w3.org/2000/svg" xmlns:xlink="http://www.w3.org/1999/xlink">
<g id="graph0" class="graph" transform="scale(1 1) rotate(0) translate(4 169)">
<title>src/vectorpostprocessors/DwarfElephantElementalVariableValuesAlongLine.C</title>
<polygon fill="white" stroke="none" points="-4,4 -4,-169 571.5,-169 571.5,4 -4,4"/>
<!-- Node1 -->
<g id="node1" class="node"><title>Node1</title>
<polygon fill="#bfbfbf" stroke="black" points="238.5,-123.5 238.5,-164.5 404.5,-164.5 404.5,-123.5 238.5,-123.5"/>
<text text-anchor="start" x="246.5" y="-152.5" font-family="Helvetica,sans-Serif" font-size="10.00">src/vectorpostprocessors</text>
<text text-anchor="start" x="246.5" y="-141.5" font-family="Helvetica,sans-Serif" font-size="10.00">/DwarfElephantElementalVariable</text>
<text text-anchor="middle" x="321.5" y="-130.5" font-family="Helvetica,sans-Serif" font-size="10.00">ValuesAlongLine.C</text>
</g>
<!-- Node2 -->
<g id="node2" class="node"><title>Node2</title>
<g id="a_node2"><a xlink:href="_dwarf_elephant_elemental_variable_values_along_line_8h.html" target="_top" xlink:title="DwarfElephantElementalVariable\lValuesAlongLine.h">
<polygon fill="white" stroke="black" points="0,-56.5 0,-86.5 163,-86.5 163,-56.5 0,-56.5"/>
<text text-anchor="start" x="8" y="-74.5" font-family="Helvetica,sans-Serif" font-size="10.00">DwarfElephantElementalVariable</text>
<text text-anchor="middle" x="81.5" y="-63.5" font-family="Helvetica,sans-Serif" font-size="10.00">ValuesAlongLine.h</text>
</a>
</g>
</g>
<!-- Node1&#45;&gt;Node2 -->
<g id="edge1" class="edge"><title>Node1&#45;&gt;Node2</title>
<path fill="none" stroke="midnightblue" d="M254.965,-123.455C218.729,-112.811 174.316,-99.7646 139.501,-89.5379"/>
<polygon fill="midnightblue" stroke="midnightblue" points="140.07,-86.0572 129.489,-86.5968 138.097,-92.7734 140.07,-86.0572"/>
</g>
<!-- Node4 -->
<g id="node4" class="node"><title>Node4</title>
<polygon fill="white" stroke="#bfbfbf" points="181.5,-62 181.5,-81 265.5,-81 265.5,-62 181.5,-62"/>
<text text-anchor="middle" x="223.5" y="-69" font-family="Helvetica,sans-Serif" font-size="10.00">LineSegment.h</text>
</g>
<!-- Node1&#45;&gt;Node4 -->
<g id="edge3" class="edge"><title>Node1&#45;&gt;Node4</title>
<path fill="none" stroke="midnightblue" d="M294.202,-123.362C278.255,-111.89 258.466,-97.654 243.883,-87.1632"/>
<polygon fill="midnightblue" stroke="midnightblue" points="245.718,-84.172 235.557,-81.1734 241.63,-89.8544 245.718,-84.172"/>
</g>
<!-- Node5 -->
<g id="node5" class="node"><title>Node5</title>
<polygon fill="white" stroke="#bfbfbf" points="283.5,-62 283.5,-81 359.5,-81 359.5,-62 283.5,-62"/>
<text text-anchor="middle" x="321.5" y="-69" font-family="Helvetica,sans-Serif" font-size="10.00">RayTracing.h</text>
</g>
<!-- Node1&#45;&gt;Node5 -->
<g id="edge4" class="edge"><title>Node1&#45;&gt;Node5</title>
<path fill="none" stroke="midnightblue" d="M321.5,-123.362C321.5,-113.297 321.5,-101.104 321.5,-91.18"/>
<polygon fill="midnightblue" stroke="midnightblue" points="325,-91.1733 321.5,-81.1734 318,-91.1734 325,-91.1733"/>
</g>
<!-- Node6 -->
<g id="node6" class="node"><title>Node6</title>
<polygon fill="white" stroke="#bfbfbf" points="378,-62 378,-81 457,-81 457,-62 378,-62"/>
<text text-anchor="middle" x="417.5" y="-69" font-family="Helvetica,sans-Serif" font-size="10.00">MooseMesh.h</text>
</g>
<!-- Node1&#45;&gt;Node6 -->
<g id="edge5" class="edge"><title>Node1&#45;&gt;Node6</title>
<path fill="none" stroke="midnightblue" d="M348.241,-123.362C363.862,-111.89 383.248,-97.654 397.533,-87.1632"/>
<polygon fill="midnightblue" stroke="midnightblue" points="399.701,-89.9135 405.689,-81.1734 395.558,-84.2715 399.701,-89.9135"/>
</g>
<!-- Node7 -->
<g id="node7" class="node"><title>Node7</title>
<polygon fill="white" stroke="#bfbfbf" points="475.5,-62 475.5,-81 567.5,-81 567.5,-62 475.5,-62"/>
<text text-anchor="middle" x="521.5" y="-69" font-family="Helvetica,sans-Serif" font-size="10.00">MooseVariable.h</text>
</g>
<!-- Node1&#45;&gt;Node7 -->
<g id="edge6" class="edge"><title>Node1&#45;&gt;Node7</title>
<path fill="none" stroke="midnightblue" d="M376.946,-123.455C412.467,-110.934 457.415,-95.0899 487.683,-84.4206"/>
<polygon fill="midnightblue" stroke="midnightblue" points="489.082,-87.6385 497.35,-81.013 486.755,-81.0366 489.082,-87.6385"/>
</g>
<!-- Node3 -->
<g id="node3" class="node"><title>Node3</title>
<polygon fill="white" stroke="#bfbfbf" points="5,-0.5 5,-19.5 158,-19.5 158,-0.5 5,-0.5"/>
<text text-anchor="middle" x="81.5" y="-7.5" font-family="Helvetica,sans-Serif" font-size="10.00">GeneralVectorPostprocessor.h</text>
</g>
<!-- Node2&#45;&gt;Node3 -->
<g id="edge2" class="edge"><title>Node2&#45;&gt;Node3</title>
<path fill="none" stroke="midnightblue" d="M81.5,-56.3993C81.5,-48.4664 81.5,-38.458 81.5,-29.8583"/>
<polygon fill="midnightblue" stroke="midnightblue" points="85.0001,-29.6577 81.5,-19.6578 78.0001,-29.6578 85.0001,-29.6577"/>
</g>
</g>
</svg>
