<?xml version="1.0" encoding="UTF-8" standalone="no"?>
<!DOCTYPE svg PUBLIC "-//W3C//DTD SVG 1.1//EN"
 "http://www.w3.org/Graphics/SVG/1.1/DTD/svg11.dtd">
<!-- Generated by graphviz version 2.38.0 (20140413.2041)
 -->
<!-- Title: include/ics/DwarfElephantRBConstantIC.h Pages: 1 -->
<svg width="364pt" height="95pt"
 viewBox="0.00 0.00 363.50 95.00" xmlns="http://www.w3.org/2000/svg" xmlns:xlink="http://www.w3.org/1999/xlink">
<g id="graph0" class="graph" transform="scale(1 1) rotate(0) translate(4 91)">
<title>include/ics/DwarfElephantRBConstantIC.h</title>
<polygon fill="white" stroke="none" points="-4,4 -4,-91 359.5,-91 359.5,4 -4,4"/>
<!-- Node1 -->
<g id="node1" class="node"><title>Node1</title>
<polygon fill="#bfbfbf" stroke="black" points="102,-56.5 102,-86.5 234,-86.5 234,-56.5 102,-56.5"/>
<text text-anchor="start" x="110" y="-74.5" font-family="Helvetica,sans-Serif" font-size="10.00">include/ics/DwarfElephant</text>
<text text-anchor="middle" x="168" y="-63.5" font-family="Helvetica,sans-Serif" font-size="10.00">RBConstantIC.h</text>
</g>
<!-- Node2 -->
<g id="node2" class="node"><title>Node2</title>
<g id="a_node2"><a xlink:href="_dwarf_elephant_app_8_c.html" target="_top" xlink:title="src/base/DwarfElephantApp.C">
<polygon fill="white" stroke="black" points="0,-0.5 0,-19.5 150,-19.5 150,-0.5 0,-0.5"/>
<text text-anchor="middle" x="75" y="-7.5" font-family="Helvetica,sans-Serif" font-size="10.00">src/base/DwarfElephantApp.C</text>
</a>
</g>
</g>
<!-- Node1&#45;&gt;Node2 -->
<g id="edge1" class="edge"><title>Node1&#45;&gt;Node2</title>
<path fill="none" stroke="midnightblue" d="M137.171,-50.7764C120.69,-40.2315 101.233,-27.7834 88.5323,-19.6578"/>
<polygon fill="midnightblue" stroke="midnightblue" points="135.65,-53.9583 145.96,-56.3993 139.423,-48.0618 135.65,-53.9583"/>
</g>
<!-- Node3 -->
<g id="node3" class="node"><title>Node3</title>
<g id="a_node3"><a xlink:href="_dwarf_elephant_r_b_constant_i_c_8_c.html" target="_top" xlink:title="src/ics/DwarfElephantRBConstantIC.C">
<polygon fill="white" stroke="black" points="168.5,-0.5 168.5,-19.5 355.5,-19.5 355.5,-0.5 168.5,-0.5"/>
<text text-anchor="middle" x="262" y="-7.5" font-family="Helvetica,sans-Serif" font-size="10.00">src/ics/DwarfElephantRBConstantIC.C</text>
</a>
</g>
</g>
<!-- Node1&#45;&gt;Node3 -->
<g id="edge2" class="edge"><title>Node1&#45;&gt;Node3</title>
<path fill="none" stroke="midnightblue" d="M199.16,-50.7764C215.819,-40.2315 235.485,-27.7834 248.322,-19.6578"/>
<polygon fill="midnightblue" stroke="midnightblue" points="196.854,-48.0936 190.277,-56.3993 200.598,-54.0083 196.854,-48.0936"/>
</g>
</g>
</svg>
