<?xml version="1.0" encoding="UTF-8" standalone="no"?>
<!DOCTYPE svg PUBLIC "-//W3C//DTD SVG 1.1//EN"
 "http://www.w3.org/Graphics/SVG/1.1/DTD/svg11.dtd">
<!-- Generated by graphviz version 2.38.0 (20140413.2041)
 -->
<!-- Title: src/ics/DwarfElephantFileIC.C Pages: 1 -->
<svg width="320pt" height="151pt"
 viewBox="0.00 0.00 319.70 151.00" xmlns="http://www.w3.org/2000/svg" xmlns:xlink="http://www.w3.org/1999/xlink">
<g id="graph0" class="graph" transform="scale(1 1) rotate(0) translate(4 147)">
<title>src/ics/DwarfElephantFileIC.C</title>
<polygon fill="white" stroke="none" points="-4,4 -4,-147 315.697,-147 315.697,4 -4,4"/>
<!-- Node1 -->
<g id="node1" class="node"><title>Node1</title>
<polygon fill="#bfbfbf" stroke="black" points="150,-123.5 150,-142.5 299,-142.5 299,-123.5 150,-123.5"/>
<text text-anchor="middle" x="224.5" y="-130.5" font-family="Helvetica,sans-Serif" font-size="10.00">src/ics/DwarfElephantFileIC.C</text>
</g>
<!-- Node2 -->
<g id="node2" class="node"><title>Node2</title>
<g id="a_node2"><a xlink:href="_dwarf_elephant_file_i_c_8h.html" target="_top" xlink:title="DwarfElephantFileIC.h">
<polygon fill="white" stroke="black" points="15,-62 15,-81 132,-81 132,-62 15,-62"/>
<text text-anchor="middle" x="73.5" y="-69" font-family="Helvetica,sans-Serif" font-size="10.00">DwarfElephantFileIC.h</text>
</a>
</g>
</g>
<!-- Node1&#45;&gt;Node2 -->
<g id="edge1" class="edge"><title>Node1&#45;&gt;Node2</title>
<path fill="none" stroke="midnightblue" d="M202.865,-123.475C177.076,-113.313 133.789,-96.2564 104.46,-84.6996"/>
<polygon fill="midnightblue" stroke="midnightblue" points="105.681,-81.4189 95.0945,-81.0091 103.115,-87.9315 105.681,-81.4189"/>
</g>
<!-- Node5 -->
<g id="node5" class="node"><title>Node5</title>
<g id="a_node5"><a xlink:href="_dwarf_elephant_initial_condition_file_reader_8h.html" target="_top" xlink:title="DwarfElephantInitialCondition\lFileReader.h">
<polygon fill="white" stroke="black" points="150.5,-56.5 150.5,-86.5 298.5,-86.5 298.5,-56.5 150.5,-56.5"/>
<text text-anchor="start" x="158.5" y="-74.5" font-family="Helvetica,sans-Serif" font-size="10.00">DwarfElephantInitialCondition</text>
<text text-anchor="middle" x="224.5" y="-63.5" font-family="Helvetica,sans-Serif" font-size="10.00">FileReader.h</text>
</a>
</g>
</g>
<!-- Node1&#45;&gt;Node5 -->
<g id="edge4" class="edge"><title>Node1&#45;&gt;Node5</title>
<path fill="none" stroke="midnightblue" d="M224.5,-123.475C224.5,-116.471 224.5,-106.192 224.5,-96.6956"/>
<polygon fill="midnightblue" stroke="midnightblue" points="228,-96.5229 224.5,-86.523 221,-96.523 228,-96.5229"/>
</g>
<!-- Node6 -->
<g id="node6" class="node"><title>Node6</title>
<polygon fill="white" stroke="#bfbfbf" points="244,-0.5 244,-19.5 307,-19.5 307,-0.5 244,-0.5"/>
<text text-anchor="middle" x="275.5" y="-7.5" font-family="Helvetica,sans-Serif" font-size="10.00">Function.h</text>
</g>
<!-- Node1&#45;&gt;Node6 -->
<g id="edge6" class="edge"><title>Node1&#45;&gt;Node6</title>
<path fill="none" stroke="midnightblue" d="M256.685,-123.488C275.039,-116.801 296.516,-105.45 307.5,-87 318.993,-67.6946 304.369,-43.4972 291.33,-27.6609"/>
<polygon fill="midnightblue" stroke="midnightblue" points="293.656,-25.0064 284.425,-19.8074 288.399,-29.6285 293.656,-25.0064"/>
</g>
<!-- Node3 -->
<g id="node3" class="node"><title>Node3</title>
<polygon fill="white" stroke="#bfbfbf" points="0,-0.5 0,-19.5 73,-19.5 73,-0.5 0,-0.5"/>
<text text-anchor="middle" x="36.5" y="-7.5" font-family="Helvetica,sans-Serif" font-size="10.00">FunctionIC.h</text>
</g>
<!-- Node2&#45;&gt;Node3 -->
<g id="edge2" class="edge"><title>Node2&#45;&gt;Node3</title>
<path fill="none" stroke="midnightblue" d="M68.1988,-61.9751C62.7587,-53.2268 54.1413,-39.3691 47.2638,-28.3093"/>
<polygon fill="midnightblue" stroke="midnightblue" points="50.0443,-26.1528 41.7914,-19.5091 44.0999,-29.8494 50.0443,-26.1528"/>
</g>
<!-- Node4 -->
<g id="node4" class="node"><title>Node4</title>
<polygon fill="white" stroke="#bfbfbf" points="91,-0.5 91,-19.5 132,-19.5 132,-0.5 91,-0.5"/>
<text text-anchor="middle" x="111.5" y="-7.5" font-family="Helvetica,sans-Serif" font-size="10.00">string</text>
</g>
<!-- Node2&#45;&gt;Node4 -->
<g id="edge3" class="edge"><title>Node2&#45;&gt;Node4</title>
<path fill="none" stroke="midnightblue" d="M78.9445,-61.9751C84.5881,-53.1384 93.561,-39.0886 100.659,-27.975"/>
<polygon fill="midnightblue" stroke="midnightblue" points="103.633,-29.8208 106.066,-19.5091 97.7333,-26.0531 103.633,-29.8208"/>
</g>
<!-- Node5&#45;&gt;Node6 -->
<g id="edge5" class="edge"><title>Node5&#45;&gt;Node6</title>
<path fill="none" stroke="midnightblue" d="M236.586,-56.3993C244.074,-47.6641 253.718,-36.4126 261.532,-27.2962"/>
<polygon fill="midnightblue" stroke="midnightblue" points="264.229,-29.5281 268.079,-19.6578 258.914,-24.9726 264.229,-29.5281"/>
</g>
</g>
</svg>
