<?xml version="1.0" encoding="UTF-8" standalone="no"?>
<!DOCTYPE svg PUBLIC "-//W3C//DTD SVG 1.1//EN"
 "http://www.w3.org/Graphics/SVG/1.1/DTD/svg11.dtd">
<!-- Generated by graphviz version 2.38.0 (20140413.2041)
 -->
<!-- Title: include/userobjects/DwarfElephantRBStructuresT6F1O1M1IC3Transient.h Pages: 1 -->
<!--zoomable 184 -->
<svg id="main" version="1.1" xmlns="http://www.w3.org/2000/svg" xmlns:xlink="http://www.w3.org/1999/xlink" xml:space="preserve" onload="init(evt)">
<style type="text/css"><![CDATA[
.edge:hover path { stroke: red; }
.edge:hover polygon { stroke: red; fill: red; }
]]></style>
<script type="text/javascript"><![CDATA[
var edges = document.getElementsByTagName('g');
if (edges && edges.length) {
  for (var i=0;i<edges.length;i++) {
    if (edges[i].id.substr(0,4)=='edge') {
      edges[i].setAttribute('class','edge');
    }
  }
}
]]></script>
        <defs>
                <circle id="rim" cx="0" cy="0" r="7"/>
                <circle id="rim2" cx="0" cy="0" r="3.5"/>
                <g id="zoomPlus">
                        <use xlink:href="#rim" fill="#404040">
                                <set attributeName="fill" to="#808080" begin="zoomplus.mouseover" end="zoomplus.mouseout"/>
                        </use>
                        <path d="M-4,0h8M0,-4v8" fill="none" stroke="white" stroke-width="1.5" pointer-events="none"/>
                </g>
                <g id="zoomMin">
                        <use xlink:href="#rim" fill="#404040">
                                <set attributeName="fill" to="#808080" begin="zoomminus.mouseover" end="zoomminus.mouseout"/>
                        </use>
                        <path d="M-4,0h8" fill="none" stroke="white" stroke-width="1.5" pointer-events="none"/>
                </g>
                <g id="dirArrow">
                        <path fill="none" stroke="white" stroke-width="1.5" d="M0,-3.0v7 M-2.5,-0.5L0,-3.0L2.5,-0.5"/>
                </g>
               <g id="resetDef">
                       <use xlink:href="#rim2" fill="#404040">
                               <set attributeName="fill" to="#808080" begin="reset.mouseover" end="reset.mouseout"/>
                       </use>
               </g>
        </defs>

<script type="text/javascript">
var viewWidth = 1442;
var viewHeight = 184;
var sectionId = 'dynsection-0';
</script>
<script xlink:href="svgpan.js"/>
<svg id="graph" class="graph">
<g id="viewport">
<title>include/userobjects/DwarfElephantRBStructuresT6F1O1M1IC3Transient.h</title>
<polygon fill="white" stroke="none" points="-4,4 -4,-180 1437.5,-180 1437.5,4 -4,4"/>
<!-- Node1 -->
<g id="node1" class="node"><title>Node1</title>
<polygon fill="#bfbfbf" stroke="black" points="570.5,-134.5 570.5,-175.5 714.5,-175.5 714.5,-134.5 570.5,-134.5"/>
<text text-anchor="start" x="578.5" y="-163.5" font-family="Helvetica,sans-Serif" font-size="10.00">include/userobjects</text>
<text text-anchor="start" x="578.5" y="-152.5" font-family="Helvetica,sans-Serif" font-size="10.00">/DwarfElephantRBStructures</text>
<text text-anchor="middle" x="642.5" y="-141.5" font-family="Helvetica,sans-Serif" font-size="10.00">T6F1O1M1IC3Transient.h</text>
</g>
<!-- Node2 -->
<g id="node2" class="node"><title>Node2</title>
<polygon fill="white" stroke="#bfbfbf" points="0,-0.5 0,-30.5 107,-30.5 107,-0.5 0,-0.5"/>
<text text-anchor="start" x="8" y="-18.5" font-family="Helvetica,sans-Serif" font-size="10.00">libmesh/transient_rb</text>
<text text-anchor="middle" x="53.5" y="-7.5" font-family="Helvetica,sans-Serif" font-size="10.00">_theta_expansion.h</text>
</g>
<!-- Node1&#45;&gt;Node2 -->
<g id="edge1" class="edge"><title>Node1&#45;&gt;Node2</title>
<path fill="none" stroke="midnightblue" d="M570.483,-152.812C415.365,-149.505 60.7159,-137.646 24.5,-98 9.44091,-81.5146 21.6538,-56.6895 34.5412,-38.7713"/>
<polygon fill="midnightblue" stroke="midnightblue" points="37.501,-40.663 40.8054,-30.5967 31.9448,-36.4052 37.501,-40.663"/>
</g>
<!-- Node3 -->
<g id="node3" class="node"><title>Node3</title>
<polygon fill="white" stroke="#bfbfbf" points="189.5,-67.5 189.5,-97.5 313.5,-97.5 313.5,-67.5 189.5,-67.5"/>
<text text-anchor="start" x="197.5" y="-85.5" font-family="Helvetica,sans-Serif" font-size="10.00">libmesh/transient_rb</text>
<text text-anchor="middle" x="251.5" y="-74.5" font-family="Helvetica,sans-Serif" font-size="10.00">_assembly_expansion.h</text>
</g>
<!-- Node1&#45;&gt;Node3 -->
<g id="edge2" class="edge"><title>Node1&#45;&gt;Node3</title>
<path fill="none" stroke="midnightblue" d="M570.27,-141.958C507.627,-131.377 414.265,-115.279 323.705,-98.201"/>
<polygon fill="midnightblue" stroke="midnightblue" points="324.295,-94.7506 313.818,-96.3305 322.993,-101.629 324.295,-94.7506"/>
</g>
<!-- Node4 -->
<g id="node4" class="node"><title>Node4</title>
<g id="a_node4"><a xlink:href="_dwarf_elephant_r_b_transient_theta_expansion_8h.html" target="_top" xlink:title="DwarfElephantRBTransient\lThetaExpansion.h">
<polygon fill="white" stroke="black" points="33.5,-67.5 33.5,-97.5 171.5,-97.5 171.5,-67.5 33.5,-67.5"/>
<text text-anchor="start" x="41.5" y="-85.5" font-family="Helvetica,sans-Serif" font-size="10.00">DwarfElephantRBTransient</text>
<text text-anchor="middle" x="102.5" y="-74.5" font-family="Helvetica,sans-Serif" font-size="10.00">ThetaExpansion.h</text>
</a>
</g>
</g>
<!-- Node1&#45;&gt;Node4 -->
<g id="edge3" class="edge"><title>Node1&#45;&gt;Node4</title>
<path fill="none" stroke="midnightblue" d="M570.285,-146.675C481.332,-137.331 325.385,-119.912 182.079,-98.1862"/>
<polygon fill="midnightblue" stroke="midnightblue" points="182.198,-94.6638 171.784,-96.6146 181.141,-101.584 182.198,-94.6638"/>
</g>
<!-- Node5 -->
<g id="node5" class="node"><title>Node5</title>
<g id="a_node5"><a xlink:href="_dwarf_elephant_r_b_structures_a00_theta_constant_8h.html" target="_top" xlink:title="DwarfElephantRBStructures\lA00ThetaConstant.h">
<polygon fill="white" stroke="black" points="1291.5,-67.5 1291.5,-97.5 1433.5,-97.5 1433.5,-67.5 1291.5,-67.5"/>
<text text-anchor="start" x="1299.5" y="-85.5" font-family="Helvetica,sans-Serif" font-size="10.00">DwarfElephantRBStructures</text>
<text text-anchor="middle" x="1362.5" y="-74.5" font-family="Helvetica,sans-Serif" font-size="10.00">A00ThetaConstant.h</text>
</a>
</g>
</g>
<!-- Node1&#45;&gt;Node5 -->
<g id="edge5" class="edge"><title>Node1&#45;&gt;Node5</title>
<path fill="none" stroke="midnightblue" d="M714.723,-149.854C831.661,-142.662 1069.84,-126.027 1281.4,-98.0674"/>
<polygon fill="midnightblue" stroke="midnightblue" points="1282,-101.518 1291.45,-96.7274 1281.08,-94.5794 1282,-101.518"/>
</g>
<!-- Node8 -->
<g id="node8" class="node"><title>Node8</title>
<g id="a_node8"><a xlink:href="_dwarf_elephant_r_b_structures_a0_theta_equal_mu0_8h.html" target="_top" xlink:title="DwarfElephantRBStructures\lA0ThetaEqualMu0.h">
<polygon fill="white" stroke="black" points="331.5,-67.5 331.5,-97.5 473.5,-97.5 473.5,-67.5 331.5,-67.5"/>
<text text-anchor="start" x="339.5" y="-85.5" font-family="Helvetica,sans-Serif" font-size="10.00">DwarfElephantRBStructures</text>
<text text-anchor="middle" x="402.5" y="-74.5" font-family="Helvetica,sans-Serif" font-size="10.00">A0ThetaEqualMu0.h</text>
</a>
</g>
</g>
<!-- Node1&#45;&gt;Node8 -->
<g id="edge8" class="edge"><title>Node1&#45;&gt;Node8</title>
<path fill="none" stroke="midnightblue" d="M575.965,-134.455C539.729,-123.811 495.316,-110.765 460.501,-100.538"/>
<polygon fill="midnightblue" stroke="midnightblue" points="461.07,-97.0572 450.489,-97.5968 459.097,-103.773 461.07,-97.0572"/>
</g>
<!-- Node9 -->
<g id="node9" class="node"><title>Node9</title>
<g id="a_node9"><a xlink:href="_dwarf_elephant_r_b_structures_a1_theta_equal_mu1_8h.html" target="_top" xlink:title="DwarfElephantRBStructures\lA1ThetaEqualMu1.h">
<polygon fill="white" stroke="black" points="491.5,-67.5 491.5,-97.5 633.5,-97.5 633.5,-67.5 491.5,-67.5"/>
<text text-anchor="start" x="499.5" y="-85.5" font-family="Helvetica,sans-Serif" font-size="10.00">DwarfElephantRBStructures</text>
<text text-anchor="middle" x="562.5" y="-74.5" font-family="Helvetica,sans-Serif" font-size="10.00">A1ThetaEqualMu1.h</text>
</a>
</g>
</g>
<!-- Node1&#45;&gt;Node9 -->
<g id="edge11" class="edge"><title>Node1&#45;&gt;Node9</title>
<path fill="none" stroke="midnightblue" d="M620.216,-134.362C609.679,-125.076 597.087,-113.979 586.357,-104.524"/>
<polygon fill="midnightblue" stroke="midnightblue" points="588.396,-101.656 578.579,-97.67 583.768,-106.907 588.396,-101.656"/>
</g>
<!-- Node10 -->
<g id="node10" class="node"><title>Node10</title>
<g id="a_node10"><a xlink:href="_dwarf_elephant_r_b_structures_a2_theta_equal_mu2_8h.html" target="_top" xlink:title="DwarfElephantRBStructures\lA2ThetaEqualMu2.h">
<polygon fill="white" stroke="black" points="651.5,-67.5 651.5,-97.5 793.5,-97.5 793.5,-67.5 651.5,-67.5"/>
<text text-anchor="start" x="659.5" y="-85.5" font-family="Helvetica,sans-Serif" font-size="10.00">DwarfElephantRBStructures</text>
<text text-anchor="middle" x="722.5" y="-74.5" font-family="Helvetica,sans-Serif" font-size="10.00">A2ThetaEqualMu2.h</text>
</a>
</g>
</g>
<!-- Node1&#45;&gt;Node10 -->
<g id="edge14" class="edge"><title>Node1&#45;&gt;Node10</title>
<path fill="none" stroke="midnightblue" d="M664.784,-134.362C675.321,-125.076 687.913,-113.979 698.643,-104.524"/>
<polygon fill="midnightblue" stroke="midnightblue" points="701.232,-106.907 706.421,-97.67 696.604,-101.656 701.232,-106.907"/>
</g>
<!-- Node11 -->
<g id="node11" class="node"><title>Node11</title>
<g id="a_node11"><a xlink:href="_dwarf_elephant_r_b_structures_a3_theta_equal_mu3_8h.html" target="_top" xlink:title="DwarfElephantRBStructures\lA3ThetaEqualMu3.h">
<polygon fill="white" stroke="black" points="811.5,-67.5 811.5,-97.5 953.5,-97.5 953.5,-67.5 811.5,-67.5"/>
<text text-anchor="start" x="819.5" y="-85.5" font-family="Helvetica,sans-Serif" font-size="10.00">DwarfElephantRBStructures</text>
<text text-anchor="middle" x="882.5" y="-74.5" font-family="Helvetica,sans-Serif" font-size="10.00">A3ThetaEqualMu3.h</text>
</a>
</g>
</g>
<!-- Node1&#45;&gt;Node11 -->
<g id="edge17" class="edge"><title>Node1&#45;&gt;Node11</title>
<path fill="none" stroke="midnightblue" d="M709.035,-134.455C745.271,-123.811 789.684,-110.765 824.499,-100.538"/>
<polygon fill="midnightblue" stroke="midnightblue" points="825.903,-103.773 834.511,-97.5968 823.93,-97.0572 825.903,-103.773"/>
</g>
<!-- Node12 -->
<g id="node12" class="node"><title>Node12</title>
<g id="a_node12"><a xlink:href="_dwarf_elephant_r_b_structures_a4_theta_equal_mu4_8h.html" target="_top" xlink:title="DwarfElephantRBStructures\lA4ThetaEqualMu4.h">
<polygon fill="white" stroke="black" points="971.5,-67.5 971.5,-97.5 1113.5,-97.5 1113.5,-67.5 971.5,-67.5"/>
<text text-anchor="start" x="979.5" y="-85.5" font-family="Helvetica,sans-Serif" font-size="10.00">DwarfElephantRBStructures</text>
<text text-anchor="middle" x="1042.5" y="-74.5" font-family="Helvetica,sans-Serif" font-size="10.00">A4ThetaEqualMu4.h</text>
</a>
</g>
</g>
<!-- Node1&#45;&gt;Node12 -->
<g id="edge20" class="edge"><title>Node1&#45;&gt;Node12</title>
<path fill="none" stroke="midnightblue" d="M714.646,-141.503C777.236,-130.631 870.565,-114.351 961.477,-98.1766"/>
<polygon fill="midnightblue" stroke="midnightblue" points="962.172,-101.608 971.404,-96.4092 960.945,-94.7163 962.172,-101.608"/>
</g>
<!-- Node13 -->
<g id="node13" class="node"><title>Node13</title>
<g id="a_node13"><a xlink:href="_dwarf_elephant_r_b_structures_a5_theta_equal_mu5_8h.html" target="_top" xlink:title="DwarfElephantRBStructures\lA5ThetaEqualMu5.h">
<polygon fill="white" stroke="black" points="1131.5,-67.5 1131.5,-97.5 1273.5,-97.5 1273.5,-67.5 1131.5,-67.5"/>
<text text-anchor="start" x="1139.5" y="-85.5" font-family="Helvetica,sans-Serif" font-size="10.00">DwarfElephantRBStructures</text>
<text text-anchor="middle" x="1202.5" y="-74.5" font-family="Helvetica,sans-Serif" font-size="10.00">A5ThetaEqualMu5.h</text>
</a>
</g>
</g>
<!-- Node1&#45;&gt;Node13 -->
<g id="edge23" class="edge"><title>Node1&#45;&gt;Node13</title>
<path fill="none" stroke="midnightblue" d="M714.656,-147.017C806.625,-137.795 970.734,-120.266 1121.1,-98.1519"/>
<polygon fill="midnightblue" stroke="midnightblue" points="1122.06,-101.548 1131.44,-96.6204 1121.03,-94.6231 1122.06,-101.548"/>
</g>
<!-- Node4&#45;&gt;Node2 -->
<g id="edge4" class="edge"><title>Node4&#45;&gt;Node2</title>
<path fill="none" stroke="midnightblue" d="M91.8677,-67.396C85.5751,-59.0486 77.4626,-48.2871 70.3193,-38.8113"/>
<polygon fill="midnightblue" stroke="midnightblue" points="72.926,-36.4549 64.1115,-30.5765 67.3364,-40.6686 72.926,-36.4549"/>
</g>
<!-- Node6 -->
<g id="node6" class="node"><title>Node6</title>
<polygon fill="white" stroke="#bfbfbf" points="894,-6 894,-25 993,-25 993,-6 894,-6"/>
<text text-anchor="middle" x="943.5" y="-13" font-family="Helvetica,sans-Serif" font-size="10.00">libmesh/rb_theta.h</text>
</g>
<!-- Node5&#45;&gt;Node6 -->
<g id="edge6" class="edge"><title>Node5&#45;&gt;Node6</title>
<path fill="none" stroke="midnightblue" d="M1291.42,-68.4971C1288.41,-67.9839 1285.42,-67.4828 1282.5,-67 1184.92,-50.892 1071.14,-34.412 1003.33,-24.8337"/>
<polygon fill="midnightblue" stroke="midnightblue" points="1003.66,-21.3444 993.265,-23.4142 1002.68,-28.2759 1003.66,-21.3444"/>
</g>
<!-- Node7 -->
<g id="node7" class="node"><title>Node7</title>
<polygon fill="white" stroke="#bfbfbf" points="765.5,-0.5 765.5,-30.5 875.5,-30.5 875.5,-0.5 765.5,-0.5"/>
<text text-anchor="start" x="773.5" y="-18.5" font-family="Helvetica,sans-Serif" font-size="10.00">libmesh/rb_assembly</text>
<text text-anchor="middle" x="820.5" y="-7.5" font-family="Helvetica,sans-Serif" font-size="10.00">_expansion.h</text>
</g>
<!-- Node5&#45;&gt;Node7 -->
<g id="edge7" class="edge"><title>Node5&#45;&gt;Node7</title>
<path fill="none" stroke="midnightblue" d="M1291.45,-68.2834C1288.43,-67.8287 1285.44,-67.3982 1282.5,-67 1109.76,-43.5811 1061.71,-58.1202 885.691,-31.0445"/>
<polygon fill="midnightblue" stroke="midnightblue" points="885.989,-27.5487 875.568,-29.4637 884.909,-34.4648 885.989,-27.5487"/>
</g>
<!-- Node8&#45;&gt;Node6 -->
<g id="edge9" class="edge"><title>Node8&#45;&gt;Node6</title>
<path fill="none" stroke="midnightblue" d="M473.547,-68.2801C476.569,-67.8263 479.563,-67.3969 482.5,-67 660.266,-42.9798 707.559,-60.4905 884.5,-31 890.365,-30.0224 896.509,-28.7722 902.523,-27.4169"/>
<polygon fill="midnightblue" stroke="midnightblue" points="903.527,-30.7761 912.451,-25.0663 901.914,-23.9644 903.527,-30.7761"/>
</g>
<!-- Node8&#45;&gt;Node7 -->
<g id="edge10" class="edge"><title>Node8&#45;&gt;Node7</title>
<path fill="none" stroke="midnightblue" d="M473.58,-68.4987C476.592,-67.985 479.575,-67.4834 482.5,-67 577.155,-51.3546 687.085,-35.3259 755.23,-25.64"/>
<polygon fill="midnightblue" stroke="midnightblue" points="755.977,-29.0692 765.386,-24.1994 754.994,-22.1386 755.977,-29.0692"/>
</g>
<!-- Node9&#45;&gt;Node6 -->
<g id="edge12" class="edge"><title>Node9&#45;&gt;Node6</title>
<path fill="none" stroke="midnightblue" d="M633.58,-68.4964C636.592,-67.9833 639.575,-67.4825 642.5,-67 749.789,-49.3013 777.808,-51.9987 884.5,-31 889.933,-29.9306 895.62,-28.69 901.226,-27.3934"/>
<polygon fill="midnightblue" stroke="midnightblue" points="902.246,-30.7485 911.161,-25.0239 900.622,-23.9395 902.246,-30.7485"/>
</g>
<!-- Node9&#45;&gt;Node7 -->
<g id="edge13" class="edge"><title>Node9&#45;&gt;Node7</title>
<path fill="none" stroke="midnightblue" d="M618.165,-67.476C658.484,-57.318 713.115,-43.5543 755.448,-32.889"/>
<polygon fill="midnightblue" stroke="midnightblue" points="756.537,-36.2242 765.379,-30.3871 754.827,-29.4363 756.537,-36.2242"/>
</g>
<!-- Node10&#45;&gt;Node6 -->
<g id="edge15" class="edge"><title>Node10&#45;&gt;Node6</title>
<path fill="none" stroke="midnightblue" d="M770.182,-67.476C810.313,-55.6727 866.997,-39.0009 904.472,-27.9789"/>
<polygon fill="midnightblue" stroke="midnightblue" points="905.897,-31.2082 914.503,-25.0287 903.921,-24.4926 905.897,-31.2082"/>
</g>
<!-- Node10&#45;&gt;Node7 -->
<g id="edge16" class="edge"><title>Node10&#45;&gt;Node7</title>
<path fill="none" stroke="midnightblue" d="M743.765,-67.396C757.506,-58.282 775.586,-46.2902 790.744,-36.236"/>
<polygon fill="midnightblue" stroke="midnightblue" points="792.878,-39.0207 799.277,-30.5765 789.009,-33.1872 792.878,-39.0207"/>
</g>
<!-- Node11&#45;&gt;Node6 -->
<g id="edge18" class="edge"><title>Node11&#45;&gt;Node6</title>
<path fill="none" stroke="midnightblue" d="M895.736,-67.396C905.341,-57.1607 918.353,-43.2959 928.37,-32.622"/>
<polygon fill="midnightblue" stroke="midnightblue" points="931.05,-34.8815 935.341,-25.1945 925.945,-30.0913 931.05,-34.8815"/>
</g>
<!-- Node11&#45;&gt;Node7 -->
<g id="edge19" class="edge"><title>Node11&#45;&gt;Node7</title>
<path fill="none" stroke="midnightblue" d="M869.047,-67.396C860.841,-58.7931 850.189,-47.626 840.955,-37.9448"/>
<polygon fill="midnightblue" stroke="midnightblue" points="843.362,-35.3969 833.927,-30.5765 838.296,-40.2284 843.362,-35.3969"/>
</g>
<!-- Node12&#45;&gt;Node6 -->
<g id="edge21" class="edge"><title>Node12&#45;&gt;Node6</title>
<path fill="none" stroke="midnightblue" d="M1021.02,-67.396C1004.42,-56.4956 981.544,-41.4787 964.95,-30.5835"/>
<polygon fill="midnightblue" stroke="midnightblue" points="966.737,-27.5697 956.457,-25.007 962.895,-33.4212 966.737,-27.5697"/>
</g>
<!-- Node12&#45;&gt;Node7 -->
<g id="edge22" class="edge"><title>Node12&#45;&gt;Node7</title>
<path fill="none" stroke="midnightblue" d="M994.603,-67.476C960.582,-57.5149 914.718,-44.0862 878.604,-33.5123"/>
<polygon fill="midnightblue" stroke="midnightblue" points="879.275,-30.062 868.694,-30.6109 877.308,-36.7799 879.275,-30.062"/>
</g>
<!-- Node13&#45;&gt;Node6 -->
<g id="edge24" class="edge"><title>Node13&#45;&gt;Node6</title>
<path fill="none" stroke="midnightblue" d="M1146.62,-67.476C1098.88,-55.4962 1031.17,-38.5011 987.283,-27.4881"/>
<polygon fill="midnightblue" stroke="midnightblue" points="988.035,-24.0682 977.483,-25.0287 986.331,-30.8576 988.035,-24.0682"/>
</g>
<!-- Node13&#45;&gt;Node7 -->
<g id="edge25" class="edge"><title>Node13&#45;&gt;Node7</title>
<path fill="none" stroke="midnightblue" d="M1131.42,-68.5054C1128.41,-67.9899 1125.42,-67.486 1122.5,-67 1020.16,-49.9895 991.354,-50.7666 885.727,-31.1499"/>
<polygon fill="midnightblue" stroke="midnightblue" points="886.079,-27.655 875.605,-29.2519 884.789,-34.5351 886.079,-27.655"/>
</g>
</g>
</svg>
        <g id="navigator" transform="translate(0 0)" fill="#404254">
                <rect fill="#f2f5e9" fill-opacity="0.5" stroke="#606060" stroke-width=".5" x="0" y="0" width="60" height="60"/>
                <use id="zoomplus" xlink:href="#zoomPlus" x="17" y="9" onmousedown="handleZoom(evt,'in')"/>
                <use id="zoomminus" xlink:href="#zoomMin" x="42" y="9" onmousedown="handleZoom(evt,'out')"/>
                <use id="reset" xlink:href="#resetDef" x="30" y="36" onmousedown="handleReset()"/>
                <g id="arrowUp" xlink:href="#dirArrow" transform="translate(30 24)" onmousedown="handlePan(0,-1)">
                  <use xlink:href="#rim" fill="#404040">
                        <set attributeName="fill" to="#808080" begin="arrowUp.mouseover" end="arrowUp.mouseout"/>
                  </use>
                  <path fill="none" stroke="white" stroke-width="1.5" d="M0,-3.0v7 M-2.5,-0.5L0,-3.0L2.5,-0.5"/>
                </g>
                <g id="arrowRight" xlink:href="#dirArrow" transform="rotate(90) translate(36 -43)" onmousedown="handlePan(1,0)">
                  <use xlink:href="#rim" fill="#404040">
                        <set attributeName="fill" to="#808080" begin="arrowRight.mouseover" end="arrowRight.mouseout"/>
                  </use>
                  <path fill="none" stroke="white" stroke-width="1.5" d="M0,-3.0v7 M-2.5,-0.5L0,-3.0L2.5,-0.5"/>
                </g>
                <g id="arrowDown" xlink:href="#dirArrow" transform="rotate(180) translate(-30 -48)" onmousedown="handlePan(0,1)">
                  <use xlink:href="#rim" fill="#404040">
                        <set attributeName="fill" to="#808080" begin="arrowDown.mouseover" end="arrowDown.mouseout"/>
                  </use>
                  <path fill="none" stroke="white" stroke-width="1.5" d="M0,-3.0v7 M-2.5,-0.5L0,-3.0L2.5,-0.5"/>
                </g>
                <g id="arrowLeft" xlink:href="#dirArrow" transform="rotate(270) translate(-36 17)" onmousedown="handlePan(-1,0)">
                  <use xlink:href="#rim" fill="#404040">
                        <set attributeName="fill" to="#808080" begin="arrowLeft.mouseover" end="arrowLeft.mouseout"/>
                  </use>
                  <path fill="none" stroke="white" stroke-width="1.5" d="M0,-3.0v7 M-2.5,-0.5L0,-3.0L2.5,-0.5"/>
                </g>
        </g>
        <svg viewBox="0 0 15 15" width="100%" height="30px" preserveAspectRatio="xMaxYMin meet">
         <g id="arrow_out" transform="scale(0.3 0.3)">
          <a xlink:href="_dwarf_elephant_r_b_structures_t6_f1_o1_m1_i_c3_transient_8h__incl_org.svg" target="_base">
           <rect id="button" ry="5" rx="5" y="6" x="6" height="38" width="38"
                fill="#f2f5e9" fill-opacity="0.5" stroke="#606060" stroke-width="1.0"/>
           <path id="arrow"
             d="M 11.500037,31.436501 C 11.940474,20.09759 22.043105,11.32322 32.158766,21.979434 L 37.068811,17.246167 C 37.068811,17.246167 37.088388,32 37.088388,32 L 22.160133,31.978069 C 22.160133,31.978069 26.997745,27.140456 26.997745,27.140456 C 18.528582,18.264221 13.291696,25.230495 11.500037,31.436501 z"
             style="fill:#404040;"/>
          </a>
         </g>
        </svg>
</svg>
