<?xml version="1.0" encoding="UTF-8" standalone="no"?>
<!DOCTYPE svg PUBLIC "-//W3C//DTD SVG 1.1//EN"
 "http://www.w3.org/Graphics/SVG/1.1/DTD/svg11.dtd">
<!-- Generated by graphviz version 2.38.0 (20140413.2041)
 -->
<!-- Title: include/ics/DwarfElephantFileIC.h Pages: 1 -->
<svg width="148pt" height="95pt"
 viewBox="0.00 0.00 147.50 95.00" xmlns="http://www.w3.org/2000/svg" xmlns:xlink="http://www.w3.org/1999/xlink">
<g id="graph0" class="graph" transform="scale(1 1) rotate(0) translate(4 91)">
<title>include/ics/DwarfElephantFileIC.h</title>
<polygon fill="white" stroke="none" points="-4,4 -4,-91 143.5,-91 143.5,4 -4,4"/>
<!-- Node1 -->
<g id="node1" class="node"><title>Node1</title>
<polygon fill="#bfbfbf" stroke="black" points="7.5,-56.5 7.5,-86.5 139.5,-86.5 139.5,-56.5 7.5,-56.5"/>
<text text-anchor="start" x="15.5" y="-74.5" font-family="Helvetica,sans-Serif" font-size="10.00">include/ics/DwarfElephant</text>
<text text-anchor="middle" x="73.5" y="-63.5" font-family="Helvetica,sans-Serif" font-size="10.00">FileIC.h</text>
</g>
<!-- Node2 -->
<g id="node2" class="node"><title>Node2</title>
<polygon fill="white" stroke="#bfbfbf" points="0,-0.5 0,-19.5 73,-19.5 73,-0.5 0,-0.5"/>
<text text-anchor="middle" x="36.5" y="-7.5" font-family="Helvetica,sans-Serif" font-size="10.00">FunctionIC.h</text>
</g>
<!-- Node1&#45;&gt;Node2 -->
<g id="edge1" class="edge"><title>Node1&#45;&gt;Node2</title>
<path fill="none" stroke="midnightblue" d="M64.7315,-56.3993C59.5213,-48.0207 52.8714,-37.3269 47.3344,-28.4229"/>
<polygon fill="midnightblue" stroke="midnightblue" points="50.1368,-26.3015 41.8838,-19.6578 44.1924,-29.9981 50.1368,-26.3015"/>
</g>
<!-- Node3 -->
<g id="node3" class="node"><title>Node3</title>
<polygon fill="white" stroke="#bfbfbf" points="91,-0.5 91,-19.5 132,-19.5 132,-0.5 91,-0.5"/>
<text text-anchor="middle" x="111.5" y="-7.5" font-family="Helvetica,sans-Serif" font-size="10.00">string</text>
</g>
<!-- Node1&#45;&gt;Node3 -->
<g id="edge2" class="edge"><title>Node1&#45;&gt;Node3</title>
<path fill="none" stroke="midnightblue" d="M82.5055,-56.3993C87.9135,-47.9315 94.8317,-37.0991 100.554,-28.1393"/>
<polygon fill="midnightblue" stroke="midnightblue" points="103.538,-29.9695 105.971,-19.6578 97.6384,-26.2018 103.538,-29.9695"/>
</g>
</g>
</svg>
