<?xml version="1.0" encoding="UTF-8" standalone="no"?>
<!DOCTYPE svg PUBLIC "-//W3C//DTD SVG 1.1//EN"
 "http://www.w3.org/Graphics/SVG/1.1/DTD/svg11.dtd">
<!-- Generated by graphviz version 2.38.0 (20140413.2041)
 -->
<!-- Title: include/bcs/DwarfElephantRBPresetNodalBC.h Pages: 1 -->
<svg width="606pt" height="173pt"
 viewBox="0.00 0.00 606.00 173.00" xmlns="http://www.w3.org/2000/svg" xmlns:xlink="http://www.w3.org/1999/xlink">
<g id="graph0" class="graph" transform="scale(1 1) rotate(0) translate(4 169)">
<title>include/bcs/DwarfElephantRBPresetNodalBC.h</title>
<polygon fill="white" stroke="none" points="-4,4 -4,-169 602,-169 602,4 -4,4"/>
<!-- Node1 -->
<g id="node1" class="node"><title>Node1</title>
<polygon fill="#bfbfbf" stroke="black" points="177,-134.5 177,-164.5 312,-164.5 312,-134.5 177,-134.5"/>
<text text-anchor="start" x="185" y="-152.5" font-family="Helvetica,sans-Serif" font-size="10.00">include/bcs/DwarfElephant</text>
<text text-anchor="middle" x="244.5" y="-141.5" font-family="Helvetica,sans-Serif" font-size="10.00">RBPresetNodalBC.h</text>
</g>
<!-- Node2 -->
<g id="node2" class="node"><title>Node2</title>
<g id="a_node2"><a xlink:href="_dwarf_elephant_r_b_preset_nodal_b_c_8_c.html" target="_top" xlink:title="src/bcs/DwarfElephantRBPreset\lNodalBC.C">
<polygon fill="white" stroke="black" points="0,-67.5 0,-97.5 159,-97.5 159,-67.5 0,-67.5"/>
<text text-anchor="start" x="8" y="-85.5" font-family="Helvetica,sans-Serif" font-size="10.00">src/bcs/DwarfElephantRBPreset</text>
<text text-anchor="middle" x="79.5" y="-74.5" font-family="Helvetica,sans-Serif" font-size="10.00">NodalBC.C</text>
</a>
</g>
</g>
<!-- Node1&#45;&gt;Node2 -->
<g id="edge1" class="edge"><title>Node1&#45;&gt;Node2</title>
<path fill="none" stroke="midnightblue" d="M199.268,-130.682C172.806,-120.257 139.866,-107.281 115.233,-97.5765"/>
<polygon fill="midnightblue" stroke="midnightblue" points="198.111,-133.987 208.697,-134.396 200.676,-127.474 198.111,-133.987"/>
</g>
<!-- Node3 -->
<g id="node3" class="node"><title>Node3</title>
<g id="a_node3"><a xlink:href="_dwarf_elephant_r_b_function_preset_b_c_8h.html" target="_top" xlink:title="include/bcs/DwarfElephant\lRBFunctionPresetBC.h">
<polygon fill="white" stroke="black" points="177,-67.5 177,-97.5 312,-97.5 312,-67.5 177,-67.5"/>
<text text-anchor="start" x="185" y="-85.5" font-family="Helvetica,sans-Serif" font-size="10.00">include/bcs/DwarfElephant</text>
<text text-anchor="middle" x="244.5" y="-74.5" font-family="Helvetica,sans-Serif" font-size="10.00">RBFunctionPresetBC.h</text>
</a>
</g>
</g>
<!-- Node1&#45;&gt;Node3 -->
<g id="edge2" class="edge"><title>Node1&#45;&gt;Node3</title>
<path fill="none" stroke="midnightblue" d="M244.5,-124.108C244.5,-115.154 244.5,-105.323 244.5,-97.5765"/>
<polygon fill="midnightblue" stroke="midnightblue" points="241,-124.396 244.5,-134.396 248,-124.396 241,-124.396"/>
</g>
<!-- Node6 -->
<g id="node6" class="node"><title>Node6</title>
<g id="a_node6"><a xlink:href="_dwarf_elephant_r_b_preset_b_c_8h.html" target="_top" xlink:title="include/bcs/DwarfElephant\lRBPresetBC.h">
<polygon fill="white" stroke="black" points="330,-67.5 330,-97.5 465,-97.5 465,-67.5 330,-67.5"/>
<text text-anchor="start" x="338" y="-85.5" font-family="Helvetica,sans-Serif" font-size="10.00">include/bcs/DwarfElephant</text>
<text text-anchor="middle" x="397.5" y="-74.5" font-family="Helvetica,sans-Serif" font-size="10.00">RBPresetBC.h</text>
</a>
</g>
</g>
<!-- Node1&#45;&gt;Node6 -->
<g id="edge5" class="edge"><title>Node1&#45;&gt;Node6</title>
<path fill="none" stroke="midnightblue" d="M287.089,-130.407C311.515,-120.029 341.725,-107.195 364.366,-97.5765"/>
<polygon fill="midnightblue" stroke="midnightblue" points="285.534,-127.264 277.699,-134.396 288.271,-133.707 285.534,-127.264"/>
</g>
<!-- Node4 -->
<g id="node4" class="node"><title>Node4</title>
<g id="a_node4"><a xlink:href="_dwarf_elephant_app_8_c.html" target="_top" xlink:title="src/base/DwarfElephantApp.C">
<polygon fill="white" stroke="black" points="246.5,-6 246.5,-25 396.5,-25 396.5,-6 246.5,-6"/>
<text text-anchor="middle" x="321.5" y="-13" font-family="Helvetica,sans-Serif" font-size="10.00">src/base/DwarfElephantApp.C</text>
</a>
</g>
</g>
<!-- Node3&#45;&gt;Node4 -->
<g id="edge3" class="edge"><title>Node3&#45;&gt;Node4</title>
<path fill="none" stroke="midnightblue" d="M269.173,-60.6722C283.39,-48.6707 300.508,-34.2203 311.2,-25.1945"/>
<polygon fill="midnightblue" stroke="midnightblue" points="266.592,-58.2709 261.208,-67.396 271.107,-63.6199 266.592,-58.2709"/>
</g>
<!-- Node5 -->
<g id="node5" class="node"><title>Node5</title>
<g id="a_node5"><a xlink:href="_dwarf_elephant_r_b_function_preset_b_c_8_c.html" target="_top" xlink:title="src/bcs/DwarfElephantRBFunction\lPresetBC.C">
<polygon fill="white" stroke="black" points="59,-0.5 59,-30.5 228,-30.5 228,-0.5 59,-0.5"/>
<text text-anchor="start" x="67" y="-18.5" font-family="Helvetica,sans-Serif" font-size="10.00">src/bcs/DwarfElephantRBFunction</text>
<text text-anchor="middle" x="143.5" y="-7.5" font-family="Helvetica,sans-Serif" font-size="10.00">PresetBC.C</text>
</a>
</g>
</g>
<!-- Node3&#45;&gt;Node5 -->
<g id="edge4" class="edge"><title>Node3&#45;&gt;Node5</title>
<path fill="none" stroke="midnightblue" d="M213.786,-61.7337C198.157,-51.6755 179.525,-39.6847 165.373,-30.5765"/>
<polygon fill="midnightblue" stroke="midnightblue" points="212.281,-64.9273 222.585,-67.396 216.07,-59.041 212.281,-64.9273"/>
</g>
<!-- Node6&#45;&gt;Node4 -->
<g id="edge6" class="edge"><title>Node6&#45;&gt;Node4</title>
<path fill="none" stroke="midnightblue" d="M373.147,-60.6722C359.115,-48.6707 342.219,-34.2203 331.666,-25.1945"/>
<polygon fill="midnightblue" stroke="midnightblue" points="371.135,-63.5561 381.009,-67.396 375.684,-58.2364 371.135,-63.5561"/>
</g>
<!-- Node7 -->
<g id="node7" class="node"><title>Node7</title>
<g id="a_node7"><a xlink:href="_dwarf_elephant_r_b_preset_b_c_8_c.html" target="_top" xlink:title="src/bcs/DwarfElephantRBPresetBC.C">
<polygon fill="white" stroke="black" points="415,-6 415,-25 598,-25 598,-6 415,-6"/>
<text text-anchor="middle" x="506.5" y="-13" font-family="Helvetica,sans-Serif" font-size="10.00">src/bcs/DwarfElephantRBPresetBC.C</text>
</a>
</g>
</g>
<!-- Node6&#45;&gt;Node7 -->
<g id="edge7" class="edge"><title>Node6&#45;&gt;Node7</title>
<path fill="none" stroke="midnightblue" d="M429.963,-62.1411C450.68,-49.7874 476.504,-34.3875 492.234,-25.007"/>
<polygon fill="midnightblue" stroke="midnightblue" points="427.948,-59.2681 421.151,-67.396 431.533,-65.2802 427.948,-59.2681"/>
</g>
</g>
</svg>
