<?xml version="1.0" encoding="UTF-8" standalone="no"?>
<!DOCTYPE svg PUBLIC "-//W3C//DTD SVG 1.1//EN"
 "http://www.w3.org/Graphics/SVG/1.1/DTD/svg11.dtd">
<!-- Generated by graphviz version 2.38.0 (20140413.2041)
 -->
<!-- Title: src/userobjects/DwarfElephantRBFilePointValues.C Pages: 1 -->
<svg width="817pt" height="162pt"
 viewBox="0.00 0.00 816.50 162.00" xmlns="http://www.w3.org/2000/svg" xmlns:xlink="http://www.w3.org/1999/xlink">
<g id="graph0" class="graph" transform="scale(1 1) rotate(0) translate(4 158)">
<title>src/userobjects/DwarfElephantRBFilePointValues.C</title>
<polygon fill="white" stroke="none" points="-4,4 -4,-158 812.5,-158 812.5,4 -4,4"/>
<!-- Node1 -->
<g id="node1" class="node"><title>Node1</title>
<polygon fill="#bfbfbf" stroke="black" points="324.5,-123.5 324.5,-153.5 476.5,-153.5 476.5,-123.5 324.5,-123.5"/>
<text text-anchor="start" x="332.5" y="-141.5" font-family="Helvetica,sans-Serif" font-size="10.00">src/userobjects/DwarfElephant</text>
<text text-anchor="middle" x="400.5" y="-130.5" font-family="Helvetica,sans-Serif" font-size="10.00">RBFilePointValues.C</text>
</g>
<!-- Node2 -->
<g id="node2" class="node"><title>Node2</title>
<g id="a_node2"><a xlink:href="_dwarf_elephant_r_b_file_point_values_8h.html" target="_top" xlink:title="DwarfElephantRBFilePoint\lValues.h">
<polygon fill="white" stroke="black" points="0,-56.5 0,-86.5 135,-86.5 135,-56.5 0,-56.5"/>
<text text-anchor="start" x="8" y="-74.5" font-family="Helvetica,sans-Serif" font-size="10.00">DwarfElephantRBFilePoint</text>
<text text-anchor="middle" x="67.5" y="-63.5" font-family="Helvetica,sans-Serif" font-size="10.00">Values.h</text>
</a>
</g>
</g>
<!-- Node1&#45;&gt;Node2 -->
<g id="edge1" class="edge"><title>Node1&#45;&gt;Node2</title>
<path fill="none" stroke="midnightblue" d="M328.654,-123.476C274.656,-112.936 200.768,-98.5133 145.363,-87.6985"/>
<polygon fill="midnightblue" stroke="midnightblue" points="145.727,-84.2036 135.242,-85.7229 144.386,-91.0739 145.727,-84.2036"/>
</g>
<!-- Node4 -->
<g id="node4" class="node"><title>Node4</title>
<polygon fill="white" stroke="#bfbfbf" points="153,-62 153,-81 232,-81 232,-62 153,-62"/>
<text text-anchor="middle" x="192.5" y="-69" font-family="Helvetica,sans-Serif" font-size="10.00">MooseMesh.h</text>
</g>
<!-- Node1&#45;&gt;Node4 -->
<g id="edge3" class="edge"><title>Node1&#45;&gt;Node4</title>
<path fill="none" stroke="midnightblue" d="M355.623,-123.476C318.014,-111.723 264.959,-95.1433 229.686,-84.1205"/>
<polygon fill="midnightblue" stroke="midnightblue" points="230.381,-80.6708 219.792,-81.0287 228.293,-87.3522 230.381,-80.6708"/>
</g>
<!-- Node5 -->
<g id="node5" class="node"><title>Node5</title>
<polygon fill="white" stroke="#bfbfbf" points="250.5,-62 250.5,-81 342.5,-81 342.5,-62 250.5,-62"/>
<text text-anchor="middle" x="296.5" y="-69" font-family="Helvetica,sans-Serif" font-size="10.00">MooseVariable.h</text>
</g>
<!-- Node1&#45;&gt;Node5 -->
<g id="edge4" class="edge"><title>Node1&#45;&gt;Node5</title>
<path fill="none" stroke="midnightblue" d="M377.934,-123.396C360.493,-112.496 336.466,-97.4787 319.034,-86.5835"/>
<polygon fill="midnightblue" stroke="midnightblue" points="320.446,-83.339 310.111,-81.007 316.736,-89.275 320.446,-83.339"/>
</g>
<!-- Node6 -->
<g id="node6" class="node"><title>Node6</title>
<polygon fill="white" stroke="#bfbfbf" points="360.5,-62 360.5,-81 440.5,-81 440.5,-62 360.5,-62"/>
<text text-anchor="middle" x="400.5" y="-69" font-family="Helvetica,sans-Serif" font-size="10.00">SubProblem.h</text>
</g>
<!-- Node1&#45;&gt;Node6 -->
<g id="edge5" class="edge"><title>Node1&#45;&gt;Node6</title>
<path fill="none" stroke="midnightblue" d="M400.5,-123.396C400.5,-114.064 400.5,-101.714 400.5,-91.5173"/>
<polygon fill="midnightblue" stroke="midnightblue" points="404,-91.1945 400.5,-81.1945 397,-91.1946 404,-91.1945"/>
</g>
<!-- Node7 -->
<g id="node7" class="node"><title>Node7</title>
<polygon fill="white" stroke="#bfbfbf" points="458.5,-62 458.5,-81 552.5,-81 552.5,-62 458.5,-62"/>
<text text-anchor="middle" x="505.5" y="-69" font-family="Helvetica,sans-Serif" font-size="10.00">libmesh/system.h</text>
</g>
<!-- Node1&#45;&gt;Node7 -->
<g id="edge6" class="edge"><title>Node1&#45;&gt;Node7</title>
<path fill="none" stroke="midnightblue" d="M423.283,-123.396C441.055,-112.395 465.6,-97.2002 483.237,-86.2819"/>
<polygon fill="midnightblue" stroke="midnightblue" points="485.098,-89.2465 491.758,-81.007 481.413,-83.2947 485.098,-89.2465"/>
</g>
<!-- Node8 -->
<g id="node8" class="node"><title>Node8</title>
<polygon fill="white" stroke="#bfbfbf" points="570.5,-62 570.5,-81 684.5,-81 684.5,-62 570.5,-62"/>
<text text-anchor="middle" x="627.5" y="-69" font-family="Helvetica,sans-Serif" font-size="10.00">libmesh/fe_interface.h</text>
</g>
<!-- Node1&#45;&gt;Node8 -->
<g id="edge7" class="edge"><title>Node1&#45;&gt;Node8</title>
<path fill="none" stroke="midnightblue" d="M449.476,-123.476C490.873,-111.622 549.418,-94.8583 587.905,-83.8379"/>
<polygon fill="midnightblue" stroke="midnightblue" points="589.065,-87.1463 597.715,-81.0287 587.138,-80.4168 589.065,-87.1463"/>
</g>
<!-- Node9 -->
<g id="node9" class="node"><title>Node9</title>
<polygon fill="white" stroke="#bfbfbf" points="702.5,-56.5 702.5,-86.5 808.5,-86.5 808.5,-56.5 702.5,-56.5"/>
<text text-anchor="start" x="710.5" y="-74.5" font-family="Helvetica,sans-Serif" font-size="10.00">libmesh/fe_compute</text>
<text text-anchor="middle" x="755.5" y="-63.5" font-family="Helvetica,sans-Serif" font-size="10.00">_data.h</text>
</g>
<!-- Node1&#45;&gt;Node9 -->
<g id="edge8" class="edge"><title>Node1&#45;&gt;Node9</title>
<path fill="none" stroke="midnightblue" d="M476.615,-125.646C533.46,-116.5 613.279,-103.044 692.311,-87.1745"/>
<polygon fill="midnightblue" stroke="midnightblue" points="693.337,-90.5379 702.445,-85.1252 691.95,-83.6768 693.337,-90.5379"/>
</g>
<!-- Node3 -->
<g id="node3" class="node"><title>Node3</title>
<polygon fill="white" stroke="#bfbfbf" points="12.5,-0.5 12.5,-19.5 122.5,-19.5 122.5,-0.5 12.5,-0.5"/>
<text text-anchor="middle" x="67.5" y="-7.5" font-family="Helvetica,sans-Serif" font-size="10.00">GeneralUserObject.h</text>
</g>
<!-- Node2&#45;&gt;Node3 -->
<g id="edge2" class="edge"><title>Node2&#45;&gt;Node3</title>
<path fill="none" stroke="midnightblue" d="M67.5,-56.3993C67.5,-48.4664 67.5,-38.458 67.5,-29.8583"/>
<polygon fill="midnightblue" stroke="midnightblue" points="71.0001,-29.6577 67.5,-19.6578 64.0001,-29.6578 71.0001,-29.6577"/>
</g>
</g>
</svg>
