<?xml version="1.0" encoding="UTF-8" standalone="no"?>
<!DOCTYPE svg PUBLIC "-//W3C//DTD SVG 1.1//EN"
 "http://www.w3.org/Graphics/SVG/1.1/DTD/svg11.dtd">
<!-- Generated by graphviz version 2.38.0 (20140413.2041)
 -->
<!-- Title: src/functions/DwarfElephantInitialConditionFileReader.C Pages: 1 -->
<svg width="156pt" height="162pt"
 viewBox="0.00 0.00 156.00 162.00" xmlns="http://www.w3.org/2000/svg" xmlns:xlink="http://www.w3.org/1999/xlink">
<g id="graph0" class="graph" transform="scale(1 1) rotate(0) translate(4 158)">
<title>src/functions/DwarfElephantInitialConditionFileReader.C</title>
<polygon fill="white" stroke="none" points="-4,4 -4,-158 152,-158 152,4 -4,4"/>
<!-- Node1 -->
<g id="node1" class="node"><title>Node1</title>
<polygon fill="#bfbfbf" stroke="black" points="3.5,-123.5 3.5,-153.5 144.5,-153.5 144.5,-123.5 3.5,-123.5"/>
<text text-anchor="start" x="11.5" y="-141.5" font-family="Helvetica,sans-Serif" font-size="10.00">src/functions/DwarfElephant</text>
<text text-anchor="middle" x="74" y="-130.5" font-family="Helvetica,sans-Serif" font-size="10.00">InitialConditionFileReader.C</text>
</g>
<!-- Node2 -->
<g id="node2" class="node"><title>Node2</title>
<g id="a_node2"><a xlink:href="_dwarf_elephant_initial_condition_file_reader_8h.html" target="_top" xlink:title="DwarfElephantInitialCondition\lFileReader.h">
<polygon fill="white" stroke="black" points="0,-56.5 0,-86.5 148,-86.5 148,-56.5 0,-56.5"/>
<text text-anchor="start" x="8" y="-74.5" font-family="Helvetica,sans-Serif" font-size="10.00">DwarfElephantInitialCondition</text>
<text text-anchor="middle" x="74" y="-63.5" font-family="Helvetica,sans-Serif" font-size="10.00">FileReader.h</text>
</a>
</g>
</g>
<!-- Node1&#45;&gt;Node2 -->
<g id="edge1" class="edge"><title>Node1&#45;&gt;Node2</title>
<path fill="none" stroke="midnightblue" d="M74,-123.396C74,-115.645 74,-105.812 74,-96.8601"/>
<polygon fill="midnightblue" stroke="midnightblue" points="77.5001,-96.5765 74,-86.5765 70.5001,-96.5765 77.5001,-96.5765"/>
</g>
<!-- Node3 -->
<g id="node3" class="node"><title>Node3</title>
<polygon fill="white" stroke="#bfbfbf" points="42.5,-0.5 42.5,-19.5 105.5,-19.5 105.5,-0.5 42.5,-0.5"/>
<text text-anchor="middle" x="74" y="-7.5" font-family="Helvetica,sans-Serif" font-size="10.00">Function.h</text>
</g>
<!-- Node2&#45;&gt;Node3 -->
<g id="edge2" class="edge"><title>Node2&#45;&gt;Node3</title>
<path fill="none" stroke="midnightblue" d="M74,-56.3993C74,-48.4664 74,-38.458 74,-29.8583"/>
<polygon fill="midnightblue" stroke="midnightblue" points="77.5001,-29.6577 74,-19.6578 70.5001,-29.6578 77.5001,-29.6577"/>
</g>
</g>
</svg>
