<?xml version="1.0" encoding="UTF-8" standalone="no"?>
<!DOCTYPE svg PUBLIC "-//W3C//DTD SVG 1.1//EN"
 "http://www.w3.org/Graphics/SVG/1.1/DTD/svg11.dtd">
<!-- Generated by graphviz version 2.38.0 (20140413.2041)
 -->
<!-- Title: src/materials/DwarfElephantSandStone.C Pages: 1 -->
<svg width="150pt" height="151pt"
 viewBox="0.00 0.00 150.00 151.00" xmlns="http://www.w3.org/2000/svg" xmlns:xlink="http://www.w3.org/1999/xlink">
<g id="graph0" class="graph" transform="scale(1 1) rotate(0) translate(4 147)">
<title>src/materials/DwarfElephantSandStone.C</title>
<polygon fill="white" stroke="none" points="-4,4 -4,-147 146,-147 146,4 -4,4"/>
<!-- Node1 -->
<g id="node1" class="node"><title>Node1</title>
<polygon fill="#bfbfbf" stroke="black" points="0,-112.5 0,-142.5 142,-142.5 142,-112.5 0,-112.5"/>
<text text-anchor="start" x="8" y="-130.5" font-family="Helvetica,sans-Serif" font-size="10.00">src/materials/DwarfElephant</text>
<text text-anchor="middle" x="71" y="-119.5" font-family="Helvetica,sans-Serif" font-size="10.00">SandStone.C</text>
</g>
<!-- Node2 -->
<g id="node2" class="node"><title>Node2</title>
<g id="a_node2"><a xlink:href="_dwarf_elephant_sand_stone_8h.html" target="_top" xlink:title="DwarfElephantSandStone.h">
<polygon fill="white" stroke="black" points="1,-56.5 1,-75.5 141,-75.5 141,-56.5 1,-56.5"/>
<text text-anchor="middle" x="71" y="-63.5" font-family="Helvetica,sans-Serif" font-size="10.00">DwarfElephantSandStone.h</text>
</a>
</g>
</g>
<!-- Node1&#45;&gt;Node2 -->
<g id="edge1" class="edge"><title>Node1&#45;&gt;Node2</title>
<path fill="none" stroke="midnightblue" d="M71,-112.399C71,-104.466 71,-94.458 71,-85.8583"/>
<polygon fill="midnightblue" stroke="midnightblue" points="74.5001,-85.6577 71,-75.6578 67.5001,-85.6578 74.5001,-85.6577"/>
</g>
<!-- Node3 -->
<g id="node3" class="node"><title>Node3</title>
<polygon fill="white" stroke="#bfbfbf" points="41,-0.5 41,-19.5 101,-19.5 101,-0.5 41,-0.5"/>
<text text-anchor="middle" x="71" y="-7.5" font-family="Helvetica,sans-Serif" font-size="10.00">Material.h</text>
</g>
<!-- Node2&#45;&gt;Node3 -->
<g id="edge2" class="edge"><title>Node2&#45;&gt;Node3</title>
<path fill="none" stroke="midnightblue" d="M71,-56.083C71,-49.0059 71,-38.8611 71,-29.9865"/>
<polygon fill="midnightblue" stroke="midnightblue" points="74.5001,-29.751 71,-19.7511 67.5001,-29.7511 74.5001,-29.751"/>
</g>
</g>
</svg>
