<?xml version="1.0" encoding="UTF-8" standalone="no"?>
<!DOCTYPE svg PUBLIC "-//W3C//DTD SVG 1.1//EN"
 "http://www.w3.org/Graphics/SVG/1.1/DTD/svg11.dtd">
<!-- Generated by graphviz version 2.38.0 (20140413.2041)
 -->
<!-- Title: src/outputs/DwarfElephantRBOutput.C Pages: 1 -->
<svg width="397pt" height="151pt"
 viewBox="0.00 0.00 396.50 151.00" xmlns="http://www.w3.org/2000/svg" xmlns:xlink="http://www.w3.org/1999/xlink">
<g id="graph0" class="graph" transform="scale(1 1) rotate(0) translate(4 147)">
<title>src/outputs/DwarfElephantRBOutput.C</title>
<polygon fill="white" stroke="none" points="-4,4 -4,-147 392.5,-147 392.5,4 -4,4"/>
<!-- Node1 -->
<g id="node1" class="node"><title>Node1</title>
<polygon fill="#bfbfbf" stroke="black" points="113,-112.5 113,-142.5 247,-142.5 247,-112.5 113,-112.5"/>
<text text-anchor="start" x="121" y="-130.5" font-family="Helvetica,sans-Serif" font-size="10.00">src/outputs/DwarfElephant</text>
<text text-anchor="middle" x="180" y="-119.5" font-family="Helvetica,sans-Serif" font-size="10.00">RBOutput.C</text>
</g>
<!-- Node2 -->
<g id="node2" class="node"><title>Node2</title>
<polygon fill="white" stroke="#bfbfbf" points="0,-56.5 0,-75.5 124,-75.5 124,-56.5 0,-56.5"/>
<text text-anchor="middle" x="62" y="-63.5" font-family="Helvetica,sans-Serif" font-size="10.00">NonlinearSystemBase.h</text>
</g>
<!-- Node1&#45;&gt;Node2 -->
<g id="edge1" class="edge"><title>Node1&#45;&gt;Node2</title>
<path fill="none" stroke="midnightblue" d="M152.036,-112.399C132.679,-102.639 107.092,-89.7373 88.1437,-80.1826"/>
<polygon fill="midnightblue" stroke="midnightblue" points="89.675,-77.035 79.17,-75.6578 86.5233,-83.2854 89.675,-77.035"/>
</g>
<!-- Node3 -->
<g id="node3" class="node"><title>Node3</title>
<polygon fill="white" stroke="#bfbfbf" points="142.5,-56.5 142.5,-75.5 217.5,-75.5 217.5,-56.5 142.5,-56.5"/>
<text text-anchor="middle" x="180" y="-63.5" font-family="Helvetica,sans-Serif" font-size="10.00">FEProblem.h</text>
</g>
<!-- Node1&#45;&gt;Node3 -->
<g id="edge2" class="edge"><title>Node1&#45;&gt;Node3</title>
<path fill="none" stroke="midnightblue" d="M180,-112.399C180,-104.466 180,-94.458 180,-85.8583"/>
<polygon fill="midnightblue" stroke="midnightblue" points="183.5,-85.6577 180,-75.6578 176.5,-85.6578 183.5,-85.6577"/>
</g>
<!-- Node4 -->
<g id="node4" class="node"><title>Node4</title>
<g id="a_node4"><a xlink:href="_dwarf_elephant_r_b_output_8h.html" target="_top" xlink:title="DwarfElephantRBOutput.h">
<polygon fill="white" stroke="black" points="236,-56.5 236,-75.5 370,-75.5 370,-56.5 236,-56.5"/>
<text text-anchor="middle" x="303" y="-63.5" font-family="Helvetica,sans-Serif" font-size="10.00">DwarfElephantRBOutput.h</text>
</a>
</g>
</g>
<!-- Node1&#45;&gt;Node4 -->
<g id="edge3" class="edge"><title>Node1&#45;&gt;Node4</title>
<path fill="none" stroke="midnightblue" d="M209.149,-112.399C229.418,-102.595 256.241,-89.6194 276.019,-80.052"/>
<polygon fill="midnightblue" stroke="midnightblue" points="277.624,-83.1632 285.102,-75.6578 274.576,-76.8618 277.624,-83.1632"/>
</g>
<!-- Node5 -->
<g id="node5" class="node"><title>Node5</title>
<polygon fill="white" stroke="#bfbfbf" points="220.5,-0.5 220.5,-19.5 291.5,-19.5 291.5,-0.5 220.5,-0.5"/>
<text text-anchor="middle" x="256" y="-7.5" font-family="Helvetica,sans-Serif" font-size="10.00">FileOutput.h</text>
</g>
<!-- Node4&#45;&gt;Node5 -->
<g id="edge4" class="edge"><title>Node4&#45;&gt;Node5</title>
<path fill="none" stroke="midnightblue" d="M295.239,-56.083C288.463,-48.2982 278.457,-36.8015 270.245,-27.3665"/>
<polygon fill="midnightblue" stroke="midnightblue" points="272.822,-24.9963 263.617,-19.7511 267.542,-29.592 272.822,-24.9963"/>
</g>
<!-- Node6 -->
<g id="node6" class="node"><title>Node6</title>
<polygon fill="white" stroke="#bfbfbf" points="309.5,-0.5 309.5,-19.5 388.5,-19.5 388.5,-0.5 309.5,-0.5"/>
<text text-anchor="middle" x="349" y="-7.5" font-family="Helvetica,sans-Serif" font-size="10.00">MooseMesh.h</text>
</g>
<!-- Node4&#45;&gt;Node6 -->
<g id="edge5" class="edge"><title>Node4&#45;&gt;Node6</title>
<path fill="none" stroke="midnightblue" d="M310.596,-56.083C317.227,-48.2982 327.021,-36.8015 335.058,-27.3665"/>
<polygon fill="midnightblue" stroke="midnightblue" points="337.725,-29.6332 341.545,-19.7511 332.396,-25.0939 337.725,-29.6332"/>
</g>
</g>
</svg>
