<?xml version="1.0" encoding="UTF-8" standalone="no"?>
<!DOCTYPE svg PUBLIC "-//W3C//DTD SVG 1.1//EN"
 "http://www.w3.org/Graphics/SVG/1.1/DTD/svg11.dtd">
<!-- Generated by graphviz version 2.38.0 (20140413.2041)
 -->
<!-- Title: include/vectorpostprocessors/DwarfElephantNodalDifference.h Pages: 1 -->
<svg width="344pt" height="106pt"
 viewBox="0.00 0.00 343.50 106.00" xmlns="http://www.w3.org/2000/svg" xmlns:xlink="http://www.w3.org/1999/xlink">
<g id="graph0" class="graph" transform="scale(1 1) rotate(0) translate(4 102)">
<title>include/vectorpostprocessors/DwarfElephantNodalDifference.h</title>
<polygon fill="white" stroke="none" points="-4,4 -4,-102 339.5,-102 339.5,4 -4,4"/>
<!-- Node1 -->
<g id="node1" class="node"><title>Node1</title>
<polygon fill="#bfbfbf" stroke="black" points="80.5,-67.5 80.5,-97.5 245.5,-97.5 245.5,-67.5 80.5,-67.5"/>
<text text-anchor="start" x="88.5" y="-85.5" font-family="Helvetica,sans-Serif" font-size="10.00">include/vectorpostprocessors</text>
<text text-anchor="middle" x="163" y="-74.5" font-family="Helvetica,sans-Serif" font-size="10.00">/DwarfElephantNodalDifference.h</text>
</g>
<!-- Node2 -->
<g id="node2" class="node"><title>Node2</title>
<g id="a_node2"><a xlink:href="_dwarf_elephant_app_8_c.html" target="_top" xlink:title="src/base/DwarfElephantApp.C">
<polygon fill="white" stroke="black" points="0,-6 0,-25 150,-25 150,-6 0,-6"/>
<text text-anchor="middle" x="75" y="-13" font-family="Helvetica,sans-Serif" font-size="10.00">src/base/DwarfElephantApp.C</text>
</a>
</g>
</g>
<!-- Node1&#45;&gt;Node2 -->
<g id="edge1" class="edge"><title>Node1&#45;&gt;Node2</title>
<path fill="none" stroke="midnightblue" d="M135.66,-61.3056C119.135,-49.0999 98.9322,-34.1772 86.5172,-25.007"/>
<polygon fill="midnightblue" stroke="midnightblue" points="133.782,-64.2699 143.905,-67.396 137.941,-58.6393 133.782,-64.2699"/>
</g>
<!-- Node3 -->
<g id="node3" class="node"><title>Node3</title>
<g id="a_node3"><a xlink:href="_dwarf_elephant_nodal_difference_8_c.html" target="_top" xlink:title="src/vectorpostprocessors\l/DwarfElephantNodalDifference.C">
<polygon fill="white" stroke="black" points="168.5,-0.5 168.5,-30.5 335.5,-30.5 335.5,-0.5 168.5,-0.5"/>
<text text-anchor="start" x="176.5" y="-18.5" font-family="Helvetica,sans-Serif" font-size="10.00">src/vectorpostprocessors</text>
<text text-anchor="middle" x="252" y="-7.5" font-family="Helvetica,sans-Serif" font-size="10.00">/DwarfElephantNodalDifference.C</text>
</a>
</g>
</g>
<!-- Node1&#45;&gt;Node3 -->
<g id="edge2" class="edge"><title>Node1&#45;&gt;Node3</title>
<path fill="none" stroke="midnightblue" d="M190.452,-61.4511C204.143,-51.4517 220.371,-39.5995 232.726,-30.5765"/>
<polygon fill="midnightblue" stroke="midnightblue" points="188.323,-58.6716 182.312,-67.396 192.452,-64.3245 188.323,-58.6716"/>
</g>
</g>
</svg>
