<?xml version="1.0" encoding="UTF-8" standalone="no"?>
<!DOCTYPE svg PUBLIC "-//W3C//DTD SVG 1.1//EN"
 "http://www.w3.org/Graphics/SVG/1.1/DTD/svg11.dtd">
<!-- Generated by graphviz version 2.38.0 (20140413.2041)
 -->
<!-- Title: include/userobjects/DwarfElephantRBStructuresT4F5O10SteadyState.h Pages: 1 -->
<svg width="994pt" height="184pt"
 viewBox="0.00 0.00 993.72 184.00" xmlns="http://www.w3.org/2000/svg" xmlns:xlink="http://www.w3.org/1999/xlink">
<g id="graph0" class="graph" transform="scale(1 1) rotate(0) translate(4 180)">
<title>include/userobjects/DwarfElephantRBStructuresT4F5O10SteadyState.h</title>
<polygon fill="white" stroke="none" points="-4,4 -4,-180 989.722,-180 989.722,4 -4,4"/>
<!-- Node1 -->
<g id="node1" class="node"><title>Node1</title>
<polygon fill="#bfbfbf" stroke="black" points="414.855,-134.5 414.855,-175.5 558.855,-175.5 558.855,-134.5 414.855,-134.5"/>
<text text-anchor="start" x="422.855" y="-163.5" font-family="Helvetica,sans-Serif" font-size="10.00">include/userobjects</text>
<text text-anchor="start" x="422.855" y="-152.5" font-family="Helvetica,sans-Serif" font-size="10.00">/DwarfElephantRBStructures</text>
<text text-anchor="middle" x="486.855" y="-141.5" font-family="Helvetica,sans-Serif" font-size="10.00">T4F5O10SteadyState.h</text>
</g>
<!-- Node2 -->
<g id="node2" class="node"><title>Node2</title>
<polygon fill="white" stroke="#bfbfbf" points="357.355,-6 357.355,-25 456.355,-25 456.355,-6 357.355,-6"/>
<text text-anchor="middle" x="406.855" y="-13" font-family="Helvetica,sans-Serif" font-size="10.00">libmesh/rb_theta.h</text>
</g>
<!-- Node1&#45;&gt;Node2 -->
<g id="edge1" class="edge"><title>Node1&#45;&gt;Node2</title>
<path fill="none" stroke="midnightblue" d="M414.636,-150.777C287.244,-144.347 33.4737,-127.905 6.85516,-98 -2.30535,-87.7086 -2.25665,-77.3345 6.85516,-67 28.9748,-41.9122 241.042,-26.1357 347.089,-19.7515"/>
<polygon fill="midnightblue" stroke="midnightblue" points="347.544,-23.2307 357.319,-19.1449 347.129,-16.243 347.544,-23.2307"/>
</g>
<!-- Node3 -->
<g id="node3" class="node"><title>Node3</title>
<polygon fill="white" stroke="#bfbfbf" points="511.855,-0.5 511.855,-30.5 621.855,-30.5 621.855,-0.5 511.855,-0.5"/>
<text text-anchor="start" x="519.855" y="-18.5" font-family="Helvetica,sans-Serif" font-size="10.00">libmesh/rb_assembly</text>
<text text-anchor="middle" x="566.855" y="-7.5" font-family="Helvetica,sans-Serif" font-size="10.00">_expansion.h</text>
</g>
<!-- Node1&#45;&gt;Node3 -->
<g id="edge2" class="edge"><title>Node1&#45;&gt;Node3</title>
<path fill="none" stroke="midnightblue" d="M559.085,-150.998C689.05,-144.85 951.412,-128.744 978.855,-98 988.03,-87.7215 987.986,-77.318 978.855,-67 956.279,-41.4875 742.261,-26.1114 631.939,-19.8171"/>
<polygon fill="midnightblue" stroke="midnightblue" points="632.1,-16.3207 621.919,-19.2541 631.707,-23.3097 632.1,-16.3207"/>
</g>
<!-- Node4 -->
<g id="node4" class="node"><title>Node4</title>
<g id="a_node4"><a xlink:href="_dwarf_elephant_r_b_structures_a00_theta_constant_8h.html" target="_top" xlink:title="DwarfElephantRBStructures\lA00ThetaConstant.h">
<polygon fill="white" stroke="black" points="15.8552,-67.5 15.8552,-97.5 157.855,-97.5 157.855,-67.5 15.8552,-67.5"/>
<text text-anchor="start" x="23.8552" y="-85.5" font-family="Helvetica,sans-Serif" font-size="10.00">DwarfElephantRBStructures</text>
<text text-anchor="middle" x="86.8552" y="-74.5" font-family="Helvetica,sans-Serif" font-size="10.00">A00ThetaConstant.h</text>
</a>
</g>
</g>
<!-- Node1&#45;&gt;Node4 -->
<g id="edge3" class="edge"><title>Node1&#45;&gt;Node4</title>
<path fill="none" stroke="midnightblue" d="M414.709,-141.503C352.119,-130.631 258.791,-114.351 167.878,-98.1766"/>
<polygon fill="midnightblue" stroke="midnightblue" points="168.41,-94.7163 157.951,-96.4092 167.183,-101.608 168.41,-94.7163"/>
</g>
<!-- Node5 -->
<g id="node5" class="node"><title>Node5</title>
<g id="a_node5"><a xlink:href="_dwarf_elephant_r_b_structures_a0_theta_equal_mu0_8h.html" target="_top" xlink:title="DwarfElephantRBStructures\lA0ThetaEqualMu0.h">
<polygon fill="white" stroke="black" points="175.855,-67.5 175.855,-97.5 317.855,-97.5 317.855,-67.5 175.855,-67.5"/>
<text text-anchor="start" x="183.855" y="-85.5" font-family="Helvetica,sans-Serif" font-size="10.00">DwarfElephantRBStructures</text>
<text text-anchor="middle" x="246.855" y="-74.5" font-family="Helvetica,sans-Serif" font-size="10.00">A0ThetaEqualMu0.h</text>
</a>
</g>
</g>
<!-- Node1&#45;&gt;Node5 -->
<g id="edge6" class="edge"><title>Node1&#45;&gt;Node5</title>
<path fill="none" stroke="midnightblue" d="M420.32,-134.455C384.084,-123.811 339.671,-110.765 304.856,-100.538"/>
<polygon fill="midnightblue" stroke="midnightblue" points="305.425,-97.0572 294.844,-97.5968 303.452,-103.773 305.425,-97.0572"/>
</g>
<!-- Node6 -->
<g id="node6" class="node"><title>Node6</title>
<g id="a_node6"><a xlink:href="_dwarf_elephant_r_b_structures_a1_theta_equal_mu1_8h.html" target="_top" xlink:title="DwarfElephantRBStructures\lA1ThetaEqualMu1.h">
<polygon fill="white" stroke="black" points="335.855,-67.5 335.855,-97.5 477.855,-97.5 477.855,-67.5 335.855,-67.5"/>
<text text-anchor="start" x="343.855" y="-85.5" font-family="Helvetica,sans-Serif" font-size="10.00">DwarfElephantRBStructures</text>
<text text-anchor="middle" x="406.855" y="-74.5" font-family="Helvetica,sans-Serif" font-size="10.00">A1ThetaEqualMu1.h</text>
</a>
</g>
</g>
<!-- Node1&#45;&gt;Node6 -->
<g id="edge9" class="edge"><title>Node1&#45;&gt;Node6</title>
<path fill="none" stroke="midnightblue" d="M464.571,-134.362C454.034,-125.076 441.442,-113.979 430.712,-104.524"/>
<polygon fill="midnightblue" stroke="midnightblue" points="432.751,-101.656 422.935,-97.67 428.123,-106.907 432.751,-101.656"/>
</g>
<!-- Node7 -->
<g id="node7" class="node"><title>Node7</title>
<g id="a_node7"><a xlink:href="_dwarf_elephant_r_b_structures_a2_theta_equal_mu2_8h.html" target="_top" xlink:title="DwarfElephantRBStructures\lA2ThetaEqualMu2.h">
<polygon fill="white" stroke="black" points="495.855,-67.5 495.855,-97.5 637.855,-97.5 637.855,-67.5 495.855,-67.5"/>
<text text-anchor="start" x="503.855" y="-85.5" font-family="Helvetica,sans-Serif" font-size="10.00">DwarfElephantRBStructures</text>
<text text-anchor="middle" x="566.855" y="-74.5" font-family="Helvetica,sans-Serif" font-size="10.00">A2ThetaEqualMu2.h</text>
</a>
</g>
</g>
<!-- Node1&#45;&gt;Node7 -->
<g id="edge12" class="edge"><title>Node1&#45;&gt;Node7</title>
<path fill="none" stroke="midnightblue" d="M509.14,-134.362C519.676,-125.076 532.269,-113.979 542.998,-104.524"/>
<polygon fill="midnightblue" stroke="midnightblue" points="545.587,-106.907 550.776,-97.67 540.959,-101.656 545.587,-106.907"/>
</g>
<!-- Node8 -->
<g id="node8" class="node"><title>Node8</title>
<g id="a_node8"><a xlink:href="_dwarf_elephant_r_b_structures_a3_theta_equal_mu3_8h.html" target="_top" xlink:title="DwarfElephantRBStructures\lA3ThetaEqualMu3.h">
<polygon fill="white" stroke="black" points="655.855,-67.5 655.855,-97.5 797.855,-97.5 797.855,-67.5 655.855,-67.5"/>
<text text-anchor="start" x="663.855" y="-85.5" font-family="Helvetica,sans-Serif" font-size="10.00">DwarfElephantRBStructures</text>
<text text-anchor="middle" x="726.855" y="-74.5" font-family="Helvetica,sans-Serif" font-size="10.00">A3ThetaEqualMu3.h</text>
</a>
</g>
</g>
<!-- Node1&#45;&gt;Node8 -->
<g id="edge15" class="edge"><title>Node1&#45;&gt;Node8</title>
<path fill="none" stroke="midnightblue" d="M553.39,-134.455C589.627,-123.811 634.04,-110.765 668.854,-100.538"/>
<polygon fill="midnightblue" stroke="midnightblue" points="670.258,-103.773 678.866,-97.5968 668.285,-97.0572 670.258,-103.773"/>
</g>
<!-- Node9 -->
<g id="node9" class="node"><title>Node9</title>
<g id="a_node9"><a xlink:href="_dwarf_elephant_r_b_structures_a2_theta_equal_mu2_times_mu0_8h.html" target="_top" xlink:title="DwarfElephantRBStructures\lA2ThetaEqualMu2TimesMu0.h">
<polygon fill="white" stroke="black" points="815.855,-67.5 815.855,-97.5 969.855,-97.5 969.855,-67.5 815.855,-67.5"/>
<text text-anchor="start" x="823.855" y="-85.5" font-family="Helvetica,sans-Serif" font-size="10.00">DwarfElephantRBStructures</text>
<text text-anchor="middle" x="892.855" y="-74.5" font-family="Helvetica,sans-Serif" font-size="10.00">A2ThetaEqualMu2TimesMu0.h</text>
</a>
</g>
</g>
<!-- Node1&#45;&gt;Node9 -->
<g id="edge18" class="edge"><title>Node1&#45;&gt;Node9</title>
<path fill="none" stroke="midnightblue" d="M558.972,-141.477C627.852,-129.517 731.78,-111.47 805.362,-98.6928"/>
<polygon fill="midnightblue" stroke="midnightblue" points="806.283,-102.085 815.536,-96.926 805.085,-95.1886 806.283,-102.085"/>
</g>
<!-- Node4&#45;&gt;Node2 -->
<g id="edge4" class="edge"><title>Node4&#45;&gt;Node2</title>
<path fill="none" stroke="midnightblue" d="M155.896,-67.476C215.619,-55.3449 300.66,-38.0709 354.8,-27.0737"/>
<polygon fill="midnightblue" stroke="midnightblue" points="355.765,-30.4493 364.868,-25.0287 354.371,-23.5894 355.765,-30.4493"/>
</g>
<!-- Node4&#45;&gt;Node3 -->
<g id="edge5" class="edge"><title>Node4&#45;&gt;Node3</title>
<path fill="none" stroke="midnightblue" d="M157.919,-68.3948C160.936,-67.9095 163.924,-67.4423 166.855,-67 298.769,-47.0951 332.586,-48.389 464.855,-31 476.77,-29.4336 489.457,-27.6906 501.689,-25.9717"/>
<polygon fill="midnightblue" stroke="midnightblue" points="502.419,-29.4034 511.831,-24.5378 501.439,-22.4723 502.419,-29.4034"/>
</g>
<!-- Node5&#45;&gt;Node2 -->
<g id="edge7" class="edge"><title>Node5&#45;&gt;Node2</title>
<path fill="none" stroke="midnightblue" d="M281.573,-67.396C309.895,-55.8901 349.508,-39.7974 376.56,-28.8072"/>
<polygon fill="midnightblue" stroke="midnightblue" points="377.968,-32.0135 385.915,-25.007 375.333,-25.5282 377.968,-32.0135"/>
</g>
<!-- Node5&#45;&gt;Node3 -->
<g id="edge8" class="edge"><title>Node5&#45;&gt;Node3</title>
<path fill="none" stroke="midnightblue" d="M315.896,-67.476C371.073,-56.2683 447.86,-40.6709 501.925,-29.689"/>
<polygon fill="midnightblue" stroke="midnightblue" points="502.642,-33.1149 511.745,-27.6943 501.248,-26.255 502.642,-33.1149"/>
</g>
<!-- Node6&#45;&gt;Node2 -->
<g id="edge10" class="edge"><title>Node6&#45;&gt;Node2</title>
<path fill="none" stroke="midnightblue" d="M406.855,-67.396C406.855,-58.0638 406.855,-45.7143 406.855,-35.5173"/>
<polygon fill="midnightblue" stroke="midnightblue" points="410.355,-35.1945 406.855,-25.1945 403.355,-35.1946 410.355,-35.1945"/>
</g>
<!-- Node6&#45;&gt;Node3 -->
<g id="edge11" class="edge"><title>Node6&#45;&gt;Node3</title>
<path fill="none" stroke="midnightblue" d="M441.573,-67.396C465.37,-57.7284 497.138,-44.8226 522.729,-34.4262"/>
<polygon fill="midnightblue" stroke="midnightblue" points="524.258,-37.583 532.205,-30.5765 521.623,-31.0977 524.258,-37.583"/>
</g>
<!-- Node7&#45;&gt;Node2 -->
<g id="edge13" class="edge"><title>Node7&#45;&gt;Node2</title>
<path fill="none" stroke="midnightblue" d="M532.138,-67.396C503.815,-55.8901 464.203,-39.7974 437.15,-28.8072"/>
<polygon fill="midnightblue" stroke="midnightblue" points="438.377,-25.5282 427.795,-25.007 435.743,-32.0135 438.377,-25.5282"/>
</g>
<!-- Node7&#45;&gt;Node3 -->
<g id="edge14" class="edge"><title>Node7&#45;&gt;Node3</title>
<path fill="none" stroke="midnightblue" d="M566.855,-67.396C566.855,-59.6448 566.855,-49.8122 566.855,-40.8601"/>
<polygon fill="midnightblue" stroke="midnightblue" points="570.355,-40.5765 566.855,-30.5765 563.355,-40.5765 570.355,-40.5765"/>
</g>
<!-- Node8&#45;&gt;Node2 -->
<g id="edge16" class="edge"><title>Node8&#45;&gt;Node2</title>
<path fill="none" stroke="midnightblue" d="M657.814,-67.476C598.091,-55.3449 513.051,-38.0709 458.91,-27.0737"/>
<polygon fill="midnightblue" stroke="midnightblue" points="459.339,-23.5894 448.842,-25.0287 457.946,-30.4493 459.339,-23.5894"/>
</g>
<!-- Node8&#45;&gt;Node3 -->
<g id="edge17" class="edge"><title>Node8&#45;&gt;Node3</title>
<path fill="none" stroke="midnightblue" d="M692.138,-67.396C668.34,-57.7284 636.572,-44.8226 610.981,-34.4262"/>
<polygon fill="midnightblue" stroke="midnightblue" points="612.087,-31.0977 601.505,-30.5765 609.452,-37.583 612.087,-31.0977"/>
</g>
<!-- Node9&#45;&gt;Node2 -->
<g id="edge19" class="edge"><title>Node9&#45;&gt;Node2</title>
<path fill="none" stroke="midnightblue" d="M815.528,-68.2779C812.602,-67.8361 809.703,-67.4084 806.855,-67 672.178,-47.684 637.693,-49.1621 502.855,-31 491.11,-29.4179 478.574,-27.6111 466.569,-25.8222"/>
<polygon fill="midnightblue" stroke="midnightblue" points="467.047,-22.3549 456.638,-24.3292 466.006,-29.2771 467.047,-22.3549"/>
</g>
<!-- Node9&#45;&gt;Node3 -->
<g id="edge20" class="edge"><title>Node9&#45;&gt;Node3</title>
<path fill="none" stroke="midnightblue" d="M822.519,-67.476C765.956,-56.198 687.1,-40.4751 631.97,-29.483"/>
<polygon fill="midnightblue" stroke="midnightblue" points="632.454,-26.0107 621.963,-27.4877 631.085,-32.8756 632.454,-26.0107"/>
</g>
</g>
</svg>
