<?xml version="1.0" encoding="UTF-8" standalone="no"?>
<!DOCTYPE svg PUBLIC "-//W3C//DTD SVG 1.1//EN"
 "http://www.w3.org/Graphics/SVG/1.1/DTD/svg11.dtd">
<!-- Generated by graphviz version 2.38.0 (20140413.2041)
 -->
<!-- Title: src/userobjects/DwarfElephantReducedToFullState.C Pages: 1 -->
<svg width="234pt" height="162pt"
 viewBox="0.00 0.00 233.50 162.00" xmlns="http://www.w3.org/2000/svg" xmlns:xlink="http://www.w3.org/1999/xlink">
<g id="graph0" class="graph" transform="scale(1 1) rotate(0) translate(4 158)">
<title>src/userobjects/DwarfElephantReducedToFullState.C</title>
<polygon fill="white" stroke="none" points="-4,4 -4,-158 229.5,-158 229.5,4 -4,4"/>
<!-- Node1 -->
<g id="node1" class="node"><title>Node1</title>
<polygon fill="#bfbfbf" stroke="black" points="33.5,-123.5 33.5,-153.5 185.5,-153.5 185.5,-123.5 33.5,-123.5"/>
<text text-anchor="start" x="41.5" y="-141.5" font-family="Helvetica,sans-Serif" font-size="10.00">src/userobjects/DwarfElephant</text>
<text text-anchor="middle" x="109.5" y="-130.5" font-family="Helvetica,sans-Serif" font-size="10.00">ReducedToFullState.C</text>
</g>
<!-- Node2 -->
<g id="node2" class="node"><title>Node2</title>
<g id="a_node2"><a xlink:href="_dwarf_elephant_reduced_to_full_state_8h.html" target="_top" xlink:title="DwarfElephantReducedToFull\lState.h">
<polygon fill="white" stroke="black" points="34.5,-56.5 34.5,-86.5 184.5,-86.5 184.5,-56.5 34.5,-56.5"/>
<text text-anchor="start" x="42.5" y="-74.5" font-family="Helvetica,sans-Serif" font-size="10.00">DwarfElephantReducedToFull</text>
<text text-anchor="middle" x="109.5" y="-63.5" font-family="Helvetica,sans-Serif" font-size="10.00">State.h</text>
</a>
</g>
</g>
<!-- Node1&#45;&gt;Node2 -->
<g id="edge1" class="edge"><title>Node1&#45;&gt;Node2</title>
<path fill="none" stroke="midnightblue" d="M109.5,-123.396C109.5,-115.645 109.5,-105.812 109.5,-96.8601"/>
<polygon fill="midnightblue" stroke="midnightblue" points="113,-96.5765 109.5,-86.5765 106,-96.5765 113,-96.5765"/>
</g>
<!-- Node3 -->
<g id="node3" class="node"><title>Node3</title>
<polygon fill="white" stroke="#bfbfbf" points="0,-0.5 0,-19.5 97,-19.5 97,-0.5 0,-0.5"/>
<text text-anchor="middle" x="48.5" y="-7.5" font-family="Helvetica,sans-Serif" font-size="10.00">libmesh/xdr_cxx.h</text>
</g>
<!-- Node2&#45;&gt;Node3 -->
<g id="edge2" class="edge"><title>Node2&#45;&gt;Node3</title>
<path fill="none" stroke="midnightblue" d="M95.0439,-56.3993C85.9057,-47.4859 74.0814,-35.9523 64.6376,-26.7408"/>
<polygon fill="midnightblue" stroke="midnightblue" points="66.9785,-24.1348 57.376,-19.6578 62.0907,-29.1458 66.9785,-24.1348"/>
</g>
<!-- Node4 -->
<g id="node4" class="node"><title>Node4</title>
<polygon fill="white" stroke="#bfbfbf" points="115.5,-0.5 115.5,-19.5 225.5,-19.5 225.5,-0.5 115.5,-0.5"/>
<text text-anchor="middle" x="170.5" y="-7.5" font-family="Helvetica,sans-Serif" font-size="10.00">GeneralUserObject.h</text>
</g>
<!-- Node2&#45;&gt;Node4 -->
<g id="edge3" class="edge"><title>Node2&#45;&gt;Node4</title>
<path fill="none" stroke="midnightblue" d="M123.956,-56.3993C133.094,-47.4859 144.919,-35.9523 154.362,-26.7408"/>
<polygon fill="midnightblue" stroke="midnightblue" points="156.909,-29.1458 161.624,-19.6578 152.022,-24.1348 156.909,-29.1458"/>
</g>
</g>
</svg>
