<?xml version="1.0" encoding="UTF-8" standalone="no"?>
<!DOCTYPE svg PUBLIC "-//W3C//DTD SVG 1.1//EN"
 "http://www.w3.org/Graphics/SVG/1.1/DTD/svg11.dtd">
<!-- Generated by graphviz version 2.38.0 (20140413.2041)
 -->
<!-- Title: src/utils/DwarfElephantFormattedTable.C Pages: 1 -->
<svg width="859pt" height="151pt"
 viewBox="0.00 0.00 859.00 151.00" xmlns="http://www.w3.org/2000/svg" xmlns:xlink="http://www.w3.org/1999/xlink">
<g id="graph0" class="graph" transform="scale(1 1) rotate(0) translate(4 147)">
<title>src/utils/DwarfElephantFormattedTable.C</title>
<polygon fill="white" stroke="none" points="-4,4 -4,-147 855,-147 855,4 -4,4"/>
<!-- Node1 -->
<g id="node1" class="node"><title>Node1</title>
<polygon fill="#bfbfbf" stroke="black" points="434.5,-112.5 434.5,-142.5 598.5,-142.5 598.5,-112.5 434.5,-112.5"/>
<text text-anchor="start" x="442.5" y="-130.5" font-family="Helvetica,sans-Serif" font-size="10.00">src/utils/DwarfElephantFormatted</text>
<text text-anchor="middle" x="516.5" y="-119.5" font-family="Helvetica,sans-Serif" font-size="10.00">Table.C</text>
</g>
<!-- Node2 -->
<g id="node2" class="node"><title>Node2</title>
<g id="a_node2"><a xlink:href="_dwarf_elephant_formatted_table_8h.html" target="_top" xlink:title="DwarfElephantFormattedTable.h">
<polygon fill="white" stroke="black" points="0,-56.5 0,-75.5 161,-75.5 161,-56.5 0,-56.5"/>
<text text-anchor="middle" x="80.5" y="-63.5" font-family="Helvetica,sans-Serif" font-size="10.00">DwarfElephantFormattedTable.h</text>
</a>
</g>
</g>
<!-- Node1&#45;&gt;Node2 -->
<g id="edge1" class="edge"><title>Node1&#45;&gt;Node2</title>
<path fill="none" stroke="midnightblue" d="M434.492,-115.309C353.517,-104.258 230.864,-87.5198 153.26,-76.9294"/>
<polygon fill="midnightblue" stroke="midnightblue" points="153.469,-73.4256 143.088,-75.5412 152.523,-80.3613 153.469,-73.4256"/>
</g>
<!-- Node4 -->
<g id="node4" class="node"><title>Node4</title>
<polygon fill="white" stroke="#bfbfbf" points="179,-56.5 179,-75.5 256,-75.5 256,-56.5 179,-56.5"/>
<text text-anchor="middle" x="217.5" y="-63.5" font-family="Helvetica,sans-Serif" font-size="10.00">MooseError.h</text>
</g>
<!-- Node1&#45;&gt;Node4 -->
<g id="edge3" class="edge"><title>Node1&#45;&gt;Node4</title>
<path fill="none" stroke="midnightblue" d="M446.02,-112.475C390.733,-101.473 315.213,-86.4445 266.395,-76.73"/>
<polygon fill="midnightblue" stroke="midnightblue" points="266.891,-73.2601 256.4,-74.741 265.525,-80.1255 266.891,-73.2601"/>
</g>
<!-- Node5 -->
<g id="node5" class="node"><title>Node5</title>
<polygon fill="white" stroke="#bfbfbf" points="274,-56.5 274,-75.5 349,-75.5 349,-56.5 274,-56.5"/>
<text text-anchor="middle" x="311.5" y="-63.5" font-family="Helvetica,sans-Serif" font-size="10.00">InfixIterator.h</text>
</g>
<!-- Node1&#45;&gt;Node5 -->
<g id="edge4" class="edge"><title>Node1&#45;&gt;Node5</title>
<path fill="none" stroke="midnightblue" d="M468.177,-112.475C432.347,-102.075 384.123,-88.0783 350.681,-78.3722"/>
<polygon fill="midnightblue" stroke="midnightblue" points="351.387,-74.9326 340.808,-75.5064 349.436,-81.6551 351.387,-74.9326"/>
</g>
<!-- Node6 -->
<g id="node6" class="node"><title>Node6</title>
<polygon fill="white" stroke="#bfbfbf" points="367.5,-56.5 367.5,-75.5 441.5,-75.5 441.5,-56.5 367.5,-56.5"/>
<text text-anchor="middle" x="404.5" y="-63.5" font-family="Helvetica,sans-Serif" font-size="10.00">MooseUtils.h</text>
</g>
<!-- Node1&#45;&gt;Node6 -->
<g id="edge5" class="edge"><title>Node1&#45;&gt;Node6</title>
<path fill="none" stroke="midnightblue" d="M489.958,-112.399C471.837,-102.773 447.964,-90.0902 430.057,-80.5772"/>
<polygon fill="midnightblue" stroke="midnightblue" points="431.27,-77.2585 420.797,-75.6578 427.986,-83.4403 431.27,-77.2585"/>
</g>
<!-- Node7 -->
<g id="node7" class="node"><title>Node7</title>
<polygon fill="white" stroke="#bfbfbf" points="460,-56.5 460,-75.5 573,-75.5 573,-56.5 460,-56.5"/>
<text text-anchor="middle" x="516.5" y="-63.5" font-family="Helvetica,sans-Serif" font-size="10.00">libmesh/exodusII_io.h</text>
</g>
<!-- Node1&#45;&gt;Node7 -->
<g id="edge6" class="edge"><title>Node1&#45;&gt;Node7</title>
<path fill="none" stroke="midnightblue" d="M516.5,-112.399C516.5,-104.466 516.5,-94.458 516.5,-85.8583"/>
<polygon fill="midnightblue" stroke="midnightblue" points="520,-85.6577 516.5,-75.6578 513,-85.6578 520,-85.6577"/>
</g>
<!-- Node8 -->
<g id="node8" class="node"><title>Node8</title>
<polygon fill="white" stroke="#bfbfbf" points="591.5,-56.5 591.5,-75.5 643.5,-75.5 643.5,-56.5 591.5,-56.5"/>
<text text-anchor="middle" x="617.5" y="-63.5" font-family="Helvetica,sans-Serif" font-size="10.00">iomanip</text>
</g>
<!-- Node1&#45;&gt;Node8 -->
<g id="edge7" class="edge"><title>Node1&#45;&gt;Node8</title>
<path fill="none" stroke="midnightblue" d="M540.436,-112.399C556.625,-102.862 577.907,-90.3248 594.003,-80.8422"/>
<polygon fill="midnightblue" stroke="midnightblue" points="595.964,-83.7492 602.804,-75.6578 592.411,-77.718 595.964,-83.7492"/>
</g>
<!-- Node9 -->
<g id="node9" class="node"><title>Node9</title>
<polygon fill="white" stroke="#bfbfbf" points="661.5,-56.5 661.5,-75.5 709.5,-75.5 709.5,-56.5 661.5,-56.5"/>
<text text-anchor="middle" x="685.5" y="-63.5" font-family="Helvetica,sans-Serif" font-size="10.00">iterator</text>
</g>
<!-- Node1&#45;&gt;Node9 -->
<g id="edge8" class="edge"><title>Node1&#45;&gt;Node9</title>
<path fill="none" stroke="midnightblue" d="M556.551,-112.399C585.586,-102.177 624.41,-88.508 651.847,-78.8481"/>
<polygon fill="midnightblue" stroke="midnightblue" points="653.131,-82.1067 661.401,-75.4844 650.807,-75.504 653.131,-82.1067"/>
</g>
<!-- Node10 -->
<g id="node10" class="node"><title>Node10</title>
<polygon fill="white" stroke="#bfbfbf" points="727.5,-56.5 727.5,-75.5 787.5,-75.5 787.5,-56.5 727.5,-56.5"/>
<text text-anchor="middle" x="757.5" y="-63.5" font-family="Helvetica,sans-Serif" font-size="10.00">sys/ioctl.h</text>
</g>
<!-- Node1&#45;&gt;Node10 -->
<g id="edge9" class="edge"><title>Node1&#45;&gt;Node10</title>
<path fill="none" stroke="midnightblue" d="M573.308,-112.475C617.73,-101.507 678.358,-86.5393 717.717,-76.8221"/>
<polygon fill="midnightblue" stroke="midnightblue" points="718.617,-80.2049 727.487,-74.4099 716.939,-73.4089 718.617,-80.2049"/>
</g>
<!-- Node11 -->
<g id="node11" class="node"><title>Node11</title>
<polygon fill="white" stroke="#bfbfbf" points="806,-56.5 806,-75.5 851,-75.5 851,-56.5 806,-56.5"/>
<text text-anchor="middle" x="828.5" y="-63.5" font-family="Helvetica,sans-Serif" font-size="10.00">cstdlib</text>
</g>
<!-- Node1&#45;&gt;Node11 -->
<g id="edge10" class="edge"><title>Node1&#45;&gt;Node11</title>
<path fill="none" stroke="midnightblue" d="M598.703,-113.802C652.208,-105.04 723.671,-92.4085 795.681,-76.0016"/>
<polygon fill="midnightblue" stroke="midnightblue" points="796.884,-79.3163 805.843,-73.6615 795.313,-72.4948 796.884,-79.3163"/>
</g>
<!-- Node3 -->
<g id="node3" class="node"><title>Node3</title>
<polygon fill="white" stroke="#bfbfbf" points="33,-0.5 33,-19.5 128,-19.5 128,-0.5 33,-0.5"/>
<text text-anchor="middle" x="80.5" y="-7.5" font-family="Helvetica,sans-Serif" font-size="10.00">FormattedTable.h</text>
</g>
<!-- Node2&#45;&gt;Node3 -->
<g id="edge2" class="edge"><title>Node2&#45;&gt;Node3</title>
<path fill="none" stroke="midnightblue" d="M80.5,-56.083C80.5,-49.0059 80.5,-38.8611 80.5,-29.9865"/>
<polygon fill="midnightblue" stroke="midnightblue" points="84.0001,-29.751 80.5,-19.7511 77.0001,-29.7511 84.0001,-29.751"/>
</g>
</g>
</svg>
