<?xml version="1.0" encoding="UTF-8" standalone="no"?>
<!DOCTYPE svg PUBLIC "-//W3C//DTD SVG 1.1//EN"
 "http://www.w3.org/Graphics/SVG/1.1/DTD/svg11.dtd">
<!-- Generated by graphviz version 2.38.0 (20140413.2041)
 -->
<!-- Title: include/vectorpostprocessors/DwarfElephantReverseLiftingFunctionAndDimensionalize.h Pages: 1 -->
<svg width="364pt" height="128pt"
 viewBox="0.00 0.00 363.50 128.00" xmlns="http://www.w3.org/2000/svg" xmlns:xlink="http://www.w3.org/1999/xlink">
<g id="graph0" class="graph" transform="scale(1 1) rotate(0) translate(4 124)">
<title>include/vectorpostprocessors/DwarfElephantReverseLiftingFunctionAndDimensionalize.h</title>
<polygon fill="white" stroke="none" points="-4,4 -4,-124 359.5,-124 359.5,4 -4,4"/>
<!-- Node1 -->
<g id="node1" class="node"><title>Node1</title>
<polygon fill="#bfbfbf" stroke="black" points="74.5,-78.5 74.5,-119.5 261.5,-119.5 261.5,-78.5 74.5,-78.5"/>
<text text-anchor="start" x="82.5" y="-107.5" font-family="Helvetica,sans-Serif" font-size="10.00">include/vectorpostprocessors</text>
<text text-anchor="start" x="82.5" y="-96.5" font-family="Helvetica,sans-Serif" font-size="10.00">/DwarfElephantReverseLiftingFunction</text>
<text text-anchor="middle" x="168" y="-85.5" font-family="Helvetica,sans-Serif" font-size="10.00">AndDimensionalize.h</text>
</g>
<!-- Node2 -->
<g id="node2" class="node"><title>Node2</title>
<g id="a_node2"><a xlink:href="_dwarf_elephant_app_8_c.html" target="_top" xlink:title="src/base/DwarfElephantApp.C">
<polygon fill="white" stroke="black" points="0,-11.5 0,-30.5 150,-30.5 150,-11.5 0,-11.5"/>
<text text-anchor="middle" x="75" y="-18.5" font-family="Helvetica,sans-Serif" font-size="10.00">src/base/DwarfElephantApp.C</text>
</a>
</g>
</g>
<!-- Node1&#45;&gt;Node2 -->
<g id="edge1" class="edge"><title>Node1&#45;&gt;Node2</title>
<path fill="none" stroke="midnightblue" d="M136.196,-72.0093C118.525,-57.5691 97.6993,-40.55 85.465,-30.552"/>
<polygon fill="midnightblue" stroke="midnightblue" points="134.092,-74.8104 144.05,-78.4281 138.522,-69.3901 134.092,-74.8104"/>
</g>
<!-- Node3 -->
<g id="node3" class="node"><title>Node3</title>
<g id="a_node3"><a xlink:href="_dwarf_elephant_reverse_lifting_function_and_dimensionalize_8_c.html" target="_top" xlink:title="src/vectorpostprocessors\l/DwarfElephantReverseLiftingFunction\lAndDimensionalize.C">
<polygon fill="white" stroke="black" points="168.5,-0.5 168.5,-41.5 355.5,-41.5 355.5,-0.5 168.5,-0.5"/>
<text text-anchor="start" x="176.5" y="-29.5" font-family="Helvetica,sans-Serif" font-size="10.00">src/vectorpostprocessors</text>
<text text-anchor="start" x="176.5" y="-18.5" font-family="Helvetica,sans-Serif" font-size="10.00">/DwarfElephantReverseLiftingFunction</text>
<text text-anchor="middle" x="262" y="-7.5" font-family="Helvetica,sans-Serif" font-size="10.00">AndDimensionalize.C</text>
</a>
</g>
</g>
<!-- Node1&#45;&gt;Node3 -->
<g id="edge2" class="edge"><title>Node1&#45;&gt;Node3</title>
<path fill="none" stroke="midnightblue" d="M200.078,-72.0648C212.455,-62.0574 226.373,-50.8045 237.875,-41.5056"/>
<polygon fill="midnightblue" stroke="midnightblue" points="197.783,-69.4191 192.207,-78.4281 202.184,-74.8626 197.783,-69.4191"/>
</g>
</g>
</svg>
