<?xml version="1.0" encoding="UTF-8" standalone="no"?>
<!DOCTYPE svg PUBLIC "-//W3C//DTD SVG 1.1//EN"
 "http://www.w3.org/Graphics/SVG/1.1/DTD/svg11.dtd">
<!-- Generated by graphviz version 2.38.0 (20140413.2041)
 -->
<!-- Title: include/userobjects/DwarfElephantRBFilePointValues.h Pages: 1 -->
<svg width="328pt" height="106pt"
 viewBox="0.00 0.00 328.00 106.00" xmlns="http://www.w3.org/2000/svg" xmlns:xlink="http://www.w3.org/1999/xlink">
<g id="graph0" class="graph" transform="scale(1 1) rotate(0) translate(4 102)">
<title>include/userobjects/DwarfElephantRBFilePointValues.h</title>
<polygon fill="white" stroke="none" points="-4,4 -4,-102 324,-102 324,4 -4,4"/>
<!-- Node1 -->
<g id="node1" class="node"><title>Node1</title>
<polygon fill="#bfbfbf" stroke="black" points="70.5,-67.5 70.5,-97.5 247.5,-97.5 247.5,-67.5 70.5,-67.5"/>
<text text-anchor="start" x="78.5" y="-85.5" font-family="Helvetica,sans-Serif" font-size="10.00">include/userobjects</text>
<text text-anchor="middle" x="159" y="-74.5" font-family="Helvetica,sans-Serif" font-size="10.00">/DwarfElephantRBFilePointValues.h</text>
</g>
<!-- Node2 -->
<g id="node2" class="node"><title>Node2</title>
<g id="a_node2"><a xlink:href="_dwarf_elephant_app_8_c.html" target="_top" xlink:title="src/base/DwarfElephantApp.C">
<polygon fill="white" stroke="black" points="0,-6 0,-25 150,-25 150,-6 0,-6"/>
<text text-anchor="middle" x="75" y="-13" font-family="Helvetica,sans-Serif" font-size="10.00">src/base/DwarfElephantApp.C</text>
</a>
</g>
</g>
<!-- Node1&#45;&gt;Node2 -->
<g id="edge1" class="edge"><title>Node1&#45;&gt;Node2</title>
<path fill="none" stroke="midnightblue" d="M132.518,-61.008C116.924,-48.9412 98.009,-34.3046 86.236,-25.1945"/>
<polygon fill="midnightblue" stroke="midnightblue" points="130.723,-64.0442 140.773,-67.396 135.006,-58.508 130.723,-64.0442"/>
</g>
<!-- Node3 -->
<g id="node3" class="node"><title>Node3</title>
<g id="a_node3"><a xlink:href="_dwarf_elephant_r_b_file_point_values_8_c.html" target="_top" xlink:title="src/userobjects/DwarfElephant\lRBFilePointValues.C">
<polygon fill="white" stroke="black" points="168,-0.5 168,-30.5 320,-30.5 320,-0.5 168,-0.5"/>
<text text-anchor="start" x="176" y="-18.5" font-family="Helvetica,sans-Serif" font-size="10.00">src/userobjects/DwarfElephant</text>
<text text-anchor="middle" x="244" y="-7.5" font-family="Helvetica,sans-Serif" font-size="10.00">RBFilePointValues.C</text>
</a>
</g>
</g>
<!-- Node1&#45;&gt;Node3 -->
<g id="edge2" class="edge"><title>Node1&#45;&gt;Node3</title>
<path fill="none" stroke="midnightblue" d="M185.588,-61.1677C198.586,-51.2283 213.904,-39.5144 225.592,-30.5765"/>
<polygon fill="midnightblue" stroke="midnightblue" points="183.261,-58.5412 177.444,-67.396 187.513,-64.1017 183.261,-58.5412"/>
</g>
</g>
</svg>
