<?xml version="1.0" encoding="UTF-8" standalone="no"?>
<!DOCTYPE svg PUBLIC "-//W3C//DTD SVG 1.1//EN"
 "http://www.w3.org/Graphics/SVG/1.1/DTD/svg11.dtd">
<!-- Generated by graphviz version 2.38.0 (20140413.2041)
 -->
<!-- Title: include/kernels/DwarfElephantRBTimeDerivative.h Pages: 1 -->
<svg width="310pt" height="106pt"
 viewBox="0.00 0.00 309.50 106.00" xmlns="http://www.w3.org/2000/svg" xmlns:xlink="http://www.w3.org/1999/xlink">
<g id="graph0" class="graph" transform="scale(1 1) rotate(0) translate(4 102)">
<title>include/kernels/DwarfElephantRBTimeDerivative.h</title>
<polygon fill="white" stroke="none" points="-4,4 -4,-102 305.5,-102 305.5,4 -4,4"/>
<!-- Node1 -->
<g id="node1" class="node"><title>Node1</title>
<polygon fill="#bfbfbf" stroke="black" points="79,-67.5 79,-97.5 231,-97.5 231,-67.5 79,-67.5"/>
<text text-anchor="start" x="87" y="-85.5" font-family="Helvetica,sans-Serif" font-size="10.00">include/kernels/DwarfElephant</text>
<text text-anchor="middle" x="155" y="-74.5" font-family="Helvetica,sans-Serif" font-size="10.00">RBTimeDerivative.h</text>
</g>
<!-- Node2 -->
<g id="node2" class="node"><title>Node2</title>
<g id="a_node2"><a xlink:href="_dwarf_elephant_app_8_c.html" target="_top" xlink:title="src/base/DwarfElephantApp.C">
<polygon fill="white" stroke="black" points="0,-6 0,-25 150,-25 150,-6 0,-6"/>
<text text-anchor="middle" x="75" y="-13" font-family="Helvetica,sans-Serif" font-size="10.00">src/base/DwarfElephantApp.C</text>
</a>
</g>
</g>
<!-- Node1&#45;&gt;Node2 -->
<g id="edge1" class="edge"><title>Node1&#45;&gt;Node2</title>
<path fill="none" stroke="midnightblue" d="M129.779,-61.008C114.928,-48.9412 96.9134,-34.3046 85.701,-25.1945"/>
<polygon fill="midnightblue" stroke="midnightblue" points="127.673,-63.8064 137.641,-67.396 132.087,-58.3736 127.673,-63.8064"/>
</g>
<!-- Node3 -->
<g id="node3" class="node"><title>Node3</title>
<g id="a_node3"><a xlink:href="_dwarf_elephant_r_b_time_derivative_8_c.html" target="_top" xlink:title="src/kernels/DwarfElephant\lRBTimeDerivative.C">
<polygon fill="white" stroke="black" points="168.5,-0.5 168.5,-30.5 301.5,-30.5 301.5,-0.5 168.5,-0.5"/>
<text text-anchor="start" x="176.5" y="-18.5" font-family="Helvetica,sans-Serif" font-size="10.00">src/kernels/DwarfElephant</text>
<text text-anchor="middle" x="235" y="-7.5" font-family="Helvetica,sans-Serif" font-size="10.00">RBTimeDerivative.C</text>
</a>
</g>
</g>
<!-- Node1&#45;&gt;Node3 -->
<g id="edge2" class="edge"><title>Node1&#45;&gt;Node3</title>
<path fill="none" stroke="midnightblue" d="M180.375,-60.8832C192.532,-51.0054 206.779,-39.4293 217.675,-30.5765"/>
<polygon fill="midnightblue" stroke="midnightblue" points="177.913,-58.3736 172.359,-67.396 182.327,-63.8064 177.913,-58.3736"/>
</g>
</g>
</svg>
