<?xml version="1.0" encoding="UTF-8" standalone="no"?>
<!DOCTYPE svg PUBLIC "-//W3C//DTD SVG 1.1//EN"
 "http://www.w3.org/Graphics/SVG/1.1/DTD/svg11.dtd">
<!-- Generated by graphviz version 2.38.0 (20140413.2041)
 -->
<!-- Title: include/userobjects/DwarfElephantRBStructuresT7F8O80SteadyState.h Pages: 1 -->
<svg width="2262pt" height="184pt"
 viewBox="0.00 0.00 2262.25 184.00" xmlns="http://www.w3.org/2000/svg" xmlns:xlink="http://www.w3.org/1999/xlink">
<g id="graph0" class="graph" transform="scale(1 1) rotate(0) translate(4 180)">
<title>include/userobjects/DwarfElephantRBStructuresT7F8O80SteadyState.h</title>
<polygon fill="white" stroke="none" points="-4,4 -4,-180 2258.25,-180 2258.25,4 -4,4"/>
<!-- Node1 -->
<g id="node1" class="node"><title>Node1</title>
<polygon fill="#bfbfbf" stroke="black" points="1055.13,-134.5 1055.13,-175.5 1199.13,-175.5 1199.13,-134.5 1055.13,-134.5"/>
<text text-anchor="start" x="1063.13" y="-163.5" font-family="Helvetica,sans-Serif" font-size="10.00">include/userobjects</text>
<text text-anchor="start" x="1063.13" y="-152.5" font-family="Helvetica,sans-Serif" font-size="10.00">/DwarfElephantRBStructures</text>
<text text-anchor="middle" x="1127.13" y="-141.5" font-family="Helvetica,sans-Serif" font-size="10.00">T7F8O80SteadyState.h</text>
</g>
<!-- Node2 -->
<g id="node2" class="node"><title>Node2</title>
<polygon fill="white" stroke="#bfbfbf" points="997.625,-6 997.625,-25 1096.63,-25 1096.63,-6 997.625,-6"/>
<text text-anchor="middle" x="1047.13" y="-13" font-family="Helvetica,sans-Serif" font-size="10.00">libmesh/rb_theta.h</text>
</g>
<!-- Node1&#45;&gt;Node2 -->
<g id="edge1" class="edge"><title>Node1&#45;&gt;Node2</title>
<path fill="none" stroke="midnightblue" d="M1055.03,-153.098C813.111,-149.722 43.2918,-136.02 7.12513,-98 -2.37086,-88.0173 -2.37804,-76.9758 7.12513,-67 41.0908,-31.345 770.914,-19.7984 987.223,-17.1527"/>
<polygon fill="midnightblue" stroke="midnightblue" points="987.475,-20.65 997.432,-17.0298 987.391,-13.6505 987.475,-20.65"/>
</g>
<!-- Node3 -->
<g id="node3" class="node"><title>Node3</title>
<polygon fill="white" stroke="#bfbfbf" points="1152.13,-0.5 1152.13,-30.5 1262.13,-30.5 1262.13,-0.5 1152.13,-0.5"/>
<text text-anchor="start" x="1160.13" y="-18.5" font-family="Helvetica,sans-Serif" font-size="10.00">libmesh/rb_assembly</text>
<text text-anchor="middle" x="1207.13" y="-7.5" font-family="Helvetica,sans-Serif" font-size="10.00">_expansion.h</text>
</g>
<!-- Node1&#45;&gt;Node3 -->
<g id="edge2" class="edge"><title>Node1&#45;&gt;Node3</title>
<path fill="none" stroke="midnightblue" d="M1199.22,-153.098C1441.14,-149.722 2210.96,-136.02 2247.13,-98 2256.62,-88.0173 2256.63,-76.9758 2247.13,-67 2213.45,-31.6494 1495.75,-19.9973 1272.68,-17.2224"/>
<polygon fill="midnightblue" stroke="midnightblue" points="1272.48,-13.7198 1262.44,-17.0969 1272.39,-20.7193 1272.48,-13.7198"/>
</g>
<!-- Node4 -->
<g id="node4" class="node"><title>Node4</title>
<g id="a_node4"><a xlink:href="_dwarf_elephant_r_b_structures_a00_theta_constant_8h.html" target="_top" xlink:title="DwarfElephantRBStructures\lA00ThetaConstant.h">
<polygon fill="white" stroke="black" points="336.125,-67.5 336.125,-97.5 478.125,-97.5 478.125,-67.5 336.125,-67.5"/>
<text text-anchor="start" x="344.125" y="-85.5" font-family="Helvetica,sans-Serif" font-size="10.00">DwarfElephantRBStructures</text>
<text text-anchor="middle" x="407.125" y="-74.5" font-family="Helvetica,sans-Serif" font-size="10.00">A00ThetaConstant.h</text>
</a>
</g>
</g>
<!-- Node1&#45;&gt;Node4 -->
<g id="edge3" class="edge"><title>Node1&#45;&gt;Node4</title>
<path fill="none" stroke="midnightblue" d="M1054.9,-149.854C937.964,-142.662 699.78,-126.027 488.225,-98.0674"/>
<polygon fill="midnightblue" stroke="midnightblue" points="488.546,-94.5794 478.171,-96.7274 487.621,-101.518 488.546,-94.5794"/>
</g>
<!-- Node5 -->
<g id="node5" class="node"><title>Node5</title>
<g id="a_node5"><a xlink:href="_dwarf_elephant_r_b_structures_a0_theta_equal_mu0_8h.html" target="_top" xlink:title="DwarfElephantRBStructures\lA0ThetaEqualMu0.h">
<polygon fill="white" stroke="black" points="496.125,-67.5 496.125,-97.5 638.125,-97.5 638.125,-67.5 496.125,-67.5"/>
<text text-anchor="start" x="504.125" y="-85.5" font-family="Helvetica,sans-Serif" font-size="10.00">DwarfElephantRBStructures</text>
<text text-anchor="middle" x="567.125" y="-74.5" font-family="Helvetica,sans-Serif" font-size="10.00">A0ThetaEqualMu0.h</text>
</a>
</g>
</g>
<!-- Node1&#45;&gt;Node5 -->
<g id="edge6" class="edge"><title>Node1&#45;&gt;Node5</title>
<path fill="none" stroke="midnightblue" d="M1054.97,-147.017C963,-137.795 798.891,-120.266 648.528,-98.1519"/>
<polygon fill="midnightblue" stroke="midnightblue" points="648.591,-94.6231 638.187,-96.6204 647.566,-101.548 648.591,-94.6231"/>
</g>
<!-- Node6 -->
<g id="node6" class="node"><title>Node6</title>
<g id="a_node6"><a xlink:href="_dwarf_elephant_r_b_structures_a0_theta_norm_mu0_8h.html" target="_top" xlink:title="DwarfElephantRBStructures\lA0ThetaNormMu0.h">
<polygon fill="white" stroke="black" points="656.125,-67.5 656.125,-97.5 798.125,-97.5 798.125,-67.5 656.125,-67.5"/>
<text text-anchor="start" x="664.125" y="-85.5" font-family="Helvetica,sans-Serif" font-size="10.00">DwarfElephantRBStructures</text>
<text text-anchor="middle" x="727.125" y="-74.5" font-family="Helvetica,sans-Serif" font-size="10.00">A0ThetaNormMu0.h</text>
</a>
</g>
</g>
<!-- Node1&#45;&gt;Node6 -->
<g id="edge9" class="edge"><title>Node1&#45;&gt;Node6</title>
<path fill="none" stroke="midnightblue" d="M1054.98,-141.503C992.389,-130.631 899.061,-114.351 808.148,-98.1766"/>
<polygon fill="midnightblue" stroke="midnightblue" points="808.68,-94.7163 798.221,-96.4092 807.453,-101.608 808.68,-94.7163"/>
</g>
<!-- Node7 -->
<g id="node7" class="node"><title>Node7</title>
<g id="a_node7"><a xlink:href="_dwarf_elephant_r_b_structures_a0_theta_norm_mu1_8h.html" target="_top" xlink:title="DwarfElephantRBStructures\lA0ThetaNormMu1.h">
<polygon fill="white" stroke="black" points="816.125,-67.5 816.125,-97.5 958.125,-97.5 958.125,-67.5 816.125,-67.5"/>
<text text-anchor="start" x="824.125" y="-85.5" font-family="Helvetica,sans-Serif" font-size="10.00">DwarfElephantRBStructures</text>
<text text-anchor="middle" x="887.125" y="-74.5" font-family="Helvetica,sans-Serif" font-size="10.00">A0ThetaNormMu1.h</text>
</a>
</g>
</g>
<!-- Node1&#45;&gt;Node7 -->
<g id="edge12" class="edge"><title>Node1&#45;&gt;Node7</title>
<path fill="none" stroke="midnightblue" d="M1060.59,-134.455C1024.35,-123.811 979.941,-110.765 945.126,-100.538"/>
<polygon fill="midnightblue" stroke="midnightblue" points="945.695,-97.0572 935.114,-97.5968 943.722,-103.773 945.695,-97.0572"/>
</g>
<!-- Node8 -->
<g id="node8" class="node"><title>Node8</title>
<g id="a_node8"><a xlink:href="_dwarf_elephant_r_b_structures_a1_theta_equal_mu1_8h.html" target="_top" xlink:title="DwarfElephantRBStructures\lA1ThetaEqualMu1.h">
<polygon fill="white" stroke="black" points="976.125,-67.5 976.125,-97.5 1118.13,-97.5 1118.13,-67.5 976.125,-67.5"/>
<text text-anchor="start" x="984.125" y="-85.5" font-family="Helvetica,sans-Serif" font-size="10.00">DwarfElephantRBStructures</text>
<text text-anchor="middle" x="1047.13" y="-74.5" font-family="Helvetica,sans-Serif" font-size="10.00">A1ThetaEqualMu1.h</text>
</a>
</g>
</g>
<!-- Node1&#45;&gt;Node8 -->
<g id="edge15" class="edge"><title>Node1&#45;&gt;Node8</title>
<path fill="none" stroke="midnightblue" d="M1104.84,-134.362C1094.3,-125.076 1081.71,-113.979 1070.98,-104.524"/>
<polygon fill="midnightblue" stroke="midnightblue" points="1073.02,-101.656 1063.2,-97.67 1068.39,-106.907 1073.02,-101.656"/>
</g>
<!-- Node9 -->
<g id="node9" class="node"><title>Node9</title>
<g id="a_node9"><a xlink:href="_dwarf_elephant_r_b_structures_a1_theta_norm_mu0_8h.html" target="_top" xlink:title="DwarfElephantRBStructures\lA1ThetaNormMu0.h">
<polygon fill="white" stroke="black" points="1136.13,-67.5 1136.13,-97.5 1278.13,-97.5 1278.13,-67.5 1136.13,-67.5"/>
<text text-anchor="start" x="1144.13" y="-85.5" font-family="Helvetica,sans-Serif" font-size="10.00">DwarfElephantRBStructures</text>
<text text-anchor="middle" x="1207.13" y="-74.5" font-family="Helvetica,sans-Serif" font-size="10.00">A1ThetaNormMu0.h</text>
</a>
</g>
</g>
<!-- Node1&#45;&gt;Node9 -->
<g id="edge18" class="edge"><title>Node1&#45;&gt;Node9</title>
<path fill="none" stroke="midnightblue" d="M1149.41,-134.362C1159.95,-125.076 1172.54,-113.979 1183.27,-104.524"/>
<polygon fill="midnightblue" stroke="midnightblue" points="1185.86,-106.907 1191.05,-97.67 1181.23,-101.656 1185.86,-106.907"/>
</g>
<!-- Node10 -->
<g id="node10" class="node"><title>Node10</title>
<g id="a_node10"><a xlink:href="_dwarf_elephant_r_b_structures_a1_theta_norm_mu1_8h.html" target="_top" xlink:title="DwarfElephantRBStructures\lA1ThetaNormMu1.h">
<polygon fill="white" stroke="black" points="1296.13,-67.5 1296.13,-97.5 1438.13,-97.5 1438.13,-67.5 1296.13,-67.5"/>
<text text-anchor="start" x="1304.13" y="-85.5" font-family="Helvetica,sans-Serif" font-size="10.00">DwarfElephantRBStructures</text>
<text text-anchor="middle" x="1367.13" y="-74.5" font-family="Helvetica,sans-Serif" font-size="10.00">A1ThetaNormMu1.h</text>
</a>
</g>
</g>
<!-- Node1&#45;&gt;Node10 -->
<g id="edge21" class="edge"><title>Node1&#45;&gt;Node10</title>
<path fill="none" stroke="midnightblue" d="M1193.66,-134.455C1229.9,-123.811 1274.31,-110.765 1309.12,-100.538"/>
<polygon fill="midnightblue" stroke="midnightblue" points="1310.53,-103.773 1319.14,-97.5968 1308.55,-97.0572 1310.53,-103.773"/>
</g>
<!-- Node11 -->
<g id="node11" class="node"><title>Node11</title>
<g id="a_node11"><a xlink:href="_dwarf_elephant_r_b_structures_a2_theta_equal_mu2_8h.html" target="_top" xlink:title="DwarfElephantRBStructures\lA2ThetaEqualMu2.h">
<polygon fill="white" stroke="black" points="1456.13,-67.5 1456.13,-97.5 1598.13,-97.5 1598.13,-67.5 1456.13,-67.5"/>
<text text-anchor="start" x="1464.13" y="-85.5" font-family="Helvetica,sans-Serif" font-size="10.00">DwarfElephantRBStructures</text>
<text text-anchor="middle" x="1527.13" y="-74.5" font-family="Helvetica,sans-Serif" font-size="10.00">A2ThetaEqualMu2.h</text>
</a>
</g>
</g>
<!-- Node1&#45;&gt;Node11 -->
<g id="edge24" class="edge"><title>Node1&#45;&gt;Node11</title>
<path fill="none" stroke="midnightblue" d="M1199.27,-141.503C1261.86,-130.631 1355.19,-114.351 1446.1,-98.1766"/>
<polygon fill="midnightblue" stroke="midnightblue" points="1446.8,-101.608 1456.03,-96.4092 1445.57,-94.7163 1446.8,-101.608"/>
</g>
<!-- Node12 -->
<g id="node12" class="node"><title>Node12</title>
<g id="a_node12"><a xlink:href="_dwarf_elephant_r_b_structures_a2_theta_norm_mu0_8h.html" target="_top" xlink:title="DwarfElephantRBStructures\lA2ThetaNormMu0.h">
<polygon fill="white" stroke="black" points="1616.13,-67.5 1616.13,-97.5 1758.13,-97.5 1758.13,-67.5 1616.13,-67.5"/>
<text text-anchor="start" x="1624.13" y="-85.5" font-family="Helvetica,sans-Serif" font-size="10.00">DwarfElephantRBStructures</text>
<text text-anchor="middle" x="1687.13" y="-74.5" font-family="Helvetica,sans-Serif" font-size="10.00">A2ThetaNormMu0.h</text>
</a>
</g>
</g>
<!-- Node1&#45;&gt;Node12 -->
<g id="edge27" class="edge"><title>Node1&#45;&gt;Node12</title>
<path fill="none" stroke="midnightblue" d="M1199.28,-147.017C1291.25,-137.795 1455.36,-120.266 1605.72,-98.1519"/>
<polygon fill="midnightblue" stroke="midnightblue" points="1606.68,-101.548 1616.06,-96.6204 1605.66,-94.6231 1606.68,-101.548"/>
</g>
<!-- Node13 -->
<g id="node13" class="node"><title>Node13</title>
<g id="a_node13"><a xlink:href="_dwarf_elephant_r_b_structures_a2_theta_norm_mu1_8h.html" target="_top" xlink:title="DwarfElephantRBStructures\lA2ThetaNormMu1.h">
<polygon fill="white" stroke="black" points="1776.13,-67.5 1776.13,-97.5 1918.13,-97.5 1918.13,-67.5 1776.13,-67.5"/>
<text text-anchor="start" x="1784.13" y="-85.5" font-family="Helvetica,sans-Serif" font-size="10.00">DwarfElephantRBStructures</text>
<text text-anchor="middle" x="1847.13" y="-74.5" font-family="Helvetica,sans-Serif" font-size="10.00">A2ThetaNormMu1.h</text>
</a>
</g>
</g>
<!-- Node1&#45;&gt;Node13 -->
<g id="edge30" class="edge"><title>Node1&#45;&gt;Node13</title>
<path fill="none" stroke="midnightblue" d="M1199.35,-149.854C1316.29,-142.662 1554.47,-126.027 1766.03,-98.0674"/>
<polygon fill="midnightblue" stroke="midnightblue" points="1766.63,-101.518 1776.08,-96.7274 1765.7,-94.5794 1766.63,-101.518"/>
</g>
<!-- Node14 -->
<g id="node14" class="node"><title>Node14</title>
<g id="a_node14"><a xlink:href="_dwarf_elephant_r_b_structures_a3_theta_equal_mu3_8h.html" target="_top" xlink:title="DwarfElephantRBStructures\lA3ThetaEqualMu3.h">
<polygon fill="white" stroke="black" points="1936.13,-67.5 1936.13,-97.5 2078.13,-97.5 2078.13,-67.5 1936.13,-67.5"/>
<text text-anchor="start" x="1944.13" y="-85.5" font-family="Helvetica,sans-Serif" font-size="10.00">DwarfElephantRBStructures</text>
<text text-anchor="middle" x="2007.13" y="-74.5" font-family="Helvetica,sans-Serif" font-size="10.00">A3ThetaEqualMu3.h</text>
</a>
</g>
</g>
<!-- Node1&#45;&gt;Node14 -->
<g id="edge33" class="edge"><title>Node1&#45;&gt;Node14</title>
<path fill="none" stroke="midnightblue" d="M1199.37,-151.593C1338.24,-146.387 1652.19,-131.82 1925.96,-98.0527"/>
<polygon fill="midnightblue" stroke="midnightblue" points="1926.6,-101.5 1936.09,-96.7921 1925.73,-94.5538 1926.6,-101.5"/>
</g>
<!-- Node15 -->
<g id="node15" class="node"><title>Node15</title>
<g id="a_node15"><a xlink:href="_dwarf_elephant_r_b_structures_a4_theta_equal_mu4_8h.html" target="_top" xlink:title="DwarfElephantRBStructures\lA4ThetaEqualMu4.h">
<polygon fill="white" stroke="black" points="2096.13,-67.5 2096.13,-97.5 2238.13,-97.5 2238.13,-67.5 2096.13,-67.5"/>
<text text-anchor="start" x="2104.13" y="-85.5" font-family="Helvetica,sans-Serif" font-size="10.00">DwarfElephantRBStructures</text>
<text text-anchor="middle" x="2167.13" y="-74.5" font-family="Helvetica,sans-Serif" font-size="10.00">A4ThetaEqualMu4.h</text>
</a>
</g>
</g>
<!-- Node1&#45;&gt;Node15 -->
<g id="edge36" class="edge"><title>Node1&#45;&gt;Node15</title>
<path fill="none" stroke="midnightblue" d="M1199.34,-152.77C1358.06,-149.419 1749.29,-137.629 2086.14,-98.0154"/>
<polygon fill="midnightblue" stroke="midnightblue" points="2086.57,-101.489 2096.09,-96.8353 2085.75,-94.5376 2086.57,-101.489"/>
</g>
<!-- Node16 -->
<g id="node16" class="node"><title>Node16</title>
<g id="a_node16"><a xlink:href="_dwarf_elephant_r_b_structures_a5_theta_equal_mu5_8h.html" target="_top" xlink:title="DwarfElephantRBStructures\lA5ThetaEqualMu5.h">
<polygon fill="white" stroke="black" points="16.1251,-67.5 16.1251,-97.5 158.125,-97.5 158.125,-67.5 16.1251,-67.5"/>
<text text-anchor="start" x="24.1251" y="-85.5" font-family="Helvetica,sans-Serif" font-size="10.00">DwarfElephantRBStructures</text>
<text text-anchor="middle" x="87.1251" y="-74.5" font-family="Helvetica,sans-Serif" font-size="10.00">A5ThetaEqualMu5.h</text>
</a>
</g>
</g>
<!-- Node1&#45;&gt;Node16 -->
<g id="edge39" class="edge"><title>Node1&#45;&gt;Node16</title>
<path fill="none" stroke="midnightblue" d="M1054.91,-152.77C896.186,-149.419 504.961,-137.629 168.108,-98.0154"/>
<polygon fill="midnightblue" stroke="midnightblue" points="168.5,-94.5376 158.158,-96.8353 167.676,-101.489 168.5,-94.5376"/>
</g>
<!-- Node17 -->
<g id="node17" class="node"><title>Node17</title>
<g id="a_node17"><a xlink:href="_dwarf_elephant_r_b_structures_a6_theta_equal_mu6_8h.html" target="_top" xlink:title="DwarfElephantRBStructures\lA6ThetaEqualMu6.h">
<polygon fill="white" stroke="black" points="176.125,-67.5 176.125,-97.5 318.125,-97.5 318.125,-67.5 176.125,-67.5"/>
<text text-anchor="start" x="184.125" y="-85.5" font-family="Helvetica,sans-Serif" font-size="10.00">DwarfElephantRBStructures</text>
<text text-anchor="middle" x="247.125" y="-74.5" font-family="Helvetica,sans-Serif" font-size="10.00">A6ThetaEqualMu6.h</text>
</a>
</g>
</g>
<!-- Node1&#45;&gt;Node17 -->
<g id="edge42" class="edge"><title>Node1&#45;&gt;Node17</title>
<path fill="none" stroke="midnightblue" d="M1054.89,-151.593C916.013,-146.387 602.058,-131.82 328.294,-98.0527"/>
<polygon fill="midnightblue" stroke="midnightblue" points="328.519,-94.5538 318.163,-96.7921 327.654,-101.5 328.519,-94.5538"/>
</g>
<!-- Node4&#45;&gt;Node2 -->
<g id="edge4" class="edge"><title>Node4&#45;&gt;Node2</title>
<path fill="none" stroke="midnightblue" d="M478.173,-68.2824C481.194,-67.828 484.188,-67.3978 487.125,-67 668.557,-42.4271 884.732,-26.7537 987.352,-20.1295"/>
<polygon fill="midnightblue" stroke="midnightblue" points="987.761,-23.6105 997.517,-19.479 987.314,-16.6248 987.761,-23.6105"/>
</g>
<!-- Node4&#45;&gt;Node3 -->
<g id="edge5" class="edge"><title>Node4&#45;&gt;Node3</title>
<path fill="none" stroke="midnightblue" d="M478.158,-68.1641C481.183,-67.742 484.182,-67.351 487.125,-67 760.762,-34.3664 831.935,-58.6053 1106.13,-31 1117.64,-29.8403 1129.86,-28.3276 1141.68,-26.7179"/>
<polygon fill="midnightblue" stroke="midnightblue" points="1142.51,-30.136 1151.93,-25.2847 1141.54,-23.2035 1142.51,-30.136"/>
</g>
<!-- Node5&#45;&gt;Node2 -->
<g id="edge7" class="edge"><title>Node5&#45;&gt;Node2</title>
<path fill="none" stroke="midnightblue" d="M638.192,-68.4146C641.208,-67.924 644.195,-67.4501 647.125,-67 767.464,-48.5116 908.937,-31.8335 987.269,-23.041"/>
<polygon fill="midnightblue" stroke="midnightblue" points="987.881,-26.4944 997.43,-21.9049 987.103,-19.5378 987.881,-26.4944"/>
</g>
<!-- Node5&#45;&gt;Node3 -->
<g id="edge8" class="edge"><title>Node5&#45;&gt;Node3</title>
<path fill="none" stroke="midnightblue" d="M638.167,-68.2391C641.19,-67.7965 644.185,-67.3807 647.125,-67 850.057,-40.7195 902.745,-53.5511 1106.13,-31 1117.63,-29.7241 1129.85,-28.1546 1141.66,-26.5246"/>
<polygon fill="midnightblue" stroke="midnightblue" points="1142.49,-29.942 1151.9,-25.0825 1141.51,-23.0103 1142.49,-29.942"/>
</g>
<!-- Node6&#45;&gt;Node2 -->
<g id="edge10" class="edge"><title>Node6&#45;&gt;Node2</title>
<path fill="none" stroke="midnightblue" d="M796.166,-67.476C855.889,-55.3449 940.93,-38.0709 995.07,-27.0737"/>
<polygon fill="midnightblue" stroke="midnightblue" points="996.035,-30.4493 1005.14,-25.0287 994.641,-23.5894 996.035,-30.4493"/>
</g>
<!-- Node6&#45;&gt;Node3 -->
<g id="edge11" class="edge"><title>Node6&#45;&gt;Node3</title>
<path fill="none" stroke="midnightblue" d="M798.189,-68.3933C801.205,-67.9085 804.194,-67.4417 807.125,-67 939.479,-47.0556 973.427,-48.5116 1106.13,-31 1117.79,-29.461 1130.2,-27.7447 1142.18,-26.0467"/>
<polygon fill="midnightblue" stroke="midnightblue" points="1142.71,-29.5061 1152.12,-24.629 1141.72,-22.5763 1142.71,-29.5061"/>
</g>
<!-- Node7&#45;&gt;Node2 -->
<g id="edge13" class="edge"><title>Node7&#45;&gt;Node2</title>
<path fill="none" stroke="midnightblue" d="M921.843,-67.396C950.165,-55.8901 989.778,-39.7974 1016.83,-28.8072"/>
<polygon fill="midnightblue" stroke="midnightblue" points="1018.24,-32.0135 1026.18,-25.007 1015.6,-25.5282 1018.24,-32.0135"/>
</g>
<!-- Node7&#45;&gt;Node3 -->
<g id="edge14" class="edge"><title>Node7&#45;&gt;Node3</title>
<path fill="none" stroke="midnightblue" d="M956.166,-67.476C1011.34,-56.2683 1088.13,-40.6709 1142.19,-29.689"/>
<polygon fill="midnightblue" stroke="midnightblue" points="1142.91,-33.1149 1152.01,-27.6943 1141.52,-26.255 1142.91,-33.1149"/>
</g>
<!-- Node8&#45;&gt;Node2 -->
<g id="edge16" class="edge"><title>Node8&#45;&gt;Node2</title>
<path fill="none" stroke="midnightblue" d="M1047.13,-67.396C1047.13,-58.0638 1047.13,-45.7143 1047.13,-35.5173"/>
<polygon fill="midnightblue" stroke="midnightblue" points="1050.63,-35.1945 1047.13,-25.1945 1043.63,-35.1946 1050.63,-35.1945"/>
</g>
<!-- Node8&#45;&gt;Node3 -->
<g id="edge17" class="edge"><title>Node8&#45;&gt;Node3</title>
<path fill="none" stroke="midnightblue" d="M1081.84,-67.396C1105.64,-57.7284 1137.41,-44.8226 1163,-34.4262"/>
<polygon fill="midnightblue" stroke="midnightblue" points="1164.53,-37.583 1172.48,-30.5765 1161.89,-31.0977 1164.53,-37.583"/>
</g>
<!-- Node9&#45;&gt;Node2 -->
<g id="edge19" class="edge"><title>Node9&#45;&gt;Node2</title>
<path fill="none" stroke="midnightblue" d="M1172.41,-67.396C1144.09,-55.8901 1104.47,-39.7974 1077.42,-28.8072"/>
<polygon fill="midnightblue" stroke="midnightblue" points="1078.65,-25.5282 1068.07,-25.007 1076.01,-32.0135 1078.65,-25.5282"/>
</g>
<!-- Node9&#45;&gt;Node3 -->
<g id="edge20" class="edge"><title>Node9&#45;&gt;Node3</title>
<path fill="none" stroke="midnightblue" d="M1207.13,-67.396C1207.13,-59.6448 1207.13,-49.8122 1207.13,-40.8601"/>
<polygon fill="midnightblue" stroke="midnightblue" points="1210.63,-40.5765 1207.13,-30.5765 1203.63,-40.5765 1210.63,-40.5765"/>
</g>
<!-- Node10&#45;&gt;Node2 -->
<g id="edge22" class="edge"><title>Node10&#45;&gt;Node2</title>
<path fill="none" stroke="midnightblue" d="M1298.08,-67.476C1238.36,-55.3449 1153.32,-38.0709 1099.18,-27.0737"/>
<polygon fill="midnightblue" stroke="midnightblue" points="1099.61,-23.5894 1089.11,-25.0287 1098.22,-30.4493 1099.61,-23.5894"/>
</g>
<!-- Node10&#45;&gt;Node3 -->
<g id="edge23" class="edge"><title>Node10&#45;&gt;Node3</title>
<path fill="none" stroke="midnightblue" d="M1332.41,-67.396C1308.61,-57.7284 1276.84,-44.8226 1251.25,-34.4262"/>
<polygon fill="midnightblue" stroke="midnightblue" points="1252.36,-31.0977 1241.77,-30.5765 1249.72,-37.583 1252.36,-31.0977"/>
</g>
<!-- Node11&#45;&gt;Node2 -->
<g id="edge25" class="edge"><title>Node11&#45;&gt;Node2</title>
<path fill="none" stroke="midnightblue" d="M1456.06,-68.3861C1453.05,-67.9032 1450.06,-67.4388 1447.13,-67 1312.57,-46.8582 1277.96,-49.1621 1143.13,-31 1131.38,-29.4179 1118.84,-27.6111 1106.84,-25.8222"/>
<polygon fill="midnightblue" stroke="midnightblue" points="1107.32,-22.3549 1096.91,-24.3292 1106.28,-29.2771 1107.32,-22.3549"/>
</g>
<!-- Node11&#45;&gt;Node3 -->
<g id="edge26" class="edge"><title>Node11&#45;&gt;Node3</title>
<path fill="none" stroke="midnightblue" d="M1458.08,-67.476C1402.91,-56.2683 1326.12,-40.6709 1272.06,-29.689"/>
<polygon fill="midnightblue" stroke="midnightblue" points="1272.73,-26.255 1262.24,-27.6943 1271.34,-33.1149 1272.73,-26.255"/>
</g>
<!-- Node12&#45;&gt;Node2 -->
<g id="edge28" class="edge"><title>Node12&#45;&gt;Node2</title>
<path fill="none" stroke="midnightblue" d="M1616.08,-68.236C1613.06,-67.7942 1610.06,-67.3795 1607.13,-67 1401.99,-40.5211 1348.63,-54.4611 1143.13,-31 1131.35,-29.6557 1118.8,-27.956 1106.79,-26.1976"/>
<polygon fill="midnightblue" stroke="midnightblue" points="1107.27,-22.7299 1096.86,-24.7132 1106.23,-29.653 1107.27,-22.7299"/>
</g>
<!-- Node12&#45;&gt;Node3 -->
<g id="edge29" class="edge"><title>Node12&#45;&gt;Node3</title>
<path fill="none" stroke="midnightblue" d="M1616.06,-68.4146C1613.04,-67.924 1610.05,-67.4501 1607.13,-67 1489.6,-48.9439 1351.92,-32.6145 1272.58,-23.6706"/>
<polygon fill="midnightblue" stroke="midnightblue" points="1272.58,-20.1489 1262.25,-22.5111 1271.8,-27.1052 1272.58,-20.1489"/>
</g>
<!-- Node13&#45;&gt;Node2 -->
<g id="edge31" class="edge"><title>Node13&#45;&gt;Node2</title>
<path fill="none" stroke="midnightblue" d="M1776.09,-68.1624C1773.07,-67.7408 1770.07,-67.3503 1767.13,-67 1491.28,-34.1677 1419.43,-59.7746 1143.13,-31 1131.34,-29.7724 1118.78,-28.1253 1106.77,-26.3817"/>
<polygon fill="midnightblue" stroke="midnightblue" points="1107.25,-22.9138 1096.84,-24.9015 1106.21,-29.8374 1107.25,-22.9138"/>
</g>
<!-- Node13&#45;&gt;Node3 -->
<g id="edge32" class="edge"><title>Node13&#45;&gt;Node3</title>
<path fill="none" stroke="midnightblue" d="M1776.08,-68.2824C1773.06,-67.828 1770.06,-67.3978 1767.13,-67 1588.79,-42.8461 1376.88,-27.2907 1272.25,-20.4762"/>
<polygon fill="midnightblue" stroke="midnightblue" points="1272.36,-16.9763 1262.15,-19.8245 1271.91,-23.9618 1272.36,-16.9763"/>
</g>
<!-- Node14&#45;&gt;Node2 -->
<g id="edge34" class="edge"><title>Node14&#45;&gt;Node2</title>
<path fill="none" stroke="midnightblue" d="M1936.1,-68.1187C1933.07,-67.709 1930.07,-67.333 1927.13,-67 1580.52,-27.8086 1490.27,-65.0932 1143.13,-31 1131.33,-29.8416 1118.77,-28.2257 1106.76,-26.491"/>
<polygon fill="midnightblue" stroke="midnightblue" points="1107.23,-23.023 1096.83,-25.0133 1106.2,-29.9468 1107.23,-23.023"/>
</g>
<!-- Node14&#45;&gt;Node3 -->
<g id="edge35" class="edge"><title>Node14&#45;&gt;Node3</title>
<path fill="none" stroke="midnightblue" d="M1936.09,-68.2085C1933.06,-67.7742 1930.07,-67.3686 1927.13,-67 1687.07,-36.9177 1399.57,-23.4865 1272.74,-18.701"/>
<polygon fill="midnightblue" stroke="midnightblue" points="1272.55,-15.1917 1262.43,-18.3177 1272.29,-22.1868 1272.55,-15.1917"/>
</g>
<!-- Node15&#45;&gt;Node2 -->
<g id="edge37" class="edge"><title>Node15&#45;&gt;Node2</title>
<path fill="none" stroke="midnightblue" d="M2096.1,-68.0897C2093.07,-67.688 2090.07,-67.3216 2087.13,-67 1669.74,-21.4467 1561.13,-70.4142 1143.13,-31 1131.19,-29.8751 1118.49,-28.2567 1106.35,-26.5056"/>
<polygon fill="midnightblue" stroke="midnightblue" points="1106.73,-23.0236 1096.33,-25.0115 1105.7,-29.9472 1106.73,-23.0236"/>
</g>
<!-- Node15&#45;&gt;Node3 -->
<g id="edge38" class="edge"><title>Node15&#45;&gt;Node3</title>
<path fill="none" stroke="midnightblue" d="M2096.09,-68.1612C2093.07,-67.7399 2090.07,-67.3499 2087.13,-67 1783.84,-30.9486 1418.57,-20.4156 1272.31,-17.5241"/>
<polygon fill="midnightblue" stroke="midnightblue" points="1272.23,-14.022 1262.16,-17.3289 1272.09,-21.0207 1272.23,-14.022"/>
</g>
<!-- Node16&#45;&gt;Node2 -->
<g id="edge40" class="edge"><title>Node16&#45;&gt;Node2</title>
<path fill="none" stroke="midnightblue" d="M158.157,-68.1612C161.183,-67.7399 164.182,-67.3499 167.125,-67 474.001,-30.522 844.331,-20.17 987.038,-17.4247"/>
<polygon fill="midnightblue" stroke="midnightblue" points="987.387,-20.9189 997.32,-17.2326 987.256,-13.9201 987.387,-20.9189"/>
</g>
<!-- Node16&#45;&gt;Node3 -->
<g id="edge41" class="edge"><title>Node16&#45;&gt;Node3</title>
<path fill="none" stroke="midnightblue" d="M158.149,-68.0905C161.177,-67.6886 164.178,-67.3219 167.125,-67 582.295,-21.6455 690.193,-68.7261 1106.13,-31 1117.66,-29.9542 1129.88,-28.4973 1141.7,-26.9074"/>
<polygon fill="midnightblue" stroke="midnightblue" points="1142.52,-30.3264 1151.94,-25.483 1141.56,-23.393 1142.52,-30.3264"/>
</g>
<!-- Node17&#45;&gt;Node2 -->
<g id="edge43" class="edge"><title>Node17&#45;&gt;Node2</title>
<path fill="none" stroke="midnightblue" d="M318.163,-68.2085C321.187,-67.7742 324.184,-67.3686 327.125,-67 571.111,-36.4252 864.105,-23.0511 987.613,-18.4729"/>
<polygon fill="midnightblue" stroke="midnightblue" points="987.758,-21.97 997.623,-18.1074 987.502,-14.9747 987.758,-21.97"/>
</g>
<!-- Node17&#45;&gt;Node3 -->
<g id="edge44" class="edge"><title>Node17&#45;&gt;Node3</title>
<path fill="none" stroke="midnightblue" d="M318.153,-68.1197C321.179,-67.7098 324.18,-67.3335 327.125,-67 671.516,-28.0073 761.076,-63.6646 1106.13,-31 1117.65,-29.9089 1129.87,-28.4298 1141.69,-26.8321"/>
<polygon fill="midnightblue" stroke="midnightblue" points="1142.52,-30.2507 1151.94,-25.4041 1141.55,-23.3177 1142.52,-30.2507"/>
</g>
</g>
</svg>
