<?xml version="1.0" encoding="UTF-8" standalone="no"?>
<!DOCTYPE svg PUBLIC "-//W3C//DTD SVG 1.1//EN"
 "http://www.w3.org/Graphics/SVG/1.1/DTD/svg11.dtd">
<!-- Generated by graphviz version 2.38.0 (20140413.2041)
 -->
<!-- Title: include/userobjects/DwarfElephantRBStructuresT3F3O10SteadyState.h Pages: 1 -->
<svg width="2154pt" height="184pt"
 viewBox="0.00 0.00 2154.23 184.00" xmlns="http://www.w3.org/2000/svg" xmlns:xlink="http://www.w3.org/1999/xlink">
<g id="graph0" class="graph" transform="scale(1 1) rotate(0) translate(4 180)">
<title>include/userobjects/DwarfElephantRBStructuresT3F3O10SteadyState.h</title>
<polygon fill="white" stroke="none" points="-4,4 -4,-180 2150.23,-180 2150.23,4 -4,4"/>
<!-- Node1 -->
<g id="node1" class="node"><title>Node1</title>
<polygon fill="#bfbfbf" stroke="black" points="1015.12,-134.5 1015.12,-175.5 1159.12,-175.5 1159.12,-134.5 1015.12,-134.5"/>
<text text-anchor="start" x="1023.12" y="-163.5" font-family="Helvetica,sans-Serif" font-size="10.00">include/userobjects</text>
<text text-anchor="start" x="1023.12" y="-152.5" font-family="Helvetica,sans-Serif" font-size="10.00">/DwarfElephantRBStructures</text>
<text text-anchor="middle" x="1087.12" y="-141.5" font-family="Helvetica,sans-Serif" font-size="10.00">T3F3O10SteadyState.h</text>
</g>
<!-- Node2 -->
<g id="node2" class="node"><title>Node2</title>
<polygon fill="white" stroke="#bfbfbf" points="935.616,-6 935.616,-25 1034.62,-25 1034.62,-6 935.616,-6"/>
<text text-anchor="middle" x="985.116" y="-13" font-family="Helvetica,sans-Serif" font-size="10.00">libmesh/rb_theta.h</text>
</g>
<!-- Node1&#45;&gt;Node2 -->
<g id="edge1" class="edge"><title>Node1&#45;&gt;Node2</title>
<path fill="none" stroke="midnightblue" d="M1014.73,-152.954C778.293,-149.186 41.8185,-134.549 7.11555,-98 -2.37122,-88.0086 -2.3723,-76.9904 7.11555,-67 38.832,-33.6036 717.728,-20.56 925.336,-17.3433"/>
<polygon fill="midnightblue" stroke="midnightblue" points="925.497,-20.8413 935.442,-17.1887 925.39,-13.8421 925.497,-20.8413"/>
</g>
<!-- Node3 -->
<g id="node3" class="node"><title>Node3</title>
<polygon fill="white" stroke="#bfbfbf" points="1112.12,-0.5 1112.12,-30.5 1222.12,-30.5 1222.12,-0.5 1112.12,-0.5"/>
<text text-anchor="start" x="1120.12" y="-18.5" font-family="Helvetica,sans-Serif" font-size="10.00">libmesh/rb_assembly</text>
<text text-anchor="middle" x="1167.12" y="-7.5" font-family="Helvetica,sans-Serif" font-size="10.00">_expansion.h</text>
</g>
<!-- Node1&#45;&gt;Node3 -->
<g id="edge2" class="edge"><title>Node1&#45;&gt;Node3</title>
<path fill="none" stroke="midnightblue" d="M1159.24,-152.854C1391.28,-148.817 2105.41,-133.544 2139.12,-98 2148.6,-88.0021 2148.6,-76.9919 2139.12,-67 2107.89,-34.1067 1445.16,-20.8641 1232.31,-17.4495"/>
<polygon fill="midnightblue" stroke="midnightblue" points="1232.27,-13.9485 1222.22,-17.2896 1232.16,-20.9477 1232.27,-13.9485"/>
</g>
<!-- Node4 -->
<g id="node4" class="node"><title>Node4</title>
<g id="a_node4"><a xlink:href="_dwarf_elephant_r_b_structures_a00_theta_constant_8h.html" target="_top" xlink:title="DwarfElephantRBStructures\lA00ThetaConstant.h">
<polygon fill="white" stroke="black" points="176.116,-67.5 176.116,-97.5 318.116,-97.5 318.116,-67.5 176.116,-67.5"/>
<text text-anchor="start" x="184.116" y="-85.5" font-family="Helvetica,sans-Serif" font-size="10.00">DwarfElephantRBStructures</text>
<text text-anchor="middle" x="247.116" y="-74.5" font-family="Helvetica,sans-Serif" font-size="10.00">A00ThetaConstant.h</text>
</a>
</g>
</g>
<!-- Node1&#45;&gt;Node4 -->
<g id="edge3" class="edge"><title>Node1&#45;&gt;Node4</title>
<path fill="none" stroke="midnightblue" d="M1015.09,-151.233C881.544,-145.548 586.397,-130.38 328.1,-98.0347"/>
<polygon fill="midnightblue" stroke="midnightblue" points="328.515,-94.5593 318.155,-96.7784 327.638,-101.504 328.515,-94.5593"/>
</g>
<!-- Node5 -->
<g id="node5" class="node"><title>Node5</title>
<g id="a_node5"><a xlink:href="_dwarf_elephant_r_b_structures_a0_theta_equal_mu0_8h.html" target="_top" xlink:title="DwarfElephantRBStructures\lA0ThetaEqualMu0.h">
<polygon fill="white" stroke="black" points="336.116,-67.5 336.116,-97.5 478.116,-97.5 478.116,-67.5 336.116,-67.5"/>
<text text-anchor="start" x="344.116" y="-85.5" font-family="Helvetica,sans-Serif" font-size="10.00">DwarfElephantRBStructures</text>
<text text-anchor="middle" x="407.116" y="-74.5" font-family="Helvetica,sans-Serif" font-size="10.00">A0ThetaEqualMu0.h</text>
</a>
</g>
</g>
<!-- Node1&#45;&gt;Node5 -->
<g id="edge6" class="edge"><title>Node1&#45;&gt;Node5</title>
<path fill="none" stroke="midnightblue" d="M1014.97,-149.22C902.219,-141.307 677.509,-123.759 488.116,-98 488.014,-97.9862 487.912,-97.9723 487.81,-97.9584"/>
<polygon fill="midnightblue" stroke="midnightblue" points="488.578,-94.5329 478.18,-96.5694 487.578,-101.461 488.578,-94.5329"/>
</g>
<!-- Node6 -->
<g id="node6" class="node"><title>Node6</title>
<g id="a_node6"><a xlink:href="_dwarf_elephant_r_b_structures_a0_theta_equal_scalar_divided_by_mu0_8h.html" target="_top" xlink:title="DwarfElephantRBStructures\lA0ThetaEqualScalarDividedByMu0.h">
<polygon fill="white" stroke="black" points="496.616,-67.5 496.616,-97.5 677.616,-97.5 677.616,-67.5 496.616,-67.5"/>
<text text-anchor="start" x="504.616" y="-85.5" font-family="Helvetica,sans-Serif" font-size="10.00">DwarfElephantRBStructures</text>
<text text-anchor="middle" x="587.116" y="-74.5" font-family="Helvetica,sans-Serif" font-size="10.00">A0ThetaEqualScalarDividedByMu0.h</text>
</a>
</g>
</g>
<!-- Node1&#45;&gt;Node6 -->
<g id="edge9" class="edge"><title>Node1&#45;&gt;Node6</title>
<path fill="none" stroke="midnightblue" d="M1014.84,-143.99C936.908,-133.172 808.896,-115.331 688.038,-98.1275"/>
<polygon fill="midnightblue" stroke="midnightblue" points="688.257,-94.6234 677.864,-96.6783 687.27,-101.554 688.257,-94.6234"/>
</g>
<!-- Node7 -->
<g id="node7" class="node"><title>Node7</title>
<g id="a_node7"><a xlink:href="_dwarf_elephant_r_b_structures_a0_theta_norm_mu0_8h.html" target="_top" xlink:title="DwarfElephantRBStructures\lA0ThetaNormMu0.h">
<polygon fill="white" stroke="black" points="696.116,-67.5 696.116,-97.5 838.116,-97.5 838.116,-67.5 696.116,-67.5"/>
<text text-anchor="start" x="704.116" y="-85.5" font-family="Helvetica,sans-Serif" font-size="10.00">DwarfElephantRBStructures</text>
<text text-anchor="middle" x="767.116" y="-74.5" font-family="Helvetica,sans-Serif" font-size="10.00">A0ThetaNormMu0.h</text>
</a>
</g>
</g>
<!-- Node1&#45;&gt;Node7 -->
<g id="edge12" class="edge"><title>Node1&#45;&gt;Node7</title>
<path fill="none" stroke="midnightblue" d="M1014.9,-138.091C962.863,-126.626 892.879,-111.207 840.559,-99.6806"/>
<polygon fill="midnightblue" stroke="midnightblue" points="841.192,-96.2361 830.673,-97.5025 839.686,-103.072 841.192,-96.2361"/>
</g>
<!-- Node8 -->
<g id="node8" class="node"><title>Node8</title>
<g id="a_node8"><a xlink:href="_dwarf_elephant_r_b_structures_a0_theta_norm_mu1_8h.html" target="_top" xlink:title="DwarfElephantRBStructures\lA0ThetaNormMu1.h">
<polygon fill="white" stroke="black" points="856.116,-67.5 856.116,-97.5 998.116,-97.5 998.116,-67.5 856.116,-67.5"/>
<text text-anchor="start" x="864.116" y="-85.5" font-family="Helvetica,sans-Serif" font-size="10.00">DwarfElephantRBStructures</text>
<text text-anchor="middle" x="927.116" y="-74.5" font-family="Helvetica,sans-Serif" font-size="10.00">A0ThetaNormMu1.h</text>
</a>
</g>
</g>
<!-- Node1&#45;&gt;Node8 -->
<g id="edge15" class="edge"><title>Node1&#45;&gt;Node8</title>
<path fill="none" stroke="midnightblue" d="M1042.55,-134.362C1019.33,-124.13 991.115,-111.7 968.394,-101.689"/>
<polygon fill="midnightblue" stroke="midnightblue" points="969.586,-98.389 959.024,-97.5597 966.764,-104.795 969.586,-98.389"/>
</g>
<!-- Node9 -->
<g id="node9" class="node"><title>Node9</title>
<g id="a_node9"><a xlink:href="_dwarf_elephant_r_b_structures_a1_theta_equal_mu1_8h.html" target="_top" xlink:title="DwarfElephantRBStructures\lA1ThetaEqualMu1.h">
<polygon fill="white" stroke="black" points="1016.12,-67.5 1016.12,-97.5 1158.12,-97.5 1158.12,-67.5 1016.12,-67.5"/>
<text text-anchor="start" x="1024.12" y="-85.5" font-family="Helvetica,sans-Serif" font-size="10.00">DwarfElephantRBStructures</text>
<text text-anchor="middle" x="1087.12" y="-74.5" font-family="Helvetica,sans-Serif" font-size="10.00">A1ThetaEqualMu1.h</text>
</a>
</g>
</g>
<!-- Node1&#45;&gt;Node9 -->
<g id="edge18" class="edge"><title>Node1&#45;&gt;Node9</title>
<path fill="none" stroke="midnightblue" d="M1087.12,-134.362C1087.12,-126.226 1087.12,-116.7 1087.12,-108.105"/>
<polygon fill="midnightblue" stroke="midnightblue" points="1090.62,-107.892 1087.12,-97.8916 1083.62,-107.892 1090.62,-107.892"/>
</g>
<!-- Node10 -->
<g id="node10" class="node"><title>Node10</title>
<g id="a_node10"><a xlink:href="_dwarf_elephant_r_b_structures_a1_theta_norm_mu0_8h.html" target="_top" xlink:title="DwarfElephantRBStructures\lA1ThetaNormMu0.h">
<polygon fill="white" stroke="black" points="1176.12,-67.5 1176.12,-97.5 1318.12,-97.5 1318.12,-67.5 1176.12,-67.5"/>
<text text-anchor="start" x="1184.12" y="-85.5" font-family="Helvetica,sans-Serif" font-size="10.00">DwarfElephantRBStructures</text>
<text text-anchor="middle" x="1247.12" y="-74.5" font-family="Helvetica,sans-Serif" font-size="10.00">A1ThetaNormMu0.h</text>
</a>
</g>
</g>
<!-- Node1&#45;&gt;Node10 -->
<g id="edge21" class="edge"><title>Node1&#45;&gt;Node10</title>
<path fill="none" stroke="midnightblue" d="M1131.68,-134.362C1154.91,-124.13 1183.12,-111.7 1205.84,-101.689"/>
<polygon fill="midnightblue" stroke="midnightblue" points="1207.47,-104.795 1215.21,-97.5597 1204.64,-98.389 1207.47,-104.795"/>
</g>
<!-- Node11 -->
<g id="node11" class="node"><title>Node11</title>
<g id="a_node11"><a xlink:href="_dwarf_elephant_r_b_structures_a1_theta_norm_mu1_8h.html" target="_top" xlink:title="DwarfElephantRBStructures\lA1ThetaNormMu1.h">
<polygon fill="white" stroke="black" points="1336.12,-67.5 1336.12,-97.5 1478.12,-97.5 1478.12,-67.5 1336.12,-67.5"/>
<text text-anchor="start" x="1344.12" y="-85.5" font-family="Helvetica,sans-Serif" font-size="10.00">DwarfElephantRBStructures</text>
<text text-anchor="middle" x="1407.12" y="-74.5" font-family="Helvetica,sans-Serif" font-size="10.00">A1ThetaNormMu1.h</text>
</a>
</g>
</g>
<!-- Node1&#45;&gt;Node11 -->
<g id="edge24" class="edge"><title>Node1&#45;&gt;Node11</title>
<path fill="none" stroke="midnightblue" d="M1159.33,-138.091C1211.37,-126.626 1281.35,-111.207 1333.67,-99.6806"/>
<polygon fill="midnightblue" stroke="midnightblue" points="1334.55,-103.072 1343.56,-97.5025 1333.04,-96.2361 1334.55,-103.072"/>
</g>
<!-- Node12 -->
<g id="node12" class="node"><title>Node12</title>
<g id="a_node12"><a xlink:href="_dwarf_elephant_r_b_structures_a2_theta_equal_mu2_8h.html" target="_top" xlink:title="DwarfElephantRBStructures\lA2ThetaEqualMu2.h">
<polygon fill="white" stroke="black" points="1496.12,-67.5 1496.12,-97.5 1638.12,-97.5 1638.12,-67.5 1496.12,-67.5"/>
<text text-anchor="start" x="1504.12" y="-85.5" font-family="Helvetica,sans-Serif" font-size="10.00">DwarfElephantRBStructures</text>
<text text-anchor="middle" x="1567.12" y="-74.5" font-family="Helvetica,sans-Serif" font-size="10.00">A2ThetaEqualMu2.h</text>
</a>
</g>
</g>
<!-- Node1&#45;&gt;Node12 -->
<g id="edge27" class="edge"><title>Node1&#45;&gt;Node12</title>
<path fill="none" stroke="midnightblue" d="M1159.14,-144.803C1237.14,-134.643 1365.45,-117.348 1485.9,-98.1581"/>
<polygon fill="midnightblue" stroke="midnightblue" points="1486.72,-101.572 1496.04,-96.5354 1485.61,-94.6599 1486.72,-101.572"/>
</g>
<!-- Node13 -->
<g id="node13" class="node"><title>Node13</title>
<g id="a_node13"><a xlink:href="_dwarf_elephant_r_b_structures_a2_theta_equal_mu2_times_mu0_8h.html" target="_top" xlink:title="DwarfElephantRBStructures\lA2ThetaEqualMu2TimesMu0.h">
<polygon fill="white" stroke="black" points="1656.12,-67.5 1656.12,-97.5 1810.12,-97.5 1810.12,-67.5 1656.12,-67.5"/>
<text text-anchor="start" x="1664.12" y="-85.5" font-family="Helvetica,sans-Serif" font-size="10.00">DwarfElephantRBStructures</text>
<text text-anchor="middle" x="1733.12" y="-74.5" font-family="Helvetica,sans-Serif" font-size="10.00">A2ThetaEqualMu2TimesMu0.h</text>
</a>
</g>
</g>
<!-- Node1&#45;&gt;Node13 -->
<g id="edge30" class="edge"><title>Node1&#45;&gt;Node13</title>
<path fill="none" stroke="midnightblue" d="M1159.34,-148.343C1264.26,-139.778 1465.14,-122.071 1645.84,-98.1172"/>
<polygon fill="midnightblue" stroke="midnightblue" points="1646.35,-101.581 1655.8,-96.7888 1645.42,-94.6426 1646.35,-101.581"/>
</g>
<!-- Node14 -->
<g id="node14" class="node"><title>Node14</title>
<g id="a_node14"><a xlink:href="_dwarf_elephant_r_b_structures_a2_theta_norm_mu0_8h.html" target="_top" xlink:title="DwarfElephantRBStructures\lA2ThetaNormMu0.h">
<polygon fill="white" stroke="black" points="1828.12,-67.5 1828.12,-97.5 1970.12,-97.5 1970.12,-67.5 1828.12,-67.5"/>
<text text-anchor="start" x="1836.12" y="-85.5" font-family="Helvetica,sans-Serif" font-size="10.00">DwarfElephantRBStructures</text>
<text text-anchor="middle" x="1899.12" y="-74.5" font-family="Helvetica,sans-Serif" font-size="10.00">A2ThetaNormMu0.h</text>
</a>
</g>
</g>
<!-- Node1&#45;&gt;Node14 -->
<g id="edge33" class="edge"><title>Node1&#45;&gt;Node14</title>
<path fill="none" stroke="midnightblue" d="M1159.32,-150.945C1289.12,-144.911 1570.62,-129.365 1817.82,-98.0781"/>
<polygon fill="midnightblue" stroke="midnightblue" points="1818.6,-101.507 1828.07,-96.768 1817.71,-94.563 1818.6,-101.507"/>
</g>
<!-- Node15 -->
<g id="node15" class="node"><title>Node15</title>
<g id="a_node15"><a xlink:href="_dwarf_elephant_r_b_structures_a2_theta_norm_mu1_8h.html" target="_top" xlink:title="DwarfElephantRBStructures\lA2ThetaNormMu1.h">
<polygon fill="white" stroke="black" points="1988.12,-67.5 1988.12,-97.5 2130.12,-97.5 2130.12,-67.5 1988.12,-67.5"/>
<text text-anchor="start" x="1996.12" y="-85.5" font-family="Helvetica,sans-Serif" font-size="10.00">DwarfElephantRBStructures</text>
<text text-anchor="middle" x="2059.12" y="-74.5" font-family="Helvetica,sans-Serif" font-size="10.00">A2ThetaNormMu1.h</text>
</a>
</g>
</g>
<!-- Node1&#45;&gt;Node15 -->
<g id="edge36" class="edge"><title>Node1&#45;&gt;Node15</title>
<path fill="none" stroke="midnightblue" d="M1159.35,-152.319C1309.85,-148.197 1668.06,-135.158 1978,-98.0366"/>
<polygon fill="midnightblue" stroke="midnightblue" points="1978.57,-101.493 1988.08,-96.8188 1977.73,-94.5437 1978.57,-101.493"/>
</g>
<!-- Node16 -->
<g id="node16" class="node"><title>Node16</title>
<g id="a_node16"><a xlink:href="_dwarf_elephant_r_b_structures_a3_theta_equal_mu3_8h.html" target="_top" xlink:title="DwarfElephantRBStructures\lA3ThetaEqualMu3.h">
<polygon fill="white" stroke="black" points="16.1155,-67.5 16.1155,-97.5 158.116,-97.5 158.116,-67.5 16.1155,-67.5"/>
<text text-anchor="start" x="24.1155" y="-85.5" font-family="Helvetica,sans-Serif" font-size="10.00">DwarfElephantRBStructures</text>
<text text-anchor="middle" x="87.1155" y="-74.5" font-family="Helvetica,sans-Serif" font-size="10.00">A3ThetaEqualMu3.h</text>
</a>
</g>
</g>
<!-- Node1&#45;&gt;Node16 -->
<g id="edge39" class="edge"><title>Node1&#45;&gt;Node16</title>
<path fill="none" stroke="midnightblue" d="M1014.99,-152.515C861.114,-148.716 489.201,-136.181 168.112,-98.0202"/>
<polygon fill="midnightblue" stroke="midnightblue" points="168.495,-94.5411 158.149,-96.8259 167.662,-101.491 168.495,-94.5411"/>
</g>
<!-- Node4&#45;&gt;Node2 -->
<g id="edge4" class="edge"><title>Node4&#45;&gt;Node2</title>
<path fill="none" stroke="midnightblue" d="M318.157,-68.2329C321.18,-67.792 324.176,-67.3782 327.116,-67 546.625,-38.7594 809.513,-24.3843 925.332,-19.0293"/>
<polygon fill="midnightblue" stroke="midnightblue" points="925.582,-22.5216 935.412,-18.5689 925.263,-15.5289 925.582,-22.5216"/>
</g>
<!-- Node4&#45;&gt;Node3 -->
<g id="edge5" class="edge"><title>Node4&#45;&gt;Node3</title>
<path fill="none" stroke="midnightblue" d="M318.145,-68.1346C321.171,-67.7206 324.171,-67.3394 327.116,-67 644.086,-30.4719 726.166,-57.6926 1044.12,-31 1062.92,-29.4215 1083.28,-27.2215 1101.93,-25.0115"/>
<polygon fill="midnightblue" stroke="midnightblue" points="1102.58,-28.4583 1112.09,-23.7866 1101.74,-21.5087 1102.58,-28.4583"/>
</g>
<!-- Node5&#45;&gt;Node2 -->
<g id="edge7" class="edge"><title>Node5&#45;&gt;Node2</title>
<path fill="none" stroke="midnightblue" d="M478.185,-68.4631C481.538,-67.9469 484.862,-67.4559 488.116,-67 645.41,-44.9622 831.999,-28.6112 925.473,-21.0886"/>
<polygon fill="midnightblue" stroke="midnightblue" points="925.898,-24.5659 935.587,-20.2799 925.34,-17.5882 925.898,-24.5659"/>
</g>
<!-- Node5&#45;&gt;Node3 -->
<g id="edge8" class="edge"><title>Node5&#45;&gt;Node3</title>
<path fill="none" stroke="midnightblue" d="M478.165,-68.3149C481.524,-67.8384 484.854,-67.3963 488.116,-67 733.937,-37.1353 797.512,-53.5034 1044.12,-31 1062.91,-29.2854 1083.27,-27.0425 1101.91,-24.8351"/>
<polygon fill="midnightblue" stroke="midnightblue" points="1102.56,-28.2823 1112.07,-23.6159 1101.73,-21.3321 1102.56,-28.2823"/>
</g>
<!-- Node6&#45;&gt;Node2 -->
<g id="edge10" class="edge"><title>Node6&#45;&gt;Node2</title>
<path fill="none" stroke="midnightblue" d="M672.986,-67.476C749.17,-55.0338 858.48,-37.1817 925.475,-26.2403"/>
<polygon fill="midnightblue" stroke="midnightblue" points="926.143,-29.6777 935.448,-24.6116 925.014,-22.7692 926.143,-29.6777"/>
</g>
<!-- Node6&#45;&gt;Node3 -->
<g id="edge11" class="edge"><title>Node6&#45;&gt;Node3</title>
<path fill="none" stroke="midnightblue" d="M677.843,-68.1688C680.971,-67.7653 684.068,-67.3744 687.116,-67 845.397,-47.5534 885.589,-48.3357 1044.12,-31 1062.87,-28.9489 1083.22,-26.6003 1101.87,-24.3991"/>
<polygon fill="midnightblue" stroke="midnightblue" points="1102.51,-27.8472 1112.03,-23.1942 1101.69,-20.8959 1102.51,-27.8472"/>
</g>
<!-- Node7&#45;&gt;Node2 -->
<g id="edge13" class="edge"><title>Node7&#45;&gt;Node2</title>
<path fill="none" stroke="midnightblue" d="M814.15,-67.476C853.736,-55.6727 909.651,-39.0009 946.617,-27.9789"/>
<polygon fill="midnightblue" stroke="midnightblue" points="947.929,-31.2402 956.512,-25.0287 945.929,-24.532 947.929,-31.2402"/>
</g>
<!-- Node7&#45;&gt;Node3 -->
<g id="edge14" class="edge"><title>Node7&#45;&gt;Node3</title>
<path fill="none" stroke="midnightblue" d="M838.201,-68.5291C841.212,-68.0071 844.193,-67.4954 847.116,-67 935.15,-52.0775 1037.06,-36.242 1101.78,-26.3647"/>
<polygon fill="midnightblue" stroke="midnightblue" points="1102.48,-29.7983 1111.84,-24.8317 1101.43,-22.8782 1102.48,-29.7983"/>
</g>
<!-- Node8&#45;&gt;Node2 -->
<g id="edge16" class="edge"><title>Node8&#45;&gt;Node2</title>
<path fill="none" stroke="midnightblue" d="M939.701,-67.396C948.744,-57.2611 960.963,-43.5674 970.449,-32.9368"/>
<polygon fill="midnightblue" stroke="midnightblue" points="973.311,-34.9862 977.357,-25.1945 968.088,-30.3257 973.311,-34.9862"/>
</g>
<!-- Node8&#45;&gt;Node3 -->
<g id="edge17" class="edge"><title>Node8&#45;&gt;Node3</title>
<path fill="none" stroke="midnightblue" d="M978.896,-67.476C1015.99,-57.4297 1066.11,-43.8564 1105.3,-33.2418"/>
<polygon fill="midnightblue" stroke="midnightblue" points="1106.28,-36.6034 1115.01,-30.6109 1104.45,-29.8469 1106.28,-36.6034"/>
</g>
<!-- Node9&#45;&gt;Node2 -->
<g id="edge19" class="edge"><title>Node9&#45;&gt;Node2</title>
<path fill="none" stroke="midnightblue" d="M1064.98,-67.396C1047.88,-56.4956 1024.31,-41.4787 1007.22,-30.5835"/>
<polygon fill="midnightblue" stroke="midnightblue" points="1008.78,-27.4295 998.465,-25.007 1005.02,-33.3328 1008.78,-27.4295"/>
</g>
<!-- Node9&#45;&gt;Node3 -->
<g id="edge20" class="edge"><title>Node9&#45;&gt;Node3</title>
<path fill="none" stroke="midnightblue" d="M1104.47,-67.396C1115.38,-58.5375 1129.63,-46.9604 1141.78,-37.0861"/>
<polygon fill="midnightblue" stroke="midnightblue" points="1144.24,-39.5989 1149.79,-30.5765 1139.82,-34.1661 1144.24,-39.5989"/>
</g>
<!-- Node10&#45;&gt;Node2 -->
<g id="edge22" class="edge"><title>Node10&#45;&gt;Node2</title>
<path fill="none" stroke="midnightblue" d="M1190.59,-67.476C1142.3,-55.4962 1073.8,-38.5011 1029.41,-27.4881"/>
<polygon fill="midnightblue" stroke="midnightblue" points="1030.04,-24.0396 1019.49,-25.0287 1028.36,-30.8337 1030.04,-24.0396"/>
</g>
<!-- Node10&#45;&gt;Node3 -->
<g id="edge23" class="edge"><title>Node10&#45;&gt;Node3</title>
<path fill="none" stroke="midnightblue" d="M1229.76,-67.396C1218.85,-58.5375 1204.61,-46.9604 1192.45,-37.0861"/>
<polygon fill="midnightblue" stroke="midnightblue" points="1194.41,-34.1661 1184.44,-30.5765 1189.99,-39.5989 1194.41,-34.1661"/>
</g>
<!-- Node11&#45;&gt;Node2 -->
<g id="edge25" class="edge"><title>Node11&#45;&gt;Node2</title>
<path fill="none" stroke="midnightblue" d="M1336.04,-68.4924C1333.02,-67.9805 1330.04,-67.4809 1327.12,-67 1228.39,-50.7691 1113.23,-34.2641 1044.9,-24.7237"/>
<polygon fill="midnightblue" stroke="midnightblue" points="1045.14,-21.2237 1034.75,-23.3104 1044.17,-28.1567 1045.14,-21.2237"/>
</g>
<!-- Node11&#45;&gt;Node3 -->
<g id="edge26" class="edge"><title>Node11&#45;&gt;Node3</title>
<path fill="none" stroke="midnightblue" d="M1355.33,-67.476C1318.24,-57.4297 1268.12,-43.8564 1228.93,-33.2418"/>
<polygon fill="midnightblue" stroke="midnightblue" points="1229.78,-29.8469 1219.22,-30.6109 1227.95,-36.6034 1229.78,-29.8469"/>
</g>
<!-- Node12&#45;&gt;Node2 -->
<g id="edge28" class="edge"><title>Node12&#45;&gt;Node2</title>
<path fill="none" stroke="midnightblue" d="M1496.07,-68.2956C1493.05,-67.8375 1490.05,-67.403 1487.12,-67 1317.29,-43.6931 1273.53,-49.4551 1103.12,-31 1084.16,-28.9469 1063.51,-26.4871 1044.87,-24.1816"/>
<polygon fill="midnightblue" stroke="midnightblue" points="1045.1,-20.683 1034.74,-22.9202 1044.23,-27.6294 1045.1,-20.683"/>
</g>
<!-- Node12&#45;&gt;Node3 -->
<g id="edge29" class="edge"><title>Node12&#45;&gt;Node3</title>
<path fill="none" stroke="midnightblue" d="M1496.03,-68.5291C1493.02,-68.0071 1490.04,-67.4954 1487.12,-67 1399.08,-52.0775 1297.17,-36.242 1232.45,-26.3647"/>
<polygon fill="midnightblue" stroke="midnightblue" points="1232.8,-22.8782 1222.39,-24.8317 1231.75,-29.7983 1232.8,-22.8782"/>
</g>
<!-- Node13&#45;&gt;Node2 -->
<g id="edge31" class="edge"><title>Node13&#45;&gt;Node2</title>
<path fill="none" stroke="midnightblue" d="M1655.81,-68.088C1652.88,-67.6993 1649.97,-67.3346 1647.12,-67 1406.45,-38.8214 1344.35,-53.7853 1103.12,-31 1084.13,-29.2068 1063.48,-26.8193 1044.84,-24.5001"/>
<polygon fill="midnightblue" stroke="midnightblue" points="1045.07,-21.0018 1034.71,-23.2228 1044.19,-27.9468 1045.07,-21.0018"/>
</g>
<!-- Node13&#45;&gt;Node3 -->
<g id="edge32" class="edge"><title>Node13&#45;&gt;Node3</title>
<path fill="none" stroke="midnightblue" d="M1655.8,-68.2301C1652.87,-67.8017 1649.97,-67.3898 1647.12,-67 1499.28,-46.78 1324.86,-30.255 1232.37,-22.0683"/>
<polygon fill="midnightblue" stroke="midnightblue" points="1232.59,-18.5741 1222.32,-21.183 1231.97,-25.5471 1232.59,-18.5741"/>
</g>
<!-- Node14&#45;&gt;Node2 -->
<g id="edge34" class="edge"><title>Node14&#45;&gt;Node2</title>
<path fill="none" stroke="midnightblue" d="M1828.09,-68.1348C1825.06,-67.7208 1822.06,-67.3395 1819.12,-67 1502.59,-30.5117 1420.56,-58.4481 1103.12,-31 1084.12,-29.3572 1063.46,-27.0116 1044.82,-24.6844"/>
<polygon fill="midnightblue" stroke="midnightblue" points="1045.06,-21.1863 1034.7,-23.398 1044.17,-28.1305 1045.06,-21.1863"/>
</g>
<!-- Node14&#45;&gt;Node3 -->
<g id="edge35" class="edge"><title>Node14&#45;&gt;Node3</title>
<path fill="none" stroke="midnightblue" d="M1828.07,-68.2355C1825.05,-67.7939 1822.06,-67.3793 1819.12,-67 1605.43,-39.4325 1350.27,-24.9856 1232.54,-19.3557"/>
<polygon fill="midnightblue" stroke="midnightblue" points="1232.42,-15.846 1222.26,-18.8699 1232.09,-22.8382 1232.42,-15.846"/>
</g>
<!-- Node15&#45;&gt;Node2 -->
<g id="edge37" class="edge"><title>Node15&#45;&gt;Node2</title>
<path fill="none" stroke="midnightblue" d="M1988.09,-68.1007C1985.06,-67.696 1982.06,-67.326 1979.12,-67 1591.82,-24.1507 1491.48,-62.7886 1103.12,-31 1084.11,-29.4443 1063.45,-27.1229 1044.81,-24.7911"/>
<polygon fill="midnightblue" stroke="midnightblue" points="1045.05,-21.2931 1034.69,-23.4994 1044.16,-28.2368 1045.05,-21.2931"/>
</g>
<!-- Node15&#45;&gt;Node3 -->
<g id="edge38" class="edge"><title>Node15&#45;&gt;Node3</title>
<path fill="none" stroke="midnightblue" d="M1988.08,-68.179C1985.06,-67.7529 1982.06,-67.3569 1979.12,-67 1702.79,-33.4827 1370.71,-21.6428 1232.47,-17.9678"/>
<polygon fill="midnightblue" stroke="midnightblue" points="1232.54,-14.4687 1222.45,-17.707 1232.36,-21.4663 1232.54,-14.4687"/>
</g>
<!-- Node16&#45;&gt;Node2 -->
<g id="edge40" class="edge"><title>Node16&#45;&gt;Node2</title>
<path fill="none" stroke="midnightblue" d="M158.15,-68.1773C161.175,-67.7517 164.173,-67.3563 167.116,-67 449.676,-32.7913 790.111,-21.2094 925.446,-17.7804"/>
<polygon fill="midnightblue" stroke="midnightblue" points="925.691,-21.2755 935.601,-17.5288 925.517,-14.2777 925.691,-21.2755"/>
</g>
<!-- Node16&#45;&gt;Node3 -->
<g id="edge41" class="edge"><title>Node16&#45;&gt;Node3</title>
<path fill="none" stroke="midnightblue" d="M158.141,-68.1006C161.168,-67.6959 164.169,-67.3259 167.116,-67 554.857,-24.111 655.232,-61.8584 1044.12,-31 1062.92,-29.5075 1083.29,-27.3345 1101.94,-25.1229"/>
<polygon fill="midnightblue" stroke="midnightblue" points="1102.59,-28.5695 1112.1,-23.8943 1101.75,-21.6201 1102.59,-28.5695"/>
</g>
</g>
</svg>
