<?xml version="1.0" encoding="UTF-8" standalone="no"?>
<!DOCTYPE svg PUBLIC "-//W3C//DTD SVG 1.1//EN"
 "http://www.w3.org/Graphics/SVG/1.1/DTD/svg11.dtd">
<!-- Generated by graphviz version 2.38.0 (20140413.2041)
 -->
<!-- Title: include/userobjects/DwarfElephantRBStructuresT5F4O1M2Transient.h Pages: 1 -->
<!--zoomable 184 -->
<svg id="main" version="1.1" xmlns="http://www.w3.org/2000/svg" xmlns:xlink="http://www.w3.org/1999/xlink" xml:space="preserve" onload="init(evt)">
<style type="text/css"><![CDATA[
.edge:hover path { stroke: red; }
.edge:hover polygon { stroke: red; fill: red; }
]]></style>
<script type="text/javascript"><![CDATA[
var edges = document.getElementsByTagName('g');
if (edges && edges.length) {
  for (var i=0;i<edges.length;i++) {
    if (edges[i].id.substr(0,4)=='edge') {
      edges[i].setAttribute('class','edge');
    }
  }
}
]]></script>
        <defs>
                <circle id="rim" cx="0" cy="0" r="7"/>
                <circle id="rim2" cx="0" cy="0" r="3.5"/>
                <g id="zoomPlus">
                        <use xlink:href="#rim" fill="#404040">
                                <set attributeName="fill" to="#808080" begin="zoomplus.mouseover" end="zoomplus.mouseout"/>
                        </use>
                        <path d="M-4,0h8M0,-4v8" fill="none" stroke="white" stroke-width="1.5" pointer-events="none"/>
                </g>
                <g id="zoomMin">
                        <use xlink:href="#rim" fill="#404040">
                                <set attributeName="fill" to="#808080" begin="zoomminus.mouseover" end="zoomminus.mouseout"/>
                        </use>
                        <path d="M-4,0h8" fill="none" stroke="white" stroke-width="1.5" pointer-events="none"/>
                </g>
                <g id="dirArrow">
                        <path fill="none" stroke="white" stroke-width="1.5" d="M0,-3.0v7 M-2.5,-0.5L0,-3.0L2.5,-0.5"/>
                </g>
               <g id="resetDef">
                       <use xlink:href="#rim2" fill="#404040">
                               <set attributeName="fill" to="#808080" begin="reset.mouseover" end="reset.mouseout"/>
                       </use>
               </g>
        </defs>

<script type="text/javascript">
var viewWidth = 3618;
var viewHeight = 184;
var sectionId = 'dynsection-0';
</script>
<script xlink:href="svgpan.js"/>
<svg id="graph" class="graph">
<g id="viewport">
<title>include/userobjects/DwarfElephantRBStructuresT5F4O1M2Transient.h</title>
<polygon fill="white" stroke="none" points="-4,4 -4,-180 3613.5,-180 3613.5,4 -4,4"/>
<!-- Node1 -->
<g id="node1" class="node"><title>Node1</title>
<polygon fill="#bfbfbf" stroke="black" points="1706.5,-134.5 1706.5,-175.5 1850.5,-175.5 1850.5,-134.5 1706.5,-134.5"/>
<text text-anchor="start" x="1714.5" y="-163.5" font-family="Helvetica,sans-Serif" font-size="10.00">include/userobjects</text>
<text text-anchor="start" x="1714.5" y="-152.5" font-family="Helvetica,sans-Serif" font-size="10.00">/DwarfElephantRBStructures</text>
<text text-anchor="middle" x="1778.5" y="-141.5" font-family="Helvetica,sans-Serif" font-size="10.00">T5F4O1M2Transient.h</text>
</g>
<!-- Node2 -->
<g id="node2" class="node"><title>Node2</title>
<polygon fill="white" stroke="#bfbfbf" points="0,-67.5 0,-97.5 107,-97.5 107,-67.5 0,-67.5"/>
<text text-anchor="start" x="8" y="-85.5" font-family="Helvetica,sans-Serif" font-size="10.00">libmesh/transient_rb</text>
<text text-anchor="middle" x="53.5" y="-74.5" font-family="Helvetica,sans-Serif" font-size="10.00">_theta_expansion.h</text>
</g>
<!-- Node1&#45;&gt;Node2 -->
<g id="edge1" class="edge"><title>Node1&#45;&gt;Node2</title>
<path fill="none" stroke="midnightblue" d="M1706.41,-153.418C1431.93,-150.917 451.257,-139.324 117.496,-97.9044"/>
<polygon fill="midnightblue" stroke="midnightblue" points="117.695,-94.4015 107.332,-96.6075 116.809,-101.345 117.695,-94.4015"/>
</g>
<!-- Node3 -->
<g id="node3" class="node"><title>Node3</title>
<polygon fill="white" stroke="#bfbfbf" points="125.5,-67.5 125.5,-97.5 249.5,-97.5 249.5,-67.5 125.5,-67.5"/>
<text text-anchor="start" x="133.5" y="-85.5" font-family="Helvetica,sans-Serif" font-size="10.00">libmesh/transient_rb</text>
<text text-anchor="middle" x="187.5" y="-74.5" font-family="Helvetica,sans-Serif" font-size="10.00">_assembly_expansion.h</text>
</g>
<!-- Node1&#45;&gt;Node3 -->
<g id="edge2" class="edge"><title>Node1&#45;&gt;Node3</title>
<path fill="none" stroke="midnightblue" d="M1706.41,-152.919C1447.49,-148.793 564.274,-132.562 259.889,-98"/>
<polygon fill="midnightblue" stroke="midnightblue" points="260.082,-94.4988 249.744,-96.8152 259.27,-101.452 260.082,-94.4988"/>
</g>
<!-- Node4 -->
<g id="node4" class="node"><title>Node4</title>
<g id="a_node4"><a xlink:href="_dwarf_elephant_r_b_structures_a00_theta_constant_8h.html" target="_top" xlink:title="DwarfElephantRBStructures\lA00ThetaConstant.h">
<polygon fill="white" stroke="black" points="1707.5,-67.5 1707.5,-97.5 1849.5,-97.5 1849.5,-67.5 1707.5,-67.5"/>
<text text-anchor="start" x="1715.5" y="-85.5" font-family="Helvetica,sans-Serif" font-size="10.00">DwarfElephantRBStructures</text>
<text text-anchor="middle" x="1778.5" y="-74.5" font-family="Helvetica,sans-Serif" font-size="10.00">A00ThetaConstant.h</text>
</a>
</g>
</g>
<!-- Node1&#45;&gt;Node4 -->
<g id="edge3" class="edge"><title>Node1&#45;&gt;Node4</title>
<path fill="none" stroke="midnightblue" d="M1778.5,-134.362C1778.5,-126.226 1778.5,-116.7 1778.5,-108.105"/>
<polygon fill="midnightblue" stroke="midnightblue" points="1782,-107.892 1778.5,-97.8916 1775,-107.892 1782,-107.892"/>
</g>
<!-- Node7 -->
<g id="node7" class="node"><title>Node7</title>
<g id="a_node7"><a xlink:href="_dwarf_elephant_r_b_structures_a0_theta_equal_mu0_8h.html" target="_top" xlink:title="DwarfElephantRBStructures\lA0ThetaEqualMu0.h">
<polygon fill="white" stroke="black" points="1867.5,-67.5 1867.5,-97.5 2009.5,-97.5 2009.5,-67.5 1867.5,-67.5"/>
<text text-anchor="start" x="1875.5" y="-85.5" font-family="Helvetica,sans-Serif" font-size="10.00">DwarfElephantRBStructures</text>
<text text-anchor="middle" x="1938.5" y="-74.5" font-family="Helvetica,sans-Serif" font-size="10.00">A0ThetaEqualMu0.h</text>
</a>
</g>
</g>
<!-- Node1&#45;&gt;Node7 -->
<g id="edge6" class="edge"><title>Node1&#45;&gt;Node7</title>
<path fill="none" stroke="midnightblue" d="M1823.07,-134.362C1846.29,-124.13 1874.5,-111.7 1897.22,-101.689"/>
<polygon fill="midnightblue" stroke="midnightblue" points="1898.85,-104.795 1906.59,-97.5597 1896.03,-98.389 1898.85,-104.795"/>
</g>
<!-- Node8 -->
<g id="node8" class="node"><title>Node8</title>
<g id="a_node8"><a xlink:href="_dwarf_elephant_r_b_structures_a0_theta_norm_mu0_8h.html" target="_top" xlink:title="DwarfElephantRBStructures\lA0ThetaNormMu0.h">
<polygon fill="white" stroke="black" points="2027.5,-67.5 2027.5,-97.5 2169.5,-97.5 2169.5,-67.5 2027.5,-67.5"/>
<text text-anchor="start" x="2035.5" y="-85.5" font-family="Helvetica,sans-Serif" font-size="10.00">DwarfElephantRBStructures</text>
<text text-anchor="middle" x="2098.5" y="-74.5" font-family="Helvetica,sans-Serif" font-size="10.00">A0ThetaNormMu0.h</text>
</a>
</g>
</g>
<!-- Node1&#45;&gt;Node8 -->
<g id="edge9" class="edge"><title>Node1&#45;&gt;Node8</title>
<path fill="none" stroke="midnightblue" d="M1850.71,-138.091C1902.75,-126.626 1972.74,-111.207 2025.06,-99.6806"/>
<polygon fill="midnightblue" stroke="midnightblue" points="2025.93,-103.072 2034.94,-97.5025 2024.42,-96.2361 2025.93,-103.072"/>
</g>
<!-- Node9 -->
<g id="node9" class="node"><title>Node9</title>
<g id="a_node9"><a xlink:href="_dwarf_elephant_r_b_structures_a0_theta_norm_mu1_8h.html" target="_top" xlink:title="DwarfElephantRBStructures\lA0ThetaNormMu1.h">
<polygon fill="white" stroke="black" points="2187.5,-67.5 2187.5,-97.5 2329.5,-97.5 2329.5,-67.5 2187.5,-67.5"/>
<text text-anchor="start" x="2195.5" y="-85.5" font-family="Helvetica,sans-Serif" font-size="10.00">DwarfElephantRBStructures</text>
<text text-anchor="middle" x="2258.5" y="-74.5" font-family="Helvetica,sans-Serif" font-size="10.00">A0ThetaNormMu1.h</text>
</a>
</g>
</g>
<!-- Node1&#45;&gt;Node9 -->
<g id="edge12" class="edge"><title>Node1&#45;&gt;Node9</title>
<path fill="none" stroke="midnightblue" d="M1850.53,-144.803C1928.52,-134.643 2056.83,-117.348 2177.29,-98.1581"/>
<polygon fill="midnightblue" stroke="midnightblue" points="2178.1,-101.572 2187.43,-96.5354 2177,-94.6599 2178.1,-101.572"/>
</g>
<!-- Node10 -->
<g id="node10" class="node"><title>Node10</title>
<g id="a_node10"><a xlink:href="_dwarf_elephant_r_b_structures_a0_theta_norm_mu3_8h.html" target="_top" xlink:title="DwarfElephantRBStructures\lA0ThetaNormMu3.h">
<polygon fill="white" stroke="black" points="2347.5,-67.5 2347.5,-97.5 2489.5,-97.5 2489.5,-67.5 2347.5,-67.5"/>
<text text-anchor="start" x="2355.5" y="-85.5" font-family="Helvetica,sans-Serif" font-size="10.00">DwarfElephantRBStructures</text>
<text text-anchor="middle" x="2418.5" y="-74.5" font-family="Helvetica,sans-Serif" font-size="10.00">A0ThetaNormMu3.h</text>
</a>
</g>
</g>
<!-- Node1&#45;&gt;Node10 -->
<g id="edge15" class="edge"><title>Node1&#45;&gt;Node10</title>
<path fill="none" stroke="midnightblue" d="M1850.77,-148.624C1955.73,-140.405 2156.67,-123.125 2337.49,-98.0722"/>
<polygon fill="midnightblue" stroke="midnightblue" points="2338.03,-101.531 2347.45,-96.6814 2337.06,-94.5981 2338.03,-101.531"/>
</g>
<!-- Node11 -->
<g id="node11" class="node"><title>Node11</title>
<g id="a_node11"><a xlink:href="_dwarf_elephant_r_b_structures_a1_theta_equal_mu1_8h.html" target="_top" xlink:title="DwarfElephantRBStructures\lA1ThetaEqualMu1.h">
<polygon fill="white" stroke="black" points="2507.5,-67.5 2507.5,-97.5 2649.5,-97.5 2649.5,-67.5 2507.5,-67.5"/>
<text text-anchor="start" x="2515.5" y="-85.5" font-family="Helvetica,sans-Serif" font-size="10.00">DwarfElephantRBStructures</text>
<text text-anchor="middle" x="2578.5" y="-74.5" font-family="Helvetica,sans-Serif" font-size="10.00">A1ThetaEqualMu1.h</text>
</a>
</g>
</g>
<!-- Node1&#45;&gt;Node11 -->
<g id="edge18" class="edge"><title>Node1&#45;&gt;Node11</title>
<path fill="none" stroke="midnightblue" d="M1850.54,-150.826C1978.67,-144.647 2254.72,-128.935 2497.39,-98.0561"/>
<polygon fill="midnightblue" stroke="midnightblue" points="2497.99,-101.508 2507.46,-96.7633 2497.09,-94.5651 2497.99,-101.508"/>
</g>
<!-- Node12 -->
<g id="node12" class="node"><title>Node12</title>
<g id="a_node12"><a xlink:href="_dwarf_elephant_r_b_structures_a1_theta_norm_mu0_8h.html" target="_top" xlink:title="DwarfElephantRBStructures\lA1ThetaNormMu0.h">
<polygon fill="white" stroke="black" points="2667.5,-67.5 2667.5,-97.5 2809.5,-97.5 2809.5,-67.5 2667.5,-67.5"/>
<text text-anchor="start" x="2675.5" y="-85.5" font-family="Helvetica,sans-Serif" font-size="10.00">DwarfElephantRBStructures</text>
<text text-anchor="middle" x="2738.5" y="-74.5" font-family="Helvetica,sans-Serif" font-size="10.00">A1ThetaNormMu0.h</text>
</a>
</g>
</g>
<!-- Node1&#45;&gt;Node12 -->
<g id="edge21" class="edge"><title>Node1&#45;&gt;Node12</title>
<path fill="none" stroke="midnightblue" d="M1850.62,-152.236C1999.6,-147.978 2352.22,-134.726 2657.54,-98.0197"/>
<polygon fill="midnightblue" stroke="midnightblue" points="2657.96,-101.494 2667.46,-96.8156 2657.12,-94.545 2657.96,-101.494"/>
</g>
<!-- Node13 -->
<g id="node13" class="node"><title>Node13</title>
<g id="a_node13"><a xlink:href="_dwarf_elephant_r_b_structures_a1_theta_norm_mu1_8h.html" target="_top" xlink:title="DwarfElephantRBStructures\lA1ThetaNormMu1.h">
<polygon fill="white" stroke="black" points="2827.5,-67.5 2827.5,-97.5 2969.5,-97.5 2969.5,-67.5 2827.5,-67.5"/>
<text text-anchor="start" x="2835.5" y="-85.5" font-family="Helvetica,sans-Serif" font-size="10.00">DwarfElephantRBStructures</text>
<text text-anchor="middle" x="2898.5" y="-74.5" font-family="Helvetica,sans-Serif" font-size="10.00">A1ThetaNormMu1.h</text>
</a>
</g>
</g>
<!-- Node1&#45;&gt;Node13 -->
<g id="edge24" class="edge"><title>Node1&#45;&gt;Node13</title>
<path fill="none" stroke="midnightblue" d="M1850.63,-153.227C2018.57,-150.756 2448.76,-140.555 2817.4,-98.0231"/>
<polygon fill="midnightblue" stroke="midnightblue" points="2817.94,-101.484 2827.47,-96.8519 2817.13,-94.5312 2817.94,-101.484"/>
</g>
<!-- Node14 -->
<g id="node14" class="node"><title>Node14</title>
<g id="a_node14"><a xlink:href="_dwarf_elephant_r_b_structures_a1_theta_norm_mu3_8h.html" target="_top" xlink:title="DwarfElephantRBStructures\lA1ThetaNormMu3.h">
<polygon fill="white" stroke="black" points="2987.5,-67.5 2987.5,-97.5 3129.5,-97.5 3129.5,-67.5 2987.5,-67.5"/>
<text text-anchor="start" x="2995.5" y="-85.5" font-family="Helvetica,sans-Serif" font-size="10.00">DwarfElephantRBStructures</text>
<text text-anchor="middle" x="3058.5" y="-74.5" font-family="Helvetica,sans-Serif" font-size="10.00">A1ThetaNormMu3.h</text>
</a>
</g>
</g>
<!-- Node1&#45;&gt;Node14 -->
<g id="edge27" class="edge"><title>Node1&#45;&gt;Node14</title>
<path fill="none" stroke="midnightblue" d="M1850.79,-153.961C2036.39,-153.145 2544.87,-146.392 2977.27,-98.0288"/>
<polygon fill="midnightblue" stroke="midnightblue" points="2977.93,-101.477 2987.47,-96.8786 2977.14,-94.5212 2977.93,-101.477"/>
</g>
<!-- Node15 -->
<g id="node15" class="node"><title>Node15</title>
<g id="a_node15"><a xlink:href="_dwarf_elephant_r_b_structures_a2_theta_equal_mu2_8h.html" target="_top" xlink:title="DwarfElephantRBStructures\lA2ThetaEqualMu2.h">
<polygon fill="white" stroke="black" points="3147.5,-67.5 3147.5,-97.5 3289.5,-97.5 3289.5,-67.5 3147.5,-67.5"/>
<text text-anchor="start" x="3155.5" y="-85.5" font-family="Helvetica,sans-Serif" font-size="10.00">DwarfElephantRBStructures</text>
<text text-anchor="middle" x="3218.5" y="-74.5" font-family="Helvetica,sans-Serif" font-size="10.00">A2ThetaEqualMu2.h</text>
</a>
</g>
</g>
<!-- Node1&#45;&gt;Node15 -->
<g id="edge30" class="edge"><title>Node1&#45;&gt;Node15</title>
<path fill="none" stroke="midnightblue" d="M1850.64,-154.528C2052.53,-155.259 2640.38,-152.274 3137.23,-98.0264"/>
<polygon fill="midnightblue" stroke="midnightblue" points="3137.92,-101.472 3147.47,-96.899 3137.15,-94.5138 3137.92,-101.472"/>
</g>
<!-- Node16 -->
<g id="node16" class="node"><title>Node16</title>
<g id="a_node16"><a xlink:href="_dwarf_elephant_r_b_structures_a2_theta_norm_mu0_8h.html" target="_top" xlink:title="DwarfElephantRBStructures\lA2ThetaNormMu0.h">
<polygon fill="white" stroke="black" points="3307.5,-67.5 3307.5,-97.5 3449.5,-97.5 3449.5,-67.5 3307.5,-67.5"/>
<text text-anchor="start" x="3315.5" y="-85.5" font-family="Helvetica,sans-Serif" font-size="10.00">DwarfElephantRBStructures</text>
<text text-anchor="middle" x="3378.5" y="-74.5" font-family="Helvetica,sans-Serif" font-size="10.00">A2ThetaNormMu0.h</text>
</a>
</g>
</g>
<!-- Node1&#45;&gt;Node16 -->
<g id="edge33" class="edge"><title>Node1&#45;&gt;Node16</title>
<path fill="none" stroke="midnightblue" d="M1850.57,-152.708C2109.4,-147.859 2992.37,-129.446 3297.31,-97.9919"/>
<polygon fill="midnightblue" stroke="midnightblue" points="3297.9,-101.449 3307.48,-96.9151 3297.16,-94.4881 3297.9,-101.449"/>
</g>
<!-- Node17 -->
<g id="node17" class="node"><title>Node17</title>
<g id="a_node17"><a xlink:href="_dwarf_elephant_r_b_structures_a2_theta_norm_mu1_8h.html" target="_top" xlink:title="DwarfElephantRBStructures\lA2ThetaNormMu1.h">
<polygon fill="white" stroke="black" points="3467.5,-67.5 3467.5,-97.5 3609.5,-97.5 3609.5,-67.5 3467.5,-67.5"/>
<text text-anchor="start" x="3475.5" y="-85.5" font-family="Helvetica,sans-Serif" font-size="10.00">DwarfElephantRBStructures</text>
<text text-anchor="middle" x="3538.5" y="-74.5" font-family="Helvetica,sans-Serif" font-size="10.00">A2ThetaNormMu1.h</text>
</a>
</g>
</g>
<!-- Node1&#45;&gt;Node17 -->
<g id="edge36" class="edge"><title>Node1&#45;&gt;Node17</title>
<path fill="none" stroke="midnightblue" d="M1850.84,-152.996C2127.5,-148.94 3119.53,-132.361 3457.43,-97.9766"/>
<polygon fill="midnightblue" stroke="midnightblue" points="3457.9,-101.447 3467.48,-96.9281 3457.17,-94.485 3457.9,-101.447"/>
</g>
<!-- Node18 -->
<g id="node18" class="node"><title>Node18</title>
<g id="a_node18"><a xlink:href="_dwarf_elephant_r_b_structures_a2_theta_norm_mu3_8h.html" target="_top" xlink:title="DwarfElephantRBStructures\lA2ThetaNormMu3.h">
<polygon fill="white" stroke="black" points="267.5,-67.5 267.5,-97.5 409.5,-97.5 409.5,-67.5 267.5,-67.5"/>
<text text-anchor="start" x="275.5" y="-85.5" font-family="Helvetica,sans-Serif" font-size="10.00">DwarfElephantRBStructures</text>
<text text-anchor="middle" x="338.5" y="-74.5" font-family="Helvetica,sans-Serif" font-size="10.00">A2ThetaNormMu3.h</text>
</a>
</g>
</g>
<!-- Node1&#45;&gt;Node18 -->
<g id="edge39" class="edge"><title>Node1&#45;&gt;Node18</title>
<path fill="none" stroke="midnightblue" d="M1706.36,-154.528C1504.47,-155.259 916.623,-152.274 419.772,-98.0264"/>
<polygon fill="midnightblue" stroke="midnightblue" points="419.848,-94.5138 409.525,-96.899 419.083,-101.472 419.848,-94.5138"/>
</g>
<!-- Node19 -->
<g id="node19" class="node"><title>Node19</title>
<g id="a_node19"><a xlink:href="_dwarf_elephant_r_b_structures_a3_theta_equal_mu3_8h.html" target="_top" xlink:title="DwarfElephantRBStructures\lA3ThetaEqualMu3.h">
<polygon fill="white" stroke="black" points="427.5,-67.5 427.5,-97.5 569.5,-97.5 569.5,-67.5 427.5,-67.5"/>
<text text-anchor="start" x="435.5" y="-85.5" font-family="Helvetica,sans-Serif" font-size="10.00">DwarfElephantRBStructures</text>
<text text-anchor="middle" x="498.5" y="-74.5" font-family="Helvetica,sans-Serif" font-size="10.00">A3ThetaEqualMu3.h</text>
</a>
</g>
</g>
<!-- Node1&#45;&gt;Node19 -->
<g id="edge42" class="edge"><title>Node1&#45;&gt;Node19</title>
<path fill="none" stroke="midnightblue" d="M1706.21,-153.961C1520.61,-153.145 1012.13,-146.392 579.727,-98.0288"/>
<polygon fill="midnightblue" stroke="midnightblue" points="579.857,-94.5212 569.528,-96.8786 579.072,-101.477 579.857,-94.5212"/>
</g>
<!-- Node20 -->
<g id="node20" class="node"><title>Node20</title>
<g id="a_node20"><a xlink:href="_dwarf_elephant_r_b_structures_a3_theta_norm_mu0_8h.html" target="_top" xlink:title="DwarfElephantRBStructures\lA3ThetaNormMu0.h">
<polygon fill="white" stroke="black" points="587.5,-67.5 587.5,-97.5 729.5,-97.5 729.5,-67.5 587.5,-67.5"/>
<text text-anchor="start" x="595.5" y="-85.5" font-family="Helvetica,sans-Serif" font-size="10.00">DwarfElephantRBStructures</text>
<text text-anchor="middle" x="658.5" y="-74.5" font-family="Helvetica,sans-Serif" font-size="10.00">A3ThetaNormMu0.h</text>
</a>
</g>
</g>
<!-- Node1&#45;&gt;Node20 -->
<g id="edge45" class="edge"><title>Node1&#45;&gt;Node20</title>
<path fill="none" stroke="midnightblue" d="M1706.37,-153.227C1538.43,-150.756 1108.24,-140.555 739.596,-98.0231"/>
<polygon fill="midnightblue" stroke="midnightblue" points="739.868,-94.5312 729.531,-96.8519 739.059,-101.484 739.868,-94.5312"/>
</g>
<!-- Node21 -->
<g id="node21" class="node"><title>Node21</title>
<g id="a_node21"><a xlink:href="_dwarf_elephant_r_b_structures_a3_theta_norm_mu1_8h.html" target="_top" xlink:title="DwarfElephantRBStructures\lA3ThetaNormMu1.h">
<polygon fill="white" stroke="black" points="747.5,-67.5 747.5,-97.5 889.5,-97.5 889.5,-67.5 747.5,-67.5"/>
<text text-anchor="start" x="755.5" y="-85.5" font-family="Helvetica,sans-Serif" font-size="10.00">DwarfElephantRBStructures</text>
<text text-anchor="middle" x="818.5" y="-74.5" font-family="Helvetica,sans-Serif" font-size="10.00">A3ThetaNormMu1.h</text>
</a>
</g>
</g>
<!-- Node1&#45;&gt;Node21 -->
<g id="edge48" class="edge"><title>Node1&#45;&gt;Node21</title>
<path fill="none" stroke="midnightblue" d="M1706.38,-152.236C1557.4,-147.978 1204.78,-134.726 899.464,-98.0197"/>
<polygon fill="midnightblue" stroke="midnightblue" points="899.884,-94.545 889.535,-96.8156 899.041,-101.494 899.884,-94.545"/>
</g>
<!-- Node22 -->
<g id="node22" class="node"><title>Node22</title>
<g id="a_node22"><a xlink:href="_dwarf_elephant_r_b_structures_a3_theta_norm_mu3_8h.html" target="_top" xlink:title="DwarfElephantRBStructures\lA3ThetaNormMu3.h">
<polygon fill="white" stroke="black" points="907.5,-67.5 907.5,-97.5 1049.5,-97.5 1049.5,-67.5 907.5,-67.5"/>
<text text-anchor="start" x="915.5" y="-85.5" font-family="Helvetica,sans-Serif" font-size="10.00">DwarfElephantRBStructures</text>
<text text-anchor="middle" x="978.5" y="-74.5" font-family="Helvetica,sans-Serif" font-size="10.00">A3ThetaNormMu3.h</text>
</a>
</g>
</g>
<!-- Node1&#45;&gt;Node22 -->
<g id="edge51" class="edge"><title>Node1&#45;&gt;Node22</title>
<path fill="none" stroke="midnightblue" d="M1706.46,-150.826C1578.33,-144.647 1302.28,-128.935 1059.61,-98.0561"/>
<polygon fill="midnightblue" stroke="midnightblue" points="1059.91,-94.5651 1049.54,-96.7633 1059.01,-101.508 1059.91,-94.5651"/>
</g>
<!-- Node23 -->
<g id="node23" class="node"><title>Node23</title>
<g id="a_node23"><a xlink:href="_dwarf_elephant_r_b_structures_a4_theta_equal_mu4_8h.html" target="_top" xlink:title="DwarfElephantRBStructures\lA4ThetaEqualMu4.h">
<polygon fill="white" stroke="black" points="1067.5,-67.5 1067.5,-97.5 1209.5,-97.5 1209.5,-67.5 1067.5,-67.5"/>
<text text-anchor="start" x="1075.5" y="-85.5" font-family="Helvetica,sans-Serif" font-size="10.00">DwarfElephantRBStructures</text>
<text text-anchor="middle" x="1138.5" y="-74.5" font-family="Helvetica,sans-Serif" font-size="10.00">A4ThetaEqualMu4.h</text>
</a>
</g>
</g>
<!-- Node1&#45;&gt;Node23 -->
<g id="edge54" class="edge"><title>Node1&#45;&gt;Node23</title>
<path fill="none" stroke="midnightblue" d="M1706.23,-148.624C1601.27,-140.405 1400.33,-123.125 1219.51,-98.0722"/>
<polygon fill="midnightblue" stroke="midnightblue" points="1219.94,-94.5981 1209.55,-96.6814 1218.97,-101.531 1219.94,-94.5981"/>
</g>
<!-- Node24 -->
<g id="node24" class="node"><title>Node24</title>
<g id="a_node24"><a xlink:href="_dwarf_elephant_r_b_structures_a4_theta_norm_mu0_8h.html" target="_top" xlink:title="DwarfElephantRBStructures\lA4ThetaNormMu0.h">
<polygon fill="white" stroke="black" points="1227.5,-67.5 1227.5,-97.5 1369.5,-97.5 1369.5,-67.5 1227.5,-67.5"/>
<text text-anchor="start" x="1235.5" y="-85.5" font-family="Helvetica,sans-Serif" font-size="10.00">DwarfElephantRBStructures</text>
<text text-anchor="middle" x="1298.5" y="-74.5" font-family="Helvetica,sans-Serif" font-size="10.00">A4ThetaNormMu0.h</text>
</a>
</g>
</g>
<!-- Node1&#45;&gt;Node24 -->
<g id="edge57" class="edge"><title>Node1&#45;&gt;Node24</title>
<path fill="none" stroke="midnightblue" d="M1706.47,-144.803C1628.48,-134.643 1500.17,-117.348 1379.71,-98.1581"/>
<polygon fill="midnightblue" stroke="midnightblue" points="1380,-94.6599 1369.57,-96.5354 1378.9,-101.572 1380,-94.6599"/>
</g>
<!-- Node25 -->
<g id="node25" class="node"><title>Node25</title>
<g id="a_node25"><a xlink:href="_dwarf_elephant_r_b_structures_a4_theta_norm_mu1_8h.html" target="_top" xlink:title="DwarfElephantRBStructures\lA4ThetaNormMu1.h">
<polygon fill="white" stroke="black" points="1387.5,-67.5 1387.5,-97.5 1529.5,-97.5 1529.5,-67.5 1387.5,-67.5"/>
<text text-anchor="start" x="1395.5" y="-85.5" font-family="Helvetica,sans-Serif" font-size="10.00">DwarfElephantRBStructures</text>
<text text-anchor="middle" x="1458.5" y="-74.5" font-family="Helvetica,sans-Serif" font-size="10.00">A4ThetaNormMu1.h</text>
</a>
</g>
</g>
<!-- Node1&#45;&gt;Node25 -->
<g id="edge60" class="edge"><title>Node1&#45;&gt;Node25</title>
<path fill="none" stroke="midnightblue" d="M1706.29,-138.091C1654.25,-126.626 1584.26,-111.207 1531.94,-99.6806"/>
<polygon fill="midnightblue" stroke="midnightblue" points="1532.58,-96.2361 1522.06,-97.5025 1531.07,-103.072 1532.58,-96.2361"/>
</g>
<!-- Node26 -->
<g id="node26" class="node"><title>Node26</title>
<g id="a_node26"><a xlink:href="_dwarf_elephant_r_b_structures_a4_theta_norm_mu3_8h.html" target="_top" xlink:title="DwarfElephantRBStructures\lA4ThetaNormMu3.h">
<polygon fill="white" stroke="black" points="1547.5,-67.5 1547.5,-97.5 1689.5,-97.5 1689.5,-67.5 1547.5,-67.5"/>
<text text-anchor="start" x="1555.5" y="-85.5" font-family="Helvetica,sans-Serif" font-size="10.00">DwarfElephantRBStructures</text>
<text text-anchor="middle" x="1618.5" y="-74.5" font-family="Helvetica,sans-Serif" font-size="10.00">A4ThetaNormMu3.h</text>
</a>
</g>
</g>
<!-- Node1&#45;&gt;Node26 -->
<g id="edge63" class="edge"><title>Node1&#45;&gt;Node26</title>
<path fill="none" stroke="midnightblue" d="M1733.93,-134.362C1710.71,-124.13 1682.5,-111.7 1659.78,-101.689"/>
<polygon fill="midnightblue" stroke="midnightblue" points="1660.97,-98.389 1650.41,-97.5597 1658.15,-104.795 1660.97,-98.389"/>
</g>
<!-- Node5 -->
<g id="node5" class="node"><title>Node5</title>
<polygon fill="white" stroke="#bfbfbf" points="1827,-6 1827,-25 1926,-25 1926,-6 1827,-6"/>
<text text-anchor="middle" x="1876.5" y="-13" font-family="Helvetica,sans-Serif" font-size="10.00">libmesh/rb_theta.h</text>
</g>
<!-- Node4&#45;&gt;Node5 -->
<g id="edge4" class="edge"><title>Node4&#45;&gt;Node5</title>
<path fill="none" stroke="midnightblue" d="M1799.76,-67.396C1816.2,-56.4956 1838.84,-41.4787 1855.27,-30.5835"/>
<polygon fill="midnightblue" stroke="midnightblue" points="1857.28,-33.4512 1863.67,-25.007 1853.41,-27.6177 1857.28,-33.4512"/>
</g>
<!-- Node6 -->
<g id="node6" class="node"><title>Node6</title>
<polygon fill="white" stroke="#bfbfbf" points="1944.5,-0.5 1944.5,-30.5 2054.5,-30.5 2054.5,-0.5 1944.5,-0.5"/>
<text text-anchor="start" x="1952.5" y="-18.5" font-family="Helvetica,sans-Serif" font-size="10.00">libmesh/rb_assembly</text>
<text text-anchor="middle" x="1999.5" y="-7.5" font-family="Helvetica,sans-Serif" font-size="10.00">_expansion.h</text>
</g>
<!-- Node4&#45;&gt;Node6 -->
<g id="edge5" class="edge"><title>Node4&#45;&gt;Node6</title>
<path fill="none" stroke="midnightblue" d="M1826.18,-67.476C1860.05,-57.5149 1905.71,-44.0862 1941.66,-33.5123"/>
<polygon fill="midnightblue" stroke="midnightblue" points="1942.92,-36.7904 1951.52,-30.6109 1940.94,-30.0749 1942.92,-36.7904"/>
</g>
<!-- Node7&#45;&gt;Node5 -->
<g id="edge7" class="edge"><title>Node7&#45;&gt;Node5</title>
<path fill="none" stroke="midnightblue" d="M1925.05,-67.396C1915.28,-57.1607 1902.06,-43.2959 1891.88,-32.622"/>
<polygon fill="midnightblue" stroke="midnightblue" points="1894.23,-30.0149 1884.79,-25.1945 1889.16,-34.8464 1894.23,-30.0149"/>
</g>
<!-- Node7&#45;&gt;Node6 -->
<g id="edge8" class="edge"><title>Node7&#45;&gt;Node6</title>
<path fill="none" stroke="midnightblue" d="M1951.74,-67.396C1959.81,-58.7931 1970.29,-47.626 1979.37,-37.9448"/>
<polygon fill="midnightblue" stroke="midnightblue" points="1982,-40.2635 1986.29,-30.5765 1976.89,-35.4733 1982,-40.2635"/>
</g>
<!-- Node8&#45;&gt;Node5 -->
<g id="edge10" class="edge"><title>Node8&#45;&gt;Node5</title>
<path fill="none" stroke="midnightblue" d="M2050.6,-67.476C2010.29,-55.6727 1953.35,-39.0009 1915.7,-27.9789"/>
<polygon fill="midnightblue" stroke="midnightblue" points="1916.21,-24.4797 1905.63,-25.0287 1914.24,-31.1977 1916.21,-24.4797"/>
</g>
<!-- Node8&#45;&gt;Node6 -->
<g id="edge11" class="edge"><title>Node8&#45;&gt;Node6</title>
<path fill="none" stroke="midnightblue" d="M2077.02,-67.396C2063.14,-58.282 2044.87,-46.2902 2029.56,-36.236"/>
<polygon fill="midnightblue" stroke="midnightblue" points="2031.22,-33.1392 2020.94,-30.5765 2027.38,-38.9907 2031.22,-33.1392"/>
</g>
<!-- Node9&#45;&gt;Node5 -->
<g id="edge13" class="edge"><title>Node9&#45;&gt;Node5</title>
<path fill="none" stroke="midnightblue" d="M2187.42,-68.4942C2184.41,-67.9817 2181.42,-67.4816 2178.5,-67 2070.77,-49.262 2042.63,-52.0516 1935.5,-31 1930.07,-29.9323 1924.38,-28.6926 1918.77,-27.3965"/>
<polygon fill="midnightblue" stroke="midnightblue" points="1919.38,-23.9425 1908.84,-25.0274 1917.75,-30.7516 1919.38,-23.9425"/>
</g>
<!-- Node9&#45;&gt;Node6 -->
<g id="edge14" class="edge"><title>Node9&#45;&gt;Node6</title>
<path fill="none" stroke="midnightblue" d="M2202.62,-67.476C2162.06,-57.2966 2107.07,-43.4962 2064.54,-32.8215"/>
<polygon fill="midnightblue" stroke="midnightblue" points="2065.39,-29.4266 2054.83,-30.3871 2063.68,-36.2161 2065.39,-29.4266"/>
</g>
<!-- Node10&#45;&gt;Node5 -->
<g id="edge16" class="edge"><title>Node10&#45;&gt;Node5</title>
<path fill="none" stroke="midnightblue" d="M2347.45,-68.2793C2344.43,-67.8257 2341.44,-67.3966 2338.5,-67 2160.29,-42.9402 2112.88,-60.5437 1935.5,-31 1929.63,-30.0231 1923.49,-28.7732 1917.48,-27.4181"/>
<polygon fill="midnightblue" stroke="midnightblue" points="1918.09,-23.9656 1907.55,-25.0676 1916.47,-30.7773 1918.09,-23.9656"/>
</g>
<!-- Node10&#45;&gt;Node6 -->
<g id="edge17" class="edge"><title>Node10&#45;&gt;Node6</title>
<path fill="none" stroke="midnightblue" d="M2347.42,-68.4971C2344.41,-67.9839 2341.42,-67.4828 2338.5,-67 2243.57,-51.3298 2133.31,-35.3076 2064.96,-25.6299"/>
<polygon fill="midnightblue" stroke="midnightblue" points="2065.17,-22.1242 2054.78,-24.1906 2064.19,-29.0553 2065.17,-22.1242"/>
</g>
<!-- Node11&#45;&gt;Node5 -->
<g id="edge19" class="edge"><title>Node11&#45;&gt;Node5</title>
<path fill="none" stroke="midnightblue" d="M2507.46,-68.1855C2504.44,-67.7576 2501.44,-67.3595 2498.5,-67 2249.62,-36.5909 2183.33,-69.0693 1935.5,-31 1929.49,-30.0766 1923.19,-28.8337 1917.04,-27.462"/>
<polygon fill="midnightblue" stroke="midnightblue" points="1917.45,-23.9617 1906.91,-25.0655 1915.84,-30.7737 1917.45,-23.9617"/>
</g>
<!-- Node11&#45;&gt;Node6 -->
<g id="edge20" class="edge"><title>Node11&#45;&gt;Node6</title>
<path fill="none" stroke="midnightblue" d="M2507.45,-68.323C2504.43,-67.8574 2501.44,-67.4139 2498.5,-67 2343.56,-45.1525 2160.26,-29.0933 2064.76,-21.4615"/>
<polygon fill="midnightblue" stroke="midnightblue" points="2064.93,-17.9634 2054.68,-20.6609 2064.37,-24.9415 2064.93,-17.9634"/>
</g>
<!-- Node12&#45;&gt;Node5 -->
<g id="edge22" class="edge"><title>Node12&#45;&gt;Node5</title>
<path fill="none" stroke="midnightblue" d="M2667.47,-68.133C2664.44,-67.7195 2661.44,-67.3387 2658.5,-67 2338.88,-30.2334 2253.84,-77.6052 1935.5,-31 1929.27,-30.0875 1922.73,-28.8117 1916.37,-27.3917"/>
<polygon fill="midnightblue" stroke="midnightblue" points="1917.14,-23.9755 1906.6,-25.0732 1915.52,-30.7866 1917.14,-23.9755"/>
</g>
<!-- Node12&#45;&gt;Node6 -->
<g id="edge23" class="edge"><title>Node12&#45;&gt;Node6</title>
<path fill="none" stroke="midnightblue" d="M2667.46,-68.2325C2664.44,-67.7917 2661.44,-67.3781 2658.5,-67 2442.03,-39.1631 2183.44,-24.8135 2064.82,-19.2763"/>
<polygon fill="midnightblue" stroke="midnightblue" points="2064.96,-15.7791 2054.81,-18.8145 2064.63,-22.7717 2064.96,-15.7791"/>
</g>
<!-- Node13&#45;&gt;Node5 -->
<g id="edge25" class="edge"><title>Node13&#45;&gt;Node5</title>
<path fill="none" stroke="midnightblue" d="M2827.47,-68.0995C2824.45,-67.6951 2821.45,-67.3255 2818.5,-67 2428.1,-23.8724 2324.38,-86.1456 1935.5,-31 1929.19,-30.1059 1922.58,-28.827 1916.16,-27.3946"/>
<polygon fill="midnightblue" stroke="midnightblue" points="1916.83,-23.9561 1906.29,-25.0505 1915.21,-30.7666 1916.83,-23.9561"/>
</g>
<!-- Node13&#45;&gt;Node6 -->
<g id="edge26" class="edge"><title>Node13&#45;&gt;Node6</title>
<path fill="none" stroke="midnightblue" d="M2827.47,-68.1771C2824.44,-67.7514 2821.44,-67.3562 2818.5,-67 2539.45,-33.2269 2204.02,-21.5152 2064.9,-17.9204"/>
<polygon fill="midnightblue" stroke="midnightblue" points="2064.91,-14.4197 2054.82,-17.6655 2064.73,-21.4175 2064.91,-14.4197"/>
</g>
<!-- Node14&#45;&gt;Node5 -->
<g id="edge28" class="edge"><title>Node14&#45;&gt;Node5</title>
<path fill="none" stroke="midnightblue" d="M2987.48,-68.0763C2984.45,-67.6782 2981.45,-67.3163 2978.5,-67 2517.32,-17.5095 2394.94,-94.6884 1935.5,-31 1929.12,-30.1161 1922.43,-28.8295 1915.94,-27.3825"/>
<polygon fill="midnightblue" stroke="midnightblue" points="1916.52,-23.9218 1905.98,-25.0113 1914.9,-30.7316 1916.52,-23.9218"/>
</g>
<!-- Node14&#45;&gt;Node6 -->
<g id="edge29" class="edge"><title>Node14&#45;&gt;Node6</title>
<path fill="none" stroke="midnightblue" d="M2987.47,-68.1397C2984.44,-67.7243 2981.44,-67.3414 2978.5,-67 2635.86,-27.2757 2222.13,-18.798 2064.64,-16.9898"/>
<polygon fill="midnightblue" stroke="midnightblue" points="2064.67,-13.4901 2054.64,-16.8801 2064.6,-20.4897 2064.67,-13.4901"/>
</g>
<!-- Node15&#45;&gt;Node5 -->
<g id="edge31" class="edge"><title>Node15&#45;&gt;Node5</title>
<path fill="none" stroke="midnightblue" d="M3147.48,-68.0592C3144.45,-67.6658 3141.45,-67.3095 3138.5,-67 2606.52,-11.1456 2465.51,-103.232 1935.5,-31 1929.12,-30.1307 1922.43,-28.8518 1915.94,-27.4079"/>
<polygon fill="midnightblue" stroke="midnightblue" points="1916.52,-23.9472 1905.98,-25.0384 1914.9,-30.7573 1916.52,-23.9472"/>
</g>
<!-- Node15&#45;&gt;Node6 -->
<g id="edge32" class="edge"><title>Node15&#45;&gt;Node6</title>
<path fill="none" stroke="midnightblue" d="M3147.47,-68.1128C3144.45,-67.7048 3141.45,-67.3307 3138.5,-67 2731.81,-21.339 2239.09,-16.4931 2064.58,-16.3183"/>
<polygon fill="midnightblue" stroke="midnightblue" points="2064.53,-12.8184 2054.53,-16.3131 2064.53,-19.8184 2064.53,-12.8184"/>
</g>
<!-- Node16&#45;&gt;Node5 -->
<g id="edge34" class="edge"><title>Node16&#45;&gt;Node5</title>
<path fill="none" stroke="midnightblue" d="M3307.48,-68.0461C3304.45,-67.6563 3301.45,-67.3043 3298.5,-67 2695.71,-4.78095 2536.08,-111.777 1935.5,-31 1929.12,-30.1419 1922.43,-28.8688 1915.94,-27.4274"/>
<polygon fill="midnightblue" stroke="midnightblue" points="1916.51,-23.9667 1905.97,-25.0592 1914.89,-30.7769 1916.51,-23.9667"/>
</g>
<!-- Node16&#45;&gt;Node6 -->
<g id="edge35" class="edge"><title>Node16&#45;&gt;Node6</title>
<path fill="none" stroke="midnightblue" d="M3307.48,-68.0925C3304.45,-67.69 3301.45,-67.3227 3298.5,-67 2827.62,-15.4313 2255.68,-14.4765 2064.92,-15.8057"/>
<polygon fill="midnightblue" stroke="midnightblue" points="2064.76,-12.3068 2054.78,-15.8811 2064.81,-19.3066 2064.76,-12.3068"/>
</g>
<!-- Node17&#45;&gt;Node5 -->
<g id="edge37" class="edge"><title>Node17&#45;&gt;Node5</title>
<path fill="none" stroke="midnightblue" d="M3467.48,-68.0358C3464.45,-67.6488 3461.45,-67.3003 3458.5,-67 2784.9,1.58412 2606.66,-120.323 1935.5,-31 1929.12,-30.1507 1922.43,-28.8823 1915.93,-27.4428"/>
<polygon fill="midnightblue" stroke="midnightblue" points="1916.51,-23.982 1905.97,-25.0756 1914.89,-30.7924 1916.51,-23.982"/>
</g>
<!-- Node17&#45;&gt;Node6 -->
<g id="edge38" class="edge"><title>Node17&#45;&gt;Node6</title>
<path fill="none" stroke="midnightblue" d="M3467.48,-68.0766C3464.45,-67.6785 3461.45,-67.3164 3458.5,-67 3182.58,-37.3773 2311.16,-21.4821 2064.9,-17.5043"/>
<polygon fill="midnightblue" stroke="midnightblue" points="2064.73,-14.0013 2054.68,-17.3403 2064.62,-21.0004 2064.73,-14.0013"/>
</g>
<!-- Node18&#45;&gt;Node5 -->
<g id="edge40" class="edge"><title>Node18&#45;&gt;Node5</title>
<path fill="none" stroke="midnightblue" d="M409.523,-68.0767C412.551,-67.6786 415.553,-67.3165 418.5,-67 696.262,-37.1759 1577.94,-21.253 1816.49,-17.4192"/>
<polygon fill="midnightblue" stroke="midnightblue" points="1816.76,-20.9155 1826.7,-17.2562 1816.65,-13.9164 1816.76,-20.9155"/>
</g>
<!-- Node18&#45;&gt;Node6 -->
<g id="edge41" class="edge"><title>Node18&#45;&gt;Node6</title>
<path fill="none" stroke="midnightblue" d="M409.518,-68.0361C412.548,-67.6491 415.551,-67.3004 418.5,-67 1086,0.99502 1264.38,-112.743 1934.07,-30.9795"/>
<polygon fill="midnightblue" stroke="midnightblue" points="1934.97,-34.3957 1944.46,-29.6998 1934.11,-27.4482 1934.97,-34.3957"/>
</g>
<!-- Node19&#45;&gt;Node5 -->
<g id="edge43" class="edge"><title>Node19&#45;&gt;Node5</title>
<path fill="none" stroke="midnightblue" d="M569.524,-68.0926C572.552,-67.6901 575.553,-67.3227 578.5,-67 1053.74,-14.9473 1631.98,-14.4738 1816.75,-15.8493"/>
<polygon fill="midnightblue" stroke="midnightblue" points="1816.77,-19.3495 1826.8,-15.9289 1816.83,-12.3497 1816.77,-19.3495"/>
</g>
<!-- Node19&#45;&gt;Node6 -->
<g id="edge44" class="edge"><title>Node19&#45;&gt;Node6</title>
<path fill="none" stroke="midnightblue" d="M569.52,-68.0465C572.548,-67.6566 575.551,-67.3045 578.5,-67 1175.26,-5.36766 1335.07,-104.888 1934.27,-30.9589"/>
<polygon fill="midnightblue" stroke="midnightblue" points="1934.97,-34.3986 1944.46,-29.6898 1934.11,-27.4522 1934.97,-34.3986"/>
</g>
<!-- Node20&#45;&gt;Node5 -->
<g id="edge46" class="edge"><title>Node20&#45;&gt;Node5</title>
<path fill="none" stroke="midnightblue" d="M729.527,-68.1129C732.554,-67.7049 735.554,-67.3308 738.5,-67 1149,-20.9031 1647.23,-16.4099 1816.74,-16.3176"/>
<polygon fill="midnightblue" stroke="midnightblue" points="1816.96,-19.8177 1826.96,-16.3173 1816.96,-12.8177 1816.96,-19.8177"/>
</g>
<!-- Node20&#45;&gt;Node6 -->
<g id="edge47" class="edge"><title>Node20&#45;&gt;Node6</title>
<path fill="none" stroke="midnightblue" d="M729.521,-68.0597C732.549,-67.6662 735.552,-67.3097 738.5,-67 1264.47,-11.7373 1405.72,-97.0186 1934.28,-30.9618"/>
<polygon fill="midnightblue" stroke="midnightblue" points="1934.98,-34.402 1944.46,-29.6772 1934.1,-27.4571 1934.98,-34.402"/>
</g>
<!-- Node21&#45;&gt;Node5 -->
<g id="edge49" class="edge"><title>Node21&#45;&gt;Node5</title>
<path fill="none" stroke="midnightblue" d="M889.53,-68.1399C892.556,-67.7244 895.556,-67.3414 898.5,-67 1244.78,-26.8443 1663.75,-18.6172 1816.83,-16.933"/>
<polygon fill="midnightblue" stroke="midnightblue" points="1816.99,-20.4316 1826.96,-16.827 1816.92,-13.432 1816.99,-20.4316"/>
</g>
<!-- Node21&#45;&gt;Node6 -->
<g id="edge50" class="edge"><title>Node21&#45;&gt;Node6</title>
<path fill="none" stroke="midnightblue" d="M889.523,-68.077C892.551,-67.6788 895.553,-67.3166 898.5,-67 1353.67,-18.1089 1476.36,-89.157 1934.27,-30.9699"/>
<polygon fill="midnightblue" stroke="midnightblue" points="1934.99,-34.4064 1944.46,-29.6607 1934.1,-27.4635 1934.99,-34.4064"/>
</g>
<!-- Node22&#45;&gt;Node5 -->
<g id="edge52" class="edge"><title>Node22&#45;&gt;Node5</title>
<path fill="none" stroke="midnightblue" d="M1049.53,-68.1773C1052.56,-67.7517 1055.56,-67.3563 1058.5,-67 1341.06,-32.7913 1681.5,-21.2094 1816.83,-17.7804"/>
<polygon fill="midnightblue" stroke="midnightblue" points="1817.08,-21.2755 1826.99,-17.5288 1816.9,-14.2777 1817.08,-21.2755"/>
</g>
<!-- Node22&#45;&gt;Node6 -->
<g id="edge53" class="edge"><title>Node22&#45;&gt;Node6</title>
<path fill="none" stroke="midnightblue" d="M1049.53,-68.1006C1052.55,-67.6959 1055.55,-67.3259 1058.5,-67 1442.93,-24.4774 1547.01,-81.3239 1934.38,-30.9643"/>
<polygon fill="midnightblue" stroke="midnightblue" points="1935,-34.4128 1944.46,-29.6382 1934.09,-27.4727 1935,-34.4128"/>
</g>
<!-- Node23&#45;&gt;Node5 -->
<g id="edge55" class="edge"><title>Node23&#45;&gt;Node5</title>
<path fill="none" stroke="midnightblue" d="M1209.54,-68.2329C1212.56,-67.792 1215.56,-67.3782 1218.5,-67 1438.01,-38.7594 1700.9,-24.3843 1816.72,-19.0293"/>
<polygon fill="midnightblue" stroke="midnightblue" points="1816.97,-22.5216 1826.8,-18.5689 1816.65,-15.5289 1816.97,-22.5216"/>
</g>
<!-- Node23&#45;&gt;Node6 -->
<g id="edge56" class="edge"><title>Node23&#45;&gt;Node6</title>
<path fill="none" stroke="midnightblue" d="M1209.53,-68.1346C1212.56,-67.7206 1215.56,-67.3394 1218.5,-67 1532.22,-30.8465 1617.65,-73.52 1934.53,-30.9563"/>
<polygon fill="midnightblue" stroke="midnightblue" points="1935.02,-34.4223 1944.45,-29.6057 1934.07,-27.4863 1935.02,-34.4223"/>
</g>
<!-- Node24&#45;&gt;Node5 -->
<g id="edge58" class="edge"><title>Node24&#45;&gt;Node5</title>
<path fill="none" stroke="midnightblue" d="M1369.55,-68.3237C1372.57,-67.858 1375.56,-67.4142 1378.5,-67 1536.09,-44.7634 1723.06,-28.498 1816.73,-21.0403"/>
<polygon fill="midnightblue" stroke="midnightblue" points="1817.17,-24.5163 1826.87,-20.2388 1816.62,-17.5381 1817.17,-24.5163"/>
</g>
<!-- Node24&#45;&gt;Node6 -->
<g id="edge59" class="edge"><title>Node24&#45;&gt;Node6</title>
<path fill="none" stroke="midnightblue" d="M1369.54,-68.1881C1372.56,-67.7594 1375.56,-67.3605 1378.5,-67 1621.48,-37.227 1688.23,-65.746 1934.48,-30.9822"/>
<polygon fill="midnightblue" stroke="midnightblue" points="1935.04,-34.4372 1944.45,-29.5547 1934.05,-27.5079 1935.04,-34.4372"/>
</g>
<!-- Node25&#45;&gt;Node5 -->
<g id="edge61" class="edge"><title>Node25&#45;&gt;Node5</title>
<path fill="none" stroke="midnightblue" d="M1529.58,-68.4987C1532.59,-67.985 1535.58,-67.4834 1538.5,-67 1635.8,-50.9175 1749.24,-34.4299 1816.84,-24.8431"/>
<polygon fill="midnightblue" stroke="midnightblue" points="1817.47,-28.289 1826.88,-23.4223 1816.49,-21.3581 1817.47,-28.289"/>
</g>
<!-- Node25&#45;&gt;Node6 -->
<g id="edge62" class="edge"><title>Node25&#45;&gt;Node6</title>
<path fill="none" stroke="midnightblue" d="M1529.55,-68.2843C1532.57,-67.8293 1535.56,-67.3986 1538.5,-67 1710.8,-43.62 1758.73,-58.0742 1934.33,-31.0411"/>
<polygon fill="midnightblue" stroke="midnightblue" points="1935.09,-34.4651 1944.43,-29.4629 1934.01,-27.5491 1935.09,-34.4651"/>
</g>
<!-- Node26&#45;&gt;Node5 -->
<g id="edge64" class="edge"><title>Node26&#45;&gt;Node5</title>
<path fill="none" stroke="midnightblue" d="M1674.16,-67.476C1721.72,-55.4962 1789.17,-38.5011 1832.89,-27.4881"/>
<polygon fill="midnightblue" stroke="midnightblue" points="1833.81,-30.8657 1842.65,-25.0287 1832.1,-24.0778 1833.81,-30.8657"/>
</g>
<!-- Node26&#45;&gt;Node6 -->
<g id="edge65" class="edge"><title>Node26&#45;&gt;Node6</title>
<path fill="none" stroke="midnightblue" d="M1689.58,-68.5077C1692.59,-67.9916 1695.58,-67.4869 1698.5,-67 1800.41,-50.0275 1829.09,-50.723 1934.31,-31.1439"/>
<polygon fill="midnightblue" stroke="midnightblue" points="1935.21,-34.5359 1944.39,-29.2497 1933.92,-27.6563 1935.21,-34.5359"/>
</g>
</g>
</svg>
        <g id="navigator" transform="translate(0 0)" fill="#404254">
                <rect fill="#f2f5e9" fill-opacity="0.5" stroke="#606060" stroke-width=".5" x="0" y="0" width="60" height="60"/>
                <use id="zoomplus" xlink:href="#zoomPlus" x="17" y="9" onmousedown="handleZoom(evt,'in')"/>
                <use id="zoomminus" xlink:href="#zoomMin" x="42" y="9" onmousedown="handleZoom(evt,'out')"/>
                <use id="reset" xlink:href="#resetDef" x="30" y="36" onmousedown="handleReset()"/>
                <g id="arrowUp" xlink:href="#dirArrow" transform="translate(30 24)" onmousedown="handlePan(0,-1)">
                  <use xlink:href="#rim" fill="#404040">
                        <set attributeName="fill" to="#808080" begin="arrowUp.mouseover" end="arrowUp.mouseout"/>
                  </use>
                  <path fill="none" stroke="white" stroke-width="1.5" d="M0,-3.0v7 M-2.5,-0.5L0,-3.0L2.5,-0.5"/>
                </g>
                <g id="arrowRight" xlink:href="#dirArrow" transform="rotate(90) translate(36 -43)" onmousedown="handlePan(1,0)">
                  <use xlink:href="#rim" fill="#404040">
                        <set attributeName="fill" to="#808080" begin="arrowRight.mouseover" end="arrowRight.mouseout"/>
                  </use>
                  <path fill="none" stroke="white" stroke-width="1.5" d="M0,-3.0v7 M-2.5,-0.5L0,-3.0L2.5,-0.5"/>
                </g>
                <g id="arrowDown" xlink:href="#dirArrow" transform="rotate(180) translate(-30 -48)" onmousedown="handlePan(0,1)">
                  <use xlink:href="#rim" fill="#404040">
                        <set attributeName="fill" to="#808080" begin="arrowDown.mouseover" end="arrowDown.mouseout"/>
                  </use>
                  <path fill="none" stroke="white" stroke-width="1.5" d="M0,-3.0v7 M-2.5,-0.5L0,-3.0L2.5,-0.5"/>
                </g>
                <g id="arrowLeft" xlink:href="#dirArrow" transform="rotate(270) translate(-36 17)" onmousedown="handlePan(-1,0)">
                  <use xlink:href="#rim" fill="#404040">
                        <set attributeName="fill" to="#808080" begin="arrowLeft.mouseover" end="arrowLeft.mouseout"/>
                  </use>
                  <path fill="none" stroke="white" stroke-width="1.5" d="M0,-3.0v7 M-2.5,-0.5L0,-3.0L2.5,-0.5"/>
                </g>
        </g>
        <svg viewBox="0 0 15 15" width="100%" height="30px" preserveAspectRatio="xMaxYMin meet">
         <g id="arrow_out" transform="scale(0.3 0.3)">
          <a xlink:href="_dwarf_elephant_r_b_structures_t5_f4_o1_m2_transient_8h__incl_org.svg" target="_base">
           <rect id="button" ry="5" rx="5" y="6" x="6" height="38" width="38"
                fill="#f2f5e9" fill-opacity="0.5" stroke="#606060" stroke-width="1.0"/>
           <path id="arrow"
             d="M 11.500037,31.436501 C 11.940474,20.09759 22.043105,11.32322 32.158766,21.979434 L 37.068811,17.246167 C 37.068811,17.246167 37.088388,32 37.088388,32 L 22.160133,31.978069 C 22.160133,31.978069 26.997745,27.140456 26.997745,27.140456 C 18.528582,18.264221 13.291696,25.230495 11.500037,31.436501 z"
             style="fill:#404040;"/>
          </a>
         </g>
        </svg>
</svg>
