<?xml version="1.0" encoding="UTF-8" standalone="no"?>
<!DOCTYPE svg PUBLIC "-//W3C//DTD SVG 1.1//EN"
 "http://www.w3.org/Graphics/SVG/1.1/DTD/svg11.dtd">
<!-- Generated by graphviz version 2.38.0 (20140413.2041)
 -->
<!-- Title: include/userobjects/DwarfElephantRBStructuresT15F16O80SteadyState.h Pages: 1 -->
<svg width="3542pt" height="184pt"
 viewBox="0.00 0.00 3542.39 184.00" xmlns="http://www.w3.org/2000/svg" xmlns:xlink="http://www.w3.org/1999/xlink">
<g id="graph0" class="graph" transform="scale(1 1) rotate(0) translate(4 180)">
<title>include/userobjects/DwarfElephantRBStructuresT15F16O80SteadyState.h</title>
<polygon fill="white" stroke="none" points="-4,4 -4,-180 3538.39,-180 3538.39,4 -4,4"/>
<!-- Node1 -->
<g id="node1" class="node"><title>Node1</title>
<polygon fill="#bfbfbf" stroke="black" points="1695.19,-134.5 1695.19,-175.5 1839.19,-175.5 1839.19,-134.5 1695.19,-134.5"/>
<text text-anchor="start" x="1703.19" y="-163.5" font-family="Helvetica,sans-Serif" font-size="10.00">include/userobjects</text>
<text text-anchor="start" x="1703.19" y="-152.5" font-family="Helvetica,sans-Serif" font-size="10.00">/DwarfElephantRBStructures</text>
<text text-anchor="middle" x="1767.19" y="-141.5" font-family="Helvetica,sans-Serif" font-size="10.00">T15F16O80SteadyState.h</text>
</g>
<!-- Node2 -->
<g id="node2" class="node"><title>Node2</title>
<polygon fill="white" stroke="#bfbfbf" points="1637.69,-6 1637.69,-25 1736.69,-25 1736.69,-6 1637.69,-6"/>
<text text-anchor="middle" x="1687.19" y="-13" font-family="Helvetica,sans-Serif" font-size="10.00">libmesh/rb_theta.h</text>
</g>
<!-- Node1&#45;&gt;Node2 -->
<g id="edge1" class="edge"><title>Node1&#45;&gt;Node2</title>
<path fill="none" stroke="midnightblue" d="M1695.16,-153.064C1368.06,-148.649 37.0386,-128.81 7.19345,-98 -2.39275,-88.1039 -2.40144,-76.8876 7.19345,-67 35.984,-37.331 1331.08,-20.6083 1627.29,-17.1677"/>
<polygon fill="midnightblue" stroke="midnightblue" points="1627.44,-20.6663 1637.4,-17.0509 1627.36,-13.6668 1627.44,-20.6663"/>
</g>
<!-- Node3 -->
<g id="node3" class="node"><title>Node3</title>
<polygon fill="white" stroke="#bfbfbf" points="1792.19,-0.5 1792.19,-30.5 1902.19,-30.5 1902.19,-0.5 1792.19,-0.5"/>
<text text-anchor="start" x="1800.19" y="-18.5" font-family="Helvetica,sans-Serif" font-size="10.00">libmesh/rb_assembly</text>
<text text-anchor="middle" x="1847.19" y="-7.5" font-family="Helvetica,sans-Serif" font-size="10.00">_expansion.h</text>
</g>
<!-- Node1&#45;&gt;Node3 -->
<g id="edge2" class="edge"><title>Node1&#45;&gt;Node3</title>
<path fill="none" stroke="midnightblue" d="M1839.22,-153.064C2166.33,-148.649 3497.35,-128.81 3527.19,-98 3536.78,-88.1039 3536.79,-76.8876 3527.19,-67 3498.58,-37.5105 2218.93,-20.8111 1912.58,-17.2316"/>
<polygon fill="midnightblue" stroke="midnightblue" points="1912.56,-13.7313 1902.52,-17.1147 1912.48,-20.7308 1912.56,-13.7313"/>
</g>
<!-- Node4 -->
<g id="node4" class="node"><title>Node4</title>
<g id="a_node4"><a xlink:href="_dwarf_elephant_r_b_structures_a00_theta_constant_8h.html" target="_top" xlink:title="DwarfElephantRBStructures\lA00ThetaConstant.h">
<polygon fill="white" stroke="black" points="1616.19,-67.5 1616.19,-97.5 1758.19,-97.5 1758.19,-67.5 1616.19,-67.5"/>
<text text-anchor="start" x="1624.19" y="-85.5" font-family="Helvetica,sans-Serif" font-size="10.00">DwarfElephantRBStructures</text>
<text text-anchor="middle" x="1687.19" y="-74.5" font-family="Helvetica,sans-Serif" font-size="10.00">A00ThetaConstant.h</text>
</a>
</g>
</g>
<!-- Node1&#45;&gt;Node4 -->
<g id="edge3" class="edge"><title>Node1&#45;&gt;Node4</title>
<path fill="none" stroke="midnightblue" d="M1744.91,-134.362C1734.37,-125.076 1721.78,-113.979 1711.05,-104.524"/>
<polygon fill="midnightblue" stroke="midnightblue" points="1713.09,-101.656 1703.27,-97.67 1708.46,-106.907 1713.09,-101.656"/>
</g>
<!-- Node5 -->
<g id="node5" class="node"><title>Node5</title>
<g id="a_node5"><a xlink:href="_dwarf_elephant_r_b_structures_a0_theta_equal_mu0_8h.html" target="_top" xlink:title="DwarfElephantRBStructures\lA0ThetaEqualMu0.h">
<polygon fill="white" stroke="black" points="1776.19,-67.5 1776.19,-97.5 1918.19,-97.5 1918.19,-67.5 1776.19,-67.5"/>
<text text-anchor="start" x="1784.19" y="-85.5" font-family="Helvetica,sans-Serif" font-size="10.00">DwarfElephantRBStructures</text>
<text text-anchor="middle" x="1847.19" y="-74.5" font-family="Helvetica,sans-Serif" font-size="10.00">A0ThetaEqualMu0.h</text>
</a>
</g>
</g>
<!-- Node1&#45;&gt;Node5 -->
<g id="edge6" class="edge"><title>Node1&#45;&gt;Node5</title>
<path fill="none" stroke="midnightblue" d="M1789.48,-134.362C1800.01,-125.076 1812.61,-113.979 1823.34,-104.524"/>
<polygon fill="midnightblue" stroke="midnightblue" points="1825.93,-106.907 1831.11,-97.67 1821.3,-101.656 1825.93,-106.907"/>
</g>
<!-- Node6 -->
<g id="node6" class="node"><title>Node6</title>
<g id="a_node6"><a xlink:href="_dwarf_elephant_r_b_structures_a0_theta_norm_mu0_8h.html" target="_top" xlink:title="DwarfElephantRBStructures\lA0ThetaNormMu0.h">
<polygon fill="white" stroke="black" points="1936.19,-67.5 1936.19,-97.5 2078.19,-97.5 2078.19,-67.5 1936.19,-67.5"/>
<text text-anchor="start" x="1944.19" y="-85.5" font-family="Helvetica,sans-Serif" font-size="10.00">DwarfElephantRBStructures</text>
<text text-anchor="middle" x="2007.19" y="-74.5" font-family="Helvetica,sans-Serif" font-size="10.00">A0ThetaNormMu0.h</text>
</a>
</g>
</g>
<!-- Node1&#45;&gt;Node6 -->
<g id="edge9" class="edge"><title>Node1&#45;&gt;Node6</title>
<path fill="none" stroke="midnightblue" d="M1833.73,-134.455C1869.96,-123.811 1914.38,-110.765 1949.19,-100.538"/>
<polygon fill="midnightblue" stroke="midnightblue" points="1950.6,-103.773 1959.2,-97.5968 1948.62,-97.0572 1950.6,-103.773"/>
</g>
<!-- Node7 -->
<g id="node7" class="node"><title>Node7</title>
<g id="a_node7"><a xlink:href="_dwarf_elephant_r_b_structures_a0_theta_norm_mu1_8h.html" target="_top" xlink:title="DwarfElephantRBStructures\lA0ThetaNormMu1.h">
<polygon fill="white" stroke="black" points="2096.19,-67.5 2096.19,-97.5 2238.19,-97.5 2238.19,-67.5 2096.19,-67.5"/>
<text text-anchor="start" x="2104.19" y="-85.5" font-family="Helvetica,sans-Serif" font-size="10.00">DwarfElephantRBStructures</text>
<text text-anchor="middle" x="2167.19" y="-74.5" font-family="Helvetica,sans-Serif" font-size="10.00">A0ThetaNormMu1.h</text>
</a>
</g>
</g>
<!-- Node1&#45;&gt;Node7 -->
<g id="edge12" class="edge"><title>Node1&#45;&gt;Node7</title>
<path fill="none" stroke="midnightblue" d="M1839.34,-141.503C1901.93,-130.631 1995.26,-114.351 2086.17,-98.1766"/>
<polygon fill="midnightblue" stroke="midnightblue" points="2086.87,-101.608 2096.1,-96.4092 2085.64,-94.7163 2086.87,-101.608"/>
</g>
<!-- Node8 -->
<g id="node8" class="node"><title>Node8</title>
<g id="a_node8"><a xlink:href="_dwarf_elephant_r_b_structures_a1_theta_equal_mu1_8h.html" target="_top" xlink:title="DwarfElephantRBStructures\lA1ThetaEqualMu1.h">
<polygon fill="white" stroke="black" points="2256.19,-67.5 2256.19,-97.5 2398.19,-97.5 2398.19,-67.5 2256.19,-67.5"/>
<text text-anchor="start" x="2264.19" y="-85.5" font-family="Helvetica,sans-Serif" font-size="10.00">DwarfElephantRBStructures</text>
<text text-anchor="middle" x="2327.19" y="-74.5" font-family="Helvetica,sans-Serif" font-size="10.00">A1ThetaEqualMu1.h</text>
</a>
</g>
</g>
<!-- Node1&#45;&gt;Node8 -->
<g id="edge15" class="edge"><title>Node1&#45;&gt;Node8</title>
<path fill="none" stroke="midnightblue" d="M1839.35,-147.017C1931.32,-137.795 2095.43,-120.266 2245.79,-98.1519"/>
<polygon fill="midnightblue" stroke="midnightblue" points="2246.75,-101.548 2256.13,-96.6204 2245.73,-94.6231 2246.75,-101.548"/>
</g>
<!-- Node9 -->
<g id="node9" class="node"><title>Node9</title>
<g id="a_node9"><a xlink:href="_dwarf_elephant_r_b_structures_a1_theta_norm_mu0_8h.html" target="_top" xlink:title="DwarfElephantRBStructures\lA1ThetaNormMu0.h">
<polygon fill="white" stroke="black" points="2416.19,-67.5 2416.19,-97.5 2558.19,-97.5 2558.19,-67.5 2416.19,-67.5"/>
<text text-anchor="start" x="2424.19" y="-85.5" font-family="Helvetica,sans-Serif" font-size="10.00">DwarfElephantRBStructures</text>
<text text-anchor="middle" x="2487.19" y="-74.5" font-family="Helvetica,sans-Serif" font-size="10.00">A1ThetaNormMu0.h</text>
</a>
</g>
</g>
<!-- Node1&#45;&gt;Node9 -->
<g id="edge18" class="edge"><title>Node1&#45;&gt;Node9</title>
<path fill="none" stroke="midnightblue" d="M1839.42,-149.854C1956.35,-142.662 2194.54,-126.027 2406.09,-98.0674"/>
<polygon fill="midnightblue" stroke="midnightblue" points="2406.7,-101.518 2416.15,-96.7274 2405.77,-94.5794 2406.7,-101.518"/>
</g>
<!-- Node10 -->
<g id="node10" class="node"><title>Node10</title>
<g id="a_node10"><a xlink:href="_dwarf_elephant_r_b_structures_a1_theta_norm_mu1_8h.html" target="_top" xlink:title="DwarfElephantRBStructures\lA1ThetaNormMu1.h">
<polygon fill="white" stroke="black" points="2576.19,-67.5 2576.19,-97.5 2718.19,-97.5 2718.19,-67.5 2576.19,-67.5"/>
<text text-anchor="start" x="2584.19" y="-85.5" font-family="Helvetica,sans-Serif" font-size="10.00">DwarfElephantRBStructures</text>
<text text-anchor="middle" x="2647.19" y="-74.5" font-family="Helvetica,sans-Serif" font-size="10.00">A1ThetaNormMu1.h</text>
</a>
</g>
</g>
<!-- Node1&#45;&gt;Node10 -->
<g id="edge21" class="edge"><title>Node1&#45;&gt;Node10</title>
<path fill="none" stroke="midnightblue" d="M1839.43,-151.593C1978.31,-146.387 2292.26,-131.82 2566.02,-98.0527"/>
<polygon fill="midnightblue" stroke="midnightblue" points="2566.66,-101.5 2576.16,-96.7921 2565.8,-94.5538 2566.66,-101.5"/>
</g>
<!-- Node11 -->
<g id="node11" class="node"><title>Node11</title>
<g id="a_node11"><a xlink:href="_dwarf_elephant_r_b_structures_a2_theta_equal_mu2_8h.html" target="_top" xlink:title="DwarfElephantRBStructures\lA2ThetaEqualMu2.h">
<polygon fill="white" stroke="black" points="2736.19,-67.5 2736.19,-97.5 2878.19,-97.5 2878.19,-67.5 2736.19,-67.5"/>
<text text-anchor="start" x="2744.19" y="-85.5" font-family="Helvetica,sans-Serif" font-size="10.00">DwarfElephantRBStructures</text>
<text text-anchor="middle" x="2807.19" y="-74.5" font-family="Helvetica,sans-Serif" font-size="10.00">A2ThetaEqualMu2.h</text>
</a>
</g>
</g>
<!-- Node1&#45;&gt;Node11 -->
<g id="edge24" class="edge"><title>Node1&#45;&gt;Node11</title>
<path fill="none" stroke="midnightblue" d="M1839.41,-152.77C1998.13,-149.419 2389.36,-137.629 2726.21,-98.0154"/>
<polygon fill="midnightblue" stroke="midnightblue" points="2726.64,-101.489 2736.16,-96.8353 2725.82,-94.5376 2726.64,-101.489"/>
</g>
<!-- Node12 -->
<g id="node12" class="node"><title>Node12</title>
<g id="a_node12"><a xlink:href="_dwarf_elephant_r_b_structures_a2_theta_norm_mu0_8h.html" target="_top" xlink:title="DwarfElephantRBStructures\lA2ThetaNormMu0.h">
<polygon fill="white" stroke="black" points="2896.19,-67.5 2896.19,-97.5 3038.19,-97.5 3038.19,-67.5 2896.19,-67.5"/>
<text text-anchor="start" x="2904.19" y="-85.5" font-family="Helvetica,sans-Serif" font-size="10.00">DwarfElephantRBStructures</text>
<text text-anchor="middle" x="2967.19" y="-74.5" font-family="Helvetica,sans-Serif" font-size="10.00">A2ThetaNormMu0.h</text>
</a>
</g>
</g>
<!-- Node1&#45;&gt;Node12 -->
<g id="edge27" class="edge"><title>Node1&#45;&gt;Node12</title>
<path fill="none" stroke="midnightblue" d="M1839.2,-153.621C2015.97,-151.997 2485.48,-143.487 2886.12,-98.0158"/>
<polygon fill="midnightblue" stroke="midnightblue" points="2886.63,-101.481 2896.16,-96.8662 2885.83,-94.5259 2886.63,-101.481"/>
</g>
<!-- Node13 -->
<g id="node13" class="node"><title>Node13</title>
<g id="a_node13"><a xlink:href="_dwarf_elephant_r_b_structures_a2_theta_norm_mu1_8h.html" target="_top" xlink:title="DwarfElephantRBStructures\lA2ThetaNormMu1.h">
<polygon fill="white" stroke="black" points="3056.19,-67.5 3056.19,-97.5 3198.19,-97.5 3198.19,-67.5 3056.19,-67.5"/>
<text text-anchor="start" x="3064.19" y="-85.5" font-family="Helvetica,sans-Serif" font-size="10.00">DwarfElephantRBStructures</text>
<text text-anchor="middle" x="3127.19" y="-74.5" font-family="Helvetica,sans-Serif" font-size="10.00">A2ThetaNormMu1.h</text>
</a>
</g>
</g>
<!-- Node1&#45;&gt;Node13 -->
<g id="edge30" class="edge"><title>Node1&#45;&gt;Node13</title>
<path fill="none" stroke="midnightblue" d="M1839.28,-154.262C2033.03,-154.235 2581.23,-149.342 3045.9,-98.0327"/>
<polygon fill="midnightblue" stroke="midnightblue" points="3046.62,-101.474 3056.17,-96.8894 3045.84,-94.5172 3046.62,-101.474"/>
</g>
<!-- Node14 -->
<g id="node14" class="node"><title>Node14</title>
<g id="a_node14"><a xlink:href="_dwarf_elephant_r_b_structures_a3_theta_equal_mu3_8h.html" target="_top" xlink:title="DwarfElephantRBStructures\lA3ThetaEqualMu3.h">
<polygon fill="white" stroke="black" points="3216.19,-67.5 3216.19,-97.5 3358.19,-97.5 3358.19,-67.5 3216.19,-67.5"/>
<text text-anchor="start" x="3224.19" y="-85.5" font-family="Helvetica,sans-Serif" font-size="10.00">DwarfElephantRBStructures</text>
<text text-anchor="middle" x="3287.19" y="-74.5" font-family="Helvetica,sans-Serif" font-size="10.00">A3ThetaEqualMu3.h</text>
</a>
</g>
</g>
<!-- Node1&#45;&gt;Node14 -->
<g id="edge33" class="edge"><title>Node1&#45;&gt;Node14</title>
<path fill="none" stroke="midnightblue" d="M1839.36,-152.536C2089.29,-147.259 2917.93,-127.979 3206.15,-97.9792"/>
<polygon fill="midnightblue" stroke="midnightblue" points="3206.6,-101.451 3216.17,-96.9075 3205.85,-94.4906 3206.6,-101.451"/>
</g>
<!-- Node15 -->
<g id="node15" class="node"><title>Node15</title>
<g id="a_node15"><a xlink:href="_dwarf_elephant_r_b_structures_a4_theta_equal_mu4_8h.html" target="_top" xlink:title="DwarfElephantRBStructures\lA4ThetaEqualMu4.h">
<polygon fill="white" stroke="black" points="3376.19,-67.5 3376.19,-97.5 3518.19,-97.5 3518.19,-67.5 3376.19,-67.5"/>
<text text-anchor="start" x="3384.19" y="-85.5" font-family="Helvetica,sans-Serif" font-size="10.00">DwarfElephantRBStructures</text>
<text text-anchor="middle" x="3447.19" y="-74.5" font-family="Helvetica,sans-Serif" font-size="10.00">A4ThetaEqualMu4.h</text>
</a>
</g>
</g>
<!-- Node1&#45;&gt;Node15 -->
<g id="edge36" class="edge"><title>Node1&#45;&gt;Node15</title>
<path fill="none" stroke="midnightblue" d="M1839.3,-152.861C2106.98,-148.418 3044.32,-130.911 3365.91,-97.9995"/>
<polygon fill="midnightblue" stroke="midnightblue" points="3366.59,-101.448 3376.17,-96.9219 3365.86,-94.486 3366.59,-101.448"/>
</g>
<!-- Node16 -->
<g id="node16" class="node"><title>Node16</title>
<g id="a_node16"><a xlink:href="_dwarf_elephant_r_b_structures_a5_theta_equal_mu5_8h.html" target="_top" xlink:title="DwarfElephantRBStructures\lA5ThetaEqualMu5.h">
<polygon fill="white" stroke="black" points="16.1934,-67.5 16.1934,-97.5 158.193,-97.5 158.193,-67.5 16.1934,-67.5"/>
<text text-anchor="start" x="24.1934" y="-85.5" font-family="Helvetica,sans-Serif" font-size="10.00">DwarfElephantRBStructures</text>
<text text-anchor="middle" x="87.1934" y="-74.5" font-family="Helvetica,sans-Serif" font-size="10.00">A5ThetaEqualMu5.h</text>
</a>
</g>
</g>
<!-- Node1&#45;&gt;Node16 -->
<g id="edge39" class="edge"><title>Node1&#45;&gt;Node16</title>
<path fill="none" stroke="midnightblue" d="M1695.09,-152.861C1427.4,-148.418 490.064,-130.911 168.473,-97.9995"/>
<polygon fill="midnightblue" stroke="midnightblue" points="168.527,-94.486 158.216,-96.9219 167.796,-101.448 168.527,-94.486"/>
</g>
<!-- Node17 -->
<g id="node17" class="node"><title>Node17</title>
<g id="a_node17"><a xlink:href="_dwarf_elephant_r_b_structures_a6_theta_equal_mu6_8h.html" target="_top" xlink:title="DwarfElephantRBStructures\lA6ThetaEqualMu6.h">
<polygon fill="white" stroke="black" points="176.193,-67.5 176.193,-97.5 318.193,-97.5 318.193,-67.5 176.193,-67.5"/>
<text text-anchor="start" x="184.193" y="-85.5" font-family="Helvetica,sans-Serif" font-size="10.00">DwarfElephantRBStructures</text>
<text text-anchor="middle" x="247.193" y="-74.5" font-family="Helvetica,sans-Serif" font-size="10.00">A6ThetaEqualMu6.h</text>
</a>
</g>
</g>
<!-- Node1&#45;&gt;Node17 -->
<g id="edge42" class="edge"><title>Node1&#45;&gt;Node17</title>
<path fill="none" stroke="midnightblue" d="M1695.03,-152.536C1445.09,-147.259 616.457,-127.979 328.241,-97.9792"/>
<polygon fill="midnightblue" stroke="midnightblue" points="328.533,-94.4906 318.218,-96.9075 327.789,-101.451 328.533,-94.4906"/>
</g>
<!-- Node18 -->
<g id="node18" class="node"><title>Node18</title>
<g id="a_node18"><a xlink:href="_dwarf_elephant_r_b_structures_a7_theta_equal_mu7_8h.html" target="_top" xlink:title="DwarfElephantRBStructures\lA7ThetaEqualMu7.h">
<polygon fill="white" stroke="black" points="336.193,-67.5 336.193,-97.5 478.193,-97.5 478.193,-67.5 336.193,-67.5"/>
<text text-anchor="start" x="344.193" y="-85.5" font-family="Helvetica,sans-Serif" font-size="10.00">DwarfElephantRBStructures</text>
<text text-anchor="middle" x="407.193" y="-74.5" font-family="Helvetica,sans-Serif" font-size="10.00">A7ThetaEqualMu7.h</text>
</a>
</g>
</g>
<!-- Node1&#45;&gt;Node18 -->
<g id="edge45" class="edge"><title>Node1&#45;&gt;Node18</title>
<path fill="none" stroke="midnightblue" d="M1695.11,-154.262C1501.35,-154.235 953.159,-149.342 488.491,-98.0327"/>
<polygon fill="midnightblue" stroke="midnightblue" points="488.546,-94.5172 478.22,-96.8894 487.771,-101.474 488.546,-94.5172"/>
</g>
<!-- Node19 -->
<g id="node19" class="node"><title>Node19</title>
<g id="a_node19"><a xlink:href="_dwarf_elephant_r_b_structures_a8_theta_equal_mu8_8h.html" target="_top" xlink:title="DwarfElephantRBStructures\lA8ThetaEqualMu8.h">
<polygon fill="white" stroke="black" points="496.193,-67.5 496.193,-97.5 638.193,-97.5 638.193,-67.5 496.193,-67.5"/>
<text text-anchor="start" x="504.193" y="-85.5" font-family="Helvetica,sans-Serif" font-size="10.00">DwarfElephantRBStructures</text>
<text text-anchor="middle" x="567.193" y="-74.5" font-family="Helvetica,sans-Serif" font-size="10.00">A8ThetaEqualMu8.h</text>
</a>
</g>
</g>
<!-- Node1&#45;&gt;Node19 -->
<g id="edge48" class="edge"><title>Node1&#45;&gt;Node19</title>
<path fill="none" stroke="midnightblue" d="M1695.19,-153.621C1518.42,-151.997 1048.9,-143.487 648.268,-98.0158"/>
<polygon fill="midnightblue" stroke="midnightblue" points="648.556,-94.5259 638.222,-96.8662 647.76,-101.481 648.556,-94.5259"/>
</g>
<!-- Node20 -->
<g id="node20" class="node"><title>Node20</title>
<g id="a_node20"><a xlink:href="_dwarf_elephant_r_b_structures_a9_theta_equal_mu9_8h.html" target="_top" xlink:title="DwarfElephantRBStructures\lA9ThetaEqualMu9.h">
<polygon fill="white" stroke="black" points="656.193,-67.5 656.193,-97.5 798.193,-97.5 798.193,-67.5 656.193,-67.5"/>
<text text-anchor="start" x="664.193" y="-85.5" font-family="Helvetica,sans-Serif" font-size="10.00">DwarfElephantRBStructures</text>
<text text-anchor="middle" x="727.193" y="-74.5" font-family="Helvetica,sans-Serif" font-size="10.00">A9ThetaEqualMu9.h</text>
</a>
</g>
</g>
<!-- Node1&#45;&gt;Node20 -->
<g id="edge51" class="edge"><title>Node1&#45;&gt;Node20</title>
<path fill="none" stroke="midnightblue" d="M1694.97,-152.77C1536.25,-149.419 1145.03,-137.629 808.176,-98.0154"/>
<polygon fill="midnightblue" stroke="midnightblue" points="808.569,-94.5376 798.226,-96.8353 807.744,-101.489 808.569,-94.5376"/>
</g>
<!-- Node21 -->
<g id="node21" class="node"><title>Node21</title>
<g id="a_node21"><a xlink:href="_dwarf_elephant_r_b_structures_a10_theta_equal_mu10_8h.html" target="_top" xlink:title="DwarfElephantRBStructures\lA10ThetaEqualMu10.h">
<polygon fill="white" stroke="black" points="816.193,-67.5 816.193,-97.5 958.193,-97.5 958.193,-67.5 816.193,-67.5"/>
<text text-anchor="start" x="824.193" y="-85.5" font-family="Helvetica,sans-Serif" font-size="10.00">DwarfElephantRBStructures</text>
<text text-anchor="middle" x="887.193" y="-74.5" font-family="Helvetica,sans-Serif" font-size="10.00">A10ThetaEqualMu10.h</text>
</a>
</g>
</g>
<!-- Node1&#45;&gt;Node21 -->
<g id="edge54" class="edge"><title>Node1&#45;&gt;Node21</title>
<path fill="none" stroke="midnightblue" d="M1694.95,-151.593C1556.08,-146.387 1242.13,-131.82 968.362,-98.0527"/>
<polygon fill="midnightblue" stroke="midnightblue" points="968.587,-94.5538 958.231,-96.7921 967.723,-101.5 968.587,-94.5538"/>
</g>
<!-- Node22 -->
<g id="node22" class="node"><title>Node22</title>
<g id="a_node22"><a xlink:href="_dwarf_elephant_r_b_structures_a11_theta_equal_mu11_8h.html" target="_top" xlink:title="DwarfElephantRBStructures\lA11ThetaEqualMu11.h">
<polygon fill="white" stroke="black" points="976.193,-67.5 976.193,-97.5 1118.19,-97.5 1118.19,-67.5 976.193,-67.5"/>
<text text-anchor="start" x="984.193" y="-85.5" font-family="Helvetica,sans-Serif" font-size="10.00">DwarfElephantRBStructures</text>
<text text-anchor="middle" x="1047.19" y="-74.5" font-family="Helvetica,sans-Serif" font-size="10.00">A11ThetaEqualMu11.h</text>
</a>
</g>
</g>
<!-- Node1&#45;&gt;Node22 -->
<g id="edge57" class="edge"><title>Node1&#45;&gt;Node22</title>
<path fill="none" stroke="midnightblue" d="M1694.97,-149.854C1578.03,-142.662 1339.85,-126.027 1128.29,-98.0674"/>
<polygon fill="midnightblue" stroke="midnightblue" points="1128.61,-94.5794 1118.24,-96.7274 1127.69,-101.518 1128.61,-94.5794"/>
</g>
<!-- Node23 -->
<g id="node23" class="node"><title>Node23</title>
<g id="a_node23"><a xlink:href="_dwarf_elephant_r_b_structures_a12_theta_equal_mu12_8h.html" target="_top" xlink:title="DwarfElephantRBStructures\lA12ThetaEqualMu12.h">
<polygon fill="white" stroke="black" points="1136.19,-67.5 1136.19,-97.5 1278.19,-97.5 1278.19,-67.5 1136.19,-67.5"/>
<text text-anchor="start" x="1144.19" y="-85.5" font-family="Helvetica,sans-Serif" font-size="10.00">DwarfElephantRBStructures</text>
<text text-anchor="middle" x="1207.19" y="-74.5" font-family="Helvetica,sans-Serif" font-size="10.00">A12ThetaEqualMu12.h</text>
</a>
</g>
</g>
<!-- Node1&#45;&gt;Node23 -->
<g id="edge60" class="edge"><title>Node1&#45;&gt;Node23</title>
<path fill="none" stroke="midnightblue" d="M1695.04,-147.017C1603.07,-137.795 1438.96,-120.266 1288.6,-98.1519"/>
<polygon fill="midnightblue" stroke="midnightblue" points="1288.66,-94.6231 1278.25,-96.6204 1287.63,-101.548 1288.66,-94.6231"/>
</g>
<!-- Node24 -->
<g id="node24" class="node"><title>Node24</title>
<g id="a_node24"><a xlink:href="_dwarf_elephant_r_b_structures_a13_theta_equal_mu13_8h.html" target="_top" xlink:title="DwarfElephantRBStructures\lA13ThetaEqualMu13.h">
<polygon fill="white" stroke="black" points="1296.19,-67.5 1296.19,-97.5 1438.19,-97.5 1438.19,-67.5 1296.19,-67.5"/>
<text text-anchor="start" x="1304.19" y="-85.5" font-family="Helvetica,sans-Serif" font-size="10.00">DwarfElephantRBStructures</text>
<text text-anchor="middle" x="1367.19" y="-74.5" font-family="Helvetica,sans-Serif" font-size="10.00">A13ThetaEqualMu13.h</text>
</a>
</g>
</g>
<!-- Node1&#45;&gt;Node24 -->
<g id="edge63" class="edge"><title>Node1&#45;&gt;Node24</title>
<path fill="none" stroke="midnightblue" d="M1695.05,-141.503C1632.46,-130.631 1539.13,-114.351 1448.22,-98.1766"/>
<polygon fill="midnightblue" stroke="midnightblue" points="1448.75,-94.7163 1438.29,-96.4092 1447.52,-101.608 1448.75,-94.7163"/>
</g>
<!-- Node25 -->
<g id="node25" class="node"><title>Node25</title>
<g id="a_node25"><a xlink:href="_dwarf_elephant_r_b_structures_a14_theta_equal_mu14_8h.html" target="_top" xlink:title="DwarfElephantRBStructures\lA14ThetaEqualMu14.h">
<polygon fill="white" stroke="black" points="1456.19,-67.5 1456.19,-97.5 1598.19,-97.5 1598.19,-67.5 1456.19,-67.5"/>
<text text-anchor="start" x="1464.19" y="-85.5" font-family="Helvetica,sans-Serif" font-size="10.00">DwarfElephantRBStructures</text>
<text text-anchor="middle" x="1527.19" y="-74.5" font-family="Helvetica,sans-Serif" font-size="10.00">A14ThetaEqualMu14.h</text>
</a>
</g>
</g>
<!-- Node1&#45;&gt;Node25 -->
<g id="edge66" class="edge"><title>Node1&#45;&gt;Node25</title>
<path fill="none" stroke="midnightblue" d="M1700.66,-134.455C1664.42,-123.811 1620.01,-110.765 1585.19,-100.538"/>
<polygon fill="midnightblue" stroke="midnightblue" points="1585.76,-97.0572 1575.18,-97.5968 1583.79,-103.773 1585.76,-97.0572"/>
</g>
<!-- Node4&#45;&gt;Node2 -->
<g id="edge4" class="edge"><title>Node4&#45;&gt;Node2</title>
<path fill="none" stroke="midnightblue" d="M1687.19,-67.396C1687.19,-58.0638 1687.19,-45.7143 1687.19,-35.5173"/>
<polygon fill="midnightblue" stroke="midnightblue" points="1690.69,-35.1945 1687.19,-25.1945 1683.69,-35.1946 1690.69,-35.1945"/>
</g>
<!-- Node4&#45;&gt;Node3 -->
<g id="edge5" class="edge"><title>Node4&#45;&gt;Node3</title>
<path fill="none" stroke="midnightblue" d="M1721.91,-67.396C1745.71,-57.7284 1777.48,-44.8226 1803.07,-34.4262"/>
<polygon fill="midnightblue" stroke="midnightblue" points="1804.6,-37.583 1812.54,-30.5765 1801.96,-31.0977 1804.6,-37.583"/>
</g>
<!-- Node5&#45;&gt;Node2 -->
<g id="edge7" class="edge"><title>Node5&#45;&gt;Node2</title>
<path fill="none" stroke="midnightblue" d="M1812.48,-67.396C1784.15,-55.8901 1744.54,-39.7974 1717.49,-28.8072"/>
<polygon fill="midnightblue" stroke="midnightblue" points="1718.72,-25.5282 1708.13,-25.007 1716.08,-32.0135 1718.72,-25.5282"/>
</g>
<!-- Node5&#45;&gt;Node3 -->
<g id="edge8" class="edge"><title>Node5&#45;&gt;Node3</title>
<path fill="none" stroke="midnightblue" d="M1847.19,-67.396C1847.19,-59.6448 1847.19,-49.8122 1847.19,-40.8601"/>
<polygon fill="midnightblue" stroke="midnightblue" points="1850.69,-40.5765 1847.19,-30.5765 1843.69,-40.5765 1850.69,-40.5765"/>
</g>
<!-- Node6&#45;&gt;Node2 -->
<g id="edge10" class="edge"><title>Node6&#45;&gt;Node2</title>
<path fill="none" stroke="midnightblue" d="M1938.15,-67.476C1878.43,-55.3449 1793.39,-38.0709 1739.25,-27.0737"/>
<polygon fill="midnightblue" stroke="midnightblue" points="1739.68,-23.5894 1729.18,-25.0287 1738.28,-30.4493 1739.68,-23.5894"/>
</g>
<!-- Node6&#45;&gt;Node3 -->
<g id="edge11" class="edge"><title>Node6&#45;&gt;Node3</title>
<path fill="none" stroke="midnightblue" d="M1972.48,-67.396C1948.68,-57.7284 1916.91,-44.8226 1891.32,-34.4262"/>
<polygon fill="midnightblue" stroke="midnightblue" points="1892.43,-31.0977 1881.84,-30.5765 1889.79,-37.583 1892.43,-31.0977"/>
</g>
<!-- Node7&#45;&gt;Node2 -->
<g id="edge13" class="edge"><title>Node7&#45;&gt;Node2</title>
<path fill="none" stroke="midnightblue" d="M2096.13,-68.3861C2093.11,-67.9032 2090.12,-67.4388 2087.19,-67 1952.64,-46.8582 1918.03,-49.1621 1783.19,-31 1771.45,-29.4179 1758.91,-27.6111 1746.91,-25.8222"/>
<polygon fill="midnightblue" stroke="midnightblue" points="1747.39,-22.3549 1736.98,-24.3292 1746.34,-29.2771 1747.39,-22.3549"/>
</g>
<!-- Node7&#45;&gt;Node3 -->
<g id="edge14" class="edge"><title>Node7&#45;&gt;Node3</title>
<path fill="none" stroke="midnightblue" d="M2098.15,-67.476C2042.98,-56.2683 1966.19,-40.6709 1912.12,-29.689"/>
<polygon fill="midnightblue" stroke="midnightblue" points="1912.8,-26.255 1902.3,-27.6943 1911.41,-33.1149 1912.8,-26.255"/>
</g>
<!-- Node8&#45;&gt;Node2 -->
<g id="edge16" class="edge"><title>Node8&#45;&gt;Node2</title>
<path fill="none" stroke="midnightblue" d="M2256.15,-68.236C2253.13,-67.7942 2250.13,-67.3795 2247.19,-67 2042.05,-40.5211 1988.7,-54.4611 1783.19,-31 1771.42,-29.6557 1758.87,-27.956 1746.86,-26.1976"/>
<polygon fill="midnightblue" stroke="midnightblue" points="1747.34,-22.7299 1736.93,-24.7132 1746.3,-29.653 1747.34,-22.7299"/>
</g>
<!-- Node8&#45;&gt;Node3 -->
<g id="edge17" class="edge"><title>Node8&#45;&gt;Node3</title>
<path fill="none" stroke="midnightblue" d="M2256.13,-68.4146C2253.11,-67.924 2250.12,-67.4501 2247.19,-67 2129.67,-48.9439 1991.99,-32.6145 1912.65,-23.6706"/>
<polygon fill="midnightblue" stroke="midnightblue" points="1912.65,-20.1489 1902.32,-22.5111 1911.87,-27.1052 1912.65,-20.1489"/>
</g>
<!-- Node9&#45;&gt;Node2 -->
<g id="edge19" class="edge"><title>Node9&#45;&gt;Node2</title>
<path fill="none" stroke="midnightblue" d="M2416.16,-68.1624C2413.14,-67.7408 2410.14,-67.3503 2407.19,-67 2131.35,-34.1677 2059.49,-59.7746 1783.19,-31 1771.41,-29.7724 1758.85,-28.1253 1746.84,-26.3817"/>
<polygon fill="midnightblue" stroke="midnightblue" points="1747.31,-22.9138 1736.91,-24.9015 1746.28,-29.8374 1747.31,-22.9138"/>
</g>
<!-- Node9&#45;&gt;Node3 -->
<g id="edge20" class="edge"><title>Node9&#45;&gt;Node3</title>
<path fill="none" stroke="midnightblue" d="M2416.15,-68.2824C2413.12,-67.828 2410.13,-67.3978 2407.19,-67 2228.85,-42.8461 2016.95,-27.2907 1912.31,-20.4762"/>
<polygon fill="midnightblue" stroke="midnightblue" points="1912.43,-16.9763 1902.22,-19.8245 1911.98,-23.9618 1912.43,-16.9763"/>
</g>
<!-- Node10&#45;&gt;Node2 -->
<g id="edge22" class="edge"><title>Node10&#45;&gt;Node2</title>
<path fill="none" stroke="midnightblue" d="M2576.17,-68.1187C2573.14,-67.709 2570.14,-67.333 2567.19,-67 2220.59,-27.8086 2130.33,-65.0932 1783.19,-31 1771.4,-29.8416 1758.84,-28.2257 1746.83,-26.491"/>
<polygon fill="midnightblue" stroke="midnightblue" points="1747.3,-23.023 1736.9,-25.0133 1746.27,-29.9468 1747.3,-23.023"/>
</g>
<!-- Node10&#45;&gt;Node3 -->
<g id="edge23" class="edge"><title>Node10&#45;&gt;Node3</title>
<path fill="none" stroke="midnightblue" d="M2576.16,-68.2085C2573.13,-67.7742 2570.13,-67.3686 2567.19,-67 2327.14,-36.9177 2039.64,-23.4865 1912.8,-18.701"/>
<polygon fill="midnightblue" stroke="midnightblue" points="1912.62,-15.1917 1902.49,-18.3177 1912.36,-22.1868 1912.62,-15.1917"/>
</g>
<!-- Node11&#45;&gt;Node2 -->
<g id="edge25" class="edge"><title>Node11&#45;&gt;Node2</title>
<path fill="none" stroke="midnightblue" d="M2736.17,-68.0897C2733.14,-67.688 2730.14,-67.3216 2727.19,-67 2309.81,-21.4467 2201.2,-70.4142 1783.19,-31 1771.26,-29.8751 1758.56,-28.2567 1746.42,-26.5056"/>
<polygon fill="midnightblue" stroke="midnightblue" points="1746.8,-23.0236 1736.39,-25.0115 1745.77,-29.9472 1746.8,-23.0236"/>
</g>
<!-- Node11&#45;&gt;Node3 -->
<g id="edge26" class="edge"><title>Node11&#45;&gt;Node3</title>
<path fill="none" stroke="midnightblue" d="M2736.16,-68.1612C2733.14,-67.7399 2730.14,-67.3499 2727.19,-67 2423.91,-30.9486 2058.64,-20.4156 1912.38,-17.5241"/>
<polygon fill="midnightblue" stroke="midnightblue" points="1912.3,-14.022 1902.23,-17.3289 1912.16,-21.0207 1912.3,-14.022"/>
</g>
<!-- Node12&#45;&gt;Node2 -->
<g id="edge28" class="edge"><title>Node12&#45;&gt;Node2</title>
<path fill="none" stroke="midnightblue" d="M2896.17,-68.0692C2893.14,-67.6731 2890.14,-67.3135 2887.19,-67 2399.02,-15.0833 2272.08,-75.7364 1783.19,-31 1771.26,-29.908 1758.55,-28.3042 1746.42,-26.5572"/>
<polygon fill="midnightblue" stroke="midnightblue" points="1746.8,-23.0751 1736.39,-25.064 1745.77,-29.9988 1746.8,-23.0751"/>
</g>
<!-- Node12&#45;&gt;Node3 -->
<g id="edge29" class="edge"><title>Node12&#45;&gt;Node3</title>
<path fill="none" stroke="midnightblue" d="M2896.17,-68.1285C2893.14,-67.7161 2890.14,-67.3369 2887.19,-67 2520.56,-25.0546 2077.32,-17.8936 1912.8,-16.7136"/>
<polygon fill="midnightblue" stroke="midnightblue" points="1912.39,-13.2109 1902.37,-16.6442 1912.34,-20.2107 1912.39,-13.2109"/>
</g>
<!-- Node13&#45;&gt;Node2 -->
<g id="edge31" class="edge"><title>Node13&#45;&gt;Node2</title>
<path fill="none" stroke="midnightblue" d="M3056.17,-68.0538C3053.14,-67.6619 3050.14,-67.3074 3047.19,-67 2488.22,-8.71912 2342.97,-81.0594 1783.19,-31 1771.13,-29.9209 1758.27,-28.3047 1746.01,-26.5381"/>
<polygon fill="midnightblue" stroke="midnightblue" points="1746.3,-23.0422 1735.89,-25.0273 1745.27,-29.9655 1746.3,-23.0422"/>
</g>
<!-- Node13&#45;&gt;Node3 -->
<g id="edge32" class="edge"><title>Node13&#45;&gt;Node3</title>
<path fill="none" stroke="midnightblue" d="M3056.17,-68.1044C3053.14,-67.6987 3050.14,-67.3274 3047.19,-67 2616.21,-19.1023 2093.54,-15.6985 1912.57,-16.1076"/>
<polygon fill="midnightblue" stroke="midnightblue" points="1912.41,-12.6079 1902.42,-16.1354 1912.43,-19.6079 1912.41,-12.6079"/>
</g>
<!-- Node14&#45;&gt;Node2 -->
<g id="edge34" class="edge"><title>Node14&#45;&gt;Node2</title>
<path fill="none" stroke="midnightblue" d="M3216.17,-68.0419C3213.15,-67.6533 3210.14,-67.3027 3207.19,-67 2577.41,-2.35431 2413.86,-86.3828 1783.19,-31 1771.12,-29.9402 1758.27,-28.3325 1746.01,-26.5681"/>
<polygon fill="midnightblue" stroke="midnightblue" points="1746.3,-23.0721 1735.89,-25.0577 1745.26,-29.9954 1746.3,-23.0721"/>
</g>
<!-- Node14&#45;&gt;Node3 -->
<g id="edge35" class="edge"><title>Node14&#45;&gt;Node3</title>
<path fill="none" stroke="midnightblue" d="M3216.17,-68.086C3213.14,-67.6853 3210.14,-67.3201 3207.19,-67 2951.58,-39.2323 2147.63,-22.1787 1912.43,-17.6914"/>
<polygon fill="midnightblue" stroke="midnightblue" points="1912.39,-14.1901 1902.33,-17.4997 1912.26,-21.1888 1912.39,-14.1901"/>
</g>
<!-- Node15&#45;&gt;Node2 -->
<g id="edge37" class="edge"><title>Node15&#45;&gt;Node2</title>
<path fill="none" stroke="midnightblue" d="M3376.18,-68.0324C3373.15,-67.6464 3370.14,-67.2989 3367.19,-67 2666.6,4.01089 2484.75,-91.7067 1783.19,-31 1770.99,-29.9442 1757.98,-28.3198 1745.61,-26.5345"/>
<polygon fill="midnightblue" stroke="midnightblue" points="1745.8,-23.0246 1735.4,-25.0059 1744.77,-29.9475 1745.8,-23.0246"/>
</g>
<!-- Node15&#45;&gt;Node3 -->
<g id="edge38" class="edge"><title>Node15&#45;&gt;Node3</title>
<path fill="none" stroke="midnightblue" d="M3376.17,-68.0714C3373.14,-67.6747 3370.14,-67.3144 3367.19,-67 3078.62,-36.2209 2164.84,-21.0648 1912.37,-17.3963"/>
<polygon fill="midnightblue" stroke="midnightblue" points="1912.31,-13.8951 1902.26,-17.2503 1912.21,-20.8943 1912.31,-13.8951"/>
</g>
<!-- Node16&#45;&gt;Node2 -->
<g id="edge40" class="edge"><title>Node16&#45;&gt;Node2</title>
<path fill="none" stroke="midnightblue" d="M158.216,-68.0714C161.244,-67.6747 164.246,-67.3144 167.193,-67 457.889,-35.9946 1383.02,-20.8428 1627.47,-17.3172"/>
<polygon fill="midnightblue" stroke="midnightblue" points="1627.63,-20.8154 1637.58,-17.1725 1627.53,-13.8161 1627.63,-20.8154"/>
</g>
<!-- Node16&#45;&gt;Node3 -->
<g id="edge41" class="edge"><title>Node16&#45;&gt;Node3</title>
<path fill="none" stroke="midnightblue" d="M158.212,-68.0326C161.241,-67.6466 164.244,-67.299 167.193,-67 865.573,3.81198 1046.63,-88.9808 1746.19,-31 1757.73,-30.0437 1769.96,-28.6307 1781.78,-27.0564"/>
<polygon fill="midnightblue" stroke="midnightblue" points="1782.6,-30.4759 1792.03,-25.6389 1781.64,-23.5419 1782.6,-30.4759"/>
</g>
<!-- Node17&#45;&gt;Node2 -->
<g id="edge43" class="edge"><title>Node17&#45;&gt;Node2</title>
<path fill="none" stroke="midnightblue" d="M318.217,-68.086C321.245,-67.6853 324.247,-67.3201 327.193,-67 584.844,-39.0104 1399.64,-21.9069 1627.48,-17.5863"/>
<polygon fill="midnightblue" stroke="midnightblue" points="1627.63,-21.0841 1637.57,-17.3962 1627.5,-14.0854 1627.63,-21.0841"/>
</g>
<!-- Node17&#45;&gt;Node3 -->
<g id="edge44" class="edge"><title>Node17&#45;&gt;Node3</title>
<path fill="none" stroke="midnightblue" d="M318.213,-68.0422C321.242,-67.6535 324.245,-67.3028 327.193,-67 954.763,-2.55322 1117.55,-83.9165 1746.19,-31 1757.73,-30.0289 1769.96,-28.6086 1781.77,-27.0317"/>
<polygon fill="midnightblue" stroke="midnightblue" points="1782.6,-30.4512 1792.02,-25.6131 1781.64,-23.5173 1782.6,-30.4512"/>
</g>
<!-- Node18&#45;&gt;Node2 -->
<g id="edge46" class="edge"><title>Node18&#45;&gt;Node2</title>
<path fill="none" stroke="midnightblue" d="M478.219,-68.1044C481.246,-67.6987 484.247,-67.3274 487.193,-67 922.791,-18.5898 1452.04,-15.6307 1627.51,-16.122"/>
<polygon fill="midnightblue" stroke="midnightblue" points="1627.56,-19.622 1637.57,-16.1551 1627.58,-12.6221 1627.56,-19.622"/>
</g>
<!-- Node18&#45;&gt;Node3 -->
<g id="edge47" class="edge"><title>Node18&#45;&gt;Node3</title>
<path fill="none" stroke="midnightblue" d="M478.214,-68.0542C481.242,-67.6622 484.245,-67.3076 487.193,-67 1043.96,-8.91801 1188.46,-78.8525 1746.19,-31 1757.73,-30.0103 1769.96,-28.5809 1781.77,-27.0008"/>
<polygon fill="midnightblue" stroke="midnightblue" points="1782.6,-30.4201 1792.02,-25.5807 1781.64,-23.4864 1782.6,-30.4201"/>
</g>
<!-- Node19&#45;&gt;Node2 -->
<g id="edge49" class="edge"><title>Node19&#45;&gt;Node2</title>
<path fill="none" stroke="midnightblue" d="M638.222,-68.1285C641.248,-67.7161 644.248,-67.3369 647.193,-67 1018.22,-24.552 1467.7,-17.7269 1627.38,-16.6737"/>
<polygon fill="midnightblue" stroke="midnightblue" points="1627.5,-20.1731 1637.48,-16.6123 1627.46,-13.1732 1627.5,-20.1731"/>
</g>
<!-- Node19&#45;&gt;Node3 -->
<g id="edge50" class="edge"><title>Node19&#45;&gt;Node3</title>
<path fill="none" stroke="midnightblue" d="M638.215,-68.0697C641.244,-67.6735 644.246,-67.3137 647.193,-67 1133.16,-15.2822 1259.36,-73.7889 1746.19,-31 1757.73,-29.9863 1769.95,-28.5452 1781.77,-26.9609"/>
<polygon fill="midnightblue" stroke="midnightblue" points="1782.59,-30.3801 1792.02,-25.539 1781.63,-23.4465 1782.59,-30.3801"/>
</g>
<!-- Node20&#45;&gt;Node2 -->
<g id="edge52" class="edge"><title>Node20&#45;&gt;Node2</title>
<path fill="none" stroke="midnightblue" d="M798.226,-68.1612C801.251,-67.7399 804.25,-67.3499 807.193,-67 1114.07,-30.522 1484.4,-20.17 1627.11,-17.4247"/>
<polygon fill="midnightblue" stroke="midnightblue" points="1627.46,-20.9189 1637.39,-17.2326 1627.32,-13.9201 1627.46,-20.9189"/>
</g>
<!-- Node20&#45;&gt;Node3 -->
<g id="edge53" class="edge"><title>Node20&#45;&gt;Node3</title>
<path fill="none" stroke="midnightblue" d="M798.218,-68.0905C801.245,-67.6886 804.247,-67.3219 807.193,-67 1222.36,-21.6455 1330.26,-68.7261 1746.19,-31 1757.72,-29.9542 1769.95,-28.4973 1781.76,-26.9074"/>
<polygon fill="midnightblue" stroke="midnightblue" points="1782.59,-30.3264 1792.01,-25.483 1781.63,-23.393 1782.59,-30.3264"/>
</g>
<!-- Node21&#45;&gt;Node2 -->
<g id="edge55" class="edge"><title>Node21&#45;&gt;Node2</title>
<path fill="none" stroke="midnightblue" d="M958.231,-68.2085C961.255,-67.7742 964.252,-67.3686 967.193,-67 1211.18,-36.4252 1504.17,-23.0511 1627.68,-18.4729"/>
<polygon fill="midnightblue" stroke="midnightblue" points="1627.83,-21.97 1637.69,-18.1074 1627.57,-14.9747 1627.83,-21.97"/>
</g>
<!-- Node21&#45;&gt;Node3 -->
<g id="edge56" class="edge"><title>Node21&#45;&gt;Node3</title>
<path fill="none" stroke="midnightblue" d="M958.221,-68.1197C961.248,-67.7098 964.248,-67.3335 967.193,-67 1311.58,-28.0073 1401.14,-63.6646 1746.19,-31 1757.72,-29.9089 1769.94,-28.4298 1781.76,-26.8321"/>
<polygon fill="midnightblue" stroke="midnightblue" points="1782.58,-30.2507 1792.01,-25.4041 1781.62,-23.3177 1782.58,-30.2507"/>
</g>
<!-- Node22&#45;&gt;Node2 -->
<g id="edge58" class="edge"><title>Node22&#45;&gt;Node2</title>
<path fill="none" stroke="midnightblue" d="M1118.24,-68.2824C1121.26,-67.828 1124.26,-67.3978 1127.19,-67 1308.63,-42.4271 1524.8,-26.7537 1627.42,-20.1295"/>
<polygon fill="midnightblue" stroke="midnightblue" points="1627.83,-23.6105 1637.59,-19.479 1627.38,-16.6248 1627.83,-23.6105"/>
</g>
<!-- Node22&#45;&gt;Node3 -->
<g id="edge59" class="edge"><title>Node22&#45;&gt;Node3</title>
<path fill="none" stroke="midnightblue" d="M1118.23,-68.1641C1121.25,-67.742 1124.25,-67.351 1127.19,-67 1400.83,-34.3664 1472,-58.6053 1746.19,-31 1757.71,-29.8403 1769.93,-28.3276 1781.75,-26.7179"/>
<polygon fill="midnightblue" stroke="midnightblue" points="1782.57,-30.136 1791.99,-25.2847 1781.61,-23.2035 1782.57,-30.136"/>
</g>
<!-- Node23&#45;&gt;Node2 -->
<g id="edge61" class="edge"><title>Node23&#45;&gt;Node2</title>
<path fill="none" stroke="midnightblue" d="M1278.26,-68.4146C1281.28,-67.924 1284.26,-67.4501 1287.19,-67 1407.53,-48.5116 1549.01,-31.8335 1627.34,-23.041"/>
<polygon fill="midnightblue" stroke="midnightblue" points="1627.95,-26.4944 1637.5,-21.9049 1627.17,-19.5378 1627.95,-26.4944"/>
</g>
<!-- Node23&#45;&gt;Node3 -->
<g id="edge62" class="edge"><title>Node23&#45;&gt;Node3</title>
<path fill="none" stroke="midnightblue" d="M1278.24,-68.2391C1281.26,-67.7965 1284.25,-67.3807 1287.19,-67 1490.13,-40.7195 1542.81,-53.5511 1746.19,-31 1757.7,-29.7241 1769.91,-28.1546 1781.73,-26.5246"/>
<polygon fill="midnightblue" stroke="midnightblue" points="1782.56,-29.942 1791.97,-25.0825 1781.58,-23.0103 1782.56,-29.942"/>
</g>
<!-- Node24&#45;&gt;Node2 -->
<g id="edge64" class="edge"><title>Node24&#45;&gt;Node2</title>
<path fill="none" stroke="midnightblue" d="M1436.23,-67.476C1495.96,-55.3449 1581,-38.0709 1635.14,-27.0737"/>
<polygon fill="midnightblue" stroke="midnightblue" points="1636.1,-30.4493 1645.21,-25.0287 1634.71,-23.5894 1636.1,-30.4493"/>
</g>
<!-- Node24&#45;&gt;Node3 -->
<g id="edge65" class="edge"><title>Node24&#45;&gt;Node3</title>
<path fill="none" stroke="midnightblue" d="M1438.26,-68.3933C1441.27,-67.9085 1444.26,-67.4417 1447.19,-67 1579.55,-47.0556 1613.5,-48.5116 1746.19,-31 1757.86,-29.461 1770.26,-27.7447 1782.25,-26.0467"/>
<polygon fill="midnightblue" stroke="midnightblue" points="1782.78,-29.5061 1792.19,-24.629 1781.79,-22.5763 1782.78,-29.5061"/>
</g>
<!-- Node25&#45;&gt;Node2 -->
<g id="edge67" class="edge"><title>Node25&#45;&gt;Node2</title>
<path fill="none" stroke="midnightblue" d="M1561.91,-67.396C1590.23,-55.8901 1629.85,-39.7974 1656.9,-28.8072"/>
<polygon fill="midnightblue" stroke="midnightblue" points="1658.31,-32.0135 1666.25,-25.007 1655.67,-25.5282 1658.31,-32.0135"/>
</g>
<!-- Node25&#45;&gt;Node3 -->
<g id="edge68" class="edge"><title>Node25&#45;&gt;Node3</title>
<path fill="none" stroke="midnightblue" d="M1596.23,-67.476C1651.41,-56.2683 1728.2,-40.6709 1782.26,-29.689"/>
<polygon fill="midnightblue" stroke="midnightblue" points="1782.98,-33.1149 1792.08,-27.6943 1781.59,-26.255 1782.98,-33.1149"/>
</g>
</g>
</svg>
