<?xml version="1.0" encoding="UTF-8" standalone="no"?>
<!DOCTYPE svg PUBLIC "-//W3C//DTD SVG 1.1//EN"
 "http://www.w3.org/Graphics/SVG/1.1/DTD/svg11.dtd">
<!-- Generated by graphviz version 2.38.0 (20140413.2041)
 -->
<!-- Title: include/bcs/DwarfElephantRBNodalBC.h Pages: 1 -->
<!--zoomable 307 -->
<svg id="main" version="1.1" xmlns="http://www.w3.org/2000/svg" xmlns:xlink="http://www.w3.org/1999/xlink" xml:space="preserve" onload="init(evt)">
<style type="text/css"><![CDATA[
.edge:hover path { stroke: red; }
.edge:hover polygon { stroke: red; fill: red; }
]]></style>
<script type="text/javascript"><![CDATA[
var edges = document.getElementsByTagName('g');
if (edges && edges.length) {
  for (var i=0;i<edges.length;i++) {
    if (edges[i].id.substr(0,4)=='edge') {
      edges[i].setAttribute('class','edge');
    }
  }
}
]]></script>
        <defs>
                <circle id="rim" cx="0" cy="0" r="7"/>
                <circle id="rim2" cx="0" cy="0" r="3.5"/>
                <g id="zoomPlus">
                        <use xlink:href="#rim" fill="#404040">
                                <set attributeName="fill" to="#808080" begin="zoomplus.mouseover" end="zoomplus.mouseout"/>
                        </use>
                        <path d="M-4,0h8M0,-4v8" fill="none" stroke="white" stroke-width="1.5" pointer-events="none"/>
                </g>
                <g id="zoomMin">
                        <use xlink:href="#rim" fill="#404040">
                                <set attributeName="fill" to="#808080" begin="zoomminus.mouseover" end="zoomminus.mouseout"/>
                        </use>
                        <path d="M-4,0h8" fill="none" stroke="white" stroke-width="1.5" pointer-events="none"/>
                </g>
                <g id="dirArrow">
                        <path fill="none" stroke="white" stroke-width="1.5" d="M0,-3.0v7 M-2.5,-0.5L0,-3.0L2.5,-0.5"/>
                </g>
               <g id="resetDef">
                       <use xlink:href="#rim2" fill="#404040">
                               <set attributeName="fill" to="#808080" begin="reset.mouseover" end="reset.mouseout"/>
                       </use>
               </g>
        </defs>

<script type="text/javascript">
var viewWidth = 922;
var viewHeight = 307;
var sectionId = 'dynsection-1';
</script>
<script xlink:href="svgpan.js"/>
<svg id="graph" class="graph">
<g id="viewport">
<title>include/bcs/DwarfElephantRBNodalBC.h</title>
<polygon fill="white" stroke="none" points="-4,4 -4,-303 918.335,-303 918.335,4 -4,4"/>
<!-- Node1 -->
<g id="node1" class="node"><title>Node1</title>
<polygon fill="#bfbfbf" stroke="black" points="488,-268.5 488,-298.5 623,-298.5 623,-268.5 488,-268.5"/>
<text text-anchor="start" x="496" y="-286.5" font-family="Helvetica,sans-Serif" font-size="10.00">include/bcs/DwarfElephant</text>
<text text-anchor="middle" x="555.5" y="-275.5" font-family="Helvetica,sans-Serif" font-size="10.00">RBNodalBC.h</text>
</g>
<!-- Node2 -->
<g id="node2" class="node"><title>Node2</title>
<g id="a_node2"><a xlink:href="_dwarf_elephant_r_b_nodal_b_c_8_c.html" target="_top" xlink:title="src/bcs/DwarfElephantRBNodalBC.C">
<polygon fill="white" stroke="black" points="289.5,-207 289.5,-226 469.5,-226 469.5,-207 289.5,-207"/>
<text text-anchor="middle" x="379.5" y="-214" font-family="Helvetica,sans-Serif" font-size="10.00">src/bcs/DwarfElephantRBNodalBC.C</text>
</a>
</g>
</g>
<!-- Node1&#45;&gt;Node2 -->
<g id="edge1" class="edge"><title>Node1&#45;&gt;Node2</title>
<path fill="none" stroke="midnightblue" d="M507.53,-264.784C473.405,-252.181 429.073,-235.808 402.534,-226.007"/>
<polygon fill="midnightblue" stroke="midnightblue" points="506.717,-268.215 517.311,-268.396 509.143,-261.648 506.717,-268.215"/>
</g>
<!-- Node3 -->
<g id="node3" class="node"><title>Node3</title>
<g id="a_node3"><a xlink:href="_dwarf_elephant_r_b_dirichlet_b_c_8h.html" target="_top" xlink:title="include/bcs/DwarfElephant\lRBDirichletBC.h">
<polygon fill="white" stroke="black" points="488,-201.5 488,-231.5 623,-231.5 623,-201.5 488,-201.5"/>
<text text-anchor="start" x="496" y="-219.5" font-family="Helvetica,sans-Serif" font-size="10.00">include/bcs/DwarfElephant</text>
<text text-anchor="middle" x="555.5" y="-208.5" font-family="Helvetica,sans-Serif" font-size="10.00">RBDirichletBC.h</text>
</a>
</g>
</g>
<!-- Node1&#45;&gt;Node3 -->
<g id="edge2" class="edge"><title>Node1&#45;&gt;Node3</title>
<path fill="none" stroke="midnightblue" d="M555.5,-258.108C555.5,-249.154 555.5,-239.323 555.5,-231.577"/>
<polygon fill="midnightblue" stroke="midnightblue" points="552,-258.396 555.5,-268.396 559,-258.396 552,-258.396"/>
</g>
<!-- Node12 -->
<g id="node12" class="node"><title>Node12</title>
<g id="a_node12"><a xlink:href="_dwarf_elephant_r_b_function_dirichlet_b_c_8h.html" target="_top" xlink:title="include/bcs/DwarfElephant\lRBFunctionDirichletBC.h">
<polygon fill="white" stroke="black" points="747,-201.5 747,-231.5 882,-231.5 882,-201.5 747,-201.5"/>
<text text-anchor="start" x="755" y="-219.5" font-family="Helvetica,sans-Serif" font-size="10.00">include/bcs/DwarfElephant</text>
<text text-anchor="middle" x="814.5" y="-208.5" font-family="Helvetica,sans-Serif" font-size="10.00">RBFunctionDirichletBC.h</text>
</a>
</g>
</g>
<!-- Node1&#45;&gt;Node12 -->
<g id="edge13" class="edge"><title>Node1&#45;&gt;Node12</title>
<path fill="none" stroke="midnightblue" d="M621.308,-265.984C663.613,-255.367 717.992,-241.72 758.273,-231.611"/>
<polygon fill="midnightblue" stroke="midnightblue" points="620.228,-262.647 611.38,-268.476 621.931,-269.436 620.228,-262.647"/>
</g>
<!-- Node4 -->
<g id="node4" class="node"><title>Node4</title>
<g id="a_node4"><a xlink:href="_dwarf_elephant_app_8_c.html" target="_top" xlink:title="src/base/DwarfElephantApp.C">
<polygon fill="white" stroke="black" points="463.5,-6 463.5,-25 613.5,-25 613.5,-6 463.5,-6"/>
<text text-anchor="middle" x="538.5" y="-13" font-family="Helvetica,sans-Serif" font-size="10.00">src/base/DwarfElephantApp.C</text>
</a>
</g>
</g>
<!-- Node3&#45;&gt;Node4 -->
<g id="edge3" class="edge"><title>Node3&#45;&gt;Node4</title>
<path fill="none" stroke="midnightblue" d="M531.496,-194.143C523.913,-185.882 516.479,-175.81 512.5,-165 493.786,-114.156 522.335,-48.4433 533.95,-25.1506"/>
<polygon fill="midnightblue" stroke="midnightblue" points="529.196,-196.796 538.703,-201.473 534.188,-191.889 529.196,-196.796"/>
</g>
<!-- Node5 -->
<g id="node5" class="node"><title>Node5</title>
<g id="a_node5"><a xlink:href="_dwarf_elephant_r_b_dirichlet_b_c_8_c.html" target="_top" xlink:title="src/bcs/DwarfElephantRBDirichletBC.C">
<polygon fill="white" stroke="black" points="521.5,-140 521.5,-159 711.5,-159 711.5,-140 521.5,-140"/>
<text text-anchor="middle" x="616.5" y="-147" font-family="Helvetica,sans-Serif" font-size="10.00">src/bcs/DwarfElephantRBDirichletBC.C</text>
</a>
</g>
</g>
<!-- Node3&#45;&gt;Node5 -->
<g id="edge4" class="edge"><title>Node3&#45;&gt;Node5</title>
<path fill="none" stroke="midnightblue" d="M575.68,-193.997C586.814,-182.132 600.029,-168.052 608.341,-159.195"/>
<polygon fill="midnightblue" stroke="midnightblue" points="573.027,-191.709 568.736,-201.396 578.131,-196.499 573.027,-191.709"/>
</g>
<!-- Node6 -->
<g id="node6" class="node"><title>Node6</title>
<g id="a_node6"><a xlink:href="_dwarf_elephant_r_b_preset_nodal_b_c_8h.html" target="_top" xlink:title="include/bcs/DwarfElephant\lRBPresetNodalBC.h">
<polygon fill="white" stroke="black" points="253,-134.5 253,-164.5 388,-164.5 388,-134.5 253,-134.5"/>
<text text-anchor="start" x="261" y="-152.5" font-family="Helvetica,sans-Serif" font-size="10.00">include/bcs/DwarfElephant</text>
<text text-anchor="middle" x="320.5" y="-141.5" font-family="Helvetica,sans-Serif" font-size="10.00">RBPresetNodalBC.h</text>
</a>
</g>
</g>
<!-- Node3&#45;&gt;Node6 -->
<g id="edge5" class="edge"><title>Node3&#45;&gt;Node6</title>
<path fill="none" stroke="midnightblue" d="M494.816,-198.715C456.573,-188.137 407.757,-174.635 371.516,-164.611"/>
<polygon fill="midnightblue" stroke="midnightblue" points="494.227,-202.183 504.798,-201.476 496.093,-195.437 494.227,-202.183"/>
</g>
<!-- Node7 -->
<g id="node7" class="node"><title>Node7</title>
<g id="a_node7"><a xlink:href="_dwarf_elephant_r_b_preset_nodal_b_c_8_c.html" target="_top" xlink:title="src/bcs/DwarfElephantRBPreset\lNodalBC.C">
<polygon fill="white" stroke="black" points="0,-67.5 0,-97.5 159,-97.5 159,-67.5 0,-67.5"/>
<text text-anchor="start" x="8" y="-85.5" font-family="Helvetica,sans-Serif" font-size="10.00">src/bcs/DwarfElephantRBPreset</text>
<text text-anchor="middle" x="79.5" y="-74.5" font-family="Helvetica,sans-Serif" font-size="10.00">NodalBC.C</text>
</a>
</g>
</g>
<!-- Node6&#45;&gt;Node7 -->
<g id="edge6" class="edge"><title>Node6&#45;&gt;Node7</title>
<path fill="none" stroke="midnightblue" d="M258.766,-131.85C219.474,-121.252 169.143,-107.677 131.819,-97.6109"/>
<polygon fill="midnightblue" stroke="midnightblue" points="257.937,-135.251 268.503,-134.476 259.76,-128.493 257.937,-135.251"/>
</g>
<!-- Node8 -->
<g id="node8" class="node"><title>Node8</title>
<g id="a_node8"><a xlink:href="_dwarf_elephant_r_b_function_preset_b_c_8h.html" target="_top" xlink:title="include/bcs/DwarfElephant\lRBFunctionPresetBC.h">
<polygon fill="white" stroke="black" points="177,-67.5 177,-97.5 312,-97.5 312,-67.5 177,-67.5"/>
<text text-anchor="start" x="185" y="-85.5" font-family="Helvetica,sans-Serif" font-size="10.00">include/bcs/DwarfElephant</text>
<text text-anchor="middle" x="244.5" y="-74.5" font-family="Helvetica,sans-Serif" font-size="10.00">RBFunctionPresetBC.h</text>
</a>
</g>
</g>
<!-- Node6&#45;&gt;Node8 -->
<g id="edge7" class="edge"><title>Node6&#45;&gt;Node8</title>
<path fill="none" stroke="midnightblue" d="M296.394,-127.883C284.845,-118.005 271.31,-106.429 260.959,-97.5765"/>
<polygon fill="midnightblue" stroke="midnightblue" points="294.135,-130.556 304.009,-134.396 298.684,-125.236 294.135,-130.556"/>
</g>
<!-- Node10 -->
<g id="node10" class="node"><title>Node10</title>
<g id="a_node10"><a xlink:href="_dwarf_elephant_r_b_preset_b_c_8h.html" target="_top" xlink:title="include/bcs/DwarfElephant\lRBPresetBC.h">
<polygon fill="white" stroke="black" points="330,-67.5 330,-97.5 465,-97.5 465,-67.5 330,-67.5"/>
<text text-anchor="start" x="338" y="-85.5" font-family="Helvetica,sans-Serif" font-size="10.00">include/bcs/DwarfElephant</text>
<text text-anchor="middle" x="397.5" y="-74.5" font-family="Helvetica,sans-Serif" font-size="10.00">RBPresetBC.h</text>
</a>
</g>
</g>
<!-- Node6&#45;&gt;Node10 -->
<g id="edge10" class="edge"><title>Node6&#45;&gt;Node10</title>
<path fill="none" stroke="midnightblue" d="M344.923,-127.883C356.624,-118.005 370.338,-106.429 380.825,-97.5765"/>
<polygon fill="midnightblue" stroke="midnightblue" points="342.592,-125.271 337.208,-134.396 347.107,-130.62 342.592,-125.271"/>
</g>
<!-- Node8&#45;&gt;Node4 -->
<g id="edge8" class="edge"><title>Node8&#45;&gt;Node4</title>
<path fill="none" stroke="midnightblue" d="M317.74,-65.3074C375.501,-52.5371 453.771,-35.2327 499.924,-25.0287"/>
<polygon fill="midnightblue" stroke="midnightblue" points="316.94,-61.8997 307.932,-67.476 318.451,-68.7346 316.94,-61.8997"/>
</g>
<!-- Node9 -->
<g id="node9" class="node"><title>Node9</title>
<g id="a_node9"><a xlink:href="_dwarf_elephant_r_b_function_preset_b_c_8_c.html" target="_top" xlink:title="src/bcs/DwarfElephantRBFunction\lPresetBC.C">
<polygon fill="white" stroke="black" points="75,-0.5 75,-30.5 244,-30.5 244,-0.5 75,-0.5"/>
<text text-anchor="start" x="83" y="-18.5" font-family="Helvetica,sans-Serif" font-size="10.00">src/bcs/DwarfElephantRBFunction</text>
<text text-anchor="middle" x="159.5" y="-7.5" font-family="Helvetica,sans-Serif" font-size="10.00">PresetBC.C</text>
</a>
</g>
</g>
<!-- Node8&#45;&gt;Node9 -->
<g id="edge9" class="edge"><title>Node8&#45;&gt;Node9</title>
<path fill="none" stroke="midnightblue" d="M217.912,-61.1677C204.914,-51.2283 189.596,-39.5144 177.908,-30.5765"/>
<polygon fill="midnightblue" stroke="midnightblue" points="215.987,-64.1017 226.056,-67.396 220.239,-58.5412 215.987,-64.1017"/>
</g>
<!-- Node10&#45;&gt;Node4 -->
<g id="edge11" class="edge"><title>Node10&#45;&gt;Node4</title>
<path fill="none" stroke="midnightblue" d="M437.346,-63.1315C464.485,-50.6205 499.15,-34.6399 520.046,-25.007"/>
<polygon fill="midnightblue" stroke="midnightblue" points="435.711,-60.0309 428.095,-67.396 438.642,-66.3879 435.711,-60.0309"/>
</g>
<!-- Node11 -->
<g id="node11" class="node"><title>Node11</title>
<g id="a_node11"><a xlink:href="_dwarf_elephant_r_b_preset_b_c_8_c.html" target="_top" xlink:title="src/bcs/DwarfElephantRBPresetBC.C">
<polygon fill="white" stroke="black" points="262,-6 262,-25 445,-25 445,-6 262,-6"/>
<text text-anchor="middle" x="353.5" y="-13" font-family="Helvetica,sans-Serif" font-size="10.00">src/bcs/DwarfElephantRBPresetBC.C</text>
</a>
</g>
</g>
<!-- Node10&#45;&gt;Node11 -->
<g id="edge12" class="edge"><title>Node10&#45;&gt;Node11</title>
<path fill="none" stroke="midnightblue" d="M382.252,-58.9745C374.371,-47.332 365.21,-33.7985 359.386,-25.1945"/>
<polygon fill="midnightblue" stroke="midnightblue" points="379.449,-61.0769 387.953,-67.396 385.245,-57.1529 379.449,-61.0769"/>
</g>
<!-- Node12&#45;&gt;Node4 -->
<g id="edge14" class="edge"><title>Node12&#45;&gt;Node4</title>
<path fill="none" stroke="midnightblue" d="M871.706,-197.033C886.222,-189.475 900.076,-179.089 908.5,-165 915.571,-153.175 916.635,-145.119 908.5,-134 870.245,-81.7144 680.78,-41.6933 588.79,-25.0033"/>
<polygon fill="midnightblue" stroke="midnightblue" points="870.132,-193.906 862.624,-201.382 873.155,-200.219 870.132,-193.906"/>
</g>
<!-- Node13 -->
<g id="node13" class="node"><title>Node13</title>
<g id="a_node13"><a xlink:href="_dwarf_elephant_r_b_function_dirichlet_b_c_8_c.html" target="_top" xlink:title="src/bcs/DwarfElephantRBFunction\lDirichletBC.C">
<polygon fill="white" stroke="black" points="730,-134.5 730,-164.5 899,-164.5 899,-134.5 730,-134.5"/>
<text text-anchor="start" x="738" y="-152.5" font-family="Helvetica,sans-Serif" font-size="10.00">src/bcs/DwarfElephantRBFunction</text>
<text text-anchor="middle" x="814.5" y="-141.5" font-family="Helvetica,sans-Serif" font-size="10.00">DirichletBC.C</text>
</a>
</g>
</g>
<!-- Node12&#45;&gt;Node13 -->
<g id="edge15" class="edge"><title>Node12&#45;&gt;Node13</title>
<path fill="none" stroke="midnightblue" d="M814.5,-191.108C814.5,-182.154 814.5,-172.323 814.5,-164.577"/>
<polygon fill="midnightblue" stroke="midnightblue" points="811,-191.396 814.5,-201.396 818,-191.396 811,-191.396"/>
</g>
</g>
</svg>
        <g id="navigator" transform="translate(0 0)" fill="#404254">
                <rect fill="#f2f5e9" fill-opacity="0.5" stroke="#606060" stroke-width=".5" x="0" y="0" width="60" height="60"/>
                <use id="zoomplus" xlink:href="#zoomPlus" x="17" y="9" onmousedown="handleZoom(evt,'in')"/>
                <use id="zoomminus" xlink:href="#zoomMin" x="42" y="9" onmousedown="handleZoom(evt,'out')"/>
                <use id="reset" xlink:href="#resetDef" x="30" y="36" onmousedown="handleReset()"/>
                <g id="arrowUp" xlink:href="#dirArrow" transform="translate(30 24)" onmousedown="handlePan(0,-1)">
                  <use xlink:href="#rim" fill="#404040">
                        <set attributeName="fill" to="#808080" begin="arrowUp.mouseover" end="arrowUp.mouseout"/>
                  </use>
                  <path fill="none" stroke="white" stroke-width="1.5" d="M0,-3.0v7 M-2.5,-0.5L0,-3.0L2.5,-0.5"/>
                </g>
                <g id="arrowRight" xlink:href="#dirArrow" transform="rotate(90) translate(36 -43)" onmousedown="handlePan(1,0)">
                  <use xlink:href="#rim" fill="#404040">
                        <set attributeName="fill" to="#808080" begin="arrowRight.mouseover" end="arrowRight.mouseout"/>
                  </use>
                  <path fill="none" stroke="white" stroke-width="1.5" d="M0,-3.0v7 M-2.5,-0.5L0,-3.0L2.5,-0.5"/>
                </g>
                <g id="arrowDown" xlink:href="#dirArrow" transform="rotate(180) translate(-30 -48)" onmousedown="handlePan(0,1)">
                  <use xlink:href="#rim" fill="#404040">
                        <set attributeName="fill" to="#808080" begin="arrowDown.mouseover" end="arrowDown.mouseout"/>
                  </use>
                  <path fill="none" stroke="white" stroke-width="1.5" d="M0,-3.0v7 M-2.5,-0.5L0,-3.0L2.5,-0.5"/>
                </g>
                <g id="arrowLeft" xlink:href="#dirArrow" transform="rotate(270) translate(-36 17)" onmousedown="handlePan(-1,0)">
                  <use xlink:href="#rim" fill="#404040">
                        <set attributeName="fill" to="#808080" begin="arrowLeft.mouseover" end="arrowLeft.mouseout"/>
                  </use>
                  <path fill="none" stroke="white" stroke-width="1.5" d="M0,-3.0v7 M-2.5,-0.5L0,-3.0L2.5,-0.5"/>
                </g>
        </g>
        <svg viewBox="0 0 15 15" width="100%" height="30px" preserveAspectRatio="xMaxYMin meet">
         <g id="arrow_out" transform="scale(0.3 0.3)">
          <a xlink:href="_dwarf_elephant_r_b_nodal_b_c_8h__dep__incl_org.svg" target="_base">
           <rect id="button" ry="5" rx="5" y="6" x="6" height="38" width="38"
                fill="#f2f5e9" fill-opacity="0.5" stroke="#606060" stroke-width="1.0"/>
           <path id="arrow"
             d="M 11.500037,31.436501 C 11.940474,20.09759 22.043105,11.32322 32.158766,21.979434 L 37.068811,17.246167 C 37.068811,17.246167 37.088388,32 37.088388,32 L 22.160133,31.978069 C 22.160133,31.978069 26.997745,27.140456 26.997745,27.140456 C 18.528582,18.264221 13.291696,25.230495 11.500037,31.436501 z"
             style="fill:#404040;"/>
          </a>
         </g>
        </svg>
</svg>
