<?xml version="1.0" encoding="UTF-8" standalone="no"?>
<!DOCTYPE svg PUBLIC "-//W3C//DTD SVG 1.1//EN"
 "http://www.w3.org/Graphics/SVG/1.1/DTD/svg11.dtd">
<!-- Generated by graphviz version 2.38.0 (20140413.2041)
 -->
<!-- Title: include/bcs/DwarfElephantRBFunctionPenaltyDirichletBC.h Pages: 1 -->
<svg width="346pt" height="106pt"
 viewBox="0.00 0.00 345.50 106.00" xmlns="http://www.w3.org/2000/svg" xmlns:xlink="http://www.w3.org/1999/xlink">
<g id="graph0" class="graph" transform="scale(1 1) rotate(0) translate(4 102)">
<title>include/bcs/DwarfElephantRBFunctionPenaltyDirichletBC.h</title>
<polygon fill="white" stroke="none" points="-4,4 -4,-102 341.5,-102 341.5,4 -4,4"/>
<!-- Node1 -->
<g id="node1" class="node"><title>Node1</title>
<polygon fill="#bfbfbf" stroke="black" points="84,-67.5 84,-97.5 244,-97.5 244,-67.5 84,-67.5"/>
<text text-anchor="start" x="92" y="-85.5" font-family="Helvetica,sans-Serif" font-size="10.00">include/bcs/DwarfElephant</text>
<text text-anchor="middle" x="164" y="-74.5" font-family="Helvetica,sans-Serif" font-size="10.00">RBFunctionPenaltyDirichletBC.h</text>
</g>
<!-- Node2 -->
<g id="node2" class="node"><title>Node2</title>
<g id="a_node2"><a xlink:href="_dwarf_elephant_app_8_c.html" target="_top" xlink:title="src/base/DwarfElephantApp.C">
<polygon fill="white" stroke="black" points="0,-6 0,-25 150,-25 150,-6 0,-6"/>
<text text-anchor="middle" x="75" y="-13" font-family="Helvetica,sans-Serif" font-size="10.00">src/base/DwarfElephantApp.C</text>
</a>
</g>
</g>
<!-- Node1&#45;&gt;Node2 -->
<g id="edge1" class="edge"><title>Node1&#45;&gt;Node2</title>
<path fill="none" stroke="midnightblue" d="M136.349,-61.3056C119.637,-49.0999 99.2042,-34.1772 86.648,-25.007"/>
<polygon fill="midnightblue" stroke="midnightblue" points="134.548,-64.3245 144.688,-67.396 138.677,-58.6716 134.548,-64.3245"/>
</g>
<!-- Node3 -->
<g id="node3" class="node"><title>Node3</title>
<g id="a_node3"><a xlink:href="_dwarf_elephant_r_b_function_penalty_dirichlet_b_c_8_c.html" target="_top" xlink:title="src/bcs/DwarfElephantRBFunction\lPenaltyDirichletBC.C">
<polygon fill="white" stroke="black" points="168.5,-0.5 168.5,-30.5 337.5,-30.5 337.5,-0.5 168.5,-0.5"/>
<text text-anchor="start" x="176.5" y="-18.5" font-family="Helvetica,sans-Serif" font-size="10.00">src/bcs/DwarfElephantRBFunction</text>
<text text-anchor="middle" x="253" y="-7.5" font-family="Helvetica,sans-Serif" font-size="10.00">PenaltyDirichletBC.C</text>
</a>
</g>
</g>
<!-- Node1&#45;&gt;Node3 -->
<g id="edge2" class="edge"><title>Node1&#45;&gt;Node3</title>
<path fill="none" stroke="midnightblue" d="M191.452,-61.4511C205.143,-51.4517 221.371,-39.5995 233.726,-30.5765"/>
<polygon fill="midnightblue" stroke="midnightblue" points="189.323,-58.6716 183.312,-67.396 193.452,-64.3245 189.323,-58.6716"/>
</g>
</g>
</svg>
