<?xml version="1.0" encoding="UTF-8" standalone="no"?>
<!DOCTYPE svg PUBLIC "-//W3C//DTD SVG 1.1//EN"
 "http://www.w3.org/Graphics/SVG/1.1/DTD/svg11.dtd">
<!-- Generated by graphviz version 2.38.0 (20140413.2041)
 -->
<!-- Title: include/kernels/DwarfElephantFELiftingFunctionKernel.h Pages: 1 -->
<svg width="160pt" height="95pt"
 viewBox="0.00 0.00 160.00 95.00" xmlns="http://www.w3.org/2000/svg" xmlns:xlink="http://www.w3.org/1999/xlink">
<g id="graph0" class="graph" transform="scale(1 1) rotate(0) translate(4 91)">
<title>include/kernels/DwarfElephantFELiftingFunctionKernel.h</title>
<polygon fill="white" stroke="none" points="-4,4 -4,-91 156,-91 156,4 -4,4"/>
<!-- Node1 -->
<g id="node1" class="node"><title>Node1</title>
<polygon fill="#bfbfbf" stroke="black" points="0,-56.5 0,-86.5 152,-86.5 152,-56.5 0,-56.5"/>
<text text-anchor="start" x="8" y="-74.5" font-family="Helvetica,sans-Serif" font-size="10.00">include/kernels/DwarfElephant</text>
<text text-anchor="middle" x="76" y="-63.5" font-family="Helvetica,sans-Serif" font-size="10.00">FELiftingFunctionKernel.h</text>
</g>
<!-- Node2 -->
<g id="node2" class="node"><title>Node2</title>
<polygon fill="white" stroke="#bfbfbf" points="3,-0.5 3,-19.5 67,-19.5 67,-0.5 3,-0.5"/>
<text text-anchor="middle" x="35" y="-7.5" font-family="Helvetica,sans-Serif" font-size="10.00">Diffusion.h</text>
</g>
<!-- Node1&#45;&gt;Node2 -->
<g id="edge1" class="edge"><title>Node1&#45;&gt;Node2</title>
<path fill="none" stroke="midnightblue" d="M66.2836,-56.3993C60.4486,-47.9315 52.9843,-37.0991 46.8103,-28.1393"/>
<polygon fill="midnightblue" stroke="midnightblue" points="49.522,-25.9062 40.9659,-19.6578 43.758,-29.8781 49.522,-25.9062"/>
</g>
<!-- Node3 -->
<g id="node3" class="node"><title>Node3</title>
<polygon fill="white" stroke="#bfbfbf" points="85.5,-0.5 85.5,-19.5 148.5,-19.5 148.5,-0.5 85.5,-0.5"/>
<text text-anchor="middle" x="117" y="-7.5" font-family="Helvetica,sans-Serif" font-size="10.00">Function.h</text>
</g>
<!-- Node1&#45;&gt;Node3 -->
<g id="edge2" class="edge"><title>Node1&#45;&gt;Node3</title>
<path fill="none" stroke="midnightblue" d="M85.7164,-56.3993C91.5514,-47.9315 99.0157,-37.0991 105.19,-28.1393"/>
<polygon fill="midnightblue" stroke="midnightblue" points="108.242,-29.8781 111.034,-19.6578 102.478,-25.9062 108.242,-29.8781"/>
</g>
</g>
</svg>
