<?xml version="1.0" encoding="UTF-8" standalone="no"?>
<!DOCTYPE svg PUBLIC "-//W3C//DTD SVG 1.1//EN"
 "http://www.w3.org/Graphics/SVG/1.1/DTD/svg11.dtd">
<!-- Generated by graphviz version 2.38.0 (20140413.2041)
 -->
<!-- Title: include/functions/DwarfElephantInitialConditionFileReader.h Pages: 1 -->
<svg width="485pt" height="106pt"
 viewBox="0.00 0.00 484.50 106.00" xmlns="http://www.w3.org/2000/svg" xmlns:xlink="http://www.w3.org/1999/xlink">
<g id="graph0" class="graph" transform="scale(1 1) rotate(0) translate(4 102)">
<title>include/functions/DwarfElephantInitialConditionFileReader.h</title>
<polygon fill="white" stroke="none" points="-4,4 -4,-102 480.5,-102 480.5,4 -4,4"/>
<!-- Node1 -->
<g id="node1" class="node"><title>Node1</title>
<polygon fill="#bfbfbf" stroke="black" points="159.5,-67.5 159.5,-97.5 318.5,-97.5 318.5,-67.5 159.5,-67.5"/>
<text text-anchor="start" x="167.5" y="-85.5" font-family="Helvetica,sans-Serif" font-size="10.00">include/functions/DwarfElephant</text>
<text text-anchor="middle" x="239" y="-74.5" font-family="Helvetica,sans-Serif" font-size="10.00">InitialConditionFileReader.h</text>
</g>
<!-- Node2 -->
<g id="node2" class="node"><title>Node2</title>
<g id="a_node2"><a xlink:href="_dwarf_elephant_app_8_c.html" target="_top" xlink:title="src/base/DwarfElephantApp.C">
<polygon fill="white" stroke="black" points="0,-6 0,-25 150,-25 150,-6 0,-6"/>
<text text-anchor="middle" x="75" y="-13" font-family="Helvetica,sans-Serif" font-size="10.00">src/base/DwarfElephantApp.C</text>
</a>
</g>
</g>
<!-- Node1&#45;&gt;Node2 -->
<g id="edge1" class="edge"><title>Node1&#45;&gt;Node2</title>
<path fill="none" stroke="midnightblue" d="M193.891,-63.6214C162.148,-51.0403 121.087,-34.7661 96.4638,-25.007"/>
<polygon fill="midnightblue" stroke="midnightblue" points="192.828,-66.9651 203.414,-67.396 195.408,-60.4576 192.828,-66.9651"/>
</g>
<!-- Node3 -->
<g id="node3" class="node"><title>Node3</title>
<g id="a_node3"><a xlink:href="_dwarf_elephant_initial_condition_file_reader_8_c.html" target="_top" xlink:title="src/functions/DwarfElephant\lInitialConditionFileReader.C">
<polygon fill="white" stroke="black" points="168.5,-0.5 168.5,-30.5 309.5,-30.5 309.5,-0.5 168.5,-0.5"/>
<text text-anchor="start" x="176.5" y="-18.5" font-family="Helvetica,sans-Serif" font-size="10.00">src/functions/DwarfElephant</text>
<text text-anchor="middle" x="239" y="-7.5" font-family="Helvetica,sans-Serif" font-size="10.00">InitialConditionFileReader.C</text>
</a>
</g>
</g>
<!-- Node1&#45;&gt;Node3 -->
<g id="edge2" class="edge"><title>Node1&#45;&gt;Node3</title>
<path fill="none" stroke="midnightblue" d="M239,-57.1081C239,-48.1539 239,-38.3227 239,-30.5765"/>
<polygon fill="midnightblue" stroke="midnightblue" points="235.5,-57.3959 239,-67.396 242.5,-57.396 235.5,-57.3959"/>
</g>
<!-- Node4 -->
<g id="node4" class="node"><title>Node4</title>
<g id="a_node4"><a xlink:href="_dwarf_elephant_file_i_c_8_c.html" target="_top" xlink:title="src/ics/DwarfElephantFileIC.C">
<polygon fill="white" stroke="black" points="327.5,-6 327.5,-25 476.5,-25 476.5,-6 327.5,-6"/>
<text text-anchor="middle" x="402" y="-13" font-family="Helvetica,sans-Serif" font-size="10.00">src/ics/DwarfElephantFileIC.C</text>
</a>
</g>
</g>
<!-- Node1&#45;&gt;Node4 -->
<g id="edge3" class="edge"><title>Node1&#45;&gt;Node4</title>
<path fill="none" stroke="midnightblue" d="M283.834,-63.6214C315.384,-51.0403 356.194,-34.7661 380.667,-25.007"/>
<polygon fill="midnightblue" stroke="midnightblue" points="282.361,-60.4408 274.369,-67.396 284.954,-66.9429 282.361,-60.4408"/>
</g>
</g>
</svg>
