<?xml version="1.0" encoding="UTF-8" standalone="no"?>
<!DOCTYPE svg PUBLIC "-//W3C//DTD SVG 1.1//EN"
 "http://www.w3.org/Graphics/SVG/1.1/DTD/svg11.dtd">
<!-- Generated by graphviz version 2.38.0 (20140413.2041)
 -->
<!-- Title: include/dirackernels/DwarfElephantRBConstantPointSource.h Pages: 1 -->
<svg width="332pt" height="117pt"
 viewBox="0.00 0.00 331.50 117.00" xmlns="http://www.w3.org/2000/svg" xmlns:xlink="http://www.w3.org/1999/xlink">
<g id="graph0" class="graph" transform="scale(1 1) rotate(0) translate(4 113)">
<title>include/dirackernels/DwarfElephantRBConstantPointSource.h</title>
<polygon fill="white" stroke="none" points="-4,4 -4,-113 327.5,-113 327.5,4 -4,4"/>
<!-- Node1 -->
<g id="node1" class="node"><title>Node1</title>
<polygon fill="#bfbfbf" stroke="black" points="79,-67.5 79,-108.5 241,-108.5 241,-67.5 79,-67.5"/>
<text text-anchor="start" x="87" y="-96.5" font-family="Helvetica,sans-Serif" font-size="10.00">include/dirackernels</text>
<text text-anchor="start" x="87" y="-85.5" font-family="Helvetica,sans-Serif" font-size="10.00">/DwarfElephantRBConstantPoint</text>
<text text-anchor="middle" x="160" y="-74.5" font-family="Helvetica,sans-Serif" font-size="10.00">Source.h</text>
</g>
<!-- Node2 -->
<g id="node2" class="node"><title>Node2</title>
<g id="a_node2"><a xlink:href="_dwarf_elephant_app_8_c.html" target="_top" xlink:title="src/base/DwarfElephantApp.C">
<polygon fill="white" stroke="black" points="0,-6 0,-25 150,-25 150,-6 0,-6"/>
<text text-anchor="middle" x="75" y="-13" font-family="Helvetica,sans-Serif" font-size="10.00">src/base/DwarfElephantApp.C</text>
</a>
</g>
</g>
<!-- Node1&#45;&gt;Node2 -->
<g id="edge1" class="edge"><title>Node1&#45;&gt;Node2</title>
<path fill="none" stroke="midnightblue" d="M128.609,-60.9641C113.417,-48.3638 96.1886,-34.0741 85.4573,-25.1734"/>
<polygon fill="midnightblue" stroke="midnightblue" points="126.391,-63.6717 136.323,-67.3618 130.86,-58.2838 126.391,-63.6717"/>
</g>
<!-- Node3 -->
<g id="node3" class="node"><title>Node3</title>
<g id="a_node3"><a xlink:href="_dwarf_elephant_r_b_constant_point_source_8_c.html" target="_top" xlink:title="src/dirackernels/DwarfElephant\lRBConstantPointSource.C">
<polygon fill="white" stroke="black" points="168.5,-0.5 168.5,-30.5 323.5,-30.5 323.5,-0.5 168.5,-0.5"/>
<text text-anchor="start" x="176.5" y="-18.5" font-family="Helvetica,sans-Serif" font-size="10.00">src/dirackernels/DwarfElephant</text>
<text text-anchor="middle" x="246" y="-7.5" font-family="Helvetica,sans-Serif" font-size="10.00">RBConstantPointSource.C</text>
</a>
</g>
</g>
<!-- Node1&#45;&gt;Node3 -->
<g id="edge2" class="edge"><title>Node1&#45;&gt;Node3</title>
<path fill="none" stroke="midnightblue" d="M191.907,-60.8437C204.372,-50.6249 218.173,-39.3117 228.715,-30.67"/>
<polygon fill="midnightblue" stroke="midnightblue" points="189.47,-58.3153 183.956,-67.3618 193.908,-63.7288 189.47,-58.3153"/>
</g>
</g>
</svg>
