<?xml version="1.0" encoding="UTF-8" standalone="no"?>
<!DOCTYPE svg PUBLIC "-//W3C//DTD SVG 1.1//EN"
 "http://www.w3.org/Graphics/SVG/1.1/DTD/svg11.dtd">
<!-- Generated by graphviz version 2.38.0 (20140413.2041)
 -->
<!-- Title: include/userobjects/DwarfElephantRBStructuresT3F4O3M2Transient.h Pages: 1 -->
<!--zoomable 184 -->
<svg id="main" version="1.1" xmlns="http://www.w3.org/2000/svg" xmlns:xlink="http://www.w3.org/1999/xlink" xml:space="preserve" onload="init(evt)">
<style type="text/css"><![CDATA[
.edge:hover path { stroke: red; }
.edge:hover polygon { stroke: red; fill: red; }
]]></style>
<script type="text/javascript"><![CDATA[
var edges = document.getElementsByTagName('g');
if (edges && edges.length) {
  for (var i=0;i<edges.length;i++) {
    if (edges[i].id.substr(0,4)=='edge') {
      edges[i].setAttribute('class','edge');
    }
  }
}
]]></script>
        <defs>
                <circle id="rim" cx="0" cy="0" r="7"/>
                <circle id="rim2" cx="0" cy="0" r="3.5"/>
                <g id="zoomPlus">
                        <use xlink:href="#rim" fill="#404040">
                                <set attributeName="fill" to="#808080" begin="zoomplus.mouseover" end="zoomplus.mouseout"/>
                        </use>
                        <path d="M-4,0h8M0,-4v8" fill="none" stroke="white" stroke-width="1.5" pointer-events="none"/>
                </g>
                <g id="zoomMin">
                        <use xlink:href="#rim" fill="#404040">
                                <set attributeName="fill" to="#808080" begin="zoomminus.mouseover" end="zoomminus.mouseout"/>
                        </use>
                        <path d="M-4,0h8" fill="none" stroke="white" stroke-width="1.5" pointer-events="none"/>
                </g>
                <g id="dirArrow">
                        <path fill="none" stroke="white" stroke-width="1.5" d="M0,-3.0v7 M-2.5,-0.5L0,-3.0L2.5,-0.5"/>
                </g>
               <g id="resetDef">
                       <use xlink:href="#rim2" fill="#404040">
                               <set attributeName="fill" to="#808080" begin="reset.mouseover" end="reset.mouseout"/>
                       </use>
               </g>
        </defs>

<script type="text/javascript">
var viewWidth = 1858;
var viewHeight = 184;
var sectionId = 'dynsection-0';
</script>
<script xlink:href="svgpan.js"/>
<svg id="graph" class="graph">
<g id="viewport">
<title>include/userobjects/DwarfElephantRBStructuresT3F4O3M2Transient.h</title>
<polygon fill="white" stroke="none" points="-4,4 -4,-180 1853.5,-180 1853.5,4 -4,4"/>
<!-- Node1 -->
<g id="node1" class="node"><title>Node1</title>
<polygon fill="#bfbfbf" stroke="black" points="826.5,-134.5 826.5,-175.5 970.5,-175.5 970.5,-134.5 826.5,-134.5"/>
<text text-anchor="start" x="834.5" y="-163.5" font-family="Helvetica,sans-Serif" font-size="10.00">include/userobjects</text>
<text text-anchor="start" x="834.5" y="-152.5" font-family="Helvetica,sans-Serif" font-size="10.00">/DwarfElephantRBStructures</text>
<text text-anchor="middle" x="898.5" y="-141.5" font-family="Helvetica,sans-Serif" font-size="10.00">T3F4O3M2Transient.h</text>
</g>
<!-- Node2 -->
<g id="node2" class="node"><title>Node2</title>
<polygon fill="white" stroke="#bfbfbf" points="0,-67.5 0,-97.5 107,-97.5 107,-67.5 0,-67.5"/>
<text text-anchor="start" x="8" y="-85.5" font-family="Helvetica,sans-Serif" font-size="10.00">libmesh/transient_rb</text>
<text text-anchor="middle" x="53.5" y="-74.5" font-family="Helvetica,sans-Serif" font-size="10.00">_theta_expansion.h</text>
</g>
<!-- Node1&#45;&gt;Node2 -->
<g id="edge1" class="edge"><title>Node1&#45;&gt;Node2</title>
<path fill="none" stroke="midnightblue" d="M826.394,-152.559C689.782,-149.018 383.849,-137.214 117.272,-97.9373"/>
<polygon fill="midnightblue" stroke="midnightblue" points="117.415,-94.4201 107.008,-96.4085 116.384,-101.344 117.415,-94.4201"/>
</g>
<!-- Node3 -->
<g id="node3" class="node"><title>Node3</title>
<polygon fill="white" stroke="#bfbfbf" points="125.5,-67.5 125.5,-97.5 249.5,-97.5 249.5,-67.5 125.5,-67.5"/>
<text text-anchor="start" x="133.5" y="-85.5" font-family="Helvetica,sans-Serif" font-size="10.00">libmesh/transient_rb</text>
<text text-anchor="middle" x="187.5" y="-74.5" font-family="Helvetica,sans-Serif" font-size="10.00">_assembly_expansion.h</text>
</g>
<!-- Node1&#45;&gt;Node3 -->
<g id="edge2" class="edge"><title>Node1&#45;&gt;Node3</title>
<path fill="none" stroke="midnightblue" d="M826.205,-150.37C709.166,-143.9 470.843,-128.264 259.796,-98.0836"/>
<polygon fill="midnightblue" stroke="midnightblue" points="260.165,-94.6006 249.767,-96.6354 259.165,-101.529 260.165,-94.6006"/>
</g>
<!-- Node4 -->
<g id="node4" class="node"><title>Node4</title>
<g id="a_node4"><a xlink:href="_dwarf_elephant_r_b_structures_a00_theta_constant_8h.html" target="_top" xlink:title="DwarfElephantRBStructures\lA00ThetaConstant.h">
<polygon fill="white" stroke="black" points="1547.5,-67.5 1547.5,-97.5 1689.5,-97.5 1689.5,-67.5 1547.5,-67.5"/>
<text text-anchor="start" x="1555.5" y="-85.5" font-family="Helvetica,sans-Serif" font-size="10.00">DwarfElephantRBStructures</text>
<text text-anchor="middle" x="1618.5" y="-74.5" font-family="Helvetica,sans-Serif" font-size="10.00">A00ThetaConstant.h</text>
</a>
</g>
</g>
<!-- Node1&#45;&gt;Node4 -->
<g id="edge3" class="edge"><title>Node1&#45;&gt;Node4</title>
<path fill="none" stroke="midnightblue" d="M970.723,-149.854C1087.66,-142.662 1325.84,-126.027 1537.4,-98.0674"/>
<polygon fill="midnightblue" stroke="midnightblue" points="1538,-101.518 1547.45,-96.7274 1537.08,-94.5794 1538,-101.518"/>
</g>
<!-- Node7 -->
<g id="node7" class="node"><title>Node7</title>
<g id="a_node7"><a xlink:href="_dwarf_elephant_r_b_structures_a0_theta_equal_mu0_8h.html" target="_top" xlink:title="DwarfElephantRBStructures\lA0ThetaEqualMu0.h">
<polygon fill="white" stroke="black" points="1707.5,-67.5 1707.5,-97.5 1849.5,-97.5 1849.5,-67.5 1707.5,-67.5"/>
<text text-anchor="start" x="1715.5" y="-85.5" font-family="Helvetica,sans-Serif" font-size="10.00">DwarfElephantRBStructures</text>
<text text-anchor="middle" x="1778.5" y="-74.5" font-family="Helvetica,sans-Serif" font-size="10.00">A0ThetaEqualMu0.h</text>
</a>
</g>
</g>
<!-- Node1&#45;&gt;Node7 -->
<g id="edge6" class="edge"><title>Node1&#45;&gt;Node7</title>
<path fill="none" stroke="midnightblue" d="M970.74,-151.593C1109.61,-146.387 1423.57,-131.82 1697.33,-98.0527"/>
<polygon fill="midnightblue" stroke="midnightblue" points="1697.97,-101.5 1707.46,-96.7921 1697.11,-94.5538 1697.97,-101.5"/>
</g>
<!-- Node8 -->
<g id="node8" class="node"><title>Node8</title>
<g id="a_node8"><a xlink:href="_dwarf_elephant_r_b_structures_a0_theta_norm_mu0_8h.html" target="_top" xlink:title="DwarfElephantRBStructures\lA0ThetaNormMu0.h">
<polygon fill="white" stroke="black" points="267.5,-67.5 267.5,-97.5 409.5,-97.5 409.5,-67.5 267.5,-67.5"/>
<text text-anchor="start" x="275.5" y="-85.5" font-family="Helvetica,sans-Serif" font-size="10.00">DwarfElephantRBStructures</text>
<text text-anchor="middle" x="338.5" y="-74.5" font-family="Helvetica,sans-Serif" font-size="10.00">A0ThetaNormMu0.h</text>
</a>
</g>
</g>
<!-- Node1&#45;&gt;Node8 -->
<g id="edge9" class="edge"><title>Node1&#45;&gt;Node8</title>
<path fill="none" stroke="midnightblue" d="M826.344,-147.017C734.375,-137.795 570.266,-120.266 419.903,-98.1519"/>
<polygon fill="midnightblue" stroke="midnightblue" points="419.966,-94.6231 409.561,-96.6204 418.941,-101.548 419.966,-94.6231"/>
</g>
<!-- Node9 -->
<g id="node9" class="node"><title>Node9</title>
<g id="a_node9"><a xlink:href="_dwarf_elephant_r_b_structures_a0_theta_norm_mu1_8h.html" target="_top" xlink:title="DwarfElephantRBStructures\lA0ThetaNormMu1.h">
<polygon fill="white" stroke="black" points="427.5,-67.5 427.5,-97.5 569.5,-97.5 569.5,-67.5 427.5,-67.5"/>
<text text-anchor="start" x="435.5" y="-85.5" font-family="Helvetica,sans-Serif" font-size="10.00">DwarfElephantRBStructures</text>
<text text-anchor="middle" x="498.5" y="-74.5" font-family="Helvetica,sans-Serif" font-size="10.00">A0ThetaNormMu1.h</text>
</a>
</g>
</g>
<!-- Node1&#45;&gt;Node9 -->
<g id="edge12" class="edge"><title>Node1&#45;&gt;Node9</title>
<path fill="none" stroke="midnightblue" d="M826.354,-141.503C763.764,-130.631 670.435,-114.351 579.523,-98.1766"/>
<polygon fill="midnightblue" stroke="midnightblue" points="580.055,-94.7163 569.596,-96.4092 578.828,-101.608 580.055,-94.7163"/>
</g>
<!-- Node10 -->
<g id="node10" class="node"><title>Node10</title>
<g id="a_node10"><a xlink:href="_dwarf_elephant_r_b_structures_a1_theta_equal_mu1_8h.html" target="_top" xlink:title="DwarfElephantRBStructures\lA1ThetaEqualMu1.h">
<polygon fill="white" stroke="black" points="587.5,-67.5 587.5,-97.5 729.5,-97.5 729.5,-67.5 587.5,-67.5"/>
<text text-anchor="start" x="595.5" y="-85.5" font-family="Helvetica,sans-Serif" font-size="10.00">DwarfElephantRBStructures</text>
<text text-anchor="middle" x="658.5" y="-74.5" font-family="Helvetica,sans-Serif" font-size="10.00">A1ThetaEqualMu1.h</text>
</a>
</g>
</g>
<!-- Node1&#45;&gt;Node10 -->
<g id="edge15" class="edge"><title>Node1&#45;&gt;Node10</title>
<path fill="none" stroke="midnightblue" d="M831.965,-134.455C795.729,-123.811 751.316,-110.765 716.501,-100.538"/>
<polygon fill="midnightblue" stroke="midnightblue" points="717.07,-97.0572 706.489,-97.5968 715.097,-103.773 717.07,-97.0572"/>
</g>
<!-- Node11 -->
<g id="node11" class="node"><title>Node11</title>
<g id="a_node11"><a xlink:href="_dwarf_elephant_r_b_structures_a1_theta_norm_mu0_8h.html" target="_top" xlink:title="DwarfElephantRBStructures\lA1ThetaNormMu0.h">
<polygon fill="white" stroke="black" points="747.5,-67.5 747.5,-97.5 889.5,-97.5 889.5,-67.5 747.5,-67.5"/>
<text text-anchor="start" x="755.5" y="-85.5" font-family="Helvetica,sans-Serif" font-size="10.00">DwarfElephantRBStructures</text>
<text text-anchor="middle" x="818.5" y="-74.5" font-family="Helvetica,sans-Serif" font-size="10.00">A1ThetaNormMu0.h</text>
</a>
</g>
</g>
<!-- Node1&#45;&gt;Node11 -->
<g id="edge18" class="edge"><title>Node1&#45;&gt;Node11</title>
<path fill="none" stroke="midnightblue" d="M876.216,-134.362C865.679,-125.076 853.087,-113.979 842.357,-104.524"/>
<polygon fill="midnightblue" stroke="midnightblue" points="844.396,-101.656 834.579,-97.67 839.768,-106.907 844.396,-101.656"/>
</g>
<!-- Node12 -->
<g id="node12" class="node"><title>Node12</title>
<g id="a_node12"><a xlink:href="_dwarf_elephant_r_b_structures_a1_theta_norm_mu1_8h.html" target="_top" xlink:title="DwarfElephantRBStructures\lA1ThetaNormMu1.h">
<polygon fill="white" stroke="black" points="907.5,-67.5 907.5,-97.5 1049.5,-97.5 1049.5,-67.5 907.5,-67.5"/>
<text text-anchor="start" x="915.5" y="-85.5" font-family="Helvetica,sans-Serif" font-size="10.00">DwarfElephantRBStructures</text>
<text text-anchor="middle" x="978.5" y="-74.5" font-family="Helvetica,sans-Serif" font-size="10.00">A1ThetaNormMu1.h</text>
</a>
</g>
</g>
<!-- Node1&#45;&gt;Node12 -->
<g id="edge21" class="edge"><title>Node1&#45;&gt;Node12</title>
<path fill="none" stroke="midnightblue" d="M920.784,-134.362C931.321,-125.076 943.913,-113.979 954.643,-104.524"/>
<polygon fill="midnightblue" stroke="midnightblue" points="957.232,-106.907 962.421,-97.67 952.604,-101.656 957.232,-106.907"/>
</g>
<!-- Node13 -->
<g id="node13" class="node"><title>Node13</title>
<g id="a_node13"><a xlink:href="_dwarf_elephant_r_b_structures_a2_theta_equal_mu2_8h.html" target="_top" xlink:title="DwarfElephantRBStructures\lA2ThetaEqualMu2.h">
<polygon fill="white" stroke="black" points="1067.5,-67.5 1067.5,-97.5 1209.5,-97.5 1209.5,-67.5 1067.5,-67.5"/>
<text text-anchor="start" x="1075.5" y="-85.5" font-family="Helvetica,sans-Serif" font-size="10.00">DwarfElephantRBStructures</text>
<text text-anchor="middle" x="1138.5" y="-74.5" font-family="Helvetica,sans-Serif" font-size="10.00">A2ThetaEqualMu2.h</text>
</a>
</g>
</g>
<!-- Node1&#45;&gt;Node13 -->
<g id="edge24" class="edge"><title>Node1&#45;&gt;Node13</title>
<path fill="none" stroke="midnightblue" d="M965.035,-134.455C1001.27,-123.811 1045.68,-110.765 1080.5,-100.538"/>
<polygon fill="midnightblue" stroke="midnightblue" points="1081.9,-103.773 1090.51,-97.5968 1079.93,-97.0572 1081.9,-103.773"/>
</g>
<!-- Node14 -->
<g id="node14" class="node"><title>Node14</title>
<g id="a_node14"><a xlink:href="_dwarf_elephant_r_b_structures_a2_theta_norm_mu0_8h.html" target="_top" xlink:title="DwarfElephantRBStructures\lA2ThetaNormMu0.h">
<polygon fill="white" stroke="black" points="1227.5,-67.5 1227.5,-97.5 1369.5,-97.5 1369.5,-67.5 1227.5,-67.5"/>
<text text-anchor="start" x="1235.5" y="-85.5" font-family="Helvetica,sans-Serif" font-size="10.00">DwarfElephantRBStructures</text>
<text text-anchor="middle" x="1298.5" y="-74.5" font-family="Helvetica,sans-Serif" font-size="10.00">A2ThetaNormMu0.h</text>
</a>
</g>
</g>
<!-- Node1&#45;&gt;Node14 -->
<g id="edge27" class="edge"><title>Node1&#45;&gt;Node14</title>
<path fill="none" stroke="midnightblue" d="M970.646,-141.503C1033.24,-130.631 1126.56,-114.351 1217.48,-98.1766"/>
<polygon fill="midnightblue" stroke="midnightblue" points="1218.17,-101.608 1227.4,-96.4092 1216.95,-94.7163 1218.17,-101.608"/>
</g>
<!-- Node15 -->
<g id="node15" class="node"><title>Node15</title>
<g id="a_node15"><a xlink:href="_dwarf_elephant_r_b_structures_a2_theta_norm_mu1_8h.html" target="_top" xlink:title="DwarfElephantRBStructures\lA2ThetaNormMu1.h">
<polygon fill="white" stroke="black" points="1387.5,-67.5 1387.5,-97.5 1529.5,-97.5 1529.5,-67.5 1387.5,-67.5"/>
<text text-anchor="start" x="1395.5" y="-85.5" font-family="Helvetica,sans-Serif" font-size="10.00">DwarfElephantRBStructures</text>
<text text-anchor="middle" x="1458.5" y="-74.5" font-family="Helvetica,sans-Serif" font-size="10.00">A2ThetaNormMu1.h</text>
</a>
</g>
</g>
<!-- Node1&#45;&gt;Node15 -->
<g id="edge30" class="edge"><title>Node1&#45;&gt;Node15</title>
<path fill="none" stroke="midnightblue" d="M970.656,-147.017C1062.62,-137.795 1226.73,-120.266 1377.1,-98.1519"/>
<polygon fill="midnightblue" stroke="midnightblue" points="1378.06,-101.548 1387.44,-96.6204 1377.03,-94.6231 1378.06,-101.548"/>
</g>
<!-- Node5 -->
<g id="node5" class="node"><title>Node5</title>
<polygon fill="white" stroke="#bfbfbf" points="938,-6 938,-25 1037,-25 1037,-6 938,-6"/>
<text text-anchor="middle" x="987.5" y="-13" font-family="Helvetica,sans-Serif" font-size="10.00">libmesh/rb_theta.h</text>
</g>
<!-- Node4&#45;&gt;Node5 -->
<g id="edge4" class="edge"><title>Node4&#45;&gt;Node5</title>
<path fill="none" stroke="midnightblue" d="M1547.46,-68.2299C1544.44,-67.7898 1541.44,-67.3771 1538.5,-67 1328.94,-40.1243 1273.96,-58.591 1064.5,-31 1055.97,-29.8764 1046.95,-28.4229 1038.21,-26.871"/>
<polygon fill="midnightblue" stroke="midnightblue" points="1038.59,-23.3823 1028.13,-25.018 1037.33,-30.2671 1038.59,-23.3823"/>
</g>
<!-- Node6 -->
<g id="node6" class="node"><title>Node6</title>
<polygon fill="white" stroke="#bfbfbf" points="1073.5,-0.5 1073.5,-30.5 1183.5,-30.5 1183.5,-0.5 1073.5,-0.5"/>
<text text-anchor="start" x="1081.5" y="-18.5" font-family="Helvetica,sans-Serif" font-size="10.00">libmesh/rb_assembly</text>
<text text-anchor="middle" x="1128.5" y="-7.5" font-family="Helvetica,sans-Serif" font-size="10.00">_expansion.h</text>
</g>
<!-- Node4&#45;&gt;Node6 -->
<g id="edge5" class="edge"><title>Node4&#45;&gt;Node6</title>
<path fill="none" stroke="midnightblue" d="M1547.43,-68.4034C1544.42,-67.9158 1541.43,-67.4457 1538.5,-67 1417.13,-48.5413 1274.75,-32.1887 1193.73,-23.3788"/>
<polygon fill="midnightblue" stroke="midnightblue" points="1194,-19.8872 1183.68,-22.2903 1193.24,-26.8466 1194,-19.8872"/>
</g>
<!-- Node7&#45;&gt;Node5 -->
<g id="edge7" class="edge"><title>Node7&#45;&gt;Node5</title>
<path fill="none" stroke="midnightblue" d="M1707.47,-68.159C1704.44,-67.7383 1701.44,-67.349 1698.5,-67 1418.23,-33.7704 1344.65,-65.1863 1064.5,-31 1055.67,-29.9226 1046.33,-28.4495 1037.31,-26.8532"/>
<polygon fill="midnightblue" stroke="midnightblue" points="1037.78,-23.3809 1027.31,-25.0131 1036.51,-30.2653 1037.78,-23.3809"/>
</g>
<!-- Node7&#45;&gt;Node6 -->
<g id="edge8" class="edge"><title>Node7&#45;&gt;Node6</title>
<path fill="none" stroke="midnightblue" d="M1707.45,-68.2766C1704.43,-67.8237 1701.44,-67.3955 1698.5,-67 1516.51,-42.4965 1300.16,-27.05 1193.95,-20.3564"/>
<polygon fill="midnightblue" stroke="midnightblue" points="1193.91,-16.8472 1183.71,-19.7168 1193.47,-23.8335 1193.91,-16.8472"/>
</g>
<!-- Node8&#45;&gt;Node5 -->
<g id="edge10" class="edge"><title>Node8&#45;&gt;Node5</title>
<path fill="none" stroke="midnightblue" d="M409.547,-68.2772C412.568,-67.8242 415.562,-67.3958 418.5,-67 603.317,-42.1018 823.626,-26.5338 927.569,-20.023"/>
<polygon fill="midnightblue" stroke="midnightblue" points="928.096,-23.4971 937.86,-19.3843 927.663,-16.5106 928.096,-23.4971"/>
</g>
<!-- Node8&#45;&gt;Node6 -->
<g id="edge11" class="edge"><title>Node8&#45;&gt;Node6</title>
<path fill="none" stroke="midnightblue" d="M409.532,-68.161C412.558,-67.7398 415.557,-67.3498 418.5,-67 696.116,-34.0088 768.814,-63.3965 1046.5,-31 1051.97,-30.3613 1057.64,-29.5912 1063.31,-28.7431"/>
<polygon fill="midnightblue" stroke="midnightblue" points="1064.16,-32.1528 1073.5,-27.1437 1063.07,-25.2375 1064.16,-32.1528"/>
</g>
<!-- Node9&#45;&gt;Node5 -->
<g id="edge13" class="edge"><title>Node9&#45;&gt;Node5</title>
<path fill="none" stroke="midnightblue" d="M569.565,-68.4045C572.582,-67.9166 575.57,-67.4461 578.5,-67 702.207,-48.1672 847.784,-31.4963 927.608,-22.8235"/>
<polygon fill="midnightblue" stroke="midnightblue" points="928.389,-26.2596 937.954,-21.7042 927.636,-19.3002 928.389,-26.2596"/>
</g>
<!-- Node9&#45;&gt;Node6 -->
<g id="edge14" class="edge"><title>Node9&#45;&gt;Node6</title>
<path fill="none" stroke="midnightblue" d="M569.541,-68.2335C572.564,-67.7925 575.56,-67.3785 578.5,-67 785.407,-40.3624 839.537,-57.1944 1046.5,-31 1051.97,-30.3079 1057.63,-29.5004 1063.3,-28.6271"/>
<polygon fill="midnightblue" stroke="midnightblue" points="1064.16,-32.0339 1073.48,-26.9951 1063.05,-25.1221 1064.16,-32.0339"/>
</g>
<!-- Node10&#45;&gt;Node5 -->
<g id="edge16" class="edge"><title>Node10&#45;&gt;Node5</title>
<path fill="none" stroke="midnightblue" d="M729.483,-67.476C791.013,-55.3196 878.682,-37.9991 934.328,-27.0052"/>
<polygon fill="midnightblue" stroke="midnightblue" points="935.2,-30.4006 944.332,-25.0287 933.843,-23.5333 935.2,-30.4006"/>
</g>
<!-- Node10&#45;&gt;Node6 -->
<g id="edge17" class="edge"><title>Node10&#45;&gt;Node6</title>
<path fill="none" stroke="midnightblue" d="M729.562,-68.3804C732.579,-67.8991 735.568,-67.4366 738.5,-67 874.818,-46.7002 910.139,-51.0078 1046.5,-31 1051.95,-30.1998 1057.6,-29.3164 1063.26,-28.3923"/>
<polygon fill="midnightblue" stroke="midnightblue" points="1064.15,-31.7931 1073.44,-26.6941 1063,-24.8886 1064.15,-31.7931"/>
</g>
<!-- Node11&#45;&gt;Node5 -->
<g id="edge19" class="edge"><title>Node11&#45;&gt;Node5</title>
<path fill="none" stroke="midnightblue" d="M855.17,-67.396C885.217,-55.8396 927.294,-39.6562 955.876,-28.6629"/>
<polygon fill="midnightblue" stroke="midnightblue" points="957.305,-31.8636 965.382,-25.007 954.792,-25.3301 957.305,-31.8636"/>
</g>
<!-- Node11&#45;&gt;Node6 -->
<g id="edge20" class="edge"><title>Node11&#45;&gt;Node6</title>
<path fill="none" stroke="midnightblue" d="M885.384,-67.476C938.14,-56.4142 1011.29,-41.0764 1063.54,-30.1204"/>
<polygon fill="midnightblue" stroke="midnightblue" points="1064.3,-33.5368 1073.37,-28.059 1062.87,-26.6857 1064.3,-33.5368"/>
</g>
<!-- Node12&#45;&gt;Node5 -->
<g id="edge22" class="edge"><title>Node12&#45;&gt;Node5</title>
<path fill="none" stroke="midnightblue" d="M980.453,-67.396C981.759,-57.9635 983.492,-45.4484 984.912,-35.1891"/>
<polygon fill="midnightblue" stroke="midnightblue" points="988.391,-35.5801 986.296,-25.1945 981.458,-34.62 988.391,-35.5801"/>
</g>
<!-- Node12&#45;&gt;Node6 -->
<g id="edge23" class="edge"><title>Node12&#45;&gt;Node6</title>
<path fill="none" stroke="midnightblue" d="M1011.05,-67.396C1033.26,-57.7709 1062.88,-44.9362 1086.81,-34.5637"/>
<polygon fill="midnightblue" stroke="midnightblue" points="1088.23,-37.7641 1096.02,-30.5765 1085.45,-31.3412 1088.23,-37.7641"/>
</g>
<!-- Node13&#45;&gt;Node5 -->
<g id="edge25" class="edge"><title>Node13&#45;&gt;Node5</title>
<path fill="none" stroke="midnightblue" d="M1105.74,-67.396C1079.24,-55.991 1042.28,-40.0794 1016.77,-29.0976"/>
<polygon fill="midnightblue" stroke="midnightblue" points="1017.83,-25.7461 1007.26,-25.007 1015.06,-32.1757 1017.83,-25.7461"/>
</g>
<!-- Node13&#45;&gt;Node6 -->
<g id="edge26" class="edge"><title>Node13&#45;&gt;Node6</title>
<path fill="none" stroke="midnightblue" d="M1136.33,-67.396C1135.12,-59.5597 1133.59,-49.5958 1132.2,-40.5653"/>
<polygon fill="midnightblue" stroke="midnightblue" points="1135.65,-39.928 1130.67,-30.5765 1128.73,-40.9925 1135.65,-39.928"/>
</g>
<!-- Node14&#45;&gt;Node5 -->
<g id="edge28" class="edge"><title>Node14&#45;&gt;Node5</title>
<path fill="none" stroke="midnightblue" d="M1231.4,-67.476C1173.48,-55.3701 1091.05,-38.1427 1038.42,-27.1424"/>
<polygon fill="midnightblue" stroke="midnightblue" points="1038.81,-23.6486 1028.31,-25.0287 1037.38,-30.5005 1038.81,-23.6486"/>
</g>
<!-- Node14&#45;&gt;Node6 -->
<g id="edge29" class="edge"><title>Node14&#45;&gt;Node6</title>
<path fill="none" stroke="midnightblue" d="M1261.61,-67.396C1236.11,-57.6432 1201.98,-44.5949 1174.67,-34.152"/>
<polygon fill="midnightblue" stroke="midnightblue" points="1175.91,-30.8788 1165.32,-30.5765 1173.41,-37.4171 1175.91,-30.8788"/>
</g>
<!-- Node15&#45;&gt;Node5 -->
<g id="edge31" class="edge"><title>Node15&#45;&gt;Node5</title>
<path fill="none" stroke="midnightblue" d="M1387.44,-68.3723C1384.42,-67.8932 1381.43,-67.4334 1378.5,-67 1239.54,-46.4631 1203.39,-52.0112 1064.5,-31 1056.47,-29.7849 1047.99,-28.3476 1039.72,-26.858"/>
<polygon fill="midnightblue" stroke="midnightblue" points="1040.24,-23.3948 1029.77,-25.0264 1038.97,-30.2791 1040.24,-23.3948"/>
</g>
<!-- Node15&#45;&gt;Node6 -->
<g id="edge32" class="edge"><title>Node15&#45;&gt;Node6</title>
<path fill="none" stroke="midnightblue" d="M1387.3,-67.476C1329.78,-56.1453 1249.47,-40.3281 1193.63,-29.3292"/>
<polygon fill="midnightblue" stroke="midnightblue" points="1193.99,-25.8324 1183.5,-27.3337 1192.64,-32.7004 1193.99,-25.8324"/>
</g>
</g>
</svg>
        <g id="navigator" transform="translate(0 0)" fill="#404254">
                <rect fill="#f2f5e9" fill-opacity="0.5" stroke="#606060" stroke-width=".5" x="0" y="0" width="60" height="60"/>
                <use id="zoomplus" xlink:href="#zoomPlus" x="17" y="9" onmousedown="handleZoom(evt,'in')"/>
                <use id="zoomminus" xlink:href="#zoomMin" x="42" y="9" onmousedown="handleZoom(evt,'out')"/>
                <use id="reset" xlink:href="#resetDef" x="30" y="36" onmousedown="handleReset()"/>
                <g id="arrowUp" xlink:href="#dirArrow" transform="translate(30 24)" onmousedown="handlePan(0,-1)">
                  <use xlink:href="#rim" fill="#404040">
                        <set attributeName="fill" to="#808080" begin="arrowUp.mouseover" end="arrowUp.mouseout"/>
                  </use>
                  <path fill="none" stroke="white" stroke-width="1.5" d="M0,-3.0v7 M-2.5,-0.5L0,-3.0L2.5,-0.5"/>
                </g>
                <g id="arrowRight" xlink:href="#dirArrow" transform="rotate(90) translate(36 -43)" onmousedown="handlePan(1,0)">
                  <use xlink:href="#rim" fill="#404040">
                        <set attributeName="fill" to="#808080" begin="arrowRight.mouseover" end="arrowRight.mouseout"/>
                  </use>
                  <path fill="none" stroke="white" stroke-width="1.5" d="M0,-3.0v7 M-2.5,-0.5L0,-3.0L2.5,-0.5"/>
                </g>
                <g id="arrowDown" xlink:href="#dirArrow" transform="rotate(180) translate(-30 -48)" onmousedown="handlePan(0,1)">
                  <use xlink:href="#rim" fill="#404040">
                        <set attributeName="fill" to="#808080" begin="arrowDown.mouseover" end="arrowDown.mouseout"/>
                  </use>
                  <path fill="none" stroke="white" stroke-width="1.5" d="M0,-3.0v7 M-2.5,-0.5L0,-3.0L2.5,-0.5"/>
                </g>
                <g id="arrowLeft" xlink:href="#dirArrow" transform="rotate(270) translate(-36 17)" onmousedown="handlePan(-1,0)">
                  <use xlink:href="#rim" fill="#404040">
                        <set attributeName="fill" to="#808080" begin="arrowLeft.mouseover" end="arrowLeft.mouseout"/>
                  </use>
                  <path fill="none" stroke="white" stroke-width="1.5" d="M0,-3.0v7 M-2.5,-0.5L0,-3.0L2.5,-0.5"/>
                </g>
        </g>
        <svg viewBox="0 0 15 15" width="100%" height="30px" preserveAspectRatio="xMaxYMin meet">
         <g id="arrow_out" transform="scale(0.3 0.3)">
          <a xlink:href="_dwarf_elephant_r_b_structures_t3_f4_o3_m2_transient_8h__incl_org.svg" target="_base">
           <rect id="button" ry="5" rx="5" y="6" x="6" height="38" width="38"
                fill="#f2f5e9" fill-opacity="0.5" stroke="#606060" stroke-width="1.0"/>
           <path id="arrow"
             d="M 11.500037,31.436501 C 11.940474,20.09759 22.043105,11.32322 32.158766,21.979434 L 37.068811,17.246167 C 37.068811,17.246167 37.088388,32 37.088388,32 L 22.160133,31.978069 C 22.160133,31.978069 26.997745,27.140456 26.997745,27.140456 C 18.528582,18.264221 13.291696,25.230495 11.500037,31.436501 z"
             style="fill:#404040;"/>
          </a>
         </g>
        </svg>
</svg>
