<?xml version="1.0" encoding="UTF-8" standalone="no"?>
<!DOCTYPE svg PUBLIC "-//W3C//DTD SVG 1.1//EN"
 "http://www.w3.org/Graphics/SVG/1.1/DTD/svg11.dtd">
<!-- Generated by graphviz version 2.38.0 (20140413.2041)
 -->
<!-- Title: src/vectorpostprocessors/DwarfElephantAllElementalVariableValues.C Pages: 1 -->
<svg width="558pt" height="173pt"
 viewBox="0.00 0.00 557.50 173.00" xmlns="http://www.w3.org/2000/svg" xmlns:xlink="http://www.w3.org/1999/xlink">
<g id="graph0" class="graph" transform="scale(1 1) rotate(0) translate(4 169)">
<title>src/vectorpostprocessors/DwarfElephantAllElementalVariableValues.C</title>
<polygon fill="white" stroke="none" points="-4,4 -4,-169 553.5,-169 553.5,4 -4,4"/>
<!-- Node1 -->
<g id="node1" class="node"><title>Node1</title>
<polygon fill="#bfbfbf" stroke="black" points="215,-123.5 215,-164.5 392,-164.5 392,-123.5 215,-123.5"/>
<text text-anchor="start" x="223" y="-152.5" font-family="Helvetica,sans-Serif" font-size="10.00">src/vectorpostprocessors</text>
<text text-anchor="start" x="223" y="-141.5" font-family="Helvetica,sans-Serif" font-size="10.00">/DwarfElephantAllElementalVariable</text>
<text text-anchor="middle" x="303.5" y="-130.5" font-family="Helvetica,sans-Serif" font-size="10.00">Values.C</text>
</g>
<!-- Node2 -->
<g id="node2" class="node"><title>Node2</title>
<g id="a_node2"><a xlink:href="_dwarf_elephant_all_elemental_variable_values_8h.html" target="_top" xlink:title="DwarfElephantAllElemental\lVariableValues.h">
<polygon fill="white" stroke="black" points="7.5,-56.5 7.5,-86.5 145.5,-86.5 145.5,-56.5 7.5,-56.5"/>
<text text-anchor="start" x="15.5" y="-74.5" font-family="Helvetica,sans-Serif" font-size="10.00">DwarfElephantAllElemental</text>
<text text-anchor="middle" x="76.5" y="-63.5" font-family="Helvetica,sans-Serif" font-size="10.00">VariableValues.h</text>
</a>
</g>
</g>
<!-- Node1&#45;&gt;Node2 -->
<g id="edge1" class="edge"><title>Node1&#45;&gt;Node2</title>
<path fill="none" stroke="midnightblue" d="M240.569,-123.455C206.442,-112.857 164.649,-99.8765 131.784,-89.6697"/>
<polygon fill="midnightblue" stroke="midnightblue" points="132.478,-86.2203 121.89,-86.5968 130.402,-92.9053 132.478,-86.2203"/>
</g>
<!-- Node4 -->
<g id="node4" class="node"><title>Node4</title>
<polygon fill="white" stroke="#bfbfbf" points="163.5,-62 163.5,-81 247.5,-81 247.5,-62 163.5,-62"/>
<text text-anchor="middle" x="205.5" y="-69" font-family="Helvetica,sans-Serif" font-size="10.00">LineSegment.h</text>
</g>
<!-- Node1&#45;&gt;Node4 -->
<g id="edge3" class="edge"><title>Node1&#45;&gt;Node4</title>
<path fill="none" stroke="midnightblue" d="M276.202,-123.362C260.255,-111.89 240.466,-97.654 225.883,-87.1632"/>
<polygon fill="midnightblue" stroke="midnightblue" points="227.718,-84.172 217.557,-81.1734 223.63,-89.8544 227.718,-84.172"/>
</g>
<!-- Node5 -->
<g id="node5" class="node"><title>Node5</title>
<polygon fill="white" stroke="#bfbfbf" points="265.5,-62 265.5,-81 341.5,-81 341.5,-62 265.5,-62"/>
<text text-anchor="middle" x="303.5" y="-69" font-family="Helvetica,sans-Serif" font-size="10.00">RayTracing.h</text>
</g>
<!-- Node1&#45;&gt;Node5 -->
<g id="edge4" class="edge"><title>Node1&#45;&gt;Node5</title>
<path fill="none" stroke="midnightblue" d="M303.5,-123.362C303.5,-113.297 303.5,-101.104 303.5,-91.18"/>
<polygon fill="midnightblue" stroke="midnightblue" points="307,-91.1733 303.5,-81.1734 300,-91.1734 307,-91.1733"/>
</g>
<!-- Node6 -->
<g id="node6" class="node"><title>Node6</title>
<polygon fill="white" stroke="#bfbfbf" points="360,-62 360,-81 439,-81 439,-62 360,-62"/>
<text text-anchor="middle" x="399.5" y="-69" font-family="Helvetica,sans-Serif" font-size="10.00">MooseMesh.h</text>
</g>
<!-- Node1&#45;&gt;Node6 -->
<g id="edge5" class="edge"><title>Node1&#45;&gt;Node6</title>
<path fill="none" stroke="midnightblue" d="M330.241,-123.362C345.862,-111.89 365.248,-97.654 379.533,-87.1632"/>
<polygon fill="midnightblue" stroke="midnightblue" points="381.701,-89.9135 387.689,-81.1734 377.558,-84.2715 381.701,-89.9135"/>
</g>
<!-- Node7 -->
<g id="node7" class="node"><title>Node7</title>
<polygon fill="white" stroke="#bfbfbf" points="457.5,-62 457.5,-81 549.5,-81 549.5,-62 457.5,-62"/>
<text text-anchor="middle" x="503.5" y="-69" font-family="Helvetica,sans-Serif" font-size="10.00">MooseVariable.h</text>
</g>
<!-- Node1&#45;&gt;Node7 -->
<g id="edge6" class="edge"><title>Node1&#45;&gt;Node7</title>
<path fill="none" stroke="midnightblue" d="M358.946,-123.455C394.467,-110.934 439.415,-95.0899 469.683,-84.4206"/>
<polygon fill="midnightblue" stroke="midnightblue" points="471.082,-87.6385 479.35,-81.013 468.755,-81.0366 471.082,-87.6385"/>
</g>
<!-- Node3 -->
<g id="node3" class="node"><title>Node3</title>
<polygon fill="white" stroke="#bfbfbf" points="0,-0.5 0,-19.5 153,-19.5 153,-0.5 0,-0.5"/>
<text text-anchor="middle" x="76.5" y="-7.5" font-family="Helvetica,sans-Serif" font-size="10.00">GeneralVectorPostprocessor.h</text>
</g>
<!-- Node2&#45;&gt;Node3 -->
<g id="edge2" class="edge"><title>Node2&#45;&gt;Node3</title>
<path fill="none" stroke="midnightblue" d="M76.5,-56.3993C76.5,-48.4664 76.5,-38.458 76.5,-29.8583"/>
<polygon fill="midnightblue" stroke="midnightblue" points="80.0001,-29.6577 76.5,-19.6578 73.0001,-29.6578 80.0001,-29.6577"/>
</g>
</g>
</svg>
