<?xml version="1.0" encoding="UTF-8" standalone="no"?>
<!DOCTYPE svg PUBLIC "-//W3C//DTD SVG 1.1//EN"
 "http://www.w3.org/Graphics/SVG/1.1/DTD/svg11.dtd">
<!-- Generated by graphviz version 2.38.0 (20140413.2041)
 -->
<!-- Title: include/kernels/DwarfElephantRBConstantRadiogenicHeatProduction.h Pages: 1 -->
<svg width="376pt" height="106pt"
 viewBox="0.00 0.00 375.50 106.00" xmlns="http://www.w3.org/2000/svg" xmlns:xlink="http://www.w3.org/1999/xlink">
<g id="graph0" class="graph" transform="scale(1 1) rotate(0) translate(4 102)">
<title>include/kernels/DwarfElephantRBConstantRadiogenicHeatProduction.h</title>
<polygon fill="white" stroke="none" points="-4,4 -4,-102 371.5,-102 371.5,4 -4,4"/>
<!-- Node1 -->
<g id="node1" class="node"><title>Node1</title>
<polygon fill="#bfbfbf" stroke="black" points="72,-67.5 72,-97.5 270,-97.5 270,-67.5 72,-67.5"/>
<text text-anchor="start" x="80" y="-85.5" font-family="Helvetica,sans-Serif" font-size="10.00">include/kernels/DwarfElephant</text>
<text text-anchor="middle" x="171" y="-74.5" font-family="Helvetica,sans-Serif" font-size="10.00">RBConstantRadiogenicHeatProduction.h</text>
</g>
<!-- Node2 -->
<g id="node2" class="node"><title>Node2</title>
<g id="a_node2"><a xlink:href="_dwarf_elephant_app_8_c.html" target="_top" xlink:title="src/base/DwarfElephantApp.C">
<polygon fill="white" stroke="black" points="0,-6 0,-25 150,-25 150,-6 0,-6"/>
<text text-anchor="middle" x="75" y="-13" font-family="Helvetica,sans-Serif" font-size="10.00">src/base/DwarfElephantApp.C</text>
</a>
</g>
</g>
<!-- Node1&#45;&gt;Node2 -->
<g id="edge1" class="edge"><title>Node1&#45;&gt;Node2</title>
<path fill="none" stroke="midnightblue" d="M141.67,-61.6409C123.553,-49.3742 101.232,-34.2613 87.5642,-25.007"/>
<polygon fill="midnightblue" stroke="midnightblue" points="139.927,-64.6875 150.169,-67.396 143.851,-58.8912 139.927,-64.6875"/>
</g>
<!-- Node3 -->
<g id="node3" class="node"><title>Node3</title>
<g id="a_node3"><a xlink:href="_dwarf_elephant_r_b_constant_radiogenic_heat_production_8_c.html" target="_top" xlink:title="src/kernels/DwarfElephant\lRBConstantRadiogenicHeatProduction.C">
<polygon fill="white" stroke="black" points="168.5,-0.5 168.5,-30.5 367.5,-30.5 367.5,-0.5 168.5,-0.5"/>
<text text-anchor="start" x="176.5" y="-18.5" font-family="Helvetica,sans-Serif" font-size="10.00">src/kernels/DwarfElephant</text>
<text text-anchor="middle" x="268" y="-7.5" font-family="Helvetica,sans-Serif" font-size="10.00">RBConstantRadiogenicHeatProduction.C</text>
</a>
</g>
</g>
<!-- Node1&#45;&gt;Node3 -->
<g id="edge2" class="edge"><title>Node1&#45;&gt;Node3</title>
<path fill="none" stroke="midnightblue" d="M200.497,-61.7337C215.507,-51.6755 233.401,-39.6847 246.994,-30.5765"/>
<polygon fill="midnightblue" stroke="midnightblue" points="198.406,-58.9216 192.048,-67.396 202.303,-64.7367 198.406,-58.9216"/>
</g>
</g>
</svg>
