<?xml version="1.0" encoding="UTF-8" standalone="no"?>
<!DOCTYPE svg PUBLIC "-//W3C//DTD SVG 1.1//EN"
 "http://www.w3.org/Graphics/SVG/1.1/DTD/svg11.dtd">
<!-- Generated by graphviz version 2.38.0 (20140413.2041)
 -->
<!-- Title: include/executioners/DwarfElephantRBExecutioner.h Pages: 1 -->
<svg width="334pt" height="106pt"
 viewBox="0.00 0.00 334.00 106.00" xmlns="http://www.w3.org/2000/svg" xmlns:xlink="http://www.w3.org/1999/xlink">
<g id="graph0" class="graph" transform="scale(1 1) rotate(0) translate(4 102)">
<title>include/executioners/DwarfElephantRBExecutioner.h</title>
<polygon fill="white" stroke="none" points="-4,4 -4,-102 330,-102 330,4 -4,4"/>
<!-- Node1 -->
<g id="node1" class="node"><title>Node1</title>
<polygon fill="#bfbfbf" stroke="black" points="81,-67.5 81,-97.5 241,-97.5 241,-67.5 81,-67.5"/>
<text text-anchor="start" x="89" y="-85.5" font-family="Helvetica,sans-Serif" font-size="10.00">include/executioners</text>
<text text-anchor="middle" x="161" y="-74.5" font-family="Helvetica,sans-Serif" font-size="10.00">/DwarfElephantRBExecutioner.h</text>
</g>
<!-- Node2 -->
<g id="node2" class="node"><title>Node2</title>
<g id="a_node2"><a xlink:href="_dwarf_elephant_app_8_c.html" target="_top" xlink:title="src/base/DwarfElephantApp.C">
<polygon fill="white" stroke="black" points="0,-6 0,-25 150,-25 150,-6 0,-6"/>
<text text-anchor="middle" x="75" y="-13" font-family="Helvetica,sans-Serif" font-size="10.00">src/base/DwarfElephantApp.C</text>
</a>
</g>
</g>
<!-- Node1&#45;&gt;Node2 -->
<g id="edge1" class="edge"><title>Node1&#45;&gt;Node2</title>
<path fill="none" stroke="midnightblue" d="M134.33,-61.3425C118.281,-49.2128 98.6685,-34.389 86.5035,-25.1945"/>
<polygon fill="midnightblue" stroke="midnightblue" points="132.251,-64.1585 142.339,-67.396 136.472,-58.5741 132.251,-64.1585"/>
</g>
<!-- Node3 -->
<g id="node3" class="node"><title>Node3</title>
<g id="a_node3"><a xlink:href="_dwarf_elephant_r_b_executioner_8_c.html" target="_top" xlink:title="src/executioners/DwarfElephant\lRBExecutioner.C">
<polygon fill="white" stroke="black" points="168,-0.5 168,-30.5 326,-30.5 326,-0.5 168,-0.5"/>
<text text-anchor="start" x="176" y="-18.5" font-family="Helvetica,sans-Serif" font-size="10.00">src/executioners/DwarfElephant</text>
<text text-anchor="middle" x="247" y="-7.5" font-family="Helvetica,sans-Serif" font-size="10.00">RBExecutioner.C</text>
</a>
</g>
</g>
<!-- Node1&#45;&gt;Node3 -->
<g id="edge2" class="edge"><title>Node1&#45;&gt;Node3</title>
<path fill="none" stroke="midnightblue" d="M187.901,-61.1677C201.052,-51.2283 216.55,-39.5144 228.376,-30.5765"/>
<polygon fill="midnightblue" stroke="midnightblue" points="185.528,-58.5741 179.661,-67.396 189.749,-64.1585 185.528,-58.5741"/>
</g>
</g>
</svg>
