<?xml version="1.0" encoding="UTF-8" standalone="no"?>
<!DOCTYPE svg PUBLIC "-//W3C//DTD SVG 1.1//EN"
 "http://www.w3.org/Graphics/SVG/1.1/DTD/svg11.dtd">
<!-- Generated by graphviz version 2.38.0 (20140413.2041)
 -->
<!-- Title: include/dirackernels/DwarfElephantRBDiracKernel.h Pages: 1 -->
<svg width="425pt" height="184pt"
 viewBox="0.00 0.00 425.00 184.00" xmlns="http://www.w3.org/2000/svg" xmlns:xlink="http://www.w3.org/1999/xlink">
<g id="graph0" class="graph" transform="scale(1 1) rotate(0) translate(4 180)">
<title>include/dirackernels/DwarfElephantRBDiracKernel.h</title>
<polygon fill="white" stroke="none" points="-4,4 -4,-180 421,-180 421,4 -4,4"/>
<!-- Node1 -->
<g id="node1" class="node"><title>Node1</title>
<polygon fill="#bfbfbf" stroke="black" points="86,-145.5 86,-175.5 245,-175.5 245,-145.5 86,-145.5"/>
<text text-anchor="start" x="94" y="-163.5" font-family="Helvetica,sans-Serif" font-size="10.00">include/dirackernels</text>
<text text-anchor="middle" x="165.5" y="-152.5" font-family="Helvetica,sans-Serif" font-size="10.00">/DwarfElephantRBDiracKernel.h</text>
</g>
<!-- Node2 -->
<g id="node2" class="node"><title>Node2</title>
<g id="a_node2"><a xlink:href="_dwarf_elephant_r_b_dirac_kernel_8_c.html" target="_top" xlink:title="src/dirackernels/DwarfElephant\lRBDiracKernel.C">
<polygon fill="white" stroke="black" points="0,-73 0,-103 155,-103 155,-73 0,-73"/>
<text text-anchor="start" x="8" y="-91" font-family="Helvetica,sans-Serif" font-size="10.00">src/dirackernels/DwarfElephant</text>
<text text-anchor="middle" x="77.5" y="-80" font-family="Helvetica,sans-Serif" font-size="10.00">RBDiracKernel.C</text>
</a>
</g>
</g>
<!-- Node1&#45;&gt;Node2 -->
<g id="edge1" class="edge"><title>Node1&#45;&gt;Node2</title>
<path fill="none" stroke="midnightblue" d="M139.646,-138.788C125.265,-127.266 107.748,-113.233 94.9813,-103.005"/>
<polygon fill="midnightblue" stroke="midnightblue" points="137.699,-141.712 147.692,-145.233 142.076,-136.249 137.699,-141.712"/>
</g>
<!-- Node3 -->
<g id="node3" class="node"><title>Node3</title>
<g id="a_node3"><a xlink:href="_dwarf_elephant_r_b_constant_point_source_8h.html" target="_top" xlink:title="include/dirackernels\l/DwarfElephantRBConstantPoint\lSource.h">
<polygon fill="white" stroke="black" points="173.5,-67.5 173.5,-108.5 335.5,-108.5 335.5,-67.5 173.5,-67.5"/>
<text text-anchor="start" x="181.5" y="-96.5" font-family="Helvetica,sans-Serif" font-size="10.00">include/dirackernels</text>
<text text-anchor="start" x="181.5" y="-85.5" font-family="Helvetica,sans-Serif" font-size="10.00">/DwarfElephantRBConstantPoint</text>
<text text-anchor="middle" x="254.5" y="-74.5" font-family="Helvetica,sans-Serif" font-size="10.00">Source.h</text>
</a>
</g>
</g>
<!-- Node1&#45;&gt;Node3 -->
<g id="edge2" class="edge"><title>Node1&#45;&gt;Node3</title>
<path fill="none" stroke="midnightblue" d="M191.464,-138.933C203.546,-129.363 217.847,-118.034 229.771,-108.588"/>
<polygon fill="midnightblue" stroke="midnightblue" points="189.176,-136.28 183.51,-145.233 193.522,-141.767 189.176,-136.28"/>
</g>
<!-- Node4 -->
<g id="node4" class="node"><title>Node4</title>
<g id="a_node4"><a xlink:href="_dwarf_elephant_app_8_c.html" target="_top" xlink:title="src/base/DwarfElephantApp.C">
<polygon fill="white" stroke="black" points="93.5,-6 93.5,-25 243.5,-25 243.5,-6 93.5,-6"/>
<text text-anchor="middle" x="168.5" y="-13" font-family="Helvetica,sans-Serif" font-size="10.00">src/base/DwarfElephantApp.C</text>
</a>
</g>
</g>
<!-- Node3&#45;&gt;Node4 -->
<g id="edge3" class="edge"><title>Node3&#45;&gt;Node4</title>
<path fill="none" stroke="midnightblue" d="M222.74,-60.9641C207.369,-48.3638 189.938,-34.0741 179.08,-25.1734"/>
<polygon fill="midnightblue" stroke="midnightblue" points="220.592,-63.7288 230.544,-67.3618 225.03,-58.3153 220.592,-63.7288"/>
</g>
<!-- Node5 -->
<g id="node5" class="node"><title>Node5</title>
<g id="a_node5"><a xlink:href="_dwarf_elephant_r_b_constant_point_source_8_c.html" target="_top" xlink:title="src/dirackernels/DwarfElephant\lRBConstantPointSource.C">
<polygon fill="white" stroke="black" points="262,-0.5 262,-30.5 417,-30.5 417,-0.5 262,-0.5"/>
<text text-anchor="start" x="270" y="-18.5" font-family="Helvetica,sans-Serif" font-size="10.00">src/dirackernels/DwarfElephant</text>
<text text-anchor="middle" x="339.5" y="-7.5" font-family="Helvetica,sans-Serif" font-size="10.00">RBConstantPointSource.C</text>
</a>
</g>
</g>
<!-- Node3&#45;&gt;Node5 -->
<g id="edge4" class="edge"><title>Node3&#45;&gt;Node5</title>
<path fill="none" stroke="midnightblue" d="M286.036,-60.8437C298.357,-50.6249 311.997,-39.3117 322.416,-30.67"/>
<polygon fill="midnightblue" stroke="midnightblue" points="283.64,-58.2838 278.177,-67.3618 288.109,-63.6717 283.64,-58.2838"/>
</g>
</g>
</svg>
