<?xml version="1.0" encoding="UTF-8" standalone="no"?>
<!DOCTYPE svg PUBLIC "-//W3C//DTD SVG 1.1//EN"
 "http://www.w3.org/Graphics/SVG/1.1/DTD/svg11.dtd">
<!-- Generated by graphviz version 2.38.0 (20140413.2041)
 -->
<!-- Title: include/kernels/DwarfElephantRBTimeKernel.h Pages: 1 -->
<svg width="382pt" height="173pt"
 viewBox="0.00 0.00 382.00 173.00" xmlns="http://www.w3.org/2000/svg" xmlns:xlink="http://www.w3.org/1999/xlink">
<g id="graph0" class="graph" transform="scale(1 1) rotate(0) translate(4 169)">
<title>include/kernels/DwarfElephantRBTimeKernel.h</title>
<polygon fill="white" stroke="none" points="-4,4 -4,-169 378,-169 378,4 -4,4"/>
<!-- Node1 -->
<g id="node1" class="node"><title>Node1</title>
<polygon fill="#bfbfbf" stroke="black" points="70.5,-134.5 70.5,-164.5 222.5,-164.5 222.5,-134.5 70.5,-134.5"/>
<text text-anchor="start" x="78.5" y="-152.5" font-family="Helvetica,sans-Serif" font-size="10.00">include/kernels/DwarfElephant</text>
<text text-anchor="middle" x="146.5" y="-141.5" font-family="Helvetica,sans-Serif" font-size="10.00">RBTimeKernel.h</text>
</g>
<!-- Node2 -->
<g id="node2" class="node"><title>Node2</title>
<g id="a_node2"><a xlink:href="_dwarf_elephant_r_b_time_kernel_8_c.html" target="_top" xlink:title="src/kernels/DwarfElephant\lRBTimeKernel.C">
<polygon fill="white" stroke="black" points="0,-67.5 0,-97.5 133,-97.5 133,-67.5 0,-67.5"/>
<text text-anchor="start" x="8" y="-85.5" font-family="Helvetica,sans-Serif" font-size="10.00">src/kernels/DwarfElephant</text>
<text text-anchor="middle" x="66.5" y="-74.5" font-family="Helvetica,sans-Serif" font-size="10.00">RBTimeKernel.C</text>
</a>
</g>
</g>
<!-- Node1&#45;&gt;Node2 -->
<g id="edge1" class="edge"><title>Node1&#45;&gt;Node2</title>
<path fill="none" stroke="midnightblue" d="M121.125,-127.883C108.968,-118.005 94.7207,-106.429 83.8249,-97.5765"/>
<polygon fill="midnightblue" stroke="midnightblue" points="119.173,-130.806 129.141,-134.396 123.587,-125.374 119.173,-130.806"/>
</g>
<!-- Node3 -->
<g id="node3" class="node"><title>Node3</title>
<g id="a_node3"><a xlink:href="_dwarf_elephant_r_b_time_derivative_8h.html" target="_top" xlink:title="include/kernels/DwarfElephant\lRBTimeDerivative.h">
<polygon fill="white" stroke="black" points="151.5,-67.5 151.5,-97.5 303.5,-97.5 303.5,-67.5 151.5,-67.5"/>
<text text-anchor="start" x="159.5" y="-85.5" font-family="Helvetica,sans-Serif" font-size="10.00">include/kernels/DwarfElephant</text>
<text text-anchor="middle" x="227.5" y="-74.5" font-family="Helvetica,sans-Serif" font-size="10.00">RBTimeDerivative.h</text>
</a>
</g>
</g>
<!-- Node1&#45;&gt;Node3 -->
<g id="edge2" class="edge"><title>Node1&#45;&gt;Node3</title>
<path fill="none" stroke="midnightblue" d="M172.192,-127.883C184.501,-118.005 198.927,-106.429 209.959,-97.5765"/>
<polygon fill="midnightblue" stroke="midnightblue" points="169.685,-125.407 164.076,-134.396 174.066,-130.867 169.685,-125.407"/>
</g>
<!-- Node4 -->
<g id="node4" class="node"><title>Node4</title>
<g id="a_node4"><a xlink:href="_dwarf_elephant_app_8_c.html" target="_top" xlink:title="src/base/DwarfElephantApp.C">
<polygon fill="white" stroke="black" points="72.5,-6 72.5,-25 222.5,-25 222.5,-6 72.5,-6"/>
<text text-anchor="middle" x="147.5" y="-13" font-family="Helvetica,sans-Serif" font-size="10.00">src/base/DwarfElephantApp.C</text>
</a>
</g>
</g>
<!-- Node3&#45;&gt;Node4 -->
<g id="edge3" class="edge"><title>Node3&#45;&gt;Node4</title>
<path fill="none" stroke="midnightblue" d="M202.279,-61.008C187.428,-48.9412 169.413,-34.3046 158.201,-25.1945"/>
<polygon fill="midnightblue" stroke="midnightblue" points="200.173,-63.8064 210.141,-67.396 204.587,-58.3736 200.173,-63.8064"/>
</g>
<!-- Node5 -->
<g id="node5" class="node"><title>Node5</title>
<g id="a_node5"><a xlink:href="_dwarf_elephant_r_b_time_derivative_8_c.html" target="_top" xlink:title="src/kernels/DwarfElephant\lRBTimeDerivative.C">
<polygon fill="white" stroke="black" points="241,-0.5 241,-30.5 374,-30.5 374,-0.5 241,-0.5"/>
<text text-anchor="start" x="249" y="-18.5" font-family="Helvetica,sans-Serif" font-size="10.00">src/kernels/DwarfElephant</text>
<text text-anchor="middle" x="307.5" y="-7.5" font-family="Helvetica,sans-Serif" font-size="10.00">RBTimeDerivative.C</text>
</a>
</g>
</g>
<!-- Node3&#45;&gt;Node5 -->
<g id="edge4" class="edge"><title>Node3&#45;&gt;Node5</title>
<path fill="none" stroke="midnightblue" d="M252.875,-60.8832C265.032,-51.0054 279.279,-39.4293 290.175,-30.5765"/>
<polygon fill="midnightblue" stroke="midnightblue" points="250.413,-58.3736 244.859,-67.396 254.827,-63.8064 250.413,-58.3736"/>
</g>
</g>
</svg>
