<?xml version="1.0" encoding="UTF-8" standalone="no"?>
<!DOCTYPE svg PUBLIC "-//W3C//DTD SVG 1.1//EN"
 "http://www.w3.org/Graphics/SVG/1.1/DTD/svg11.dtd">
<!-- Generated by graphviz version 2.38.0 (20140413.2041)
 -->
<!-- Title: include/bcs/DwarfElephantRBNeumannBC.h Pages: 1 -->
<svg width="374pt" height="95pt"
 viewBox="0.00 0.00 374.00 95.00" xmlns="http://www.w3.org/2000/svg" xmlns:xlink="http://www.w3.org/1999/xlink">
<g id="graph0" class="graph" transform="scale(1 1) rotate(0) translate(4 91)">
<title>include/bcs/DwarfElephantRBNeumannBC.h</title>
<polygon fill="white" stroke="none" points="-4,4 -4,-91 370,-91 370,4 -4,4"/>
<!-- Node1 -->
<g id="node1" class="node"><title>Node1</title>
<polygon fill="#bfbfbf" stroke="black" points="103.5,-56.5 103.5,-86.5 238.5,-86.5 238.5,-56.5 103.5,-56.5"/>
<text text-anchor="start" x="111.5" y="-74.5" font-family="Helvetica,sans-Serif" font-size="10.00">include/bcs/DwarfElephant</text>
<text text-anchor="middle" x="171" y="-63.5" font-family="Helvetica,sans-Serif" font-size="10.00">RBNeumannBC.h</text>
</g>
<!-- Node2 -->
<g id="node2" class="node"><title>Node2</title>
<g id="a_node2"><a xlink:href="_dwarf_elephant_app_8_c.html" target="_top" xlink:title="src/base/DwarfElephantApp.C">
<polygon fill="white" stroke="black" points="0,-0.5 0,-19.5 150,-19.5 150,-0.5 0,-0.5"/>
<text text-anchor="middle" x="75" y="-7.5" font-family="Helvetica,sans-Serif" font-size="10.00">src/base/DwarfElephantApp.C</text>
</a>
</g>
</g>
<!-- Node1&#45;&gt;Node2 -->
<g id="edge1" class="edge"><title>Node1&#45;&gt;Node2</title>
<path fill="none" stroke="midnightblue" d="M139.649,-51.0688C122.536,-40.4624 102.2,-27.8586 88.9689,-19.6578"/>
<polygon fill="midnightblue" stroke="midnightblue" points="137.906,-54.1061 148.249,-56.3993 141.593,-48.1562 137.906,-54.1061"/>
</g>
<!-- Node3 -->
<g id="node3" class="node"><title>Node3</title>
<g id="a_node3"><a xlink:href="_dwarf_elephant_r_b_neumann_b_c_8_c.html" target="_top" xlink:title="src/bcs/DwarfElephantRBNeumannBC.C">
<polygon fill="white" stroke="black" points="168,-0.5 168,-19.5 366,-19.5 366,-0.5 168,-0.5"/>
<text text-anchor="middle" x="267" y="-7.5" font-family="Helvetica,sans-Serif" font-size="10.00">src/bcs/DwarfElephantRBNeumannBC.C</text>
</a>
</g>
</g>
<!-- Node1&#45;&gt;Node3 -->
<g id="edge2" class="edge"><title>Node1&#45;&gt;Node3</title>
<path fill="none" stroke="midnightblue" d="M202.351,-51.0688C219.464,-40.4624 239.8,-27.8586 253.031,-19.6578"/>
<polygon fill="midnightblue" stroke="midnightblue" points="200.407,-48.1562 193.751,-56.3993 204.094,-54.1061 200.407,-48.1562"/>
</g>
</g>
</svg>
