<?xml version="1.0" encoding="UTF-8" standalone="no"?>
<!DOCTYPE svg PUBLIC "-//W3C//DTD SVG 1.1//EN"
 "http://www.w3.org/Graphics/SVG/1.1/DTD/svg11.dtd">
<!-- Generated by graphviz version 2.38.0 (20140413.2041)
 -->
<!-- Title: include/userobjects/DwarfElephantRBStructuresT1F1O1M1Transient.h Pages: 1 -->
<svg width="578pt" height="184pt"
 viewBox="0.00 0.00 577.50 184.00" xmlns="http://www.w3.org/2000/svg" xmlns:xlink="http://www.w3.org/1999/xlink">
<g id="graph0" class="graph" transform="scale(1 1) rotate(0) translate(4 180)">
<title>include/userobjects/DwarfElephantRBStructuresT1F1O1M1Transient.h</title>
<polygon fill="white" stroke="none" points="-4,4 -4,-180 573.5,-180 573.5,4 -4,4"/>
<!-- Node1 -->
<g id="node1" class="node"><title>Node1</title>
<polygon fill="#bfbfbf" stroke="black" points="190.5,-134.5 190.5,-175.5 334.5,-175.5 334.5,-134.5 190.5,-134.5"/>
<text text-anchor="start" x="198.5" y="-163.5" font-family="Helvetica,sans-Serif" font-size="10.00">include/userobjects</text>
<text text-anchor="start" x="198.5" y="-152.5" font-family="Helvetica,sans-Serif" font-size="10.00">/DwarfElephantRBStructures</text>
<text text-anchor="middle" x="262.5" y="-141.5" font-family="Helvetica,sans-Serif" font-size="10.00">T1F1O1M1Transient.h</text>
</g>
<!-- Node2 -->
<g id="node2" class="node"><title>Node2</title>
<polygon fill="white" stroke="#bfbfbf" points="0,-67.5 0,-97.5 107,-97.5 107,-67.5 0,-67.5"/>
<text text-anchor="start" x="8" y="-85.5" font-family="Helvetica,sans-Serif" font-size="10.00">libmesh/transient_rb</text>
<text text-anchor="middle" x="53.5" y="-74.5" font-family="Helvetica,sans-Serif" font-size="10.00">_theta_expansion.h</text>
</g>
<!-- Node1&#45;&gt;Node2 -->
<g id="edge1" class="edge"><title>Node1&#45;&gt;Node2</title>
<path fill="none" stroke="midnightblue" d="M204.559,-134.455C173.274,-123.902 134.99,-110.988 104.792,-100.802"/>
<polygon fill="midnightblue" stroke="midnightblue" points="105.885,-97.4767 95.2905,-97.5968 103.647,-104.11 105.885,-97.4767"/>
</g>
<!-- Node3 -->
<g id="node3" class="node"><title>Node3</title>
<polygon fill="white" stroke="#bfbfbf" points="125.5,-67.5 125.5,-97.5 249.5,-97.5 249.5,-67.5 125.5,-67.5"/>
<text text-anchor="start" x="133.5" y="-85.5" font-family="Helvetica,sans-Serif" font-size="10.00">libmesh/transient_rb</text>
<text text-anchor="middle" x="187.5" y="-74.5" font-family="Helvetica,sans-Serif" font-size="10.00">_assembly_expansion.h</text>
</g>
<!-- Node1&#45;&gt;Node3 -->
<g id="edge2" class="edge"><title>Node1&#45;&gt;Node3</title>
<path fill="none" stroke="midnightblue" d="M241.608,-134.362C231.895,-125.232 220.319,-114.35 210.372,-105"/>
<polygon fill="midnightblue" stroke="midnightblue" points="212.494,-102.191 202.81,-97.8916 207.699,-107.291 212.494,-102.191"/>
</g>
<!-- Node4 -->
<g id="node4" class="node"><title>Node4</title>
<g id="a_node4"><a xlink:href="_dwarf_elephant_r_b_structures_a00_theta_constant_8h.html" target="_top" xlink:title="DwarfElephantRBStructures\lA00ThetaConstant.h">
<polygon fill="white" stroke="black" points="267.5,-67.5 267.5,-97.5 409.5,-97.5 409.5,-67.5 267.5,-67.5"/>
<text text-anchor="start" x="275.5" y="-85.5" font-family="Helvetica,sans-Serif" font-size="10.00">DwarfElephantRBStructures</text>
<text text-anchor="middle" x="338.5" y="-74.5" font-family="Helvetica,sans-Serif" font-size="10.00">A00ThetaConstant.h</text>
</a>
</g>
</g>
<!-- Node1&#45;&gt;Node4 -->
<g id="edge3" class="edge"><title>Node1&#45;&gt;Node4</title>
<path fill="none" stroke="midnightblue" d="M283.67,-134.362C293.61,-125.141 305.475,-114.135 315.622,-104.722"/>
<polygon fill="midnightblue" stroke="midnightblue" points="318.035,-107.258 322.986,-97.8916 313.274,-102.126 318.035,-107.258"/>
</g>
<!-- Node7 -->
<g id="node7" class="node"><title>Node7</title>
<g id="a_node7"><a xlink:href="_dwarf_elephant_r_b_structures_a0_theta_equal_mu0_8h.html" target="_top" xlink:title="DwarfElephantRBStructures\lA0ThetaEqualMu0.h">
<polygon fill="white" stroke="black" points="427.5,-67.5 427.5,-97.5 569.5,-97.5 569.5,-67.5 427.5,-67.5"/>
<text text-anchor="start" x="435.5" y="-85.5" font-family="Helvetica,sans-Serif" font-size="10.00">DwarfElephantRBStructures</text>
<text text-anchor="middle" x="498.5" y="-74.5" font-family="Helvetica,sans-Serif" font-size="10.00">A0ThetaEqualMu0.h</text>
</a>
</g>
</g>
<!-- Node1&#45;&gt;Node7 -->
<g id="edge6" class="edge"><title>Node1&#45;&gt;Node7</title>
<path fill="none" stroke="midnightblue" d="M327.926,-134.455C363.559,-123.811 407.231,-110.765 441.465,-100.538"/>
<polygon fill="midnightblue" stroke="midnightblue" points="442.731,-103.813 451.311,-97.5968 440.727,-97.1056 442.731,-103.813"/>
</g>
<!-- Node5 -->
<g id="node5" class="node"><title>Node5</title>
<polygon fill="white" stroke="#bfbfbf" points="298,-6 298,-25 397,-25 397,-6 298,-6"/>
<text text-anchor="middle" x="347.5" y="-13" font-family="Helvetica,sans-Serif" font-size="10.00">libmesh/rb_theta.h</text>
</g>
<!-- Node4&#45;&gt;Node5 -->
<g id="edge4" class="edge"><title>Node4&#45;&gt;Node5</title>
<path fill="none" stroke="midnightblue" d="M340.453,-67.396C341.759,-57.9635 343.492,-45.4484 344.912,-35.1891"/>
<polygon fill="midnightblue" stroke="midnightblue" points="348.391,-35.5801 346.296,-25.1945 341.458,-34.62 348.391,-35.5801"/>
</g>
<!-- Node6 -->
<g id="node6" class="node"><title>Node6</title>
<polygon fill="white" stroke="#bfbfbf" points="433.5,-0.5 433.5,-30.5 543.5,-30.5 543.5,-0.5 433.5,-0.5"/>
<text text-anchor="start" x="441.5" y="-18.5" font-family="Helvetica,sans-Serif" font-size="10.00">libmesh/rb_assembly</text>
<text text-anchor="middle" x="488.5" y="-7.5" font-family="Helvetica,sans-Serif" font-size="10.00">_expansion.h</text>
</g>
<!-- Node4&#45;&gt;Node6 -->
<g id="edge5" class="edge"><title>Node4&#45;&gt;Node6</title>
<path fill="none" stroke="midnightblue" d="M371.048,-67.396C393.259,-57.7709 422.878,-44.9362 446.814,-34.5637"/>
<polygon fill="midnightblue" stroke="midnightblue" points="448.232,-37.7641 456.016,-30.5765 445.449,-31.3412 448.232,-37.7641"/>
</g>
<!-- Node7&#45;&gt;Node5 -->
<g id="edge7" class="edge"><title>Node7&#45;&gt;Node5</title>
<path fill="none" stroke="midnightblue" d="M465.735,-67.396C439.241,-55.991 402.277,-40.0794 376.765,-29.0976"/>
<polygon fill="midnightblue" stroke="midnightblue" points="377.831,-25.7461 367.262,-25.007 375.064,-32.1757 377.831,-25.7461"/>
</g>
<!-- Node7&#45;&gt;Node6 -->
<g id="edge8" class="edge"><title>Node7&#45;&gt;Node6</title>
<path fill="none" stroke="midnightblue" d="M496.33,-67.396C495.125,-59.5597 493.592,-49.5958 492.202,-40.5653"/>
<polygon fill="midnightblue" stroke="midnightblue" points="495.646,-39.928 490.666,-30.5765 488.727,-40.9925 495.646,-39.928"/>
</g>
</g>
</svg>
