<?xml version="1.0" encoding="UTF-8" standalone="no"?>
<!DOCTYPE svg PUBLIC "-//W3C//DTD SVG 1.1//EN"
 "http://www.w3.org/Graphics/SVG/1.1/DTD/svg11.dtd">
<!-- Generated by graphviz version 2.38.0 (20140413.2041)
 -->
<!-- Title: src/userobjects/DwarfElephantRBTransientThetaExpansion.C Pages: 1 -->
<svg width="162pt" height="173pt"
 viewBox="0.00 0.00 162.00 173.00" xmlns="http://www.w3.org/2000/svg" xmlns:xlink="http://www.w3.org/1999/xlink">
<g id="graph0" class="graph" transform="scale(1 1) rotate(0) translate(4 169)">
<title>src/userobjects/DwarfElephantRBTransientThetaExpansion.C</title>
<polygon fill="white" stroke="none" points="-4,4 -4,-169 158,-169 158,4 -4,4"/>
<!-- Node1 -->
<g id="node1" class="node"><title>Node1</title>
<polygon fill="#bfbfbf" stroke="black" points="0,-134.5 0,-164.5 154,-164.5 154,-134.5 0,-134.5"/>
<text text-anchor="start" x="8" y="-152.5" font-family="Helvetica,sans-Serif" font-size="10.00">src/userobjects/DwarfElephant</text>
<text text-anchor="middle" x="77" y="-141.5" font-family="Helvetica,sans-Serif" font-size="10.00">RBTransientThetaExpansion.C</text>
</g>
<!-- Node2 -->
<g id="node2" class="node"><title>Node2</title>
<g id="a_node2"><a xlink:href="_dwarf_elephant_r_b_transient_theta_expansion_8h.html" target="_top" xlink:title="DwarfElephantRBTransient\lThetaExpansion.h">
<polygon fill="white" stroke="black" points="8,-67.5 8,-97.5 146,-97.5 146,-67.5 8,-67.5"/>
<text text-anchor="start" x="16" y="-85.5" font-family="Helvetica,sans-Serif" font-size="10.00">DwarfElephantRBTransient</text>
<text text-anchor="middle" x="77" y="-74.5" font-family="Helvetica,sans-Serif" font-size="10.00">ThetaExpansion.h</text>
</a>
</g>
</g>
<!-- Node1&#45;&gt;Node2 -->
<g id="edge1" class="edge"><title>Node1&#45;&gt;Node2</title>
<path fill="none" stroke="midnightblue" d="M77,-134.396C77,-126.645 77,-116.812 77,-107.86"/>
<polygon fill="midnightblue" stroke="midnightblue" points="80.5001,-107.576 77,-97.5765 73.5001,-107.577 80.5001,-107.576"/>
</g>
<!-- Node3 -->
<g id="node3" class="node"><title>Node3</title>
<polygon fill="white" stroke="#bfbfbf" points="23.5,-0.5 23.5,-30.5 130.5,-30.5 130.5,-0.5 23.5,-0.5"/>
<text text-anchor="start" x="31.5" y="-18.5" font-family="Helvetica,sans-Serif" font-size="10.00">libmesh/transient_rb</text>
<text text-anchor="middle" x="77" y="-7.5" font-family="Helvetica,sans-Serif" font-size="10.00">_theta_expansion.h</text>
</g>
<!-- Node2&#45;&gt;Node3 -->
<g id="edge2" class="edge"><title>Node2&#45;&gt;Node3</title>
<path fill="none" stroke="midnightblue" d="M77,-67.396C77,-59.6448 77,-49.8122 77,-40.8601"/>
<polygon fill="midnightblue" stroke="midnightblue" points="80.5001,-40.5765 77,-30.5765 73.5001,-40.5765 80.5001,-40.5765"/>
</g>
</g>
</svg>
