<?xml version="1.0" encoding="UTF-8" standalone="no"?>
<!DOCTYPE svg PUBLIC "-//W3C//DTD SVG 1.1//EN"
 "http://www.w3.org/Graphics/SVG/1.1/DTD/svg11.dtd">
<!-- Generated by graphviz version 2.38.0 (20140413.2041)
 -->
<!-- Title: src/kernels/ExtractQpPointsKernel.C Pages: 1 -->
<svg width="214pt" height="151pt"
 viewBox="0.00 0.00 214.00 151.00" xmlns="http://www.w3.org/2000/svg" xmlns:xlink="http://www.w3.org/1999/xlink">
<g id="graph0" class="graph" transform="scale(1 1) rotate(0) translate(4 147)">
<title>src/kernels/ExtractQpPointsKernel.C</title>
<polygon fill="white" stroke="none" points="-4,4 -4,-147 210,-147 210,4 -4,4"/>
<!-- Node1 -->
<g id="node1" class="node"><title>Node1</title>
<polygon fill="#bfbfbf" stroke="black" points="18,-112.5 18,-142.5 158,-142.5 158,-112.5 18,-112.5"/>
<text text-anchor="start" x="26" y="-130.5" font-family="Helvetica,sans-Serif" font-size="10.00">src/kernels/ExtractQpPoints</text>
<text text-anchor="middle" x="88" y="-119.5" font-family="Helvetica,sans-Serif" font-size="10.00">Kernel.C</text>
</g>
<!-- Node2 -->
<g id="node2" class="node"><title>Node2</title>
<g id="a_node2"><a xlink:href="_extract_qp_points_kernel_8h.html" target="_top" xlink:title="ExtractQpPointsKernel.h">
<polygon fill="white" stroke="black" points="25,-56.5 25,-75.5 151,-75.5 151,-56.5 25,-56.5"/>
<text text-anchor="middle" x="88" y="-63.5" font-family="Helvetica,sans-Serif" font-size="10.00">ExtractQpPointsKernel.h</text>
</a>
</g>
</g>
<!-- Node1&#45;&gt;Node2 -->
<g id="edge1" class="edge"><title>Node1&#45;&gt;Node2</title>
<path fill="none" stroke="midnightblue" d="M88,-112.399C88,-104.466 88,-94.458 88,-85.8583"/>
<polygon fill="midnightblue" stroke="midnightblue" points="91.5001,-85.6577 88,-75.6578 84.5001,-85.6578 91.5001,-85.6577"/>
</g>
<!-- Node3 -->
<g id="node3" class="node"><title>Node3</title>
<polygon fill="white" stroke="#bfbfbf" points="0,-0.5 0,-19.5 64,-19.5 64,-0.5 0,-0.5"/>
<text text-anchor="middle" x="32" y="-7.5" font-family="Helvetica,sans-Serif" font-size="10.00">Diffusion.h</text>
</g>
<!-- Node2&#45;&gt;Node3 -->
<g id="edge2" class="edge"><title>Node2&#45;&gt;Node3</title>
<path fill="none" stroke="midnightblue" d="M79.0026,-56.324C70.8056,-48.4196 58.4945,-36.5482 48.528,-26.9377"/>
<polygon fill="midnightblue" stroke="midnightblue" points="50.789,-24.2558 41.1611,-19.8339 45.9301,-29.2947 50.789,-24.2558"/>
</g>
<!-- Node4 -->
<g id="node4" class="node"><title>Node4</title>
<polygon fill="white" stroke="#bfbfbf" points="82,-0.5 82,-19.5 206,-19.5 206,-0.5 82,-0.5"/>
<text text-anchor="middle" x="144" y="-7.5" font-family="Helvetica,sans-Serif" font-size="10.00">NonlinearSystemBase.h</text>
</g>
<!-- Node2&#45;&gt;Node4 -->
<g id="edge3" class="edge"><title>Node2&#45;&gt;Node4</title>
<path fill="none" stroke="midnightblue" d="M96.9974,-56.324C105.194,-48.4196 117.506,-36.5482 127.472,-26.9377"/>
<polygon fill="midnightblue" stroke="midnightblue" points="130.07,-29.2947 134.839,-19.8339 125.211,-24.2558 130.07,-29.2947"/>
</g>
</g>
</svg>
