<?xml version="1.0" encoding="UTF-8" standalone="no"?>
<!DOCTYPE svg PUBLIC "-//W3C//DTD SVG 1.1//EN"
 "http://www.w3.org/Graphics/SVG/1.1/DTD/svg11.dtd">
<!-- Generated by graphviz version 2.38.0 (20140413.2041)
 -->
<!-- Title: include/materials/ExtractQpPoints.h Pages: 1 -->
<svg width="334pt" height="95pt"
 viewBox="0.00 0.00 334.00 95.00" xmlns="http://www.w3.org/2000/svg" xmlns:xlink="http://www.w3.org/1999/xlink">
<g id="graph0" class="graph" transform="scale(1 1) rotate(0) translate(4 91)">
<title>include/materials/ExtractQpPoints.h</title>
<polygon fill="white" stroke="none" points="-4,4 -4,-91 330,-91 330,4 -4,4"/>
<!-- Node1 -->
<g id="node1" class="node"><title>Node1</title>
<polygon fill="#bfbfbf" stroke="black" points="98.5,-56.5 98.5,-86.5 223.5,-86.5 223.5,-56.5 98.5,-56.5"/>
<text text-anchor="start" x="106.5" y="-74.5" font-family="Helvetica,sans-Serif" font-size="10.00">include/materials/Extract</text>
<text text-anchor="middle" x="161" y="-63.5" font-family="Helvetica,sans-Serif" font-size="10.00">QpPoints.h</text>
</g>
<!-- Node2 -->
<g id="node2" class="node"><title>Node2</title>
<g id="a_node2"><a xlink:href="_dwarf_elephant_app_8_c.html" target="_top" xlink:title="src/base/DwarfElephantApp.C">
<polygon fill="white" stroke="black" points="0,-0.5 0,-19.5 150,-19.5 150,-0.5 0,-0.5"/>
<text text-anchor="middle" x="75" y="-7.5" font-family="Helvetica,sans-Serif" font-size="10.00">src/base/DwarfElephantApp.C</text>
</a>
</g>
</g>
<!-- Node1&#45;&gt;Node2 -->
<g id="edge1" class="edge"><title>Node1&#45;&gt;Node2</title>
<path fill="none" stroke="midnightblue" d="M132.068,-50.483C116.918,-40.0013 99.1496,-27.7081 87.5138,-19.6578"/>
<polygon fill="midnightblue" stroke="midnightblue" points="130.404,-53.588 140.619,-56.3993 134.387,-47.8314 130.404,-53.588"/>
</g>
<!-- Node3 -->
<g id="node3" class="node"><title>Node3</title>
<g id="a_node3"><a xlink:href="_extract_qp_points_8_c.html" target="_top" xlink:title="src/materials/ExtractQpPoints.C">
<polygon fill="white" stroke="black" points="168,-0.5 168,-19.5 326,-19.5 326,-0.5 168,-0.5"/>
<text text-anchor="middle" x="247" y="-7.5" font-family="Helvetica,sans-Serif" font-size="10.00">src/materials/ExtractQpPoints.C</text>
</a>
</g>
</g>
<!-- Node1&#45;&gt;Node3 -->
<g id="edge2" class="edge"><title>Node1&#45;&gt;Node3</title>
<path fill="none" stroke="midnightblue" d="M189.932,-50.483C205.082,-40.0013 222.85,-27.7081 234.486,-19.6578"/>
<polygon fill="midnightblue" stroke="midnightblue" points="187.613,-47.8314 181.381,-56.3993 191.596,-53.588 187.613,-47.8314"/>
</g>
</g>
</svg>
