<?xml version="1.0" encoding="UTF-8" standalone="no"?>
<!DOCTYPE svg PUBLIC "-//W3C//DTD SVG 1.1//EN"
 "http://www.w3.org/Graphics/SVG/1.1/DTD/svg11.dtd">
<!-- Generated by graphviz version 2.38.0 (20140413.2041)
 -->
<!-- Title: DwarfElephantRBKernel Pages: 1 -->
<!--zoomable 291 -->
<svg id="main" version="1.1" xmlns="http://www.w3.org/2000/svg" xmlns:xlink="http://www.w3.org/1999/xlink" xml:space="preserve" onload="init(evt)">
<style type="text/css"><![CDATA[
.edge:hover path { stroke: red; }
.edge:hover polygon { stroke: red; fill: red; }
]]></style>
<script type="text/javascript"><![CDATA[
var edges = document.getElementsByTagName('g');
if (edges && edges.length) {
  for (var i=0;i<edges.length;i++) {
    if (edges[i].id.substr(0,4)=='edge') {
      edges[i].setAttribute('class','edge');
    }
  }
}
]]></script>
        <defs>
                <circle id="rim" cx="0" cy="0" r="7"/>
                <circle id="rim2" cx="0" cy="0" r="3.5"/>
                <g id="zoomPlus">
                        <use xlink:href="#rim" fill="#404040">
                                <set attributeName="fill" to="#808080" begin="zoomplus.mouseover" end="zoomplus.mouseout"/>
                        </use>
                        <path d="M-4,0h8M0,-4v8" fill="none" stroke="white" stroke-width="1.5" pointer-events="none"/>
                </g>
                <g id="zoomMin">
                        <use xlink:href="#rim" fill="#404040">
                                <set attributeName="fill" to="#808080" begin="zoomminus.mouseover" end="zoomminus.mouseout"/>
                        </use>
                        <path d="M-4,0h8" fill="none" stroke="white" stroke-width="1.5" pointer-events="none"/>
                </g>
                <g id="dirArrow">
                        <path fill="none" stroke="white" stroke-width="1.5" d="M0,-3.0v7 M-2.5,-0.5L0,-3.0L2.5,-0.5"/>
                </g>
               <g id="resetDef">
                       <use xlink:href="#rim2" fill="#404040">
                               <set attributeName="fill" to="#808080" begin="reset.mouseover" end="reset.mouseout"/>
                       </use>
               </g>
        </defs>

<script type="text/javascript">
var viewWidth = 662;
var viewHeight = 291;
var sectionId = 'dynsection-0';
</script>
<script xlink:href="svgpan.js"/>
<svg id="graph" class="graph">
<g id="viewport">
<title>DwarfElephantRBKernel</title>
<polygon fill="white" stroke="none" points="-4,4 -4,-286.5 658,-286.5 658,4 -4,4"/>
<!-- Node1 -->
<g id="node1" class="node"><title>Node1</title>
<polygon fill="#bfbfbf" stroke="black" points="81,-131.5 81,-150.5 206,-150.5 206,-131.5 81,-131.5"/>
<text text-anchor="middle" x="143.5" y="-138.5" font-family="Helvetica,sans-Serif" font-size="10.00">DwarfElephantRBKernel</text>
</g>
<!-- Node3 -->
<g id="node3" class="node"><title>Node3</title>
<g id="a_node3"><a xlink:href="class_dwarf_elephant_r_b_constant_radiogenic_heat_production.html" target="_top" xlink:title="This Kernel is implements a constant radiogenic heat production using the Reduced Basis solution...">
<polygon fill="white" stroke="black" points="245.5,-252 245.5,-282 431.5,-282 431.5,-252 245.5,-252"/>
<text text-anchor="start" x="253.5" y="-270" font-family="Helvetica,sans-Serif" font-size="10.00">DwarfElephantRBConstantRadiogenic</text>
<text text-anchor="middle" x="338.5" y="-259" font-family="Helvetica,sans-Serif" font-size="10.00">HeatProduction</text>
</a>
</g>
</g>
<!-- Node1&#45;&gt;Node3 -->
<g id="edge2" class="edge"><title>Node1&#45;&gt;Node3</title>
<path fill="none" stroke="midnightblue" d="M157.084,-159.193C173.825,-182 205.581,-220.684 242,-242 248.656,-245.896 255.923,-249.194 263.38,-251.985"/>
<polygon fill="midnightblue" stroke="midnightblue" points="159.712,-156.852 151.046,-150.757 154.02,-160.926 159.712,-156.852"/>
</g>
<!-- Node4 -->
<g id="node4" class="node"><title>Node4</title>
<g id="a_node4"><a xlink:href="class_dwarf_elephant_r_b_diffusion.html" target="_top" xlink:title="This Kernel implements the Diffusion problem by using the RB method. It is important to note that eve...">
<polygon fill="white" stroke="black" points="271,-213.5 271,-232.5 406,-232.5 406,-213.5 271,-213.5"/>
<text text-anchor="middle" x="338.5" y="-220.5" font-family="Helvetica,sans-Serif" font-size="10.00">DwarfElephantRBDiffusion</text>
</a>
</g>
</g>
<!-- Node1&#45;&gt;Node4 -->
<g id="edge3" class="edge"><title>Node1&#45;&gt;Node4</title>
<path fill="none" stroke="midnightblue" d="M164.079,-156.853C182.934,-171.313 212.815,-192.173 242,-204 251.557,-207.873 261.982,-210.979 272.318,-213.464"/>
<polygon fill="midnightblue" stroke="midnightblue" points="166.029,-153.934 155.997,-150.526 161.714,-159.446 166.029,-153.934"/>
</g>
<!-- Node6 -->
<g id="node6" class="node"><title>Node6</title>
<g id="a_node6"><a xlink:href="class_dwarf_elephant_r_b_diffusion_n_d.html" target="_top" xlink:title="DwarfElephantRBDiffusionND">
<polygon fill="white" stroke="black" points="264,-175.5 264,-194.5 413,-194.5 413,-175.5 264,-175.5"/>
<text text-anchor="middle" x="338.5" y="-182.5" font-family="Helvetica,sans-Serif" font-size="10.00">DwarfElephantRBDiffusionND</text>
</a>
</g>
</g>
<!-- Node1&#45;&gt;Node6 -->
<g id="edge5" class="edge"><title>Node1&#45;&gt;Node6</title>
<path fill="none" stroke="midnightblue" d="M192.04,-153.055C207.901,-156.982 225.687,-161.285 242,-165 257.691,-168.573 274.888,-172.248 290.312,-175.458"/>
<polygon fill="midnightblue" stroke="midnightblue" points="192.479,-149.557 181.93,-150.538 190.788,-156.35 192.479,-149.557"/>
</g>
<!-- Node7 -->
<g id="node7" class="node"><title>Node7</title>
<g id="a_node7"><a xlink:href="class_dwarf_elephant_r_b_lifting_function_kernel.html" target="_top" xlink:title="This Kernel is implements the concept of the lifting function to avoid problems caused by non&#45;homogen...">
<polygon fill="white" stroke="black" points="258,-126 258,-156 419,-156 419,-126 258,-126"/>
<text text-anchor="start" x="266" y="-144" font-family="Helvetica,sans-Serif" font-size="10.00">DwarfElephantRBLiftingFunction</text>
<text text-anchor="middle" x="338.5" y="-133" font-family="Helvetica,sans-Serif" font-size="10.00">Kernel</text>
</a>
</g>
</g>
<!-- Node1&#45;&gt;Node7 -->
<g id="edge6" class="edge"><title>Node1&#45;&gt;Node7</title>
<path fill="none" stroke="midnightblue" d="M216.288,-141C229.816,-141 244.039,-141 257.793,-141"/>
<polygon fill="midnightblue" stroke="midnightblue" points="216.097,-137.5 206.097,-141 216.097,-144.5 216.097,-137.5"/>
</g>
<!-- Node8 -->
<g id="node8" class="node"><title>Node8</title>
<g id="a_node8"><a xlink:href="class_dwarf_elephant_r_b_lifting_function_kernel_with_parameter_independent_scale.html" target="_top" xlink:title="This Kernel is implements the concept of the lifting function to avoid problems caused by non&#45;homogen...">
<polygon fill="white" stroke="black" points="242,-77 242,-107 435,-107 435,-77 242,-77"/>
<text text-anchor="start" x="250" y="-95" font-family="Helvetica,sans-Serif" font-size="10.00">DwarfElephantRBLiftingFunction</text>
<text text-anchor="middle" x="338.5" y="-84" font-family="Helvetica,sans-Serif" font-size="10.00">KernelWithParameterIndependentScale</text>
</a>
</g>
</g>
<!-- Node1&#45;&gt;Node8 -->
<g id="edge7" class="edge"><title>Node1&#45;&gt;Node8</title>
<path fill="none" stroke="midnightblue" d="M191.245,-128.966C207.327,-124.838 225.449,-120.202 242,-116 253.433,-113.098 265.641,-110.016 277.375,-107.063"/>
<polygon fill="midnightblue" stroke="midnightblue" points="190.343,-125.584 181.528,-131.461 192.084,-132.364 190.343,-125.584"/>
</g>
<!-- Node9 -->
<g id="node9" class="node"><title>Node9</title>
<g id="a_node9"><a xlink:href="class_dwarf_elephant_r_b_one_kernel.html" target="_top" xlink:title="DwarfElephantRBOneKernel">
<polygon fill="white" stroke="black" points="266.5,-38.5 266.5,-57.5 410.5,-57.5 410.5,-38.5 266.5,-38.5"/>
<text text-anchor="middle" x="338.5" y="-45.5" font-family="Helvetica,sans-Serif" font-size="10.00">DwarfElephantRBOneKernel</text>
</a>
</g>
</g>
<!-- Node1&#45;&gt;Node9 -->
<g id="edge8" class="edge"><title>Node1&#45;&gt;Node9</title>
<path fill="none" stroke="midnightblue" d="M161.529,-124.161C179.839,-107.059 210.574,-81.1398 242,-67 250.633,-63.1156 260.059,-60.0215 269.518,-57.5577"/>
<polygon fill="midnightblue" stroke="midnightblue" points="158.845,-121.885 154.033,-131.324 163.681,-126.946 158.845,-121.885"/>
</g>
<!-- Node10 -->
<g id="node10" class="node"><title>Node10</title>
<g id="a_node10"><a xlink:href="class_dwarf_elephant_r_b_time_kernel.html" target="_top" xlink:title="All time kernels should inherit from this class. ">
<polygon fill="white" stroke="black" points="265,-0.5 265,-19.5 412,-19.5 412,-0.5 265,-0.5"/>
<text text-anchor="middle" x="338.5" y="-7.5" font-family="Helvetica,sans-Serif" font-size="10.00">DwarfElephantRBTimeKernel</text>
</a>
</g>
</g>
<!-- Node1&#45;&gt;Node10 -->
<g id="edge9" class="edge"><title>Node1&#45;&gt;Node10</title>
<path fill="none" stroke="midnightblue" d="M155.022,-122.653C170.59,-97.2908 202.25,-52.0474 242,-29 249.02,-24.9299 256.764,-21.7181 264.716,-19.1858"/>
<polygon fill="midnightblue" stroke="midnightblue" points="151.974,-120.93 149.86,-131.311 157.987,-124.514 151.974,-120.93"/>
</g>
<!-- Node2 -->
<g id="node2" class="node"><title>Node2</title>
<polygon fill="white" stroke="#bfbfbf" points="0,-131.5 0,-150.5 45,-150.5 45,-131.5 0,-131.5"/>
<text text-anchor="middle" x="22.5" y="-138.5" font-family="Helvetica,sans-Serif" font-size="10.00">Kernel</text>
</g>
<!-- Node2&#45;&gt;Node1 -->
<g id="edge1" class="edge"><title>Node2&#45;&gt;Node1</title>
<path fill="none" stroke="midnightblue" d="M55.2661,-141C63.1968,-141 71.9742,-141 80.816,-141"/>
<polygon fill="midnightblue" stroke="midnightblue" points="55.05,-137.5 45.05,-141 55.05,-144.5 55.05,-137.5"/>
</g>
<!-- Node5 -->
<g id="node5" class="node"><title>Node5</title>
<g id="a_node5"><a xlink:href="class_dwarf_elephant_r_b_thermal_conduction.html" target="_top" xlink:title="This Kernel is implements a thermal conduction problem using the reduced basis solution. Note that the thermal conductivity is fixed for all parameters. ">
<polygon fill="white" stroke="black" points="471,-213.5 471,-232.5 654,-232.5 654,-213.5 471,-213.5"/>
<text text-anchor="middle" x="562.5" y="-220.5" font-family="Helvetica,sans-Serif" font-size="10.00">DwarfElephantRBThermalConduction</text>
</a>
</g>
</g>
<!-- Node4&#45;&gt;Node5 -->
<g id="edge4" class="edge"><title>Node4&#45;&gt;Node5</title>
<path fill="none" stroke="midnightblue" d="M416.279,-223C433.828,-223 452.642,-223 470.716,-223"/>
<polygon fill="midnightblue" stroke="midnightblue" points="416.107,-219.5 406.107,-223 416.107,-226.5 416.107,-219.5"/>
</g>
<!-- Node11 -->
<g id="node11" class="node"><title>Node11</title>
<g id="a_node11"><a xlink:href="class_dwarf_elephant_r_b_time_derivative.html" target="_top" xlink:title="This Kernel implements the TimeDerivative by using the RB method. It is important to note that every ...">
<polygon fill="white" stroke="black" points="481,-0.5 481,-19.5 644,-19.5 644,-0.5 481,-0.5"/>
<text text-anchor="middle" x="562.5" y="-7.5" font-family="Helvetica,sans-Serif" font-size="10.00">DwarfElephantRBTimeDerivative</text>
</a>
</g>
</g>
<!-- Node10&#45;&gt;Node11 -->
<g id="edge10" class="edge"><title>Node10&#45;&gt;Node11</title>
<path fill="none" stroke="midnightblue" d="M422.392,-10C441.554,-10 461.912,-10 480.97,-10"/>
<polygon fill="midnightblue" stroke="midnightblue" points="422.191,-6.5001 412.191,-10 422.191,-13.5001 422.191,-6.5001"/>
</g>
</g>
</svg>
        <g id="navigator" transform="translate(0 0)" fill="#404254">
                <rect fill="#f2f5e9" fill-opacity="0.5" stroke="#606060" stroke-width=".5" x="0" y="0" width="60" height="60"/>
                <use id="zoomplus" xlink:href="#zoomPlus" x="17" y="9" onmousedown="handleZoom(evt,'in')"/>
                <use id="zoomminus" xlink:href="#zoomMin" x="42" y="9" onmousedown="handleZoom(evt,'out')"/>
                <use id="reset" xlink:href="#resetDef" x="30" y="36" onmousedown="handleReset()"/>
                <g id="arrowUp" xlink:href="#dirArrow" transform="translate(30 24)" onmousedown="handlePan(0,-1)">
                  <use xlink:href="#rim" fill="#404040">
                        <set attributeName="fill" to="#808080" begin="arrowUp.mouseover" end="arrowUp.mouseout"/>
                  </use>
                  <path fill="none" stroke="white" stroke-width="1.5" d="M0,-3.0v7 M-2.5,-0.5L0,-3.0L2.5,-0.5"/>
                </g>
                <g id="arrowRight" xlink:href="#dirArrow" transform="rotate(90) translate(36 -43)" onmousedown="handlePan(1,0)">
                  <use xlink:href="#rim" fill="#404040">
                        <set attributeName="fill" to="#808080" begin="arrowRight.mouseover" end="arrowRight.mouseout"/>
                  </use>
                  <path fill="none" stroke="white" stroke-width="1.5" d="M0,-3.0v7 M-2.5,-0.5L0,-3.0L2.5,-0.5"/>
                </g>
                <g id="arrowDown" xlink:href="#dirArrow" transform="rotate(180) translate(-30 -48)" onmousedown="handlePan(0,1)">
                  <use xlink:href="#rim" fill="#404040">
                        <set attributeName="fill" to="#808080" begin="arrowDown.mouseover" end="arrowDown.mouseout"/>
                  </use>
                  <path fill="none" stroke="white" stroke-width="1.5" d="M0,-3.0v7 M-2.5,-0.5L0,-3.0L2.5,-0.5"/>
                </g>
                <g id="arrowLeft" xlink:href="#dirArrow" transform="rotate(270) translate(-36 17)" onmousedown="handlePan(-1,0)">
                  <use xlink:href="#rim" fill="#404040">
                        <set attributeName="fill" to="#808080" begin="arrowLeft.mouseover" end="arrowLeft.mouseout"/>
                  </use>
                  <path fill="none" stroke="white" stroke-width="1.5" d="M0,-3.0v7 M-2.5,-0.5L0,-3.0L2.5,-0.5"/>
                </g>
        </g>
        <svg viewBox="0 0 15 15" width="100%" height="30px" preserveAspectRatio="xMaxYMin meet">
         <g id="arrow_out" transform="scale(0.3 0.3)">
          <a xlink:href="class_dwarf_elephant_r_b_kernel__inherit__graph_org.svg" target="_base">
           <rect id="button" ry="5" rx="5" y="6" x="6" height="38" width="38"
                fill="#f2f5e9" fill-opacity="0.5" stroke="#606060" stroke-width="1.0"/>
           <path id="arrow"
             d="M 11.500037,31.436501 C 11.940474,20.09759 22.043105,11.32322 32.158766,21.979434 L 37.068811,17.246167 C 37.068811,17.246167 37.088388,32 37.088388,32 L 22.160133,31.978069 C 22.160133,31.978069 26.997745,27.140456 26.997745,27.140456 C 18.528582,18.264221 13.291696,25.230495 11.500037,31.436501 z"
             style="fill:#404040;"/>
          </a>
         </g>
        </svg>
</svg>
