<?xml version="1.0" encoding="UTF-8" standalone="no"?>
<!DOCTYPE svg PUBLIC "-//W3C//DTD SVG 1.1//EN"
 "http://www.w3.org/Graphics/SVG/1.1/DTD/svg11.dtd">
<!-- Generated by graphviz version 2.38.0 (20140413.2041)
 -->
<!-- Title: DwarfElephantRBIntegratedBC Pages: 1 -->
<!--zoomable 192 -->
<svg id="main" version="1.1" xmlns="http://www.w3.org/2000/svg" xmlns:xlink="http://www.w3.org/1999/xlink" xml:space="preserve" onload="init(evt)">
<style type="text/css"><![CDATA[
.edge:hover path { stroke: red; }
.edge:hover polygon { stroke: red; fill: red; }
]]></style>
<script type="text/javascript"><![CDATA[
var edges = document.getElementsByTagName('g');
if (edges && edges.length) {
  for (var i=0;i<edges.length;i++) {
    if (edges[i].id.substr(0,4)=='edge') {
      edges[i].setAttribute('class','edge');
    }
  }
}
]]></script>
        <defs>
                <circle id="rim" cx="0" cy="0" r="7"/>
                <circle id="rim2" cx="0" cy="0" r="3.5"/>
                <g id="zoomPlus">
                        <use xlink:href="#rim" fill="#404040">
                                <set attributeName="fill" to="#808080" begin="zoomplus.mouseover" end="zoomplus.mouseout"/>
                        </use>
                        <path d="M-4,0h8M0,-4v8" fill="none" stroke="white" stroke-width="1.5" pointer-events="none"/>
                </g>
                <g id="zoomMin">
                        <use xlink:href="#rim" fill="#404040">
                                <set attributeName="fill" to="#808080" begin="zoomminus.mouseover" end="zoomminus.mouseout"/>
                        </use>
                        <path d="M-4,0h8" fill="none" stroke="white" stroke-width="1.5" pointer-events="none"/>
                </g>
                <g id="dirArrow">
                        <path fill="none" stroke="white" stroke-width="1.5" d="M0,-3.0v7 M-2.5,-0.5L0,-3.0L2.5,-0.5"/>
                </g>
               <g id="resetDef">
                       <use xlink:href="#rim2" fill="#404040">
                               <set attributeName="fill" to="#808080" begin="reset.mouseover" end="reset.mouseout"/>
                       </use>
               </g>
        </defs>

<script type="text/javascript">
var viewWidth = 502;
var viewHeight = 192;
var sectionId = 'dynsection-0';
</script>
<script xlink:href="svgpan.js"/>
<svg id="graph" class="graph">
<g id="viewport">
<title>DwarfElephantRBIntegratedBC</title>
<polygon fill="white" stroke="none" points="-4,4 -4,-188 498,-188 498,4 -4,4"/>
<!-- Node1 -->
<g id="node1" class="node"><title>Node1</title>
<polygon fill="#bfbfbf" stroke="black" points="111,-76.5 111,-95.5 266,-95.5 266,-76.5 111,-76.5"/>
<text text-anchor="middle" x="188.5" y="-83.5" font-family="Helvetica,sans-Serif" font-size="10.00">DwarfElephantRBIntegratedBC</text>
</g>
<!-- Node3 -->
<g id="node3" class="node"><title>Node3</title>
<g id="a_node3"><a xlink:href="class_dwarf_elephant_r_b_function_neumann_b_c.html" target="_top" xlink:title="This BC is required to use the RB method for the Function Neumann BC. Since all necessary operations ...">
<polygon fill="white" stroke="black" points="302,-164.5 302,-183.5 494,-183.5 494,-164.5 302,-164.5"/>
<text text-anchor="middle" x="398" y="-171.5" font-family="Helvetica,sans-Serif" font-size="10.00">DwarfElephantRBFunctionNeumannBC</text>
</a>
</g>
</g>
<!-- Node1&#45;&gt;Node3 -->
<g id="edge2" class="edge"><title>Node1&#45;&gt;Node3</title>
<path fill="none" stroke="midnightblue" d="M210.001,-101.678C231.697,-117.499 267.505,-141.47 302,-155 311.865,-158.869 322.628,-161.985 333.249,-164.483"/>
<polygon fill="midnightblue" stroke="midnightblue" points="211.994,-98.7981 201.877,-95.6509 207.823,-104.42 211.994,-98.7981"/>
</g>
<!-- Node4 -->
<g id="node4" class="node"><title>Node4</title>
<g id="a_node4"><a xlink:href="class_dwarf_elephant_r_b_function_penalty_dirichlet_b_c.html" target="_top" xlink:title="This BC is required to use the RB method for the Function Penalty Dirichlet BC. Since all necessary o...">
<polygon fill="white" stroke="black" points="314,-115 314,-145 482,-145 482,-115 314,-115"/>
<text text-anchor="start" x="322" y="-133" font-family="Helvetica,sans-Serif" font-size="10.00">DwarfElephantRBFunctionPenalty</text>
<text text-anchor="middle" x="398" y="-122" font-family="Helvetica,sans-Serif" font-size="10.00">DirichletBC</text>
</a>
</g>
</g>
<!-- Node1&#45;&gt;Node4 -->
<g id="edge3" class="edge"><title>Node1&#45;&gt;Node4</title>
<path fill="none" stroke="midnightblue" d="M244.543,-97.6718C269.503,-102.965 299.328,-109.289 325.953,-114.935"/>
<polygon fill="midnightblue" stroke="midnightblue" points="245.033,-94.1979 234.524,-95.5473 243.581,-101.046 245.033,-94.1979"/>
</g>
<!-- Node5 -->
<g id="node5" class="node"><title>Node5</title>
<g id="a_node5"><a xlink:href="class_dwarf_elephant_r_b_neumann_b_c.html" target="_top" xlink:title="This BC is required to use the RB method for the Neumann BC. Since all necessary operations are defin...">
<polygon fill="white" stroke="black" points="321.5,-76.5 321.5,-95.5 474.5,-95.5 474.5,-76.5 321.5,-76.5"/>
<text text-anchor="middle" x="398" y="-83.5" font-family="Helvetica,sans-Serif" font-size="10.00">DwarfElephantRBNeumannBC</text>
</a>
</g>
</g>
<!-- Node1&#45;&gt;Node5 -->
<g id="edge4" class="edge"><title>Node1&#45;&gt;Node5</title>
<path fill="none" stroke="midnightblue" d="M276.414,-86C291.335,-86 306.734,-86 321.331,-86"/>
<polygon fill="midnightblue" stroke="midnightblue" points="276.176,-82.5001 266.176,-86 276.176,-89.5001 276.176,-82.5001"/>
</g>
<!-- Node6 -->
<g id="node6" class="node"><title>Node6</title>
<g id="a_node6"><a xlink:href="class_dwarf_elephant_r_b_neumann_b_c_n_d.html" target="_top" xlink:title="This BC is required to use the RB method for the dimensionless Neumann BC. Since all necessary operat...">
<polygon fill="white" stroke="black" points="314,-38.5 314,-57.5 482,-57.5 482,-38.5 314,-38.5"/>
<text text-anchor="middle" x="398" y="-45.5" font-family="Helvetica,sans-Serif" font-size="10.00">DwarfElephantRBNeumannBCND</text>
</a>
</g>
</g>
<!-- Node1&#45;&gt;Node6 -->
<g id="edge5" class="edge"><title>Node1&#45;&gt;Node6</title>
<path fill="none" stroke="midnightblue" d="M251.46,-74.653C281.232,-69.2009 316.515,-62.7393 344.885,-57.5439"/>
<polygon fill="midnightblue" stroke="midnightblue" points="250.799,-71.2158 241.593,-76.46 252.06,-78.1013 250.799,-71.2158"/>
</g>
<!-- Node7 -->
<g id="node7" class="node"><title>Node7</title>
<g id="a_node7"><a xlink:href="class_dwarf_elephant_r_b_penalty_dirichlet_b_c.html" target="_top" xlink:title="This BC is required to use the RB method for the Penalty Dirichlet BC. Since all necessary operations...">
<polygon fill="white" stroke="black" points="308.5,-0.5 308.5,-19.5 487.5,-19.5 487.5,-0.5 308.5,-0.5"/>
<text text-anchor="middle" x="398" y="-7.5" font-family="Helvetica,sans-Serif" font-size="10.00">DwarfElephantRBPenaltyDirichletBC</text>
</a>
</g>
</g>
<!-- Node1&#45;&gt;Node7 -->
<g id="edge6" class="edge"><title>Node1&#45;&gt;Node7</title>
<path fill="none" stroke="midnightblue" d="M213.671,-71.3162C235.897,-58.4147 270.136,-40.0277 302,-29 312.967,-25.2044 324.924,-22.0745 336.54,-19.5273"/>
<polygon fill="midnightblue" stroke="midnightblue" points="211.761,-68.3792 204.924,-76.4721 215.316,-74.4096 211.761,-68.3792"/>
</g>
<!-- Node2 -->
<g id="node2" class="node"><title>Node2</title>
<polygon fill="white" stroke="#bfbfbf" points="0,-76.5 0,-95.5 75,-95.5 75,-76.5 0,-76.5"/>
<text text-anchor="middle" x="37.5" y="-83.5" font-family="Helvetica,sans-Serif" font-size="10.00">IntegratedBC</text>
</g>
<!-- Node2&#45;&gt;Node1 -->
<g id="edge1" class="edge"><title>Node2&#45;&gt;Node1</title>
<path fill="none" stroke="midnightblue" d="M85.3495,-86C93.5042,-86 102.174,-86 110.882,-86"/>
<polygon fill="midnightblue" stroke="midnightblue" points="85.3315,-82.5001 75.3315,-86 85.3314,-89.5001 85.3315,-82.5001"/>
</g>
</g>
</svg>
        <g id="navigator" transform="translate(0 0)" fill="#404254">
                <rect fill="#f2f5e9" fill-opacity="0.5" stroke="#606060" stroke-width=".5" x="0" y="0" width="60" height="60"/>
                <use id="zoomplus" xlink:href="#zoomPlus" x="17" y="9" onmousedown="handleZoom(evt,'in')"/>
                <use id="zoomminus" xlink:href="#zoomMin" x="42" y="9" onmousedown="handleZoom(evt,'out')"/>
                <use id="reset" xlink:href="#resetDef" x="30" y="36" onmousedown="handleReset()"/>
                <g id="arrowUp" xlink:href="#dirArrow" transform="translate(30 24)" onmousedown="handlePan(0,-1)">
                  <use xlink:href="#rim" fill="#404040">
                        <set attributeName="fill" to="#808080" begin="arrowUp.mouseover" end="arrowUp.mouseout"/>
                  </use>
                  <path fill="none" stroke="white" stroke-width="1.5" d="M0,-3.0v7 M-2.5,-0.5L0,-3.0L2.5,-0.5"/>
                </g>
                <g id="arrowRight" xlink:href="#dirArrow" transform="rotate(90) translate(36 -43)" onmousedown="handlePan(1,0)">
                  <use xlink:href="#rim" fill="#404040">
                        <set attributeName="fill" to="#808080" begin="arrowRight.mouseover" end="arrowRight.mouseout"/>
                  </use>
                  <path fill="none" stroke="white" stroke-width="1.5" d="M0,-3.0v7 M-2.5,-0.5L0,-3.0L2.5,-0.5"/>
                </g>
                <g id="arrowDown" xlink:href="#dirArrow" transform="rotate(180) translate(-30 -48)" onmousedown="handlePan(0,1)">
                  <use xlink:href="#rim" fill="#404040">
                        <set attributeName="fill" to="#808080" begin="arrowDown.mouseover" end="arrowDown.mouseout"/>
                  </use>
                  <path fill="none" stroke="white" stroke-width="1.5" d="M0,-3.0v7 M-2.5,-0.5L0,-3.0L2.5,-0.5"/>
                </g>
                <g id="arrowLeft" xlink:href="#dirArrow" transform="rotate(270) translate(-36 17)" onmousedown="handlePan(-1,0)">
                  <use xlink:href="#rim" fill="#404040">
                        <set attributeName="fill" to="#808080" begin="arrowLeft.mouseover" end="arrowLeft.mouseout"/>
                  </use>
                  <path fill="none" stroke="white" stroke-width="1.5" d="M0,-3.0v7 M-2.5,-0.5L0,-3.0L2.5,-0.5"/>
                </g>
        </g>
        <svg viewBox="0 0 15 15" width="100%" height="30px" preserveAspectRatio="xMaxYMin meet">
         <g id="arrow_out" transform="scale(0.3 0.3)">
          <a xlink:href="class_dwarf_elephant_r_b_integrated_b_c__inherit__graph_org.svg" target="_base">
           <rect id="button" ry="5" rx="5" y="6" x="6" height="38" width="38"
                fill="#f2f5e9" fill-opacity="0.5" stroke="#606060" stroke-width="1.0"/>
           <path id="arrow"
             d="M 11.500037,31.436501 C 11.940474,20.09759 22.043105,11.32322 32.158766,21.979434 L 37.068811,17.246167 C 37.068811,17.246167 37.088388,32 37.088388,32 L 22.160133,31.978069 C 22.160133,31.978069 26.997745,27.140456 26.997745,27.140456 C 18.528582,18.264221 13.291696,25.230495 11.500037,31.436501 z"
             style="fill:#404040;"/>
          </a>
         </g>
        </svg>
</svg>
