<?xml version="1.0" encoding="UTF-8" standalone="no"?>
<!DOCTYPE svg PUBLIC "-//W3C//DTD SVG 1.1//EN"
 "http://www.w3.org/Graphics/SVG/1.1/DTD/svg11.dtd">
<!-- Generated by graphviz version 2.38.0 (20140413.2041)
 -->
<!-- Title: DwarfElephantRBPresetNodalBC Pages: 1 -->
<svg width="342pt" height="196pt"
 viewBox="0.00 0.00 342.00 196.00" xmlns="http://www.w3.org/2000/svg" xmlns:xlink="http://www.w3.org/1999/xlink">
<g id="graph0" class="graph" transform="scale(1 1) rotate(0) translate(4 192)">
<title>DwarfElephantRBPresetNodalBC</title>
<polygon fill="white" stroke="none" points="-4,4 -4,-192 338,-192 338,4 -4,4"/>
<!-- Node1 -->
<g id="node1" class="node"><title>Node1</title>
<polygon fill="#bfbfbf" stroke="black" points="94,-56.5 94,-75.5 259,-75.5 259,-56.5 94,-56.5"/>
<text text-anchor="middle" x="176.5" y="-63.5" font-family="Helvetica,sans-Serif" font-size="10.00">DwarfElephantRBPresetNodalBC</text>
</g>
<!-- Node4 -->
<g id="node4" class="node"><title>Node4</title>
<g id="a_node4"><a xlink:href="class_dwarf_elephant_r_b_function_preset_b_c.html" target="_top" xlink:title="This BC is required to use the RB method for the Function Preset BC. Since all necessary operations a...">
<polygon fill="white" stroke="black" points="0,-0.5 0,-19.5 177,-19.5 177,-0.5 0,-0.5"/>
<text text-anchor="middle" x="88.5" y="-7.5" font-family="Helvetica,sans-Serif" font-size="10.00">DwarfElephantRBFunctionPresetBC</text>
</a>
</g>
</g>
<!-- Node1&#45;&gt;Node4 -->
<g id="edge3" class="edge"><title>Node1&#45;&gt;Node4</title>
<path fill="none" stroke="midnightblue" d="M153.523,-50.9005C137.387,-40.9986 116.319,-28.0705 102.604,-19.6545"/>
<polygon fill="midnightblue" stroke="midnightblue" points="152.007,-54.0769 162.361,-56.324 155.669,-48.1106 152.007,-54.0769"/>
</g>
<!-- Node5 -->
<g id="node5" class="node"><title>Node5</title>
<g id="a_node5"><a xlink:href="class_dwarf_elephant_r_b_preset_b_c.html" target="_top" xlink:title="This BC is required to use the RB method for the Preset BC. Since all necessary operations are define...">
<polygon fill="white" stroke="black" points="195,-0.5 195,-19.5 334,-19.5 334,-0.5 195,-0.5"/>
<text text-anchor="middle" x="264.5" y="-7.5" font-family="Helvetica,sans-Serif" font-size="10.00">DwarfElephantRBPresetBC</text>
</a>
</g>
</g>
<!-- Node1&#45;&gt;Node5 -->
<g id="edge4" class="edge"><title>Node1&#45;&gt;Node5</title>
<path fill="none" stroke="midnightblue" d="M199.477,-50.9005C215.613,-40.9986 236.681,-28.0705 250.396,-19.6545"/>
<polygon fill="midnightblue" stroke="midnightblue" points="197.331,-48.1106 190.639,-56.324 200.993,-54.0769 197.331,-48.1106"/>
</g>
<!-- Node2 -->
<g id="node2" class="node"><title>Node2</title>
<g id="a_node2"><a xlink:href="class_dwarf_elephant_r_b_nodal_b_c.html" target="_top" xlink:title="This BC is required to use the RB method as it is provided by the RB libMesh package. The RBNodalBC inherits from the NodalBC class. It overwrites the function computeJacobian because for the RB method the stiffness matrix is needed separated in its subdomain contributions. In addition it overwrites the function computeResidual. ">
<polygon fill="white" stroke="black" points="108.5,-112.5 108.5,-131.5 244.5,-131.5 244.5,-112.5 108.5,-112.5"/>
<text text-anchor="middle" x="176.5" y="-119.5" font-family="Helvetica,sans-Serif" font-size="10.00">DwarfElephantRBNodalBC</text>
</a>
</g>
</g>
<!-- Node2&#45;&gt;Node1 -->
<g id="edge1" class="edge"><title>Node2&#45;&gt;Node1</title>
<path fill="none" stroke="midnightblue" d="M176.5,-101.805C176.5,-92.9102 176.5,-82.7798 176.5,-75.7511"/>
<polygon fill="midnightblue" stroke="midnightblue" points="173,-102.083 176.5,-112.083 180,-102.083 173,-102.083"/>
</g>
<!-- Node3 -->
<g id="node3" class="node"><title>Node3</title>
<polygon fill="white" stroke="#bfbfbf" points="148,-168.5 148,-187.5 205,-187.5 205,-168.5 148,-168.5"/>
<text text-anchor="middle" x="176.5" y="-175.5" font-family="Helvetica,sans-Serif" font-size="10.00">NodalBC</text>
</g>
<!-- Node3&#45;&gt;Node2 -->
<g id="edge2" class="edge"><title>Node3&#45;&gt;Node2</title>
<path fill="none" stroke="midnightblue" d="M176.5,-157.805C176.5,-148.91 176.5,-138.78 176.5,-131.751"/>
<polygon fill="midnightblue" stroke="midnightblue" points="173,-158.083 176.5,-168.083 180,-158.083 173,-158.083"/>
</g>
</g>
</svg>
