<?xml version="1.0" encoding="UTF-8" standalone="no"?>
<!DOCTYPE svg PUBLIC "-//W3C//DTD SVG 1.1//EN"
 "http://www.w3.org/Graphics/SVG/1.1/DTD/svg11.dtd">
<!-- Generated by graphviz version 2.38.0 (20140413.2041)
 -->
<!-- Title: DwarfElephantRBThermalConduction Pages: 1 -->
<svg width="191pt" height="196pt"
 viewBox="0.00 0.00 191.00 196.00" xmlns="http://www.w3.org/2000/svg" xmlns:xlink="http://www.w3.org/1999/xlink">
<g id="graph0" class="graph" transform="scale(1 1) rotate(0) translate(4 192)">
<title>DwarfElephantRBThermalConduction</title>
<polygon fill="white" stroke="none" points="-4,4 -4,-192 187,-192 187,4 -4,4"/>
<!-- Node1 -->
<g id="node1" class="node"><title>Node1</title>
<polygon fill="#bfbfbf" stroke="black" points="0,-0.5 0,-19.5 183,-19.5 183,-0.5 0,-0.5"/>
<text text-anchor="middle" x="91.5" y="-7.5" font-family="Helvetica,sans-Serif" font-size="10.00">DwarfElephantRBThermalConduction</text>
</g>
<!-- Node2 -->
<g id="node2" class="node"><title>Node2</title>
<g id="a_node2"><a xlink:href="class_dwarf_elephant_r_b_diffusion.html" target="_top" xlink:title="This Kernel implements the Diffusion problem by using the RB method. It is important to note that eve...">
<polygon fill="white" stroke="black" points="24,-56.5 24,-75.5 159,-75.5 159,-56.5 24,-56.5"/>
<text text-anchor="middle" x="91.5" y="-63.5" font-family="Helvetica,sans-Serif" font-size="10.00">DwarfElephantRBDiffusion</text>
</a>
</g>
</g>
<!-- Node2&#45;&gt;Node1 -->
<g id="edge1" class="edge"><title>Node2&#45;&gt;Node1</title>
<path fill="none" stroke="midnightblue" d="M91.5,-45.8045C91.5,-36.9102 91.5,-26.7798 91.5,-19.7511"/>
<polygon fill="midnightblue" stroke="midnightblue" points="88.0001,-46.083 91.5,-56.083 95.0001,-46.083 88.0001,-46.083"/>
</g>
<!-- Node3 -->
<g id="node3" class="node"><title>Node3</title>
<g id="a_node3"><a xlink:href="class_dwarf_elephant_r_b_kernel.html" target="_top" xlink:title="This Kernel is required to use the RB method as it is provided by the RB libMesh package. The RBKernel inherits from the Kernel class. It overwrites the function computeJacobian because for the RB method the stiffness matrix is needed separated in its subdomain contributions. In addition it overwrites the function computeResidual. ">
<polygon fill="white" stroke="black" points="29,-112.5 29,-131.5 154,-131.5 154,-112.5 29,-112.5"/>
<text text-anchor="middle" x="91.5" y="-119.5" font-family="Helvetica,sans-Serif" font-size="10.00">DwarfElephantRBKernel</text>
</a>
</g>
</g>
<!-- Node3&#45;&gt;Node2 -->
<g id="edge2" class="edge"><title>Node3&#45;&gt;Node2</title>
<path fill="none" stroke="midnightblue" d="M91.5,-101.805C91.5,-92.9102 91.5,-82.7798 91.5,-75.7511"/>
<polygon fill="midnightblue" stroke="midnightblue" points="88.0001,-102.083 91.5,-112.083 95.0001,-102.083 88.0001,-102.083"/>
</g>
<!-- Node4 -->
<g id="node4" class="node"><title>Node4</title>
<polygon fill="white" stroke="#bfbfbf" points="69,-168.5 69,-187.5 114,-187.5 114,-168.5 69,-168.5"/>
<text text-anchor="middle" x="91.5" y="-175.5" font-family="Helvetica,sans-Serif" font-size="10.00">Kernel</text>
</g>
<!-- Node4&#45;&gt;Node3 -->
<g id="edge3" class="edge"><title>Node4&#45;&gt;Node3</title>
<path fill="none" stroke="midnightblue" d="M91.5,-157.805C91.5,-148.91 91.5,-138.78 91.5,-131.751"/>
<polygon fill="midnightblue" stroke="midnightblue" points="88.0001,-158.083 91.5,-168.083 95.0001,-158.083 88.0001,-158.083"/>
</g>
</g>
</svg>
