<?xml version="1.0" encoding="UTF-8" standalone="no"?>
<!DOCTYPE svg PUBLIC "-//W3C//DTD SVG 1.1//EN"
 "http://www.w3.org/Graphics/SVG/1.1/DTD/svg11.dtd">
<!-- Generated by graphviz version 2.38.0 (20140413.2041)
 -->
<!-- Title: DwarfElephantRBNodalBC Pages: 1 -->
<svg width="670pt" height="123pt"
 viewBox="0.00 0.00 670.00 123.00" xmlns="http://www.w3.org/2000/svg" xmlns:xlink="http://www.w3.org/1999/xlink">
<g id="graph0" class="graph" transform="scale(1 1) rotate(0) translate(4 119)">
<title>DwarfElephantRBNodalBC</title>
<polygon fill="white" stroke="none" points="-4,4 -4,-119 666,-119 666,4 -4,4"/>
<!-- Node1 -->
<g id="node1" class="node"><title>Node1</title>
<polygon fill="#bfbfbf" stroke="black" points="93,-57.5 93,-76.5 229,-76.5 229,-57.5 93,-57.5"/>
<text text-anchor="middle" x="161" y="-64.5" font-family="Helvetica,sans-Serif" font-size="10.00">DwarfElephantRBNodalBC</text>
</g>
<!-- Node3 -->
<g id="node3" class="node"><title>Node3</title>
<g id="a_node3"><a xlink:href="class_dwarf_elephant_r_b_dirichlet_b_c.html" target="_top" xlink:title="This BC is required to use the RB method for the Dirichlet BC. Since all necessary operations are def...">
<polygon fill="white" stroke="black" points="284,-95.5 284,-114.5 430,-114.5 430,-95.5 284,-95.5"/>
<text text-anchor="middle" x="357" y="-102.5" font-family="Helvetica,sans-Serif" font-size="10.00">DwarfElephantRBDirichletBC</text>
</a>
</g>
</g>
<!-- Node1&#45;&gt;Node3 -->
<g id="edge2" class="edge"><title>Node1&#45;&gt;Node3</title>
<path fill="none" stroke="midnightblue" d="M220.905,-78.5381C248.575,-83.958 281.162,-90.341 307.398,-95.4799"/>
<polygon fill="midnightblue" stroke="midnightblue" points="221.441,-75.0766 210.954,-76.589 220.095,-81.946 221.441,-75.0766"/>
</g>
<!-- Node4 -->
<g id="node4" class="node"><title>Node4</title>
<g id="a_node4"><a xlink:href="class_dwarf_elephant_r_b_function_dirichlet_b_c.html" target="_top" xlink:title="This BC is required to use the RB method for the Function Dirichlet BC. Since all necessary operation...">
<polygon fill="white" stroke="black" points="265,-57.5 265,-76.5 449,-76.5 449,-57.5 265,-57.5"/>
<text text-anchor="middle" x="357" y="-64.5" font-family="Helvetica,sans-Serif" font-size="10.00">DwarfElephantRBFunctionDirichletBC</text>
</a>
</g>
</g>
<!-- Node1&#45;&gt;Node4 -->
<g id="edge3" class="edge"><title>Node1&#45;&gt;Node4</title>
<path fill="none" stroke="midnightblue" d="M239.146,-67C247.534,-67 256.129,-67 264.665,-67"/>
<polygon fill="midnightblue" stroke="midnightblue" points="239.035,-63.5001 229.035,-67 239.035,-70.5001 239.035,-63.5001"/>
</g>
<!-- Node5 -->
<g id="node5" class="node"><title>Node5</title>
<g id="a_node5"><a xlink:href="class_dwarf_elephant_r_b_preset_nodal_b_c.html" target="_top" xlink:title="This BC is required to use the RB method for the Preset BC. Since all necessary operations are define...">
<polygon fill="white" stroke="black" points="274.5,-19.5 274.5,-38.5 439.5,-38.5 439.5,-19.5 274.5,-19.5"/>
<text text-anchor="middle" x="357" y="-26.5" font-family="Helvetica,sans-Serif" font-size="10.00">DwarfElephantRBPresetNodalBC</text>
</a>
</g>
</g>
<!-- Node1&#45;&gt;Node5 -->
<g id="edge4" class="edge"><title>Node1&#45;&gt;Node5</title>
<path fill="none" stroke="midnightblue" d="M220.905,-55.4619C248.575,-50.042 281.162,-43.659 307.398,-38.5201"/>
<polygon fill="midnightblue" stroke="midnightblue" points="220.095,-52.054 210.954,-57.411 221.441,-58.9234 220.095,-52.054"/>
</g>
<!-- Node2 -->
<g id="node2" class="node"><title>Node2</title>
<polygon fill="white" stroke="#bfbfbf" points="0,-57.5 0,-76.5 57,-76.5 57,-57.5 0,-57.5"/>
<text text-anchor="middle" x="28.5" y="-64.5" font-family="Helvetica,sans-Serif" font-size="10.00">NodalBC</text>
</g>
<!-- Node2&#45;&gt;Node1 -->
<g id="edge1" class="edge"><title>Node2&#45;&gt;Node1</title>
<path fill="none" stroke="midnightblue" d="M67.3185,-67C75.3736,-67 84.1105,-67 92.8924,-67"/>
<polygon fill="midnightblue" stroke="midnightblue" points="67.1757,-63.5001 57.1757,-67 67.1757,-70.5001 67.1757,-63.5001"/>
</g>
<!-- Node6 -->
<g id="node6" class="node"><title>Node6</title>
<g id="a_node6"><a xlink:href="class_dwarf_elephant_r_b_function_preset_b_c.html" target="_top" xlink:title="This BC is required to use the RB method for the Function Preset BC. Since all necessary operations a...">
<polygon fill="white" stroke="black" points="485,-38.5 485,-57.5 662,-57.5 662,-38.5 485,-38.5"/>
<text text-anchor="middle" x="573.5" y="-45.5" font-family="Helvetica,sans-Serif" font-size="10.00">DwarfElephantRBFunctionPresetBC</text>
</a>
</g>
</g>
<!-- Node5&#45;&gt;Node6 -->
<g id="edge5" class="edge"><title>Node5&#45;&gt;Node6</title>
<path fill="none" stroke="midnightblue" d="M449.856,-37.1364C461.495,-38.1674 473.382,-39.2203 484.951,-40.2451"/>
<polygon fill="midnightblue" stroke="midnightblue" points="449.975,-33.6334 439.705,-36.2373 449.357,-40.6061 449.975,-33.6334"/>
</g>
<!-- Node7 -->
<g id="node7" class="node"><title>Node7</title>
<g id="a_node7"><a xlink:href="class_dwarf_elephant_r_b_preset_b_c.html" target="_top" xlink:title="This BC is required to use the RB method for the Preset BC. Since all necessary operations are define...">
<polygon fill="white" stroke="black" points="504,-0.5 504,-19.5 643,-19.5 643,-0.5 504,-0.5"/>
<text text-anchor="middle" x="573.5" y="-7.5" font-family="Helvetica,sans-Serif" font-size="10.00">DwarfElephantRBPresetBC</text>
</a>
</g>
</g>
<!-- Node5&#45;&gt;Node7 -->
<g id="edge6" class="edge"><title>Node5&#45;&gt;Node7</title>
<path fill="none" stroke="midnightblue" d="M449.729,-20.8748C467.909,-19.2645 486.697,-17.6003 503.943,-16.0726"/>
<polygon fill="midnightblue" stroke="midnightblue" points="449.357,-17.3939 439.705,-21.7627 449.975,-24.3666 449.357,-17.3939"/>
</g>
</g>
</svg>
