<?xml version="1.0" encoding="UTF-8" standalone="no"?>
<!DOCTYPE svg PUBLIC "-//W3C//DTD SVG 1.1//EN"
 "http://www.w3.org/Graphics/SVG/1.1/DTD/svg11.dtd">
<!-- Generated by graphviz version 2.38.0 (20140413.2041)
 -->
<!-- Title: DwarfElephantRBInitialCondition Pages: 1 -->
<svg width="316pt" height="140pt"
 viewBox="0.00 0.00 316.00 140.00" xmlns="http://www.w3.org/2000/svg" xmlns:xlink="http://www.w3.org/1999/xlink">
<g id="graph0" class="graph" transform="scale(1 1) rotate(0) translate(4 136)">
<title>DwarfElephantRBInitialCondition</title>
<polygon fill="white" stroke="none" points="-4,4 -4,-136 312,-136 312,4 -4,4"/>
<!-- Node1 -->
<g id="node1" class="node"><title>Node1</title>
<polygon fill="#bfbfbf" stroke="black" points="73,-56.5 73,-75.5 235,-75.5 235,-56.5 73,-56.5"/>
<text text-anchor="middle" x="154" y="-63.5" font-family="Helvetica,sans-Serif" font-size="10.00">DwarfElephantRBInitialCondition</text>
</g>
<!-- Node3 -->
<g id="node3" class="node"><title>Node3</title>
<g id="a_node3"><a xlink:href="class_dwarf_elephant_r_b_constant_i_c.html" target="_top" xlink:title="DwarfElephantRBConstantIC">
<polygon fill="white" stroke="black" points="0,-0.5 0,-19.5 146,-19.5 146,-0.5 0,-0.5"/>
<text text-anchor="middle" x="73" y="-7.5" font-family="Helvetica,sans-Serif" font-size="10.00">DwarfElephantRBConstantIC</text>
</a>
</g>
</g>
<!-- Node1&#45;&gt;Node3 -->
<g id="edge2" class="edge"><title>Node1&#45;&gt;Node3</title>
<path fill="none" stroke="midnightblue" d="M132.433,-50.6221C117.636,-40.7574 98.4878,-27.9919 85.9818,-19.6545"/>
<polygon fill="midnightblue" stroke="midnightblue" points="130.724,-53.6891 140.986,-56.324 134.607,-47.8647 130.724,-53.6891"/>
</g>
<!-- Node4 -->
<g id="node4" class="node"><title>Node4</title>
<g id="a_node4"><a xlink:href="class_dwarf_elephant_r_b_function_i_c.html" target="_top" xlink:title="DwarfElephantRBFunctionIC">
<polygon fill="white" stroke="black" points="164,-0.5 164,-19.5 308,-19.5 308,-0.5 164,-0.5"/>
<text text-anchor="middle" x="236" y="-7.5" font-family="Helvetica,sans-Serif" font-size="10.00">DwarfElephantRBFunctionIC</text>
</a>
</g>
</g>
<!-- Node1&#45;&gt;Node4 -->
<g id="edge3" class="edge"><title>Node1&#45;&gt;Node4</title>
<path fill="none" stroke="midnightblue" d="M175.833,-50.6221C190.813,-40.7574 210.197,-27.9919 222.858,-19.6545"/>
<polygon fill="midnightblue" stroke="midnightblue" points="173.601,-47.9009 167.175,-56.324 177.451,-53.7471 173.601,-47.9009"/>
</g>
<!-- Node2 -->
<g id="node2" class="node"><title>Node2</title>
<polygon fill="white" stroke="#bfbfbf" points="113,-112.5 113,-131.5 195,-131.5 195,-112.5 113,-112.5"/>
<text text-anchor="middle" x="154" y="-119.5" font-family="Helvetica,sans-Serif" font-size="10.00">InitialCondition</text>
</g>
<!-- Node2&#45;&gt;Node1 -->
<g id="edge1" class="edge"><title>Node2&#45;&gt;Node1</title>
<path fill="none" stroke="midnightblue" d="M154,-101.805C154,-92.9102 154,-82.7798 154,-75.7511"/>
<polygon fill="midnightblue" stroke="midnightblue" points="150.5,-102.083 154,-112.083 157.5,-102.083 150.5,-102.083"/>
</g>
</g>
</svg>
