<?xml version="1.0" encoding="UTF-8" standalone="no"?>
<!DOCTYPE svg PUBLIC "-//W3C//DTD SVG 1.1//EN"
 "http://www.w3.org/Graphics/SVG/1.1/DTD/svg11.dtd">
<!-- Generated by graphviz version 2.38.0 (20140413.2041)
 -->
<!-- Title: DwarfElephantRBLiftingFunctionKernelWithParameterIndependentScale Pages: 1 -->
<svg width="201pt" height="151pt"
 viewBox="0.00 0.00 201.00 151.00" xmlns="http://www.w3.org/2000/svg" xmlns:xlink="http://www.w3.org/1999/xlink">
<g id="graph0" class="graph" transform="scale(1 1) rotate(0) translate(4 147)">
<title>DwarfElephantRBLiftingFunctionKernelWithParameterIndependentScale</title>
<polygon fill="white" stroke="none" points="-4,4 -4,-147 197,-147 197,4 -4,4"/>
<!-- Node1 -->
<g id="node1" class="node"><title>Node1</title>
<polygon fill="#bfbfbf" stroke="black" points="0,-0.5 0,-30.5 193,-30.5 193,-0.5 0,-0.5"/>
<text text-anchor="start" x="8" y="-18.5" font-family="Helvetica,sans-Serif" font-size="10.00">DwarfElephantRBLiftingFunction</text>
<text text-anchor="middle" x="96.5" y="-7.5" font-family="Helvetica,sans-Serif" font-size="10.00">KernelWithParameterIndependentScale</text>
</g>
<!-- Node2 -->
<g id="node2" class="node"><title>Node2</title>
<g id="a_node2"><a xlink:href="class_dwarf_elephant_r_b_kernel.html" target="_top" xlink:title="This Kernel is required to use the RB method as it is provided by the RB libMesh package. The RBKernel inherits from the Kernel class. It overwrites the function computeJacobian because for the RB method the stiffness matrix is needed separated in its subdomain contributions. In addition it overwrites the function computeResidual. ">
<polygon fill="white" stroke="black" points="34,-67.5 34,-86.5 159,-86.5 159,-67.5 34,-67.5"/>
<text text-anchor="middle" x="96.5" y="-74.5" font-family="Helvetica,sans-Serif" font-size="10.00">DwarfElephantRBKernel</text>
</a>
</g>
</g>
<!-- Node2&#45;&gt;Node1 -->
<g id="edge1" class="edge"><title>Node2&#45;&gt;Node1</title>
<path fill="none" stroke="midnightblue" d="M96.5,-57.2349C96.5,-48.5864 96.5,-38.4969 96.5,-30.523"/>
<polygon fill="midnightblue" stroke="midnightblue" points="93.0001,-57.4751 96.5,-67.4751 100,-57.4751 93.0001,-57.4751"/>
</g>
<!-- Node3 -->
<g id="node3" class="node"><title>Node3</title>
<polygon fill="white" stroke="#bfbfbf" points="74,-123.5 74,-142.5 119,-142.5 119,-123.5 74,-123.5"/>
<text text-anchor="middle" x="96.5" y="-130.5" font-family="Helvetica,sans-Serif" font-size="10.00">Kernel</text>
</g>
<!-- Node3&#45;&gt;Node2 -->
<g id="edge2" class="edge"><title>Node3&#45;&gt;Node2</title>
<path fill="none" stroke="midnightblue" d="M96.5,-112.805C96.5,-103.91 96.5,-93.7798 96.5,-86.7511"/>
<polygon fill="midnightblue" stroke="midnightblue" points="93.0001,-113.083 96.5,-123.083 100,-113.083 93.0001,-113.083"/>
</g>
</g>
</svg>
