<?xml version="1.0" encoding="UTF-8" standalone="no"?>
<!DOCTYPE svg PUBLIC "-//W3C//DTD SVG 1.1//EN"
 "http://www.w3.org/Graphics/SVG/1.1/DTD/svg11.dtd">
<!-- Generated by graphviz version 2.38.0 (20140413.2041)
 -->
<!-- Title: DwarfElephantRBFunctionDirichletBC Pages: 1 -->
<svg width="192pt" height="140pt"
 viewBox="0.00 0.00 192.00 140.00" xmlns="http://www.w3.org/2000/svg" xmlns:xlink="http://www.w3.org/1999/xlink">
<g id="graph0" class="graph" transform="scale(1 1) rotate(0) translate(4 136)">
<title>DwarfElephantRBFunctionDirichletBC</title>
<polygon fill="white" stroke="none" points="-4,4 -4,-136 188,-136 188,4 -4,4"/>
<!-- Node1 -->
<g id="node1" class="node"><title>Node1</title>
<polygon fill="#bfbfbf" stroke="black" points="0,-0.5 0,-19.5 184,-19.5 184,-0.5 0,-0.5"/>
<text text-anchor="middle" x="92" y="-7.5" font-family="Helvetica,sans-Serif" font-size="10.00">DwarfElephantRBFunctionDirichletBC</text>
</g>
<!-- Node2 -->
<g id="node2" class="node"><title>Node2</title>
<g id="a_node2"><a xlink:href="class_dwarf_elephant_r_b_nodal_b_c.html" target="_top" xlink:title="This BC is required to use the RB method as it is provided by the RB libMesh package. The RBNodalBC inherits from the NodalBC class. It overwrites the function computeJacobian because for the RB method the stiffness matrix is needed separated in its subdomain contributions. In addition it overwrites the function computeResidual. ">
<polygon fill="white" stroke="black" points="24,-56.5 24,-75.5 160,-75.5 160,-56.5 24,-56.5"/>
<text text-anchor="middle" x="92" y="-63.5" font-family="Helvetica,sans-Serif" font-size="10.00">DwarfElephantRBNodalBC</text>
</a>
</g>
</g>
<!-- Node2&#45;&gt;Node1 -->
<g id="edge1" class="edge"><title>Node2&#45;&gt;Node1</title>
<path fill="none" stroke="midnightblue" d="M92,-45.8045C92,-36.9102 92,-26.7798 92,-19.7511"/>
<polygon fill="midnightblue" stroke="midnightblue" points="88.5001,-46.083 92,-56.083 95.5001,-46.083 88.5001,-46.083"/>
</g>
<!-- Node3 -->
<g id="node3" class="node"><title>Node3</title>
<polygon fill="white" stroke="#bfbfbf" points="63.5,-112.5 63.5,-131.5 120.5,-131.5 120.5,-112.5 63.5,-112.5"/>
<text text-anchor="middle" x="92" y="-119.5" font-family="Helvetica,sans-Serif" font-size="10.00">NodalBC</text>
</g>
<!-- Node3&#45;&gt;Node2 -->
<g id="edge2" class="edge"><title>Node3&#45;&gt;Node2</title>
<path fill="none" stroke="midnightblue" d="M92,-101.805C92,-92.9102 92,-82.7798 92,-75.7511"/>
<polygon fill="midnightblue" stroke="midnightblue" points="88.5001,-102.083 92,-112.083 95.5001,-102.083 88.5001,-102.083"/>
</g>
</g>
</svg>
