<?xml version="1.0" encoding="UTF-8" standalone="no"?>
<!DOCTYPE svg PUBLIC "-//W3C//DTD SVG 1.1//EN"
 "http://www.w3.org/Graphics/SVG/1.1/DTD/svg11.dtd">
<!-- Generated by graphviz version 2.38.0 (20140413.2041)
 -->
<!-- Title: DwarfElephantRBIntegratedBC Pages: 1 -->
<svg width="502pt" height="192pt"
 viewBox="0.00 0.00 502.00 192.00" xmlns="http://www.w3.org/2000/svg" xmlns:xlink="http://www.w3.org/1999/xlink">
<g id="graph0" class="graph" transform="scale(1 1) rotate(0) translate(4 188)">
<title>DwarfElephantRBIntegratedBC</title>
<polygon fill="white" stroke="none" points="-4,4 -4,-188 498,-188 498,4 -4,4"/>
<!-- Node1 -->
<g id="node1" class="node"><title>Node1</title>
<polygon fill="#bfbfbf" stroke="black" points="111,-76.5 111,-95.5 266,-95.5 266,-76.5 111,-76.5"/>
<text text-anchor="middle" x="188.5" y="-83.5" font-family="Helvetica,sans-Serif" font-size="10.00">DwarfElephantRBIntegratedBC</text>
</g>
<!-- Node3 -->
<g id="node3" class="node"><title>Node3</title>
<g id="a_node3"><a xlink:href="class_dwarf_elephant_r_b_function_neumann_b_c.html" target="_top" xlink:title="This BC is required to use the RB method for the Function Neumann BC. Since all necessary operations ...">
<polygon fill="white" stroke="black" points="302,-164.5 302,-183.5 494,-183.5 494,-164.5 302,-164.5"/>
<text text-anchor="middle" x="398" y="-171.5" font-family="Helvetica,sans-Serif" font-size="10.00">DwarfElephantRBFunctionNeumannBC</text>
</a>
</g>
</g>
<!-- Node1&#45;&gt;Node3 -->
<g id="edge2" class="edge"><title>Node1&#45;&gt;Node3</title>
<path fill="none" stroke="midnightblue" d="M210.001,-101.678C231.697,-117.499 267.505,-141.47 302,-155 311.865,-158.869 322.628,-161.985 333.249,-164.483"/>
<polygon fill="midnightblue" stroke="midnightblue" points="211.994,-98.7981 201.877,-95.6509 207.823,-104.42 211.994,-98.7981"/>
</g>
<!-- Node4 -->
<g id="node4" class="node"><title>Node4</title>
<g id="a_node4"><a xlink:href="class_dwarf_elephant_r_b_function_penalty_dirichlet_b_c.html" target="_top" xlink:title="This BC is required to use the RB method for the Function Penalty Dirichlet BC. Since all necessary o...">
<polygon fill="white" stroke="black" points="314,-115 314,-145 482,-145 482,-115 314,-115"/>
<text text-anchor="start" x="322" y="-133" font-family="Helvetica,sans-Serif" font-size="10.00">DwarfElephantRBFunctionPenalty</text>
<text text-anchor="middle" x="398" y="-122" font-family="Helvetica,sans-Serif" font-size="10.00">DirichletBC</text>
</a>
</g>
</g>
<!-- Node1&#45;&gt;Node4 -->
<g id="edge3" class="edge"><title>Node1&#45;&gt;Node4</title>
<path fill="none" stroke="midnightblue" d="M244.543,-97.6718C269.503,-102.965 299.328,-109.289 325.953,-114.935"/>
<polygon fill="midnightblue" stroke="midnightblue" points="245.033,-94.1979 234.524,-95.5473 243.581,-101.046 245.033,-94.1979"/>
</g>
<!-- Node5 -->
<g id="node5" class="node"><title>Node5</title>
<g id="a_node5"><a xlink:href="class_dwarf_elephant_r_b_neumann_b_c.html" target="_top" xlink:title="This BC is required to use the RB method for the Neumann BC. Since all necessary operations are defin...">
<polygon fill="white" stroke="black" points="321.5,-76.5 321.5,-95.5 474.5,-95.5 474.5,-76.5 321.5,-76.5"/>
<text text-anchor="middle" x="398" y="-83.5" font-family="Helvetica,sans-Serif" font-size="10.00">DwarfElephantRBNeumannBC</text>
</a>
</g>
</g>
<!-- Node1&#45;&gt;Node5 -->
<g id="edge4" class="edge"><title>Node1&#45;&gt;Node5</title>
<path fill="none" stroke="midnightblue" d="M276.414,-86C291.335,-86 306.734,-86 321.331,-86"/>
<polygon fill="midnightblue" stroke="midnightblue" points="276.176,-82.5001 266.176,-86 276.176,-89.5001 276.176,-82.5001"/>
</g>
<!-- Node6 -->
<g id="node6" class="node"><title>Node6</title>
<g id="a_node6"><a xlink:href="class_dwarf_elephant_r_b_neumann_b_c_n_d.html" target="_top" xlink:title="This BC is required to use the RB method for the dimensionless Neumann BC. Since all necessary operat...">
<polygon fill="white" stroke="black" points="314,-38.5 314,-57.5 482,-57.5 482,-38.5 314,-38.5"/>
<text text-anchor="middle" x="398" y="-45.5" font-family="Helvetica,sans-Serif" font-size="10.00">DwarfElephantRBNeumannBCND</text>
</a>
</g>
</g>
<!-- Node1&#45;&gt;Node6 -->
<g id="edge5" class="edge"><title>Node1&#45;&gt;Node6</title>
<path fill="none" stroke="midnightblue" d="M251.46,-74.653C281.232,-69.2009 316.515,-62.7393 344.885,-57.5439"/>
<polygon fill="midnightblue" stroke="midnightblue" points="250.799,-71.2158 241.593,-76.46 252.06,-78.1013 250.799,-71.2158"/>
</g>
<!-- Node7 -->
<g id="node7" class="node"><title>Node7</title>
<g id="a_node7"><a xlink:href="class_dwarf_elephant_r_b_penalty_dirichlet_b_c.html" target="_top" xlink:title="This BC is required to use the RB method for the Penalty Dirichlet BC. Since all necessary operations...">
<polygon fill="white" stroke="black" points="308.5,-0.5 308.5,-19.5 487.5,-19.5 487.5,-0.5 308.5,-0.5"/>
<text text-anchor="middle" x="398" y="-7.5" font-family="Helvetica,sans-Serif" font-size="10.00">DwarfElephantRBPenaltyDirichletBC</text>
</a>
</g>
</g>
<!-- Node1&#45;&gt;Node7 -->
<g id="edge6" class="edge"><title>Node1&#45;&gt;Node7</title>
<path fill="none" stroke="midnightblue" d="M213.671,-71.3162C235.897,-58.4147 270.136,-40.0277 302,-29 312.967,-25.2044 324.924,-22.0745 336.54,-19.5273"/>
<polygon fill="midnightblue" stroke="midnightblue" points="211.761,-68.3792 204.924,-76.4721 215.316,-74.4096 211.761,-68.3792"/>
</g>
<!-- Node2 -->
<g id="node2" class="node"><title>Node2</title>
<polygon fill="white" stroke="#bfbfbf" points="0,-76.5 0,-95.5 75,-95.5 75,-76.5 0,-76.5"/>
<text text-anchor="middle" x="37.5" y="-83.5" font-family="Helvetica,sans-Serif" font-size="10.00">IntegratedBC</text>
</g>
<!-- Node2&#45;&gt;Node1 -->
<g id="edge1" class="edge"><title>Node2&#45;&gt;Node1</title>
<path fill="none" stroke="midnightblue" d="M85.3495,-86C93.5042,-86 102.174,-86 110.882,-86"/>
<polygon fill="midnightblue" stroke="midnightblue" points="85.3315,-82.5001 75.3315,-86 85.3314,-89.5001 85.3315,-82.5001"/>
</g>
</g>
</svg>
