<?xml version="1.0" encoding="UTF-8" standalone="no"?>
<!DOCTYPE svg PUBLIC "-//W3C//DTD SVG 1.1//EN"
 "http://www.w3.org/Graphics/SVG/1.1/DTD/svg11.dtd">
<!-- Generated by graphviz version 2.38.0 (20140413.2041)
 -->
<!-- Title: DwarfElephantRBTransientThetaExpansion Pages: 1 -->
<svg width="524pt" height="137pt"
 viewBox="0.00 0.00 524.00 137.00" xmlns="http://www.w3.org/2000/svg" xmlns:xlink="http://www.w3.org/1999/xlink">
<g id="graph0" class="graph" transform="scale(1 1) rotate(0) translate(4 133)">
<title>DwarfElephantRBTransientThetaExpansion</title>
<polygon fill="white" stroke="none" points="-4,4 -4,-133 520,-133 520,4 -4,4"/>
<!-- Node1 -->
<g id="node1" class="node"><title>Node1</title>
<polygon fill="#bfbfbf" stroke="black" points="180,-49.5 180,-79.5 318,-79.5 318,-49.5 180,-49.5"/>
<text text-anchor="start" x="188" y="-67.5" font-family="Helvetica,sans-Serif" font-size="10.00">DwarfElephantRBTransient</text>
<text text-anchor="middle" x="249" y="-56.5" font-family="Helvetica,sans-Serif" font-size="10.00">ThetaExpansion</text>
</g>
<!-- Node3 -->
<g id="node3" class="node"><title>Node3</title>
<g id="a_node3"><a xlink:href="struct_dwarf_elephant_r_b_t3_f3_o3_m2_i_c1_transient_expansion.html" target="_top" xlink:title="The structures are defined for an parabolic PDE with the following restrictions: 1. The number of thetas is equal to three (T3). 2. The problem contains three load vectors (F3) and one output (O1). ">
<polygon fill="white" stroke="black" points="354,-98.5 354,-128.5 516,-128.5 516,-98.5 354,-98.5"/>
<text text-anchor="start" x="362" y="-116.5" font-family="Helvetica,sans-Serif" font-size="10.00">DwarfElephantRBT3F3O3M2IC1</text>
<text text-anchor="middle" x="435" y="-105.5" font-family="Helvetica,sans-Serif" font-size="10.00">TransientExpansion</text>
</a>
</g>
</g>
<!-- Node1&#45;&gt;Node3 -->
<g id="edge2" class="edge"><title>Node1&#45;&gt;Node3</title>
<path fill="none" stroke="midnightblue" d="M316.176,-82.1229C336.306,-87.4837 358.232,-93.3225 377.65,-98.4938"/>
<polygon fill="midnightblue" stroke="midnightblue" points="317.02,-78.7259 306.457,-79.5346 315.219,-85.4902 317.02,-78.7259"/>
</g>
<!-- Node4 -->
<g id="node4" class="node"><title>Node4</title>
<g id="a_node4"><a xlink:href="struct_dwarf_elephant_r_b_t4_f1_o1_m1_i_c1_transient_expansion.html" target="_top" xlink:title="The structures are defined for an parabolic PDE with the following restrictions: 1. The number of thetas is equal to three (T3). 2. The problem contains one load vector (F1) and one output (O1). ">
<polygon fill="white" stroke="black" points="354,-49.5 354,-79.5 516,-79.5 516,-49.5 354,-49.5"/>
<text text-anchor="start" x="362" y="-67.5" font-family="Helvetica,sans-Serif" font-size="10.00">DwarfElephantRBT4F1O1M1IC1</text>
<text text-anchor="middle" x="435" y="-56.5" font-family="Helvetica,sans-Serif" font-size="10.00">TransientExpansion</text>
</a>
</g>
</g>
<!-- Node1&#45;&gt;Node4 -->
<g id="edge3" class="edge"><title>Node1&#45;&gt;Node4</title>
<path fill="none" stroke="midnightblue" d="M328.391,-64.5C336.78,-64.5 345.324,-64.5 353.735,-64.5"/>
<polygon fill="midnightblue" stroke="midnightblue" points="328.253,-61.0001 318.253,-64.5 328.253,-68.0001 328.253,-61.0001"/>
</g>
<!-- Node5 -->
<g id="node5" class="node"><title>Node5</title>
<g id="a_node5"><a xlink:href="struct_dwarf_elephant_r_b_t6_f1_o1_m1_i_c3_transient_expansion.html" target="_top" xlink:title="The structures are defined for an parabolic PDE with the following restrictions: 1. The number of thetas is equal to three (T3). 2. The problem contains one load vector (F1) and one output (O1). ">
<polygon fill="white" stroke="black" points="354,-0.5 354,-30.5 516,-30.5 516,-0.5 354,-0.5"/>
<text text-anchor="start" x="362" y="-18.5" font-family="Helvetica,sans-Serif" font-size="10.00">DwarfElephantRBT6F1O1M1IC3</text>
<text text-anchor="middle" x="435" y="-7.5" font-family="Helvetica,sans-Serif" font-size="10.00">TransientExpansion</text>
</a>
</g>
</g>
<!-- Node1&#45;&gt;Node5 -->
<g id="edge4" class="edge"><title>Node1&#45;&gt;Node5</title>
<path fill="none" stroke="midnightblue" d="M316.176,-46.8771C336.306,-41.5163 358.232,-35.6775 377.65,-30.5062"/>
<polygon fill="midnightblue" stroke="midnightblue" points="315.219,-43.5098 306.457,-49.4654 317.02,-50.2741 315.219,-43.5098"/>
</g>
<!-- Node2 -->
<g id="node2" class="node"><title>Node2</title>
<polygon fill="white" stroke="#bfbfbf" points="0,-55 0,-74 144,-74 144,-55 0,-55"/>
<text text-anchor="middle" x="72" y="-62" font-family="Helvetica,sans-Serif" font-size="10.00">TransientRBThetaExpansion</text>
</g>
<!-- Node2&#45;&gt;Node1 -->
<g id="edge1" class="edge"><title>Node2&#45;&gt;Node1</title>
<path fill="none" stroke="midnightblue" d="M154.237,-64.5C162.854,-64.5 171.553,-64.5 179.996,-64.5"/>
<polygon fill="midnightblue" stroke="midnightblue" points="154.179,-61.0001 144.179,-64.5 154.179,-68.0001 154.179,-61.0001"/>
</g>
</g>
</svg>
