<?xml version="1.0" encoding="UTF-8" standalone="no"?>
<!DOCTYPE svg PUBLIC "-//W3C//DTD SVG 1.1//EN"
 "http://www.w3.org/Graphics/SVG/1.1/DTD/svg11.dtd">
<!-- Generated by graphviz version 2.38.0 (20140413.2041)
 -->
<!-- Title: DwarfElephantRBPresetBC Pages: 1 -->
<svg width="173pt" height="196pt"
 viewBox="0.00 0.00 173.00 196.00" xmlns="http://www.w3.org/2000/svg" xmlns:xlink="http://www.w3.org/1999/xlink">
<g id="graph0" class="graph" transform="scale(1 1) rotate(0) translate(4 192)">
<title>DwarfElephantRBPresetBC</title>
<polygon fill="white" stroke="none" points="-4,4 -4,-192 169,-192 169,4 -4,4"/>
<!-- Node1 -->
<g id="node1" class="node"><title>Node1</title>
<polygon fill="#bfbfbf" stroke="black" points="13,-0.5 13,-19.5 152,-19.5 152,-0.5 13,-0.5"/>
<text text-anchor="middle" x="82.5" y="-7.5" font-family="Helvetica,sans-Serif" font-size="10.00">DwarfElephantRBPresetBC</text>
</g>
<!-- Node2 -->
<g id="node2" class="node"><title>Node2</title>
<g id="a_node2"><a xlink:href="class_dwarf_elephant_r_b_preset_nodal_b_c.html" target="_top" xlink:title="This BC is required to use the RB method for the Preset BC. Since all necessary operations are define...">
<polygon fill="white" stroke="black" points="0,-56.5 0,-75.5 165,-75.5 165,-56.5 0,-56.5"/>
<text text-anchor="middle" x="82.5" y="-63.5" font-family="Helvetica,sans-Serif" font-size="10.00">DwarfElephantRBPresetNodalBC</text>
</a>
</g>
</g>
<!-- Node2&#45;&gt;Node1 -->
<g id="edge1" class="edge"><title>Node2&#45;&gt;Node1</title>
<path fill="none" stroke="midnightblue" d="M82.5,-45.8045C82.5,-36.9102 82.5,-26.7798 82.5,-19.7511"/>
<polygon fill="midnightblue" stroke="midnightblue" points="79.0001,-46.083 82.5,-56.083 86.0001,-46.083 79.0001,-46.083"/>
</g>
<!-- Node3 -->
<g id="node3" class="node"><title>Node3</title>
<g id="a_node3"><a xlink:href="class_dwarf_elephant_r_b_nodal_b_c.html" target="_top" xlink:title="This BC is required to use the RB method as it is provided by the RB libMesh package. The RBNodalBC inherits from the NodalBC class. It overwrites the function computeJacobian because for the RB method the stiffness matrix is needed separated in its subdomain contributions. In addition it overwrites the function computeResidual. ">
<polygon fill="white" stroke="black" points="14.5,-112.5 14.5,-131.5 150.5,-131.5 150.5,-112.5 14.5,-112.5"/>
<text text-anchor="middle" x="82.5" y="-119.5" font-family="Helvetica,sans-Serif" font-size="10.00">DwarfElephantRBNodalBC</text>
</a>
</g>
</g>
<!-- Node3&#45;&gt;Node2 -->
<g id="edge2" class="edge"><title>Node3&#45;&gt;Node2</title>
<path fill="none" stroke="midnightblue" d="M82.5,-101.805C82.5,-92.9102 82.5,-82.7798 82.5,-75.7511"/>
<polygon fill="midnightblue" stroke="midnightblue" points="79.0001,-102.083 82.5,-112.083 86.0001,-102.083 79.0001,-102.083"/>
</g>
<!-- Node4 -->
<g id="node4" class="node"><title>Node4</title>
<polygon fill="white" stroke="#bfbfbf" points="54,-168.5 54,-187.5 111,-187.5 111,-168.5 54,-168.5"/>
<text text-anchor="middle" x="82.5" y="-175.5" font-family="Helvetica,sans-Serif" font-size="10.00">NodalBC</text>
</g>
<!-- Node4&#45;&gt;Node3 -->
<g id="edge3" class="edge"><title>Node4&#45;&gt;Node3</title>
<path fill="none" stroke="midnightblue" d="M82.5,-157.805C82.5,-148.91 82.5,-138.78 82.5,-131.751"/>
<polygon fill="midnightblue" stroke="midnightblue" points="79.0001,-158.083 82.5,-168.083 86.0001,-158.083 79.0001,-158.083"/>
</g>
</g>
</svg>
