<?xml version="1.0" encoding="UTF-8" standalone="no"?>
<!DOCTYPE svg PUBLIC "-//W3C//DTD SVG 1.1//EN"
 "http://www.w3.org/Graphics/SVG/1.1/DTD/svg11.dtd">
<!-- Generated by graphviz version 2.38.0 (20140413.2041)
 -->
<!-- Title: include/bcs Pages: 1 -->
<svg width="116pt" height="223pt"
 viewBox="0.00 0.00 116.00 223.00" xmlns="http://www.w3.org/2000/svg" xmlns:xlink="http://www.w3.org/1999/xlink">
<g id="graph0" class="graph" transform="scale(1 1) rotate(0) translate(4 219)">
<title>include/bcs</title>
<polygon fill="white" stroke="none" points="-4,4 -4,-219 112,-219 112,4 -4,4"/>
<g id="clust1" class="cluster"><title>clusterdir_d44c64559bbebec7f509842c48db8b23</title>
<g id="a_clust1"><a xlink:href="dir_d44c64559bbebec7f509842c48db8b23.html" target="_top" xlink:title="include">
<polygon fill="#ddddee" stroke="black" points="8,-136 8,-207 78,-207 78,-136 8,-136"/>
<text text-anchor="middle" x="43" y="-195" font-family="Helvetica,sans-Serif" font-size="10.00">include</text>
</a>
</g>
</g>
<!-- dir_6c5a344b9c03c6428d49f0b38500fe7f -->
<g id="node1" class="node"><title>dir_6c5a344b9c03c6428d49f0b38500fe7f</title>
<g id="a_node1"><a xlink:href="dir_6c5a344b9c03c6428d49f0b38500fe7f.html" target="_top" xlink:title="bcs">
<polygon fill="#eeeeff" stroke="black" points="70,-180 16,-180 16,-144 70,-144 70,-180"/>
<text text-anchor="middle" x="43" y="-159.5" font-family="Helvetica,sans-Serif" font-size="10.00">bcs</text>
</a>
</g>
</g>
<!-- dir_e3627b8b73ad15223eec0af4105b0c85 -->
<g id="node2" class="node"><title>dir_e3627b8b73ad15223eec0af4105b0c85</title>
<g id="a_node2"><a xlink:href="dir_e3627b8b73ad15223eec0af4105b0c85.html" target="_top" xlink:title="problems">
<polygon fill="none" stroke="black" points="72,-36 14,-36 14,-0 72,-0 72,-36"/>
<text text-anchor="middle" x="43" y="-15.5" font-family="Helvetica,sans-Serif" font-size="10.00">problems</text>
</a>
</g>
</g>
<!-- dir_6c5a344b9c03c6428d49f0b38500fe7f&#45;&gt;dir_e3627b8b73ad15223eec0af4105b0c85 -->
<g id="edge2" class="edge"><title>dir_6c5a344b9c03c6428d49f0b38500fe7f&#45;&gt;dir_e3627b8b73ad15223eec0af4105b0c85</title>
<path fill="none" stroke="black" d="M38.1309,-143.979C35.4358,-133.665 32.3626,-120.189 31,-108 29.2224,-92.0991 29.2224,-87.9009 31,-72 31.9581,-63.4299 33.7618,-54.2228 35.6852,-45.9264"/>
<polygon fill="black" stroke="black" points="39.1318,-46.5684 38.1309,-36.0209 32.3358,-44.8904 39.1318,-46.5684"/>
<g id="a_edge2&#45;headlabel"><a xlink:href="dir_000002_000010.html" target="_top" xlink:title="1">
<text text-anchor="middle" x="41.0267" y="-48.2387" font-family="Helvetica,sans-Serif" font-size="10.00">1</text>
</a>
</g>
</g>
<!-- dir_204a62f8e377bbe2ddbc0beb0fbe30f0 -->
<g id="node3" class="node"><title>dir_204a62f8e377bbe2ddbc0beb0fbe30f0</title>
<g id="a_node3"><a xlink:href="dir_204a62f8e377bbe2ddbc0beb0fbe30f0.html" target="_top" xlink:title="userobjects">
<polygon fill="none" stroke="black" points="108,-108 40,-108 40,-72 108,-72 108,-108"/>
<text text-anchor="middle" x="74" y="-87.5" font-family="Helvetica,sans-Serif" font-size="10.00">userobjects</text>
</a>
</g>
</g>
<!-- dir_6c5a344b9c03c6428d49f0b38500fe7f&#45;&gt;dir_204a62f8e377bbe2ddbc0beb0fbe30f0 -->
<g id="edge3" class="edge"><title>dir_6c5a344b9c03c6428d49f0b38500fe7f&#45;&gt;dir_204a62f8e377bbe2ddbc0beb0fbe30f0</title>
<path fill="none" stroke="black" d="M50.6629,-143.697C54.1917,-135.728 58.4559,-126.1 62.3687,-117.264"/>
<polygon fill="black" stroke="black" points="65.5761,-118.665 66.4252,-108.104 59.1757,-115.831 65.5761,-118.665"/>
<g id="a_edge3&#45;headlabel"><a xlink:href="dir_000002_000012.html" target="_top" xlink:title="4">
<text text-anchor="middle" x="66.7167" y="-120.602" font-family="Helvetica,sans-Serif" font-size="10.00">4</text>
</a>
</g>
</g>
<!-- dir_204a62f8e377bbe2ddbc0beb0fbe30f0&#45;&gt;dir_e3627b8b73ad15223eec0af4105b0c85 -->
<g id="edge1" class="edge"><title>dir_204a62f8e377bbe2ddbc0beb0fbe30f0&#45;&gt;dir_e3627b8b73ad15223eec0af4105b0c85</title>
<path fill="none" stroke="black" d="M66.3371,-71.6966C62.8083,-63.7284 58.5441,-54.0995 54.6313,-45.2641"/>
<polygon fill="black" stroke="black" points="57.8243,-43.8306 50.5748,-36.1043 51.4239,-46.6651 57.8243,-43.8306"/>
<g id="a_edge1&#45;headlabel"><a xlink:href="dir_000012_000010.html" target="_top" xlink:title="2">
<text text-anchor="middle" x="61.8759" y="-43.4676" font-family="Helvetica,sans-Serif" font-size="10.00">2</text>
</a>
</g>
</g>
</g>
</svg>
