<?xml version="1.0" encoding="UTF-8" standalone="no"?>
<!DOCTYPE svg PUBLIC "-//W3C//DTD SVG 1.1//EN"
 "http://www.w3.org/Graphics/SVG/1.1/DTD/svg11.dtd">
<!-- Generated by graphviz version 2.38.0 (20140413.2041)
 -->
<!-- Title: include/userobjects Pages: 1 -->
<svg width="168pt" height="223pt"
 viewBox="0.00 0.00 168.00 223.00" xmlns="http://www.w3.org/2000/svg" xmlns:xlink="http://www.w3.org/1999/xlink">
<g id="graph0" class="graph" transform="scale(1 1) rotate(0) translate(4 219)">
<title>include/userobjects</title>
<polygon fill="white" stroke="none" points="-4,4 -4,-219 164,-219 164,4 -4,4"/>
<g id="clust1" class="cluster"><title>clusterdir_d44c64559bbebec7f509842c48db8b23</title>
<g id="a_clust1"><a xlink:href="dir_d44c64559bbebec7f509842c48db8b23.html" target="_top" xlink:title="include">
<polygon fill="#ddddee" stroke="black" points="8,-136 8,-207 92,-207 92,-136 8,-136"/>
<text text-anchor="middle" x="50" y="-195" font-family="Helvetica,sans-Serif" font-size="10.00">include</text>
</a>
</g>
</g>
<!-- dir_204a62f8e377bbe2ddbc0beb0fbe30f0 -->
<g id="node1" class="node"><title>dir_204a62f8e377bbe2ddbc0beb0fbe30f0</title>
<g id="a_node1"><a xlink:href="dir_204a62f8e377bbe2ddbc0beb0fbe30f0.html" target="_top" xlink:title="userobjects">
<polygon fill="#eeeeff" stroke="black" points="84,-180 16,-180 16,-144 84,-144 84,-180"/>
<text text-anchor="middle" x="50" y="-159.5" font-family="Helvetica,sans-Serif" font-size="10.00">userobjects</text>
</a>
</g>
</g>
<!-- dir_e3627b8b73ad15223eec0af4105b0c85 -->
<g id="node2" class="node"><title>dir_e3627b8b73ad15223eec0af4105b0c85</title>
<g id="a_node2"><a xlink:href="dir_e3627b8b73ad15223eec0af4105b0c85.html" target="_top" xlink:title="problems">
<polygon fill="none" stroke="black" points="160,-180 102,-180 102,-144 160,-144 160,-180"/>
<text text-anchor="middle" x="131" y="-159.5" font-family="Helvetica,sans-Serif" font-size="10.00">problems</text>
</a>
</g>
</g>
<!-- dir_204a62f8e377bbe2ddbc0beb0fbe30f0&#45;&gt;dir_e3627b8b73ad15223eec0af4105b0c85 -->
<g id="edge3" class="edge"><title>dir_204a62f8e377bbe2ddbc0beb0fbe30f0&#45;&gt;dir_e3627b8b73ad15223eec0af4105b0c85</title>
<path fill="none" stroke="black" d="M84.1719,-162C86.6413,-162 89.1108,-162 91.5802,-162"/>
<polygon fill="black" stroke="black" points="91.7325,-165.5 101.732,-162 91.7324,-158.5 91.7325,-165.5"/>
<g id="a_edge3&#45;headlabel"><a xlink:href="dir_000012_000010.html" target="_top" xlink:title="2">
<text text-anchor="middle" x="88.1378" y="-165.839" font-family="Helvetica,sans-Serif" font-size="10.00">2</text>
</a>
</g>
</g>
<!-- dir_3c04bc290434a2bfff240c0777e37105 -->
<g id="node3" class="node"><title>dir_3c04bc290434a2bfff240c0777e37105</title>
<g id="a_node3"><a xlink:href="dir_3c04bc290434a2bfff240c0777e37105.html" target="_top" xlink:title="systems">
<polygon fill="none" stroke="black" points="132,-108 78,-108 78,-72 132,-72 132,-108"/>
<text text-anchor="middle" x="105" y="-87.5" font-family="Helvetica,sans-Serif" font-size="10.00">systems</text>
</a>
</g>
</g>
<!-- dir_204a62f8e377bbe2ddbc0beb0fbe30f0&#45;&gt;dir_3c04bc290434a2bfff240c0777e37105 -->
<g id="edge4" class="edge"><title>dir_204a62f8e377bbe2ddbc0beb0fbe30f0&#45;&gt;dir_3c04bc290434a2bfff240c0777e37105</title>
<path fill="none" stroke="black" d="M63.5955,-143.697C70.1227,-135.389 78.068,-125.277 85.2466,-116.141"/>
<polygon fill="black" stroke="black" points="88.1347,-118.13 91.5609,-108.104 82.6305,-113.805 88.1347,-118.13"/>
<g id="a_edge4&#45;headlabel"><a xlink:href="dir_000012_000011.html" target="_top" xlink:title="2">
<text text-anchor="middle" x="88.1465" y="-120.211" font-family="Helvetica,sans-Serif" font-size="10.00">2</text>
</a>
</g>
</g>
<!-- dir_ab1c81409f0df724f17c9ef30afee877 -->
<g id="node4" class="node"><title>dir_ab1c81409f0df724f17c9ef30afee877</title>
<g id="a_node4"><a xlink:href="dir_ab1c81409f0df724f17c9ef30afee877.html" target="_top" xlink:title="base">
<polygon fill="none" stroke="black" points="104,-36 50,-36 50,-0 104,-0 104,-36"/>
<text text-anchor="middle" x="77" y="-15.5" font-family="Helvetica,sans-Serif" font-size="10.00">base</text>
</a>
</g>
</g>
<!-- dir_204a62f8e377bbe2ddbc0beb0fbe30f0&#45;&gt;dir_ab1c81409f0df724f17c9ef30afee877 -->
<g id="edge5" class="edge"><title>dir_204a62f8e377bbe2ddbc0beb0fbe30f0&#45;&gt;dir_ab1c81409f0df724f17c9ef30afee877</title>
<path fill="none" stroke="black" d="M42.5361,-143.849C35.687,-125.611 27.7574,-96.1263 36,-72 39.4413,-61.9272 45.6604,-52.2841 52.2319,-44.0504"/>
<polygon fill="black" stroke="black" points="54.9987,-46.2001 58.8312,-36.3227 49.6756,-41.6543 54.9987,-46.2001"/>
<g id="a_edge5&#45;headlabel"><a xlink:href="dir_000012_000001.html" target="_top" xlink:title="5">
<text text-anchor="middle" x="54.8235" y="-48.2774" font-family="Helvetica,sans-Serif" font-size="10.00">5</text>
</a>
</g>
</g>
<!-- dir_e3627b8b73ad15223eec0af4105b0c85&#45;&gt;dir_3c04bc290434a2bfff240c0777e37105 -->
<g id="edge1" class="edge"><title>dir_e3627b8b73ad15223eec0af4105b0c85&#45;&gt;dir_3c04bc290434a2bfff240c0777e37105</title>
<path fill="none" stroke="black" d="M124.573,-143.697C121.645,-135.813 118.113,-126.304 114.86,-117.546"/>
<polygon fill="black" stroke="black" points="118.116,-116.26 111.353,-108.104 111.554,-118.697 118.116,-116.26"/>
<g id="a_edge1&#45;headlabel"><a xlink:href="dir_000010_000011.html" target="_top" xlink:title="1">
<text text-anchor="middle" x="122.029" y="-116.141" font-family="Helvetica,sans-Serif" font-size="10.00">1</text>
</a>
</g>
</g>
<!-- dir_e3627b8b73ad15223eec0af4105b0c85&#45;&gt;dir_ab1c81409f0df724f17c9ef30afee877 -->
<g id="edge2" class="edge"><title>dir_e3627b8b73ad15223eec0af4105b0c85&#45;&gt;dir_ab1c81409f0df724f17c9ef30afee877</title>
<path fill="none" stroke="black" d="M138.151,-143.719C144.695,-125.111 151.851,-95.0756 141,-72 134.825,-58.8685 123.622,-47.8739 112.295,-39.3642"/>
<polygon fill="black" stroke="black" points="114.293,-36.4901 104.096,-33.612 110.273,-42.2205 114.293,-36.4901"/>
<g id="a_edge2&#45;headlabel"><a xlink:href="dir_000010_000001.html" target="_top" xlink:title="1">
<text text-anchor="middle" x="118.866" y="-33.7302" font-family="Helvetica,sans-Serif" font-size="10.00">1</text>
</a>
</g>
</g>
<!-- dir_3c04bc290434a2bfff240c0777e37105&#45;&gt;dir_ab1c81409f0df724f17c9ef30afee877 -->
<g id="edge6" class="edge"><title>dir_3c04bc290434a2bfff240c0777e37105&#45;&gt;dir_ab1c81409f0df724f17c9ef30afee877</title>
<path fill="none" stroke="black" d="M98.0786,-71.6966C94.9253,-63.8132 91.1217,-54.3042 87.6186,-45.5464"/>
<polygon fill="black" stroke="black" points="90.8054,-44.0892 83.8417,-36.1043 84.306,-46.689 90.8054,-44.0892"/>
<g id="a_edge6&#45;headlabel"><a xlink:href="dir_000011_000001.html" target="_top" xlink:title="1">
<text text-anchor="middle" x="94.7765" y="-43.8723" font-family="Helvetica,sans-Serif" font-size="10.00">1</text>
</a>
</g>
</g>
<!-- dir_ab1c81409f0df724f17c9ef30afee877&#45;&gt;dir_204a62f8e377bbe2ddbc0beb0fbe30f0 -->
<g id="edge7" class="edge"><title>dir_ab1c81409f0df724f17c9ef30afee877&#45;&gt;dir_204a62f8e377bbe2ddbc0beb0fbe30f0</title>
<path fill="none" stroke="black" d="M73.7316,-36.1893C69.1235,-60.4244 60.6693,-104.888 55.1948,-133.679"/>
<polygon fill="black" stroke="black" points="51.6865,-133.394 53.2568,-143.871 58.5632,-134.701 51.6865,-133.394"/>
<g id="a_edge7&#45;headlabel"><a xlink:href="dir_000001_000012.html" target="_top" xlink:title="44">
<text text-anchor="middle" x="49.5685" y="-126.832" font-family="Helvetica,sans-Serif" font-size="10.00">44</text>
</a>
</g>
</g>
</g>
</svg>
