<?xml version="1.0" encoding="UTF-8" standalone="no"?>
<!DOCTYPE svg PUBLIC "-//W3C//DTD SVG 1.1//EN"
 "http://www.w3.org/Graphics/SVG/1.1/DTD/svg11.dtd">
<!-- Generated by graphviz version 2.38.0 (20140413.2041)
 -->
<!-- Title: include Pages: 1 -->
<!--zoomable 364 -->
<svg id="main" version="1.1" xmlns="http://www.w3.org/2000/svg" xmlns:xlink="http://www.w3.org/1999/xlink" xml:space="preserve" onload="init(evt)">
<style type="text/css"><![CDATA[
.edge:hover path { stroke: red; }
.edge:hover polygon { stroke: red; fill: red; }
]]></style>
<script type="text/javascript"><![CDATA[
var edges = document.getElementsByTagName('g');
if (edges && edges.length) {
  for (var i=0;i<edges.length;i++) {
    if (edges[i].id.substr(0,4)=='edge') {
      edges[i].setAttribute('class','edge');
    }
  }
}
]]></script>
        <defs>
                <circle id="rim" cx="0" cy="0" r="7"/>
                <circle id="rim2" cx="0" cy="0" r="3.5"/>
                <g id="zoomPlus">
                        <use xlink:href="#rim" fill="#404040">
                                <set attributeName="fill" to="#808080" begin="zoomplus.mouseover" end="zoomplus.mouseout"/>
                        </use>
                        <path d="M-4,0h8M0,-4v8" fill="none" stroke="white" stroke-width="1.5" pointer-events="none"/>
                </g>
                <g id="zoomMin">
                        <use xlink:href="#rim" fill="#404040">
                                <set attributeName="fill" to="#808080" begin="zoomminus.mouseover" end="zoomminus.mouseout"/>
                        </use>
                        <path d="M-4,0h8" fill="none" stroke="white" stroke-width="1.5" pointer-events="none"/>
                </g>
                <g id="dirArrow">
                        <path fill="none" stroke="white" stroke-width="1.5" d="M0,-3.0v7 M-2.5,-0.5L0,-3.0L2.5,-0.5"/>
                </g>
               <g id="resetDef">
                       <use xlink:href="#rim2" fill="#404040">
                               <set attributeName="fill" to="#808080" begin="reset.mouseover" end="reset.mouseout"/>
                       </use>
               </g>
        </defs>

<script type="text/javascript">
var viewWidth = 915;
var viewHeight = 364;
var sectionId = 'dynsection-0';
</script>
<script xlink:href="svgpan.js"/>
<svg id="graph" class="graph">
<g id="viewport">
<title>include</title>
<polygon fill="white" stroke="none" points="-4,4 -4,-360 911,-360 911,4 -4,4"/>
<g id="clust1" class="cluster"><title>clusterdir_d44c64559bbebec7f509842c48db8b23</title>
<g id="a_clust1"><a xlink:href="dir_d44c64559bbebec7f509842c48db8b23.html" target="_top">
<polygon fill="#eeeeff" stroke="black" points="8,-8 8,-348 899,-348 899,-8 8,-8"/>
</a>
</g>
</g>
<!-- dir_d44c64559bbebec7f509842c48db8b23 -->
<g id="node1" class="node"><title>dir_d44c64559bbebec7f509842c48db8b23</title>
<text text-anchor="middle" x="864" y="-319.5" font-family="Helvetica,sans-Serif" font-size="10.00">include</text>
</g>
<!-- dir_ab1c81409f0df724f17c9ef30afee877 -->
<g id="node2" class="node"><title>dir_ab1c81409f0df724f17c9ef30afee877</title>
<g id="a_node2"><a xlink:href="dir_ab1c81409f0df724f17c9ef30afee877.html" target="_top" xlink:title="base">
<polygon fill="white" stroke="black" points="272,-340 218,-340 218,-304 272,-304 272,-340"/>
<text text-anchor="middle" x="245" y="-319.5" font-family="Helvetica,sans-Serif" font-size="10.00">base</text>
</a>
</g>
</g>
<!-- dir_204a62f8e377bbe2ddbc0beb0fbe30f0 -->
<g id="node13" class="node"><title>dir_204a62f8e377bbe2ddbc0beb0fbe30f0</title>
<g id="a_node13"><a xlink:href="dir_204a62f8e377bbe2ddbc0beb0fbe30f0.html" target="_top" xlink:title="userobjects">
<polygon fill="white" stroke="black" points="427,-268 359,-268 359,-232 427,-232 427,-268"/>
<text text-anchor="middle" x="393" y="-247.5" font-family="Helvetica,sans-Serif" font-size="10.00">userobjects</text>
</a>
</g>
</g>
<!-- dir_ab1c81409f0df724f17c9ef30afee877&#45;&gt;dir_204a62f8e377bbe2ddbc0beb0fbe30f0 -->
<g id="edge14" class="edge"><title>dir_ab1c81409f0df724f17c9ef30afee877&#45;&gt;dir_204a62f8e377bbe2ddbc0beb0fbe30f0</title>
<path fill="none" stroke="black" d="M272.126,-305.465C293.795,-294.607 324.418,-280.085 349.473,-268.767"/>
<polygon fill="black" stroke="black" points="351.077,-271.883 358.772,-264.6 348.215,-265.495 351.077,-271.883"/>
<g id="a_edge14&#45;headlabel"><a xlink:href="dir_000001_000012.html" target="_top" xlink:title="44">
<text text-anchor="middle" x="348.958" y="-273.444" font-family="Helvetica,sans-Serif" font-size="10.00">44</text>
</a>
</g>
</g>
<!-- dir_6c5a344b9c03c6428d49f0b38500fe7f -->
<g id="node3" class="node"><title>dir_6c5a344b9c03c6428d49f0b38500fe7f</title>
<g id="a_node3"><a xlink:href="dir_6c5a344b9c03c6428d49f0b38500fe7f.html" target="_top" xlink:title="bcs">
<polygon fill="white" stroke="black" points="420,-340 366,-340 366,-304 420,-304 420,-340"/>
<text text-anchor="middle" x="393" y="-319.5" font-family="Helvetica,sans-Serif" font-size="10.00">bcs</text>
</a>
</g>
</g>
<!-- dir_e3627b8b73ad15223eec0af4105b0c85 -->
<g id="node11" class="node"><title>dir_e3627b8b73ad15223eec0af4105b0c85</title>
<g id="a_node11"><a xlink:href="dir_e3627b8b73ad15223eec0af4105b0c85.html" target="_top" xlink:title="problems">
<polygon fill="white" stroke="black" points="358,-196 300,-196 300,-160 358,-160 358,-196"/>
<text text-anchor="middle" x="329" y="-175.5" font-family="Helvetica,sans-Serif" font-size="10.00">problems</text>
</a>
</g>
</g>
<!-- dir_6c5a344b9c03c6428d49f0b38500fe7f&#45;&gt;dir_e3627b8b73ad15223eec0af4105b0c85 -->
<g id="edge8" class="edge"><title>dir_6c5a344b9c03c6428d49f0b38500fe7f&#45;&gt;dir_e3627b8b73ad15223eec0af4105b0c85</title>
<path fill="none" stroke="black" d="M375.66,-303.776C366.77,-294.034 356.479,-281.187 350,-268 340.403,-248.466 335.062,-224.33 332.171,-206.123"/>
<polygon fill="black" stroke="black" points="335.628,-205.567 330.739,-196.168 328.699,-206.564 335.628,-205.567"/>
<g id="a_edge8&#45;headlabel"><a xlink:href="dir_000002_000010.html" target="_top" xlink:title="1">
<text text-anchor="middle" x="338.95" y="-206.221" font-family="Helvetica,sans-Serif" font-size="10.00">1</text>
</a>
</g>
</g>
<!-- dir_6c5a344b9c03c6428d49f0b38500fe7f&#45;&gt;dir_204a62f8e377bbe2ddbc0beb0fbe30f0 -->
<g id="edge9" class="edge"><title>dir_6c5a344b9c03c6428d49f0b38500fe7f&#45;&gt;dir_204a62f8e377bbe2ddbc0beb0fbe30f0</title>
<path fill="none" stroke="black" d="M393,-303.697C393,-295.983 393,-286.712 393,-278.112"/>
<polygon fill="black" stroke="black" points="396.5,-278.104 393,-268.104 389.5,-278.104 396.5,-278.104"/>
<g id="a_edge9&#45;headlabel"><a xlink:href="dir_000002_000012.html" target="_top" xlink:title="4">
<text text-anchor="middle" x="399.339" y="-279.199" font-family="Helvetica,sans-Serif" font-size="10.00">4</text>
</a>
</g>
</g>
<!-- dir_6c6f4828ced252df7a457d18180150c1 -->
<g id="node4" class="node"><title>dir_6c6f4828ced252df7a457d18180150c1</title>
<g id="a_node4"><a xlink:href="dir_6c6f4828ced252df7a457d18180150c1.html" target="_top" xlink:title="dirackernels">
<polygon fill="white" stroke="black" points="747,-340 677,-340 677,-304 747,-304 747,-340"/>
<text text-anchor="middle" x="712" y="-319.5" font-family="Helvetica,sans-Serif" font-size="10.00">dirackernels</text>
</a>
</g>
</g>
<!-- dir_6c6f4828ced252df7a457d18180150c1&#45;&gt;dir_204a62f8e377bbe2ddbc0beb0fbe30f0 -->
<g id="edge4" class="edge"><title>dir_6c6f4828ced252df7a457d18180150c1&#45;&gt;dir_204a62f8e377bbe2ddbc0beb0fbe30f0</title>
<path fill="none" stroke="black" d="M676.644,-306.716C673.74,-305.734 670.834,-304.813 668,-304 588.094,-281.062 492.253,-265.122 437.407,-257.064"/>
<polygon fill="black" stroke="black" points="437.728,-253.574 427.329,-255.605 436.724,-260.502 437.728,-253.574"/>
<g id="a_edge4&#45;headlabel"><a xlink:href="dir_000003_000012.html" target="_top" xlink:title="2">
<text text-anchor="middle" x="441.692" y="-248.779" font-family="Helvetica,sans-Serif" font-size="10.00">2</text>
</a>
</g>
</g>
<!-- dir_a2e5008f58a7f472eead0c57e942f06f -->
<g id="node5" class="node"><title>dir_a2e5008f58a7f472eead0c57e942f06f</title>
<g id="a_node5"><a xlink:href="dir_a2e5008f58a7f472eead0c57e942f06f.html" target="_top" xlink:title="executioners">
<polygon fill="white" stroke="black" points="586.5,-340 513.5,-340 513.5,-304 586.5,-304 586.5,-340"/>
<text text-anchor="middle" x="550" y="-319.5" font-family="Helvetica,sans-Serif" font-size="10.00">executioners</text>
</a>
</g>
</g>
<!-- dir_7b9f414af7497816ec826d16b4a48f56 -->
<g id="node6" class="node"><title>dir_7b9f414af7497816ec826d16b4a48f56</title>
<g id="a_node6"><a xlink:href="dir_7b9f414af7497816ec826d16b4a48f56.html" target="_top" xlink:title="functions">
<polygon fill="white" stroke="black" points="495.5,-340 438.5,-340 438.5,-304 495.5,-304 495.5,-340"/>
<text text-anchor="middle" x="467" y="-319.5" font-family="Helvetica,sans-Serif" font-size="10.00">functions</text>
</a>
</g>
</g>
<!-- dir_ad1f640bef60c22a2e71d158f14de7ae -->
<g id="node7" class="node"><title>dir_ad1f640bef60c22a2e71d158f14de7ae</title>
<g id="a_node7"><a xlink:href="dir_ad1f640bef60c22a2e71d158f14de7ae.html" target="_top" xlink:title="ics">
<polygon fill="white" stroke="black" points="659,-340 605,-340 605,-304 659,-304 659,-340"/>
<text text-anchor="middle" x="632" y="-319.5" font-family="Helvetica,sans-Serif" font-size="10.00">ics</text>
</a>
</g>
</g>
<!-- dir_ad1f640bef60c22a2e71d158f14de7ae&#45;&gt;dir_204a62f8e377bbe2ddbc0beb0fbe30f0 -->
<g id="edge3" class="edge"><title>dir_ad1f640bef60c22a2e71d158f14de7ae&#45;&gt;dir_204a62f8e377bbe2ddbc0beb0fbe30f0</title>
<path fill="none" stroke="black" d="M604.706,-307.469C601.798,-306.221 598.859,-305.038 596,-304 542.546,-284.592 478.788,-269.144 437.176,-260.044"/>
<polygon fill="black" stroke="black" points="437.866,-256.612 427.352,-257.924 436.389,-263.455 437.866,-256.612"/>
<g id="a_edge3&#45;headlabel"><a xlink:href="dir_000006_000012.html" target="_top" xlink:title="1">
<text text-anchor="middle" x="441.978" y="-252.095" font-family="Helvetica,sans-Serif" font-size="10.00">1</text>
</a>
</g>
</g>
<!-- dir_f2fd8bd6424c93166d6dd5f2b70706e7 -->
<g id="node8" class="node"><title>dir_f2fd8bd6424c93166d6dd5f2b70706e7</title>
<g id="a_node8"><a xlink:href="dir_f2fd8bd6424c93166d6dd5f2b70706e7.html" target="_top" xlink:title="kernels">
<polygon fill="white" stroke="black" points="401,-52 347,-52 347,-16 401,-16 401,-52"/>
<text text-anchor="middle" x="374" y="-31.5" font-family="Helvetica,sans-Serif" font-size="10.00">kernels</text>
</a>
</g>
</g>
<!-- dir_f2fd8bd6424c93166d6dd5f2b70706e7&#45;&gt;dir_204a62f8e377bbe2ddbc0beb0fbe30f0 -->
<g id="edge10" class="edge"><title>dir_f2fd8bd6424c93166d6dd5f2b70706e7&#45;&gt;dir_204a62f8e377bbe2ddbc0beb0fbe30f0</title>
<path fill="none" stroke="black" d="M375.53,-52.2325C378.823,-89.3243 386.606,-176.981 390.577,-221.712"/>
<polygon fill="black" stroke="black" points="387.107,-222.198 391.477,-231.849 394.079,-221.579 387.107,-222.198"/>
<g id="a_edge10&#45;headlabel"><a xlink:href="dir_000007_000012.html" target="_top" xlink:title="2">
<text text-anchor="middle" x="383.961" y="-216.369" font-family="Helvetica,sans-Serif" font-size="10.00">2</text>
</a>
</g>
</g>
<!-- dir_e8162cbcd2a0630786d64b00f43c2c71 -->
<g id="node9" class="node"><title>dir_e8162cbcd2a0630786d64b00f43c2c71</title>
<g id="a_node9"><a xlink:href="dir_e8162cbcd2a0630786d64b00f43c2c71.html" target="_top" xlink:title="materials">
<polygon fill="white" stroke="black" points="347.5,-340 290.5,-340 290.5,-304 347.5,-304 347.5,-340"/>
<text text-anchor="middle" x="319" y="-319.5" font-family="Helvetica,sans-Serif" font-size="10.00">materials</text>
</a>
</g>
</g>
<!-- dir_47c74801ccefe82dbfb49f2e5d14032d -->
<g id="node10" class="node"><title>dir_47c74801ccefe82dbfb49f2e5d14032d</title>
<g id="a_node10"><a xlink:href="dir_47c74801ccefe82dbfb49f2e5d14032d.html" target="_top" xlink:title="outputs">
<polygon fill="white" stroke="black" points="819,-340 765,-340 765,-304 819,-304 819,-340"/>
<text text-anchor="middle" x="792" y="-319.5" font-family="Helvetica,sans-Serif" font-size="10.00">outputs</text>
</a>
</g>
</g>
<!-- dir_47c74801ccefe82dbfb49f2e5d14032d&#45;&gt;dir_204a62f8e377bbe2ddbc0beb0fbe30f0 -->
<g id="edge11" class="edge"><title>dir_47c74801ccefe82dbfb49f2e5d14032d&#45;&gt;dir_204a62f8e377bbe2ddbc0beb0fbe30f0</title>
<path fill="none" stroke="black" d="M764.815,-307.142C761.886,-305.957 758.912,-304.879 756,-304 644.213,-270.266 506.362,-257.667 437.114,-253.232"/>
<polygon fill="black" stroke="black" points="437.2,-249.731 427.004,-252.612 436.771,-256.718 437.2,-249.731"/>
<g id="a_edge11&#45;headlabel"><a xlink:href="dir_000009_000012.html" target="_top" xlink:title="4">
<text text-anchor="middle" x="440.962" y="-244.617" font-family="Helvetica,sans-Serif" font-size="10.00">4</text>
</a>
</g>
</g>
<!-- dir_e3627b8b73ad15223eec0af4105b0c85&#45;&gt;dir_ab1c81409f0df724f17c9ef30afee877 -->
<g id="edge2" class="edge"><title>dir_e3627b8b73ad15223eec0af4105b0c85&#45;&gt;dir_ab1c81409f0df724f17c9ef30afee877</title>
<path fill="none" stroke="black" d="M318.832,-196.189C304.243,-220.851 277.263,-266.461 260.27,-295.186"/>
<polygon fill="black" stroke="black" points="257.211,-293.483 255.132,-303.871 263.236,-297.047 257.211,-293.483"/>
<g id="a_edge2&#45;headlabel"><a xlink:href="dir_000010_000001.html" target="_top" xlink:title="1">
<text text-anchor="middle" x="256.598" y="-286.443" font-family="Helvetica,sans-Serif" font-size="10.00">1</text>
</a>
</g>
</g>
<!-- dir_3c04bc290434a2bfff240c0777e37105 -->
<g id="node12" class="node"><title>dir_3c04bc290434a2bfff240c0777e37105</title>
<g id="a_node12"><a xlink:href="dir_3c04bc290434a2bfff240c0777e37105.html" target="_top" xlink:title="systems">
<polygon fill="white" stroke="black" points="367,-124 313,-124 313,-88 367,-88 367,-124"/>
<text text-anchor="middle" x="340" y="-103.5" font-family="Helvetica,sans-Serif" font-size="10.00">systems</text>
</a>
</g>
</g>
<!-- dir_e3627b8b73ad15223eec0af4105b0c85&#45;&gt;dir_3c04bc290434a2bfff240c0777e37105 -->
<g id="edge1" class="edge"><title>dir_e3627b8b73ad15223eec0af4105b0c85&#45;&gt;dir_3c04bc290434a2bfff240c0777e37105</title>
<path fill="none" stroke="black" d="M331.719,-159.697C332.931,-151.983 334.388,-142.712 335.739,-134.112"/>
<polygon fill="black" stroke="black" points="339.217,-134.526 337.312,-124.104 332.302,-133.44 339.217,-134.526"/>
<g id="a_edge1&#45;headlabel"><a xlink:href="dir_000010_000011.html" target="_top" xlink:title="1">
<text text-anchor="middle" x="341.464" y="-136.018" font-family="Helvetica,sans-Serif" font-size="10.00">1</text>
</a>
</g>
</g>
<!-- dir_3c04bc290434a2bfff240c0777e37105&#45;&gt;dir_ab1c81409f0df724f17c9ef30afee877 -->
<g id="edge13" class="edge"><title>dir_3c04bc290434a2bfff240c0777e37105&#45;&gt;dir_ab1c81409f0df724f17c9ef30afee877</title>
<path fill="none" stroke="black" d="M319.938,-124.409C309.973,-134.013 298.493,-146.674 291,-160 266.7,-203.213 254.362,-260.302 248.832,-293.602"/>
<polygon fill="black" stroke="black" points="245.367,-293.107 247.27,-303.529 252.282,-294.195 245.367,-293.107"/>
<g id="a_edge13&#45;headlabel"><a xlink:href="dir_000011_000001.html" target="_top" xlink:title="1">
<text text-anchor="middle" x="243.121" y="-286.614" font-family="Helvetica,sans-Serif" font-size="10.00">1</text>
</a>
</g>
</g>
<!-- dir_3c04bc290434a2bfff240c0777e37105&#45;&gt;dir_f2fd8bd6424c93166d6dd5f2b70706e7 -->
<g id="edge12" class="edge"><title>dir_3c04bc290434a2bfff240c0777e37105&#45;&gt;dir_f2fd8bd6424c93166d6dd5f2b70706e7</title>
<path fill="none" stroke="black" d="M348.404,-87.6966C352.275,-79.7284 356.952,-70.0995 361.243,-61.2641"/>
<polygon fill="black" stroke="black" points="364.471,-62.6286 365.692,-52.1043 358.175,-59.5702 364.471,-62.6286"/>
<g id="a_edge12&#45;headlabel"><a xlink:href="dir_000011_000007.html" target="_top" xlink:title="1">
<text text-anchor="middle" x="365.455" y="-64.6025" font-family="Helvetica,sans-Serif" font-size="10.00">1</text>
</a>
</g>
</g>
<!-- dir_204a62f8e377bbe2ddbc0beb0fbe30f0&#45;&gt;dir_ab1c81409f0df724f17c9ef30afee877 -->
<g id="edge7" class="edge"><title>dir_204a62f8e377bbe2ddbc0beb0fbe30f0&#45;&gt;dir_ab1c81409f0df724f17c9ef30afee877</title>
<path fill="none" stroke="black" d="M362.772,-268.084C339.143,-279.844 306.369,-295.298 281.325,-306.466"/>
<polygon fill="black" stroke="black" points="279.875,-303.28 272.14,-310.52 282.701,-309.684 279.875,-303.28"/>
<g id="a_edge7&#45;headlabel"><a xlink:href="dir_000012_000001.html" target="_top" xlink:title="5">
<text text-anchor="middle" x="282.017" y="-296.732" font-family="Helvetica,sans-Serif" font-size="10.00">5</text>
</a>
</g>
</g>
<!-- dir_204a62f8e377bbe2ddbc0beb0fbe30f0&#45;&gt;dir_e3627b8b73ad15223eec0af4105b0c85 -->
<g id="edge5" class="edge"><title>dir_204a62f8e377bbe2ddbc0beb0fbe30f0&#45;&gt;dir_e3627b8b73ad15223eec0af4105b0c85</title>
<path fill="none" stroke="black" d="M377.18,-231.697C369.43,-223.22 359.961,-212.864 351.476,-203.583"/>
<polygon fill="black" stroke="black" points="353.969,-201.123 344.638,-196.104 348.803,-205.846 353.969,-201.123"/>
<g id="a_edge5&#45;headlabel"><a xlink:href="dir_000012_000010.html" target="_top" xlink:title="2">
<text text-anchor="middle" x="358.49" y="-199.36" font-family="Helvetica,sans-Serif" font-size="10.00">2</text>
</a>
</g>
</g>
<!-- dir_204a62f8e377bbe2ddbc0beb0fbe30f0&#45;&gt;dir_3c04bc290434a2bfff240c0777e37105 -->
<g id="edge6" class="edge"><title>dir_204a62f8e377bbe2ddbc0beb0fbe30f0&#45;&gt;dir_3c04bc290434a2bfff240c0777e37105</title>
<path fill="none" stroke="black" d="M389.03,-231.953C384.571,-213.802 376.676,-184.389 367,-160 363.458,-151.073 358.927,-141.638 354.592,-133.241"/>
<polygon fill="black" stroke="black" points="357.62,-131.481 349.844,-124.285 351.435,-134.76 357.62,-131.481"/>
<g id="a_edge6&#45;headlabel"><a xlink:href="dir_000012_000011.html" target="_top" xlink:title="2">
<text text-anchor="middle" x="361.812" y="-130.827" font-family="Helvetica,sans-Serif" font-size="10.00">2</text>
</a>
</g>
</g>
<!-- dir_821002d4f10779a80d4fb17bc32f21f1 -->
<g id="node14" class="node"><title>dir_821002d4f10779a80d4fb17bc32f21f1</title>
<g id="a_node14"><a xlink:href="dir_821002d4f10779a80d4fb17bc32f21f1.html" target="_top" xlink:title="utils">
<polygon fill="white" stroke="black" points="200,-340 146,-340 146,-304 200,-304 200,-340"/>
<text text-anchor="middle" x="173" y="-319.5" font-family="Helvetica,sans-Serif" font-size="10.00">utils</text>
</a>
</g>
</g>
<!-- dir_e93205d87ef342d60b93dde56e83f461 -->
<g id="node15" class="node"><title>dir_e93205d87ef342d60b93dde56e83f461</title>
<g id="a_node15"><a xlink:href="dir_e93205d87ef342d60b93dde56e83f461.html" target="_top" xlink:title="vectorpostprocessors">
<polygon fill="white" stroke="black" points="128,-340 16,-340 16,-304 128,-304 128,-340"/>
<text text-anchor="middle" x="72" y="-319.5" font-family="Helvetica,sans-Serif" font-size="10.00">vectorpostprocessors</text>
</a>
</g>
</g>
</g>
</svg>
        <g id="navigator" transform="translate(0 0)" fill="#404254">
                <rect fill="#f2f5e9" fill-opacity="0.5" stroke="#606060" stroke-width=".5" x="0" y="0" width="60" height="60"/>
                <use id="zoomplus" xlink:href="#zoomPlus" x="17" y="9" onmousedown="handleZoom(evt,'in')"/>
                <use id="zoomminus" xlink:href="#zoomMin" x="42" y="9" onmousedown="handleZoom(evt,'out')"/>
                <use id="reset" xlink:href="#resetDef" x="30" y="36" onmousedown="handleReset()"/>
                <g id="arrowUp" xlink:href="#dirArrow" transform="translate(30 24)" onmousedown="handlePan(0,-1)">
                  <use xlink:href="#rim" fill="#404040">
                        <set attributeName="fill" to="#808080" begin="arrowUp.mouseover" end="arrowUp.mouseout"/>
                  </use>
                  <path fill="none" stroke="white" stroke-width="1.5" d="M0,-3.0v7 M-2.5,-0.5L0,-3.0L2.5,-0.5"/>
                </g>
                <g id="arrowRight" xlink:href="#dirArrow" transform="rotate(90) translate(36 -43)" onmousedown="handlePan(1,0)">
                  <use xlink:href="#rim" fill="#404040">
                        <set attributeName="fill" to="#808080" begin="arrowRight.mouseover" end="arrowRight.mouseout"/>
                  </use>
                  <path fill="none" stroke="white" stroke-width="1.5" d="M0,-3.0v7 M-2.5,-0.5L0,-3.0L2.5,-0.5"/>
                </g>
                <g id="arrowDown" xlink:href="#dirArrow" transform="rotate(180) translate(-30 -48)" onmousedown="handlePan(0,1)">
                  <use xlink:href="#rim" fill="#404040">
                        <set attributeName="fill" to="#808080" begin="arrowDown.mouseover" end="arrowDown.mouseout"/>
                  </use>
                  <path fill="none" stroke="white" stroke-width="1.5" d="M0,-3.0v7 M-2.5,-0.5L0,-3.0L2.5,-0.5"/>
                </g>
                <g id="arrowLeft" xlink:href="#dirArrow" transform="rotate(270) translate(-36 17)" onmousedown="handlePan(-1,0)">
                  <use xlink:href="#rim" fill="#404040">
                        <set attributeName="fill" to="#808080" begin="arrowLeft.mouseover" end="arrowLeft.mouseout"/>
                  </use>
                  <path fill="none" stroke="white" stroke-width="1.5" d="M0,-3.0v7 M-2.5,-0.5L0,-3.0L2.5,-0.5"/>
                </g>
        </g>
        <svg viewBox="0 0 15 15" width="100%" height="30px" preserveAspectRatio="xMaxYMin meet">
         <g id="arrow_out" transform="scale(0.3 0.3)">
          <a xlink:href="dir_d44c64559bbebec7f509842c48db8b23_dep_org.svg" target="_base">
           <rect id="button" ry="5" rx="5" y="6" x="6" height="38" width="38"
                fill="#f2f5e9" fill-opacity="0.5" stroke="#606060" stroke-width="1.0"/>
           <path id="arrow"
             d="M 11.500037,31.436501 C 11.940474,20.09759 22.043105,11.32322 32.158766,21.979434 L 37.068811,17.246167 C 37.068811,17.246167 37.088388,32 37.088388,32 L 22.160133,31.978069 C 22.160133,31.978069 26.997745,27.140456 26.997745,27.140456 C 18.528582,18.264221 13.291696,25.230495 11.500037,31.436501 z"
             style="fill:#404040;"/>
          </a>
         </g>
        </svg>
</svg>
