<?xml version="1.0" encoding="UTF-8" standalone="no"?>
<!DOCTYPE svg PUBLIC "-//W3C//DTD SVG 1.1//EN"
 "http://www.w3.org/Graphics/SVG/1.1/DTD/svg11.dtd">
<!-- Generated by graphviz version 2.38.0 (20140413.2041)
 -->
<!-- Title: include/systems Pages: 1 -->
<svg width="134pt" height="151pt"
 viewBox="0.00 0.00 134.00 151.00" xmlns="http://www.w3.org/2000/svg" xmlns:xlink="http://www.w3.org/1999/xlink">
<g id="graph0" class="graph" transform="scale(1 1) rotate(0) translate(4 147)">
<title>include/systems</title>
<polygon fill="white" stroke="none" points="-4,4 -4,-147 130,-147 130,4 -4,4"/>
<g id="clust1" class="cluster"><title>clusterdir_d44c64559bbebec7f509842c48db8b23</title>
<g id="a_clust1"><a xlink:href="dir_d44c64559bbebec7f509842c48db8b23.html" target="_top" xlink:title="include">
<polygon fill="#ddddee" stroke="black" points="28,-64 28,-135 98,-135 98,-64 28,-64"/>
<text text-anchor="middle" x="63" y="-123" font-family="Helvetica,sans-Serif" font-size="10.00">include</text>
</a>
</g>
</g>
<!-- dir_3c04bc290434a2bfff240c0777e37105 -->
<g id="node1" class="node"><title>dir_3c04bc290434a2bfff240c0777e37105</title>
<g id="a_node1"><a xlink:href="dir_3c04bc290434a2bfff240c0777e37105.html" target="_top" xlink:title="systems">
<polygon fill="#eeeeff" stroke="black" points="90,-108 36,-108 36,-72 90,-72 90,-108"/>
<text text-anchor="middle" x="63" y="-87.5" font-family="Helvetica,sans-Serif" font-size="10.00">systems</text>
</a>
</g>
</g>
<!-- dir_f2fd8bd6424c93166d6dd5f2b70706e7 -->
<g id="node2" class="node"><title>dir_f2fd8bd6424c93166d6dd5f2b70706e7</title>
<g id="a_node2"><a xlink:href="dir_f2fd8bd6424c93166d6dd5f2b70706e7.html" target="_top" xlink:title="kernels">
<polygon fill="none" stroke="black" points="54,-36 0,-36 0,-0 54,-0 54,-36"/>
<text text-anchor="middle" x="27" y="-15.5" font-family="Helvetica,sans-Serif" font-size="10.00">kernels</text>
</a>
</g>
</g>
<!-- dir_3c04bc290434a2bfff240c0777e37105&#45;&gt;dir_f2fd8bd6424c93166d6dd5f2b70706e7 -->
<g id="edge1" class="edge"><title>dir_3c04bc290434a2bfff240c0777e37105&#45;&gt;dir_f2fd8bd6424c93166d6dd5f2b70706e7</title>
<path fill="none" stroke="black" d="M54.1011,-71.6966C50.0032,-63.7284 45.0512,-54.0995 40.5073,-45.2641"/>
<polygon fill="black" stroke="black" points="43.4826,-43.3965 35.7965,-36.1043 37.2575,-46.598 43.4826,-43.3965"/>
<g id="a_edge1&#45;headlabel"><a xlink:href="dir_000011_000007.html" target="_top" xlink:title="1">
<text text-anchor="middle" x="47.6514" y="-42.7946" font-family="Helvetica,sans-Serif" font-size="10.00">1</text>
</a>
</g>
</g>
<!-- dir_ab1c81409f0df724f17c9ef30afee877 -->
<g id="node3" class="node"><title>dir_ab1c81409f0df724f17c9ef30afee877</title>
<g id="a_node3"><a xlink:href="dir_ab1c81409f0df724f17c9ef30afee877.html" target="_top" xlink:title="base">
<polygon fill="none" stroke="black" points="126,-36 72,-36 72,-0 126,-0 126,-36"/>
<text text-anchor="middle" x="99" y="-15.5" font-family="Helvetica,sans-Serif" font-size="10.00">base</text>
</a>
</g>
</g>
<!-- dir_3c04bc290434a2bfff240c0777e37105&#45;&gt;dir_ab1c81409f0df724f17c9ef30afee877 -->
<g id="edge2" class="edge"><title>dir_3c04bc290434a2bfff240c0777e37105&#45;&gt;dir_ab1c81409f0df724f17c9ef30afee877</title>
<path fill="none" stroke="black" d="M71.8989,-71.6966C75.9968,-63.7284 80.9488,-54.0995 85.4927,-45.2641"/>
<polygon fill="black" stroke="black" points="88.7425,-46.598 90.2035,-36.1043 82.5174,-43.3965 88.7425,-46.598"/>
<g id="a_edge2&#45;headlabel"><a xlink:href="dir_000011_000001.html" target="_top" xlink:title="1">
<text text-anchor="middle" x="89.6235" y="-48.5931" font-family="Helvetica,sans-Serif" font-size="10.00">1</text>
</a>
</g>
</g>
</g>
</svg>
