<?xml version="1.0" encoding="UTF-8" standalone="no"?>
<!DOCTYPE svg PUBLIC "-//W3C//DTD SVG 1.1//EN"
 "http://www.w3.org/Graphics/SVG/1.1/DTD/svg11.dtd">
<!-- Generated by graphviz version 2.38.0 (20140413.2041)
 -->
<!-- Title: include/dirackernels Pages: 1 -->
<svg width="110pt" height="151pt"
 viewBox="0.00 0.00 110.00 151.00" xmlns="http://www.w3.org/2000/svg" xmlns:xlink="http://www.w3.org/1999/xlink">
<g id="graph0" class="graph" transform="scale(1 1) rotate(0) translate(4 147)">
<title>include/dirackernels</title>
<polygon fill="white" stroke="none" points="-4,4 -4,-147 106,-147 106,4 -4,4"/>
<g id="clust1" class="cluster"><title>clusterdir_d44c64559bbebec7f509842c48db8b23</title>
<g id="a_clust1"><a xlink:href="dir_d44c64559bbebec7f509842c48db8b23.html" target="_top" xlink:title="include">
<polygon fill="#ddddee" stroke="black" points="8,-64 8,-135 94,-135 94,-64 8,-64"/>
<text text-anchor="middle" x="51" y="-123" font-family="Helvetica,sans-Serif" font-size="10.00">include</text>
</a>
</g>
</g>
<!-- dir_6c6f4828ced252df7a457d18180150c1 -->
<g id="node1" class="node"><title>dir_6c6f4828ced252df7a457d18180150c1</title>
<g id="a_node1"><a xlink:href="dir_6c6f4828ced252df7a457d18180150c1.html" target="_top" xlink:title="dirackernels">
<polygon fill="#eeeeff" stroke="black" points="86,-108 16,-108 16,-72 86,-72 86,-108"/>
<text text-anchor="middle" x="51" y="-87.5" font-family="Helvetica,sans-Serif" font-size="10.00">dirackernels</text>
</a>
</g>
</g>
<!-- dir_204a62f8e377bbe2ddbc0beb0fbe30f0 -->
<g id="node2" class="node"><title>dir_204a62f8e377bbe2ddbc0beb0fbe30f0</title>
<g id="a_node2"><a xlink:href="dir_204a62f8e377bbe2ddbc0beb0fbe30f0.html" target="_top" xlink:title="userobjects">
<polygon fill="none" stroke="black" points="85,-36 17,-36 17,-0 85,-0 85,-36"/>
<text text-anchor="middle" x="51" y="-15.5" font-family="Helvetica,sans-Serif" font-size="10.00">userobjects</text>
</a>
</g>
</g>
<!-- dir_6c6f4828ced252df7a457d18180150c1&#45;&gt;dir_204a62f8e377bbe2ddbc0beb0fbe30f0 -->
<g id="edge1" class="edge"><title>dir_6c6f4828ced252df7a457d18180150c1&#45;&gt;dir_204a62f8e377bbe2ddbc0beb0fbe30f0</title>
<path fill="none" stroke="black" d="M51,-71.6966C51,-63.9827 51,-54.7125 51,-46.1124"/>
<polygon fill="black" stroke="black" points="54.5001,-46.1043 51,-36.1043 47.5001,-46.1044 54.5001,-46.1043"/>
<g id="a_edge1&#45;headlabel"><a xlink:href="dir_000003_000012.html" target="_top" xlink:title="2">
<text text-anchor="middle" x="57.3393" y="-47.199" font-family="Helvetica,sans-Serif" font-size="10.00">2</text>
</a>
</g>
</g>
</g>
</svg>
