<?xml version="1.0" encoding="UTF-8" standalone="no"?>
<!DOCTYPE svg PUBLIC "-//W3C//DTD SVG 1.1//EN"
 "http://www.w3.org/Graphics/SVG/1.1/DTD/svg11.dtd">
<!-- Generated by graphviz version 2.38.0 (20140413.2041)
 -->
<!-- Title: src Pages: 1 -->
<svg width="1221pt" height="132pt"
 viewBox="0.00 0.00 1221.00 132.00" xmlns="http://www.w3.org/2000/svg" xmlns:xlink="http://www.w3.org/1999/xlink">
<g id="graph0" class="graph" transform="scale(1 1) rotate(0) translate(4 128)">
<title>src</title>
<polygon fill="white" stroke="none" points="-4,4 -4,-128 1217,-128 1217,4 -4,4"/>
<g id="clust1" class="cluster"><title>clusterdir_68267d1309a1af8e8297ef4c3efbcdba</title>
<g id="a_clust1"><a xlink:href="dir_68267d1309a1af8e8297ef4c3efbcdba.html" target="_top">
<polygon fill="#eeeeff" stroke="black" points="8,-64 8,-116 1205,-116 1205,-64 8,-64"/>
</a>
</g>
</g>
<!-- dir_68267d1309a1af8e8297ef4c3efbcdba -->
<g id="node1" class="node"><title>dir_68267d1309a1af8e8297ef4c3efbcdba</title>
<text text-anchor="middle" x="1170" y="-87.5" font-family="Helvetica,sans-Serif" font-size="10.00">src</text>
</g>
<!-- dir_0af1587c8378955de40f48b4bd1869f0 -->
<g id="node2" class="node"><title>dir_0af1587c8378955de40f48b4bd1869f0</title>
<g id="a_node2"><a xlink:href="dir_0af1587c8378955de40f48b4bd1869f0.html" target="_top" xlink:title="base">
<polygon fill="white" stroke="black" points="1125,-108 1071,-108 1071,-72 1125,-72 1125,-108"/>
<text text-anchor="middle" x="1098" y="-87.5" font-family="Helvetica,sans-Serif" font-size="10.00">base</text>
</a>
</g>
</g>
<!-- dir_d44c64559bbebec7f509842c48db8b23 -->
<g id="node16" class="node"><title>dir_d44c64559bbebec7f509842c48db8b23</title>
<g id="a_node16"><a xlink:href="dir_d44c64559bbebec7f509842c48db8b23.html" target="_top" xlink:title="include">
<polygon fill="white" stroke="red" points="617,-36 563,-36 563,-0 617,-0 617,-36"/>
<text text-anchor="middle" x="590" y="-15.5" font-family="Helvetica,sans-Serif" font-size="10.00">include</text>
</a>
</g>
</g>
<!-- dir_0af1587c8378955de40f48b4bd1869f0&#45;&gt;dir_d44c64559bbebec7f509842c48db8b23 -->
<g id="edge3" class="edge"><title>dir_0af1587c8378955de40f48b4bd1869f0&#45;&gt;dir_d44c64559bbebec7f509842c48db8b23</title>
<path fill="none" stroke="black" d="M1077.3,-71.995C1072.53,-68.842 1067.29,-65.9362 1062,-64 982.281,-34.8082 724.602,-23.4437 627.493,-20.1299"/>
<polygon fill="black" stroke="black" points="627.377,-16.6243 617.266,-19.7907 627.145,-23.6204 627.377,-16.6243"/>
<g id="a_edge3&#45;headlabel"><a xlink:href="dir_000016_000000.html" target="_top" xlink:title="59">
<text text-anchor="middle" x="631.064" y="-11.4057" font-family="Helvetica,sans-Serif" font-size="10.00">59</text>
</a>
</g>
</g>
<!-- dir_b42fa4734c76de29a4b97f55d0ce97b5 -->
<g id="node3" class="node"><title>dir_b42fa4734c76de29a4b97f55d0ce97b5</title>
<g id="a_node3"><a xlink:href="dir_b42fa4734c76de29a4b97f55d0ce97b5.html" target="_top" xlink:title="bcs">
<polygon fill="white" stroke="black" points="1053,-108 999,-108 999,-72 1053,-72 1053,-108"/>
<text text-anchor="middle" x="1026" y="-87.5" font-family="Helvetica,sans-Serif" font-size="10.00">bcs</text>
</a>
</g>
</g>
<!-- dir_b42fa4734c76de29a4b97f55d0ce97b5&#45;&gt;dir_d44c64559bbebec7f509842c48db8b23 -->
<g id="edge4" class="edge"><title>dir_b42fa4734c76de29a4b97f55d0ce97b5&#45;&gt;dir_d44c64559bbebec7f509842c48db8b23</title>
<path fill="none" stroke="black" d="M1004.89,-71.8074C1000.22,-68.7483 995.128,-65.9275 990,-64 923.986,-39.1892 713.43,-25.5291 627.281,-20.8591"/>
<polygon fill="black" stroke="black" points="627.342,-17.3575 617.17,-20.3215 626.97,-24.3476 627.342,-17.3575"/>
<g id="a_edge4&#45;headlabel"><a xlink:href="dir_000017_000000.html" target="_top" xlink:title="12">
<text text-anchor="middle" x="631.082" y="-12.213" font-family="Helvetica,sans-Serif" font-size="10.00">12</text>
</a>
</g>
</g>
<!-- dir_5cafbbc4d3ca7520a589c9bb006faf2e -->
<g id="node4" class="node"><title>dir_5cafbbc4d3ca7520a589c9bb006faf2e</title>
<g id="a_node4"><a xlink:href="dir_5cafbbc4d3ca7520a589c9bb006faf2e.html" target="_top" xlink:title="dirackernels">
<polygon fill="white" stroke="black" points="981,-108 911,-108 911,-72 981,-72 981,-108"/>
<text text-anchor="middle" x="946" y="-87.5" font-family="Helvetica,sans-Serif" font-size="10.00">dirackernels</text>
</a>
</g>
</g>
<!-- dir_5cafbbc4d3ca7520a589c9bb006faf2e&#45;&gt;dir_d44c64559bbebec7f509842c48db8b23 -->
<g id="edge9" class="edge"><title>dir_5cafbbc4d3ca7520a589c9bb006faf2e&#45;&gt;dir_d44c64559bbebec7f509842c48db8b23</title>
<path fill="none" stroke="black" d="M919.758,-71.9968C914.083,-68.9239 907.985,-66.0496 902,-64 806.513,-31.2968 686.679,-22.3584 627.135,-19.9167"/>
<polygon fill="black" stroke="black" points="627.204,-16.4169 617.081,-19.5434 626.944,-23.4121 627.204,-16.4169"/>
<g id="a_edge9&#45;headlabel"><a xlink:href="dir_000018_000000.html" target="_top" xlink:title="2">
<text text-anchor="middle" x="630.901" y="-11.2129" font-family="Helvetica,sans-Serif" font-size="10.00">2</text>
</a>
</g>
</g>
<!-- dir_c8f6a767a900b28bdcafffb9e091a9e3 -->
<g id="node5" class="node"><title>dir_c8f6a767a900b28bdcafffb9e091a9e3</title>
<g id="a_node5"><a xlink:href="dir_c8f6a767a900b28bdcafffb9e091a9e3.html" target="_top" xlink:title="executioners">
<polygon fill="white" stroke="black" points="892.5,-108 819.5,-108 819.5,-72 892.5,-72 892.5,-108"/>
<text text-anchor="middle" x="856" y="-87.5" font-family="Helvetica,sans-Serif" font-size="10.00">executioners</text>
</a>
</g>
</g>
<!-- dir_c8f6a767a900b28bdcafffb9e091a9e3&#45;&gt;dir_d44c64559bbebec7f509842c48db8b23 -->
<g id="edge1" class="edge"><title>dir_c8f6a767a900b28bdcafffb9e091a9e3&#45;&gt;dir_d44c64559bbebec7f509842c48db8b23</title>
<path fill="none" stroke="black" d="M828.061,-71.763C822.548,-68.858 816.7,-66.1066 811,-64 748.777,-41.0052 672.121,-28.7374 627.386,-23.0695"/>
<polygon fill="black" stroke="black" points="627.618,-19.5718 617.267,-21.8315 626.768,-26.52 627.618,-19.5718"/>
<g id="a_edge1&#45;headlabel"><a xlink:href="dir_000019_000000.html" target="_top" xlink:title="1">
<text text-anchor="middle" x="631.531" y="-14.69" font-family="Helvetica,sans-Serif" font-size="10.00">1</text>
</a>
</g>
</g>
<!-- dir_e823141bb13a34caac0c96ccd0d33fcf -->
<g id="node6" class="node"><title>dir_e823141bb13a34caac0c96ccd0d33fcf</title>
<g id="a_node6"><a xlink:href="dir_e823141bb13a34caac0c96ccd0d33fcf.html" target="_top" xlink:title="functions">
<polygon fill="white" stroke="black" points="801.5,-108 744.5,-108 744.5,-72 801.5,-72 801.5,-108"/>
<text text-anchor="middle" x="773" y="-87.5" font-family="Helvetica,sans-Serif" font-size="10.00">functions</text>
</a>
</g>
</g>
<!-- dir_e823141bb13a34caac0c96ccd0d33fcf&#45;&gt;dir_d44c64559bbebec7f509842c48db8b23 -->
<g id="edge8" class="edge"><title>dir_e823141bb13a34caac0c96ccd0d33fcf&#45;&gt;dir_d44c64559bbebec7f509842c48db8b23</title>
<path fill="none" stroke="black" d="M749.062,-71.8078C744.521,-68.9669 739.712,-66.2266 735,-64 699.825,-47.3796 657.011,-34.9657 627.058,-27.4326"/>
<polygon fill="black" stroke="black" points="627.58,-23.9568 617.034,-24.9727 625.912,-30.7551 627.58,-23.9568"/>
<g id="a_edge8&#45;headlabel"><a xlink:href="dir_000020_000000.html" target="_top" xlink:title="2">
<text text-anchor="middle" x="631.748" y="-19.5559" font-family="Helvetica,sans-Serif" font-size="10.00">2</text>
</a>
</g>
</g>
<!-- dir_90f6e14287ef0beedb12eea7fad2c833 -->
<g id="node7" class="node"><title>dir_90f6e14287ef0beedb12eea7fad2c833</title>
<g id="a_node7"><a xlink:href="dir_90f6e14287ef0beedb12eea7fad2c833.html" target="_top" xlink:title="ics">
<polygon fill="white" stroke="black" points="726,-108 672,-108 672,-72 726,-72 726,-108"/>
<text text-anchor="middle" x="699" y="-87.5" font-family="Helvetica,sans-Serif" font-size="10.00">ics</text>
</a>
</g>
</g>
<!-- dir_90f6e14287ef0beedb12eea7fad2c833&#45;&gt;dir_d44c64559bbebec7f509842c48db8b23 -->
<g id="edge12" class="edge"><title>dir_90f6e14287ef0beedb12eea7fad2c833&#45;&gt;dir_d44c64559bbebec7f509842c48db8b23</title>
<path fill="none" stroke="black" d="M674.723,-71.8741C670.826,-69.2028 666.82,-66.5009 663,-64 651.089,-56.2015 637.891,-47.9502 626.029,-40.6725"/>
<polygon fill="black" stroke="black" points="627.621,-37.5438 617.262,-35.3207 623.974,-43.5185 627.621,-37.5438"/>
<g id="a_edge12&#45;headlabel"><a xlink:href="dir_000021_000000.html" target="_top" xlink:title="5">
<text text-anchor="middle" x="632.169" y="-34.4933" font-family="Helvetica,sans-Serif" font-size="10.00">5</text>
</a>
</g>
</g>
<!-- dir_40856f0cdd4bcafd28810d9265a200f7 -->
<g id="node8" class="node"><title>dir_40856f0cdd4bcafd28810d9265a200f7</title>
<g id="a_node8"><a xlink:href="dir_40856f0cdd4bcafd28810d9265a200f7.html" target="_top" xlink:title="kernels">
<polygon fill="white" stroke="black" points="654,-108 600,-108 600,-72 654,-72 654,-108"/>
<text text-anchor="middle" x="627" y="-87.5" font-family="Helvetica,sans-Serif" font-size="10.00">kernels</text>
</a>
</g>
</g>
<!-- dir_40856f0cdd4bcafd28810d9265a200f7&#45;&gt;dir_d44c64559bbebec7f509842c48db8b23 -->
<g id="edge2" class="edge"><title>dir_40856f0cdd4bcafd28810d9265a200f7&#45;&gt;dir_d44c64559bbebec7f509842c48db8b23</title>
<path fill="none" stroke="black" d="M617.854,-71.6966C613.597,-63.6436 608.444,-53.8945 603.734,-44.9824"/>
<polygon fill="black" stroke="black" points="606.808,-43.3097 599.041,-36.1043 600.62,-46.5809 606.808,-43.3097"/>
<g id="a_edge2&#45;headlabel"><a xlink:href="dir_000022_000000.html" target="_top" xlink:title="18">
<text text-anchor="middle" x="610.998" y="-42.6609" font-family="Helvetica,sans-Serif" font-size="10.00">18</text>
</a>
</g>
</g>
<!-- dir_79fa9b12a48436e6d1fb80a586e19af1 -->
<g id="node9" class="node"><title>dir_79fa9b12a48436e6d1fb80a586e19af1</title>
<g id="a_node9"><a xlink:href="dir_79fa9b12a48436e6d1fb80a586e19af1.html" target="_top" xlink:title="materials">
<polygon fill="white" stroke="black" points="581.5,-108 524.5,-108 524.5,-72 581.5,-72 581.5,-108"/>
<text text-anchor="middle" x="553" y="-87.5" font-family="Helvetica,sans-Serif" font-size="10.00">materials</text>
</a>
</g>
</g>
<!-- dir_79fa9b12a48436e6d1fb80a586e19af1&#45;&gt;dir_d44c64559bbebec7f509842c48db8b23 -->
<g id="edge13" class="edge"><title>dir_79fa9b12a48436e6d1fb80a586e19af1&#45;&gt;dir_d44c64559bbebec7f509842c48db8b23</title>
<path fill="none" stroke="black" d="M562.146,-71.6966C566.403,-63.6436 571.556,-53.8945 576.266,-44.9824"/>
<polygon fill="black" stroke="black" points="579.38,-46.5809 580.959,-36.1043 573.192,-43.3097 579.38,-46.5809"/>
<g id="a_edge13&#45;headlabel"><a xlink:href="dir_000023_000000.html" target="_top" xlink:title="4">
<text text-anchor="middle" x="580.211" y="-48.5857" font-family="Helvetica,sans-Serif" font-size="10.00">4</text>
</a>
</g>
</g>
<!-- dir_f2de5a5f3578ed4d58369498c32e6b57 -->
<g id="node10" class="node"><title>dir_f2de5a5f3578ed4d58369498c32e6b57</title>
<g id="a_node10"><a xlink:href="dir_f2de5a5f3578ed4d58369498c32e6b57.html" target="_top" xlink:title="outputs">
<polygon fill="white" stroke="black" points="506,-108 452,-108 452,-72 506,-72 506,-108"/>
<text text-anchor="middle" x="479" y="-87.5" font-family="Helvetica,sans-Serif" font-size="10.00">outputs</text>
</a>
</g>
</g>
<!-- dir_f2de5a5f3578ed4d58369498c32e6b57&#45;&gt;dir_d44c64559bbebec7f509842c48db8b23 -->
<g id="edge7" class="edge"><title>dir_f2de5a5f3578ed4d58369498c32e6b57&#45;&gt;dir_d44c64559bbebec7f509842c48db8b23</title>
<path fill="none" stroke="black" d="M503.97,-71.8922C507.972,-69.2186 512.085,-66.5112 516,-64 528.323,-56.0961 541.977,-47.6949 554.167,-40.318"/>
<polygon fill="black" stroke="black" points="555.986,-43.3085 562.744,-35.1493 552.373,-37.313 555.986,-43.3085"/>
<g id="a_edge7&#45;headlabel"><a xlink:href="dir_000024_000000.html" target="_top" xlink:title="3">
<text text-anchor="middle" x="554.372" y="-45.0956" font-family="Helvetica,sans-Serif" font-size="10.00">3</text>
</a>
</g>
</g>
<!-- dir_ee269017dc86a19705f7227ce435229f -->
<g id="node11" class="node"><title>dir_ee269017dc86a19705f7227ce435229f</title>
<g id="a_node11"><a xlink:href="dir_ee269017dc86a19705f7227ce435229f.html" target="_top" xlink:title="problems">
<polygon fill="white" stroke="black" points="434,-108 376,-108 376,-72 434,-72 434,-108"/>
<text text-anchor="middle" x="405" y="-87.5" font-family="Helvetica,sans-Serif" font-size="10.00">problems</text>
</a>
</g>
</g>
<!-- dir_ee269017dc86a19705f7227ce435229f&#45;&gt;dir_d44c64559bbebec7f509842c48db8b23 -->
<g id="edge10" class="edge"><title>dir_ee269017dc86a19705f7227ce435229f&#45;&gt;dir_d44c64559bbebec7f509842c48db8b23</title>
<path fill="none" stroke="black" d="M428.931,-71.7928C433.473,-68.9534 438.283,-66.2176 443,-64 478.914,-47.1149 522.7,-34.6632 553.098,-27.1913"/>
<polygon fill="black" stroke="black" points="553.955,-30.5851 562.863,-24.849 552.322,-23.7782 553.955,-30.5851"/>
<g id="a_edge10&#45;headlabel"><a xlink:href="dir_000025_000000.html" target="_top" xlink:title="1">
<text text-anchor="middle" x="551.122" y="-31.6844" font-family="Helvetica,sans-Serif" font-size="10.00">1</text>
</a>
</g>
</g>
<!-- dir_3a0e3b82484872d02bd65d6789aeef6b -->
<g id="node12" class="node"><title>dir_3a0e3b82484872d02bd65d6789aeef6b</title>
<g id="a_node12"><a xlink:href="dir_3a0e3b82484872d02bd65d6789aeef6b.html" target="_top" xlink:title="systems">
<polygon fill="white" stroke="black" points="358,-108 304,-108 304,-72 358,-72 358,-108"/>
<text text-anchor="middle" x="331" y="-87.5" font-family="Helvetica,sans-Serif" font-size="10.00">systems</text>
</a>
</g>
</g>
<!-- dir_3a0e3b82484872d02bd65d6789aeef6b&#45;&gt;dir_d44c64559bbebec7f509842c48db8b23 -->
<g id="edge11" class="edge"><title>dir_3a0e3b82484872d02bd65d6789aeef6b&#45;&gt;dir_d44c64559bbebec7f509842c48db8b23</title>
<path fill="none" stroke="black" d="M352.638,-71.894C357.189,-68.9051 362.1,-66.0892 367,-64 429.018,-37.5558 507.481,-26.3695 552.882,-21.8509"/>
<polygon fill="black" stroke="black" points="553.238,-25.333 562.867,-20.9123 552.583,-18.3637 553.238,-25.333"/>
<g id="a_edge11&#45;headlabel"><a xlink:href="dir_000026_000000.html" target="_top" xlink:title="2">
<text text-anchor="middle" x="549.925" y="-25.9961" font-family="Helvetica,sans-Serif" font-size="10.00">2</text>
</a>
</g>
</g>
<!-- dir_9dd1308d93879a254b8f05c6291b97f8 -->
<g id="node13" class="node"><title>dir_9dd1308d93879a254b8f05c6291b97f8</title>
<g id="a_node13"><a xlink:href="dir_9dd1308d93879a254b8f05c6291b97f8.html" target="_top" xlink:title="userobjects">
<polygon fill="white" stroke="black" points="286,-108 218,-108 218,-72 286,-72 286,-108"/>
<text text-anchor="middle" x="252" y="-87.5" font-family="Helvetica,sans-Serif" font-size="10.00">userobjects</text>
</a>
</g>
</g>
<!-- dir_9dd1308d93879a254b8f05c6291b97f8&#45;&gt;dir_d44c64559bbebec7f509842c48db8b23 -->
<g id="edge6" class="edge"><title>dir_9dd1308d93879a254b8f05c6291b97f8&#45;&gt;dir_d44c64559bbebec7f509842c48db8b23</title>
<path fill="none" stroke="black" d="M278.085,-71.7688C283.501,-68.7902 289.299,-66.0101 295,-64 384.003,-32.6163 495.71,-23.1111 552.745,-20.2388"/>
<polygon fill="black" stroke="black" points="552.914,-23.7348 562.741,-19.7758 552.59,-16.7423 552.914,-23.7348"/>
<g id="a_edge6&#45;headlabel"><a xlink:href="dir_000027_000000.html" target="_top" xlink:title="11">
<text text-anchor="middle" x="549.454" y="-24.2372" font-family="Helvetica,sans-Serif" font-size="10.00">11</text>
</a>
</g>
</g>
<!-- dir_313caf1132e152dd9b58bea13a4052ca -->
<g id="node14" class="node"><title>dir_313caf1132e152dd9b58bea13a4052ca</title>
<g id="a_node14"><a xlink:href="dir_313caf1132e152dd9b58bea13a4052ca.html" target="_top" xlink:title="utils">
<polygon fill="white" stroke="black" points="200,-108 146,-108 146,-72 200,-72 200,-108"/>
<text text-anchor="middle" x="173" y="-87.5" font-family="Helvetica,sans-Serif" font-size="10.00">utils</text>
</a>
</g>
</g>
<!-- dir_313caf1132e152dd9b58bea13a4052ca&#45;&gt;dir_d44c64559bbebec7f509842c48db8b23 -->
<g id="edge14" class="edge"><title>dir_313caf1132e152dd9b58bea13a4052ca&#45;&gt;dir_d44c64559bbebec7f509842c48db8b23</title>
<path fill="none" stroke="black" d="M194.119,-71.8294C198.788,-68.7687 203.877,-65.9417 209,-64 271.416,-40.3442 469.638,-26.1462 552.757,-21.0968"/>
<polygon fill="black" stroke="black" points="552.997,-24.5888 562.77,-20.4991 552.579,-17.6012 552.997,-24.5888"/>
<g id="a_edge14&#45;headlabel"><a xlink:href="dir_000028_000000.html" target="_top" xlink:title="1">
<text text-anchor="middle" x="549.577" y="-25.1371" font-family="Helvetica,sans-Serif" font-size="10.00">1</text>
</a>
</g>
</g>
<!-- dir_7602884d2e6b8ee6241ee52c905f4227 -->
<g id="node15" class="node"><title>dir_7602884d2e6b8ee6241ee52c905f4227</title>
<g id="a_node15"><a xlink:href="dir_7602884d2e6b8ee6241ee52c905f4227.html" target="_top" xlink:title="vectorpostprocessors">
<polygon fill="white" stroke="black" points="128,-108 16,-108 16,-72 128,-72 128,-108"/>
<text text-anchor="middle" x="72" y="-87.5" font-family="Helvetica,sans-Serif" font-size="10.00">vectorpostprocessors</text>
</a>
</g>
</g>
<!-- dir_7602884d2e6b8ee6241ee52c905f4227&#45;&gt;dir_d44c64559bbebec7f509842c48db8b23 -->
<g id="edge5" class="edge"><title>dir_7602884d2e6b8ee6241ee52c905f4227&#45;&gt;dir_d44c64559bbebec7f509842c48db8b23</title>
<path fill="none" stroke="black" d="M111.341,-71.9366C119.683,-68.8681 128.53,-66.0108 137,-64 288.105,-28.1262 474.148,-20.8115 552.458,-19.3491"/>
<polygon fill="black" stroke="black" points="552.837,-22.8434 562.778,-19.1792 552.722,-15.8443 552.837,-22.8434"/>
<g id="a_edge5&#45;headlabel"><a xlink:href="dir_000029_000000.html" target="_top" xlink:title="6">
<text text-anchor="middle" x="549.29" y="-23.2414" font-family="Helvetica,sans-Serif" font-size="10.00">6</text>
</a>
</g>
</g>
</g>
</svg>
