<?xml version="1.0" encoding="UTF-8" standalone="no"?>
<!DOCTYPE svg PUBLIC "-//W3C//DTD SVG 1.1//EN"
 "http://www.w3.org/Graphics/SVG/1.1/DTD/svg11.dtd">
<!-- Generated by graphviz version 2.38.0 (20140413.2041)
 -->
<!-- Title: Graphical Class Hierarchy Pages: 1 -->
<svg width="333pt" height="78pt"
 viewBox="0.00 0.00 333.00 77.50" xmlns="http://www.w3.org/2000/svg" xmlns:xlink="http://www.w3.org/1999/xlink">
<g id="graph0" class="graph" transform="scale(1 1) rotate(0) translate(4 73.5)">
<title>Graphical Class Hierarchy</title>
<polygon fill="white" stroke="none" points="-4,4 -4,-73.5 329,-73.5 329,4 -4,4"/>
<!-- Node1 -->
<g id="node1" class="node"><title>Node1</title>
<polygon fill="white" stroke="#bfbfbf" points="0,-28 0,-47 135,-47 135,-28 0,-28"/>
<text text-anchor="middle" x="67.5" y="-35" font-family="Helvetica,sans-Serif" font-size="10.00">NodalVectorPostprocessor</text>
</g>
<!-- Node2 -->
<g id="node2" class="node"><title>Node2</title>
<g id="a_node2"><a xlink:href="class_dwarf_elephant_nodal_difference.html" target="_top" xlink:title="DwarfElephantNodalDifference">
<polygon fill="white" stroke="black" points="171,-50 171,-69 325,-69 325,-50 171,-50"/>
<text text-anchor="middle" x="248" y="-57" font-family="Helvetica,sans-Serif" font-size="10.00">DwarfElephantNodalDifference</text>
</a>
</g>
</g>
<!-- Node1&#45;&gt;Node2 -->
<g id="edge1" class="edge"><title>Node1&#45;&gt;Node2</title>
<path fill="none" stroke="midnightblue" d="M145.383,-46.9758C153.792,-48.0122 162.35,-49.067 170.751,-50.1024"/>
<polygon fill="midnightblue" stroke="midnightblue" points="145.574,-43.4729 135.221,-45.7233 144.717,-50.4203 145.574,-43.4729"/>
</g>
<!-- Node3 -->
<g id="node3" class="node"><title>Node3</title>
<g id="a_node3"><a xlink:href="class_dwarf_elephant_reverse_lifting_function_and_dimensionalize.html" target="_top" xlink:title="DwarfElephantReverseLifting\lFunctionAndDimensionalize">
<polygon fill="white" stroke="black" points="175,-0.5 175,-30.5 321,-30.5 321,-0.5 175,-0.5"/>
<text text-anchor="start" x="183" y="-18.5" font-family="Helvetica,sans-Serif" font-size="10.00">DwarfElephantReverseLifting</text>
<text text-anchor="middle" x="248" y="-7.5" font-family="Helvetica,sans-Serif" font-size="10.00">FunctionAndDimensionalize</text>
</a>
</g>
</g>
<!-- Node1&#45;&gt;Node3 -->
<g id="edge2" class="edge"><title>Node1&#45;&gt;Node3</title>
<path fill="none" stroke="midnightblue" d="M145.369,-28.026C155.198,-26.8146 165.231,-25.578 174.979,-24.3766"/>
<polygon fill="midnightblue" stroke="midnightblue" points="144.717,-24.5797 135.221,-29.2767 145.574,-31.5271 144.717,-24.5797"/>
</g>
</g>
</svg>
