<?xml version="1.0" encoding="UTF-8" standalone="no"?>
<!DOCTYPE svg PUBLIC "-//W3C//DTD SVG 1.1//EN"
 "http://www.w3.org/Graphics/SVG/1.1/DTD/svg11.dtd">
<!-- Generated by graphviz version 2.38.0 (20140413.2041)
 -->
<!-- Title: Graphical Class Hierarchy Pages: 1 -->
<svg width="251pt" height="104pt"
 viewBox="0.00 0.00 251.00 104.00" xmlns="http://www.w3.org/2000/svg" xmlns:xlink="http://www.w3.org/1999/xlink">
<g id="graph0" class="graph" transform="scale(1 1) rotate(0) translate(4 100)">
<title>Graphical Class Hierarchy</title>
<polygon fill="white" stroke="none" points="-4,4 -4,-100 247,-100 247,4 -4,4"/>
<!-- Node1 -->
<g id="node1" class="node"><title>Node1</title>
<polygon fill="white" stroke="#bfbfbf" points="0,-38.5 0,-57.5 63,-57.5 63,-38.5 0,-38.5"/>
<text text-anchor="middle" x="31.5" y="-45.5" font-family="Helvetica,sans-Serif" font-size="10.00">FileOutput</text>
</g>
<!-- Node2 -->
<g id="node2" class="node"><title>Node2</title>
<g id="a_node2"><a xlink:href="class_dwarf_elephant_dakota_output.html" target="_top" xlink:title="This Output is required to couple the DwarfElephant package over a fork interface to the multitool ki...">
<polygon fill="white" stroke="black" points="99,-76.5 99,-95.5 243,-95.5 243,-76.5 99,-76.5"/>
<text text-anchor="middle" x="171" y="-83.5" font-family="Helvetica,sans-Serif" font-size="10.00">DwarfElephantDakotaOutput</text>
</a>
</g>
</g>
<!-- Node1&#45;&gt;Node2 -->
<g id="edge1" class="edge"><title>Node1&#45;&gt;Node2</title>
<path fill="none" stroke="midnightblue" d="M73.0547,-59.7045C81.6153,-62.1422 90.5991,-64.676 99,-67 110.314,-70.13 122.666,-73.4642 133.849,-76.4515"/>
<polygon fill="midnightblue" stroke="midnightblue" points="73.8369,-56.2879 63.2601,-56.9052 71.9133,-63.0185 73.8369,-56.2879"/>
</g>
<!-- Node3 -->
<g id="node3" class="node"><title>Node3</title>
<g id="a_node3"><a xlink:href="class_dwarf_elephant_r_b_output.html" target="_top" xlink:title="DwarfElephantRBOutput">
<polygon fill="white" stroke="black" points="108,-38.5 108,-57.5 234,-57.5 234,-38.5 108,-38.5"/>
<text text-anchor="middle" x="171" y="-45.5" font-family="Helvetica,sans-Serif" font-size="10.00">DwarfElephantRBOutput</text>
</a>
</g>
</g>
<!-- Node1&#45;&gt;Node3 -->
<g id="edge2" class="edge"><title>Node1&#45;&gt;Node3</title>
<path fill="none" stroke="midnightblue" d="M73.0562,-48C83.9404,-48 95.965,-48 107.734,-48"/>
<polygon fill="midnightblue" stroke="midnightblue" points="73.0157,-44.5001 63.0157,-48 73.0157,-51.5001 73.0157,-44.5001"/>
</g>
<!-- Node4 -->
<g id="node4" class="node"><title>Node4</title>
<g id="a_node4"><a xlink:href="class_dwarf_elephant_state_output.html" target="_top" xlink:title="This Output is required to couple the DwarfElephant package over a fork interface to the OpenDA frame...">
<polygon fill="white" stroke="black" points="103.5,-0.5 103.5,-19.5 238.5,-19.5 238.5,-0.5 103.5,-0.5"/>
<text text-anchor="middle" x="171" y="-7.5" font-family="Helvetica,sans-Serif" font-size="10.00">DwarfElephantStateOutput</text>
</a>
</g>
</g>
<!-- Node1&#45;&gt;Node4 -->
<g id="edge3" class="edge"><title>Node1&#45;&gt;Node4</title>
<path fill="none" stroke="midnightblue" d="M73.0547,-36.2955C81.6153,-33.8578 90.5991,-31.324 99,-29 110.314,-25.87 122.666,-22.5358 133.849,-19.5485"/>
<polygon fill="midnightblue" stroke="midnightblue" points="71.9133,-32.9815 63.2601,-39.0948 73.8369,-39.7121 71.9133,-32.9815"/>
</g>
</g>
</svg>
