<?xml version="1.0" encoding="UTF-8" standalone="no"?>
<!DOCTYPE svg PUBLIC "-//W3C//DTD SVG 1.1//EN"
 "http://www.w3.org/Graphics/SVG/1.1/DTD/svg11.dtd">
<!-- Generated by graphviz version 2.38.0 (20140413.2041)
 -->
<!-- Title: Graphical Class Hierarchy Pages: 1 -->
<svg width="722pt" height="291pt"
 viewBox="0.00 0.00 722.00 290.50" xmlns="http://www.w3.org/2000/svg" xmlns:xlink="http://www.w3.org/1999/xlink">
<g id="graph0" class="graph" transform="scale(1 1) rotate(0) translate(4 286.5)">
<title>Graphical Class Hierarchy</title>
<polygon fill="white" stroke="none" points="-4,4 -4,-286.5 718,-286.5 718,4 -4,4"/>
<!-- Node1 -->
<g id="node1" class="node"><title>Node1</title>
<polygon fill="white" stroke="#bfbfbf" points="0,-169.5 0,-188.5 45,-188.5 45,-169.5 0,-169.5"/>
<text text-anchor="middle" x="22.5" y="-176.5" font-family="Helvetica,sans-Serif" font-size="10.00">Kernel</text>
</g>
<!-- Node2 -->
<g id="node2" class="node"><title>Node2</title>
<g id="a_node2"><a xlink:href="class_dwarf_elephant_f_e_constant_radiogenic_heat_production.html" target="_top" xlink:title="This Kernel is implements a constant radiogenic heat production using the full Finite Element solutio...">
<polygon fill="white" stroke="black" points="81,-246 81,-276 266,-276 266,-246 81,-246"/>
<text text-anchor="start" x="89" y="-264" font-family="Helvetica,sans-Serif" font-size="10.00">DwarfElephantFEConstantRadiogenic</text>
<text text-anchor="middle" x="173.5" y="-253" font-family="Helvetica,sans-Serif" font-size="10.00">HeatProduction</text>
</a>
</g>
</g>
<!-- Node1&#45;&gt;Node2 -->
<g id="edge1" class="edge"><title>Node1&#45;&gt;Node2</title>
<path fill="none" stroke="midnightblue" d="M37.046,-196.636C47.6932,-209.338 63.5952,-225.945 81,-236 87.7018,-239.872 95.027,-243.164 102.521,-245.96"/>
<polygon fill="midnightblue" stroke="midnightblue" points="39.5627,-194.181 30.5604,-188.595 34.1141,-198.576 39.5627,-194.181"/>
</g>
<!-- Node3 -->
<g id="node3" class="node"><title>Node3</title>
<g id="a_node3"><a xlink:href="class_dwarf_elephant_f_e_darcy.html" target="_top" xlink:title="This Kernel is implements a darcy flow problem using the full Finite Element solution. It is included in this package for validation purposes. ">
<polygon fill="white" stroke="black" points="113,-207.5 113,-226.5 234,-226.5 234,-207.5 113,-207.5"/>
<text text-anchor="middle" x="173.5" y="-214.5" font-family="Helvetica,sans-Serif" font-size="10.00">DwarfElephantFEDarcy</text>
</a>
</g>
</g>
<!-- Node1&#45;&gt;Node3 -->
<g id="edge2" class="edge"><title>Node1&#45;&gt;Node3</title>
<path fill="none" stroke="midnightblue" d="M54.6946,-190.028C63.1703,-192.826 72.3874,-195.691 81,-198 94.0068,-201.487 108.198,-204.71 121.438,-207.474"/>
<polygon fill="midnightblue" stroke="midnightblue" points="55.7603,-186.694 45.1661,-186.81 53.5208,-193.326 55.7603,-186.694"/>
</g>
<!-- Node4 -->
<g id="node4" class="node"><title>Node4</title>
<g id="a_node4"><a xlink:href="class_dwarf_elephant_f_e_darcy_open_d_a.html" target="_top" xlink:title="This Kernel is implements a darcy flow problem using the full Finite Element solution. It is included in this package for validation purposes. It was slightly modified from the original DwarfElephantFEDarcy Kernel in order to allow an easier usability within the Blackbox Wrapper of OpenDA. ">
<polygon fill="white" stroke="black" points="94,-169.5 94,-188.5 253,-188.5 253,-169.5 94,-169.5"/>
<text text-anchor="middle" x="173.5" y="-176.5" font-family="Helvetica,sans-Serif" font-size="10.00">DwarfElephantFEDarcyOpenDA</text>
</a>
</g>
</g>
<!-- Node1&#45;&gt;Node4 -->
<g id="edge3" class="edge"><title>Node1&#45;&gt;Node4</title>
<path fill="none" stroke="midnightblue" d="M55.3944,-179C66.7611,-179 80.1211,-179 93.6727,-179"/>
<polygon fill="midnightblue" stroke="midnightblue" points="55.1659,-175.5 45.1659,-179 55.1658,-182.5 55.1659,-175.5"/>
</g>
<!-- Node5 -->
<g id="node5" class="node"><title>Node5</title>
<g id="a_node5"><a xlink:href="class_dwarf_elephant_r_b_kernel.html" target="_top" xlink:title="This Kernel is required to use the RB method as it is provided by the RB libMesh package. The RBKernel inherits from the Kernel class. It overwrites the function computeJacobian because for the RB method the stiffness matrix is needed separated in its subdomain contributions. In addition it overwrites the function computeResidual. ">
<polygon fill="white" stroke="black" points="111,-131.5 111,-150.5 236,-150.5 236,-131.5 111,-131.5"/>
<text text-anchor="middle" x="173.5" y="-138.5" font-family="Helvetica,sans-Serif" font-size="10.00">DwarfElephantRBKernel</text>
</a>
</g>
</g>
<!-- Node1&#45;&gt;Node5 -->
<g id="edge4" class="edge"><title>Node1&#45;&gt;Node5</title>
<path fill="none" stroke="midnightblue" d="M54.6946,-167.972C63.1703,-165.174 72.3874,-162.309 81,-160 94.0068,-156.513 108.198,-153.29 121.438,-150.526"/>
<polygon fill="midnightblue" stroke="midnightblue" points="53.5208,-164.674 45.1661,-171.19 55.7603,-171.306 53.5208,-164.674"/>
</g>
<!-- Node15 -->
<g id="node15" class="node"><title>Node15</title>
<g id="a_node15"><a xlink:href="class_dwarf_elephant_zero_kernel.html" target="_top" xlink:title="DwarfElephantZeroKernel">
<polygon fill="white" stroke="black" points="107.5,-93.5 107.5,-112.5 239.5,-112.5 239.5,-93.5 107.5,-93.5"/>
<text text-anchor="middle" x="173.5" y="-100.5" font-family="Helvetica,sans-Serif" font-size="10.00">DwarfElephantZeroKernel</text>
</a>
</g>
</g>
<!-- Node1&#45;&gt;Node15 -->
<g id="edge14" class="edge"><title>Node1&#45;&gt;Node15</title>
<path fill="none" stroke="midnightblue" d="M36.8688,-161.046C47.4256,-148.182 63.292,-131.511 81,-122 89.1471,-117.624 98.2023,-114.255 107.357,-111.661"/>
<polygon fill="midnightblue" stroke="midnightblue" points="33.8801,-159.185 30.4511,-169.209 39.3831,-163.511 33.8801,-159.185"/>
</g>
<!-- Node6 -->
<g id="node6" class="node"><title>Node6</title>
<g id="a_node6"><a xlink:href="class_dwarf_elephant_r_b_constant_radiogenic_heat_production.html" target="_top" xlink:title="This Kernel is implements a constant radiogenic heat production using the Reduced Basis solution...">
<polygon fill="white" stroke="black" points="305.5,-252 305.5,-282 491.5,-282 491.5,-252 305.5,-252"/>
<text text-anchor="start" x="313.5" y="-270" font-family="Helvetica,sans-Serif" font-size="10.00">DwarfElephantRBConstantRadiogenic</text>
<text text-anchor="middle" x="398.5" y="-259" font-family="Helvetica,sans-Serif" font-size="10.00">HeatProduction</text>
</a>
</g>
</g>
<!-- Node5&#45;&gt;Node6 -->
<g id="edge5" class="edge"><title>Node5&#45;&gt;Node6</title>
<path fill="none" stroke="midnightblue" d="M246.148,-148.76C253.314,-151.561 260.107,-155.225 266,-160 296.926,-185.056 271.727,-216.159 302,-242 306.562,-245.894 311.662,-249.191 317.068,-251.981"/>
<polygon fill="midnightblue" stroke="midnightblue" points="246.786,-145.284 236.193,-145.454 244.58,-151.928 246.786,-145.284"/>
</g>
<!-- Node7 -->
<g id="node7" class="node"><title>Node7</title>
<g id="a_node7"><a xlink:href="class_dwarf_elephant_r_b_diffusion.html" target="_top" xlink:title="This Kernel implements the Diffusion problem by using the RB method. It is important to note that eve...">
<polygon fill="white" stroke="black" points="331,-213.5 331,-232.5 466,-232.5 466,-213.5 331,-213.5"/>
<text text-anchor="middle" x="398.5" y="-220.5" font-family="Helvetica,sans-Serif" font-size="10.00">DwarfElephantRBDiffusion</text>
</a>
</g>
</g>
<!-- Node5&#45;&gt;Node7 -->
<g id="edge6" class="edge"><title>Node5&#45;&gt;Node7</title>
<path fill="none" stroke="midnightblue" d="M245.935,-150.784C252.976,-153.217 259.8,-156.242 266,-160 287.608,-173.097 280.338,-190.994 302,-204 310.768,-209.265 320.726,-213.102 330.821,-215.893"/>
<polygon fill="midnightblue" stroke="midnightblue" points="246.825,-147.396 236.238,-147.819 244.778,-154.09 246.825,-147.396"/>
</g>
<!-- Node9 -->
<g id="node9" class="node"><title>Node9</title>
<g id="a_node9"><a xlink:href="class_dwarf_elephant_r_b_diffusion_n_d.html" target="_top" xlink:title="DwarfElephantRBDiffusionND">
<polygon fill="white" stroke="black" points="324,-175.5 324,-194.5 473,-194.5 473,-175.5 324,-175.5"/>
<text text-anchor="middle" x="398.5" y="-182.5" font-family="Helvetica,sans-Serif" font-size="10.00">DwarfElephantRBDiffusionND</text>
</a>
</g>
</g>
<!-- Node5&#45;&gt;Node9 -->
<g id="edge8" class="edge"><title>Node5&#45;&gt;Node9</title>
<path fill="none" stroke="midnightblue" d="M232.826,-152.508C269.045,-159.655 315.038,-168.73 349.207,-175.471"/>
<polygon fill="midnightblue" stroke="midnightblue" points="233.376,-149.049 222.888,-150.547 232.021,-155.917 233.376,-149.049"/>
</g>
<!-- Node10 -->
<g id="node10" class="node"><title>Node10</title>
<g id="a_node10"><a xlink:href="class_dwarf_elephant_r_b_lifting_function_kernel.html" target="_top" xlink:title="This Kernel is implements the concept of the lifting function to avoid problems caused by non&#45;homogen...">
<polygon fill="white" stroke="black" points="318,-126 318,-156 479,-156 479,-126 318,-126"/>
<text text-anchor="start" x="326" y="-144" font-family="Helvetica,sans-Serif" font-size="10.00">DwarfElephantRBLiftingFunction</text>
<text text-anchor="middle" x="398.5" y="-133" font-family="Helvetica,sans-Serif" font-size="10.00">Kernel</text>
</a>
</g>
</g>
<!-- Node5&#45;&gt;Node10 -->
<g id="edge9" class="edge"><title>Node5&#45;&gt;Node10</title>
<path fill="none" stroke="midnightblue" d="M246.306,-141C269.105,-141 294.452,-141 317.774,-141"/>
<polygon fill="midnightblue" stroke="midnightblue" points="246.026,-137.5 236.026,-141 246.026,-144.5 246.026,-137.5"/>
</g>
<!-- Node11 -->
<g id="node11" class="node"><title>Node11</title>
<g id="a_node11"><a xlink:href="class_dwarf_elephant_r_b_lifting_function_kernel_with_parameter_independent_scale.html" target="_top" xlink:title="This Kernel is implements the concept of the lifting function to avoid problems caused by non&#45;homogen...">
<polygon fill="white" stroke="black" points="302,-77 302,-107 495,-107 495,-77 302,-77"/>
<text text-anchor="start" x="310" y="-95" font-family="Helvetica,sans-Serif" font-size="10.00">DwarfElephantRBLiftingFunction</text>
<text text-anchor="middle" x="398.5" y="-84" font-family="Helvetica,sans-Serif" font-size="10.00">KernelWithParameterIndependentScale</text>
</a>
</g>
</g>
<!-- Node5&#45;&gt;Node11 -->
<g id="edge10" class="edge"><title>Node5&#45;&gt;Node11</title>
<path fill="none" stroke="midnightblue" d="M231.457,-129.353C242.904,-126.961 254.843,-124.431 266,-122 287.736,-117.264 311.448,-111.912 332.678,-107.053"/>
<polygon fill="midnightblue" stroke="midnightblue" points="230.634,-125.949 221.556,-131.413 232.06,-132.802 230.634,-125.949"/>
</g>
<!-- Node12 -->
<g id="node12" class="node"><title>Node12</title>
<g id="a_node12"><a xlink:href="class_dwarf_elephant_r_b_one_kernel.html" target="_top" xlink:title="DwarfElephantRBOneKernel">
<polygon fill="white" stroke="black" points="326.5,-38.5 326.5,-57.5 470.5,-57.5 470.5,-38.5 326.5,-38.5"/>
<text text-anchor="middle" x="398.5" y="-45.5" font-family="Helvetica,sans-Serif" font-size="10.00">DwarfElephantRBOneKernel</text>
</a>
</g>
</g>
<!-- Node5&#45;&gt;Node12 -->
<g id="edge11" class="edge"><title>Node5&#45;&gt;Node12</title>
<path fill="none" stroke="midnightblue" d="M246.004,-131.943C253.085,-129.374 259.898,-126.119 266,-122 289.907,-105.862 278.106,-84.1584 302,-68 309.297,-63.0655 317.569,-59.3105 326.121,-56.4593"/>
<polygon fill="midnightblue" stroke="midnightblue" points="244.702,-128.684 236.224,-135.038 246.814,-135.358 244.702,-128.684"/>
</g>
<!-- Node13 -->
<g id="node13" class="node"><title>Node13</title>
<g id="a_node13"><a xlink:href="class_dwarf_elephant_r_b_time_kernel.html" target="_top" xlink:title="All time kernels should inherit from this class. ">
<polygon fill="white" stroke="black" points="325,-0.5 325,-19.5 472,-19.5 472,-0.5 325,-0.5"/>
<text text-anchor="middle" x="398.5" y="-7.5" font-family="Helvetica,sans-Serif" font-size="10.00">DwarfElephantRBTimeKernel</text>
</a>
</g>
</g>
<!-- Node5&#45;&gt;Node13 -->
<g id="edge12" class="edge"><title>Node5&#45;&gt;Node13</title>
<path fill="none" stroke="midnightblue" d="M246.363,-133.499C253.49,-130.651 260.214,-126.904 266,-122 299.811,-93.3419 268.07,-57.5166 302,-29 308.6,-23.453 316.361,-19.3621 324.557,-16.3672"/>
<polygon fill="midnightblue" stroke="midnightblue" points="244.798,-130.333 236.445,-136.851 247.04,-136.965 244.798,-130.333"/>
</g>
<!-- Node8 -->
<g id="node8" class="node"><title>Node8</title>
<g id="a_node8"><a xlink:href="class_dwarf_elephant_r_b_thermal_conduction.html" target="_top" xlink:title="This Kernel is implements a thermal conduction problem using the reduced basis solution. Note that the thermal conductivity is fixed for all parameters. ">
<polygon fill="white" stroke="black" points="531,-213.5 531,-232.5 714,-232.5 714,-213.5 531,-213.5"/>
<text text-anchor="middle" x="622.5" y="-220.5" font-family="Helvetica,sans-Serif" font-size="10.00">DwarfElephantRBThermalConduction</text>
</a>
</g>
</g>
<!-- Node7&#45;&gt;Node8 -->
<g id="edge7" class="edge"><title>Node7&#45;&gt;Node8</title>
<path fill="none" stroke="midnightblue" d="M476.279,-223C493.828,-223 512.642,-223 530.716,-223"/>
<polygon fill="midnightblue" stroke="midnightblue" points="476.107,-219.5 466.107,-223 476.107,-226.5 476.107,-219.5"/>
</g>
<!-- Node14 -->
<g id="node14" class="node"><title>Node14</title>
<g id="a_node14"><a xlink:href="class_dwarf_elephant_r_b_time_derivative.html" target="_top" xlink:title="This Kernel implements the TimeDerivative by using the RB method. It is important to note that every ...">
<polygon fill="white" stroke="black" points="541,-0.5 541,-19.5 704,-19.5 704,-0.5 541,-0.5"/>
<text text-anchor="middle" x="622.5" y="-7.5" font-family="Helvetica,sans-Serif" font-size="10.00">DwarfElephantRBTimeDerivative</text>
</a>
</g>
</g>
<!-- Node13&#45;&gt;Node14 -->
<g id="edge13" class="edge"><title>Node13&#45;&gt;Node14</title>
<path fill="none" stroke="midnightblue" d="M482.392,-10C501.554,-10 521.912,-10 540.97,-10"/>
<polygon fill="midnightblue" stroke="midnightblue" points="482.191,-6.5001 472.191,-10 482.191,-13.5001 482.191,-6.5001"/>
</g>
</g>
</svg>
