<?xml version="1.0" encoding="UTF-8" standalone="no"?>
<!DOCTYPE svg PUBLIC "-//W3C//DTD SVG 1.1//EN"
 "http://www.w3.org/Graphics/SVG/1.1/DTD/svg11.dtd">
<!-- Generated by graphviz version 2.38.0 (20140413.2041)
 -->
<!-- Title: Graphical Class Hierarchy Pages: 1 -->
<svg width="574pt" height="676pt"
 viewBox="0.00 0.00 574.00 676.00" xmlns="http://www.w3.org/2000/svg" xmlns:xlink="http://www.w3.org/1999/xlink">
<g id="graph0" class="graph" transform="scale(1 1) rotate(0) translate(4 672)">
<title>Graphical Class Hierarchy</title>
<polygon fill="white" stroke="none" points="-4,4 -4,-672 570,-672 570,4 -4,4"/>
<!-- Node1 -->
<g id="node1" class="node"><title>Node1</title>
<polygon fill="white" stroke="#bfbfbf" points="0,-349 0,-368 144,-368 144,-349 0,-349"/>
<text text-anchor="middle" x="72" y="-356" font-family="Helvetica,sans-Serif" font-size="10.00">TransientRBThetaExpansion</text>
</g>
<!-- Node2 -->
<g id="node2" class="node"><title>Node2</title>
<g id="a_node2"><a xlink:href="struct_dwarf_elephant_r_b_p1_t2_f1_o1_m1_transient_expansion.html" target="_top" xlink:title="The structures are defined for an parabolic PDE with the following restrictions: 1. The number of thetas is equal to two (T2). 2. The problem contains one load vector (F1) and one output (O1). ">
<polygon fill="white" stroke="black" points="194.5,-637.5 194.5,-667.5 353.5,-667.5 353.5,-637.5 194.5,-637.5"/>
<text text-anchor="start" x="202.5" y="-655.5" font-family="Helvetica,sans-Serif" font-size="10.00">DwarfElephantRBP1T2F1O1M1</text>
<text text-anchor="middle" x="274" y="-644.5" font-family="Helvetica,sans-Serif" font-size="10.00">TransientExpansion</text>
</a>
</g>
</g>
<!-- Node1&#45;&gt;Node2 -->
<g id="edge1" class="edge"><title>Node1&#45;&gt;Node2</title>
<path fill="none" stroke="midnightblue" d="M74.8175,-378.213C80.4995,-428.075 102.485,-560.099 180,-628.5 184.251,-632.251 189.013,-635.429 194.076,-638.12"/>
<polygon fill="midnightblue" stroke="midnightblue" points="78.2841,-377.71 73.7679,-368.126 71.3217,-378.435 78.2841,-377.71"/>
</g>
<!-- Node3 -->
<g id="node3" class="node"><title>Node3</title>
<g id="a_node3"><a xlink:href="struct_dwarf_elephant_r_b_t1_f1_o1_m1_transient_expansion.html" target="_top" xlink:title="The structures are defined for an parabolic PDE with the following restrictions: 1. The number of thetas is equal to one (T1). 2. The problem contains one load vector (F1) and one output (O1). ">
<polygon fill="white" stroke="black" points="180,-588.5 180,-618.5 368,-618.5 368,-588.5 180,-588.5"/>
<text text-anchor="start" x="188" y="-606.5" font-family="Helvetica,sans-Serif" font-size="10.00">DwarfElephantRBT1F1O1M1Transient</text>
<text text-anchor="middle" x="274" y="-595.5" font-family="Helvetica,sans-Serif" font-size="10.00">Expansion</text>
</a>
</g>
</g>
<!-- Node1&#45;&gt;Node3 -->
<g id="edge2" class="edge"><title>Node1&#45;&gt;Node3</title>
<path fill="none" stroke="midnightblue" d="M76.7038,-378.089C85.942,-421.372 114.166,-525.581 180,-579.5 184.128,-582.881 188.677,-585.792 193.478,-588.297"/>
<polygon fill="midnightblue" stroke="midnightblue" points="80.1254,-377.35 74.7106,-368.244 73.2646,-378.739 80.1254,-377.35"/>
</g>
<!-- Node4 -->
<g id="node4" class="node"><title>Node4</title>
<g id="a_node4"><a xlink:href="struct_dwarf_elephant_r_b_t2_f2_o1_m2_transient_expansion.html" target="_top" xlink:title="The structures are defined for an parabolic PDE with the following restrictions: 1. The number of thetas is equal to four (T4). 2. The problem contains two load vectors (F2) and one output (O1). ">
<polygon fill="white" stroke="black" points="180,-539.5 180,-569.5 368,-569.5 368,-539.5 180,-539.5"/>
<text text-anchor="start" x="188" y="-557.5" font-family="Helvetica,sans-Serif" font-size="10.00">DwarfElephantRBT2F2O1M2Transient</text>
<text text-anchor="middle" x="274" y="-546.5" font-family="Helvetica,sans-Serif" font-size="10.00">Expansion</text>
</a>
</g>
</g>
<!-- Node1&#45;&gt;Node4 -->
<g id="edge3" class="edge"><title>Node1&#45;&gt;Node4</title>
<path fill="none" stroke="midnightblue" d="M79.4889,-377.811C92.558,-413.667 125.541,-490.507 180,-530.5 184.704,-533.954 189.86,-536.913 195.257,-539.447"/>
<polygon fill="midnightblue" stroke="midnightblue" points="82.6885,-376.359 76.0706,-368.086 76.0845,-378.68 82.6885,-376.359"/>
</g>
<!-- Node5 -->
<g id="node5" class="node"><title>Node5</title>
<g id="a_node5"><a xlink:href="struct_dwarf_elephant_r_b_t2_f3_o1_m2_transient_expansion.html" target="_top" xlink:title="The structures are defined for an parabolic PDE with the following restrictions: 1. The number of thetas is equal to four (T4). 2. The problem contains three load vectors (F3) and one output (O1). ">
<polygon fill="white" stroke="black" points="180,-490.5 180,-520.5 368,-520.5 368,-490.5 180,-490.5"/>
<text text-anchor="start" x="188" y="-508.5" font-family="Helvetica,sans-Serif" font-size="10.00">DwarfElephantRBT2F3O1M2Transient</text>
<text text-anchor="middle" x="274" y="-497.5" font-family="Helvetica,sans-Serif" font-size="10.00">Expansion</text>
</a>
</g>
</g>
<!-- Node1&#45;&gt;Node5 -->
<g id="edge4" class="edge"><title>Node1&#45;&gt;Node5</title>
<path fill="none" stroke="midnightblue" d="M84.0077,-377.141C101.059,-404.342 136.474,-454.592 180,-481.5 185.531,-484.92 191.536,-487.854 197.741,-490.373"/>
<polygon fill="midnightblue" stroke="midnightblue" points="86.7754,-374.957 78.5756,-368.248 80.8017,-378.607 86.7754,-374.957"/>
</g>
<!-- Node6 -->
<g id="node6" class="node"><title>Node6</title>
<g id="a_node6"><a xlink:href="struct_dwarf_elephant_r_b_t2_f3_o3_m2_transient_expansion.html" target="_top" xlink:title="The structures are defined for an parabolic PDE with the following restrictions: 1. The number of thetas is equal to four (T4). 2. The problem contains three load vectors (F3) and one output (O1). ">
<polygon fill="white" stroke="black" points="180,-441.5 180,-471.5 368,-471.5 368,-441.5 180,-441.5"/>
<text text-anchor="start" x="188" y="-459.5" font-family="Helvetica,sans-Serif" font-size="10.00">DwarfElephantRBT2F3O3M2Transient</text>
<text text-anchor="middle" x="274" y="-448.5" font-family="Helvetica,sans-Serif" font-size="10.00">Expansion</text>
</a>
</g>
</g>
<!-- Node1&#45;&gt;Node6 -->
<g id="edge5" class="edge"><title>Node1&#45;&gt;Node6</title>
<path fill="none" stroke="midnightblue" d="M91.9414,-374.719C112.399,-391.457 146.569,-417.216 180,-432.5 187.431,-435.897 195.424,-438.873 203.493,-441.465"/>
<polygon fill="midnightblue" stroke="midnightblue" points="93.9804,-371.862 84.0555,-368.155 89.5021,-377.242 93.9804,-371.862"/>
</g>
<!-- Node7 -->
<g id="node7" class="node"><title>Node7</title>
<g id="a_node7"><a xlink:href="struct_dwarf_elephant_r_b_t3_f1_o1_m1_transient_expansion.html" target="_top" xlink:title="The structures are defined for an parabolic PDE with the following restrictions: 1. The number of thetas is equal to three (T3). 2. The problem contains one load vector (F1) and one output (O1). ">
<polygon fill="white" stroke="black" points="180,-392.5 180,-422.5 368,-422.5 368,-392.5 180,-392.5"/>
<text text-anchor="start" x="188" y="-410.5" font-family="Helvetica,sans-Serif" font-size="10.00">DwarfElephantRBT3F1O1M1Transient</text>
<text text-anchor="middle" x="274" y="-399.5" font-family="Helvetica,sans-Serif" font-size="10.00">Expansion</text>
</a>
</g>
</g>
<!-- Node1&#45;&gt;Node7 -->
<g id="edge6" class="edge"><title>Node1&#45;&gt;Node7</title>
<path fill="none" stroke="midnightblue" d="M122.038,-370.514C149.061,-377.135 182.862,-385.416 211.625,-392.463"/>
<polygon fill="midnightblue" stroke="midnightblue" points="122.582,-367.044 112.037,-368.064 120.917,-373.843 122.582,-367.044"/>
</g>
<!-- Node8 -->
<g id="node8" class="node"><title>Node8</title>
<g id="a_node8"><a xlink:href="struct_dwarf_elephant_r_b_t3_f1_o3_m1_transient_expansion.html" target="_top" xlink:title="The structures are defined for an parabolic PDE with the following restrictions: 1. The number of thetas is equal to three (T3). 2. The problem contains one load vector (F1) and one output (O1). ">
<polygon fill="white" stroke="black" points="180,-343.5 180,-373.5 368,-373.5 368,-343.5 180,-343.5"/>
<text text-anchor="start" x="188" y="-361.5" font-family="Helvetica,sans-Serif" font-size="10.00">DwarfElephantRBT3F1O3M1Transient</text>
<text text-anchor="middle" x="274" y="-350.5" font-family="Helvetica,sans-Serif" font-size="10.00">Expansion</text>
</a>
</g>
</g>
<!-- Node1&#45;&gt;Node8 -->
<g id="edge7" class="edge"><title>Node1&#45;&gt;Node8</title>
<path fill="none" stroke="midnightblue" d="M154.229,-358.5C162.641,-358.5 171.238,-358.5 179.768,-358.5"/>
<polygon fill="midnightblue" stroke="midnightblue" points="154.076,-355 144.076,-358.5 154.076,-362 154.076,-355"/>
</g>
<!-- Node9 -->
<g id="node9" class="node"><title>Node9</title>
<g id="a_node9"><a xlink:href="struct_dwarf_elephant_r_b_t3_f4_o1_m2_transient_expansion.html" target="_top" xlink:title="The structures are defined for an parabolic PDE with the following restrictions: 1. The number of thetas is equal to four (T4). 2. The problem contains three load vectors (F3) and one output (O1). ">
<polygon fill="white" stroke="black" points="180,-294.5 180,-324.5 368,-324.5 368,-294.5 180,-294.5"/>
<text text-anchor="start" x="188" y="-312.5" font-family="Helvetica,sans-Serif" font-size="10.00">DwarfElephantRBT3F4O1M2Transient</text>
<text text-anchor="middle" x="274" y="-301.5" font-family="Helvetica,sans-Serif" font-size="10.00">Expansion</text>
</a>
</g>
</g>
<!-- Node1&#45;&gt;Node9 -->
<g id="edge8" class="edge"><title>Node1&#45;&gt;Node9</title>
<path fill="none" stroke="midnightblue" d="M122.038,-346.486C149.061,-339.865 182.862,-331.584 211.625,-324.537"/>
<polygon fill="midnightblue" stroke="midnightblue" points="120.917,-343.157 112.037,-348.936 122.582,-349.956 120.917,-343.157"/>
</g>
<!-- Node10 -->
<g id="node10" class="node"><title>Node10</title>
<g id="a_node10"><a xlink:href="struct_dwarf_elephant_r_b_t3_f4_o3_m2_transient_expansion.html" target="_top" xlink:title="The structures are defined for an parabolic PDE with the following restrictions: 1. The number of thetas is equal to three (T3). 2. The problem contains one load vector (F1) and one output (O1). ">
<polygon fill="white" stroke="black" points="180,-245.5 180,-275.5 368,-275.5 368,-245.5 180,-245.5"/>
<text text-anchor="start" x="188" y="-263.5" font-family="Helvetica,sans-Serif" font-size="10.00">DwarfElephantRBT3F4O3M2Transient</text>
<text text-anchor="middle" x="274" y="-252.5" font-family="Helvetica,sans-Serif" font-size="10.00">Expansion</text>
</a>
</g>
</g>
<!-- Node1&#45;&gt;Node10 -->
<g id="edge9" class="edge"><title>Node1&#45;&gt;Node10</title>
<path fill="none" stroke="midnightblue" d="M92.3427,-342.314C112.894,-325.863 146.922,-300.697 180,-285.5 188.204,-281.731 197.085,-278.44 205.992,-275.592"/>
<polygon fill="midnightblue" stroke="midnightblue" points="89.9488,-339.75 84.4023,-348.777 94.3675,-345.179 89.9488,-339.75"/>
</g>
<!-- Node11 -->
<g id="node11" class="node"><title>Node11</title>
<g id="a_node11"><a xlink:href="struct_dwarf_elephant_r_b_t4_f1_o1_m1_transient_expansion.html" target="_top" xlink:title="The structures are defined for an parabolic PDE with the following restrictions: 1. The number of thetas is equal to four (T4). 2. The problem contains one load vector (F1) and one output (O1). ">
<polygon fill="white" stroke="black" points="180,-196.5 180,-226.5 368,-226.5 368,-196.5 180,-196.5"/>
<text text-anchor="start" x="188" y="-214.5" font-family="Helvetica,sans-Serif" font-size="10.00">DwarfElephantRBT4F1O1M1Transient</text>
<text text-anchor="middle" x="274" y="-203.5" font-family="Helvetica,sans-Serif" font-size="10.00">Expansion</text>
</a>
</g>
</g>
<!-- Node1&#45;&gt;Node11 -->
<g id="edge10" class="edge"><title>Node1&#45;&gt;Node11</title>
<path fill="none" stroke="midnightblue" d="M84.0807,-340.069C101.225,-313.163 136.756,-263.414 180,-236.5 186.246,-232.613 193.092,-229.324 200.147,-226.541"/>
<polygon fill="midnightblue" stroke="midnightblue" points="80.921,-338.522 78.6163,-348.863 86.8668,-342.217 80.921,-338.522"/>
</g>
<!-- Node12 -->
<g id="node12" class="node"><title>Node12</title>
<g id="a_node12"><a xlink:href="struct_dwarf_elephant_r_b_t5_f1_o1_m1_transient_expansion.html" target="_top" xlink:title="The structures are defined for an parabolic PDE with the following restrictions: 1. The number of thetas is equal to five (T5). 2. The problem contains one load vector (F1) and one output (O1). ">
<polygon fill="white" stroke="black" points="180,-147.5 180,-177.5 368,-177.5 368,-147.5 180,-147.5"/>
<text text-anchor="start" x="188" y="-165.5" font-family="Helvetica,sans-Serif" font-size="10.00">DwarfElephantRBT5F1O1M1Transient</text>
<text text-anchor="middle" x="274" y="-154.5" font-family="Helvetica,sans-Serif" font-size="10.00">Expansion</text>
</a>
</g>
</g>
<!-- Node1&#45;&gt;Node12 -->
<g id="edge11" class="edge"><title>Node1&#45;&gt;Node12</title>
<path fill="none" stroke="midnightblue" d="M79.5592,-339.351C92.7459,-303.787 125.918,-227.527 180,-187.5 185.241,-183.621 191.044,-180.344 197.115,-177.575"/>
<polygon fill="midnightblue" stroke="midnightblue" points="76.1816,-338.402 76.1074,-348.996 82.7722,-340.76 76.1816,-338.402"/>
</g>
<!-- Node13 -->
<g id="node13" class="node"><title>Node13</title>
<g id="a_node13"><a xlink:href="struct_dwarf_elephant_r_b_t5_f4_o1_m2_transient_expansion.html" target="_top" xlink:title="The structures are defined for an parabolic PDE with the following restrictions: 1. The number of thetas is equal to five (T5). 2. The problem contains four load vectors (F4) and one output (O1). ">
<polygon fill="white" stroke="black" points="180,-98.5 180,-128.5 368,-128.5 368,-98.5 180,-98.5"/>
<text text-anchor="start" x="188" y="-116.5" font-family="Helvetica,sans-Serif" font-size="10.00">DwarfElephantRBT5F4O1M2Transient</text>
<text text-anchor="middle" x="274" y="-105.5" font-family="Helvetica,sans-Serif" font-size="10.00">Expansion</text>
</a>
</g>
</g>
<!-- Node1&#45;&gt;Node13 -->
<g id="edge12" class="edge"><title>Node1&#45;&gt;Node13</title>
<path fill="none" stroke="midnightblue" d="M76.8313,-338.772C86.2675,-295.613 114.769,-192.378 180,-138.5 184.641,-134.667 189.815,-131.418 195.282,-128.664"/>
<polygon fill="midnightblue" stroke="midnightblue" points="73.3501,-338.322 74.7457,-348.825 80.2041,-339.744 73.3501,-338.322"/>
</g>
<!-- Node14 -->
<g id="node14" class="node"><title>Node14</title>
<g id="a_node14"><a xlink:href="class_dwarf_elephant_r_b_transient_theta_expansion.html" target="_top" xlink:title="DwarfElephantRBTransientThetaExpansion. ">
<polygon fill="white" stroke="black" points="205,-49.5 205,-79.5 343,-79.5 343,-49.5 205,-49.5"/>
<text text-anchor="start" x="213" y="-67.5" font-family="Helvetica,sans-Serif" font-size="10.00">DwarfElephantRBTransient</text>
<text text-anchor="middle" x="274" y="-56.5" font-family="Helvetica,sans-Serif" font-size="10.00">ThetaExpansion</text>
</a>
</g>
</g>
<!-- Node1&#45;&gt;Node14 -->
<g id="edge13" class="edge"><title>Node1&#45;&gt;Node14</title>
<path fill="none" stroke="midnightblue" d="M74.8827,-338.904C80.7178,-289.331 103.033,-158.021 180,-89.5 187.118,-83.1632 195.677,-78.4089 204.682,-74.8465"/>
<polygon fill="midnightblue" stroke="midnightblue" points="71.3937,-338.614 73.8011,-348.932 78.3533,-339.365 71.3937,-338.614"/>
</g>
<!-- Node15 -->
<g id="node15" class="node"><title>Node15</title>
<g id="a_node15"><a xlink:href="struct_dwarf_elephant_r_b_t3_f3_o3_m2_i_c1_transient_expansion.html" target="_top" xlink:title="The structures are defined for an parabolic PDE with the following restrictions: 1. The number of thetas is equal to three (T3). 2. The problem contains three load vectors (F3) and one output (O1). ">
<polygon fill="white" stroke="black" points="404,-98.5 404,-128.5 566,-128.5 566,-98.5 404,-98.5"/>
<text text-anchor="start" x="412" y="-116.5" font-family="Helvetica,sans-Serif" font-size="10.00">DwarfElephantRBT3F3O3M2IC1</text>
<text text-anchor="middle" x="485" y="-105.5" font-family="Helvetica,sans-Serif" font-size="10.00">TransientExpansion</text>
</a>
</g>
</g>
<!-- Node14&#45;&gt;Node15 -->
<g id="edge14" class="edge"><title>Node14&#45;&gt;Node15</title>
<path fill="none" stroke="midnightblue" d="M348.922,-81.8309C372.126,-87.2712 397.536,-93.2285 419.994,-98.4938"/>
<polygon fill="midnightblue" stroke="midnightblue" points="349.662,-78.4097 339.127,-79.5346 348.064,-85.2249 349.662,-78.4097"/>
</g>
<!-- Node16 -->
<g id="node16" class="node"><title>Node16</title>
<g id="a_node16"><a xlink:href="struct_dwarf_elephant_r_b_t4_f1_o1_m1_i_c1_transient_expansion.html" target="_top" xlink:title="The structures are defined for an parabolic PDE with the following restrictions: 1. The number of thetas is equal to three (T3). 2. The problem contains one load vector (F1) and one output (O1). ">
<polygon fill="white" stroke="black" points="404,-49.5 404,-79.5 566,-79.5 566,-49.5 404,-49.5"/>
<text text-anchor="start" x="412" y="-67.5" font-family="Helvetica,sans-Serif" font-size="10.00">DwarfElephantRBT4F1O1M1IC1</text>
<text text-anchor="middle" x="485" y="-56.5" font-family="Helvetica,sans-Serif" font-size="10.00">TransientExpansion</text>
</a>
</g>
</g>
<!-- Node14&#45;&gt;Node16 -->
<g id="edge15" class="edge"><title>Node14&#45;&gt;Node16</title>
<path fill="none" stroke="midnightblue" d="M353.31,-64.5C369.857,-64.5 387.339,-64.5 403.949,-64.5"/>
<polygon fill="midnightblue" stroke="midnightblue" points="353.145,-61.0001 343.145,-64.5 353.145,-68.0001 353.145,-61.0001"/>
</g>
<!-- Node17 -->
<g id="node17" class="node"><title>Node17</title>
<g id="a_node17"><a xlink:href="struct_dwarf_elephant_r_b_t6_f1_o1_m1_i_c3_transient_expansion.html" target="_top" xlink:title="The structures are defined for an parabolic PDE with the following restrictions: 1. The number of thetas is equal to three (T3). 2. The problem contains one load vector (F1) and one output (O1). ">
<polygon fill="white" stroke="black" points="404,-0.5 404,-30.5 566,-30.5 566,-0.5 404,-0.5"/>
<text text-anchor="start" x="412" y="-18.5" font-family="Helvetica,sans-Serif" font-size="10.00">DwarfElephantRBT6F1O1M1IC3</text>
<text text-anchor="middle" x="485" y="-7.5" font-family="Helvetica,sans-Serif" font-size="10.00">TransientExpansion</text>
</a>
</g>
</g>
<!-- Node14&#45;&gt;Node17 -->
<g id="edge16" class="edge"><title>Node14&#45;&gt;Node17</title>
<path fill="none" stroke="midnightblue" d="M348.922,-47.1691C372.126,-41.7288 397.536,-35.7715 419.994,-30.5062"/>
<polygon fill="midnightblue" stroke="midnightblue" points="348.064,-43.7751 339.127,-49.4654 349.662,-50.5903 348.064,-43.7751"/>
</g>
</g>
</svg>
