<?xml version="1.0" encoding="UTF-8" standalone="no"?>
<!DOCTYPE svg PUBLIC "-//W3C//DTD SVG 1.1//EN"
 "http://www.w3.org/Graphics/SVG/1.1/DTD/svg11.dtd">
<!-- Generated by graphviz version 2.38.0 (20140413.2041)
 -->
<!-- Title: Graphical Class Hierarchy Pages: 1 -->
<svg width="276pt" height="1420pt"
 viewBox="0.00 0.00 276.00 1420.00" xmlns="http://www.w3.org/2000/svg" xmlns:xlink="http://www.w3.org/1999/xlink">
<g id="graph0" class="graph" transform="scale(1 1) rotate(0) translate(4 1416)">
<title>Graphical Class Hierarchy</title>
<polygon fill="white" stroke="none" points="-4,4 -4,-1416 272,-1416 272,4 -4,4"/>
<!-- Node1 -->
<g id="node1" class="node"><title>Node1</title>
<polygon fill="white" stroke="#bfbfbf" points="0,-684.5 0,-703.5 56,-703.5 56,-684.5 0,-684.5"/>
<text text-anchor="middle" x="28" y="-691.5" font-family="Helvetica,sans-Serif" font-size="10.00">RBTheta</text>
</g>
<!-- Node2 -->
<g id="node2" class="node"><title>Node2</title>
<g id="a_node2"><a xlink:href="struct_dwarf_elephant_theta_a00_constant.html" target="_top" xlink:title="DwarfElephantThetaA00Constant">
<polygon fill="white" stroke="black" points="97.5,-1392.5 97.5,-1411.5 262.5,-1411.5 262.5,-1392.5 97.5,-1392.5"/>
<text text-anchor="middle" x="180" y="-1399.5" font-family="Helvetica,sans-Serif" font-size="10.00">DwarfElephantThetaA00Constant</text>
</a>
</g>
</g>
<!-- Node1&#45;&gt;Node2 -->
<g id="edge1" class="edge"><title>Node1&#45;&gt;Node2</title>
<path fill="none" stroke="midnightblue" d="M29.4384,-713.784C31.9971,-821.205 46.4944,-1331.48 92,-1383 95.2751,-1386.71 99.0908,-1389.79 103.261,-1392.33"/>
<polygon fill="midnightblue" stroke="midnightblue" points="32.9353,-713.604 29.2054,-703.687 25.9372,-713.766 32.9353,-713.604"/>
</g>
<!-- Node3 -->
<g id="node3" class="node"><title>Node3</title>
<g id="a_node3"><a xlink:href="struct_dwarf_elephant_theta_a0_equal_mu0.html" target="_top" xlink:title="DwarfElephantThetaA0EqualMu0">
<polygon fill="white" stroke="black" points="97.5,-1354.5 97.5,-1373.5 262.5,-1373.5 262.5,-1354.5 97.5,-1354.5"/>
<text text-anchor="middle" x="180" y="-1361.5" font-family="Helvetica,sans-Serif" font-size="10.00">DwarfElephantThetaA0EqualMu0</text>
</a>
</g>
</g>
<!-- Node1&#45;&gt;Node3 -->
<g id="edge2" class="edge"><title>Node1&#45;&gt;Node3</title>
<path fill="none" stroke="midnightblue" d="M29.5557,-713.985C32.6334,-818.222 49.034,-1296.61 92,-1345 95.2849,-1348.7 99.1079,-1351.77 103.283,-1354.31"/>
<polygon fill="midnightblue" stroke="midnightblue" points="33.0512,-713.778 29.265,-703.882 26.0541,-713.979 33.0512,-713.778"/>
</g>
<!-- Node4 -->
<g id="node4" class="node"><title>Node4</title>
<g id="a_node4"><a xlink:href="struct_dwarf_elephant_theta_a0_equal_scalar_divided_by_mu0.html" target="_top" xlink:title="DwarfElephantThetaA0Equal\lScalarDividedByMu0">
<polygon fill="white" stroke="black" points="107.5,-1305 107.5,-1335 252.5,-1335 252.5,-1305 107.5,-1305"/>
<text text-anchor="start" x="115.5" y="-1323" font-family="Helvetica,sans-Serif" font-size="10.00">DwarfElephantThetaA0Equal</text>
<text text-anchor="middle" x="180" y="-1312" font-family="Helvetica,sans-Serif" font-size="10.00">ScalarDividedByMu0</text>
</a>
</g>
</g>
<!-- Node1&#45;&gt;Node4 -->
<g id="edge3" class="edge"><title>Node1&#45;&gt;Node4</title>
<path fill="none" stroke="midnightblue" d="M29.769,-713.618C33.7967,-812.07 53.7472,-1249.37 92,-1295 96.2406,-1300.06 101.431,-1304.13 107.147,-1307.4"/>
<polygon fill="midnightblue" stroke="midnightblue" points="33.2637,-713.414 29.3653,-703.563 26.2694,-713.695 33.2637,-713.414"/>
</g>
<!-- Node5 -->
<g id="node5" class="node"><title>Node5</title>
<g id="a_node5"><a xlink:href="struct_dwarf_elephant_theta_a0_norm_mu0.html" target="_top" xlink:title="DwarfElephantThetaA0NormMu0">
<polygon fill="white" stroke="black" points="98,-1266.5 98,-1285.5 262,-1285.5 262,-1266.5 98,-1266.5"/>
<text text-anchor="middle" x="180" y="-1273.5" font-family="Helvetica,sans-Serif" font-size="10.00">DwarfElephantThetaA0NormMu0</text>
</a>
</g>
</g>
<!-- Node1&#45;&gt;Node5 -->
<g id="edge4" class="edge"><title>Node1&#45;&gt;Node5</title>
<path fill="none" stroke="midnightblue" d="M29.8702,-713.909C34.2129,-809.195 54.8228,-1215.76 92,-1257 95.416,-1260.79 99.3969,-1263.92 103.74,-1266.49"/>
<polygon fill="midnightblue" stroke="midnightblue" points="33.3649,-713.711 29.4212,-703.878 26.3719,-714.024 33.3649,-713.711"/>
</g>
<!-- Node6 -->
<g id="node6" class="node"><title>Node6</title>
<g id="a_node6"><a xlink:href="struct_dwarf_elephant_theta_a0_norm_mu1.html" target="_top" xlink:title="DwarfElephantThetaA0NormMu1">
<polygon fill="white" stroke="black" points="98,-1228.5 98,-1247.5 262,-1247.5 262,-1228.5 98,-1228.5"/>
<text text-anchor="middle" x="180" y="-1235.5" font-family="Helvetica,sans-Serif" font-size="10.00">DwarfElephantThetaA0NormMu1</text>
</a>
</g>
</g>
<!-- Node1&#45;&gt;Node6 -->
<g id="edge5" class="edge"><title>Node1&#45;&gt;Node6</title>
<path fill="none" stroke="midnightblue" d="M30.0278,-713.693C34.947,-804.59 57.2912,-1180.8 92,-1219 95.4311,-1222.78 99.4233,-1225.89 103.775,-1228.46"/>
<polygon fill="midnightblue" stroke="midnightblue" points="33.5196,-713.444 29.4926,-703.644 26.5295,-713.816 33.5196,-713.444"/>
</g>
<!-- Node7 -->
<g id="node7" class="node"><title>Node7</title>
<g id="a_node7"><a xlink:href="struct_dwarf_elephant_theta_a0_norm_mu3.html" target="_top" xlink:title="DwarfElephantThetaA0NormMu3">
<polygon fill="white" stroke="black" points="98,-1190.5 98,-1209.5 262,-1209.5 262,-1190.5 98,-1190.5"/>
<text text-anchor="middle" x="180" y="-1197.5" font-family="Helvetica,sans-Serif" font-size="10.00">DwarfElephantThetaA0NormMu3</text>
</a>
</g>
</g>
<!-- Node1&#45;&gt;Node7 -->
<g id="edge6" class="edge"><title>Node1&#45;&gt;Node7</title>
<path fill="none" stroke="midnightblue" d="M28.6546,-713.737C27.6327,-796.086 28.0208,-1111.24 92,-1181 95.4485,-1184.76 99.4535,-1187.87 103.814,-1190.42"/>
<polygon fill="midnightblue" stroke="midnightblue" points="32.1545,-713.762 28.8017,-703.712 25.1553,-713.659 32.1545,-713.762"/>
</g>
<!-- Node8 -->
<g id="node8" class="node"><title>Node8</title>
<g id="a_node8"><a xlink:href="struct_dwarf_elephant_theta_a10_equal_mu10.html" target="_top" xlink:title="DwarfElephantThetaA10EqualMu10">
<polygon fill="white" stroke="black" points="92,-1152.5 92,-1171.5 268,-1171.5 268,-1152.5 92,-1152.5"/>
<text text-anchor="middle" x="180" y="-1159.5" font-family="Helvetica,sans-Serif" font-size="10.00">DwarfElephantThetaA10EqualMu10</text>
</a>
</g>
</g>
<!-- Node1&#45;&gt;Node8 -->
<g id="edge7" class="edge"><title>Node1&#45;&gt;Node8</title>
<path fill="none" stroke="midnightblue" d="M28.8947,-714.162C28.9088,-793.033 33.0795,-1079.45 92,-1143 95.4686,-1146.74 99.4887,-1149.83 103.86,-1152.38"/>
<polygon fill="midnightblue" stroke="midnightblue" points="32.3956,-713.722 28.9185,-703.714 25.3956,-713.706 32.3956,-713.722"/>
</g>
<!-- Node9 -->
<g id="node9" class="node"><title>Node9</title>
<g id="a_node9"><a xlink:href="struct_dwarf_elephant_theta_a11_equal_mu11.html" target="_top" xlink:title="DwarfElephantThetaA11EqualMu11">
<polygon fill="white" stroke="black" points="92,-1114.5 92,-1133.5 268,-1133.5 268,-1114.5 92,-1114.5"/>
<text text-anchor="middle" x="180" y="-1121.5" font-family="Helvetica,sans-Serif" font-size="10.00">DwarfElephantThetaA11EqualMu11</text>
</a>
</g>
</g>
<!-- Node1&#45;&gt;Node9 -->
<g id="edge8" class="edge"><title>Node1&#45;&gt;Node9</title>
<path fill="none" stroke="midnightblue" d="M29.1799,-713.872C30.2687,-788.049 37.9427,-1047.43 92,-1105 95.4923,-1108.72 99.5299,-1111.8 103.914,-1114.33"/>
<polygon fill="midnightblue" stroke="midnightblue" points="32.6766,-713.573 29.0556,-703.616 25.6771,-713.658 32.6766,-713.573"/>
</g>
<!-- Node10 -->
<g id="node10" class="node"><title>Node10</title>
<g id="a_node10"><a xlink:href="struct_dwarf_elephant_theta_a12_equal_mu12.html" target="_top" xlink:title="DwarfElephantThetaA12EqualMu12">
<polygon fill="white" stroke="black" points="92,-1076.5 92,-1095.5 268,-1095.5 268,-1076.5 92,-1076.5"/>
<text text-anchor="middle" x="180" y="-1083.5" font-family="Helvetica,sans-Serif" font-size="10.00">DwarfElephantThetaA12EqualMu12</text>
</a>
</g>
</g>
<!-- Node1&#45;&gt;Node10 -->
<g id="edge9" class="edge"><title>Node1&#45;&gt;Node10</title>
<path fill="none" stroke="midnightblue" d="M29.5198,-713.815C31.7594,-783.441 42.8471,-1015.45 92,-1067 95.6272,-1070.8 99.8255,-1073.93 104.379,-1076.5"/>
<polygon fill="midnightblue" stroke="midnightblue" points="33.0165,-713.648 29.223,-703.756 26.0195,-713.855 33.0165,-713.648"/>
</g>
<!-- Node11 -->
<g id="node11" class="node"><title>Node11</title>
<g id="a_node11"><a xlink:href="struct_dwarf_elephant_theta_a13_equal_mu13.html" target="_top" xlink:title="DwarfElephantThetaA13EqualMu13">
<polygon fill="white" stroke="black" points="92,-1038.5 92,-1057.5 268,-1057.5 268,-1038.5 92,-1038.5"/>
<text text-anchor="middle" x="180" y="-1045.5" font-family="Helvetica,sans-Serif" font-size="10.00">DwarfElephantThetaA13EqualMu13</text>
</a>
</g>
</g>
<!-- Node1&#45;&gt;Node11 -->
<g id="edge10" class="edge"><title>Node1&#45;&gt;Node11</title>
<path fill="none" stroke="midnightblue" d="M29.9381,-713.863C33.4174,-778.831 47.7549,-983.447 92,-1029 95.6624,-1032.77 99.8865,-1035.87 104.459,-1038.42"/>
<polygon fill="midnightblue" stroke="midnightblue" points="33.4266,-713.546 29.4247,-703.736 26.4356,-713.9 33.4266,-713.546"/>
</g>
<!-- Node12 -->
<g id="node12" class="node"><title>Node12</title>
<g id="a_node12"><a xlink:href="struct_dwarf_elephant_theta_a14_equal_mu14.html" target="_top" xlink:title="DwarfElephantThetaA14EqualMu14">
<polygon fill="white" stroke="black" points="92,-1000.5 92,-1019.5 268,-1019.5 268,-1000.5 92,-1000.5"/>
<text text-anchor="middle" x="180" y="-1007.5" font-family="Helvetica,sans-Serif" font-size="10.00">DwarfElephantThetaA14EqualMu14</text>
</a>
</g>
</g>
<!-- Node1&#45;&gt;Node12 -->
<g id="edge11" class="edge"><title>Node1&#45;&gt;Node12</title>
<path fill="none" stroke="midnightblue" d="M30.4313,-713.526C35.2034,-773.168 52.552,-951.315 92,-991 95.7057,-994.728 99.9617,-997.801 104.556,-1000.33"/>
<polygon fill="midnightblue" stroke="midnightblue" points="33.9199,-713.242 29.6628,-703.54 26.9405,-713.779 33.9199,-713.242"/>
</g>
<!-- Node13 -->
<g id="node13" class="node"><title>Node13</title>
<g id="a_node13"><a xlink:href="struct_dwarf_elephant_theta_a15_equal_mu15.html" target="_top" xlink:title="DwarfElephantThetaA15EqualMu15">
<polygon fill="white" stroke="black" points="92,-962.5 92,-981.5 268,-981.5 268,-962.5 92,-962.5"/>
<text text-anchor="middle" x="180" y="-969.5" font-family="Helvetica,sans-Serif" font-size="10.00">DwarfElephantThetaA15EqualMu15</text>
</a>
</g>
</g>
<!-- Node1&#45;&gt;Node13 -->
<g id="edge12" class="edge"><title>Node1&#45;&gt;Node13</title>
<path fill="none" stroke="midnightblue" d="M31.1231,-713.835C37.3719,-768.459 57.4607,-919.266 92,-953 95.8711,-956.781 100.31,-959.883 105.089,-962.421"/>
<polygon fill="midnightblue" stroke="midnightblue" points="34.5818,-713.269 29.9995,-703.716 27.6245,-714.041 34.5818,-713.269"/>
</g>
<!-- Node14 -->
<g id="node14" class="node"><title>Node14</title>
<g id="a_node14"><a xlink:href="struct_dwarf_elephant_theta_a1_equal_mu1.html" target="_top" xlink:title="DwarfElephantThetaA1EqualMu1">
<polygon fill="white" stroke="black" points="97.5,-924.5 97.5,-943.5 262.5,-943.5 262.5,-924.5 97.5,-924.5"/>
<text text-anchor="middle" x="180" y="-931.5" font-family="Helvetica,sans-Serif" font-size="10.00">DwarfElephantThetaA1EqualMu1</text>
</a>
</g>
</g>
<!-- Node1&#45;&gt;Node14 -->
<g id="edge13" class="edge"><title>Node1&#45;&gt;Node14</title>
<path fill="none" stroke="midnightblue" d="M28.3725,-713.776C28.1484,-757.047 34.0701,-860.592 92,-915 96.0569,-918.81 100.693,-921.925 105.666,-924.463"/>
<polygon fill="midnightblue" stroke="midnightblue" points="31.8733,-713.757 28.5471,-703.698 24.8743,-713.636 31.8733,-713.757"/>
</g>
<!-- Node15 -->
<g id="node15" class="node"><title>Node15</title>
<g id="a_node15"><a xlink:href="struct_dwarf_elephant_theta_a1_norm_mu0.html" target="_top" xlink:title="DwarfElephantThetaA1NormMu0">
<polygon fill="white" stroke="black" points="98,-886.5 98,-905.5 262,-905.5 262,-886.5 98,-886.5"/>
<text text-anchor="middle" x="180" y="-893.5" font-family="Helvetica,sans-Serif" font-size="10.00">DwarfElephantThetaA1NormMu0</text>
</a>
</g>
</g>
<!-- Node1&#45;&gt;Node15 -->
<g id="edge14" class="edge"><title>Node1&#45;&gt;Node15</title>
<path fill="none" stroke="midnightblue" d="M29.7647,-713.943C32.3432,-751.744 43.5439,-833.886 92,-877 96.2735,-880.802 101.129,-883.903 106.309,-886.424"/>
<polygon fill="midnightblue" stroke="midnightblue" points="33.2471,-713.523 29.2096,-703.728 26.2575,-713.903 33.2471,-713.523"/>
</g>
<!-- Node16 -->
<g id="node16" class="node"><title>Node16</title>
<g id="a_node16"><a xlink:href="struct_dwarf_elephant_theta_a1_norm_mu1.html" target="_top" xlink:title="DwarfElephantThetaA1NormMu1">
<polygon fill="white" stroke="black" points="98,-848.5 98,-867.5 262,-867.5 262,-848.5 98,-848.5"/>
<text text-anchor="middle" x="180" y="-855.5" font-family="Helvetica,sans-Serif" font-size="10.00">DwarfElephantThetaA1NormMu1</text>
</a>
</g>
</g>
<!-- Node1&#45;&gt;Node16 -->
<g id="edge15" class="edge"><title>Node1&#45;&gt;Node16</title>
<path fill="none" stroke="midnightblue" d="M31.7754,-713.706C37.2989,-745.226 52.7198,-806.715 92,-839 96.658,-842.829 101.916,-845.932 107.483,-848.441"/>
<polygon fill="midnightblue" stroke="midnightblue" points="35.1889,-712.885 30.1624,-703.558 28.2757,-713.984 35.1889,-712.885"/>
</g>
<!-- Node17 -->
<g id="node17" class="node"><title>Node17</title>
<g id="a_node17"><a xlink:href="struct_dwarf_elephant_theta_a1_norm_mu3.html" target="_top" xlink:title="DwarfElephantThetaA1NormMu3">
<polygon fill="white" stroke="black" points="98,-810.5 98,-829.5 262,-829.5 262,-810.5 98,-810.5"/>
<text text-anchor="middle" x="180" y="-817.5" font-family="Helvetica,sans-Serif" font-size="10.00">DwarfElephantThetaA1NormMu3</text>
</a>
</g>
</g>
<!-- Node1&#45;&gt;Node17 -->
<g id="edge16" class="edge"><title>Node1&#45;&gt;Node17</title>
<path fill="none" stroke="midnightblue" d="M34.9965,-713.404C43.571,-737.784 61.7355,-779.08 92,-801 97.2588,-804.809 103.134,-807.879 109.281,-810.351"/>
<polygon fill="midnightblue" stroke="midnightblue" points="38.2838,-712.197 31.8117,-703.809 31.6402,-714.403 38.2838,-712.197"/>
</g>
<!-- Node18 -->
<g id="node18" class="node"><title>Node18</title>
<g id="a_node18"><a xlink:href="struct_dwarf_elephant_theta_a2_equal_mu2.html" target="_top" xlink:title="DwarfElephantThetaA2EqualMu2">
<polygon fill="white" stroke="black" points="97.5,-772.5 97.5,-791.5 262.5,-791.5 262.5,-772.5 97.5,-772.5"/>
<text text-anchor="middle" x="180" y="-779.5" font-family="Helvetica,sans-Serif" font-size="10.00">DwarfElephantThetaA2EqualMu2</text>
</a>
</g>
</g>
<!-- Node1&#45;&gt;Node18 -->
<g id="edge17" class="edge"><title>Node1&#45;&gt;Node18</title>
<path fill="none" stroke="midnightblue" d="M40.768,-712.249C52.0002,-728.144 70.3839,-750.54 92,-763 98.6971,-766.86 106.097,-769.938 113.669,-772.39"/>
<polygon fill="midnightblue" stroke="midnightblue" points="43.5225,-710.075 35.0107,-703.767 37.7306,-714.006 43.5225,-710.075"/>
</g>
<!-- Node19 -->
<g id="node19" class="node"><title>Node19</title>
<g id="a_node19"><a xlink:href="struct_dwarf_elephant_theta_a2_equal_mu2_times_mu0.html" target="_top" xlink:title="DwarfElephantThetaA2Equal\lMu2TimesMu0">
<polygon fill="white" stroke="black" points="107.5,-723 107.5,-753 252.5,-753 252.5,-723 107.5,-723"/>
<text text-anchor="start" x="115.5" y="-741" font-family="Helvetica,sans-Serif" font-size="10.00">DwarfElephantThetaA2Equal</text>
<text text-anchor="middle" x="180" y="-730" font-family="Helvetica,sans-Serif" font-size="10.00">Mu2TimesMu0</text>
</a>
</g>
</g>
<!-- Node1&#45;&gt;Node19 -->
<g id="edge18" class="edge"><title>Node1&#45;&gt;Node19</title>
<path fill="none" stroke="midnightblue" d="M65.9845,-705.242C74.522,-707.813 83.5719,-710.518 92,-713 103.005,-716.241 114.808,-719.666 126.059,-722.907"/>
<polygon fill="midnightblue" stroke="midnightblue" points="66.8503,-701.848 56.2655,-702.308 64.827,-708.549 66.8503,-701.848"/>
</g>
<!-- Node20 -->
<g id="node20" class="node"><title>Node20</title>
<g id="a_node20"><a xlink:href="struct_dwarf_elephant_theta_a2_norm_mu0.html" target="_top" xlink:title="DwarfElephantThetaA2NormMu0">
<polygon fill="white" stroke="black" points="98,-684.5 98,-703.5 262,-703.5 262,-684.5 98,-684.5"/>
<text text-anchor="middle" x="180" y="-691.5" font-family="Helvetica,sans-Serif" font-size="10.00">DwarfElephantThetaA2NormMu0</text>
</a>
</g>
</g>
<!-- Node1&#45;&gt;Node20 -->
<g id="edge19" class="edge"><title>Node1&#45;&gt;Node20</title>
<path fill="none" stroke="midnightblue" d="M66.1885,-694C75.8816,-694 86.7157,-694 97.7314,-694"/>
<polygon fill="midnightblue" stroke="midnightblue" points="66.1639,-690.5 56.1639,-694 66.1638,-697.5 66.1639,-690.5"/>
</g>
<!-- Node21 -->
<g id="node21" class="node"><title>Node21</title>
<g id="a_node21"><a xlink:href="struct_dwarf_elephant_theta_a2_norm_mu1.html" target="_top" xlink:title="DwarfElephantThetaA2NormMu1">
<polygon fill="white" stroke="black" points="98,-646.5 98,-665.5 262,-665.5 262,-646.5 98,-646.5"/>
<text text-anchor="middle" x="180" y="-653.5" font-family="Helvetica,sans-Serif" font-size="10.00">DwarfElephantThetaA2NormMu1</text>
</a>
</g>
</g>
<!-- Node1&#45;&gt;Node21 -->
<g id="edge20" class="edge"><title>Node1&#45;&gt;Node21</title>
<path fill="none" stroke="midnightblue" d="M65.8729,-682.355C74.4157,-679.803 83.496,-677.207 92,-675 104.869,-671.66 118.91,-668.419 131.883,-665.589"/>
<polygon fill="midnightblue" stroke="midnightblue" points="64.7101,-679.05 56.1581,-685.304 66.7436,-685.748 64.7101,-679.05"/>
</g>
<!-- Node22 -->
<g id="node22" class="node"><title>Node22</title>
<g id="a_node22"><a xlink:href="struct_dwarf_elephant_theta_a2_norm_mu3.html" target="_top" xlink:title="DwarfElephantThetaA2NormMu3">
<polygon fill="white" stroke="black" points="98,-608.5 98,-627.5 262,-627.5 262,-608.5 98,-608.5"/>
<text text-anchor="middle" x="180" y="-615.5" font-family="Helvetica,sans-Serif" font-size="10.00">DwarfElephantThetaA2NormMu3</text>
</a>
</g>
</g>
<!-- Node1&#45;&gt;Node22 -->
<g id="edge21" class="edge"><title>Node1&#45;&gt;Node22</title>
<path fill="none" stroke="midnightblue" d="M43.688,-676.497C55.4495,-663.626 73.0647,-646.743 92,-637 99.5609,-633.109 107.889,-630.014 116.305,-627.551"/>
<polygon fill="midnightblue" stroke="midnightblue" points="40.8333,-674.442 36.8492,-684.26 46.0858,-679.07 40.8333,-674.442"/>
</g>
<!-- Node23 -->
<g id="node23" class="node"><title>Node23</title>
<g id="a_node23"><a xlink:href="struct_dwarf_elephant_theta_a3_equal_mu3.html" target="_top" xlink:title="DwarfElephantThetaA3EqualMu3">
<polygon fill="white" stroke="black" points="97.5,-570.5 97.5,-589.5 262.5,-589.5 262.5,-570.5 97.5,-570.5"/>
<text text-anchor="middle" x="180" y="-577.5" font-family="Helvetica,sans-Serif" font-size="10.00">DwarfElephantThetaA3EqualMu3</text>
</a>
</g>
</g>
<!-- Node1&#45;&gt;Node23 -->
<g id="edge22" class="edge"><title>Node1&#45;&gt;Node23</title>
<path fill="none" stroke="midnightblue" d="M36.4143,-674.867C45.9079,-653.004 64.4905,-617.825 92,-599 97.6139,-595.158 103.868,-592.076 110.377,-589.605"/>
<polygon fill="midnightblue" stroke="midnightblue" points="33.0599,-673.821 32.4846,-684.401 39.5316,-676.489 33.0599,-673.821"/>
</g>
<!-- Node24 -->
<g id="node24" class="node"><title>Node24</title>
<g id="a_node24"><a xlink:href="struct_dwarf_elephant_theta_a3_norm_mu0.html" target="_top" xlink:title="DwarfElephantThetaA3NormMu0">
<polygon fill="white" stroke="black" points="98,-532.5 98,-551.5 262,-551.5 262,-532.5 98,-532.5"/>
<text text-anchor="middle" x="180" y="-539.5" font-family="Helvetica,sans-Serif" font-size="10.00">DwarfElephantThetaA3NormMu0</text>
</a>
</g>
</g>
<!-- Node1&#45;&gt;Node24 -->
<g id="edge23" class="edge"><title>Node1&#45;&gt;Node24</title>
<path fill="none" stroke="midnightblue" d="M32.6488,-674.232C39.1553,-644.818 55.6461,-589.903 92,-561 96.8406,-557.151 102.293,-554.042 108.047,-551.534"/>
<polygon fill="midnightblue" stroke="midnightblue" points="29.1953,-673.65 30.6234,-684.149 36.0537,-675.051 29.1953,-673.65"/>
</g>
<!-- Node25 -->
<g id="node25" class="node"><title>Node25</title>
<g id="a_node25"><a xlink:href="struct_dwarf_elephant_theta_a3_norm_mu1.html" target="_top" xlink:title="DwarfElephantThetaA3NormMu1">
<polygon fill="white" stroke="black" points="98,-494.5 98,-513.5 262,-513.5 262,-494.5 98,-494.5"/>
<text text-anchor="middle" x="180" y="-501.5" font-family="Helvetica,sans-Serif" font-size="10.00">DwarfElephantThetaA3NormMu1</text>
</a>
</g>
</g>
<!-- Node1&#45;&gt;Node25 -->
<g id="edge24" class="edge"><title>Node1&#45;&gt;Node25</title>
<path fill="none" stroke="midnightblue" d="M30.2917,-674.368C33.7486,-638.575 46.3556,-562.744 92,-523 96.314,-519.244 101.198,-516.176 106.398,-513.677"/>
<polygon fill="midnightblue" stroke="midnightblue" points="26.7911,-674.232 29.4606,-684.485 33.7676,-674.806 26.7911,-674.232"/>
</g>
<!-- Node26 -->
<g id="node26" class="node"><title>Node26</title>
<g id="a_node26"><a xlink:href="struct_dwarf_elephant_theta_a3_norm_mu3.html" target="_top" xlink:title="DwarfElephantThetaA3NormMu3">
<polygon fill="white" stroke="black" points="98,-456.5 98,-475.5 262,-475.5 262,-456.5 98,-456.5"/>
<text text-anchor="middle" x="180" y="-463.5" font-family="Helvetica,sans-Serif" font-size="10.00">DwarfElephantThetaA3NormMu3</text>
</a>
</g>
</g>
<!-- Node1&#45;&gt;Node26 -->
<g id="edge25" class="edge"><title>Node1&#45;&gt;Node26</title>
<path fill="none" stroke="midnightblue" d="M28.7594,-674.17C29.3977,-632.563 37.0752,-535.812 92,-485 96.0855,-481.22 100.742,-478.128 105.729,-475.605"/>
<polygon fill="midnightblue" stroke="midnightblue" points="25.259,-674.349 28.7326,-684.358 32.259,-674.368 25.259,-674.349"/>
</g>
<!-- Node27 -->
<g id="node27" class="node"><title>Node27</title>
<g id="a_node27"><a xlink:href="struct_dwarf_elephant_theta_a4_equal_mu4.html" target="_top" xlink:title="DwarfElephantThetaA4EqualMu4">
<polygon fill="white" stroke="black" points="97.5,-418.5 97.5,-437.5 262.5,-437.5 262.5,-418.5 97.5,-418.5"/>
<text text-anchor="middle" x="180" y="-425.5" font-family="Helvetica,sans-Serif" font-size="10.00">DwarfElephantThetaA4EqualMu4</text>
</a>
</g>
</g>
<!-- Node1&#45;&gt;Node27 -->
<g id="edge26" class="edge"><title>Node1&#45;&gt;Node27</title>
<path fill="none" stroke="midnightblue" d="M31.346,-674.393C38.045,-621.713 58.9342,-478.937 92,-447 95.892,-443.241 100.346,-440.154 105.136,-437.627"/>
<polygon fill="midnightblue" stroke="midnightblue" points="27.8556,-674.1 30.1014,-684.454 34.8027,-674.959 27.8556,-674.1"/>
</g>
<!-- Node28 -->
<g id="node28" class="node"><title>Node28</title>
<g id="a_node28"><a xlink:href="struct_dwarf_elephant_theta_a4_norm_mu0.html" target="_top" xlink:title="DwarfElephantThetaA4NormMu0">
<polygon fill="white" stroke="black" points="98,-380.5 98,-399.5 262,-399.5 262,-380.5 98,-380.5"/>
<text text-anchor="middle" x="180" y="-387.5" font-family="Helvetica,sans-Serif" font-size="10.00">DwarfElephantThetaA4NormMu0</text>
</a>
</g>
</g>
<!-- Node1&#45;&gt;Node28 -->
<g id="edge27" class="edge"><title>Node1&#45;&gt;Node28</title>
<path fill="none" stroke="midnightblue" d="M30.6516,-674.125C35.9058,-615.784 54.1608,-446.743 92,-409 95.7216,-405.288 99.9892,-402.227 104.592,-399.709"/>
<polygon fill="midnightblue" stroke="midnightblue" points="27.1511,-673.98 29.7721,-684.246 34.1248,-674.586 27.1511,-673.98"/>
</g>
<!-- Node29 -->
<g id="node29" class="node"><title>Node29</title>
<g id="a_node29"><a xlink:href="struct_dwarf_elephant_theta_a4_norm_mu1.html" target="_top" xlink:title="DwarfElephantThetaA4NormMu1">
<polygon fill="white" stroke="black" points="98,-342.5 98,-361.5 262,-361.5 262,-342.5 98,-342.5"/>
<text text-anchor="middle" x="180" y="-349.5" font-family="Helvetica,sans-Serif" font-size="10.00">DwarfElephantThetaA4NormMu1</text>
</a>
</g>
</g>
<!-- Node1&#45;&gt;Node29 -->
<g id="edge28" class="edge"><title>Node1&#45;&gt;Node29</title>
<path fill="none" stroke="midnightblue" d="M30.0959,-674.033C33.995,-610.5 49.3195,-414.647 92,-371 95.675,-367.242 99.9085,-364.147 104.487,-361.605"/>
<polygon fill="midnightblue" stroke="midnightblue" points="26.586,-674.102 29.4968,-684.289 33.5741,-674.51 26.586,-674.102"/>
</g>
<!-- Node30 -->
<g id="node30" class="node"><title>Node30</title>
<g id="a_node30"><a xlink:href="struct_dwarf_elephant_theta_a4_norm_mu3.html" target="_top" xlink:title="DwarfElephantThetaA4NormMu3">
<polygon fill="white" stroke="black" points="98,-304.5 98,-323.5 262,-323.5 262,-304.5 98,-304.5"/>
<text text-anchor="middle" x="180" y="-311.5" font-family="Helvetica,sans-Serif" font-size="10.00">DwarfElephantThetaA4NormMu3</text>
</a>
</g>
</g>
<!-- Node1&#45;&gt;Node30 -->
<g id="edge29" class="edge"><title>Node1&#45;&gt;Node30</title>
<path fill="none" stroke="midnightblue" d="M29.6509,-673.95C32.29,-605.509 44.4504,-382.602 92,-333 95.6376,-329.205 99.8435,-326.084 104.403,-323.523"/>
<polygon fill="midnightblue" stroke="midnightblue" points="26.1435,-674.095 29.2834,-684.214 33.1391,-674.346 26.1435,-674.095"/>
</g>
<!-- Node31 -->
<g id="node31" class="node"><title>Node31</title>
<g id="a_node31"><a xlink:href="struct_dwarf_elephant_theta_a5_equal_mu5.html" target="_top" xlink:title="DwarfElephantThetaA5EqualMu5">
<polygon fill="white" stroke="black" points="97.5,-266.5 97.5,-285.5 262.5,-285.5 262.5,-266.5 97.5,-266.5"/>
<text text-anchor="middle" x="180" y="-273.5" font-family="Helvetica,sans-Serif" font-size="10.00">DwarfElephantThetaA5EqualMu5</text>
</a>
</g>
</g>
<!-- Node1&#45;&gt;Node31 -->
<g id="edge30" class="edge"><title>Node1&#45;&gt;Node31</title>
<path fill="none" stroke="midnightblue" d="M29.2789,-674.232C30.7181,-601.582 39.4727,-350.689 92,-295 95.5007,-291.289 99.5445,-288.218 103.933,-285.686"/>
<polygon fill="midnightblue" stroke="midnightblue" points="25.7782,-674.246 29.1051,-684.304 32.7772,-674.366 25.7782,-674.246"/>
</g>
<!-- Node32 -->
<g id="node32" class="node"><title>Node32</title>
<g id="a_node32"><a xlink:href="struct_dwarf_elephant_theta_a5_norm_mu0.html" target="_top" xlink:title="DwarfElephantThetaA5NormMu0">
<polygon fill="white" stroke="black" points="98,-228.5 98,-247.5 262,-247.5 262,-228.5 98,-228.5"/>
<text text-anchor="middle" x="180" y="-235.5" font-family="Helvetica,sans-Serif" font-size="10.00">DwarfElephantThetaA5NormMu0</text>
</a>
</g>
</g>
<!-- Node1&#45;&gt;Node32 -->
<g id="edge31" class="edge"><title>Node1&#45;&gt;Node32</title>
<path fill="none" stroke="midnightblue" d="M28.9806,-673.872C29.3307,-596.389 34.6308,-318.646 92,-257 95.4757,-253.265 99.5009,-250.178 103.876,-247.632"/>
<polygon fill="midnightblue" stroke="midnightblue" points="25.4801,-674.158 28.9595,-684.166 32.4801,-674.173 25.4801,-674.158"/>
</g>
<!-- Node33 -->
<g id="node33" class="node"><title>Node33</title>
<g id="a_node33"><a xlink:href="struct_dwarf_elephant_theta_a5_norm_mu1.html" target="_top" xlink:title="DwarfElephantThetaA5NormMu1">
<polygon fill="white" stroke="black" points="98,-190.5 98,-209.5 262,-209.5 262,-190.5 98,-190.5"/>
<text text-anchor="middle" x="180" y="-197.5" font-family="Helvetica,sans-Serif" font-size="10.00">DwarfElephantThetaA5NormMu1</text>
</a>
</g>
</g>
<!-- Node1&#45;&gt;Node33 -->
<g id="edge32" class="edge"><title>Node1&#45;&gt;Node33</title>
<path fill="none" stroke="midnightblue" d="M28.7217,-673.724C28.028,-591.837 29.7238,-286.682 92,-219 95.4545,-215.246 99.464,-212.143 103.828,-209.588"/>
<polygon fill="midnightblue" stroke="midnightblue" points="25.2263,-674.169 28.8345,-684.131 32.2259,-674.093 25.2263,-674.169"/>
</g>
<!-- Node34 -->
<g id="node34" class="node"><title>Node34</title>
<g id="a_node34"><a xlink:href="struct_dwarf_elephant_theta_a5_norm_mu3.html" target="_top" xlink:title="DwarfElephantThetaA5NormMu3">
<polygon fill="white" stroke="black" points="98,-152.5 98,-171.5 262,-171.5 262,-152.5 98,-152.5"/>
<text text-anchor="middle" x="180" y="-159.5" font-family="Helvetica,sans-Serif" font-size="10.00">DwarfElephantThetaA5NormMu3</text>
</a>
</g>
</g>
<!-- Node1&#45;&gt;Node34 -->
<g id="edge33" class="edge"><title>Node1&#45;&gt;Node34</title>
<path fill="none" stroke="midnightblue" d="M30.1085,-673.909C35.2689,-583.618 58.1285,-218.171 92,-181 95.4363,-177.229 99.4324,-174.114 103.787,-171.55"/>
<polygon fill="midnightblue" stroke="midnightblue" points="26.5999,-673.964 29.5325,-684.145 33.5889,-674.357 26.5999,-673.964"/>
</g>
<!-- Node35 -->
<g id="node35" class="node"><title>Node35</title>
<g id="a_node35"><a xlink:href="struct_dwarf_elephant_theta_a6_equal_mu6.html" target="_top" xlink:title="DwarfElephantThetaA6EqualMu6">
<polygon fill="white" stroke="black" points="97.5,-114.5 97.5,-133.5 262.5,-133.5 262.5,-114.5 97.5,-114.5"/>
<text text-anchor="middle" x="180" y="-121.5" font-family="Helvetica,sans-Serif" font-size="10.00">DwarfElephantThetaA6EqualMu6</text>
</a>
</g>
</g>
<!-- Node1&#45;&gt;Node35 -->
<g id="edge34" class="edge"><title>Node1&#45;&gt;Node35</title>
<path fill="none" stroke="midnightblue" d="M29.9145,-674.229C34.429,-580.444 55.5937,-183.289 92,-143 95.4205,-139.215 99.4049,-136.089 103.751,-133.517"/>
<polygon fill="midnightblue" stroke="midnightblue" points="26.4131,-674.178 29.4367,-684.332 33.4053,-674.509 26.4131,-674.178"/>
</g>
<!-- Node36 -->
<g id="node36" class="node"><title>Node36</title>
<g id="a_node36"><a xlink:href="struct_dwarf_elephant_theta_a7_equal_mu7.html" target="_top" xlink:title="DwarfElephantThetaA7EqualMu7">
<polygon fill="white" stroke="black" points="97.5,-76.5 97.5,-95.5 262.5,-95.5 262.5,-76.5 97.5,-76.5"/>
<text text-anchor="middle" x="180" y="-83.5" font-family="Helvetica,sans-Serif" font-size="10.00">DwarfElephantThetaA7EqualMu7</text>
</a>
</g>
</g>
<!-- Node1&#45;&gt;Node36 -->
<g id="edge35" class="edge"><title>Node1&#45;&gt;Node36</title>
<path fill="none" stroke="midnightblue" d="M29.7663,-674.105C33.716,-576.182 53.11,-148.354 92,-105 95.3035,-101.317 99.1405,-98.2584 103.326,-95.7249"/>
<polygon fill="midnightblue" stroke="midnightblue" points="26.2674,-674.011 29.3695,-684.141 33.2619,-674.287 26.2674,-674.011"/>
</g>
<!-- Node37 -->
<g id="node37" class="node"><title>Node37</title>
<g id="a_node37"><a xlink:href="struct_dwarf_elephant_theta_a8_equal_mu8.html" target="_top" xlink:title="DwarfElephantThetaA8EqualMu8">
<polygon fill="white" stroke="black" points="97.5,-38.5 97.5,-57.5 262.5,-57.5 262.5,-38.5 97.5,-38.5"/>
<text text-anchor="middle" x="180" y="-45.5" font-family="Helvetica,sans-Serif" font-size="10.00">DwarfElephantThetaA8EqualMu8</text>
</a>
</g>
</g>
<!-- Node1&#45;&gt;Node37 -->
<g id="edge36" class="edge"><title>Node1&#45;&gt;Node37</title>
<path fill="none" stroke="midnightblue" d="M29.6193,-674.443C32.9941,-573.411 50.5596,-113.497 92,-67 95.2917,-63.3067 99.1198,-60.2399 103.299,-57.7006"/>
<polygon fill="midnightblue" stroke="midnightblue" points="26.1198,-674.372 29.2918,-684.481 33.1161,-674.6 26.1198,-674.372"/>
</g>
<!-- Node38 -->
<g id="node38" class="node"><title>Node38</title>
<g id="a_node38"><a xlink:href="struct_dwarf_elephant_theta_a9_equal_mu9.html" target="_top" xlink:title="DwarfElephantThetaA9EqualMu9">
<polygon fill="white" stroke="black" points="97.5,-0.5 97.5,-19.5 262.5,-19.5 262.5,-0.5 97.5,-0.5"/>
<text text-anchor="middle" x="180" y="-7.5" font-family="Helvetica,sans-Serif" font-size="10.00">DwarfElephantThetaA9EqualMu9</text>
</a>
</g>
</g>
<!-- Node1&#45;&gt;Node38 -->
<g id="edge37" class="edge"><title>Node1&#45;&gt;Node38</title>
<path fill="none" stroke="midnightblue" d="M29.5061,-674.256C32.3774,-569.182 48.0757,-78.5668 92,-29 95.2811,-25.2974 99.1014,-22.2235 103.275,-19.6791"/>
<polygon fill="midnightblue" stroke="midnightblue" points="26.0035,-674.315 29.2365,-684.404 33.001,-674.501 26.0035,-674.315"/>
</g>
</g>
</svg>
