<?xml version="1.0" encoding="UTF-8" standalone="no"?>
<!DOCTYPE svg PUBLIC "-//W3C//DTD SVG 1.1//EN"
 "http://www.w3.org/Graphics/SVG/1.1/DTD/svg11.dtd">
<!-- Generated by graphviz version 2.38.0 (20140413.2041)
 -->
<!-- Title: Graphical Class Hierarchy Pages: 1 -->
<svg width="322pt" height="1264pt"
 viewBox="0.00 0.00 322.00 1264.00" xmlns="http://www.w3.org/2000/svg" xmlns:xlink="http://www.w3.org/1999/xlink">
<g id="graph0" class="graph" transform="scale(1 1) rotate(0) translate(4 1260)">
<title>Graphical Class Hierarchy</title>
<polygon fill="white" stroke="none" points="-4,4 -4,-1260 318,-1260 318,4 -4,4"/>
<!-- Node1 -->
<g id="node1" class="node"><title>Node1</title>
<polygon fill="white" stroke="#bfbfbf" points="0,-618 0,-637 103,-637 103,-618 0,-618"/>
<text text-anchor="middle" x="51.5" y="-625" font-family="Helvetica,sans-Serif" font-size="10.00">RBThetaExpansion</text>
</g>
<!-- Node2 -->
<g id="node2" class="node"><title>Node2</title>
<g id="a_node2"><a xlink:href="struct_dwarf_elephant_r_b_t12_f13_o20_steady_state_expansion.html" target="_top" xlink:title="The structures are defined for an elliptic PDE with the following restrictions: 1. The number of thetas is equal to 12 (T12). 2. The problem contains 13 load vectors (F13) and 20 outputs (O20). ">
<polygon fill="white" stroke="black" points="152,-1225.5 152,-1255.5 301,-1255.5 301,-1225.5 152,-1225.5"/>
<text text-anchor="start" x="160" y="-1243.5" font-family="Helvetica,sans-Serif" font-size="10.00">DwarfElephantRBT12F13O20</text>
<text text-anchor="middle" x="226.5" y="-1232.5" font-family="Helvetica,sans-Serif" font-size="10.00">SteadyStateExpansion</text>
</a>
</g>
</g>
<!-- Node1&#45;&gt;Node2 -->
<g id="edge1" class="edge"><title>Node1&#45;&gt;Node2</title>
<path fill="none" stroke="midnightblue" d="M52.6125,-647.347C53.5412,-740.013 62.0331,-1129.27 139,-1216.5 142.712,-1220.71 147.091,-1224.21 151.875,-1227.11"/>
<polygon fill="midnightblue" stroke="midnightblue" points="56.1124,-647.314 52.5313,-637.343 49.1127,-647.371 56.1124,-647.314"/>
</g>
<!-- Node3 -->
<g id="node3" class="node"><title>Node3</title>
<g id="a_node3"><a xlink:href="struct_dwarf_elephant_r_b_t15_f16_o80_steady_state_expansion.html" target="_top" xlink:title="The structures are defined for an elliptic PDE with the following restrictions: 1. The number of thetas is equal to 15 (T15). 2. The problem contains 16 load vectors (F16) and 80 outputs (O80). ">
<polygon fill="white" stroke="black" points="152,-1176.5 152,-1206.5 301,-1206.5 301,-1176.5 152,-1176.5"/>
<text text-anchor="start" x="160" y="-1194.5" font-family="Helvetica,sans-Serif" font-size="10.00">DwarfElephantRBT15F16O80</text>
<text text-anchor="middle" x="226.5" y="-1183.5" font-family="Helvetica,sans-Serif" font-size="10.00">SteadyStateExpansion</text>
</a>
</g>
</g>
<!-- Node1&#45;&gt;Node3 -->
<g id="edge2" class="edge"><title>Node1&#45;&gt;Node3</title>
<path fill="none" stroke="midnightblue" d="M52.9102,-647.615C55.1176,-735.927 68.295,-1088.41 139,-1167.5 142.739,-1171.68 147.138,-1175.16 151.935,-1178.06"/>
<polygon fill="midnightblue" stroke="midnightblue" points="56.4036,-647.283 52.675,-637.366 49.4055,-647.443 56.4036,-647.283"/>
</g>
<!-- Node4 -->
<g id="node4" class="node"><title>Node4</title>
<g id="a_node4"><a xlink:href="struct_dwarf_elephant_r_b_t15_f8_o80_steady_state_expansion.html" target="_top" xlink:title="The structures are defined for an elliptic PDE with the following restrictions: 1. The number of thetas is equal to 15 (T15). 2. The problem contains eigth load vectors (F8) and 80 outputs (O80). ">
<polygon fill="white" stroke="black" points="139,-1127.5 139,-1157.5 314,-1157.5 314,-1127.5 139,-1127.5"/>
<text text-anchor="start" x="147" y="-1145.5" font-family="Helvetica,sans-Serif" font-size="10.00">DwarfElephantRBT15F8O80Steady</text>
<text text-anchor="middle" x="226.5" y="-1134.5" font-family="Helvetica,sans-Serif" font-size="10.00">StateExpansion</text>
</a>
</g>
</g>
<!-- Node1&#45;&gt;Node4 -->
<g id="edge3" class="edge"><title>Node1&#45;&gt;Node4</title>
<path fill="none" stroke="midnightblue" d="M53.2515,-647.356C56.7854,-730.209 74.3946,-1047.36 139,-1118.5 142.038,-1121.85 145.498,-1124.74 149.245,-1127.25"/>
<polygon fill="midnightblue" stroke="midnightblue" points="56.7449,-647.12 52.8429,-637.27 49.7507,-647.403 56.7449,-647.12"/>
</g>
<!-- Node5 -->
<g id="node5" class="node"><title>Node5</title>
<g id="a_node5"><a xlink:href="struct_dwarf_elephant_r_b_t16_f16_o80_steady_state_expansion.html" target="_top" xlink:title="The structures are defined for an elliptic PDE with the following restrictions: 1. The number of thetas is equal to 16 (T16). 2. The problem contains 16 load vectors (F16) and 80 outputs (O80). ">
<polygon fill="white" stroke="black" points="152,-1078.5 152,-1108.5 301,-1108.5 301,-1078.5 152,-1078.5"/>
<text text-anchor="start" x="160" y="-1096.5" font-family="Helvetica,sans-Serif" font-size="10.00">DwarfElephantRBT16F16O80</text>
<text text-anchor="middle" x="226.5" y="-1085.5" font-family="Helvetica,sans-Serif" font-size="10.00">SteadyStateExpansion</text>
</a>
</g>
</g>
<!-- Node1&#45;&gt;Node5 -->
<g id="edge4" class="edge"><title>Node1&#45;&gt;Node5</title>
<path fill="none" stroke="midnightblue" d="M53.6714,-647.311C58.6477,-724.816 80.5273,-1006.32 139,-1069.5 142.705,-1073.5 147.014,-1076.86 151.692,-1079.67"/>
<polygon fill="midnightblue" stroke="midnightblue" points="57.1471,-646.81 53.036,-637.045 50.1605,-647.242 57.1471,-646.81"/>
</g>
<!-- Node6 -->
<g id="node6" class="node"><title>Node6</title>
<g id="a_node6"><a xlink:href="struct_dwarf_elephant_r_b_t1_f1_o1_steady_state_expansion.html" target="_top" xlink:title="The structures are defined for an elliptic PDE with the following restrictions: 1. The number of thetas is equal to one (T1). 2. The problem contains one load vector (F1) and one output (O1). ">
<polygon fill="white" stroke="black" points="144.5,-1029.5 144.5,-1059.5 308.5,-1059.5 308.5,-1029.5 144.5,-1029.5"/>
<text text-anchor="start" x="152.5" y="-1047.5" font-family="Helvetica,sans-Serif" font-size="10.00">DwarfElephantRBT1F1O1Steady</text>
<text text-anchor="middle" x="226.5" y="-1036.5" font-family="Helvetica,sans-Serif" font-size="10.00">StateExpansion</text>
</a>
</g>
</g>
<!-- Node1&#45;&gt;Node6 -->
<g id="edge5" class="edge"><title>Node1&#45;&gt;Node6</title>
<path fill="none" stroke="midnightblue" d="M54.2016,-647.381C60.7562,-719.392 86.6582,-965.252 139,-1020.5 142.216,-1023.89 145.865,-1026.82 149.803,-1029.35"/>
<polygon fill="midnightblue" stroke="midnightblue" points="57.6539,-646.685 53.2856,-637.033 50.6812,-647.303 57.6539,-646.685"/>
</g>
<!-- Node7 -->
<g id="node7" class="node"><title>Node7</title>
<g id="a_node7"><a xlink:href="struct_dwarf_elephant_r_b_t2_f1_o1_steady_state_expansion.html" target="_top" xlink:title="The structures are defined for an elliptic PDE with the following restrictions: 1. The number of thetas is equal to two (T2). 2. The problem contains one load vector (F1) and one output (O1). ">
<polygon fill="white" stroke="black" points="144.5,-980.5 144.5,-1010.5 308.5,-1010.5 308.5,-980.5 144.5,-980.5"/>
<text text-anchor="start" x="152.5" y="-998.5" font-family="Helvetica,sans-Serif" font-size="10.00">DwarfElephantRBT2F1O1Steady</text>
<text text-anchor="middle" x="226.5" y="-987.5" font-family="Helvetica,sans-Serif" font-size="10.00">StateExpansion</text>
</a>
</g>
</g>
<!-- Node1&#45;&gt;Node7 -->
<g id="edge6" class="edge"><title>Node1&#45;&gt;Node7</title>
<path fill="none" stroke="midnightblue" d="M54.8775,-647.42C63.154,-713.521 92.7433,-924.105 139,-971.5 142.374,-974.957 146.2,-977.93 150.318,-980.483"/>
<polygon fill="midnightblue" stroke="midnightblue" points="58.3086,-646.642 53.6182,-637.142 51.3605,-647.494 58.3086,-646.642"/>
</g>
<!-- Node8 -->
<g id="node8" class="node"><title>Node8</title>
<g id="a_node8"><a xlink:href="struct_dwarf_elephant_r_b_t2_f2_o10_steady_state_expansion.html" target="_top" xlink:title="The structures are defined for an elliptic PDE with the following restrictions: 1. The number of thetas is equal to two (T2). 2. The problem contains two load vectors (F2) and ten outputs (O10). ">
<polygon fill="white" stroke="black" points="142,-931.5 142,-961.5 311,-961.5 311,-931.5 142,-931.5"/>
<text text-anchor="start" x="150" y="-949.5" font-family="Helvetica,sans-Serif" font-size="10.00">DwarfElephantRBT2F2O10Steady</text>
<text text-anchor="middle" x="226.5" y="-938.5" font-family="Helvetica,sans-Serif" font-size="10.00">StateExpansion</text>
</a>
</g>
</g>
<!-- Node1&#45;&gt;Node8 -->
<g id="edge7" class="edge"><title>Node1&#45;&gt;Node8</title>
<path fill="none" stroke="midnightblue" d="M52.1459,-647.373C52.3327,-700.138 60.3671,-845.005 139,-922.5 142.441,-925.891 146.317,-928.813 150.472,-931.329"/>
<polygon fill="midnightblue" stroke="midnightblue" points="55.6477,-647.072 52.211,-637.051 48.6479,-647.028 55.6477,-647.072"/>
</g>
<!-- Node9 -->
<g id="node9" class="node"><title>Node9</title>
<g id="a_node9"><a xlink:href="struct_dwarf_elephant_r_b_t2_f3_o10_steady_state_expansion.html" target="_top" xlink:title="The structures are defined for an elliptic PDE with the following restrictions: 1. The number of thetas is equal to two (T2). 2. The problem contains three load vectors (F3) and ten outputs (O10). ">
<polygon fill="white" stroke="black" points="142,-882.5 142,-912.5 311,-912.5 311,-882.5 142,-882.5"/>
<text text-anchor="start" x="150" y="-900.5" font-family="Helvetica,sans-Serif" font-size="10.00">DwarfElephantRBT2F3O10Steady</text>
<text text-anchor="middle" x="226.5" y="-889.5" font-family="Helvetica,sans-Serif" font-size="10.00">StateExpansion</text>
</a>
</g>
</g>
<!-- Node1&#45;&gt;Node9 -->
<g id="edge8" class="edge"><title>Node1&#45;&gt;Node9</title>
<path fill="none" stroke="midnightblue" d="M53.5104,-647.46C56.9751,-694.118 72.2278,-811.088 139,-873.5 142.643,-876.905 146.727,-879.835 151.085,-882.353"/>
<polygon fill="midnightblue" stroke="midnightblue" points="56.985,-646.947 52.8594,-637.188 49.9991,-647.39 56.985,-646.947"/>
</g>
<!-- Node10 -->
<g id="node10" class="node"><title>Node10</title>
<g id="a_node10"><a xlink:href="struct_dwarf_elephant_r_b_t2_f3_o1_steady_state_expansion.html" target="_top" xlink:title="The structures are defined for an elliptic PDE with the following restrictions: 1. The number of thetas is equal to two (T2). 2. The problem contains three load vectors (F3) and one output (O1). ">
<polygon fill="white" stroke="black" points="144.5,-833.5 144.5,-863.5 308.5,-863.5 308.5,-833.5 144.5,-833.5"/>
<text text-anchor="start" x="152.5" y="-851.5" font-family="Helvetica,sans-Serif" font-size="10.00">DwarfElephantRBT2F3O1Steady</text>
<text text-anchor="middle" x="226.5" y="-840.5" font-family="Helvetica,sans-Serif" font-size="10.00">StateExpansion</text>
</a>
</g>
</g>
<!-- Node1&#45;&gt;Node10 -->
<g id="edge9" class="edge"><title>Node1&#45;&gt;Node10</title>
<path fill="none" stroke="midnightblue" d="M55.4949,-647.485C62.5324,-687.294 83.8912,-776.762 139,-824.5 143.005,-827.969 147.472,-830.941 152.208,-833.485"/>
<polygon fill="midnightblue" stroke="midnightblue" points="58.9196,-646.74 53.8421,-637.441 52.0125,-647.877 58.9196,-646.74"/>
</g>
<!-- Node11 -->
<g id="node11" class="node"><title>Node11</title>
<g id="a_node11"><a xlink:href="struct_dwarf_elephant_r_b_t3_f1_o1_steady_state_expansion.html" target="_top" xlink:title="The structures are defined for an elliptic PDE with the following restrictions: 1. The number of thetas is equal to three (T3). 2. The problem contains one load vector (F1) and one output (O1). ">
<polygon fill="white" stroke="black" points="144.5,-784.5 144.5,-814.5 308.5,-814.5 308.5,-784.5 144.5,-784.5"/>
<text text-anchor="start" x="152.5" y="-802.5" font-family="Helvetica,sans-Serif" font-size="10.00">DwarfElephantRBT3F1O1Steady</text>
<text text-anchor="middle" x="226.5" y="-791.5" font-family="Helvetica,sans-Serif" font-size="10.00">StateExpansion</text>
</a>
</g>
</g>
<!-- Node1&#45;&gt;Node11 -->
<g id="edge10" class="edge"><title>Node1&#45;&gt;Node11</title>
<path fill="none" stroke="midnightblue" d="M58.5172,-647.037C69.3356,-678.858 95.1282,-741.713 139,-775.5 143.445,-778.923 148.351,-781.858 153.499,-784.375"/>
<polygon fill="midnightblue" stroke="midnightblue" points="61.7309,-645.602 55.31,-637.175 55.0741,-647.767 61.7309,-645.602"/>
</g>
<!-- Node12 -->
<g id="node12" class="node"><title>Node12</title>
<g id="a_node12"><a xlink:href="struct_dwarf_elephant_r_b_t3_f1_o3_steady_state_expansion.html" target="_top" xlink:title="The structures are defined for an elliptic PDE with the following restrictions: 1. The number of thetas is equal to three (T3). 2. The problem contains one load vector (F1) and three outputs (O3). ">
<polygon fill="white" stroke="black" points="144.5,-735.5 144.5,-765.5 308.5,-765.5 308.5,-735.5 144.5,-735.5"/>
<text text-anchor="start" x="152.5" y="-753.5" font-family="Helvetica,sans-Serif" font-size="10.00">DwarfElephantRBT3F1O3Steady</text>
<text text-anchor="middle" x="226.5" y="-742.5" font-family="Helvetica,sans-Serif" font-size="10.00">StateExpansion</text>
</a>
</g>
</g>
<!-- Node1&#45;&gt;Node12 -->
<g id="edge11" class="edge"><title>Node1&#45;&gt;Node12</title>
<path fill="none" stroke="midnightblue" d="M63.5007,-645.583C78.0275,-667.925 105.702,-705.546 139,-726.5 144.408,-729.903 150.303,-732.832 156.389,-735.351"/>
<polygon fill="midnightblue" stroke="midnightblue" points="66.4014,-643.621 58.1017,-637.036 60.4833,-647.359 66.4014,-643.621"/>
</g>
<!-- Node13 -->
<g id="node13" class="node"><title>Node13</title>
<g id="a_node13"><a xlink:href="struct_dwarf_elephant_r_b_t3_f2_o1_steady_state_expansion.html" target="_top" xlink:title="The structures are defined for an elliptic PDE with the following restrictions: 1. The number of thetas is equal to three (T3). 2. The problem contains two load vectors (F2) and one output (O1). ">
<polygon fill="white" stroke="black" points="144.5,-686.5 144.5,-716.5 308.5,-716.5 308.5,-686.5 144.5,-686.5"/>
<text text-anchor="start" x="152.5" y="-704.5" font-family="Helvetica,sans-Serif" font-size="10.00">DwarfElephantRBT3F2O1Steady</text>
<text text-anchor="middle" x="226.5" y="-693.5" font-family="Helvetica,sans-Serif" font-size="10.00">StateExpansion</text>
</a>
</g>
</g>
<!-- Node1&#45;&gt;Node13 -->
<g id="edge12" class="edge"><title>Node1&#45;&gt;Node13</title>
<path fill="none" stroke="midnightblue" d="M75.261,-642.801C92.2433,-653.677 116.328,-667.985 139,-677.5 146.904,-680.817 155.404,-683.817 163.879,-686.482"/>
<polygon fill="midnightblue" stroke="midnightblue" points="76.9003,-639.692 66.6113,-637.165 73.0786,-645.557 76.9003,-639.692"/>
</g>
<!-- Node14 -->
<g id="node14" class="node"><title>Node14</title>
<g id="a_node14"><a xlink:href="struct_dwarf_elephant_r_b_t3_f3_o10_steady_state_expansion.html" target="_top" xlink:title="The structures are defined for an elliptic PDE with the following restrictions: 1. The number of thetas is equal to three (T3). 2. The problem contains three load vectors (F3) and ten outputs (O10). ">
<polygon fill="white" stroke="black" points="142,-637.5 142,-667.5 311,-667.5 311,-637.5 142,-637.5"/>
<text text-anchor="start" x="150" y="-655.5" font-family="Helvetica,sans-Serif" font-size="10.00">DwarfElephantRBT3F3O10Steady</text>
<text text-anchor="middle" x="226.5" y="-644.5" font-family="Helvetica,sans-Serif" font-size="10.00">StateExpansion</text>
</a>
</g>
</g>
<!-- Node1&#45;&gt;Node14 -->
<g id="edge13" class="edge"><title>Node1&#45;&gt;Node14</title>
<path fill="none" stroke="midnightblue" d="M112.921,-636.231C122.244,-637.579 132.012,-638.99 141.734,-640.395"/>
<polygon fill="midnightblue" stroke="midnightblue" points="113.402,-632.765 103.004,-634.798 112.4,-639.693 113.402,-632.765"/>
</g>
<!-- Node15 -->
<g id="node15" class="node"><title>Node15</title>
<g id="a_node15"><a xlink:href="struct_dwarf_elephant_r_b_t3_f3_o1_steady_state_expansion.html" target="_top" xlink:title="The structures are defined for an elliptic PDE with the following restrictions: 1. The number of thetas is equal to three (T3). 2. The problem contains four load vector (F4) and one output (O1). ">
<polygon fill="white" stroke="black" points="144.5,-588.5 144.5,-618.5 308.5,-618.5 308.5,-588.5 144.5,-588.5"/>
<text text-anchor="start" x="152.5" y="-606.5" font-family="Helvetica,sans-Serif" font-size="10.00">DwarfElephantRBT3F3O1Steady</text>
<text text-anchor="middle" x="226.5" y="-595.5" font-family="Helvetica,sans-Serif" font-size="10.00">StateExpansion</text>
</a>
</g>
</g>
<!-- Node1&#45;&gt;Node15 -->
<g id="edge14" class="edge"><title>Node1&#45;&gt;Node15</title>
<path fill="none" stroke="midnightblue" d="M112.951,-619.114C123.097,-617.706 133.77,-616.226 144.337,-614.76"/>
<polygon fill="midnightblue" stroke="midnightblue" points="112.428,-615.653 103.004,-620.494 113.39,-622.586 112.428,-615.653"/>
</g>
<!-- Node16 -->
<g id="node16" class="node"><title>Node16</title>
<g id="a_node16"><a xlink:href="struct_dwarf_elephant_r_b_t4_f1_o1_steady_state_expansion.html" target="_top" xlink:title="The structures are defined for an elliptic PDE with the following restrictions: 1. The number of thetas is equal to four (T4). 2. The problem contains one load vector (F1) and one output (O1). ">
<polygon fill="white" stroke="black" points="144.5,-539.5 144.5,-569.5 308.5,-569.5 308.5,-539.5 144.5,-539.5"/>
<text text-anchor="start" x="152.5" y="-557.5" font-family="Helvetica,sans-Serif" font-size="10.00">DwarfElephantRBT4F1O1Steady</text>
<text text-anchor="middle" x="226.5" y="-546.5" font-family="Helvetica,sans-Serif" font-size="10.00">StateExpansion</text>
</a>
</g>
</g>
<!-- Node1&#45;&gt;Node16 -->
<g id="edge15" class="edge"><title>Node1&#45;&gt;Node16</title>
<path fill="none" stroke="midnightblue" d="M75.9871,-612.564C92.9882,-602.232 116.788,-588.734 139,-579.5 147.805,-575.84 157.325,-572.504 166.72,-569.547"/>
<polygon fill="midnightblue" stroke="midnightblue" points="73.9647,-609.7 67.2948,-617.931 77.6424,-615.656 73.9647,-609.7"/>
</g>
<!-- Node17 -->
<g id="node17" class="node"><title>Node17</title>
<g id="a_node17"><a xlink:href="struct_dwarf_elephant_r_b_t4_f2_o1_steady_state_expansion.html" target="_top" xlink:title="The structures are defined for an elliptic PDE with the following restrictions: 1. The number of thetas is equal to four (T4). 2. The problem contains two load vectors (F2) and one output (O1). ">
<polygon fill="white" stroke="black" points="144.5,-490.5 144.5,-520.5 308.5,-520.5 308.5,-490.5 144.5,-490.5"/>
<text text-anchor="start" x="152.5" y="-508.5" font-family="Helvetica,sans-Serif" font-size="10.00">DwarfElephantRBT4F2O1Steady</text>
<text text-anchor="middle" x="226.5" y="-497.5" font-family="Helvetica,sans-Serif" font-size="10.00">StateExpansion</text>
</a>
</g>
</g>
<!-- Node1&#45;&gt;Node17 -->
<g id="edge16" class="edge"><title>Node1&#45;&gt;Node17</title>
<path fill="none" stroke="midnightblue" d="M63.8483,-609.511C78.562,-587.645 106.254,-551.119 139,-530.5 145.085,-526.668 151.776,-523.407 158.659,-520.634"/>
<polygon fill="midnightblue" stroke="midnightblue" points="60.9084,-607.612 58.3602,-617.896 66.7653,-611.446 60.9084,-607.612"/>
</g>
<!-- Node18 -->
<g id="node18" class="node"><title>Node18</title>
<g id="a_node18"><a xlink:href="struct_dwarf_elephant_r_b_t4_f5_o10_steady_state_expansion.html" target="_top" xlink:title="The structures are defined for an elliptic PDE with the following restrictions: 1. The number of thetas is equal to four (T4). 2. The problem contains five load vectors (F5) and ten outputs (O10). ">
<polygon fill="white" stroke="black" points="142,-441.5 142,-471.5 311,-471.5 311,-441.5 142,-441.5"/>
<text text-anchor="start" x="150" y="-459.5" font-family="Helvetica,sans-Serif" font-size="10.00">DwarfElephantRBT4F5O10Steady</text>
<text text-anchor="middle" x="226.5" y="-448.5" font-family="Helvetica,sans-Serif" font-size="10.00">StateExpansion</text>
</a>
</g>
</g>
<!-- Node1&#45;&gt;Node18 -->
<g id="edge17" class="edge"><title>Node1&#45;&gt;Node18</title>
<path fill="none" stroke="midnightblue" d="M58.6338,-608.276C69.6202,-576.956 95.649,-515.051 139,-481.5 143.945,-477.673 149.456,-474.432 155.236,-471.686"/>
<polygon fill="midnightblue" stroke="midnightblue" points="55.2399,-607.388 55.3714,-617.982 61.8751,-609.618 55.2399,-607.388"/>
</g>
<!-- Node19 -->
<g id="node19" class="node"><title>Node19</title>
<g id="a_node19"><a xlink:href="struct_dwarf_elephant_r_b_t5_f1_o1_steady_state_expansion.html" target="_top" xlink:title="The structures are defined for an elliptic PDE with the following restrictions: 1. The number of thetas is equal to five (T5). 2. The problem contains one load vector (F1) and one output (O1). ">
<polygon fill="white" stroke="black" points="144.5,-392.5 144.5,-422.5 308.5,-422.5 308.5,-392.5 144.5,-392.5"/>
<text text-anchor="start" x="152.5" y="-410.5" font-family="Helvetica,sans-Serif" font-size="10.00">DwarfElephantRBT5F1O1Steady</text>
<text text-anchor="middle" x="226.5" y="-399.5" font-family="Helvetica,sans-Serif" font-size="10.00">StateExpansion</text>
</a>
</g>
</g>
<!-- Node1&#45;&gt;Node19 -->
<g id="edge18" class="edge"><title>Node1&#45;&gt;Node19</title>
<path fill="none" stroke="midnightblue" d="M55.6021,-607.764C62.8332,-568.44 84.5243,-480.021 139,-432.5 143.476,-428.595 148.53,-425.299 153.89,-422.516"/>
<polygon fill="midnightblue" stroke="midnightblue" points="52.1417,-607.235 53.8981,-617.683 59.0407,-608.42 52.1417,-607.235"/>
</g>
<!-- Node20 -->
<g id="node20" class="node"><title>Node20</title>
<g id="a_node20"><a xlink:href="struct_dwarf_elephant_r_b_t5_f3_o1_steady_state_expansion.html" target="_top" xlink:title="The structures are defined for an elliptic PDE with the following restrictions: 1. The number of thetas is equal to five (T5). 2. The problem contains three load vectors (F3) and one output (O1). ">
<polygon fill="white" stroke="black" points="144.5,-343.5 144.5,-373.5 308.5,-373.5 308.5,-343.5 144.5,-343.5"/>
<text text-anchor="start" x="152.5" y="-361.5" font-family="Helvetica,sans-Serif" font-size="10.00">DwarfElephantRBT5F3O1Steady</text>
<text text-anchor="middle" x="226.5" y="-350.5" font-family="Helvetica,sans-Serif" font-size="10.00">StateExpansion</text>
</a>
</g>
</g>
<!-- Node1&#45;&gt;Node20 -->
<g id="edge19" class="edge"><title>Node1&#45;&gt;Node20</title>
<path fill="none" stroke="midnightblue" d="M53.609,-607.746C57.2861,-561.561 72.9634,-445.73 139,-383.5 143.096,-379.641 147.75,-376.372 152.725,-373.605"/>
<polygon fill="midnightblue" stroke="midnightblue" points="50.1043,-607.696 52.9094,-617.913 57.0878,-608.177 50.1043,-607.696"/>
</g>
<!-- Node21 -->
<g id="node21" class="node"><title>Node21</title>
<g id="a_node21"><a xlink:href="struct_dwarf_elephant_r_b_t6_f1_o1_steady_state_expansion.html" target="_top" xlink:title="The structures are defined for an elliptic PDE with the following restrictions: 1. The number of thetas is equal to six (T5). 2. The problem contains one load vector (F1) and one output (O1). ">
<polygon fill="white" stroke="black" points="144.5,-294.5 144.5,-324.5 308.5,-324.5 308.5,-294.5 144.5,-294.5"/>
<text text-anchor="start" x="152.5" y="-312.5" font-family="Helvetica,sans-Serif" font-size="10.00">DwarfElephantRBT6F1O1Steady</text>
<text text-anchor="middle" x="226.5" y="-301.5" font-family="Helvetica,sans-Serif" font-size="10.00">StateExpansion</text>
</a>
</g>
</g>
<!-- Node1&#45;&gt;Node21 -->
<g id="edge20" class="edge"><title>Node1&#45;&gt;Node21</title>
<path fill="none" stroke="midnightblue" d="M52.2408,-607.451C52.6912,-554.858 61.3746,-411.683 139,-334.5 142.88,-330.642 147.316,-327.372 152.083,-324.601"/>
<polygon fill="midnightblue" stroke="midnightblue" points="48.7411,-607.766 52.2537,-617.761 55.7411,-607.757 48.7411,-607.766"/>
</g>
<!-- Node22 -->
<g id="node22" class="node"><title>Node22</title>
<g id="a_node22"><a xlink:href="struct_dwarf_elephant_r_b_t7_f8_o80_steady_state_expansion.html" target="_top" xlink:title="The structures are defined for an elliptic PDE with the following restrictions: 1. The number of thetas is equal to seven (T7). 2. The problem contains eight load vectors (F8) and 80 outputs (O80). ">
<polygon fill="white" stroke="black" points="142,-245.5 142,-275.5 311,-275.5 311,-245.5 142,-245.5"/>
<text text-anchor="start" x="150" y="-263.5" font-family="Helvetica,sans-Serif" font-size="10.00">DwarfElephantRBT7F8O80Steady</text>
<text text-anchor="middle" x="226.5" y="-252.5" font-family="Helvetica,sans-Serif" font-size="10.00">StateExpansion</text>
</a>
</g>
</g>
<!-- Node1&#45;&gt;Node22 -->
<g id="edge21" class="edge"><title>Node1&#45;&gt;Node22</title>
<path fill="none" stroke="midnightblue" d="M54.9138,-607.714C63.3052,-542.053 93.2164,-332.849 139,-285.5 142.694,-281.679 146.933,-278.432 151.507,-275.674"/>
<polygon fill="midnightblue" stroke="midnightblue" points="51.4052,-607.565 53.6362,-617.922 58.351,-608.434 51.4052,-607.565"/>
</g>
<!-- Node23 -->
<g id="node23" class="node"><title>Node23</title>
<g id="a_node23"><a xlink:href="struct_dwarf_elephant_r_b_t8_f9_o10_steady_state_expansion.html" target="_top" xlink:title="The structures are defined for an elliptic PDE with the following restrictions: 1. The number of thetas is equal to eight (T8). 2. The problem contains nine load vectors (F9) and ten outputs (O10). ">
<polygon fill="white" stroke="black" points="142,-196.5 142,-226.5 311,-226.5 311,-196.5 142,-196.5"/>
<text text-anchor="start" x="150" y="-214.5" font-family="Helvetica,sans-Serif" font-size="10.00">DwarfElephantRBT8F9O10Steady</text>
<text text-anchor="middle" x="226.5" y="-203.5" font-family="Helvetica,sans-Serif" font-size="10.00">StateExpansion</text>
</a>
</g>
</g>
<!-- Node1&#45;&gt;Node23 -->
<g id="edge22" class="edge"><title>Node1&#45;&gt;Node23</title>
<path fill="none" stroke="midnightblue" d="M54.28,-607.269C61.0253,-535.092 87.2902,-291.609 139,-236.5 142.637,-232.624 146.833,-229.337 151.377,-226.55"/>
<polygon fill="midnightblue" stroke="midnightblue" points="50.7544,-607.392 53.3339,-617.668 57.7256,-608.027 50.7544,-607.392"/>
</g>
<!-- Node24 -->
<g id="node24" class="node"><title>Node24</title>
<g id="a_node24"><a xlink:href="struct_dwarf_elephant_r_b_t8_f9_o1_steady_state_expansion.html" target="_top" xlink:title="The structures are defined for an elliptic PDE with the following restrictions: 1. The number of thetas is equal to eight (T8). 2. The problem contains nine load vectors (F9) and one output (O1). ">
<polygon fill="white" stroke="black" points="144.5,-147.5 144.5,-177.5 308.5,-177.5 308.5,-147.5 144.5,-147.5"/>
<text text-anchor="start" x="152.5" y="-165.5" font-family="Helvetica,sans-Serif" font-size="10.00">DwarfElephantRBT8F9O1Steady</text>
<text text-anchor="middle" x="226.5" y="-154.5" font-family="Helvetica,sans-Serif" font-size="10.00">StateExpansion</text>
</a>
</g>
</g>
<!-- Node1&#45;&gt;Node24 -->
<g id="edge23" class="edge"><title>Node1&#45;&gt;Node24</title>
<path fill="none" stroke="midnightblue" d="M53.7379,-607.294C58.9023,-529.499 81.2175,-250.557 139,-187.5 142.485,-183.697 146.509,-180.459 150.875,-177.703"/>
<polygon fill="midnightblue" stroke="midnightblue" points="50.2224,-607.424 53.0756,-617.628 57.2081,-607.872 50.2224,-607.424"/>
</g>
<!-- Node25 -->
<g id="node25" class="node"><title>Node25</title>
<g id="a_node25"><a xlink:href="struct_dwarf_elephant_r_b_t8_f9_o20_steady_state_expansion.html" target="_top" xlink:title="The structures are defined for an elliptic PDE with the following restrictions: 1. The number of thetas is equal to eight (T8). 2. The problem contains nine load vectors (F9) and twenty outputs (O20). ">
<polygon fill="white" stroke="black" points="142,-98.5 142,-128.5 311,-128.5 311,-98.5 142,-98.5"/>
<text text-anchor="start" x="150" y="-116.5" font-family="Helvetica,sans-Serif" font-size="10.00">DwarfElephantRBT8F9O20Steady</text>
<text text-anchor="middle" x="226.5" y="-105.5" font-family="Helvetica,sans-Serif" font-size="10.00">StateExpansion</text>
</a>
</g>
</g>
<!-- Node1&#45;&gt;Node25 -->
<g id="edge24" class="edge"><title>Node1&#45;&gt;Node25</title>
<path fill="none" stroke="midnightblue" d="M53.2837,-607.743C56.9473,-525.297 75.0051,-209.684 139,-138.5 142.449,-134.664 146.446,-131.401 150.792,-128.628"/>
<polygon fill="midnightblue" stroke="midnightblue" points="49.785,-607.64 52.859,-617.779 56.7788,-607.936 49.785,-607.64"/>
</g>
<!-- Node26 -->
<g id="node26" class="node"><title>Node26</title>
<g id="a_node26"><a xlink:href="struct_dwarf_elephant_r_b_t9_f10_o80_steady_state_expansion.html" target="_top" xlink:title="The structures are defined for an elliptic PDE with the following restrictions: 1. The number of thetas is equal to nine (T9). 2. The problem contains two load vectors (F2) and 80 outputs (O80). ">
<polygon fill="white" stroke="black" points="139,-49.5 139,-79.5 314,-79.5 314,-49.5 139,-49.5"/>
<text text-anchor="start" x="147" y="-67.5" font-family="Helvetica,sans-Serif" font-size="10.00">DwarfElephantRBT9F10O80Steady</text>
<text text-anchor="middle" x="226.5" y="-56.5" font-family="Helvetica,sans-Serif" font-size="10.00">StateExpansion</text>
</a>
</g>
</g>
<!-- Node1&#45;&gt;Node26 -->
<g id="edge25" class="edge"><title>Node1&#45;&gt;Node26</title>
<path fill="none" stroke="midnightblue" d="M52.9419,-607.477C55.2841,-519.567 68.95,-168.658 139,-89.5 142.419,-85.6369 146.393,-82.3543 150.724,-79.5668"/>
<polygon fill="midnightblue" stroke="midnightblue" points="49.438,-607.596 52.6909,-617.68 56.4359,-607.769 49.438,-607.596"/>
</g>
<!-- Node27 -->
<g id="node27" class="node"><title>Node27</title>
<g id="a_node27"><a xlink:href="struct_dwarf_elephant_r_b_t9_f2_o80_steady_state_expansion.html" target="_top" xlink:title="The structures are defined for an elliptic PDE with the following restrictions: 1. The number of thetas is equal to nine (T9). 2. The problem contains two load vectors (F2) and 80 outputs (O80). ">
<polygon fill="white" stroke="black" points="142,-0.5 142,-30.5 311,-30.5 311,-0.5 142,-0.5"/>
<text text-anchor="start" x="150" y="-18.5" font-family="Helvetica,sans-Serif" font-size="10.00">DwarfElephantRBT9F2O80Steady</text>
<text text-anchor="middle" x="226.5" y="-7.5" font-family="Helvetica,sans-Serif" font-size="10.00">StateExpansion</text>
</a>
</g>
</g>
<!-- Node1&#45;&gt;Node27 -->
<g id="edge26" class="edge"><title>Node1&#45;&gt;Node27</title>
<path fill="none" stroke="midnightblue" d="M52.6464,-607.456C53.7287,-514.676 62.8114,-127.74 139,-40.5 142.393,-36.6146 146.349,-33.3154 150.666,-30.516"/>
<polygon fill="midnightblue" stroke="midnightblue" points="49.1442,-607.666 52.5468,-617.699 56.1439,-607.734 49.1442,-607.666"/>
</g>
</g>
</svg>
