<?xml version="1.0" encoding="UTF-8" standalone="no"?>
<!DOCTYPE svg PUBLIC "-//W3C//DTD SVG 1.1//EN"
 "http://www.w3.org/Graphics/SVG/1.1/DTD/svg11.dtd">
<!-- Generated by graphviz version 2.38.0 (20140413.2041)
 -->
<!-- Title: Graphical Class Hierarchy Pages: 1 -->
<svg width="470pt" height="66pt"
 viewBox="0.00 0.00 470.00 66.00" xmlns="http://www.w3.org/2000/svg" xmlns:xlink="http://www.w3.org/1999/xlink">
<g id="graph0" class="graph" transform="scale(1 1) rotate(0) translate(4 62)">
<title>Graphical Class Hierarchy</title>
<polygon fill="white" stroke="none" points="-4,4 -4,-62 466,-62 466,4 -4,4"/>
<!-- Node1 -->
<g id="node1" class="node"><title>Node1</title>
<polygon fill="white" stroke="#bfbfbf" points="0,-19.5 0,-38.5 82,-38.5 82,-19.5 0,-19.5"/>
<text text-anchor="middle" x="41" y="-26.5" font-family="Helvetica,sans-Serif" font-size="10.00">InitialCondition</text>
</g>
<!-- Node2 -->
<g id="node2" class="node"><title>Node2</title>
<g id="a_node2"><a xlink:href="class_dwarf_elephant_r_b_initial_condition.html" target="_top" xlink:title="DwarfElephantRBInitialCondition">
<polygon fill="white" stroke="black" points="118,-19.5 118,-38.5 280,-38.5 280,-19.5 118,-19.5"/>
<text text-anchor="middle" x="199" y="-26.5" font-family="Helvetica,sans-Serif" font-size="10.00">DwarfElephantRBInitialCondition</text>
</a>
</g>
</g>
<!-- Node1&#45;&gt;Node2 -->
<g id="edge1" class="edge"><title>Node1&#45;&gt;Node2</title>
<path fill="none" stroke="midnightblue" d="M92.3011,-29C100.521,-29 109.214,-29 117.94,-29"/>
<polygon fill="midnightblue" stroke="midnightblue" points="92.1739,-25.5001 82.1739,-29 92.1738,-32.5001 92.1739,-25.5001"/>
</g>
<!-- Node3 -->
<g id="node3" class="node"><title>Node3</title>
<g id="a_node3"><a xlink:href="class_dwarf_elephant_r_b_constant_i_c.html" target="_top" xlink:title="DwarfElephantRBConstantIC">
<polygon fill="white" stroke="black" points="316,-38.5 316,-57.5 462,-57.5 462,-38.5 316,-38.5"/>
<text text-anchor="middle" x="389" y="-45.5" font-family="Helvetica,sans-Serif" font-size="10.00">DwarfElephantRBConstantIC</text>
</a>
</g>
</g>
<!-- Node2&#45;&gt;Node3 -->
<g id="edge2" class="edge"><title>Node2&#45;&gt;Node3</title>
<path fill="none" stroke="midnightblue" d="M290.091,-38.105C298.718,-38.9768 307.389,-39.8531 315.813,-40.7045"/>
<polygon fill="midnightblue" stroke="midnightblue" points="290.303,-34.6086 280.002,-37.0853 289.599,-41.5731 290.303,-34.6086"/>
</g>
<!-- Node4 -->
<g id="node4" class="node"><title>Node4</title>
<g id="a_node4"><a xlink:href="class_dwarf_elephant_r_b_function_i_c.html" target="_top" xlink:title="DwarfElephantRBFunctionIC">
<polygon fill="white" stroke="black" points="317,-0.5 317,-19.5 461,-19.5 461,-0.5 317,-0.5"/>
<text text-anchor="middle" x="389" y="-7.5" font-family="Helvetica,sans-Serif" font-size="10.00">DwarfElephantRBFunctionIC</text>
</a>
</g>
</g>
<!-- Node2&#45;&gt;Node4 -->
<g id="edge3" class="edge"><title>Node2&#45;&gt;Node4</title>
<path fill="none" stroke="midnightblue" d="M290.141,-19.89C299.155,-18.979 308.216,-18.0633 316.993,-17.1763"/>
<polygon fill="midnightblue" stroke="midnightblue" points="289.599,-16.4269 280.002,-20.9147 290.303,-23.3914 289.599,-16.4269"/>
</g>
</g>
</svg>
