<?xml version="1.0" encoding="UTF-8" standalone="no"?>
<!DOCTYPE svg PUBLIC "-//W3C//DTD SVG 1.1//EN"
 "http://www.w3.org/Graphics/SVG/1.1/DTD/svg11.dtd">
<!-- Generated by graphviz version 2.38.0 (20140413.2041)
 -->
<!-- Title: Graphical Class Hierarchy Pages: 1 -->
<svg width="322pt" height="1313pt"
 viewBox="0.00 0.00 322.00 1313.00" xmlns="http://www.w3.org/2000/svg" xmlns:xlink="http://www.w3.org/1999/xlink">
<g id="graph0" class="graph" transform="scale(1 1) rotate(0) translate(4 1309)">
<title>Graphical Class Hierarchy</title>
<polygon fill="white" stroke="none" points="-4,4 -4,-1309 318,-1309 318,4 -4,4"/>
<!-- Node1 -->
<g id="node1" class="node"><title>Node1</title>
<polygon fill="white" stroke="#bfbfbf" points="0,-643 0,-662 103,-662 103,-643 0,-643"/>
<text text-anchor="middle" x="51.5" y="-650" font-family="Helvetica,sans-Serif" font-size="10.00">RBThetaExpansion</text>
</g>
<!-- Node2 -->
<g id="node2" class="node"><title>Node2</title>
<g id="a_node2"><a xlink:href="struct_dwarf_elephant_r_b_t12_f13_o20_steady_state_expansion.html" target="_top" xlink:title="The structures are defined for an elliptic PDE with the following restrictions: 1. The number of thetas is equal to 12 (T12). 2. The problem contains 13 load vectors (F13) and 20 outputs (O20). ">
<polygon fill="white" stroke="black" points="152,-1274.5 152,-1304.5 301,-1304.5 301,-1274.5 152,-1274.5"/>
<text text-anchor="start" x="160" y="-1292.5" font-family="Helvetica,sans-Serif" font-size="10.00">DwarfElephantRBT12F13O20</text>
<text text-anchor="middle" x="226.5" y="-1281.5" font-family="Helvetica,sans-Serif" font-size="10.00">SteadyStateExpansion</text>
</a>
</g>
</g>
<!-- Node1&#45;&gt;Node2 -->
<g id="edge1" class="edge"><title>Node1&#45;&gt;Node2</title>
<path fill="none" stroke="midnightblue" d="M52.4872,-672.536C52.835,-767.832 59.0476,-1174.37 139,-1265.5 142.7,-1269.72 147.07,-1273.22 151.849,-1276.13"/>
<polygon fill="midnightblue" stroke="midnightblue" points="55.9868,-672.276 52.4694,-662.282 48.9869,-672.288 55.9868,-672.276"/>
</g>
<!-- Node3 -->
<g id="node3" class="node"><title>Node3</title>
<g id="a_node3"><a xlink:href="struct_dwarf_elephant_r_b_t15_f16_o80_steady_state_expansion.html" target="_top" xlink:title="The structures are defined for an elliptic PDE with the following restrictions: 1. The number of thetas is equal to 15 (T15). 2. The problem contains 16 load vectors (F16) and 80 outputs (O80). ">
<polygon fill="white" stroke="black" points="152,-1225.5 152,-1255.5 301,-1255.5 301,-1225.5 152,-1225.5"/>
<text text-anchor="start" x="160" y="-1243.5" font-family="Helvetica,sans-Serif" font-size="10.00">DwarfElephantRBT15F16O80</text>
<text text-anchor="middle" x="226.5" y="-1232.5" font-family="Helvetica,sans-Serif" font-size="10.00">SteadyStateExpansion</text>
</a>
</g>
</g>
<!-- Node1&#45;&gt;Node3 -->
<g id="edge2" class="edge"><title>Node1&#45;&gt;Node3</title>
<path fill="none" stroke="midnightblue" d="M52.7598,-672.634C54.3387,-763.374 65.2719,-1133.48 139,-1216.5 142.725,-1220.7 147.114,-1224.18 151.905,-1227.08"/>
<polygon fill="midnightblue" stroke="midnightblue" points="56.2552,-672.305 52.6016,-662.36 49.2561,-672.413 56.2552,-672.305"/>
</g>
<!-- Node4 -->
<g id="node4" class="node"><title>Node4</title>
<g id="a_node4"><a xlink:href="struct_dwarf_elephant_r_b_t15_f8_o80_steady_state_expansion.html" target="_top" xlink:title="The structures are defined for an elliptic PDE with the following restrictions: 1. The number of thetas is equal to 15 (T15). 2. The problem contains eigth load vectors (F8) and 80 outputs (O80). ">
<polygon fill="white" stroke="black" points="139,-1176.5 139,-1206.5 314,-1206.5 314,-1176.5 139,-1176.5"/>
<text text-anchor="start" x="147" y="-1194.5" font-family="Helvetica,sans-Serif" font-size="10.00">DwarfElephantRBT15F8O80Steady</text>
<text text-anchor="middle" x="226.5" y="-1183.5" font-family="Helvetica,sans-Serif" font-size="10.00">StateExpansion</text>
</a>
</g>
</g>
<!-- Node1&#45;&gt;Node4 -->
<g id="edge3" class="edge"><title>Node1&#45;&gt;Node4</title>
<path fill="none" stroke="midnightblue" d="M53.0779,-672.497C55.9532,-758.071 71.4134,-1092.47 139,-1167.5 142.025,-1170.86 145.475,-1173.76 149.214,-1176.27"/>
<polygon fill="midnightblue" stroke="midnightblue" points="56.5706,-672.209 52.7573,-662.324 49.5741,-672.429 56.5706,-672.209"/>
</g>
<!-- Node5 -->
<g id="node5" class="node"><title>Node5</title>
<g id="a_node5"><a xlink:href="struct_dwarf_elephant_r_b_t16_f16_o80_steady_state_expansion.html" target="_top" xlink:title="The structures are defined for an elliptic PDE with the following restrictions: 1. The number of thetas is equal to 16 (T16). 2. The problem contains 16 load vectors (F16) and 80 outputs (O80). ">
<polygon fill="white" stroke="black" points="152,-1127.5 152,-1157.5 301,-1157.5 301,-1127.5 152,-1127.5"/>
<text text-anchor="start" x="160" y="-1145.5" font-family="Helvetica,sans-Serif" font-size="10.00">DwarfElephantRBT16F16O80</text>
<text text-anchor="middle" x="226.5" y="-1134.5" font-family="Helvetica,sans-Serif" font-size="10.00">SteadyStateExpansion</text>
</a>
</g>
</g>
<!-- Node1&#45;&gt;Node5 -->
<g id="edge4" class="edge"><title>Node1&#45;&gt;Node5</title>
<path fill="none" stroke="midnightblue" d="M53.4563,-672.355C57.715,-752.544 77.5324,-1051.43 139,-1118.5 142.685,-1122.52 146.98,-1125.89 151.648,-1128.71"/>
<polygon fill="midnightblue" stroke="midnightblue" points="56.9415,-671.973 52.9378,-662.164 49.9506,-672.329 56.9415,-671.973"/>
</g>
<!-- Node6 -->
<g id="node6" class="node"><title>Node6</title>
<g id="a_node6"><a xlink:href="struct_dwarf_elephant_r_b_t1_f1_o1_steady_state_expansion.html" target="_top" xlink:title="The structures are defined for an elliptic PDE with the following restrictions: 1. The number of thetas is equal to one (T1). 2. The problem contains one load vector (F1) and one output (O1). ">
<polygon fill="white" stroke="black" points="144.5,-1078.5 144.5,-1108.5 308.5,-1108.5 308.5,-1078.5 144.5,-1078.5"/>
<text text-anchor="start" x="152.5" y="-1096.5" font-family="Helvetica,sans-Serif" font-size="10.00">DwarfElephantRBT1F1O1Steady</text>
<text text-anchor="middle" x="226.5" y="-1085.5" font-family="Helvetica,sans-Serif" font-size="10.00">StateExpansion</text>
</a>
</g>
</g>
<!-- Node1&#45;&gt;Node6 -->
<g id="edge5" class="edge"><title>Node1&#45;&gt;Node6</title>
<path fill="none" stroke="midnightblue" d="M53.9476,-672.621C59.7496,-747.735 83.7272,-1010.45 139,-1069.5 142.195,-1072.91 145.829,-1075.86 149.755,-1078.39"/>
<polygon fill="midnightblue" stroke="midnightblue" points="57.4071,-671.947 53.1705,-662.236 50.4266,-672.47 57.4071,-671.947"/>
</g>
<!-- Node7 -->
<g id="node7" class="node"><title>Node7</title>
<g id="a_node7"><a xlink:href="struct_dwarf_elephant_r_b_t2_f1_o1_steady_state_expansion.html" target="_top" xlink:title="The structures are defined for an elliptic PDE with the following restrictions: 1. The number of thetas is equal to two (T2). 2. The problem contains one load vector (F1) and one output (O1). ">
<polygon fill="white" stroke="black" points="144.5,-1029.5 144.5,-1059.5 308.5,-1059.5 308.5,-1029.5 144.5,-1029.5"/>
<text text-anchor="start" x="152.5" y="-1047.5" font-family="Helvetica,sans-Serif" font-size="10.00">DwarfElephantRBT2F1O1Steady</text>
<text text-anchor="middle" x="226.5" y="-1036.5" font-family="Helvetica,sans-Serif" font-size="10.00">StateExpansion</text>
</a>
</g>
</g>
<!-- Node1&#45;&gt;Node7 -->
<g id="edge6" class="edge"><title>Node1&#45;&gt;Node7</title>
<path fill="none" stroke="midnightblue" d="M54.529,-672.444C61.9489,-741.543 89.7784,-969.28 139,-1020.5 142.24,-1023.87 145.908,-1026.78 149.86,-1029.29"/>
<polygon fill="midnightblue" stroke="midnightblue" points="57.9693,-671.69 53.446,-662.109 51.0074,-672.419 57.9693,-671.69"/>
</g>
<!-- Node8 -->
<g id="node8" class="node"><title>Node8</title>
<g id="a_node8"><a xlink:href="struct_dwarf_elephant_r_b_t2_f2_o10_steady_state_expansion.html" target="_top" xlink:title="The structures are defined for an elliptic PDE with the following restrictions: 1. The number of thetas is equal to two (T2). 2. The problem contains two load vectors (F2) and ten outputs (O10). ">
<polygon fill="white" stroke="black" points="142,-980.5 142,-1010.5 311,-1010.5 311,-980.5 142,-980.5"/>
<text text-anchor="start" x="150" y="-998.5" font-family="Helvetica,sans-Serif" font-size="10.00">DwarfElephantRBT2F2O10Steady</text>
<text text-anchor="middle" x="226.5" y="-987.5" font-family="Helvetica,sans-Serif" font-size="10.00">StateExpansion</text>
</a>
</g>
</g>
<!-- Node1&#45;&gt;Node8 -->
<g id="edge7" class="edge"><title>Node1&#45;&gt;Node8</title>
<path fill="none" stroke="midnightblue" d="M55.264,-672.189C64.4388,-734.842 95.7728,-928.019 139,-971.5 142.406,-974.926 146.256,-977.875 150.392,-980.411"/>
<polygon fill="midnightblue" stroke="midnightblue" points="58.6975,-671.476 53.8108,-662.075 51.7686,-672.471 58.6975,-671.476"/>
</g>
<!-- Node9 -->
<g id="node9" class="node"><title>Node9</title>
<g id="a_node9"><a xlink:href="struct_dwarf_elephant_r_b_t2_f3_o10_steady_state_expansion.html" target="_top" xlink:title="The structures are defined for an elliptic PDE with the following restrictions: 1. The number of thetas is equal to two (T2). 2. The problem contains three load vectors (F3) and ten outputs (O10). ">
<polygon fill="white" stroke="black" points="142,-931.5 142,-961.5 311,-961.5 311,-931.5 142,-931.5"/>
<text text-anchor="start" x="150" y="-949.5" font-family="Helvetica,sans-Serif" font-size="10.00">DwarfElephantRBT2F3O10Steady</text>
<text text-anchor="middle" x="226.5" y="-938.5" font-family="Helvetica,sans-Serif" font-size="10.00">StateExpansion</text>
</a>
</g>
</g>
<!-- Node1&#45;&gt;Node9 -->
<g id="edge8" class="edge"><title>Node1&#45;&gt;Node9</title>
<path fill="none" stroke="midnightblue" d="M52.7695,-672.03C54.5454,-721.462 66.2479,-852.559 139,-922.5 142.595,-925.956 146.643,-928.923 150.974,-931.47"/>
<polygon fill="midnightblue" stroke="midnightblue" points="56.2684,-671.939 52.511,-662.033 49.2708,-672.12 56.2684,-671.939"/>
</g>
<!-- Node10 -->
<g id="node10" class="node"><title>Node10</title>
<g id="a_node10"><a xlink:href="struct_dwarf_elephant_r_b_t2_f3_o1_steady_state_expansion.html" target="_top" xlink:title="The structures are defined for an elliptic PDE with the following restrictions: 1. The number of thetas is equal to two (T2). 2. The problem contains three load vectors (F3) and one output (O1). ">
<polygon fill="white" stroke="black" points="144.5,-882.5 144.5,-912.5 308.5,-912.5 308.5,-882.5 144.5,-882.5"/>
<text text-anchor="start" x="152.5" y="-900.5" font-family="Helvetica,sans-Serif" font-size="10.00">DwarfElephantRBT2F3O1Steady</text>
<text text-anchor="middle" x="226.5" y="-889.5" font-family="Helvetica,sans-Serif" font-size="10.00">StateExpansion</text>
</a>
</g>
</g>
<!-- Node1&#45;&gt;Node10 -->
<g id="edge9" class="edge"><title>Node1&#45;&gt;Node10</title>
<path fill="none" stroke="midnightblue" d="M54.3867,-672.19C59.5883,-715.289 78.0697,-818.511 139,-873.5 142.818,-876.946 147.089,-879.902 151.633,-882.437"/>
<polygon fill="midnightblue" stroke="midnightblue" points="57.8556,-671.714 53.2895,-662.154 50.8971,-672.475 57.8556,-671.714"/>
</g>
<!-- Node11 -->
<g id="node11" class="node"><title>Node11</title>
<g id="a_node11"><a xlink:href="struct_dwarf_elephant_r_b_t3_f1_o1_steady_state_expansion.html" target="_top" xlink:title="The structures are defined for an elliptic PDE with the following restrictions: 1. The number of thetas is equal to three (T3). 2. The problem contains one load vector (F1) and one output (O1). ">
<polygon fill="white" stroke="black" points="144.5,-833.5 144.5,-863.5 308.5,-863.5 308.5,-833.5 144.5,-833.5"/>
<text text-anchor="start" x="152.5" y="-851.5" font-family="Helvetica,sans-Serif" font-size="10.00">DwarfElephantRBT3F1O1Steady</text>
<text text-anchor="middle" x="226.5" y="-840.5" font-family="Helvetica,sans-Serif" font-size="10.00">StateExpansion</text>
</a>
</g>
</g>
<!-- Node1&#45;&gt;Node11 -->
<g id="edge10" class="edge"><title>Node1&#45;&gt;Node11</title>
<path fill="none" stroke="midnightblue" d="M56.8156,-672.13C65.7252,-707.94 89.5943,-783.911 139,-824.5 143.215,-827.963 147.894,-830.927 152.832,-833.465"/>
<polygon fill="midnightblue" stroke="midnightblue" points="60.1321,-670.943 54.4352,-662.01 53.3181,-672.546 60.1321,-670.943"/>
</g>
<!-- Node12 -->
<g id="node12" class="node"><title>Node12</title>
<g id="a_node12"><a xlink:href="struct_dwarf_elephant_r_b_t3_f1_o3_steady_state_expansion.html" target="_top" xlink:title="The structures are defined for an elliptic PDE with the following restrictions: 1. The number of thetas is equal to three (T3). 2. The problem contains one load vector (F1) and three outputs (O3). ">
<polygon fill="white" stroke="black" points="144.5,-784.5 144.5,-814.5 308.5,-814.5 308.5,-784.5 144.5,-784.5"/>
<text text-anchor="start" x="152.5" y="-802.5" font-family="Helvetica,sans-Serif" font-size="10.00">DwarfElephantRBT3F1O3Steady</text>
<text text-anchor="middle" x="226.5" y="-791.5" font-family="Helvetica,sans-Serif" font-size="10.00">StateExpansion</text>
</a>
</g>
</g>
<!-- Node1&#45;&gt;Node12 -->
<g id="edge11" class="edge"><title>Node1&#45;&gt;Node12</title>
<path fill="none" stroke="midnightblue" d="M60.6903,-671.422C73.4342,-698.608 100.599,-748.416 139,-775.5 143.84,-778.913 149.148,-781.842 154.68,-784.355"/>
<polygon fill="midnightblue" stroke="midnightblue" points="63.8308,-669.873 56.5188,-662.206 57.4536,-672.759 63.8308,-669.873"/>
</g>
<!-- Node13 -->
<g id="node13" class="node"><title>Node13</title>
<g id="a_node13"><a xlink:href="struct_dwarf_elephant_r_b_t3_f2_o1_steady_state_expansion.html" target="_top" xlink:title="The structures are defined for an elliptic PDE with the following restrictions: 1. The number of thetas is equal to three (T3). 2. The problem contains two load vectors (F2) and one output (O1). ">
<polygon fill="white" stroke="black" points="144.5,-735.5 144.5,-765.5 308.5,-765.5 308.5,-735.5 144.5,-735.5"/>
<text text-anchor="start" x="152.5" y="-753.5" font-family="Helvetica,sans-Serif" font-size="10.00">DwarfElephantRBT3F2O1Steady</text>
<text text-anchor="middle" x="226.5" y="-742.5" font-family="Helvetica,sans-Serif" font-size="10.00">StateExpansion</text>
</a>
</g>
</g>
<!-- Node1&#45;&gt;Node13 -->
<g id="edge12" class="edge"><title>Node1&#45;&gt;Node13</title>
<path fill="none" stroke="midnightblue" d="M68.141,-669.695C84.329,-686.499 111.115,-711.656 139,-726.5 145.328,-729.869 152.175,-732.801 159.15,-735.347"/>
<polygon fill="midnightblue" stroke="midnightblue" points="70.4889,-667.083 61.0872,-662.198 65.3909,-671.88 70.4889,-667.083"/>
</g>
<!-- Node14 -->
<g id="node14" class="node"><title>Node14</title>
<g id="a_node14"><a xlink:href="struct_dwarf_elephant_r_b_t3_f3_o10_steady_state_expansion.html" target="_top" xlink:title="The structures are defined for an elliptic PDE with the following restrictions: 1. The number of thetas is equal to three (T3). 2. The problem contains three load vectors (F3) and ten outputs (O10). ">
<polygon fill="white" stroke="black" points="142,-686.5 142,-716.5 311,-716.5 311,-686.5 142,-686.5"/>
<text text-anchor="start" x="150" y="-704.5" font-family="Helvetica,sans-Serif" font-size="10.00">DwarfElephantRBT3F3O10Steady</text>
<text text-anchor="middle" x="226.5" y="-693.5" font-family="Helvetica,sans-Serif" font-size="10.00">StateExpansion</text>
</a>
</g>
</g>
<!-- Node1&#45;&gt;Node14 -->
<g id="edge13" class="edge"><title>Node1&#45;&gt;Node14</title>
<path fill="none" stroke="midnightblue" d="M95.1716,-664.931C109.131,-668.971 124.719,-673.455 139,-677.5 149.346,-680.43 160.399,-683.525 171.027,-686.482"/>
<polygon fill="midnightblue" stroke="midnightblue" points="95.9154,-661.503 85.3363,-662.08 93.9663,-668.226 95.9154,-661.503"/>
</g>
<!-- Node15 -->
<g id="node15" class="node"><title>Node15</title>
<g id="a_node15"><a xlink:href="struct_dwarf_elephant_r_b_t3_f3_o1_steady_state_expansion.html" target="_top" xlink:title="The structures are defined for an elliptic PDE with the following restrictions: 1. The number of thetas is equal to three (T3). 2. The problem contains four load vector (F4) and one output (O1). ">
<polygon fill="white" stroke="black" points="144.5,-637.5 144.5,-667.5 308.5,-667.5 308.5,-637.5 144.5,-637.5"/>
<text text-anchor="start" x="152.5" y="-655.5" font-family="Helvetica,sans-Serif" font-size="10.00">DwarfElephantRBT3F3O1Steady</text>
<text text-anchor="middle" x="226.5" y="-644.5" font-family="Helvetica,sans-Serif" font-size="10.00">StateExpansion</text>
</a>
</g>
</g>
<!-- Node1&#45;&gt;Node15 -->
<g id="edge14" class="edge"><title>Node1&#45;&gt;Node15</title>
<path fill="none" stroke="midnightblue" d="M113.268,-652.5C123.319,-652.5 133.88,-652.5 144.337,-652.5"/>
<polygon fill="midnightblue" stroke="midnightblue" points="113.004,-649 103.004,-652.5 113.004,-656 113.004,-649"/>
</g>
<!-- Node16 -->
<g id="node16" class="node"><title>Node16</title>
<g id="a_node16"><a xlink:href="struct_dwarf_elephant_r_b_t4_f1_o1_steady_state_expansion.html" target="_top" xlink:title="The structures are defined for an elliptic PDE with the following restrictions: 1. The number of thetas is equal to four (T4). 2. The problem contains one load vector (F1) and one output (O1). ">
<polygon fill="white" stroke="black" points="144.5,-588.5 144.5,-618.5 308.5,-618.5 308.5,-588.5 144.5,-588.5"/>
<text text-anchor="start" x="152.5" y="-606.5" font-family="Helvetica,sans-Serif" font-size="10.00">DwarfElephantRBT4F1O1Steady</text>
<text text-anchor="middle" x="226.5" y="-595.5" font-family="Helvetica,sans-Serif" font-size="10.00">StateExpansion</text>
</a>
</g>
</g>
<!-- Node1&#45;&gt;Node16 -->
<g id="edge15" class="edge"><title>Node1&#45;&gt;Node16</title>
<path fill="none" stroke="midnightblue" d="M96.1586,-640.134C119.322,-633.574 147.969,-625.46 172.41,-618.537"/>
<polygon fill="midnightblue" stroke="midnightblue" points="94.9345,-636.843 86.2668,-642.936 96.8422,-643.578 94.9345,-636.843"/>
</g>
<!-- Node17 -->
<g id="node17" class="node"><title>Node17</title>
<g id="a_node17"><a xlink:href="struct_dwarf_elephant_r_b_t4_f2_o1_steady_state_expansion.html" target="_top" xlink:title="The structures are defined for an elliptic PDE with the following restrictions: 1. The number of thetas is equal to four (T4). 2. The problem contains two load vectors (F2) and one output (O1). ">
<polygon fill="white" stroke="black" points="144.5,-539.5 144.5,-569.5 308.5,-569.5 308.5,-539.5 144.5,-539.5"/>
<text text-anchor="start" x="152.5" y="-557.5" font-family="Helvetica,sans-Serif" font-size="10.00">DwarfElephantRBT4F2O1Steady</text>
<text text-anchor="middle" x="226.5" y="-546.5" font-family="Helvetica,sans-Serif" font-size="10.00">StateExpansion</text>
</a>
</g>
</g>
<!-- Node1&#45;&gt;Node17 -->
<g id="edge16" class="edge"><title>Node1&#45;&gt;Node17</title>
<path fill="none" stroke="midnightblue" d="M68.2207,-635.61C84.4703,-619.089 111.303,-594.314 139,-579.5 146.168,-575.666 153.993,-572.358 161.912,-569.521"/>
<polygon fill="midnightblue" stroke="midnightblue" points="65.5446,-633.343 61.1363,-642.977 70.5904,-638.195 65.5446,-633.343"/>
</g>
<!-- Node18 -->
<g id="node18" class="node"><title>Node18</title>
<g id="a_node18"><a xlink:href="struct_dwarf_elephant_r_b_t4_f5_o10_steady_state_expansion.html" target="_top" xlink:title="The structures are defined for an elliptic PDE with the following restrictions: 1. The number of thetas is equal to four (T4). 2. The problem contains five load vectors (F5) and ten outputs (O10). ">
<polygon fill="white" stroke="black" points="142,-490.5 142,-520.5 311,-520.5 311,-490.5 142,-490.5"/>
<text text-anchor="start" x="150" y="-508.5" font-family="Helvetica,sans-Serif" font-size="10.00">DwarfElephantRBT4F5O10Steady</text>
<text text-anchor="middle" x="226.5" y="-497.5" font-family="Helvetica,sans-Serif" font-size="10.00">StateExpansion</text>
</a>
</g>
</g>
<!-- Node1&#45;&gt;Node18 -->
<g id="edge17" class="edge"><title>Node1&#45;&gt;Node18</title>
<path fill="none" stroke="midnightblue" d="M60.7699,-633.785C73.613,-606.888 100.9,-557.568 139,-530.5 144.48,-526.607 150.559,-523.317 156.882,-520.536"/>
<polygon fill="midnightblue" stroke="midnightblue" points="57.5747,-632.357 56.5625,-642.903 63.9305,-635.29 57.5747,-632.357"/>
</g>
<!-- Node19 -->
<g id="node19" class="node"><title>Node19</title>
<g id="a_node19"><a xlink:href="struct_dwarf_elephant_r_b_t5_f1_o1_steady_state_expansion.html" target="_top" xlink:title="The structures are defined for an elliptic PDE with the following restrictions: 1. The number of thetas is equal to five (T5). 2. The problem contains one load vector (F1) and one output (O1). ">
<polygon fill="white" stroke="black" points="144.5,-441.5 144.5,-471.5 308.5,-471.5 308.5,-441.5 144.5,-441.5"/>
<text text-anchor="start" x="152.5" y="-459.5" font-family="Helvetica,sans-Serif" font-size="10.00">DwarfElephantRBT5F1O1Steady</text>
<text text-anchor="middle" x="226.5" y="-448.5" font-family="Helvetica,sans-Serif" font-size="10.00">StateExpansion</text>
</a>
</g>
</g>
<!-- Node1&#45;&gt;Node19 -->
<g id="edge18" class="edge"><title>Node1&#45;&gt;Node19</title>
<path fill="none" stroke="midnightblue" d="M57.0208,-632.527C66.1542,-596.8 90.2239,-521.914 139,-481.5 143.694,-477.61 148.966,-474.326 154.53,-471.552"/>
<polygon fill="midnightblue" stroke="midnightblue" points="53.5196,-632.115 54.5679,-642.658 60.323,-633.763 53.5196,-632.115"/>
</g>
<!-- Node20 -->
<g id="node20" class="node"><title>Node20</title>
<g id="a_node20"><a xlink:href="struct_dwarf_elephant_r_b_t5_f3_o1_steady_state_expansion.html" target="_top" xlink:title="The structures are defined for an elliptic PDE with the following restrictions: 1. The number of thetas is equal to five (T5). 2. The problem contains three load vectors (F3) and one output (O1). ">
<polygon fill="white" stroke="black" points="144.5,-392.5 144.5,-422.5 308.5,-422.5 308.5,-392.5 144.5,-392.5"/>
<text text-anchor="start" x="152.5" y="-410.5" font-family="Helvetica,sans-Serif" font-size="10.00">DwarfElephantRBT5F3O1Steady</text>
<text text-anchor="middle" x="226.5" y="-399.5" font-family="Helvetica,sans-Serif" font-size="10.00">StateExpansion</text>
</a>
</g>
</g>
<!-- Node1&#45;&gt;Node20 -->
<g id="edge19" class="edge"><title>Node1&#45;&gt;Node20</title>
<path fill="none" stroke="midnightblue" d="M54.4591,-632.945C59.806,-590.133 78.5602,-487.55 139,-432.5 143.276,-428.605 148.123,-425.314 153.286,-422.534"/>
<polygon fill="midnightblue" stroke="midnightblue" points="50.9779,-632.582 53.3267,-642.913 57.9332,-633.372 50.9779,-632.582"/>
</g>
<!-- Node21 -->
<g id="node21" class="node"><title>Node21</title>
<g id="a_node21"><a xlink:href="struct_dwarf_elephant_r_b_t6_f1_o1_steady_state_expansion.html" target="_top" xlink:title="The structures are defined for an elliptic PDE with the following restrictions: 1. The number of thetas is equal to six (T5). 2. The problem contains one load vector (F1) and one output (O1). ">
<polygon fill="white" stroke="black" points="144.5,-343.5 144.5,-373.5 308.5,-373.5 308.5,-343.5 144.5,-343.5"/>
<text text-anchor="start" x="152.5" y="-361.5" font-family="Helvetica,sans-Serif" font-size="10.00">DwarfElephantRBT6F1O1Steady</text>
<text text-anchor="middle" x="226.5" y="-350.5" font-family="Helvetica,sans-Serif" font-size="10.00">StateExpansion</text>
</a>
</g>
</g>
<!-- Node1&#45;&gt;Node21 -->
<g id="edge20" class="edge"><title>Node1&#45;&gt;Node21</title>
<path fill="none" stroke="midnightblue" d="M52.8519,-632.752C54.8315,-583.352 66.9917,-453.396 139,-383.5 142.926,-379.689 147.395,-376.453 152.186,-373.706"/>
<polygon fill="midnightblue" stroke="midnightblue" points="49.3531,-632.662 52.5511,-642.763 56.3499,-632.872 49.3531,-632.662"/>
</g>
<!-- Node22 -->
<g id="node22" class="node"><title>Node22</title>
<g id="a_node22"><a xlink:href="struct_dwarf_elephant_r_b_t7_f8_o80_steady_state_expansion.html" target="_top" xlink:title="The structures are defined for an elliptic PDE with the following restrictions: 1. The number of thetas is equal to seven (T7). 2. The problem contains eight load vectors (F8) and 80 outputs (O80). ">
<polygon fill="white" stroke="black" points="142,-294.5 142,-324.5 311,-324.5 311,-294.5 142,-294.5"/>
<text text-anchor="start" x="150" y="-312.5" font-family="Helvetica,sans-Serif" font-size="10.00">DwarfElephantRBT7F8O80Steady</text>
<text text-anchor="middle" x="226.5" y="-301.5" font-family="Helvetica,sans-Serif" font-size="10.00">StateExpansion</text>
</a>
</g>
</g>
<!-- Node1&#45;&gt;Node22 -->
<g id="edge21" class="edge"><title>Node1&#45;&gt;Node22</title>
<path fill="none" stroke="midnightblue" d="M51.6882,-632.625C50.5596,-577.227 55.2519,-419.579 139,-334.5 142.838,-330.601 147.244,-327.301 151.99,-324.508"/>
<polygon fill="midnightblue" stroke="midnightblue" points="48.1959,-632.94 51.9911,-642.832 55.1928,-632.732 48.1959,-632.94"/>
</g>
<!-- Node23 -->
<g id="node23" class="node"><title>Node23</title>
<g id="a_node23"><a xlink:href="struct_dwarf_elephant_r_b_t8_f9_o10_steady_state_expansion.html" target="_top" xlink:title="The structures are defined for an elliptic PDE with the following restrictions: 1. The number of thetas is equal to eight (T8). 2. The problem contains nine load vectors (F9) and ten outputs (O10). ">
<polygon fill="white" stroke="black" points="142,-245.5 142,-275.5 311,-275.5 311,-245.5 142,-245.5"/>
<text text-anchor="start" x="150" y="-263.5" font-family="Helvetica,sans-Serif" font-size="10.00">DwarfElephantRBT8F9O10Steady</text>
<text text-anchor="middle" x="226.5" y="-252.5" font-family="Helvetica,sans-Serif" font-size="10.00">StateExpansion</text>
</a>
</g>
</g>
<!-- Node1&#45;&gt;Node23 -->
<g id="edge22" class="edge"><title>Node1&#45;&gt;Node23</title>
<path fill="none" stroke="midnightblue" d="M54.5566,-632.629C62.0679,-563.778 90.1637,-336.835 139,-285.5 142.663,-281.649 146.879,-278.38 151.437,-275.607"/>
<polygon fill="midnightblue" stroke="midnightblue" points="51.0387,-632.612 53.4596,-642.926 57.9993,-633.353 51.0387,-632.612"/>
</g>
<!-- Node24 -->
<g id="node24" class="node"><title>Node24</title>
<g id="a_node24"><a xlink:href="struct_dwarf_elephant_r_b_t8_f9_o1_steady_state_expansion.html" target="_top" xlink:title="The structures are defined for an elliptic PDE with the following restrictions: 1. The number of thetas is equal to eight (T8). 2. The problem contains nine load vectors (F9) and one output (O1). ">
<polygon fill="white" stroke="black" points="144.5,-196.5 144.5,-226.5 308.5,-226.5 308.5,-196.5 144.5,-196.5"/>
<text text-anchor="start" x="152.5" y="-214.5" font-family="Helvetica,sans-Serif" font-size="10.00">DwarfElephantRBT8F9O1Steady</text>
<text text-anchor="middle" x="226.5" y="-203.5" font-family="Helvetica,sans-Serif" font-size="10.00">StateExpansion</text>
</a>
</g>
</g>
<!-- Node1&#45;&gt;Node24 -->
<g id="edge23" class="edge"><title>Node1&#45;&gt;Node24</title>
<path fill="none" stroke="midnightblue" d="M53.9748,-632.445C59.8743,-557.577 84.1561,-295.699 139,-236.5 142.506,-232.716 146.545,-229.492 150.922,-226.746"/>
<polygon fill="midnightblue" stroke="midnightblue" points="50.4561,-632.558 53.184,-642.796 57.4357,-633.092 50.4561,-632.558"/>
</g>
<!-- Node25 -->
<g id="node25" class="node"><title>Node25</title>
<g id="a_node25"><a xlink:href="struct_dwarf_elephant_r_b_t8_f9_o20_steady_state_expansion.html" target="_top" xlink:title="The structures are defined for an elliptic PDE with the following restrictions: 1. The number of thetas is equal to eight (T8). 2. The problem contains nine load vectors (F9) and twenty outputs (O20). ">
<polygon fill="white" stroke="black" points="142,-147.5 142,-177.5 311,-177.5 311,-147.5 142,-147.5"/>
<text text-anchor="start" x="150" y="-165.5" font-family="Helvetica,sans-Serif" font-size="10.00">DwarfElephantRBT8F9O20Steady</text>
<text text-anchor="middle" x="226.5" y="-154.5" font-family="Helvetica,sans-Serif" font-size="10.00">StateExpansion</text>
</a>
</g>
</g>
<!-- Node1&#45;&gt;Node25 -->
<g id="edge24" class="edge"><title>Node1&#45;&gt;Node25</title>
<path fill="none" stroke="midnightblue" d="M53.4827,-632.706C57.844,-552.757 78.0059,-254.746 139,-187.5 142.466,-183.679 146.475,-180.428 150.831,-177.663"/>
<polygon fill="midnightblue" stroke="midnightblue" points="49.9785,-632.697 52.9509,-642.866 56.9689,-633.063 49.9785,-632.697"/>
</g>
<!-- Node26 -->
<g id="node26" class="node"><title>Node26</title>
<g id="a_node26"><a xlink:href="struct_dwarf_elephant_r_b_t9_f10_o80_steady_state_expansion.html" target="_top" xlink:title="The structures are defined for an elliptic PDE with the following restrictions: 1. The number of thetas is equal to nine (T9). 2. The problem contains two load vectors (F2) and 80 outputs (O80). ">
<polygon fill="white" stroke="black" points="139,-98.5 139,-128.5 314,-128.5 314,-98.5 139,-98.5"/>
<text text-anchor="start" x="147" y="-116.5" font-family="Helvetica,sans-Serif" font-size="10.00">DwarfElephantRBT9F10O80Steady</text>
<text text-anchor="middle" x="226.5" y="-105.5" font-family="Helvetica,sans-Serif" font-size="10.00">StateExpansion</text>
</a>
</g>
</g>
<!-- Node1&#45;&gt;Node26 -->
<g id="edge25" class="edge"><title>Node1&#45;&gt;Node26</title>
<path fill="none" stroke="midnightblue" d="M53.104,-632.559C56.0875,-547.226 71.9307,-213.734 139,-138.5 142.433,-134.649 146.418,-131.376 150.756,-128.595"/>
<polygon fill="midnightblue" stroke="midnightblue" points="49.6011,-632.595 52.7704,-642.704 56.5973,-632.825 49.6011,-632.595"/>
</g>
<!-- Node27 -->
<g id="node27" class="node"><title>Node27</title>
<g id="a_node27"><a xlink:href="struct_dwarf_elephant_r_b_t9_f10_o900_steady_state_expansion.html" target="_top" xlink:title="The structures are defined for an elliptic PDE with the following restrictions: 1. The number of thetas is equal to nine (T9). 2. The problem contains two load vectors (F2) and 80 outputs (O80). ">
<polygon fill="white" stroke="black" points="152,-49.5 152,-79.5 301,-79.5 301,-49.5 152,-49.5"/>
<text text-anchor="start" x="160" y="-67.5" font-family="Helvetica,sans-Serif" font-size="10.00">DwarfElephantRBT9F10O900</text>
<text text-anchor="middle" x="226.5" y="-56.5" font-family="Helvetica,sans-Serif" font-size="10.00">SteadyStateExpansion</text>
</a>
</g>
</g>
<!-- Node1&#45;&gt;Node27 -->
<g id="edge26" class="edge"><title>Node1&#45;&gt;Node27</title>
<path fill="none" stroke="midnightblue" d="M52.7858,-632.42C54.4782,-541.919 65.8331,-172.763 139,-89.5 142.715,-85.2727 147.095,-81.74 151.881,-78.79"/>
<polygon fill="midnightblue" stroke="midnightblue" points="49.2822,-632.609 52.6146,-642.667 56.2813,-632.726 49.2822,-632.609"/>
</g>
<!-- Node28 -->
<g id="node28" class="node"><title>Node28</title>
<g id="a_node28"><a xlink:href="struct_dwarf_elephant_r_b_t9_f2_o80_steady_state_expansion.html" target="_top" xlink:title="The structures are defined for an elliptic PDE with the following restrictions: 1. The number of thetas is equal to nine (T9). 2. The problem contains two load vectors (F2) and 80 outputs (O80). ">
<polygon fill="white" stroke="black" points="142,-0.5 142,-30.5 311,-30.5 311,-0.5 142,-0.5"/>
<text text-anchor="start" x="150" y="-18.5" font-family="Helvetica,sans-Serif" font-size="10.00">DwarfElephantRBT9F2O80Steady</text>
<text text-anchor="middle" x="226.5" y="-7.5" font-family="Helvetica,sans-Serif" font-size="10.00">StateExpansion</text>
</a>
</g>
</g>
<!-- Node1&#45;&gt;Node28 -->
<g id="edge27" class="edge"><title>Node1&#45;&gt;Node28</title>
<path fill="none" stroke="midnightblue" d="M52.5128,-632.514C52.9789,-537.455 59.6531,-131.899 139,-40.5 142.279,-36.7226 146.09,-33.4989 150.249,-30.7496"/>
<polygon fill="midnightblue" stroke="midnightblue" points="49.0123,-632.733 52.4821,-642.743 56.0122,-632.754 49.0123,-632.733"/>
</g>
</g>
</svg>
