<?xml version="1.0" encoding="UTF-8" standalone="no"?>
<!DOCTYPE svg PUBLIC "-//W3C//DTD SVG 1.1//EN"
 "http://www.w3.org/Graphics/SVG/1.1/DTD/svg11.dtd">
<!-- Generated by graphviz version 2.38.0 (20140413.2041)
 -->
<!-- Title: Graphical Class Hierarchy Pages: 1 -->
<svg width="352pt" height="137pt"
 viewBox="0.00 0.00 352.00 137.00" xmlns="http://www.w3.org/2000/svg" xmlns:xlink="http://www.w3.org/1999/xlink">
<g id="graph0" class="graph" transform="scale(1 1) rotate(0) translate(4 133)">
<title>Graphical Class Hierarchy</title>
<polygon fill="white" stroke="none" points="-4,4 -4,-133 348,-133 348,4 -4,4"/>
<!-- Node1 -->
<g id="node1" class="node"><title>Node1</title>
<polygon fill="white" stroke="#bfbfbf" points="0,-55 0,-74 145,-74 145,-55 0,-55"/>
<text text-anchor="middle" x="72.5" y="-62" font-family="Helvetica,sans-Serif" font-size="10.00">GeneralVectorPostprocessor</text>
</g>
<!-- Node2 -->
<g id="node2" class="node"><title>Node2</title>
<g id="a_node2"><a xlink:href="class_dwarf_elephant_all_elemental_variable_values.html" target="_top" xlink:title="This VectorPostprocessor returns all of the elemental variable values of the mesh. ">
<polygon fill="white" stroke="black" points="193.5,-98.5 193.5,-128.5 331.5,-128.5 331.5,-98.5 193.5,-98.5"/>
<text text-anchor="start" x="201.5" y="-116.5" font-family="Helvetica,sans-Serif" font-size="10.00">DwarfElephantAllElemental</text>
<text text-anchor="middle" x="262.5" y="-105.5" font-family="Helvetica,sans-Serif" font-size="10.00">VariableValues</text>
</a>
</g>
</g>
<!-- Node1&#45;&gt;Node2 -->
<g id="edge1" class="edge"><title>Node1&#45;&gt;Node2</title>
<path fill="none" stroke="midnightblue" d="M119.931,-76.6018C145.277,-83.208 176.889,-91.4471 203.807,-98.463"/>
<polygon fill="midnightblue" stroke="midnightblue" points="120.754,-73.1994 110.195,-74.064 118.989,-79.9731 120.754,-73.1994"/>
</g>
<!-- Node3 -->
<g id="node3" class="node"><title>Node3</title>
<g id="a_node3"><a xlink:href="class_dwarf_elephant_elemental_variable_values_along_line.html" target="_top" xlink:title="Get all of the elements that are intersected by a line. ">
<polygon fill="white" stroke="black" points="181,-49.5 181,-79.5 344,-79.5 344,-49.5 181,-49.5"/>
<text text-anchor="start" x="189" y="-67.5" font-family="Helvetica,sans-Serif" font-size="10.00">DwarfElephantElementalVariable</text>
<text text-anchor="middle" x="262.5" y="-56.5" font-family="Helvetica,sans-Serif" font-size="10.00">ValuesAlongLine</text>
</a>
</g>
</g>
<!-- Node1&#45;&gt;Node3 -->
<g id="edge2" class="edge"><title>Node1&#45;&gt;Node3</title>
<path fill="none" stroke="midnightblue" d="M155.384,-64.5C163.876,-64.5 172.503,-64.5 180.98,-64.5"/>
<polygon fill="midnightblue" stroke="midnightblue" points="155.111,-61.0001 145.111,-64.5 155.111,-68.0001 155.111,-61.0001"/>
</g>
<!-- Node4 -->
<g id="node4" class="node"><title>Node4</title>
<g id="a_node4"><a xlink:href="class_dwarf_elephant_f_e_file_point_values.html" target="_top" xlink:title="Extract the values of the physical points given by a text file. ">
<polygon fill="white" stroke="black" points="195.5,-0.5 195.5,-30.5 329.5,-30.5 329.5,-0.5 195.5,-0.5"/>
<text text-anchor="start" x="203.5" y="-18.5" font-family="Helvetica,sans-Serif" font-size="10.00">DwarfElephantFEFilePoint</text>
<text text-anchor="middle" x="262.5" y="-7.5" font-family="Helvetica,sans-Serif" font-size="10.00">Values</text>
</a>
</g>
</g>
<!-- Node1&#45;&gt;Node4 -->
<g id="edge3" class="edge"><title>Node1&#45;&gt;Node4</title>
<path fill="none" stroke="midnightblue" d="M119.931,-52.3982C145.277,-45.792 176.889,-37.5529 203.807,-30.537"/>
<polygon fill="midnightblue" stroke="midnightblue" points="118.989,-49.0269 110.195,-54.936 120.754,-55.8006 118.989,-49.0269"/>
</g>
</g>
</svg>
