<?xml version="1.0" encoding="UTF-8" standalone="no"?>
<!DOCTYPE svg PUBLIC "-//W3C//DTD SVG 1.1//EN"
 "http://www.w3.org/Graphics/SVG/1.1/DTD/svg11.dtd">
<!-- Generated by graphviz version 2.38.0 (20140413.2041)
 -->
<!-- Title: Graphical Class Hierarchy Pages: 1 -->
<svg width="228pt" height="142pt"
 viewBox="0.00 0.00 228.00 142.00" xmlns="http://www.w3.org/2000/svg" xmlns:xlink="http://www.w3.org/1999/xlink">
<g id="graph0" class="graph" transform="scale(1 1) rotate(0) translate(4 138)">
<title>Graphical Class Hierarchy</title>
<polygon fill="white" stroke="none" points="-4,4 -4,-138 224,-138 224,4 -4,4"/>
<!-- Node1 -->
<g id="node1" class="node"><title>Node1</title>
<polygon fill="white" stroke="#bfbfbf" points="0,-57.5 0,-76.5 52,-76.5 52,-57.5 0,-57.5"/>
<text text-anchor="middle" x="26" y="-64.5" font-family="Helvetica,sans-Serif" font-size="10.00">Material</text>
</g>
<!-- Node2 -->
<g id="node2" class="node"><title>Node2</title>
<g id="a_node2"><a xlink:href="class_dwarf_elephant_fault.html" target="_top" xlink:title="Fault inherits from the MOOSE class Material and overrides computeQpProperties. Within the Class Faul...">
<polygon fill="white" stroke="black" points="102,-114.5 102,-133.5 206,-133.5 206,-114.5 102,-114.5"/>
<text text-anchor="middle" x="154" y="-121.5" font-family="Helvetica,sans-Serif" font-size="10.00">DwarfElephantFault</text>
</a>
</g>
</g>
<!-- Node1&#45;&gt;Node2 -->
<g id="edge1" class="edge"><title>Node1&#45;&gt;Node2</title>
<path fill="none" stroke="midnightblue" d="M48.358,-82.3155C59.7157,-89.9317 74.1608,-98.8073 88,-105 96.156,-108.65 105.198,-111.807 113.881,-114.442"/>
<polygon fill="midnightblue" stroke="midnightblue" points="50.2042,-79.3374 39.9819,-76.5528 46.2366,-85.1044 50.2042,-79.3374"/>
</g>
<!-- Node3 -->
<g id="node3" class="node"><title>Node3</title>
<g id="a_node3"><a xlink:href="class_dwarf_elephant_sand_stone.html" target="_top" xlink:title="SandStone inherits from the MOOSE class Material and overrides computeQpProperties. Within the Class SandStone the typical rock properties of a sandstone are stored. ">
<polygon fill="white" stroke="black" points="88,-76.5 88,-95.5 220,-95.5 220,-76.5 88,-76.5"/>
<text text-anchor="middle" x="154" y="-83.5" font-family="Helvetica,sans-Serif" font-size="10.00">DwarfElephantSandStone</text>
</a>
</g>
</g>
<!-- Node1&#45;&gt;Node3 -->
<g id="edge2" class="edge"><title>Node1&#45;&gt;Node3</title>
<path fill="none" stroke="midnightblue" d="M62.2061,-72.3089C70.8125,-73.6066 80.2844,-75.035 89.7635,-76.4643"/>
<polygon fill="midnightblue" stroke="midnightblue" points="62.6053,-68.8296 52.1951,-70.7993 61.5615,-75.7513 62.6053,-68.8296"/>
</g>
<!-- Node4 -->
<g id="node4" class="node"><title>Node4</title>
<g id="a_node4"><a xlink:href="class_dwarf_elephant_shale.html" target="_top" xlink:title="Shale inherits from the MOOSE class Material and overrides computeQpProperties. Within the class Shal...">
<polygon fill="white" stroke="black" points="100,-38.5 100,-57.5 208,-57.5 208,-38.5 100,-38.5"/>
<text text-anchor="middle" x="154" y="-45.5" font-family="Helvetica,sans-Serif" font-size="10.00">DwarfElephantShale</text>
</a>
</g>
</g>
<!-- Node1&#45;&gt;Node4 -->
<g id="edge3" class="edge"><title>Node1&#45;&gt;Node4</title>
<path fill="none" stroke="midnightblue" d="M62.4041,-61.6613C74.0685,-59.9024 87.3059,-57.9063 99.989,-55.9937"/>
<polygon fill="midnightblue" stroke="midnightblue" points="61.5615,-58.2487 52.1951,-63.2007 62.6053,-65.1704 61.5615,-58.2487"/>
</g>
<!-- Node5 -->
<g id="node5" class="node"><title>Node5</title>
<g id="a_node5"><a xlink:href="class_extract_qp_points.html" target="_top" xlink:title="ExtractQpPoints">
<polygon fill="white" stroke="black" points="109.5,-0.5 109.5,-19.5 198.5,-19.5 198.5,-0.5 109.5,-0.5"/>
<text text-anchor="middle" x="154" y="-7.5" font-family="Helvetica,sans-Serif" font-size="10.00">ExtractQpPoints</text>
</a>
</g>
</g>
<!-- Node1&#45;&gt;Node5 -->
<g id="edge4" class="edge"><title>Node1&#45;&gt;Node5</title>
<path fill="none" stroke="midnightblue" d="M48.358,-51.6845C59.7157,-44.0683 74.1608,-35.1927 88,-29 96.156,-25.3504 105.198,-22.1932 113.881,-19.5577"/>
<polygon fill="midnightblue" stroke="midnightblue" points="46.2366,-48.8956 39.9819,-57.4472 50.2042,-54.6626 46.2366,-48.8956"/>
</g>
</g>
</svg>
