<?xml version="1.0" encoding="UTF-8" standalone="no"?>
<!DOCTYPE svg PUBLIC "-//W3C//DTD SVG 1.1//EN"
 "http://www.w3.org/Graphics/SVG/1.1/DTD/svg11.dtd">
<!-- Generated by graphviz version 2.38.0 (20140413.2041)
 -->
<!-- Title: Graphical Class Hierarchy Pages: 1 -->
<svg width="266pt" height="88pt"
 viewBox="0.00 0.00 266.00 88.00" xmlns="http://www.w3.org/2000/svg" xmlns:xlink="http://www.w3.org/1999/xlink">
<g id="graph0" class="graph" transform="scale(1 1) rotate(0) translate(4 84)">
<title>Graphical Class Hierarchy</title>
<polygon fill="white" stroke="none" points="-4,4 -4,-84 262,-84 262,4 -4,4"/>
<!-- Node1 -->
<g id="node1" class="node"><title>Node1</title>
<polygon fill="white" stroke="#bfbfbf" points="0,-30 0,-49 55,-49 55,-30 0,-30"/>
<text text-anchor="middle" x="27.5" y="-37" font-family="Helvetica,sans-Serif" font-size="10.00">Function</text>
</g>
<!-- Node2 -->
<g id="node2" class="node"><title>Node2</title>
<g id="a_node2"><a xlink:href="class_dwarf_elephant_boundary_condition_file_reader.html" target="_top" xlink:title="This function is responsible for reading boundary condition values from file. ">
<polygon fill="white" stroke="black" points="91,-49.5 91,-79.5 258,-79.5 258,-49.5 91,-49.5"/>
<text text-anchor="start" x="99" y="-67.5" font-family="Helvetica,sans-Serif" font-size="10.00">DwarfElephantBoundaryCondition</text>
<text text-anchor="middle" x="174.5" y="-56.5" font-family="Helvetica,sans-Serif" font-size="10.00">FileReader</text>
</a>
</g>
</g>
<!-- Node1&#45;&gt;Node2 -->
<g id="edge1" class="edge"><title>Node1&#45;&gt;Node2</title>
<path fill="none" stroke="midnightblue" d="M65.1325,-45.816C73.1468,-47.1977 81.9427,-48.7143 90.9497,-50.2672"/>
<polygon fill="midnightblue" stroke="midnightblue" points="65.5445,-42.3354 55.0952,-44.0854 64.3551,-49.2336 65.5445,-42.3354"/>
</g>
<!-- Node3 -->
<g id="node3" class="node"><title>Node3</title>
<g id="a_node3"><a xlink:href="class_dwarf_elephant_initial_condition_file_reader.html" target="_top" xlink:title="This function is responsible for reading initial condition values from file. ">
<polygon fill="white" stroke="black" points="100.5,-0.5 100.5,-30.5 248.5,-30.5 248.5,-0.5 100.5,-0.5"/>
<text text-anchor="start" x="108.5" y="-18.5" font-family="Helvetica,sans-Serif" font-size="10.00">DwarfElephantInitialCondition</text>
<text text-anchor="middle" x="174.5" y="-7.5" font-family="Helvetica,sans-Serif" font-size="10.00">FileReader</text>
</a>
</g>
</g>
<!-- Node1&#45;&gt;Node3 -->
<g id="edge2" class="edge"><title>Node1&#45;&gt;Node3</title>
<path fill="none" stroke="midnightblue" d="M65.0156,-33.456C75.872,-31.6591 88.1706,-29.6235 100.489,-27.5846"/>
<polygon fill="midnightblue" stroke="midnightblue" points="64.3894,-30.012 55.0952,-35.098 65.5326,-36.918 64.3894,-30.012"/>
</g>
</g>
</svg>
