<?xml version="1.0" encoding="UTF-8" standalone="no"?>
<!DOCTYPE svg PUBLIC "-//W3C//DTD SVG 1.1//EN"
 "http://www.w3.org/Graphics/SVG/1.1/DTD/svg11.dtd">
<!-- Generated by graphviz version 2.38.0 (20140413.2041)
 -->
<!-- Title: Graphical Class Hierarchy Pages: 1 -->
<svg width="281pt" height="165pt"
 viewBox="0.00 0.00 281.00 164.50" xmlns="http://www.w3.org/2000/svg" xmlns:xlink="http://www.w3.org/1999/xlink">
<g id="graph0" class="graph" transform="scale(1 1) rotate(0) translate(4 160.5)">
<title>Graphical Class Hierarchy</title>
<polygon fill="white" stroke="none" points="-4,4 -4,-160.5 277,-160.5 277,4 -4,4"/>
<!-- Node1 -->
<g id="node1" class="node"><title>Node1</title>
<polygon fill="white" stroke="#bfbfbf" points="0,-60.5 0,-79.5 55,-79.5 55,-60.5 0,-60.5"/>
<text text-anchor="middle" x="27.5" y="-67.5" font-family="Helvetica,sans-Serif" font-size="10.00">Diffusion</text>
</g>
<!-- Node2 -->
<g id="node2" class="node"><title>Node2</title>
<g id="a_node2"><a xlink:href="class_dwarf_elephant_f_e_electrical_conduction.html" target="_top" xlink:title="This Kernel is implements a thermal conduction problem using the full Finite Element solution...">
<polygon fill="white" stroke="black" points="114.5,-126 114.5,-156 249.5,-156 249.5,-126 114.5,-126"/>
<text text-anchor="start" x="122.5" y="-144" font-family="Helvetica,sans-Serif" font-size="10.00">DwarfElephantFEElectrical</text>
<text text-anchor="middle" x="182" y="-133" font-family="Helvetica,sans-Serif" font-size="10.00">Conduction</text>
</a>
</g>
</g>
<!-- Node1&#45;&gt;Node2 -->
<g id="edge1" class="edge"><title>Node1&#45;&gt;Node2</title>
<path fill="none" stroke="midnightblue" d="M46.52,-86.523C58.3858,-96.6172 74.6916,-109.068 91,-117 98.2711,-120.536 106.135,-123.607 114.083,-126.259"/>
<polygon fill="midnightblue" stroke="midnightblue" points="48.5537,-83.6511 38.7281,-79.6876 43.9375,-88.9133 48.5537,-83.6511"/>
</g>
<!-- Node3 -->
<g id="node3" class="node"><title>Node3</title>
<g id="a_node3"><a xlink:href="class_dwarf_elephant_f_e_lifting_function_kernel.html" target="_top" xlink:title="This Kernel is implements the concept of the lifting function to avoid problems caused by non&#45;homogen...">
<polygon fill="white" stroke="black" points="102,-77 102,-107 262,-107 262,-77 102,-77"/>
<text text-anchor="start" x="110" y="-95" font-family="Helvetica,sans-Serif" font-size="10.00">DwarfElephantFELiftingFunction</text>
<text text-anchor="middle" x="182" y="-84" font-family="Helvetica,sans-Serif" font-size="10.00">Kernel</text>
</a>
</g>
</g>
<!-- Node1&#45;&gt;Node3 -->
<g id="edge2" class="edge"><title>Node1&#45;&gt;Node3</title>
<path fill="none" stroke="midnightblue" d="M65.2479,-75.3013C76.4196,-76.913 89.1542,-78.7501 101.993,-80.6023"/>
<polygon fill="midnightblue" stroke="midnightblue" points="65.4608,-71.7959 55.0635,-73.8321 64.4612,-78.7242 65.4608,-71.7959"/>
</g>
<!-- Node4 -->
<g id="node4" class="node"><title>Node4</title>
<g id="a_node4"><a xlink:href="class_dwarf_elephant_f_e_thermal_conduction.html" target="_top" xlink:title="This Kernel is implements a thermal conduction problem using the full Finite Element solution...">
<polygon fill="white" stroke="black" points="91,-38.5 91,-57.5 273,-57.5 273,-38.5 91,-38.5"/>
<text text-anchor="middle" x="182" y="-45.5" font-family="Helvetica,sans-Serif" font-size="10.00">DwarfElephantFEThermalConduction</text>
</a>
</g>
</g>
<!-- Node1&#45;&gt;Node4 -->
<g id="edge3" class="edge"><title>Node1&#45;&gt;Node4</title>
<path fill="none" stroke="midnightblue" d="M64.9696,-64.7388C80.0033,-62.57 97.9027,-59.9878 115.088,-57.5086"/>
<polygon fill="midnightblue" stroke="midnightblue" points="64.4612,-61.2758 55.0635,-66.1679 65.4608,-68.2041 64.4612,-61.2758"/>
</g>
<!-- Node5 -->
<g id="node5" class="node"><title>Node5</title>
<g id="a_node5"><a xlink:href="class_extract_qp_points_kernel.html" target="_top" xlink:title="ExtractQpPointsKernel">
<polygon fill="white" stroke="black" points="123,-0.5 123,-19.5 241,-19.5 241,-0.5 123,-0.5"/>
<text text-anchor="middle" x="182" y="-7.5" font-family="Helvetica,sans-Serif" font-size="10.00">ExtractQpPointsKernel</text>
</a>
</g>
</g>
<!-- Node1&#45;&gt;Node5 -->
<g id="edge4" class="edge"><title>Node1&#45;&gt;Node5</title>
<path fill="none" stroke="midnightblue" d="M48.3864,-54.1846C60.1611,-45.5514 75.724,-35.3565 91,-29 101.026,-24.8281 112.076,-21.532 122.898,-18.9407"/>
<polygon fill="midnightblue" stroke="midnightblue" points="46.0475,-51.5654 40.1881,-60.3926 50.2733,-57.146 46.0475,-51.5654"/>
</g>
</g>
</svg>
