<?xml version="1.0" encoding="UTF-8" standalone="no"?>
<!DOCTYPE svg PUBLIC "-//W3C//DTD SVG 1.1//EN"
 "http://www.w3.org/Graphics/SVG/1.1/DTD/svg11.dtd">
<!-- Generated by graphviz version 2.38.0 (20140413.2041)
 -->
<!-- Title: Graphical Class Hierarchy Pages: 1 -->
<svg width="318pt" height="460pt"
 viewBox="0.00 0.00 318.00 459.50" xmlns="http://www.w3.org/2000/svg" xmlns:xlink="http://www.w3.org/1999/xlink">
<g id="graph0" class="graph" transform="scale(1 1) rotate(0) translate(4 455.5)">
<title>Graphical Class Hierarchy</title>
<polygon fill="white" stroke="none" points="-4,4 -4,-455.5 314,-455.5 314,4 -4,4"/>
<!-- Node1 -->
<g id="node1" class="node"><title>Node1</title>
<polygon fill="white" stroke="#bfbfbf" points="0,-216 0,-235 102,-235 102,-216 0,-216"/>
<text text-anchor="middle" x="51" y="-223" font-family="Helvetica,sans-Serif" font-size="10.00">GeneralUserObject</text>
</g>
<!-- Node2 -->
<g id="node2" class="node"><title>Node2</title>
<g id="a_node2"><a xlink:href="class_dwarf_elephant_e_r_t_pre_calculations.html" target="_top" xlink:title="DwarfElephantERTPreCalculations">
<polygon fill="white" stroke="black" points="138,-432 138,-451 310,-451 310,-432 138,-432"/>
<text text-anchor="middle" x="224" y="-439" font-family="Helvetica,sans-Serif" font-size="10.00">DwarfElephantERTPreCalculations</text>
</a>
</g>
</g>
<!-- Node1&#45;&gt;Node2 -->
<g id="edge1" class="edge"><title>Node1&#45;&gt;Node2</title>
<path fill="none" stroke="midnightblue" d="M54.6478,-245.16C61.1139,-285.114 81.5373,-375.942 138,-422.5 142.667,-426.348 147.95,-429.457 153.544,-431.965"/>
<polygon fill="midnightblue" stroke="midnightblue" points="58.0861,-244.486 53.1477,-235.113 51.1628,-245.52 58.0861,-244.486"/>
</g>
<!-- Node3 -->
<g id="node3" class="node"><title>Node3</title>
<g id="a_node3"><a xlink:href="class_dwarf_elephant_initialize_r_b_system_steady_state.html" target="_top" xlink:title="This UserObject is required to initialitze the RB system structure and transfer for the steady state ...">
<polygon fill="white" stroke="black" points="141.5,-382.5 141.5,-412.5 306.5,-412.5 306.5,-382.5 141.5,-382.5"/>
<text text-anchor="start" x="149.5" y="-400.5" font-family="Helvetica,sans-Serif" font-size="10.00">DwarfElephantInitializeRBSystem</text>
<text text-anchor="middle" x="224" y="-389.5" font-family="Helvetica,sans-Serif" font-size="10.00">SteadyState</text>
</a>
</g>
</g>
<!-- Node1&#45;&gt;Node3 -->
<g id="edge2" class="edge"><title>Node1&#45;&gt;Node3</title>
<path fill="none" stroke="midnightblue" d="M57.9668,-245.014C68.7002,-276.801 94.3121,-339.608 138,-373.5 142.483,-376.978 147.445,-379.951 152.655,-382.494"/>
<polygon fill="midnightblue" stroke="midnightblue" points="61.1892,-243.603 54.7855,-235.162 54.5279,-245.754 61.1892,-243.603"/>
</g>
<!-- Node4 -->
<g id="node4" class="node"><title>Node4</title>
<g id="a_node4"><a xlink:href="class_dwarf_elephant_initialize_r_b_system_transient.html" target="_top" xlink:title="This UserObject is required to initialitze the RB system structure and transfer for the transient cas...">
<polygon fill="white" stroke="black" points="141.5,-333.5 141.5,-363.5 306.5,-363.5 306.5,-333.5 141.5,-333.5"/>
<text text-anchor="start" x="149.5" y="-351.5" font-family="Helvetica,sans-Serif" font-size="10.00">DwarfElephantInitializeRBSystem</text>
<text text-anchor="middle" x="224" y="-340.5" font-family="Helvetica,sans-Serif" font-size="10.00">Transient</text>
</a>
</g>
</g>
<!-- Node1&#45;&gt;Node4 -->
<g id="edge3" class="edge"><title>Node1&#45;&gt;Node4</title>
<path fill="none" stroke="midnightblue" d="M62.927,-243.56C77.3593,-265.879 104.862,-303.476 138,-324.5 143.438,-327.95 149.38,-330.914 155.513,-333.459"/>
<polygon fill="midnightblue" stroke="midnightblue" points="65.847,-241.629 57.5636,-235.023 59.9197,-245.352 65.847,-241.629"/>
</g>
<!-- Node5 -->
<g id="node5" class="node"><title>Node5</title>
<g id="a_node5"><a xlink:href="class_dwarf_elephant_offline_online_stage_steady_state.html" target="_top" xlink:title="This UserObject implements the Offline and Online stage of the RB method for the steady state case...">
<polygon fill="white" stroke="black" points="154,-284.5 154,-314.5 294,-314.5 294,-284.5 154,-284.5"/>
<text text-anchor="start" x="162" y="-302.5" font-family="Helvetica,sans-Serif" font-size="10.00">DwarfElephantOfflineOnline</text>
<text text-anchor="middle" x="224" y="-291.5" font-family="Helvetica,sans-Serif" font-size="10.00">StageSteadyState</text>
</a>
</g>
</g>
<!-- Node1&#45;&gt;Node5 -->
<g id="edge4" class="edge"><title>Node1&#45;&gt;Node5</title>
<path fill="none" stroke="midnightblue" d="M74.6299,-240.779C91.5141,-251.643 115.46,-265.946 138,-275.5 145.765,-278.791 154.117,-281.776 162.445,-284.434"/>
<polygon fill="midnightblue" stroke="midnightblue" points="76.3137,-237.698 66.03,-235.149 72.4797,-243.554 76.3137,-237.698"/>
</g>
<!-- Node6 -->
<g id="node6" class="node"><title>Node6</title>
<g id="a_node6"><a xlink:href="class_dwarf_elephant_offline_online_stage_transient.html" target="_top" xlink:title="This UserObject implements the Offline and Online stage of the RB method for the transient case...">
<polygon fill="white" stroke="black" points="154,-235.5 154,-265.5 294,-265.5 294,-235.5 154,-235.5"/>
<text text-anchor="start" x="162" y="-253.5" font-family="Helvetica,sans-Serif" font-size="10.00">DwarfElephantOfflineOnline</text>
<text text-anchor="middle" x="224" y="-242.5" font-family="Helvetica,sans-Serif" font-size="10.00">StageTransient</text>
</a>
</g>
</g>
<!-- Node1&#45;&gt;Node6 -->
<g id="edge5" class="edge"><title>Node1&#45;&gt;Node6</title>
<path fill="none" stroke="midnightblue" d="M112.452,-234.338C125.886,-236.302 140.224,-238.398 153.971,-240.408"/>
<polygon fill="midnightblue" stroke="midnightblue" points="112.782,-230.849 102.381,-232.866 111.769,-237.775 112.782,-230.849"/>
</g>
<!-- Node7 -->
<g id="node7" class="node"><title>Node7</title>
<g id="a_node7"><a xlink:href="class_dwarf_elephant_r_b_elemental_variable_value.html" target="_top" xlink:title="DwarfElephantRBElemental\lVariableValue">
<polygon fill="white" stroke="black" points="154,-186.5 154,-216.5 294,-216.5 294,-186.5 154,-186.5"/>
<text text-anchor="start" x="162" y="-204.5" font-family="Helvetica,sans-Serif" font-size="10.00">DwarfElephantRBElemental</text>
<text text-anchor="middle" x="224" y="-193.5" font-family="Helvetica,sans-Serif" font-size="10.00">VariableValue</text>
</a>
</g>
</g>
<!-- Node1&#45;&gt;Node7 -->
<g id="edge6" class="edge"><title>Node1&#45;&gt;Node7</title>
<path fill="none" stroke="midnightblue" d="M112.452,-217.015C125.886,-215.13 140.224,-213.118 153.971,-211.188"/>
<polygon fill="midnightblue" stroke="midnightblue" points="111.797,-213.573 102.381,-218.429 112.77,-220.505 111.797,-213.573"/>
</g>
<!-- Node8 -->
<g id="node8" class="node"><title>Node8</title>
<g id="a_node8"><a xlink:href="class_dwarf_elephant_r_b_file_point_values.html" target="_top" xlink:title="DwarfElephantRBFilePoint\lValues">
<polygon fill="white" stroke="black" points="156.5,-137.5 156.5,-167.5 291.5,-167.5 291.5,-137.5 156.5,-137.5"/>
<text text-anchor="start" x="164.5" y="-155.5" font-family="Helvetica,sans-Serif" font-size="10.00">DwarfElephantRBFilePoint</text>
<text text-anchor="middle" x="224" y="-144.5" font-family="Helvetica,sans-Serif" font-size="10.00">Values</text>
</a>
</g>
</g>
<!-- Node1&#45;&gt;Node8 -->
<g id="edge7" class="edge"><title>Node1&#45;&gt;Node8</title>
<path fill="none" stroke="midnightblue" d="M75.3531,-210.588C92.2566,-200.267 115.919,-186.772 138,-177.5 146.651,-173.867 156.006,-170.546 165.237,-167.595"/>
<polygon fill="midnightblue" stroke="midnightblue" points="73.3638,-207.703 66.7105,-215.948 77.0535,-213.652 73.3638,-207.703"/>
</g>
<!-- Node9 -->
<g id="node9" class="node"><title>Node9</title>
<g id="a_node9"><a xlink:href="class_dwarf_elephant_r_b_nodal_variable_value.html" target="_top" xlink:title="DwarfElephantRBNodalVariable\lValue">
<polygon fill="white" stroke="black" points="144.5,-88.5 144.5,-118.5 303.5,-118.5 303.5,-88.5 144.5,-88.5"/>
<text text-anchor="start" x="152.5" y="-106.5" font-family="Helvetica,sans-Serif" font-size="10.00">DwarfElephantRBNodalVariable</text>
<text text-anchor="middle" x="224" y="-95.5" font-family="Helvetica,sans-Serif" font-size="10.00">Value</text>
</a>
</g>
</g>
<!-- Node1&#45;&gt;Node9 -->
<g id="edge8" class="edge"><title>Node1&#45;&gt;Node9</title>
<path fill="none" stroke="midnightblue" d="M63.4704,-207.241C78.1391,-185.366 105.562,-149.098 138,-128.5 144.103,-124.625 150.83,-121.33 157.747,-118.532"/>
<polygon fill="midnightblue" stroke="midnightblue" points="60.3489,-205.62 57.8212,-215.909 66.2135,-209.442 60.3489,-205.62"/>
</g>
<!-- Node10 -->
<g id="node10" class="node"><title>Node10</title>
<g id="a_node10"><a xlink:href="class_dwarf_elephant_r_b_point_value.html" target="_top" xlink:title="DwarfElephantRBPointValue">
<polygon fill="white" stroke="black" points="152,-50 152,-69 296,-69 296,-50 152,-50"/>
<text text-anchor="middle" x="224" y="-57" font-family="Helvetica,sans-Serif" font-size="10.00">DwarfElephantRBPointValue</text>
</a>
</g>
</g>
<!-- Node1&#45;&gt;Node10 -->
<g id="edge9" class="edge"><title>Node1&#45;&gt;Node10</title>
<path fill="none" stroke="midnightblue" d="M57.8806,-206.031C68.4898,-174.359 93.927,-111.958 138,-79.5 143.859,-75.1849 150.51,-71.7848 157.448,-69.1083"/>
<polygon fill="midnightblue" stroke="midnightblue" points="54.452,-205.262 54.7401,-215.853 61.1194,-207.394 54.452,-205.262"/>
</g>
<!-- Node11 -->
<g id="node11" class="node"><title>Node11</title>
<g id="a_node11"><a xlink:href="class_dwarf_elephant_reduced_to_full_state.html" target="_top" xlink:title="This UserObject is required to initialitze the RB system structure and transfer for the steady state ...">
<polygon fill="white" stroke="black" points="149,-0.5 149,-30.5 299,-30.5 299,-0.5 149,-0.5"/>
<text text-anchor="start" x="157" y="-18.5" font-family="Helvetica,sans-Serif" font-size="10.00">DwarfElephantReducedToFull</text>
<text text-anchor="middle" x="224" y="-7.5" font-family="Helvetica,sans-Serif" font-size="10.00">State</text>
</a>
</g>
</g>
<!-- Node1&#45;&gt;Node11 -->
<g id="edge10" class="edge"><title>Node1&#45;&gt;Node11</title>
<path fill="none" stroke="midnightblue" d="M55.6459,-205.525C63.616,-167.629 86.1892,-85.1095 138,-40.5 142.429,-36.6862 147.417,-33.4537 152.699,-30.7141"/>
<polygon fill="midnightblue" stroke="midnightblue" points="52.1281,-205.273 53.625,-215.761 58.9956,-206.629 52.1281,-205.273"/>
</g>
</g>
</svg>
