<?xml version="1.0" encoding="UTF-8" standalone="no"?>
<!DOCTYPE svg PUBLIC "-//W3C//DTD SVG 1.1//EN"
 "http://www.w3.org/Graphics/SVG/1.1/DTD/svg11.dtd">
<!-- Generated by graphviz version 2.38.0 (20140413.2041)
 -->
<!-- Title: Graphical Class Hierarchy Pages: 1 -->
<svg width="456pt" height="39pt"
 viewBox="0.00 0.00 456.00 39.00" xmlns="http://www.w3.org/2000/svg" xmlns:xlink="http://www.w3.org/1999/xlink">
<g id="graph0" class="graph" transform="scale(1 1) rotate(0) translate(4 35)">
<title>Graphical Class Hierarchy</title>
<polygon fill="white" stroke="none" points="-4,4 -4,-35 452,-35 452,4 -4,4"/>
<!-- Node1 -->
<g id="node1" class="node"><title>Node1</title>
<polygon fill="white" stroke="#bfbfbf" points="0,-6 0,-25 69,-25 69,-6 0,-6"/>
<text text-anchor="middle" x="34.5" y="-13" font-family="Helvetica,sans-Serif" font-size="10.00">DiracKernel</text>
</g>
<!-- Node2 -->
<g id="node2" class="node"><title>Node2</title>
<g id="a_node2"><a xlink:href="class_dwarf_elephant_r_b_dirac_kernel.html" target="_top" xlink:title="DwarfElephantRBDiracKernel">
<polygon fill="white" stroke="black" points="105,-6 105,-25 253,-25 253,-6 105,-6"/>
<text text-anchor="middle" x="179" y="-13" font-family="Helvetica,sans-Serif" font-size="10.00">DwarfElephantRBDiracKernel</text>
</a>
</g>
</g>
<!-- Node1&#45;&gt;Node2 -->
<g id="edge1" class="edge"><title>Node1&#45;&gt;Node2</title>
<path fill="none" stroke="midnightblue" d="M79.5283,-15.5C87.6048,-15.5 96.2304,-15.5 104.893,-15.5"/>
<polygon fill="midnightblue" stroke="midnightblue" points="79.2705,-12.0001 69.2705,-15.5 79.2705,-19.0001 79.2705,-12.0001"/>
</g>
<!-- Node3 -->
<g id="node3" class="node"><title>Node3</title>
<g id="a_node3"><a xlink:href="class_dwarf_elephant_r_b_constant_point_source.html" target="_top" xlink:title="DwarfElephantRBConstantPoint\lSource">
<polygon fill="white" stroke="black" points="289,-0.5 289,-30.5 448,-30.5 448,-0.5 289,-0.5"/>
<text text-anchor="start" x="297" y="-18.5" font-family="Helvetica,sans-Serif" font-size="10.00">DwarfElephantRBConstantPoint</text>
<text text-anchor="middle" x="368.5" y="-7.5" font-family="Helvetica,sans-Serif" font-size="10.00">Source</text>
</a>
</g>
</g>
<!-- Node2&#45;&gt;Node3 -->
<g id="edge2" class="edge"><title>Node2&#45;&gt;Node3</title>
<path fill="none" stroke="midnightblue" d="M263.29,-15.5C271.764,-15.5 280.353,-15.5 288.777,-15.5"/>
<polygon fill="midnightblue" stroke="midnightblue" points="263.029,-12.0001 253.029,-15.5 263.029,-19.0001 263.029,-12.0001"/>
</g>
</g>
</svg>
