<?xml version="1.0" encoding="UTF-8" standalone="no"?>
<!DOCTYPE svg PUBLIC "-//W3C//DTD SVG 1.1//EN"
 "http://www.w3.org/Graphics/SVG/1.1/DTD/svg11.dtd">
<!-- Generated by graphviz version 2.38.0 (20140413.2041)
 -->
<!-- Title: src/main.C Pages: 1 -->
<svg width="408pt" height="140pt"
 viewBox="0.00 0.00 408.00 140.00" xmlns="http://www.w3.org/2000/svg" xmlns:xlink="http://www.w3.org/1999/xlink">
<g id="graph0" class="graph" transform="scale(1 1) rotate(0) translate(4 136)">
<title>src/main.C</title>
<polygon fill="white" stroke="none" points="-4,4 -4,-136 404,-136 404,4 -4,4"/>
<!-- Node1 -->
<g id="node1" class="node"><title>Node1</title>
<polygon fill="#bfbfbf" stroke="black" points="166,-112.5 166,-131.5 230,-131.5 230,-112.5 166,-112.5"/>
<text text-anchor="middle" x="198" y="-119.5" font-family="Helvetica,sans-Serif" font-size="10.00">src/main.C</text>
</g>
<!-- Node2 -->
<g id="node2" class="node"><title>Node2</title>
<g id="a_node2"><a xlink:href="_dwarf_elephant_app_8h.html" target="_top" xlink:title="DwarfElephantApp.h">
<polygon fill="white" stroke="black" points="0,-56.5 0,-75.5 108,-75.5 108,-56.5 0,-56.5"/>
<text text-anchor="middle" x="54" y="-63.5" font-family="Helvetica,sans-Serif" font-size="10.00">DwarfElephantApp.h</text>
</a>
</g>
</g>
<!-- Node1&#45;&gt;Node2 -->
<g id="edge1" class="edge"><title>Node1&#45;&gt;Node2</title>
<path fill="none" stroke="midnightblue" d="M175.183,-112.444C151.168,-103.438 113.171,-89.1891 86.1308,-79.049"/>
<polygon fill="midnightblue" stroke="midnightblue" points="87.3027,-75.7506 76.7105,-75.5164 84.8448,-82.3049 87.3027,-75.7506"/>
</g>
<!-- Node3 -->
<g id="node3" class="node"><title>Node3</title>
<polygon fill="white" stroke="#bfbfbf" points="58.5,-0.5 58.5,-19.5 131.5,-19.5 131.5,-0.5 58.5,-0.5"/>
<text text-anchor="middle" x="95" y="-7.5" font-family="Helvetica,sans-Serif" font-size="10.00">MooseApp.h</text>
</g>
<!-- Node1&#45;&gt;Node3 -->
<g id="edge5" class="edge"><title>Node1&#45;&gt;Node3</title>
<path fill="none" stroke="midnightblue" d="M189.712,-112.415C181.02,-103.391 166.984,-88.7601 155,-76 139.502,-59.4987 121.959,-40.4496 109.864,-27.2578"/>
<polygon fill="midnightblue" stroke="midnightblue" points="112.439,-24.8873 103.104,-19.8761 107.276,-29.6148 112.439,-24.8873"/>
</g>
<!-- Node4 -->
<g id="node4" class="node"><title>Node4</title>
<polygon fill="white" stroke="#bfbfbf" points="164,-56.5 164,-75.5 232,-75.5 232,-56.5 164,-56.5"/>
<text text-anchor="middle" x="198" y="-63.5" font-family="Helvetica,sans-Serif" font-size="10.00">MooseInit.h</text>
</g>
<!-- Node1&#45;&gt;Node4 -->
<g id="edge3" class="edge"><title>Node1&#45;&gt;Node4</title>
<path fill="none" stroke="midnightblue" d="M198,-112.083C198,-105.006 198,-94.8611 198,-85.9865"/>
<polygon fill="midnightblue" stroke="midnightblue" points="201.5,-85.751 198,-75.7511 194.5,-85.7511 201.5,-85.751"/>
</g>
<!-- Node5 -->
<g id="node5" class="node"><title>Node5</title>
<polygon fill="white" stroke="#bfbfbf" points="250.5,-56.5 250.5,-75.5 305.5,-75.5 305.5,-56.5 250.5,-56.5"/>
<text text-anchor="middle" x="278" y="-63.5" font-family="Helvetica,sans-Serif" font-size="10.00">Moose.h</text>
</g>
<!-- Node1&#45;&gt;Node5 -->
<g id="edge4" class="edge"><title>Node1&#45;&gt;Node5</title>
<path fill="none" stroke="midnightblue" d="M210.853,-112.324C223.216,-103.979 242.13,-91.2122 256.737,-81.3524"/>
<polygon fill="midnightblue" stroke="midnightblue" points="258.848,-84.1503 265.179,-75.6545 254.932,-78.3483 258.848,-84.1503"/>
</g>
<!-- Node6 -->
<g id="node6" class="node"><title>Node6</title>
<polygon fill="white" stroke="#bfbfbf" points="324,-56.5 324,-75.5 400,-75.5 400,-56.5 324,-56.5"/>
<text text-anchor="middle" x="362" y="-63.5" font-family="Helvetica,sans-Serif" font-size="10.00">AppFactory.h</text>
</g>
<!-- Node1&#45;&gt;Node6 -->
<g id="edge6" class="edge"><title>Node1&#45;&gt;Node6</title>
<path fill="none" stroke="midnightblue" d="M223.986,-112.444C251.696,-103.32 295.752,-88.8133 326.616,-78.6509"/>
<polygon fill="midnightblue" stroke="midnightblue" points="327.732,-81.9684 336.135,-75.5164 325.542,-75.3196 327.732,-81.9684"/>
</g>
<!-- Node2&#45;&gt;Node3 -->
<g id="edge2" class="edge"><title>Node2&#45;&gt;Node3</title>
<path fill="none" stroke="midnightblue" d="M60.7703,-56.083C66.5616,-48.4554 75.0585,-37.2645 82.1375,-27.9408"/>
<polygon fill="midnightblue" stroke="midnightblue" points="85.0961,-29.8321 88.3557,-19.7511 79.521,-25.5991 85.0961,-29.8321"/>
</g>
</g>
</svg>
